<svg width="94" height="38" viewBox="0 0 94 38" fill="none" xmlns="http://www.w3.org/2000/svg">
<path d="M50.3448 1.95356C49.4317 1.22307 48.275 0.857819 46.9967 0.857819C45.7183 0.857819 44.6834 1.1622 43.892 1.83182C43.2224 2.37969 42.7355 3.0493 42.4311 3.84067C42.1876 4.44942 41.9441 5.24079 41.7006 6.27566L37.8655 18.5723L33.4216 7.49315C32.9346 5.97129 32.5694 4.93642 32.265 4.2668C31.8998 3.47543 31.2301 2.68406 30.3779 2.01444C29.4647 1.34482 28.1864 0.979575 26.6037 0.979575C25.0818 0.979575 23.8034 1.34482 22.8903 1.95356C21.9772 2.62319 21.3076 3.35368 20.8814 4.2668C20.5162 5.05817 20.1509 6.09304 19.7248 7.49315L15.4636 18.6332L11.4459 6.45829C11.0197 4.87555 10.5327 3.65806 9.98485 2.80581C9.25436 1.6492 7.91514 1.10132 6.0889 1.10132C4.74966 1.10132 3.65391 1.46657 2.74079 2.25794C1.7668 3.04931 1.27979 4.14506 1.27979 5.30168C1.27979 6.09305 1.52331 7.12791 1.94943 8.52803L8.40213 30.1385C8.58475 30.8082 8.82824 31.4778 9.07173 32.2691C9.37611 33.1214 9.74139 33.9128 10.1675 34.5215C10.6545 35.252 11.3241 35.7999 12.1155 36.1651C12.9068 36.5304 13.8809 36.713 15.0375 36.713C16.4985 36.713 17.6551 36.3478 18.5682 35.739C19.4813 35.1303 20.0901 34.3389 20.4553 33.5475C20.7597 32.8779 21.1249 31.7822 21.6728 30.2603L26.6645 14.6155L31.778 30.2603C32.3259 31.843 32.6911 32.8779 32.9955 33.5475C33.3608 34.3389 34.0303 35.0694 34.9435 35.739C35.8566 36.3478 37.0741 36.713 38.4742 36.713C39.9961 36.713 41.2136 36.3477 42.1267 35.6781C42.979 35.0085 43.5877 34.278 43.9529 33.3649C44.2573 32.6344 44.6226 31.5386 45.0487 30.0168L51.3188 8.34541C51.7449 6.88442 51.9275 5.84954 51.9275 5.11904C51.8666 3.84068 51.3188 2.74493 50.3448 1.95356Z" fill="#8DC640" stroke="#221F1F" stroke-width="0.820712" stroke-miterlimit="10" stroke-linecap="round" stroke-linejoin="round"/>
<path d="M8.15865 4.5103C9.13265 6.09304 9.61967 7.98016 10.1675 9.74553C10.8372 11.937 11.6894 14.0676 12.4808 16.1982C12.846 17.294 13.2113 18.3288 13.5157 19.4246C13.5765 19.6072 14.0635 21.1291 14.1244 21.0682C14.6723 20.2768 15.0984 19.4246 15.4028 18.5115L11.4459 6.4583C11.0198 4.87556 10.5328 3.65806 9.98489 2.80582C9.2544 1.6492 7.91518 1.10133 6.08894 1.10133C5.48019 1.10133 4.93231 1.22307 4.44531 1.34482C5.96718 1.64919 7.30641 3.04931 8.15865 4.5103Z" fill="#8DC640"/>
<path d="M24.1079 1.71008C27.0907 1.46658 29.7692 4.26682 30.865 6.76268C31.6564 8.58892 32.326 10.5369 32.9956 12.424C33.6652 14.2503 34.5783 16.0156 35.1262 17.9027C35.3697 18.755 35.5523 19.6681 35.9176 20.4595C36.5872 21.9205 37.3177 20.8247 37.5612 19.9116C37.7438 19.3637 37.8047 18.8159 37.9264 18.268L37.8656 18.5115L33.4217 7.4323C32.9347 5.91044 32.5695 4.87556 32.2651 4.20594C31.8998 3.41457 31.2302 2.6232 30.378 1.95358C29.4648 1.28395 28.1865 0.918709 26.6038 0.918709C25.0819 0.918709 23.8035 1.28396 22.8904 1.89271C23.2556 1.89271 23.6818 1.77096 24.1079 1.71008Z" fill="#8DC640"/>
<path d="M26.6646 14.6764C26.6646 14.2503 26.6646 13.7024 26.6646 13.1545C26.6037 12.9719 26.5428 12.8501 26.5428 12.7284C26.4211 12.7284 26.2384 12.7893 26.1167 12.8501C25.6297 14.2503 25.1427 15.2851 24.7166 16.4417C24.047 18.3289 23.3165 20.216 22.586 22.0422C21.7337 24.112 20.8815 26.1817 20.0901 28.3123C19.6031 29.7124 19.1161 31.1734 18.3247 32.4518C16.9855 34.6433 14.7332 36.4695 11.9938 35.6781C11.385 35.4955 10.898 35.252 10.4719 34.9476C10.898 35.4346 11.4459 35.8607 12.0547 36.1042C12.846 36.4695 13.82 36.6521 14.9766 36.6521C16.4376 36.6521 17.5942 36.2869 18.5073 35.6781C19.4205 35.0694 20.0292 34.278 20.3945 33.4866C20.6989 32.817 21.0641 31.7213 21.612 30.1994L26.6037 14.5546L26.6646 14.6764Z" fill="#8DC640"/>
<path d="M50.3449 1.95357C49.4317 1.22308 48.2751 0.857826 46.9967 0.857826C45.9619 0.857826 45.1096 1.04045 44.44 1.46657C45.5966 1.4057 46.7532 1.77095 47.7881 2.74494C49.5535 4.38856 49.0056 6.94529 48.4577 9.01503C47.5446 12.3023 46.6924 15.5895 45.7793 18.8767C44.927 22.0422 44.0748 25.2077 43.0399 28.3123C42.1876 30.7473 41.2745 33.4866 39.2048 35.1911C37.2568 36.7739 35.4914 36.226 34.0913 34.9476C34.3348 35.1911 34.6392 35.4346 34.9435 35.6781C35.8567 36.2869 37.0742 36.6521 38.4743 36.6521C39.9962 36.6521 41.2137 36.2869 42.1268 35.6173C42.979 34.9476 43.5878 34.2172 43.953 33.304C44.2574 32.5735 44.6226 31.4778 45.0487 29.9559L51.3188 8.28454C51.745 6.82355 51.9276 5.78867 51.9276 5.05817C51.8667 3.84068 51.3188 2.74494 50.3449 1.95357Z" fill="#8DC640"/>
<path d="M11.811 31.7213C9.68041 27.5818 8.58466 23.0771 7.24542 18.5724C6.51492 16.0765 5.66271 13.6415 4.99309 11.0848C4.38434 8.71068 2.98421 6.21481 3.53208 3.71895C3.53208 3.5972 3.41034 3.65808 3.34947 3.71895C2.3146 5.48432 2.98422 7.37143 3.47122 9.25855C4.14084 11.7544 5.05396 14.2503 5.78445 16.7461C6.6367 19.6072 7.42805 22.4075 8.2803 25.2686C8.94992 27.5209 9.49781 30.4429 11.2632 32.1474C11.5067 32.3909 11.9328 32.0257 11.811 31.7213Z" fill="white"/>
<path d="M24.2295 3.04931C21.7945 3.96243 21.064 7.12791 20.6988 9.38027C20.6379 9.68465 21.064 9.5629 21.1858 9.38027C21.7336 8.22366 22.038 6.94529 22.4641 5.72779C22.8294 4.63205 23.6207 4.02331 24.2904 3.17106C24.3512 3.11019 24.2904 2.98844 24.2295 3.04931Z" fill="white"/>
<path d="M32.1434 24.5381C31.1086 21.4943 30.4389 18.3289 28.8562 15.5286C28.7953 15.346 28.5518 15.5286 28.6127 15.7112C29.5258 18.8158 30.3172 21.9813 31.4129 25.0251C32.3869 27.7644 32.9348 31.4169 35.0046 33.5475C35.1872 33.7301 35.4915 33.4258 35.3698 33.2431C34.1523 30.382 33.1783 27.46 32.1434 24.5381Z" fill="white"/>
<path d="M44.5618 3.71895C43.527 4.08419 43.2835 5.30169 43.04 6.21481C42.4921 8.22367 41.6399 10.0499 41.3964 12.1196C41.3355 12.5458 41.9442 12.424 42.066 12.1196C42.6138 10.7195 42.8574 9.25853 43.3444 7.85842C43.7705 6.58005 44.014 4.93643 44.7445 3.84068C44.6836 3.77981 44.6227 3.65807 44.5618 3.71895Z" fill="white"/>
<path d="M92.0438 9.44115C91.3133 8.89328 90.461 8.58891 89.4261 8.58891C88.3913 8.58891 87.5999 8.8324 86.9911 9.3194C86.4433 9.74552 86.078 10.2934 85.8345 10.9021C85.6519 11.3891 85.4693 11.9979 85.2867 12.7893L82.2429 22.4074L78.7731 13.7024C78.4078 12.5458 78.1034 11.6935 77.8599 11.1456C77.5556 10.476 77.0686 9.92815 76.3381 9.38028C75.6076 8.8324 74.6336 8.58891 73.3552 8.58891C72.1377 8.58891 71.1638 8.8324 70.4333 9.38028C69.7028 9.86727 69.1549 10.476 68.8505 11.2065C68.5461 11.8153 68.3026 12.6066 67.9374 13.7633L64.5893 22.4683L61.4238 12.911C61.1194 11.6935 60.7542 10.7195 60.2672 10.0499C59.7193 9.13678 58.6844 8.71065 57.2235 8.71065C56.1886 8.71065 55.3363 9.01502 54.6059 9.62377C53.8145 10.2325 53.4492 11.0848 53.4492 12.0588C53.4492 12.6675 53.6318 13.5198 53.9362 14.5546L59.0497 31.5386C59.2323 32.0256 59.354 32.6344 59.5975 33.1823C59.841 33.8519 60.1454 34.4606 60.4498 34.9476C60.8759 35.4955 61.3629 35.9216 62.0325 36.226C62.6413 36.5304 63.4327 36.6521 64.2849 36.6521C65.4415 36.6521 66.3547 36.4086 67.0852 35.8608C67.7548 35.3738 68.3026 34.765 68.5461 34.0954C68.7896 33.5475 69.094 32.6953 69.4592 31.5386L73.3552 19.242L77.3729 31.4778C77.7991 32.6953 78.1035 33.5475 78.347 34.0345C78.6513 34.7041 79.1383 35.252 79.8688 35.739C80.5993 36.226 81.5124 36.4695 82.6691 36.4695C83.8865 36.4695 84.7997 36.1651 85.5302 35.6781C86.1998 35.1911 86.6868 34.5824 86.9911 33.8519C87.2346 33.304 87.539 32.3909 87.8434 31.2343L92.7134 14.2502C93.0177 13.0936 93.2004 12.3023 93.2004 11.6935C93.2612 10.9022 92.8351 10.0499 92.0438 9.44115Z" fill="#C6D92D" stroke="#221F1F" stroke-width="0.820712" stroke-miterlimit="10" stroke-linecap="round" stroke-linejoin="round"/>
<path d="M73.6598 19.9725C73.6598 19.5463 73.7207 19.4855 73.6598 19.1202C73.4163 18.1462 72.1988 18.9376 72.0771 19.6681C71.9553 20.216 71.8336 20.3377 71.5292 21.3117C71.3466 21.9205 71.1031 22.8336 70.9205 23.4423C69.7639 26.6078 68.9725 29.5298 67.755 32.6953C66.6592 35.5564 64.6504 36.5912 62.5198 36.4695C63.0676 36.6521 63.6764 36.713 64.346 36.713C65.5026 36.713 66.4157 36.4695 67.1462 35.9216C67.8159 35.4346 68.3637 34.8259 68.6072 34.1563C68.8507 33.6084 69.1551 32.7561 69.5204 31.5995L73.4163 19.3029L73.6598 19.9725Z" fill="#8DC640"/>
<path d="M57.4061 9.38028C59.7194 10.963 60.2064 13.7632 60.9369 16.32C61.363 17.9636 61.9109 19.5463 62.3979 21.19C62.7631 22.4683 63.0066 24.1119 63.6154 25.2686C64.4676 24.4163 64.8329 23.0771 64.9546 21.7987L64.6502 22.5292L61.4848 12.9719C61.1804 11.7544 60.8151 10.7804 60.3281 10.1108C59.7802 9.19766 58.7454 8.77153 57.2844 8.77153C56.9191 8.77153 56.6148 8.83241 56.2495 8.89329C56.6756 9.01504 57.0409 9.13678 57.4061 9.38028Z" fill="#8DC640"/>
<path d="M76.5819 11.937C78.1647 14.6155 78.7125 17.781 79.93 20.5812C80.2953 21.4943 80.7214 22.3466 81.1475 23.2597C81.2693 23.9902 81.6954 24.2337 82.4868 23.9293C82.5476 23.4423 82.6085 23.0162 82.5476 22.5292C82.5476 22.3466 82.4868 22.1031 82.4868 21.9205L82.3042 22.5292L78.8343 13.8241C78.469 12.6675 78.1647 11.8153 77.9212 11.2674C77.6168 10.5978 77.1298 10.0499 76.3993 9.50203C75.6688 8.95416 74.6948 8.71065 73.4164 8.71065C72.1989 8.71065 71.2249 8.95416 70.4945 9.50203C69.764 9.98903 69.2161 10.5978 68.9117 11.3283C68.9117 11.3891 68.8508 11.45 68.8508 11.45C71.1641 9.31939 74.6339 8.58891 76.5819 11.937Z" fill="#8DC640"/>
<path d="M92.0438 9.44115C91.3133 8.89328 90.461 8.58891 89.4261 8.58891C88.3913 8.58891 87.5999 8.8324 86.9911 9.3194C86.7476 9.50202 86.565 9.74552 86.3824 9.98902C87.2955 9.44115 88.3913 9.25853 89.487 9.68465C90.7654 10.2325 91.1306 11.6935 91.0697 12.911C91.0089 14.0676 90.4001 15.2242 90.0958 16.32C89.7914 17.4766 89.487 18.6941 89.1826 19.9116C88.4521 22.9553 87.6608 25.9991 86.8085 28.9819C86.2606 30.8082 85.9563 33.304 84.617 34.8259C83.8257 35.6781 82.8517 36.2869 81.8777 36.5304C82.1821 36.5912 82.4864 36.5913 82.7908 36.5913C84.0083 36.5913 84.9214 36.2869 85.6519 35.7999C86.3215 35.3129 86.8085 34.7041 87.1129 33.9736C87.3564 33.4258 87.6608 32.5126 87.9652 31.356L92.8351 14.372C93.1395 13.2154 93.3221 12.424 93.3221 11.8153C93.2612 10.9021 92.8351 10.0499 92.0438 9.44115Z" fill="#8DC640"/>
<path d="M62.946 34.278C61.6676 33.0605 61.2415 30.9299 60.6936 29.2863C60.0849 27.3992 59.4761 25.5121 58.8674 23.5641C58.2586 21.677 57.7716 19.729 57.2238 17.8418C56.5541 15.6504 55.5802 13.5198 55.8237 11.2065C55.8237 10.963 55.5802 11.0848 55.5193 11.2065C54.667 12.8501 55.2758 14.4329 55.7628 16.1374C56.4933 18.5724 57.1629 21.0073 57.8934 23.4423C58.6239 25.8164 59.4152 28.1906 60.1457 30.5647C60.5719 31.9648 60.998 34.278 62.459 34.8868C62.7633 34.9476 63.1895 34.5215 62.946 34.278Z" fill="white"/>
<path d="M74.6336 10.963C73.5987 9.50202 70.8594 10.0499 70.4941 11.8153C70.4941 11.937 70.6159 11.937 70.6768 11.8761C71.1638 11.3891 71.529 10.963 72.2595 10.9021C72.99 10.7804 73.5379 11.3283 74.1466 11.6326C74.5119 11.8153 74.8771 11.2674 74.6336 10.963Z" fill="white"/>
<path d="M75.425 19.9725C75.3642 19.8507 75.1207 19.9725 75.1816 20.0942C75.6686 21.8596 76.0947 23.5641 76.7643 25.2686C77.4948 27.1557 77.9818 29.4689 79.0167 31.1734C79.1384 31.356 79.5037 31.1734 79.4428 30.9908C78.6514 27.2165 77.1904 23.3814 75.425 19.9725Z" fill="white"/>
<path d="M88.2089 10.5978C86.9305 11.3891 86.3826 12.911 85.8956 14.2503C85.226 16.1374 84.3738 18.4506 84.1912 20.4595C84.1912 20.703 84.4955 20.703 84.6173 20.5204C85.2869 19.242 85.6522 17.9027 86.0174 16.5026C86.5653 14.6155 86.9305 12.1196 88.2698 10.6587C88.3306 10.6587 88.3306 10.5369 88.2089 10.5978Z" fill="white"/>
</svg>
