<svg width="55" height="37" viewBox="0 0 55 37" fill="none" xmlns="http://www.w3.org/2000/svg">
<path d="M34.3308 5.56909C34.3308 4.41247 33.8438 3.49935 32.9307 2.76885C32.0785 2.16011 30.9218 1.85573 29.4 1.85573L6.08497 1.97748C4.62398 1.97748 3.46737 2.28186 2.676 2.8906C1.76288 3.56022 1.27588 4.53422 1.27588 5.75171C1.27588 6.90833 1.76288 7.82145 2.676 8.55195C3.52824 9.16069 4.62399 9.46507 6.20673 9.46507L13.0247 9.40419L13.1464 30.4668C13.1464 32.0496 13.6334 33.3279 14.5465 34.1802C15.4597 35.0324 16.6163 35.3977 18.0164 35.3977C19.3556 35.3977 20.5123 34.9715 21.4254 34.1193C22.3385 33.2671 22.8255 31.9887 22.8255 30.4059L22.7038 9.34331L29.5217 9.28243C31.0436 9.28243 32.2002 8.97807 33.0525 8.30845C33.8438 7.6997 34.3308 6.72571 34.3308 5.56909Z" fill="#F99F32" stroke="#221F1F" stroke-width="0.820712" stroke-miterlimit="10" stroke-linecap="round" stroke-linejoin="round"/>
<path d="M12.9031 9.64768C13.2684 9.22156 13.6336 8.79545 13.9988 8.30845C10.5899 8.06495 3.58928 9.83032 2.12829 5.87346C1.82391 4.96034 1.82391 4.10809 2.12829 3.3776C1.51954 4.04722 1.1543 4.83859 1.1543 5.81258C1.1543 6.9692 1.6413 7.88233 2.55442 8.61282C3.40666 9.22157 4.5024 9.52594 6.08514 9.52594L12.9031 9.46506V9.64768Z" fill="#F99F32"/>
<path d="M32.8696 2.8906C32.8088 2.82973 32.7479 2.82973 32.687 2.76885C32.7479 2.8906 32.8697 3.01235 32.9305 3.1341C33.4784 4.29071 33.5393 5.69084 32.6262 6.72571C31.4087 8.12582 29.5824 8.36931 27.8171 8.36931C25.5038 8.36931 23.1297 8.36931 20.8165 8.43019C20.8165 9.83031 20.8165 11.5957 20.8165 13.0567L21.1208 20.0573C21.1208 23.5271 21.1209 24.9272 21.1817 28.3971C21.2426 30.7712 21.1817 33.3888 19.3555 35.215C19.2337 35.3368 19.112 35.4585 18.9902 35.5194C19.9034 35.3368 20.6947 34.9715 21.3643 34.3628C22.2775 33.5105 22.7645 32.2322 22.7645 30.6494L22.6427 9.5868L29.4607 9.52594C30.9825 9.52594 32.1392 9.22157 32.9914 8.55195C33.9045 7.88232 34.3915 6.90833 34.3915 5.75171C34.2698 4.53421 33.7828 3.56022 32.8696 2.8906Z" fill="#F99F32"/>
<path d="M14.9726 19.4485C15.0334 17.6831 15.0334 15.9178 15.0334 14.2133C15.0334 12.9349 15.1552 11.7783 14.6073 10.5608C14.5464 10.4999 14.4856 10.5608 14.4856 10.6217C14.1203 13.848 14.2421 17.1353 14.3029 20.3616C14.3638 23.7706 13.6333 27.7275 14.7291 31.0147C14.7899 31.2582 15.0943 31.0147 15.0943 30.8321C14.9726 26.997 14.9117 23.2227 14.9726 19.4485Z" fill="white"/>
<path d="M15.4594 32.4148C15.3986 32.3539 15.3377 32.2322 15.3377 32.1104C15.3986 31.8669 15.0942 31.9278 14.9724 32.0496C14.7898 32.3539 14.8507 32.5974 14.9724 32.9018C15.0942 33.1453 15.3986 32.9627 15.5203 32.8409L15.5812 32.7801C15.7029 32.6583 15.6421 32.4757 15.4594 32.4148Z" fill="white"/>
<path d="M31.4698 3.49934C30.5567 2.82972 29.4 2.82972 28.3043 2.82972C26.7216 2.76885 25.0779 2.70798 23.4952 2.76885C21.5472 2.76885 19.6601 2.70798 17.7121 2.70798C15.5815 2.70798 13.4509 3.1341 11.3203 3.07323C11.3203 3.07323 11.2594 3.1341 11.3203 3.1341C14.1205 3.86459 17.5904 3.13409 20.4515 3.25584C22.0951 3.31672 23.7387 3.25585 25.3823 3.31672C26.8433 3.3776 29.7044 3.01235 30.9219 3.98635C31.2263 4.16897 31.7133 3.68196 31.4698 3.49934Z" fill="white"/>
<path d="M50.9494 27.971C50.5233 27.971 49.9754 28.0318 49.3058 28.2145C47.6622 28.5188 47.297 28.2753 47.297 28.2753C47.2361 28.2145 47.1143 28.0927 47.0535 27.7883C46.9926 27.3622 46.9317 26.6926 46.9317 25.8403L46.8708 16.1004H46.9317C48.3318 16.1004 49.4276 15.9178 50.2189 15.4917C51.3147 14.9438 51.8626 13.9698 51.8626 12.6914C51.8626 11.6565 51.4364 10.8043 50.7059 10.1956C50.0363 9.64768 49.1232 9.34331 48.0274 9.34331H46.81V6.48221C46.81 5.38647 46.7491 4.53421 46.5665 3.86459C46.3838 3.07322 45.9577 2.34273 45.349 1.79486C44.4967 1.06436 43.5836 0.699112 42.5487 0.699112C41.8182 0.699112 41.1486 0.881741 40.5399 1.24699C39.9311 1.61224 39.4441 2.09923 39.0789 2.6471C38.7136 3.19497 38.531 3.8646 38.4701 4.65597C38.4093 5.26472 38.4093 6.05609 38.4093 7.09096V9.46507C37.4353 9.52594 36.6439 9.76944 36.0352 10.3173C35.2438 10.9869 34.8177 11.8392 34.8785 12.8741C34.8785 13.9089 35.3047 14.7612 36.0352 15.4308C36.6439 15.9786 37.4962 16.2221 38.531 16.283L38.5919 26.5709C38.5919 28.5797 38.7745 30.1625 39.1398 31.3799C39.5659 32.7801 40.4181 33.8758 41.6356 34.6672C42.8531 35.3977 44.4359 35.7629 46.6273 35.7629C48.8797 35.7629 50.5233 35.4585 51.8017 34.8498C53.6888 33.9367 54.1149 32.5366 54.1149 31.5017C54.1149 30.5886 53.7497 29.7363 53.0801 29.1276C52.4104 28.2145 51.6799 27.971 50.9494 27.971Z" fill="#FFC52F" stroke="#221F1F" stroke-width="0.820712" stroke-miterlimit="10" stroke-linecap="round" stroke-linejoin="round"/>
<path d="M50.9494 27.971C50.5233 27.971 49.9754 28.0318 49.3058 28.2145C47.6622 28.5188 47.297 28.2753 47.297 28.2753C47.2361 28.2145 47.1143 28.0927 47.0535 27.7883C46.9926 27.3622 46.9317 26.6926 46.9317 25.8403L46.8708 16.1004H46.9317C48.3318 16.1004 49.4276 15.9178 50.2189 15.4917C51.3147 14.9438 51.8626 13.9698 51.8626 12.6914C51.8626 11.6565 51.4364 10.8043 50.7059 10.1956C50.0363 9.64768 49.1232 9.34331 48.0274 9.34331H46.81V6.48221C46.81 5.38647 46.7491 4.53421 46.5665 3.86459C46.3838 3.07322 45.9577 2.34273 45.349 1.79486C44.4967 1.06436 43.5836 0.699112 42.5487 0.699112C41.8182 0.699112 41.1486 0.881741 40.5399 1.24699C39.9311 1.61224 39.4441 2.09923 39.0789 2.6471C38.7136 3.19497 38.531 3.8646 38.4701 4.65597C38.4093 5.26472 38.4093 6.05609 38.4093 7.09096V9.46507C37.4353 9.52594 36.6439 9.76944 36.0352 10.3173C35.2438 10.9869 34.8177 11.8392 34.8785 12.8741C34.8785 13.9089 35.3047 14.7612 36.0352 15.4308C36.6439 15.9786 37.4962 16.2221 38.531 16.283L38.5919 26.5709C38.5919 28.5797 38.7745 30.1625 39.1398 31.3799C39.5659 32.7801 40.4181 33.8758 41.6356 34.6672C42.8531 35.3977 44.4359 35.7629 46.6273 35.7629C48.8797 35.7629 50.5233 35.4585 51.8017 34.8498C53.6888 33.9367 54.1149 32.5366 54.1149 31.5017C54.1149 30.5886 53.7497 29.7363 53.0801 29.1276C52.4104 28.2145 51.6799 27.971 50.9494 27.971Z" fill="#FFC52F" stroke="#221F1F" stroke-width="0.820712" stroke-miterlimit="10" stroke-linecap="round" stroke-linejoin="round"/>
<path d="M38.5918 13.9698C38.044 13.9089 37.557 13.7872 37.0091 13.6045C35.609 13.1175 35.2437 11.8392 35.4264 10.6217C35.0003 11.1696 34.8176 11.8392 34.8176 12.5697C34.8176 13.6045 35.2437 14.4568 35.9742 15.1264C36.583 15.6134 37.3135 15.9178 38.2875 15.9786C38.8353 15.1873 40.2355 14.2133 38.5918 13.9698Z" fill="#F99F32"/>
<path d="M53.0192 28.8232C52.4105 28.2753 51.7409 27.971 50.9495 27.971C50.5234 27.971 49.9755 28.0318 49.3059 28.2145C47.6623 28.5188 47.297 28.2753 47.297 28.2753C47.2361 28.2145 47.1144 28.0927 47.0535 27.7883C46.9927 27.3622 46.9318 26.6926 46.9318 25.8403L46.8709 16.1004H46.9318C48.3319 16.1004 49.4276 15.9178 50.219 15.4917C51.3147 14.9438 51.8626 13.9698 51.8626 12.6914C51.8626 11.6565 51.4365 10.8043 50.706 10.1956C50.0364 9.64768 49.1233 9.34331 48.0275 9.34331H46.81V6.48221C46.81 5.38647 46.7491 4.53421 46.5665 3.86459C46.3839 3.07322 45.9578 2.34273 45.349 1.79486C44.4968 1.06436 43.5837 0.699112 42.5488 0.699112C41.8183 0.699112 41.1487 0.881741 40.5399 1.24699C39.9312 1.61224 39.4442 2.09923 39.0789 2.6471C39.0789 2.70797 39.0181 2.76885 39.0181 2.82973C39.8094 2.4036 40.6617 2.1601 41.6357 2.22098C43.0358 2.34273 44.1924 3.43848 44.8012 4.5951C45.349 5.62996 44.7403 10.1956 45.836 10.2564C47.7231 10.3782 51.4974 10.1956 50.8886 13.3002C50.706 14.2742 50.0364 14.8829 49.0624 15.0655C48.271 15.1873 45.2881 14.822 45.2881 15.9178C45.4099 18.7789 45.2273 21.5791 45.2273 24.4402C45.2273 26.3274 44.3142 30.406 47.3579 30.2233C48.4536 30.1625 49.4885 30.1016 50.4016 30.7712C51.3148 31.5017 50.9495 33.0236 50.2799 33.8149C48.1493 36.3717 42.5488 34.7889 40.2964 33.2062C40.0529 33.0236 39.8094 32.8409 39.5659 32.5974C40.0529 33.3888 40.6617 34.0584 41.4531 34.5454C42.6705 35.2759 44.2533 35.6412 46.4448 35.6412C48.6971 35.6412 50.3408 35.3368 51.6191 34.7281C53.5062 33.8149 53.9324 32.4148 53.9324 31.3799C53.9932 30.2233 53.6889 29.4319 53.0192 28.8232Z" fill="#F99F32"/>
<path d="M40.1747 10.3173C40.6008 8.91719 39.992 6.48219 40.0529 5.32558C40.0529 5.08208 40.1138 4.77771 40.1138 4.53421C40.1138 4.16896 40.2355 3.80372 40.3573 3.43848C40.0529 3.80372 39.8703 4.22984 39.7485 4.53421C39.4442 5.32558 39.5659 6.11695 39.6268 6.90832C39.6877 7.33444 39.8094 8.91719 39.5659 9.70856C39.4442 9.89118 39.3224 10.0129 39.0789 10.0738C38.7137 10.1347 38.2875 10.0738 37.9223 10.1955C37.2527 10.3782 36.8265 10.7434 36.5222 11.3522C36.4613 11.4131 36.5222 11.5957 36.6439 11.5348C37.0092 11.3522 37.3135 11.1087 37.7397 10.9869C38.2267 10.8043 38.7745 10.9869 39.3224 10.8043C39.3833 10.8043 39.4442 10.7434 39.4442 10.7434C39.7485 10.7434 39.992 10.5608 40.1747 10.3173Z" fill="white"/>
<path d="M42.6099 32.6583C40.114 31.3191 40.6619 26.6926 40.601 24.3185C40.5401 21.8835 40.7836 18.9006 40.0532 16.5874C39.9923 16.4048 39.7488 16.5874 39.7488 16.7091C39.9314 19.9964 39.8096 23.3445 39.8705 26.6317C39.9314 28.7014 39.5661 32.5974 42.062 33.4497C42.549 33.5105 43.0969 32.9018 42.6099 32.6583Z" fill="white"/>
<path d="M44.4968 33.4497C44.2533 33.2062 44.0098 33.3279 43.7663 33.3888C43.5228 33.4497 43.4011 33.8758 43.7055 33.9367C44.0098 33.9975 44.1316 34.0584 44.4359 33.8758C44.5577 33.8758 44.6795 33.6323 44.4968 33.4497Z" fill="white"/>
</svg>
