<svg width="32" height="44" viewBox="0 0 32 44" fill="none" xmlns="http://www.w3.org/2000/svg">
<path d="M22.3 16H8.80005C6.20005 16 4.20002 16.6 2.90002 17.7C1.50002 18.8 0.800049 20.3 0.800049 22.1C0.800049 23.9 1.50006 25.3 3.00006 26.5C4.40006 27.6 6.40002 28.2 8.90002 28.2H22.3C24.9 28.2 26.9 27.6 28.3 26.5C29.7 25.4 30.4 23.9 30.4 22.2C30.4 20.4 29.7 19 28.3 17.8C26.8 16.6 24.8 16 22.3 16Z" fill="#00B9F1" stroke="#221F1F" stroke-width="1.3482" stroke-miterlimit="10" stroke-linecap="round" stroke-linejoin="round"/>
<path d="M28.2 17.7C26.8 16.6 24.7999 16 22.2999 16H18.8999C21.3999 16 23.3 16.5 24.7 17.4C26.1 18.4 26.7999 19.6 26.7999 21.1C26.7999 22.6 26.0999 23.8 24.7999 24.8C23.4999 25.7 21.4999 26.2 18.9999 26.2H5.8999C4.5999 26.2 3.3999 26 2.3999 25.8C2.5999 26 2.79991 26.2 3.09991 26.4C4.49991 27.5 6.49994 28.1 8.99994 28.1H22.2999C24.8999 28.1 26.8999 27.5 28.2999 26.4C29.6999 25.3 30.3999 23.8 30.3999 22.1C30.2999 20.3 29.6 18.8 28.2 17.7Z" fill="#00B9F1"/>
<path d="M15.5001 17.7C12.0001 17.4 0.200044 17.1 2.90004 22.9C3.00004 23.1 3.30007 22.9 3.30007 22.8C3.30007 19.9 5.60009 18.8 8.70009 18.7C11.0001 18.6 13.1 18.5 15.4 18.3C15.6 18.1 15.9001 17.7 15.5001 17.7Z" fill="white"/>
<path d="M18.5001 17.8C18.2001 17.7 17.9001 17.7 17.5001 17.7C17.3001 17.7 17.1001 17.9 17.3001 18C17.6001 18.1 17.9001 18.2 18.2001 18.3C18.5001 18.2 18.8001 17.8 18.5001 17.8Z" fill="white"/>
<path d="M20.7 2.70001C19.4 1.60001 17.7 1 15.7 1H15.5999C13.6999 1 12 1.5 10.7 2.5C9.19995 3.6 8.3999 5.09999 8.3999 6.89999C8.3999 8.79999 9.19995 10.4 10.7 11.5C12.1 12.5 13.6999 13 15.5999 13H15.7C17.5 13 18.9999 12.5 20.3999 11.6C21.9999 10.5 22.7999 9.00001 22.7999 7.10001C22.8999 5.40001 22.1 3.90001 20.7 2.70001Z" fill="#D4DA26" stroke="#221F1F" stroke-width="1.3482" stroke-miterlimit="10" stroke-linecap="round" stroke-linejoin="round"/>
<path d="M20.7 2.70001C19.4 1.60001 17.7 1 15.7 1H15.5999C13.6999 1 12 1.5 10.7 2.5C9.19995 3.6 8.3999 5.09999 8.3999 6.89999C8.3999 8.79999 9.19995 10.4 10.7 11.5C12.1 12.5 13.6999 13 15.5999 13H15.7C17.5 13 18.9999 12.5 20.3999 11.6C21.9999 10.5 22.7999 9.00001 22.7999 7.10001C22.8999 5.40001 22.1 3.90001 20.7 2.70001Z" fill="#D4DA26" stroke="#221F1F" stroke-width="1.3482" stroke-miterlimit="10" stroke-linecap="round" stroke-linejoin="round"/>
<path d="M20.7 2.70001C19.4 1.60001 17.7 1 15.7 1H15.5999C13.6999 1 12 1.5 10.7 2.5C9.19995 3.6 8.3999 5.09999 8.3999 6.89999C8.3999 8.79999 9.19995 10.4 10.7 11.5C12.1 12.5 13.6999 13 15.5999 13H15.7C17.5 13 18.9999 12.5 20.3999 11.6C21.9999 10.5 22.7999 9.00001 22.7999 7.10001C22.8999 5.40001 22.1 3.90001 20.7 2.70001ZM17.7 10.1C16.8 10.7 15.7999 11 14.5999 11H14.4999C13.2999 11 12.1999 10.6 11.2999 10C10.2999 9.3 9.69993 8.2 9.79993 7C9.79993 5.9 10.2999 4.90001 11.2999 4.10001C12.1999 3.40001 13.2999 3.10001 14.4999 3.10001H14.5999C15.8999 3.10001 16.9999 3.50001 17.8999 4.20001C18.7999 5.00001 19.2999 6.00001 19.2999 7.10001C19.2999 8.30001 18.8 9.40001 17.7 10.1Z" fill="#D4DA26"/>
<path d="M13.5 4.20001C12.5 4.30001 11.2999 4.89999 10.8999 5.89999C10.5999 6.59999 10.1999 7.8 10.7999 8.5C11.3999 9.1 12.4999 7.99999 11.8999 7.39999C11.6999 7.19999 12 6.30001 12 6.10001C12.1 5.50001 12.8999 5.00001 13.3999 4.60001C13.5999 4.40001 13.7 4.20001 13.5 4.20001Z" fill="white"/>
<path d="M20.7 32.7C19.4 31.6 17.7 31 15.7 31H15.5999C13.6999 31 12 31.5 10.7 32.5C9.19995 33.6 8.3999 35.1 8.3999 36.9C8.3999 38.8 9.19995 40.4 10.7 41.5C12.1 42.5 13.6999 43 15.5999 43H15.7C17.5 43 18.9999 42.5 20.3999 41.6C21.9999 40.5 22.7999 39 22.7999 37.1C22.8999 35.4 22.1 33.9 20.7 32.7Z" fill="#D4DA26" stroke="#221F1F" stroke-width="1.3482" stroke-miterlimit="10" stroke-linecap="round" stroke-linejoin="round"/>
<path d="M20.7 32.7C19.4 31.6 17.7 31 15.7 31H15.5999C13.6999 31 12 31.5 10.7 32.5C9.19995 33.6 8.3999 35.1 8.3999 36.9C8.3999 38.8 9.19995 40.4 10.7 41.5C12.1 42.5 13.6999 43 15.5999 43H15.7C17.5 43 18.9999 42.5 20.3999 41.6C21.9999 40.5 22.7999 39 22.7999 37.1C22.8999 35.4 22.1 33.9 20.7 32.7Z" fill="#D4DA26" stroke="#221F1F" stroke-width="1.3482" stroke-miterlimit="10" stroke-linecap="round" stroke-linejoin="round"/>
<path d="M20.7 32.7C19.4 31.6 17.7 31 15.7 31H15.5999C13.6999 31 12 31.5 10.7 32.5C9.19995 33.6 8.3999 35.1 8.3999 36.9C8.3999 38.8 9.19995 40.4 10.7 41.5C12.1 42.5 13.6999 43 15.5999 43H15.7C17.5 43 18.9999 42.5 20.3999 41.6C21.9999 40.5 22.7999 39 22.7999 37.1C22.8999 35.4 22.1 33.9 20.7 32.7ZM17.7 40.1C16.8 40.7 15.7999 41 14.5999 41H14.4999C13.2999 41 12.1999 40.6 11.2999 40C10.2999 39.3 9.69993 38.2 9.79993 37C9.79993 35.9 10.2999 34.9 11.2999 34.1C12.1999 33.4 13.2999 33.1 14.4999 33.1H14.5999C15.8999 33.1 16.9999 33.5 17.8999 34.2C18.7999 35 19.2999 36 19.2999 37.1C19.2999 38.4 18.8 39.4 17.7 40.1Z" fill="#D4DA26"/>
<path d="M13.5 34.2C12.5 34.3 11.2999 34.9 10.8999 35.9C10.5999 36.6 10.1999 37.8 10.7999 38.5C11.3999 39.1 12.4999 38 11.8999 37.4C11.6999 37.2 12 36.3 12 36.1C12.1 35.5 12.8999 35 13.3999 34.6C13.5999 34.5 13.7 34.2 13.5 34.2Z" fill="white"/>
</svg>
