<svg width="27" height="52" viewBox="0 0 27 52" fill="none" xmlns="http://www.w3.org/2000/svg">
<path d="M20.5195 0.799988C19.1195 0.799988 18.1195 1 17.5195 1.5C17.0195 1.9 16.1195 2.90001 14.6195 4.70001C13.2195 6.30001 11.5195 7.79998 9.71945 9.09998C7.91945 10.4 5.31945 11.7 2.21945 12.9C2.11945 13 1.91946 13.1 1.91946 13.2C1.01946 14.8 0.919455 16.2 1.71945 17.6C2.91945 19.6 5.11945 20.2 7.31945 19.7C8.31945 19.5 9.31945 19 10.3195 18.6C10.8195 18.4 13.8195 16.9 13.8195 16.5V44.6C13.8195 46.5 14.4195 48 15.5195 49C16.6195 50 18.0195 50.5 19.8195 50.5C22.6195 50.5 25.9195 49.3 25.9195 43.4V6.5C25.9195 4.8 25.4195 3.39996 24.5195 2.39996C23.4195 1.29996 22.1195 0.799988 20.5195 0.799988Z" fill="#FFC52F" stroke="#221F1F" stroke-width="1.3482" stroke-miterlimit="10" stroke-linecap="round" stroke-linejoin="round"/>
<path d="M16.5195 12.4C12.9195 14.9 6.81945 19.2 3.31945 16.4C1.91945 15.3 1.81945 14.1 2.31945 12.9H2.21945C2.11945 13 1.91946 13.1 1.91946 13.2C1.01946 14.8 0.919455 16.2 1.71945 17.6C2.91945 19.6 5.11945 20.2 7.31945 19.7C8.31945 19.5 9.31945 19 10.3195 18.6C10.6195 18.5 12.9195 17.3 13.8195 16.7C14.4195 15.4 15.7195 13.7 16.5195 12.4Z" fill="#FFC52F"/>
<path d="M24.3194 2.29999C23.3194 1.29999 22.0194 0.799988 20.5194 0.799988C19.1194 0.799988 18.1194 1 17.5194 1.5C17.2194 1.8 16.5194 2.4 15.6194 3.5C18.3194 2.8 20.8194 3.4 22.0194 7C23.2194 10.7 22.7194 14.6 22.7194 18.4C22.7194 22.7 22.8194 26.9 22.8194 31.2C22.8194 35.2 23.0194 39.6 22.3194 43.6C21.9194 45.4 21.4194 47.9 19.8194 49C18.7194 49.7 17.7194 49.9 16.6194 49.8C17.5194 50.3 18.5194 50.5 19.7194 50.5C22.5194 50.5 25.8194 49.3 25.8194 43.4V6.5C25.8194 4.7 25.3194 3.29999 24.3194 2.29999Z" fill="#FFC52F"/>
<path d="M15.8194 6.09998C14.5194 7.09998 13.4194 8.29999 12.1194 9.29999C10.7194 10.3 9.31945 11.4 7.91945 12.3C7.81945 12.4 7.81944 12.6 8.01944 12.6C9.61944 12.2 11.1194 11 12.5194 10.1C13.8194 9.19998 15.4194 7.99998 16.3194 6.59998C16.4194 6.29998 16.1194 5.89998 15.8194 6.09998Z" fill="white"/>
<path d="M6.21956 12.9C5.91956 13 5.61956 13.1 5.31956 13.2C5.11956 13.3 5.11957 13.7 5.41957 13.7C5.51957 13.7 5.51956 13.7 5.61956 13.7C5.81956 13.7 6.01956 13.6 6.21956 13.5C6.51956 13.4 6.71956 12.8 6.21956 12.9Z" fill="white"/>
<path d="M15.6194 20.5999C15.6194 20.4999 15.4194 20.6 15.4194 20.7C15.4194 26.5 14.9194 32.2 15.3194 38C15.3194 38.3 15.8194 38.0999 15.8194 37.8999C16.1194 34.3999 16.0194 30.8 16.0194 27.3C16.1194 25.1 16.3194 22.6999 15.6194 20.5999Z" fill="white"/>
</svg>
