<svg width="84" height="67" viewBox="0 0 84 67" fill="none" xmlns="http://www.w3.org/2000/svg">
<path d="M30.7 30.2C33.9 27.4 35.5 23.3 35.5 17.9C35.5 15.2 35.1 12.9 34.4 10.9C33.6 8.80002 32.5 7 30.9 5.5C29.4 4 27.5 2.90001 25.3 2.20001C23.2 1.50001 20.7 1.20001 18 1.20001C14.2 1.20001 11 1.90001 8.5 3.10001C5.8 4.40001 3.89998 6.50001 2.69998 9.10001C1.59998 11.6 1 14.6 1 18.2C1 21.6 1.79998 24.6 3.19998 27.1C4.69998 29.6 6.8 31.4 9.5 32.6C12 33.7 15 34.3 18.1 34.3C23.4 34.3 27.6 32.9 30.7 30.2ZM21.5 21.5C21.3 21.7 20.6 22.3 18.2 22.3C16.6 22.3 15.8 22 15.4 21.8C14.9 21.6 14.7 21.2 14.5 20.8C14.2 20.1 14.1 19.1 14.1 17.9C14.1 16.7 14.2 15.8 14.5 15.1C14.7 14.7 14.9 14.3 15.4 14.1C15.8 13.9 16.7 13.6 18.2 13.6C20.4 13.6 21.2 14.1 21.5 14.4C21.9 14.8 22.3 15.7 22.3 17.8C22.3 20 21.9 21 21.5 21.5Z" fill="#CC68A8" stroke="#221F1F" stroke-width="1.3482" stroke-miterlimit="10" stroke-linecap="round" stroke-linejoin="round"/>
<path d="M16.6999 12.2C15.6999 12.3 14.3999 12.5 13.6999 13.3C12.8999 14.2 13.3999 15.2 14.2999 15.8C14.3999 15.5 14.3999 15.3 14.4999 15C14.6999 14.6 14.8999 14.2 15.3999 14C15.7999 13.8 16.6999 13.5 18.1999 13.5C20.3999 13.5 21.1999 14 21.4999 14.3C21.8999 14.7 22.2999 15.6 22.2999 17.7C22.2999 19.9 21.7999 20.9 21.4999 21.4C21.2999 21.6 20.5999 22.2 18.1999 22.2C17.6999 22.2 17.2999 22.2 16.8999 22.1C17.8999 22.7 19.0999 22.7 20.2999 22.8C24.5999 23.1 24.7999 17.6 23.7999 14.8C22.8999 11.9 19.5999 11.8 16.6999 12.2Z" fill="#CC68A8"/>
<path d="M34.3 10.9C33.5 8.79999 32.4 6.99997 30.8 5.49997C29.3 3.99997 27.4 2.89998 25.2 2.19998C25 2.19998 24.9 2.09998 24.7 2.09998C26.5 3.39998 27.8001 4.99999 29.0001 6.89999C31.5001 11.2 31.7001 17.1 30.4001 21.8C29.0001 26.7 26.2 30.5 21.3 32.4C17.2 33.9 13.2 33.5 9.30005 32.5C9.40005 32.5 9.50006 32.6 9.50006 32.6C12.0001 33.7 15 34.3 18.1 34.3C23.3 34.3 27.5 32.9 30.6 30.3C33.8 27.5 35.4001 23.4 35.4001 18C35.4001 15.2 35.1 12.9 34.3 10.9Z" fill="#CC68A8"/>
<path d="M13.2999 3.5C5.39994 5 1.89994 15.8 3.79994 22.8C3.99994 23.6 5.09995 23 4.99995 22.3C4.49995 15 5.99994 7.30002 13.2999 3.80002C13.3999 3.80002 13.5999 3.5 13.2999 3.5Z" fill="white"/>
<path d="M6.40009 26.9C6.20009 26.2 5.60008 25.6 5.10008 25.1C4.80008 24.8 4.20009 25.3 4.40009 25.7C4.70009 26.4 4.90008 27.4 5.60008 27.7C6.10008 27.8 6.60009 27.3 6.40009 26.9Z" fill="white"/>
<path d="M77.5999 62.2C80.7999 59.4 82.3999 55.3 82.3999 49.9C82.3999 47.2 81.9999 44.9 81.2999 42.9C80.4999 40.8 79.3999 39 77.7999 37.5C76.2999 36 74.3999 34.9 72.1999 34.2C70.0999 33.5 67.5999 33.2 64.8999 33.2C61.0999 33.2 57.8999 33.9 55.3999 35.1C52.6999 36.4 50.7999 38.5 49.5999 41.1C48.4999 43.6 47.8999 46.6 47.8999 50.2C47.8999 53.6 48.6999 56.6 50.0999 59.1C51.5999 61.6 53.6999 63.4 56.3999 64.6C58.8999 65.7 61.8999 66.3 64.9999 66.3C70.2999 66.3 74.4999 64.9 77.5999 62.2ZM68.3999 53.5C68.1999 53.7 67.4999 54.3 65.0999 54.3C63.4999 54.3 62.6999 54 62.2999 53.8C61.7999 53.6 61.5999 53.2 61.3999 52.8C61.0999 52.1 60.9999 51.1 60.9999 49.9C60.9999 48.7 61.0999 47.8 61.3999 47.1C61.5999 46.7 61.7999 46.3 62.2999 46.1C62.6999 45.9 63.5999 45.6 65.0999 45.6C67.2999 45.6 68.0999 46.1 68.3999 46.4C68.7999 46.8 69.1999 47.7 69.1999 49.8C69.1999 52 68.7999 53 68.3999 53.5Z" fill="#CC68A8" stroke="#221F1F" stroke-width="1.3482" stroke-miterlimit="10" stroke-linecap="round" stroke-linejoin="round"/>
<path d="M63.5998 44.2C62.5998 44.3 61.2998 44.5 60.5998 45.3C59.7998 46.2 60.2998 47.2 61.1998 47.8C61.2998 47.5 61.2998 47.3 61.3998 47C61.5998 46.6 61.7998 46.2 62.2998 46C62.6998 45.8 63.5998 45.5 65.0998 45.5C67.2998 45.5 68.0998 46 68.3998 46.3C68.7998 46.7 69.1998 47.6 69.1998 49.7C69.1998 51.9 68.6998 52.9 68.3998 53.4C68.1998 53.6 67.4998 54.2 65.0998 54.2C64.5998 54.2 64.1998 54.2 63.7998 54.1C64.7998 54.7 65.9998 54.7 67.1998 54.8C71.4998 55.1 71.6998 49.6 70.6998 46.8C69.7998 44 66.4998 43.8 63.5998 44.2Z" fill="#CC68A8"/>
<path d="M81.2 42.9C80.4 40.8 79.3 39 77.7 37.5C76.2 36 74.2999 34.9 72.0999 34.2C71.8999 34.2 71.7999 34.1 71.5999 34.1C73.3999 35.4 74.7 37 75.9 38.9C78.5 43.2 78.6 49.1 77.3 53.8C75.9 58.7 73.1 62.5 68.2 64.4C64.1 65.9 60.1 65.5 56.2 64.5C56.3 64.5 56.4 64.6 56.4 64.6C58.9 65.7 61.9 66.3 65 66.3C70.2 66.3 74.4 64.9 77.5 62.3C80.7 59.5 82.3 55.4 82.3 50C82.3 47.2 82 44.9 81.2 42.9Z" fill="#CC68A8"/>
<path d="M60.1998 35.5C52.2998 37 48.7998 47.8 50.6998 54.8C50.8998 55.6 51.9999 55 51.8999 54.3C51.3999 47 52.8998 39.3 60.1998 35.8C60.2998 35.8 60.4998 35.5 60.1998 35.5Z" fill="white"/>
<path d="M53.3 58.9C53.1 58.2 52.5 57.6 52 57.1C51.7 56.8 51.1 57.3 51.3 57.7C51.6 58.4 51.8 59.4 52.5 59.7C53 59.8 53.5 59.3 53.3 58.9Z" fill="white"/>
<path d="M69.6 5.20001C69.6 3.80001 69 2.60002 67.9 1.80002C66.9 1.10002 65.7 0.700012 64.3 0.700012C62.8 0.700012 61.6 1.10002 60.7 1.90002C60.1 2.50002 59.4 3.30002 58.6 4.30002L18 55.8C17 56.9 16.5 58 16.5 59.1C16.5 60.5 17.2 61.8 18.6 62.6C19.7 63.2 20.8 63.6 21.9 63.6C23.3 63.6 25.2 63.1 27 60.7L67.4 9.60001C69 7.50001 69.6 6.30001 69.6 5.20001Z" fill="#CC68A8" stroke="#221F1F" stroke-width="1.3482" stroke-miterlimit="10" stroke-linecap="round" stroke-linejoin="round"/>
<path d="M67.8999 1.80002C66.8999 1.10002 65.6999 0.700012 64.2999 0.700012C63.7999 0.700012 63.3999 0.800018 62.9999 0.800018C63.0999 0.900018 63.2999 0.9 63.3999 1C64.3999 1.8 64.9999 2.90001 64.9999 4.20001C64.9999 5.20001 64.3999 6.40001 62.8999 8.20001L24.8999 56.2C23.2999 58.4 21.3999 58.9 20.0999 58.9C19.0999 58.9 17.9999 58.6 16.9999 58C16.8999 57.9 16.6999 57.8 16.5999 57.7C16.4999 58.1 16.3999 58.5 16.3999 58.9C16.3999 60.3 17.0999 61.6 18.4999 62.4C19.5999 63 20.6999 63.4 21.7999 63.4C23.1999 63.4 25.0999 62.9 26.8999 60.5L67.2999 9.40002C68.8999 7.40002 69.4999 6.20001 69.4999 5.10001C69.5999 3.90001 68.9999 2.60002 67.8999 1.80002Z" fill="#CC68A8"/>
<path d="M58.8998 7.10001C55.2998 11.7 51.4998 16.2 47.7998 20.8C44.2998 25.2 40.4998 29.5 36.5998 35C36.2998 35.4 37.5998 35.2 37.8998 34.8C41.0998 30.5 44.5998 26.4 47.7998 22C51.3998 16.9 55.9998 12.4 59.0998 7C59.1998 7.1 58.9998 7.00001 58.8998 7.10001Z" fill="white"/>
<path d="M35.2999 37.6C35.1999 37.5 35.1999 37.5 35.0999 37.5C34.9999 37.5 34.8999 37.6 34.9999 37.7C34.7999 37.6 33.4999 39.1 33.2999 39.3C32.6999 39.9 32.0999 40.6 31.6999 41.3C31.4999 41.7 31.9999 41.9 32.1999 41.5C32.7999 40.8 33.2999 40.1 33.8999 39.4C34.3999 38.8 34.9999 38.3 35.2999 37.6Z" fill="white"/>
</svg>
