<svg width="69" height="37" viewBox="0 0 69 37" fill="none" xmlns="http://www.w3.org/2000/svg">
<path d="M9.98682 35.0823C10.9608 34.2301 11.4478 32.9517 11.3869 31.4299L11.3261 16.2721L24.0489 31.9777C24.475 32.4647 24.9011 33.0126 25.3881 33.4996C25.8751 34.0475 26.423 34.5345 26.9708 34.9606C27.5796 35.3867 28.2492 35.752 28.9797 35.9346C29.6493 36.1172 30.4407 36.239 31.2929 36.239C34.8845 36.239 36.8325 34.291 36.8325 30.7602L36.7108 5.67988C36.7108 4.09714 36.2238 2.87965 35.3107 2.0274C34.3976 1.17516 33.1801 0.749039 31.7191 0.749039C30.2581 0.749039 29.1015 1.17516 28.1883 2.0274C27.2752 2.87965 26.8491 4.09714 26.8491 5.67988L26.91 21.142L13.8219 5.25376C13.3958 4.70589 12.9697 4.15801 12.5435 3.67101C12.0566 3.12314 11.6304 2.63615 11.2043 2.27091C10.7173 1.84478 10.1086 1.54041 9.49982 1.29691C8.8302 1.05341 8.09971 0.931655 7.18659 0.931655C6.09084 0.931655 4.99509 1.17516 4.0211 1.72303C2.98623 2.2709 2.25574 3.0014 1.82962 3.91452C1.46437 4.70589 1.28174 5.67988 1.28174 6.89737L1.4035 31.5516C1.4035 33.0735 1.89048 34.291 2.8036 35.2041C3.71672 36.0563 4.93422 36.4825 6.39521 36.4825C7.85621 36.3607 9.0737 35.9346 9.98682 35.0823Z" fill="#7B61A9" stroke="#221F1F" stroke-width="0.820712" stroke-miterlimit="10" stroke-linecap="round" stroke-linejoin="round"/>
<path d="M11.387 16.3938C11.0217 15.4198 10.5956 14.385 9.98687 13.4718C8.89113 11.7673 8.89113 13.3501 9.07375 14.6285C9.56075 18.8897 9.56075 23.2118 9.49987 27.473C9.49987 30.395 9.49988 34.4127 6.69965 36.1781C6.51702 36.2998 6.39527 36.3607 6.21265 36.4216C6.27352 36.4216 6.3344 36.4216 6.39527 36.4216C7.79539 36.4216 9.01288 35.9955 9.926 35.1432C10.9 34.291 11.387 33.0126 11.3261 31.4907L11.2652 16.3329L11.387 16.3938Z" fill="#7B61A9"/>
<path d="M13.0306 7.20174C16.744 11.8282 20.4573 16.3938 24.3533 20.8377C25.0838 21.6899 25.6925 22.6639 26.4839 23.5161C28.0058 25.1598 27.5188 22.603 27.2753 21.6899C27.1535 21.3247 27.0318 20.9594 26.91 20.5942V21.2638L13.822 5.25375C13.3959 4.70588 12.9697 4.158 12.5436 3.67101C12.0566 3.12314 11.6305 2.63615 11.2044 2.2709C10.7174 1.84478 10.1086 1.5404 9.49987 1.2969C8.83025 1.0534 8.09976 0.931648 7.18664 0.931648C6.0909 0.931648 5.05603 1.17515 4.08203 1.72302C8.22151 1.23602 10.6565 4.21888 13.0306 7.20174Z" fill="#7B61A9"/>
<path d="M36.6501 5.67988C36.6501 4.09714 36.1631 2.87965 35.25 2.0274C34.3368 1.17516 33.1194 0.749039 31.6584 0.749039C30.1974 0.749039 29.0408 1.17516 28.1276 2.0274C27.8233 2.2709 27.6406 2.63615 27.458 2.94052C28.3103 2.14915 29.3451 1.60128 30.6235 1.90565C32.7541 2.45353 33.9107 3.9754 34.0325 6.22776C34.1542 9.69761 33.8498 13.2283 33.7281 16.6982C33.6063 20.1072 33.6064 23.4553 33.6672 26.8643C33.7281 29.421 33.6063 32.0386 31.9019 34.1083C30.9279 35.3258 29.7712 35.8128 28.5538 35.752C28.6755 35.8128 28.8581 35.8737 28.9799 35.8737C29.6495 36.0563 30.4409 36.1781 31.2931 36.1781C34.8847 36.1781 36.8327 34.2301 36.8327 30.6994L36.6501 5.67988Z" fill="#7B61A9"/>
<path d="M5.42152 2.87964C3.0474 3.48839 2.98653 5.98425 2.98653 8.05399C2.98653 12.3152 2.86478 15.6024 3.04741 21.0203C3.04741 21.3247 3.53441 21.142 3.53441 20.8985C3.71703 17.7331 3.65616 14.5676 3.83878 11.4021C3.96053 8.90623 3.0474 4.70588 5.42152 3.12314C5.54327 2.94051 5.54327 2.81877 5.42152 2.87964Z" fill="white"/>
<path d="M29.8322 2.87964C27.3973 3.42751 28.1277 7.99311 28.0669 9.6976C28.0669 14.2023 28.2495 18.707 28.5539 23.1509C28.5539 23.3944 28.9191 23.2118 28.98 23.0291C29.1626 20.0463 28.98 17.1243 28.8582 14.1415C28.7974 12.3761 28.9191 10.5498 28.9191 8.7236C28.98 7.07998 28.4321 4.158 29.8322 3.00139C29.954 3.00139 29.954 2.87964 29.8322 2.87964Z" fill="white"/>
<path d="M18.3873 23.0292C17.2916 21.2638 15.7697 19.7419 14.4914 18.0374C14.4305 17.9766 14.3087 18.0983 14.3696 18.1592C15.4654 19.9245 16.622 21.8725 18.2047 23.2118C18.3265 23.2727 18.4482 23.1509 18.3873 23.0292Z" fill="white"/>
<path d="M3.71673 22.7248C3.71673 22.4813 3.53412 22.4813 3.35149 22.5422C3.29062 22.5422 3.22974 22.603 3.22974 22.603C3.16887 22.6639 3.10799 22.7857 3.04712 22.8465C3.04712 23.1509 3.04712 23.5162 3.04712 23.8205C3.04712 24.1858 3.65586 24.0032 3.71673 23.6379C3.71673 23.3944 3.71673 23.0292 3.71673 22.7248Z" fill="white"/>
<path d="M66.6004 14.0197C65.7482 12.5587 64.4089 11.4021 62.7044 10.6107C61.0608 9.88023 59.1737 9.51498 57.1649 9.51498C55.0951 9.51498 53.208 9.88023 51.5644 10.6107C50.6513 11.0368 49.7382 11.5847 48.8859 12.2543C48.825 12.0108 48.7033 11.8282 48.5815 11.6456C48.1554 10.976 47.5467 10.4281 46.877 10.0628C46.2074 9.75847 45.4769 9.57585 44.6247 9.57585C43.2854 9.57585 42.1897 10.002 41.3374 10.7933C40.4852 11.5847 40.0591 12.7413 40.0591 14.2632L40.1808 31.5516C40.1808 33.0735 40.6678 34.291 41.5809 35.1432C42.4941 35.9955 43.5898 36.4216 44.9899 36.4216C46.3292 36.4216 47.4858 35.9955 48.3989 35.1432C49.312 34.291 49.799 33.0735 49.799 31.4907L49.7381 24.0031C49.7381 21.5682 50.773 19.0114 53.2689 18.2809C56.0082 17.5504 58.3823 20.2898 58.4432 22.9683L58.5041 31.4299C58.5041 32.9517 58.9911 34.1692 59.9042 35.0215C60.8173 35.8737 61.9739 36.2998 63.3132 36.2998C64.6524 36.2998 65.8091 35.8737 66.6613 35.0215C67.5744 34.1692 68.0005 32.9517 68.0005 31.369L67.9397 20.2289C67.9397 18.8288 67.8788 17.6722 67.6962 16.7591C67.5135 15.7851 67.1483 14.8719 66.6004 14.0197Z" fill="#A867A9" stroke="#221F1F" stroke-width="0.820712" stroke-miterlimit="10" stroke-linecap="round" stroke-linejoin="round"/>
<path d="M50.3468 18.6462C48.7641 19.4984 48.0944 21.0812 47.9727 22.8465C47.7292 25.6468 48.2771 28.5079 47.9118 31.3081C47.6074 33.804 44.6855 35.752 42.3114 34.4736C41.6417 34.1083 40.9721 33.6213 40.3025 33.0126C40.4851 33.8648 40.9112 34.5953 41.52 35.2041C42.4331 36.0563 43.5289 36.4825 44.929 36.4825C46.2682 36.4825 47.4248 36.0563 48.338 35.2041C49.2511 34.3518 49.7381 33.1343 49.7381 31.5516L49.6772 24.064C49.6772 21.629 50.7121 19.0723 53.2079 18.3418C53.3297 18.3418 53.3905 18.2809 53.5123 18.2809C52.4774 17.9766 51.3817 18.0983 50.3468 18.6462Z" fill="#A867A9"/>
<path d="M43.1025 9.94111C45.294 10.1237 47.3637 11.6456 48.3377 13.5327C48.6421 13.2284 49.0073 12.8022 49.3117 12.4978C49.2508 12.3152 48.6421 11.8891 48.5812 11.7065C48.1551 11.0369 47.5463 10.489 46.8767 10.1237C46.2071 9.81937 45.4766 9.63674 44.6243 9.63674C43.9547 9.63674 43.346 9.75849 42.7981 9.94111C42.859 9.94111 42.9807 9.94111 43.1025 9.94111Z" fill="#A867A9"/>
<path d="M67.9396 20.2898C67.9396 18.8897 67.8788 17.7331 67.6961 16.8199C67.5135 15.7851 67.1483 14.872 66.6004 14.0197C65.9308 12.8631 64.9568 11.8891 63.7393 11.1586C64.5307 11.8891 65.2003 12.8022 65.5655 13.898C66.3569 16.2721 66.3569 18.7071 66.296 21.2029C66.296 24.0032 66.6613 26.8643 66.4786 29.6645C66.296 32.8909 65.0785 36.3607 61.1217 35.265C60.1477 35.0215 59.2346 34.291 58.7476 33.3778C58.9911 33.9866 59.3563 34.5345 59.7824 35.0215C60.6956 35.8737 61.8522 36.2998 63.1914 36.2998C64.5307 36.2998 65.6873 35.8737 66.5395 35.0215C67.4526 34.1692 67.8788 32.9517 67.8788 31.369L67.9396 20.2898Z" fill="#A867A9"/>
<path d="M42.2503 20.1072C42.3112 18.1592 42.1894 16.2112 42.5547 14.3241C42.5547 13.3501 42.7373 12.3761 43.4678 11.5238C43.5287 11.463 43.4678 11.4021 43.4069 11.463C41.2763 12.6196 41.6416 15.9068 41.5807 17.9157C41.4589 21.5682 41.2763 25.4033 41.6416 28.9949C41.7024 29.2992 42.0677 29.1166 42.1286 28.8731C42.1894 28.5687 42.1894 28.2644 42.1894 27.96C42.1894 25.3424 42.1894 22.7248 42.2503 20.1072Z" fill="white"/>
<path d="M60.0868 20.0463C59.1128 17.4896 56.6778 16.2721 54.0602 16.5764C53.9993 16.5764 53.9385 16.6982 53.9993 16.7591C57.2866 17.3069 59.2954 18.8897 59.5389 22.3595C59.7216 24.7945 59.2346 27.2295 59.7215 29.6036C59.7824 29.908 60.2085 29.7254 60.2694 29.4819C60.5129 28.0818 60.3912 26.6208 60.3912 25.2206C60.452 23.577 60.6955 21.5682 60.0868 20.0463Z" fill="white"/>
<path d="M42.1286 29.8471C42.1286 29.7254 42.0069 29.6645 41.8851 29.6645C41.8242 29.6645 41.7634 29.6645 41.7634 29.6645C41.6416 29.6645 41.5199 29.7863 41.459 29.908C41.3981 29.9689 41.3981 30.0297 41.459 30.1515C41.5199 30.3341 41.5199 30.5167 41.5199 30.6994C41.5807 31.0646 42.0069 30.8211 42.0677 30.5776C42.0677 30.395 42.1286 30.1515 42.1286 29.9689C42.1286 29.8471 42.1286 29.8471 42.1286 29.8471Z" fill="white"/>
</svg>
