<svg width="36" height="19" viewBox="0 0 36 19" fill="none" xmlns="http://www.w3.org/2000/svg">
<path d="M25.5 1.59998H10.2C7.29998 1.59998 4.99999 2.39996 3.39999 3.89996C1.79999 5.39996 1 7.39999 1 9.79999C1 12.2 1.8 14.2 3.5 15.7C5.1 17.2 7.29998 18 10.2 18H25.5C28.5 18 30.8 17.2 32.3 15.7C33.9 14.2 34.7 12.2 34.7 9.89996C34.7 7.49996 33.9 5.49997 32.3 3.99997C30.7 2.39997 28.4 1.59998 25.5 1.59998Z" fill="#00B9F1" stroke="#221F1F" stroke-width="1.3482" stroke-miterlimit="10" stroke-linecap="round" stroke-linejoin="round"/>
<path d="M32.2001 3.89996C30.6001 2.39996 28.4001 1.59998 25.4001 1.59998H21.6001C24.4001 1.59998 26.7001 2.19997 28.2001 3.49997C29.8001 4.79997 30.5001 6.49997 30.5001 8.49997C30.5001 10.5 29.7001 12.2 28.2001 13.4C26.7001 14.7 24.4001 15.3 21.6001 15.3H6.6001C5.1001 15.3 3.8001 15.1 2.6001 14.7C2.8001 15 3.10009 15.3 3.40009 15.6C5.00009 17.1 7.2001 17.9 10.1001 17.9H25.4001C28.4001 17.9 30.7001 17.1 32.2001 15.6C33.8001 14.1 34.6001 12.1 34.6001 9.79999C34.6001 7.39999 33.8001 5.39996 32.2001 3.89996Z" fill="#00B9F1"/>
<path d="M17.8001 3.89996C13.8001 3.49996 0.300084 3.09996 3.40008 10.9C3.50008 11.2 3.90008 10.9 3.90008 10.7C3.90008 6.79998 6.50012 5.29997 10.0001 5.09997C12.6001 4.99997 15.1001 4.89996 17.6001 4.49996C17.9001 4.49996 18.2001 3.89996 17.8001 3.89996Z" fill="white"/>
<path d="M21.2 3.99997C20.8 3.89997 20.5 3.89996 20.1 3.89996C19.9 3.89996 19.7 4.19999 19.9 4.29999C20.2 4.49999 20.6 4.59998 20.9 4.59998C21.2 4.69998 21.5 4.09997 21.2 3.99997Z" fill="white"/>
</svg>
