<svg width="45" height="52" viewBox="0 0 45 52" fill="none" xmlns="http://www.w3.org/2000/svg">
<path d="M38.1213 7.79999C36.2213 5.79999 33.9214 4.29995 31.2214 3.19995C28.5214 2.19995 25.4214 1.59998 21.9214 1.59998C18.9214 1.59998 16.1213 1.99996 13.6213 2.89996C11.1213 3.69996 8.92134 4.89996 7.12134 6.39996C5.32134 7.89996 3.92139 9.69999 2.92139 11.8C1.92139 13.9 1.42139 16.1 1.42139 18.4C1.42139 20.5 1.82137 22.6 2.72137 24.6C3.62137 26.6 4.82136 28.3 6.52136 29.8C8.12136 31.3 10.1214 32.4 12.3214 33.2C14.5213 34 16.9214 34.4 19.4214 34.4C22.1214 34.4 24.5214 34 26.7214 33.1C28.4214 32.4 30.0214 31.5 31.4214 30.3C31.5214 31.3 30.9214 33.4 30.8214 34C30.5214 35.3 30.0214 36.5 29.4214 37.6C28.1214 39.9 26.2214 42 23.5214 42.6C21.5214 43 19.2214 42.8 17.4214 41.8C15.2214 40.7 14.2213 38.3 12.1213 37.1C11.1213 36.5 9.92137 36.2 8.72137 36.2C7.32137 36.2 6.12137 36.6 5.22137 37.4C4.22137 38.2 3.82135 39.2 3.82135 40.3C3.82135 41.9 4.52139 43.6 5.92139 45.3C7.32139 47 9.32139 48.4 11.9214 49.5C14.5214 50.6 17.6214 51.1 21.0214 51.1C24.5214 51.1 27.7214 50.6 30.5214 49.5C33.3214 48.4 35.8214 46.8 37.8214 44.6C39.8214 42.4 41.4214 39.6 42.4214 36.4C43.4214 33.2 44.0214 29.5 44.0214 25.3C44.0214 21.6 43.5214 18.1 42.5214 15.2C41.4214 12.3 40.0213 9.79999 38.1213 7.79999ZM20.8214 11.5C22.0214 11.5 23.2214 11.7 24.2214 12.1C25.2214 12.5 26.1214 13 26.9214 13.6C27.6214 14.2 28.2213 15 28.6213 15.9C29.0213 16.8 29.2214 17.8 29.2214 18.8C29.2214 20.1 28.8214 21.2 28.0214 22.1C27.2214 23.1 26.2214 23.8 24.9214 24.3C23.6214 24.8 22.3214 25.1 20.9214 25.1C18.6214 25.1 16.8214 24.5 15.3214 23.3C13.8214 22.1 13.1213 20.5 13.1213 18.4C13.1213 16.3 13.8214 14.7 15.3214 13.4C16.9214 12.1 18.7213 11.5 20.8214 11.5Z" fill="#EE4736" stroke="#221F1F" stroke-width="1.3482" stroke-miterlimit="10" stroke-linecap="round" stroke-linejoin="round"/>
<path d="M18.6214 9.89997C16.9214 10.3 14.9214 11 13.7214 12.4C12.9214 13.4 12.1214 14.7 12.0214 16C11.8214 17.4 12.2214 18.6 13.2214 19.5C13.2214 19.2 13.1214 18.8 13.1214 18.4C13.1214 16.3 13.8214 14.7 15.3214 13.4C16.8214 12.1 18.5214 11.5 20.7214 11.5C21.9214 11.5 23.1214 11.7 24.1214 12.1C25.1214 12.5 26.0214 13 26.8214 13.6C27.5214 14.2 28.1214 15 28.5214 15.9C28.9214 16.8 29.1214 17.8 29.1214 18.8C29.1214 20.1 28.7215 21.2 27.9215 22.1C27.1215 23.1 26.1214 23.8 24.8214 24.3C23.5214 24.8 22.2214 25.1 20.8214 25.1C23.3214 25.5 26.0214 25.1 27.8214 23.9C31.0214 21.8 32.2214 16.9 29.8214 13.7C27.4214 10.1 22.9214 8.79997 18.6214 9.89997Z" fill="#EE4736"/>
<path d="M42.4214 15.3C41.4214 12.3 40.0214 9.79999 38.1214 7.79999C36.2214 5.79999 33.9214 4.29995 31.2214 3.19995C28.5214 2.19995 25.4214 1.59998 21.9214 1.59998C18.9214 1.59998 16.1214 1.99996 13.6214 2.89996C11.1214 3.69996 8.9214 4.89996 7.1214 6.39996C5.3214 7.89996 3.92145 9.69999 2.92145 11.8C2.32145 13 2.02144 14.2 1.72144 15.5C4.92144 6.5 14.8214 0.999963 24.8214 3.39996C36.4214 6.09996 41.8214 16.9 40.6214 28.3C40.0214 33.8 38.2214 38.9 34.2214 42.9C30.4214 46.7 24.6214 49.1 19.2214 49.3C14.8214 49.5 9.02141 47.5 6.32141 43.3C4.92141 41.2 4.52142 39 5.52142 37.3C5.42142 37.4 5.2214 37.5 5.1214 37.6C4.1214 38.4 3.72144 39.4 3.72144 40.5C3.72144 42.1 4.42141 43.8 5.82141 45.5C7.22141 47.2 9.22141 48.6 11.8214 49.7C14.4214 50.7999 17.5214 51.3 20.9214 51.3C24.4214 51.3 27.6214 50.7999 30.4214 49.7C33.2214 48.6 35.7214 47 37.7214 44.8C39.7214 42.6 41.3214 39.8 42.3214 36.6C43.3214 33.4 43.9214 29.7 43.9214 25.5C43.9214 21.7 43.4214 18.3 42.4214 15.3Z" fill="#EE4736"/>
<path d="M11.8215 6.39994C8.3215 7.19994 6.2215 10.3999 4.8215 13.3999C2.9215 17.5999 4.22152 21.9 6.72152 25.5C6.82152 25.7 7.12151 25.3999 7.02151 25.1999C4.32151 18.2999 4.9215 10.5 11.8215 6.49998C11.9215 6.49998 11.9215 6.29994 11.8215 6.39994Z" fill="white"/>
<path d="M9.72145 28.2C9.42145 27.9 9.22147 27.7 8.92147 27.4C8.72147 27.1 8.32143 27.4 8.32143 27.6C8.22143 28.2 8.92143 28.4 9.32143 28.7C9.52143 28.9 10.0215 28.4 9.72145 28.2Z" fill="white"/>
<path d="M21.9213 44.6C19.5213 44.4 17.1213 44 15.2213 42.5C13.8213 41.4 13.1213 39.8 11.7213 38.7C10.2213 37.5 7.92126 37.5 6.62126 39C6.52126 39.2 6.62127 39.4 6.82127 39.3C9.92127 37.3 13.0213 42.1 15.1213 43.7C16.9213 45.1 19.6213 45.5 21.8213 45.1C22.0213 44.9 22.1213 44.6 21.9213 44.6Z" fill="white"/>
</svg>
