<svg width="64" height="47" viewBox="0 0 64 47" fill="none" xmlns="http://www.w3.org/2000/svg">
<path d="M34.2503 4.70816C34.2503 3.97766 34.0069 2.88192 32.7894 1.90792C31.9371 1.17743 30.8414 0.812171 29.563 0.873045C28.7716 0.873045 28.0411 0.994802 27.4933 1.29918C26.9454 1.54267 26.3975 1.90791 25.9105 2.39491C25.5453 2.82103 25.1191 3.24716 24.8148 3.67328L17.4489 12.6219L11.3615 5.25603C10.2049 3.67329 9.35262 2.63841 8.74387 2.09054C7.9525 1.36004 6.85675 0.994806 5.51751 1.05568C4.23914 1.05568 3.14339 1.42092 2.23028 2.15142C1.01278 3.12541 0.769287 4.28202 0.769287 5.07339C0.769287 5.74301 1.01279 6.47351 1.43891 7.26488C1.80416 7.9345 2.41291 8.78675 3.26515 10.0042L12.3963 21.8139L12.4572 31.6147C12.4572 33.3192 12.9442 34.5976 13.9182 35.5107C14.8922 36.363 16.1097 36.7891 17.5707 36.7891C19.0317 36.7891 20.2492 36.363 21.1623 35.4499C22.1363 34.5367 22.6233 33.2584 22.6233 31.5539L22.5624 21.8139L31.8154 9.76075C32.6676 8.665 33.2155 7.87363 33.5807 7.26488C34.0068 6.29089 34.2503 5.49953 34.2503 4.70816Z" fill="#6F51A1" stroke="#221F1F" stroke-width="0.820712" stroke-miterlimit="10" stroke-linecap="round" stroke-linejoin="round"/>
<path d="M4.96997 2.02967C6.37009 2.39492 7.52671 3.49067 8.37895 4.58641C9.90082 6.47353 11.3618 8.29977 12.9446 10.126C13.675 10.9783 14.4664 11.7696 15.136 12.6219C15.7448 13.4132 16.8405 14.7525 17.4493 13.048C17.571 12.8045 17.6319 12.5001 17.6928 12.2566L17.4493 12.561L11.3618 5.19516C10.2052 3.61242 9.35295 2.57754 8.7442 2.02967C7.95283 1.29917 6.85709 0.933936 5.51785 0.994811C4.4221 0.994811 3.44811 1.29918 2.65674 1.78617C3.38723 1.7253 4.23947 1.84704 4.96997 2.02967Z" fill="#6F51A1"/>
<path d="M32.7895 1.90794C31.9372 1.17744 30.8415 0.812186 29.5631 0.873061C28.7718 0.873061 28.0413 0.994817 27.4934 1.29919C27.0673 1.48181 26.702 1.78618 26.3368 2.09055C27.7369 1.60356 29.1979 1.66443 30.1719 2.76018C31.5111 4.34292 31.1459 6.29091 30.2327 7.9954C28.7109 10.7348 26.5803 13.2915 24.6932 15.8482C23.5974 17.3092 22.4408 18.7093 21.4668 20.1703C20.3711 21.814 20.6146 23.2141 20.6146 25.1012C20.6146 26.6839 20.4928 28.2667 20.4928 29.8494C20.4928 31.0669 20.5537 32.5888 19.8841 33.6845C18.6666 35.7542 16.7794 36.3021 14.8923 35.9977C15.6837 36.4239 16.5968 36.6674 17.6317 36.6674C19.0927 36.6674 20.3102 36.2412 21.2233 35.3281C22.1973 34.415 22.6843 33.1366 22.6843 31.4321L22.6234 21.6922L31.8764 9.63901C32.7286 8.54326 33.2765 7.75191 33.6417 7.14316C34.0679 6.41267 34.3114 5.62128 34.3114 4.82991C34.2505 3.97767 34.007 2.88193 32.7895 1.90794Z" fill="#6F51A1"/>
<path d="M10.3265 15.5438C9.29163 14.022 8.01326 12.561 6.85664 11.1C5.2739 9.09113 2.53454 6.5344 2.77804 3.79504C2.77804 3.67329 2.65629 3.73416 2.59542 3.79504C1.74317 5.62128 2.89979 7.14314 3.99553 8.60413C5.82177 11.1 7.83064 13.6567 9.96125 15.8482C10.083 15.97 10.4482 15.7265 10.3265 15.5438Z" fill="white"/>
<path d="M15.0752 33.3193C13.7968 32.1018 14.1012 29.545 14.1012 27.9014C14.1012 26.3187 14.1012 24.6142 13.8577 23.0314C13.8577 22.8488 13.6142 22.9705 13.6142 23.0923C13.675 25.162 13.4924 27.2318 13.4924 29.3015C13.4924 30.7016 13.3098 32.8322 14.5882 33.7454C14.8925 34.0497 15.3795 33.5628 15.0752 33.3193Z" fill="white"/>
<path d="M27.0062 3.18631C25.8496 3.73418 25.0582 4.82992 24.3886 5.80391C23.4146 7.08228 22.258 8.23889 21.5275 9.69989C21.4057 9.94339 21.7101 10.0043 21.8318 9.88252C23.8407 7.93453 25.1191 5.37779 27.0671 3.36893C27.1279 3.30805 27.0671 3.18631 27.0062 3.18631Z" fill="white"/>
<path d="M62.3138 11.4652C61.9486 10.8565 61.3398 10.4304 60.6702 10.0651C60.0006 9.76076 59.331 9.57814 58.6005 9.57814C57.6265 9.57814 56.896 9.76076 56.2872 10.0651C55.6785 10.4304 55.1306 10.9782 54.6436 11.8305C54.2784 12.5001 53.8523 13.4132 53.3653 14.5699L48.8605 25.5273L43.9297 13.5959C43.4427 12.4392 42.8948 11.5261 42.2861 10.8565C41.4947 10.0651 40.4598 9.639 39.0597 9.69988C38.2683 9.69988 37.5378 9.8825 36.8074 10.2477C36.0769 10.613 35.4681 11.1 35.042 11.7088C34.555 12.3784 34.3724 13.1089 34.3724 13.8394C34.3724 14.509 34.6767 15.4221 35.2855 16.7005L43.6253 34.1106C42.7731 36.2412 41.8599 38.4936 39.1206 37.6413C37.477 37.1543 36.1377 36.1195 34.3724 36.4238C31.633 36.85 31.7548 40.5633 32.4853 42.3896C33.7027 45.4333 38.0857 46.2856 41.0077 46.0421C44.0514 45.7986 47.2169 45.1898 49.3475 42.8157C50.1389 41.9634 50.8085 40.9286 51.4173 39.9546C51.9651 39.0415 52.3913 38.0675 52.8174 37.0935L62.0095 16.5787C62.253 16.0309 62.4356 15.4221 62.6182 14.8742C62.8008 14.3264 62.9226 13.9002 62.9835 13.5959C62.9835 13.4741 63.0443 13.4132 63.0443 13.2915C62.9226 12.7436 62.6791 12.074 62.3138 11.4652Z" fill="#8A52A1" stroke="#221F1F" stroke-width="0.820712" stroke-miterlimit="10" stroke-linecap="round" stroke-linejoin="round"/>
<path d="M40.2162 12.2566C41.2511 13.4132 41.8599 14.8742 42.5295 16.3352C43.5035 18.4658 44.5992 20.5964 45.6341 22.727C46.0602 23.5793 46.4255 24.4315 46.7907 25.3447C46.8516 25.5882 47.7038 27.9623 48.1908 27.0491C48.4952 26.5621 48.6169 25.9534 48.7387 25.4055L43.8687 13.6567C43.3817 12.5001 42.8338 11.587 42.2251 10.9174C41.4337 10.126 40.3989 9.69987 38.9987 9.76074C38.2074 9.76074 37.4769 9.94336 36.7464 10.3086C36.3203 10.4912 35.955 10.7347 35.6506 11.0391C37.2334 10.4304 39.3031 11.2217 40.2162 12.2566Z" fill="#8A52A1"/>
<path d="M62.3137 11.4652C61.9485 10.8565 61.3397 10.4304 60.6701 10.0651C60.0005 9.76076 59.3308 9.57814 58.6003 9.57814C57.6264 9.57814 56.8959 9.76076 56.2871 10.0651C55.8001 10.3086 55.4349 10.6739 55.0087 11.2217C55.0696 11.2217 55.1305 11.1609 55.2522 11.1609C57.2002 10.7956 59.0873 11.7696 59.1482 13.8394C59.2091 14.9351 58.6612 16.0308 58.296 17.0048C57.5655 18.7702 56.835 20.5356 56.1654 22.3009C54.7652 25.8925 53.426 29.4841 51.7824 32.954C49.2865 38.311 46.3645 44.6419 39.6075 44.8854C36.9898 45.0072 34.1287 44.4593 32.7286 41.9634C32.4851 41.4764 32.2416 40.9895 32.1199 40.5025C32.1807 41.1721 32.3025 41.8417 32.546 42.3287C33.7635 45.3724 38.1465 46.2247 41.0684 45.9812C44.1122 45.7377 47.2777 45.1289 49.4083 42.7548C50.1996 41.9026 50.8693 40.8677 51.478 39.8937C52.0259 38.9806 52.452 38.0066 52.8781 37.0326L62.0702 16.5178C62.3137 15.97 62.4963 15.3612 62.6789 14.8133C62.8616 14.2655 62.9833 13.8394 63.0442 13.535C63.0442 13.4132 63.1051 13.3524 63.1051 13.2306C62.9224 12.7436 62.679 12.074 62.3137 11.4652Z" fill="#8A52A1"/>
<path d="M40.9466 23.2749C40.0943 21.6313 39.2421 19.9877 38.4507 18.3441C37.5984 16.7005 36.3201 14.8133 36.381 12.8654C36.381 12.6827 36.1983 12.7436 36.1375 12.8654C35.5287 15.97 38.2072 19.6224 39.5464 22.24C40.4596 24.0054 41.3727 25.7708 42.3467 27.597C43.138 29.1798 43.625 31.006 44.8425 32.3452C45.0252 32.5279 45.3295 32.2235 45.2078 32.0409C44.112 29.058 42.4075 26.1969 40.9466 23.2749Z" fill="white"/>
<path d="M35.346 37.2761C34.7373 37.337 34.5547 37.2761 34.0068 37.6413C33.4589 38.0066 33.1545 38.6153 32.911 39.2241C32.6067 40.0155 32.6067 42.5113 33.8242 42.5113C34.0068 42.5113 34.2503 42.3896 34.1894 42.1461C34.1285 41.8417 33.885 41.5373 33.7633 41.233C33.5198 40.6851 33.5198 40.0763 33.5807 39.5285C33.6415 38.8588 34.1285 38.2501 34.6764 37.824C34.9199 37.6414 35.1634 37.6413 35.4069 37.4587C35.4678 37.3978 35.4678 37.2761 35.346 37.2761Z" fill="white"/>
<path d="M56.1047 11.8914C55.1916 13.1089 54.7046 14.6916 54.0958 16.0308C53.2436 18.0397 52.3913 20.0486 51.7217 22.0574C51.6 22.3618 52.0261 22.3009 52.087 22.1183C53.6697 18.7702 54.8263 15.3003 56.2264 11.8914C56.3482 11.7696 56.1656 11.7696 56.1047 11.8914Z" fill="white"/>
</svg>
