<svg width="70" height="37" viewBox="0 0 70 37" fill="none" xmlns="http://www.w3.org/2000/svg">
<path d="M22.546 36.2163C24.007 36.0337 25.468 35.6685 26.7464 35.1206C28.0856 34.6336 29.3031 33.9031 30.3989 33.0508C31.799 31.9551 32.9556 30.6767 33.8687 29.2766C34.7818 27.8765 35.4515 26.2938 35.8776 24.5893C36.3037 22.8848 36.4863 20.9977 36.4863 18.9888C36.4254 12.7796 34.234 8.03137 29.9119 4.98763C28.2683 3.77014 26.3811 2.9179 24.3114 2.49177C22.3634 2.06565 19.9893 1.88303 17.3108 1.88303L7.20561 1.9439C5.19675 1.9439 3.79664 2.37002 2.82265 3.22227C1.78778 4.07451 1.30078 5.41376 1.30078 7.24L1.42252 30.7985C1.42252 31.9551 1.54428 32.9291 1.84865 33.7205C2.15302 34.6945 2.88351 35.425 3.85751 35.912C4.77063 36.3381 5.98812 36.5816 7.57086 36.5816L17.6761 36.5207C19.5023 36.5207 21.1459 36.399 22.546 36.2163ZM11.6495 28.9114L11.5886 14.1797H14.5106C16.2151 14.1797 17.6761 14.3015 18.8936 14.6058C19.9284 14.8493 20.8415 15.5189 21.572 16.5538C22.3025 17.5887 22.7286 19.2323 22.7286 21.4238C22.7286 24.5284 21.9373 26.659 20.1719 27.9374C19.8067 28.1809 19.3806 28.4244 18.8936 28.5461C18.3457 28.7287 17.8587 28.7896 17.3717 28.8505C16.8238 28.9114 16.0933 28.9114 15.1193 28.9114H11.6495Z" fill="#D40F87" stroke="#221F1F" stroke-width="0.820712" stroke-miterlimit="10" stroke-linecap="round" stroke-linejoin="round"/>
<path d="M19.1371 13.9971C17.25 13.571 15.1194 13.2057 13.2323 13.6319C12.6236 13.7536 12.3192 13.9362 12.1974 14.1797H14.5107C16.2152 14.1797 17.6762 14.3015 18.8937 14.6059C19.9285 14.8494 20.8416 15.519 21.5721 16.5539C22.3026 17.5887 22.7287 19.2323 22.7287 21.4238C22.7287 24.5284 21.9374 26.659 20.172 27.9374C19.8068 28.1809 19.3806 28.4244 18.8937 28.5462C18.3458 28.7288 17.8588 28.7897 17.3718 28.8505C16.8239 28.9114 16.0934 28.9114 15.1194 28.9114H12.0757C13.7802 30.3115 17.25 30.068 19.0154 29.3984C22.4244 28.2418 24.2506 25.0763 24.3724 21.5456C24.4941 18.0757 22.7288 14.8494 19.1371 13.9971Z" fill="#ED0F6A"/>
<path d="M29.9118 5.04849C28.2682 3.83099 26.381 2.97875 24.3113 2.55262C22.3633 2.1265 19.9892 1.94388 17.3107 1.94388H14.0235C22.9721 3.89187 31.0075 10.5881 31.4337 20.2063C31.6163 23.6153 31.1901 27.4504 28.9378 30.1897C26.3811 33.2943 22.6677 34.4509 18.7717 34.7553C16.2758 34.9379 13.7191 34.9379 11.2233 34.9988C9.15352 35.0597 6.7794 35.2423 4.77054 34.6944C3.24867 34.2683 2.27469 33.5378 1.54419 32.4421C1.60506 32.9291 1.72681 33.3552 1.84856 33.7204C2.15294 34.6944 2.88342 35.4249 3.85742 35.9119C4.77054 36.3381 5.98804 36.5816 7.57078 36.5816L17.676 36.5207C19.5022 36.5207 21.1458 36.3989 22.5459 36.2163C24.0069 36.0337 25.4679 35.6684 26.7463 35.1206C28.0855 34.6336 29.303 33.9031 30.3988 33.0508C31.7989 31.9551 32.9555 30.6767 33.8686 29.2766C34.7818 27.8765 35.4514 26.2937 35.8775 24.5892C36.3036 22.8848 36.4862 20.9976 36.4862 18.9888C36.4254 12.8404 34.2339 8.09222 29.9118 5.04849Z" fill="#ED0F6A"/>
<path d="M7.44943 3.46576C3.97958 3.52663 3.00557 7.30086 2.94469 10.1011C2.88382 12.2926 2.94469 14.4232 2.94469 16.6147C2.94469 19.0497 2.76207 20.2063 2.94469 23.7979C2.94469 24.2849 3.79694 24.2849 3.85781 23.9805C4.40568 20.5715 3.97958 16.9191 4.10132 13.4492C4.28395 9.6141 3.49256 5.90075 7.51029 3.77013C7.57117 3.64838 7.57118 3.46576 7.44943 3.46576Z" fill="white"/>
<path d="M3.85761 26.2329C3.79674 25.9894 3.61412 25.9285 3.4315 25.9894C3.37063 25.9285 3.24888 26.0503 3.18801 26.1111C3.06626 26.2329 3.00537 26.3546 2.94449 26.4764C2.82274 27.0243 2.94449 27.6939 2.94449 28.2418C3.06624 28.7288 3.79675 28.4853 3.79675 28.0591C3.85763 27.4504 3.91849 26.7808 3.85761 26.2329Z" fill="white"/>
<path d="M42.3304 32.7465C43.487 33.964 44.948 34.938 46.5307 35.6076C48.1135 36.2772 49.8788 36.5816 51.7659 36.5816C53.1661 36.5816 54.4444 36.399 55.6619 36.0946C56.8794 35.7294 57.9752 35.2424 59.01 34.6336C59.4361 34.3901 59.8623 34.0857 60.2275 33.7814C60.471 34.3901 60.8363 34.938 61.2624 35.3641C62.1146 36.1555 63.2104 36.5816 64.5496 36.5816C65.828 36.5816 66.9237 36.1555 67.776 35.3641C68.6891 34.5727 69.1152 33.3553 69.1152 31.8943L68.9935 5.53553C68.9935 4.07454 68.5674 2.91792 67.7151 2.12655C66.8629 1.33518 65.7671 0.909058 64.367 0.909058C62.9669 0.909058 61.8103 1.39605 60.958 2.2483C60.1666 3.10055 59.7405 4.31804 59.8014 5.90078L59.8623 12.1709C59.0709 11.623 58.2795 11.1969 57.4273 10.8925C55.8445 10.2229 53.9574 9.91851 51.7659 9.91851C47.9308 9.91851 44.7654 11.136 42.3304 13.4492C39.9563 15.7625 38.7388 19.0497 38.7388 23.1283C38.7388 25.0154 39.0431 26.8417 39.6519 28.4853C40.2606 30.068 41.1738 31.529 42.3304 32.7465ZM48.2961 24.2849C48.2961 23.1892 48.4787 22.2152 48.9048 21.3629C49.2701 20.5716 49.818 19.9628 50.4876 19.5367C51.1572 19.1106 51.9486 18.928 52.8617 18.928C53.7139 18.928 54.5053 19.1106 55.2358 19.5367C55.9663 19.9628 56.5142 20.5107 56.9403 21.3021C57.3664 22.0934 57.6099 23.0674 57.6099 24.2241C57.6099 25.4415 57.4273 26.4764 57.0012 27.2678C56.575 28.0592 56.0272 28.607 55.3575 28.9723C54.627 29.3375 53.8966 29.5201 52.9834 29.5201C52.1312 29.5201 51.3398 29.3375 50.6702 28.9723C50.0006 28.607 49.4527 28.0592 49.0266 27.2678C48.5396 26.4155 48.357 25.4415 48.2961 24.2849Z" fill="#ED4794" stroke="#221F1F" stroke-width="0.820712" stroke-miterlimit="10" stroke-linecap="round" stroke-linejoin="round"/>
<path d="M68.9326 5.47462C68.9326 4.01363 68.5065 2.85701 67.6542 2.06564C66.802 1.27427 65.7062 0.848145 64.3061 0.848145C63.0886 0.848145 62.0538 1.21339 61.3233 1.88301C62.7843 1.33514 64.6714 1.39602 65.828 2.43089C67.4716 3.95275 67.5325 6.20511 67.6542 8.27485C67.8368 12.2926 67.8369 16.3712 67.8369 20.3889C67.8369 23.6153 68.2021 27.0851 67.8369 30.3115C67.6542 32.0768 66.9237 34.1466 64.7931 34.3292C62.1146 34.5118 60.958 32.3812 60.6536 30.068C59.6188 30.9811 58.5839 31.8333 57.1838 32.3812C55.2358 33.1726 53.2878 33.5378 51.1572 33.5378C47.5656 33.477 43.8522 31.8333 41.9042 28.7287C39.0431 24.1631 39.2258 18.2583 41.8434 13.9362C39.7736 16.2494 38.7388 19.2932 38.7388 23.0674C38.7388 24.9545 39.0431 26.7807 39.6519 28.4244C40.2606 30.068 41.1738 31.5898 42.3304 32.8073C43.487 34.0248 44.948 34.9988 46.5307 35.6684C48.1135 36.3381 49.8788 36.6424 51.7659 36.6424C53.1661 36.6424 54.4444 36.4598 55.6619 36.1554C56.8794 35.7902 57.9752 35.3032 59.01 34.6945C59.4361 34.451 59.8623 34.1466 60.2275 33.8422C60.471 34.451 60.8363 34.9988 61.2624 35.4249C62.1146 36.2163 63.2104 36.6424 64.5496 36.6424C65.828 36.6424 66.9237 36.2163 67.776 35.4249C68.6891 34.6336 69.1152 33.4161 69.1152 31.9551L68.9326 5.47462Z" fill="#ED4794"/>
<path d="M51.8876 17.893C50.6093 18.3192 49.3309 19.0496 48.783 20.3889C48.7221 20.5715 48.296 22.276 48.4178 23.25C48.4786 22.5804 48.6612 22.0325 48.9047 21.4846C49.27 20.6933 49.8179 20.0845 50.4875 19.6584C51.1571 19.2323 51.9485 19.0497 52.8616 19.0497C53.7138 19.0497 54.5052 19.2323 55.2357 19.6584C55.9662 20.0845 56.5141 20.6324 56.9402 21.4238C57.3663 22.2151 57.6098 23.1891 57.6098 24.3457C57.6098 25.5632 57.4272 26.5981 57.0011 27.3895C56.8185 27.6939 56.6358 27.9373 56.4532 28.1808C57.3055 27.8156 58.036 27.146 58.523 26.172C59.4361 24.224 59.6187 21.6064 58.1577 19.9019C56.5141 18.0148 54.2009 17.1625 51.8876 17.893Z" fill="#ED4794"/>
<path d="M59.0708 14.6058C54.627 8.82273 43.9739 11.0751 41.8433 17.8931C41.7824 18.0148 41.965 18.0148 42.0259 17.9539C45.374 12.4143 53.5312 9.91847 58.2795 15.3972C58.6447 15.8233 59.4361 15.0319 59.0708 14.6058Z" fill="white"/>
<path d="M62.4192 3.03966C61.5669 3.46578 61.2017 4.1354 61.019 5.04852C60.8973 5.90077 60.9582 6.87476 60.9582 7.72701C60.9582 8.76188 60.8364 9.73587 60.9582 10.7707C61.019 11.2577 61.6887 10.9534 61.7495 10.5881C61.9322 9.37062 61.9322 8.15313 61.9322 6.93564C61.9322 6.02252 61.8713 5.1094 62.1148 4.19628C62.1757 3.95278 62.6018 3.52666 62.7235 3.16141C62.7235 3.03966 62.5409 2.97878 62.4192 3.03966Z" fill="white"/>
</svg>
