<svg width="67" height="37" viewBox="0 0 67 37" fill="none" xmlns="http://www.w3.org/2000/svg">
<path d="M34.2554 1.45883C33.5249 1.09358 32.7335 0.91095 31.8813 0.91095C30.7247 0.91095 29.7507 1.15445 29.0811 1.70232C28.4114 2.18932 27.8636 2.73719 27.5592 3.34594C27.3157 3.83293 26.22 6.14617 25.733 7.30279L19.0976 21.4866L11.4274 6.0853C10.8187 4.44168 10.149 3.28506 9.54029 2.49369C8.74892 1.5197 7.47055 1.03271 5.76606 1.03271C4.36594 1.03271 3.20933 1.45883 2.29621 2.2502C1.32222 3.10244 0.835205 4.13731 0.835205 5.23305C0.835205 5.65918 0.896095 6.08529 1.07872 6.63316C1.20047 7.12016 1.38308 7.60717 1.56571 7.97241C1.74833 8.33766 1.87007 8.7029 2.0527 9.06815L11.2448 29.8264C11.61 30.6178 11.9144 31.4092 12.2797 32.1397C12.6449 32.931 13.071 33.6615 13.6189 34.2703C14.1668 35.0008 14.8973 35.5486 15.8104 35.9748C16.7235 36.4009 17.7584 36.5835 18.9759 36.5835C20.1934 36.5835 21.2891 36.34 22.1413 35.9139C22.9936 35.4878 23.7241 34.879 24.2719 34.2094C24.7589 33.6006 25.1851 32.8701 25.5503 32.0179C25.8547 31.2874 26.2199 30.496 26.5243 29.7047L35.6555 8.64204C35.8381 8.27679 35.9599 7.91153 36.0816 7.54628C36.2643 7.12016 36.386 6.69405 36.5078 6.26793C36.6295 5.78093 36.6904 5.3548 36.6904 4.8678C36.6904 4.13731 36.4469 3.46769 35.9599 2.79807C35.5946 2.31107 34.9859 1.82408 34.2554 1.45883Z" fill="#C7252C" stroke="#221F1F" stroke-width="0.820712" stroke-miterlimit="10" stroke-linecap="round" stroke-linejoin="round"/>
<path d="M1.26123 3.58946C3.51359 1.45884 7.04432 2.55458 8.80968 4.80694C11.4882 8.15505 13.1927 12.7206 14.8972 16.6775C15.445 17.895 15.932 19.1734 16.5408 20.3909C16.7234 20.7561 18.2453 23.4346 18.2453 23.4346C18.6714 22.765 18.854 22.0345 18.9758 21.1822L11.4273 6.08531C10.8186 4.4417 10.1489 3.28508 9.54019 2.49371C8.74882 1.51972 7.47044 1.03272 5.76595 1.03272C4.36583 1.03272 3.20923 1.45885 2.29611 2.25022C1.86998 2.73721 1.50473 3.16333 1.26123 3.58946Z" fill="#C7252C"/>
<path d="M36.0814 2.9807C35.6553 2.37195 35.0466 1.82408 34.2552 1.45883C33.5247 1.09359 32.7333 0.910957 31.8811 0.910957C30.7244 0.910957 29.7505 1.15446 29.0808 1.70233C28.9591 1.7632 28.8373 1.88496 28.7156 1.94583C29.9331 1.58059 31.2115 1.82408 32.3072 3.10245C34.0117 5.11131 33.1594 7.91154 32.1854 9.98128C30.5418 13.5729 28.9591 17.2254 27.4372 20.9387C26.098 24.1651 24.9414 27.5741 23.3586 30.7395C22.4455 32.5049 21.1063 34.7573 18.9756 35.1834C16.7842 35.6704 14.6535 34.8181 12.8882 33.418C13.1317 33.7833 13.3143 34.0876 13.5578 34.392C14.1057 35.1225 14.8362 35.6704 15.7493 36.0965C16.6624 36.5226 17.6973 36.7053 18.9148 36.7053C20.1323 36.7053 21.228 36.4618 22.0803 36.0356C22.9325 35.6095 23.663 35.0008 24.2109 34.3311C24.6979 33.7224 25.124 32.9919 25.4892 32.1397C25.7936 31.4092 26.1589 30.6178 26.4632 29.8264L35.5944 8.76378C35.7771 8.39854 35.8988 8.0333 36.0205 7.66805C36.2032 7.24193 36.3249 6.8158 36.4467 6.38968C36.5684 5.90268 36.6293 5.47656 36.6293 4.98957C36.751 4.31995 36.5076 3.65032 36.0814 2.9807Z" fill="#C7252C"/>
<path d="M13.6799 30.1308C11.9754 25.8087 9.72301 21.6692 7.77502 17.4689C6.8619 15.3991 5.94877 13.2685 4.9139 11.1988C3.87904 9.06816 2.47893 6.75493 2.60068 4.31995C2.60068 4.13732 2.35718 4.1982 2.2963 4.31995C1.68756 5.96356 2.29629 7.42456 2.96591 8.94643C4.00078 11.2597 5.03565 13.512 6.07052 15.8253C7.10539 18.1994 8.20114 20.5735 9.29689 22.8867C10.5144 25.3826 11.4884 28.1828 13.0711 30.5569C13.3146 30.8004 13.8016 30.4352 13.6799 30.1308Z" fill="white"/>
<path d="M29.1418 3.65032C27.4982 4.74606 27.0721 7.05931 26.2199 8.70293C24.698 11.6858 23.4196 14.8513 21.8369 17.8341C21.6543 18.1385 22.0195 18.2602 22.2021 18.0167C22.8109 17.2862 23.1152 16.3122 23.5414 15.46C24.211 14.1208 24.9415 12.9033 25.5503 11.564C26.159 10.2857 26.8286 8.94642 27.4374 7.66805C28.0461 6.38968 28.2896 4.80694 29.2027 3.77207C29.2636 3.7112 29.2027 3.58944 29.1418 3.65032Z" fill="white"/>
<path d="M21.6543 18.9907C21.5934 18.9299 21.4717 18.9907 21.4717 19.0516C21.4717 19.2951 21.1673 19.4777 21.1064 19.7212C21.0455 19.9039 21.2282 20.0256 21.4108 19.9039C21.5934 19.7212 21.8369 19.2342 21.6543 18.9907Z" fill="white"/>
<path d="M64.5708 10.8944C63.7186 10.2248 62.6837 9.85954 61.4663 9.85954C60.1879 9.85954 59.153 10.2248 58.4834 10.9553C57.8746 11.564 57.3268 12.4771 56.8398 13.7555L51.848 25.3217L47.1607 14.4251C46.552 12.9642 46.0041 11.9293 45.5171 11.2597C44.8475 10.4074 43.6908 9.92042 42.1081 9.92042C41.3167 9.92042 40.5862 10.103 39.8557 10.4683C39.1861 10.8335 38.5774 11.2597 38.2121 11.8684C37.786 12.4771 37.5425 13.1468 37.5425 13.8164C37.5425 14.1816 37.6034 14.6686 37.786 15.0948C37.9077 15.5209 38.0904 15.947 38.273 16.3123C38.4556 16.6775 38.5773 16.9819 38.76 17.3471L45.6388 31.4092C46.3693 32.8093 46.8563 33.7224 47.1607 34.2094C47.526 34.8181 48.1347 35.366 48.8652 35.853C49.6566 36.34 50.6914 36.6444 51.9698 36.5835C52.9438 36.5835 53.796 36.4009 54.4657 36.0965C55.1962 35.7921 55.8049 35.3051 56.2919 34.6964C56.718 34.1485 57.1441 33.5398 57.4485 32.8093C57.7529 32.2005 57.9964 31.6527 58.179 31.2265L64.9361 16.921L65.4231 15.8861C65.6057 15.5209 65.7274 15.1556 65.8492 14.7295C66.0318 14.2425 66.0927 13.8164 66.0927 13.4511C65.971 12.8424 65.7275 11.8075 64.5708 10.8944Z" fill="#ED1E24" stroke="#221F1F" stroke-width="0.820712" stroke-miterlimit="10" stroke-linecap="round" stroke-linejoin="round"/>
<path d="M43.6908 12.538C45.0301 14.1208 45.6388 16.4949 46.4302 18.382C47.3433 20.5735 48.3173 22.765 49.2304 24.9565C49.5348 25.6869 49.9 27.0262 50.5697 27.5132C51.1175 27.9393 51.7263 25.8696 51.7263 25.687C51.7263 25.4435 51.7263 25.2 51.7263 24.9565L47.0998 14.5469C46.4911 13.0859 45.9432 12.051 45.4562 11.3814C44.7866 10.5292 43.63 10.0422 42.0472 10.0422C41.2558 10.0422 40.5253 10.2248 39.7948 10.59C39.4905 10.7727 39.1861 10.9553 38.9426 11.1379C40.5254 10.4074 42.4733 11.0162 43.6908 12.538Z" fill="#C7252C"/>
<path d="M64.571 10.8944C63.7188 10.2248 62.6839 9.85954 61.4664 9.85954C60.1881 9.85954 59.1532 10.2248 58.4836 10.9553C58.4227 11.0162 58.3618 11.077 58.3618 11.1379C59.4575 10.7118 60.7359 10.7727 61.6491 11.564C63.0492 12.8424 63.7188 14.486 63.0492 16.1296C61.8317 19.1734 60.0054 22.9476 58.7271 25.9913C57.2661 29.5221 55.4398 35.3052 50.6307 35.7313C49.535 35.7921 48.561 35.6095 47.7087 35.1834C48.0131 35.4878 48.3175 35.7313 48.7436 35.9748C49.535 36.4618 50.5698 36.7661 51.8482 36.7053C52.8222 36.7053 53.6745 36.5226 54.3441 36.2183C55.0746 35.9139 55.6833 35.4269 56.1703 34.8182C56.5965 34.2703 57.0226 33.6615 57.3269 32.931C57.6313 32.3223 57.8748 31.7744 58.0574 31.3483L64.8145 17.0427L65.3015 16.0079C65.4842 15.6426 65.6059 15.2774 65.7277 14.8513C65.9103 14.3643 65.9711 13.9381 65.9711 13.5729C65.9711 12.8424 65.7276 11.8075 64.571 10.8944Z" fill="#C7252C"/>
<path d="M49.6565 33.2354C47.1607 30.6787 45.8215 27.2088 44.117 24.1042C43.2038 22.3997 42.2907 20.6952 41.6211 18.9299C40.708 16.5558 39.4296 14.7295 39.4905 12.1119C39.4905 11.9293 39.3079 11.9901 39.247 12.1119C38.5165 13.8773 38.9426 15.3383 39.6731 17.0427C40.6471 19.1734 41.7428 21.2431 42.8386 23.3128C43.9343 25.4435 45.091 27.4523 46.1258 29.5829C46.9172 31.1657 47.6477 32.931 49.2304 33.8442C49.4739 33.9659 49.9 33.4789 49.6565 33.2354Z" fill="white"/>
<path d="M59.8225 12.1119C57.8745 12.5989 57.4484 14.973 56.7179 16.5558C55.5613 19.1734 54.4047 21.791 53.3089 24.4086C53.1872 24.6521 53.5524 24.713 53.6742 24.5303C54.709 22.8867 55.4396 20.9996 56.2918 19.2342C56.7788 18.1385 57.3267 17.1036 57.8137 16.0079C58.4224 14.6686 58.7268 13.2685 59.8834 12.2336C60.0051 12.2336 59.9443 12.1119 59.8225 12.1119Z" fill="white"/>
</svg>
