<svg width="71" height="37" viewBox="0 0 71 37" fill="none" xmlns="http://www.w3.org/2000/svg">
<path d="M36.6164 33.8119C37.2251 32.6553 37.1643 31.1334 36.4946 30.0377C35.6424 28.6375 33.9379 28.3332 32.416 28.3941L15.1276 28.5158L31.3203 12.0796C32.7813 10.6186 33.7553 9.5229 34.2423 8.85328C34.851 8.00104 35.1554 6.9053 35.1554 5.56606C35.1554 3.86157 34.4249 1.00046 29.6767 1.06133L7.94442 1.18307C6.48342 1.18307 5.32682 1.48745 4.53545 2.15707C3.62233 2.88757 3.1962 3.80069 3.1962 4.95731C3.1962 6.05305 3.68319 7.02705 4.59631 7.69667C5.44855 8.30541 6.5443 8.60978 8.00529 8.54891L21.9456 8.48803L4.47457 26.3243C4.1702 26.6287 3.80494 26.9939 3.37882 27.4201C2.95269 27.8462 2.58746 28.2114 2.34396 28.5158C2.03959 28.881 1.79608 29.2463 1.61346 29.6724C1.43083 30.1594 1.30908 30.6464 1.30908 31.1943C1.30908 32.6553 1.91782 33.8728 3.07444 34.725C4.17019 35.5164 5.63118 35.9425 7.64004 35.8816C7.64004 35.8816 32.416 35.7599 32.4769 35.7599C33.877 35.7599 35.4598 35.3946 36.3729 34.2989C36.4338 34.1163 36.5555 33.9336 36.6164 33.8119Z" fill="#0086B6" stroke="#221F1F" stroke-width="0.820712" stroke-miterlimit="10" stroke-linecap="round" stroke-linejoin="round"/>
<path d="M19.3891 11.7144C20.6066 10.6795 22.1285 9.70552 23.1025 8.36628C24.4417 6.54004 19.6935 6.96616 18.8412 7.08791C14.6409 7.51403 9.95353 7.87927 5.81405 6.96615C4.77918 6.72265 3.5617 5.8704 3.25732 4.77466C3.25732 4.83553 3.25732 4.83554 3.25732 4.89641C3.25732 5.99216 3.74431 6.96615 4.65743 7.63577C5.50968 8.24452 6.60543 8.54889 8.06642 8.48802L22.0067 8.42714L15.6149 15.0016C16.7715 13.845 18.1107 12.8101 19.3891 11.7144Z" fill="#93AAD8"/>
<path d="M36.4944 30.0376C35.6422 28.6375 33.9377 28.3332 32.4158 28.394L15.1274 28.5158L31.3201 12.0796C32.7811 10.6186 33.7551 9.52289 34.2421 8.85327C34.8508 8.00102 35.1552 6.90528 35.1552 5.56604C35.1552 4.04417 34.5464 1.5483 30.8331 1.12218C31.3809 1.5483 31.8071 2.15706 32.1723 2.88756C33.4507 5.62692 31.381 8.5489 29.7373 10.4969C26.8154 13.9667 23.4064 16.8887 20.4235 20.2368C18.9016 21.9413 17.3798 23.6458 15.8579 25.4112C14.4578 26.9939 12.8142 28.6375 11.5967 30.4029C13.9099 30.4638 16.284 30.342 18.5973 30.342C21.4584 30.342 24.2586 30.2811 27.1197 30.342C29.4938 30.342 33.8768 29.7333 35.7639 31.803C37.8337 34.0554 32.8419 35.699 31.5636 35.8816C31.5027 35.8816 31.4418 35.8816 31.3201 35.8816C31.9288 35.8816 32.2941 35.8816 32.3549 35.8816C33.7551 35.8816 35.3378 35.5164 36.2509 34.4206C36.3727 34.2989 36.4335 34.1162 36.5553 33.9945C37.2858 32.5944 37.164 31.1334 36.4944 30.0376Z" fill="#93AAD8"/>
<path d="M22.0674 2.09617C18.6585 1.67004 15.1277 1.85266 11.6579 2.03529C8.97939 2.15704 6.42266 1.85267 4.83992 4.28766C4.77905 4.40941 4.90079 4.47029 5.02254 4.40941C7.2749 2.58317 10.3186 2.88754 13.058 2.70491C16.0409 2.52229 19.0846 2.64405 22.0066 2.2788C22.0674 2.21793 22.1892 2.09617 22.0674 2.09617Z" fill="white"/>
<path d="M17.0147 14.819C15.1276 16.4626 13.5448 18.4715 11.8404 20.2368C9.95324 22.1848 8.00524 24.0111 6.179 26.0199C4.47451 27.8462 0.274158 32.1683 4.65713 33.751C5.02238 33.8728 5.692 33.3249 5.26588 32.9596C4.41363 32.1683 3.37877 31.7422 3.86577 30.2812C4.17014 29.2463 5.02239 28.2723 5.75289 27.4809C7.09213 26.0808 8.30962 24.6198 9.58798 23.2197C12.1447 20.4803 14.8232 17.8627 17.0756 14.819C17.1364 14.819 17.0147 14.7581 17.0147 14.819Z" fill="white"/>
<path d="M7.57916 33.6901C7.39654 33.6901 7.15304 33.6293 6.97042 33.6293C6.78779 33.6293 6.54429 33.6293 6.36167 33.6293C6.11817 33.6293 5.93554 33.8727 5.99642 34.0554C6.17904 34.5424 6.90953 34.5424 7.33565 34.5424C7.76177 34.5424 8.12703 33.751 7.57916 33.6901Z" fill="white"/>
<path d="M69.367 34.1163C69.9149 33.0814 69.7931 31.8639 69.2452 30.8899C68.5147 29.6724 67.0537 29.4898 65.7754 29.4898L51.1046 29.5507L64.8623 15.5495C66.1406 14.2711 66.932 13.4189 67.3581 12.8101C67.906 12.0796 68.1495 11.1665 68.1495 10.0099C68.1495 8.5489 67.5408 6.11392 63.523 6.1748L45.078 6.29653C43.7996 6.29653 42.8865 6.60092 42.156 7.14879C41.3646 7.75754 40.9994 8.54891 40.9994 9.5229C40.9994 10.4969 41.4255 11.2883 42.2169 11.8361C42.9474 12.3231 43.8605 12.5666 45.1389 12.5666L56.9486 12.5058L42.0951 27.6635C41.8516 27.907 41.5473 28.2723 41.182 28.5767C40.8168 28.9419 40.5124 29.2463 40.3298 29.4898C40.0863 29.7942 39.8428 30.1594 39.721 30.4638C39.5384 30.8899 39.4775 31.316 39.4775 31.7422C39.4775 32.9596 40.0254 33.9945 40.9994 34.725C41.9125 35.3946 43.1909 35.7599 44.8954 35.699L65.958 35.5772C67.1146 35.5772 68.5147 35.2729 69.2452 34.3598C69.1844 34.3598 69.2452 34.238 69.367 34.1163Z" fill="#16AAB4" stroke="#221F1F" stroke-width="0.820712" stroke-miterlimit="10" stroke-linecap="round" stroke-linejoin="round"/>
<path d="M42.095 11.8361C42.8255 12.3231 43.7386 12.5666 45.017 12.5666L56.8267 12.5057L47.9999 21.5152C48.0607 21.4543 48.1825 21.3326 48.2434 21.2717C49.887 19.8716 51.5306 18.4715 53.1133 17.0105C54.5743 15.7321 57.6181 13.7232 58.1659 11.6535C57.9224 11.2274 57.4963 10.9839 56.8876 10.9839C56.2788 10.8621 55.7309 10.8013 55.1222 10.8013C52.3828 10.8013 49.6435 11.3491 46.9041 11.1665C45.3214 11.0448 41.7907 10.8013 41.3645 8.67065C41.3037 8.30541 41.3037 8.00103 41.3645 7.69666C40.9993 8.18365 40.8167 8.73152 40.8167 9.40114C40.9384 10.436 41.3037 11.2274 42.095 11.8361Z" fill="#5DCBF1"/>
<path d="M69.2451 30.8899C68.5146 29.6724 67.0536 29.4898 65.7752 29.4898L51.1044 29.5507L64.8621 15.5495C66.1404 14.2711 66.9318 13.4189 67.3579 12.8101C67.9058 12.0796 68.1493 11.1665 68.1493 10.0099C68.1493 8.5489 67.5406 6.11392 63.5228 6.1748H59.566C61.514 6.47917 64.1925 6.35742 65.1056 7.08792C66.9927 8.54891 66.3839 10.923 65.2273 12.6884C62.975 16.0365 59.8704 18.7758 56.8875 21.5152C54.0873 24.0719 51.9567 26.9939 48.8521 30.5855C50.3739 30.7073 51.8349 30.4029 53.3568 30.342C55.183 30.2811 57.0093 30.342 58.8355 30.342C60.8444 30.342 63.0358 30.0377 65.0447 30.4029C67.4797 30.829 68.6972 32.9596 66.7492 34.9076C66.4448 35.212 66.0796 35.4555 65.7143 35.699H65.7752C66.9318 35.699 68.3319 35.3946 69.0624 34.4815C69.1842 34.3598 69.2451 34.238 69.3059 34.1163C69.9147 33.0814 69.7929 31.8639 69.2451 30.8899Z" fill="#5DCBF1"/>
<path d="M54.4524 7.27052C52.0783 7.02702 49.5825 7.20966 47.1475 7.14878C45.3821 7.08791 44.2864 7.20966 42.8254 8.36627C42.7645 8.42715 42.7645 8.54889 42.8863 8.54889C46.3561 7.0879 50.5565 8.48801 54.2698 7.87927C54.5133 7.75752 54.8177 7.27052 54.4524 7.27052Z" fill="white"/>
<path d="M57.1311 7.20966C56.705 7.20966 56.2789 7.33141 55.8527 7.27053C55.6701 7.27053 55.4875 7.51404 55.6701 7.63579C56.0354 7.87928 56.6441 7.8184 57.0702 7.8184C57.4355 7.8184 57.5572 7.20966 57.1311 7.20966Z" fill="white"/>
<path d="M52.2003 18.8976C49.0349 21.4543 46.4173 24.6198 43.4953 27.4809C41.8517 29.1245 39.0514 32.0465 41.8517 33.9945C42.2169 34.238 42.8257 33.5075 42.5213 33.2031C39.7819 30.7681 45.2606 26.5678 46.8434 24.8024C48.6087 22.7936 50.5567 20.9673 52.2003 18.8976C52.3221 18.8976 52.2612 18.8976 52.2003 18.8976Z" fill="white"/>
<path d="M43.7996 34.0554C43.7387 34.0554 43.7387 34.0554 43.7996 34.0554C43.6779 33.9336 43.5561 33.9336 43.4952 33.9945C43.4344 33.9945 43.4344 33.9945 43.4344 33.9945C43.2517 33.8728 43.0082 34.1163 43.0691 34.2989C43.1909 34.6033 43.5561 34.6641 43.7996 34.4206C43.7996 34.2989 43.8605 34.1771 43.7996 34.0554Z" fill="white"/>
</svg>
