<svg width="57" height="80" viewBox="0 0 57 80" fill="none" xmlns="http://www.w3.org/2000/svg">
<path d="M48.3999 34.3C46.3999 33 43.9999 31.9 41.3999 31.2C40.3999 30.9 39.2999 30.7 37.9999 30.4V24.8C39.1999 26.5 41.2999 28 45.0999 28C47.1999 28 48.9999 27.4 50.5999 26.4C52.7999 24.9 53.2 23 53.2 21.7C53.2 20.3 52.7 18.7 51.7 17.2C50.7999 15.8 49.4999 14.4 47.8999 13.1C45.8999 11.4 43.4 10.1 40.7 9.19998C39.7999 8.89998 38.8999 8.7 37.8999 8.5C37.3999 4.3 34.0999 1 30.2999 1H28.3999H28.2999H28.2C26.7 1 25.5 1.39998 24.7 2.19998C22.7 3.49998 21.3999 5.60001 20.8999 8.10001C15.7999 8.80001 11.6999 10.3 8.59995 12.5C4.49995 15.4 2.39993 19.3 2.39993 24C2.39993 27.6 3.49995 30.6 5.69995 32.9C7.69995 35.1 10.3999 36.8 13.5999 37.9C15.5999 38.6 17.9999 39.3 20.7999 40V51.3C19.8999 50.7 19.1999 50 18.7999 49.3C18.1999 48.4 17.5 47 16.7 45.2C16.1 43.9 15.0999 42.8 13.5999 42.1C12.2999 41.5 10.7999 41.2 8.99994 41.2C6.79994 41.2 4.79993 41.8 3.29993 42.9C1.09993 44.5 0.699951 46.3 0.699951 47.5C0.699951 49.4 1.19993 51.3 2.29993 53.1C3.29993 54.9 4.89994 56.6 6.99994 58.2C9.09994 59.8 11.6 61.1 14.7 62.1C16.5 62.7 18.5999 63.2 20.8999 63.6V69.7C20.8999 74.5 24.3999 78.5 28.5999 78.5H30.4999C34.7999 78.5 38.2 74.6 38.2 69.7V63.2C40.4 62.7 42.4999 62.1 44.2999 61.3C47.9999 59.7 50.7999 57.6 52.7999 55C54.7999 52.3 55.7999 49.4 55.7999 46.4C55.7999 43.9 55.1999 41.6 53.8999 39.5C52.3999 37.5 50.5999 35.7 48.3999 34.3ZM37.9999 44.7C39.8999 45.7 40.7999 46.9 40.7999 48.5C40.7999 49.5 40.4999 50.9 37.9999 52.5V44.7ZM17.4999 22.6C17.4999 21.2 18.0999 20.3 19.4999 19.7C19.8999 19.5 20.3999 19.3 20.7999 19.2V26.1C20.1999 25.9 19.6999 25.7 19.2999 25.5C17.9999 24.8 17.4999 23.9 17.4999 22.6Z" fill="#EF477A" stroke="#221F1F" stroke-width="1.3482" stroke-miterlimit="10" stroke-linecap="round" stroke-linejoin="round"/>
<path d="M20.7 64.1C21.2 63.4 21.8 62.8 22.3 62.1C23 61.1 16.2 59.4 15.8 59.3C12.1 58.1 9.1 55.7 6.5 52.9C4.4 50.5 1.59999 46.8 2.89999 43.3C2.99999 43.1 3.10001 43 3.10001 42.8C0.900006 44.4 0.5 46.2 0.5 47.4C0.5 49.3 1.00001 51.2 2.10001 53C3.10001 54.8 4.69999 56.5 6.79999 58.1C8.89999 59.7 11.4 61 14.5 62C16.3 62.6 18.4 63.1 20.7 63.5V64.1Z" fill="#EF477A"/>
<path d="M13.6001 37.8C15.6001 38.5 18.0001 39.2 20.8001 39.9V50.5C22.1001 52 22.3001 49.5 22.3001 48C22.3001 45.7 22.5001 44.5 22.5001 42.3C22.5001 37.9 23.2001 35.2 19.8001 35.1C13.8001 34.8 7.40008 33.6 4.80008 27.4C3.00008 23.2 3.6001 18.9 5.6001 15.4C3.6001 17.8 2.6001 20.7 2.6001 23.9C2.6001 27.5 3.70009 30.5 5.90009 32.8C7.70009 34.9 10.4001 36.6 13.6001 37.8Z" fill="#EF477A"/>
<path d="M53.5999 39.5C52.3999 37.5 50.5999 35.7 48.2999 34.3C46.2999 33 43.8999 31.9 41.2999 31.2C40.2999 30.9 39.1999 30.7 37.8999 30.4V24.8C39.0999 26.5 41.1999 28 44.9999 28C47.0999 28 48.8999 27.4 50.4999 26.4C52.6999 24.9 53.0999 23 53.0999 21.7C53.0999 20.3 52.5999 18.7 51.5999 17.2C50.6999 15.8 49.3999 14.4 47.7999 13.1C45.7999 11.4 43.2999 10.1 40.5999 9.19998C39.6999 8.89998 38.7999 8.7 37.7999 8.5C37.2999 4.3 33.9999 1 30.1999 1H28.2999H28.1999H28.0999C26.7999 1 25.7999 1.29999 24.8999 1.89999C26.4999 1.59999 28.1999 1.69999 29.7999 2.39999C33.3999 3.89999 34.8999 6.49998 35.0999 9.69998C35.9999 9.89998 36.7999 10.2 37.5999 10.6C40.0999 11.6 42.5999 12.5 44.7999 14C47.5999 15.9 49.9999 19.2 49.2999 22.7C48.6999 25.9 44.2999 25.8 41.9999 24.8C39.5999 23.8 37.3999 22.4 35.4999 20.6C35.4999 24.4 35.4999 28.3 35.4999 32.1C39.0999 32.1 43.2999 34.1 45.7999 36.3C48.9999 39.1 50.9999 43.3 50.2999 47.6C49.0999 54.6 41.7999 60 34.5999 60.4C34.9999 62.3 34.7999 64.5 34.6999 66.2C34.5999 69.4 34.4999 73 31.7999 75.3C29.3999 77.3 26.5999 77.7 23.8999 77C25.0999 78 26.5999 78.5 28.2999 78.5H30.1999C34.4999 78.5 37.8999 74.6 37.8999 69.7V63.2C40.0999 62.7 42.1999 62.1 43.9999 61.3C47.6999 59.7 50.4999 57.6 52.4999 55C54.4999 52.3 55.4999 49.4 55.4999 46.4C55.4999 43.9 54.8999 41.6 53.5999 39.5Z" fill="#EF477A"/>
<path d="M21.5 9.79999C16.4 10.3 11.3 11.6 7.39998 15.2C3.79998 18.6 2.6 25.4 7.1 28.6C7.5 28.9 8.09998 28.4 7.89998 28C6.99998 25.5 5.69999 23.7 5.99999 20.9C6.29999 18.4 8.09999 16.4 9.99999 15C13.2 12.5 17.5 11.1 21.5 10.3C21.6 10.2 21.7 9.79999 21.5 9.79999Z" fill="white"/>
<path d="M20.2 53.8C16.8 52 15.8 47 12.9 44.4C10.7 42.4 7.89997 42.6 5.69997 44.1C5.59997 44.2 5.59995 44.4 5.79995 44.4C14.1999 41.1 13.9999 52.4 19.7999 54.5C20.0999 54.7 20.6 54 20.2 53.8Z" fill="white"/>
<path d="M25.9001 74.4C22.8001 72.5 23.9001 66.3 23.9001 63.3C23.9001 63.1 23.6001 63.2 23.5001 63.4C23.1001 66.2 22.9001 68.6 23.2001 71.4C23.3001 73 23.5001 75 25.4001 75.3C25.9001 75.4 26.4001 74.7 25.9001 74.4Z" fill="white"/>
</svg>
