<svg width="91" height="36" viewBox="0 0 91 36" fill="none" xmlns="http://www.w3.org/2000/svg">
<path d="M42.8274 33.9866C43.8014 33.1344 44.3493 31.9169 44.2884 30.395L44.1666 5.43639C44.1666 3.12315 43.01 2.08829 42.036 1.60129C40.8794 1.05342 39.3575 0.749039 37.4704 0.749039H34.8528C33.0875 0.749039 31.8091 0.870786 30.9568 1.17516C29.922 1.47953 29.1306 2.08828 28.6436 2.94053C28.2784 3.54928 27.8522 4.52327 27.3652 5.92338L22.617 19.4984L17.747 5.92338C17.26 4.58414 16.8339 3.61015 16.4687 3.0014C15.9817 2.21003 15.1294 1.60129 14.0946 1.29692C13.2423 1.05342 11.964 0.931665 10.1986 0.931665H7.58098C5.75474 0.931665 4.172 1.23604 3.01538 1.84478C2.04138 2.33178 0.884766 3.42753 0.884766 5.67989L1.00652 30.6385C1.00652 32.2212 1.55439 33.4387 2.52838 34.2301C3.50238 35.0215 4.78074 35.4476 6.24173 35.4476C7.7636 35.4476 9.04197 35.0215 10.016 34.1692C10.99 33.317 11.5378 32.0995 11.477 30.5776V17.0634L15.6164 29.2384C15.8599 29.908 16.1034 30.5168 16.2861 31.1255C16.5296 31.856 16.8948 32.5256 17.3818 33.0735C17.8688 33.7431 18.5993 34.291 19.5124 34.7171C20.4255 35.1432 21.4604 35.3258 22.6779 35.3258C24.3215 35.3258 25.5999 34.9606 26.5739 34.291C27.487 33.6822 28.1566 32.8909 28.5219 32.0995C28.8262 31.4299 29.1915 30.4559 29.6176 29.1166L33.6353 16.8808L33.6962 30.395C33.6962 31.9169 34.2441 33.1344 35.2181 33.9866C36.1921 34.778 37.4704 35.2041 38.9314 35.2041C40.575 35.2041 41.8534 34.778 42.8274 33.9866Z" fill="#009CD8" stroke="#221F1F" stroke-width="0.820712" stroke-miterlimit="10" stroke-linecap="round" stroke-linejoin="round"/>
<path d="M11.5379 17.0635C11.1726 15.2981 10.8074 13.5936 9.95514 12.0109C9.77251 16.9417 10.1986 21.8726 9.95514 26.8034C9.77251 30.2124 9.34639 33.6214 5.51129 34.5345C4.0503 34.8997 2.77193 34.291 1.73706 33.3779C1.98056 33.6823 2.22406 33.9866 2.52843 34.291C3.50243 35.0824 4.78079 35.5085 6.24178 35.5085C7.76365 35.5085 9.04202 35.0824 10.016 34.2301C10.99 33.3779 11.5379 32.1604 11.477 30.6385V17.0635L11.5988 17.3678C11.5379 17.2461 11.5379 17.1243 11.5379 17.0635Z" fill="#009CD8"/>
<path d="M33.6962 16.9417C34.1832 15.1155 34.6093 13.2284 34.6093 11.3412C33.8788 12.6196 33.1483 15.0546 32.6004 16.3938C30.8351 20.6551 29.6176 25.1598 27.7913 29.421C26.6347 32.2212 23.8345 35.4476 20.4255 34.0475C18.5993 33.2561 17.3209 31.9169 16.5295 30.1515C15.8599 28.6905 15.1294 27.1687 14.3989 25.6468L15.6164 29.2384C15.8599 29.908 16.1034 30.5168 16.286 31.1255C16.5295 31.856 16.8948 32.5256 17.3818 33.0735C17.8688 33.7431 18.5993 34.291 19.5124 34.7171C20.4255 35.1432 21.4604 35.3259 22.6779 35.3259C24.3215 35.3259 25.5999 34.9606 26.5739 34.291C27.487 33.6822 28.1566 32.8909 28.5218 32.0995C28.8262 31.4299 29.1915 30.4559 29.6176 29.1166L33.6962 16.9417Z" fill="#009CD8"/>
<path d="M44.1665 5.4364C44.1665 3.12316 43.0099 2.0883 42.0359 1.6013C41.488 1.3578 40.9401 1.17518 40.2705 0.992554C40.8184 1.41868 41.3054 1.90567 41.7315 2.51442C42.8881 4.03629 42.7055 6.71477 42.7055 8.54101C42.7055 14.1415 42.7055 19.7419 42.7055 25.3424C42.7055 28.0209 42.462 31.9778 39.6618 33.2561C37.2876 34.3519 35.3396 33.6822 34.0613 31.856C34.3048 32.7691 34.7309 33.4996 35.4005 34.0475C36.3745 34.8389 37.6529 35.265 39.1139 35.265C40.6966 35.265 41.975 34.8389 42.949 33.9866C43.923 33.1344 44.4708 31.9169 44.41 30.395L44.1665 5.4364Z" fill="#009CD8"/>
<path d="M5.57216 2.2709C2.77193 2.57528 1.85881 5.67989 1.85881 7.99313C1.79793 12.3152 2.04143 16.6373 2.10231 21.0203C2.10231 21.5682 3.01543 21.2029 3.01543 20.7768C3.0763 18.0374 2.89368 15.2372 2.8328 12.4978C2.8328 10.7325 2.8328 8.96712 2.89368 7.20176C2.95455 5.07114 4.11117 3.67102 5.63304 2.45353C5.69391 2.39266 5.69391 2.2709 5.57216 2.2709Z" fill="white"/>
<path d="M32.844 2.2709C29.2524 2.87965 28.2175 7.20176 27.1827 10.1237C25.7217 14.3241 24.3216 18.5853 23.4084 22.9074C23.2258 22.5422 22.9823 22.2378 22.7997 21.9334C22.3127 21.0812 21.8257 20.2289 21.3996 19.3158C21.3387 19.2549 21.3387 19.2549 21.2778 19.2549C22.0692 21.0812 22.7997 22.9074 23.7128 24.6728C23.7737 24.6119 23.7737 24.551 23.8346 24.4902C24.6259 20.5942 25.7217 16.6373 27.0609 12.8631C28.2784 9.39324 29.3742 4.09714 32.844 2.2709Z" fill="white"/>
<path d="M2.77183 22.2987C2.65008 21.9334 2.16309 22.2378 2.16309 22.4813C2.16309 22.603 2.16309 22.7248 2.16309 22.8465C2.16309 22.9074 2.16309 23.0292 2.16309 23.1509C2.16309 23.2727 2.16309 23.3944 2.16309 23.577C2.16309 24.1249 2.83271 23.8814 2.89358 23.5162C2.95446 23.3335 2.95446 23.2118 2.95446 23.0292C2.95446 23.0292 2.95446 22.8465 2.95446 22.7857C2.95446 22.603 2.95446 22.4204 2.77183 22.2987Z" fill="white"/>
<path d="M85.0134 9.57588C83.4915 8.84538 81.7262 8.54101 79.7173 8.54101C77.952 8.54101 76.3692 8.90625 74.9082 9.57588C73.8125 10.0629 72.7776 10.7934 71.8036 11.6456C71.0122 10.7934 70.16 10.1238 69.1251 9.63675C67.725 8.96713 66.0814 8.66276 64.1943 8.66276C62.4289 8.66276 60.7244 9.02801 59.2634 9.63675C58.4112 10.002 57.5589 10.5499 56.7676 11.1586C56.5241 10.6107 56.2197 10.1237 55.7327 9.7585C54.8805 9.02801 53.8456 8.66276 52.6281 8.66276C51.3497 8.66276 50.3149 9.08888 49.4626 9.88025C48.6104 10.7325 48.2451 11.8891 48.2451 13.3501L48.3669 30.4559C48.3669 32.0386 48.8539 33.317 49.767 34.1692C50.6801 35.0215 51.7758 35.4476 53.1151 35.4476C54.4543 35.4476 55.6109 35.0215 56.4632 34.1084C57.3154 33.2561 57.8024 31.9777 57.7416 30.395L57.6807 22.2987C57.6807 19.9854 57.4372 18.4636 58.0459 17.307C58.5938 16.2721 60.2374 15.6633 61.2114 15.6633C62.5507 15.6025 64.0725 16.5765 64.2551 17.9766C64.3769 19.0723 64.316 19.7419 64.316 20.8377L64.3769 30.395C64.3769 31.9777 64.8639 33.2561 65.7161 34.1084C66.5684 34.9606 67.725 35.3867 69.0642 35.3867C70.4035 35.3867 71.5601 34.9606 72.4124 34.1084C73.3255 33.2561 73.7516 31.9777 73.7516 30.395L73.6907 22.4204C73.6907 20.7768 73.5081 19.1332 74.2995 17.6722C75.0908 16.2721 76.7345 15.9068 78.1346 16.2721C79.9608 16.7591 80.1434 18.768 80.2043 20.2898L80.2652 30.3341C80.2652 31.9169 80.7522 33.1952 81.6653 34.0475C82.5784 34.8997 83.6742 35.3259 85.0134 35.3259C86.3526 35.3259 87.5093 34.8997 88.3615 34.0475C89.2746 33.1952 89.7008 31.9169 89.7008 30.3341L89.6399 18.6462C89.6399 16.0895 89.2746 14.2023 88.605 12.924C87.8136 11.4021 86.5961 10.3064 85.0134 9.57588Z" fill="#5EA6DB" stroke="#221F1F" stroke-width="0.820712" stroke-miterlimit="10" stroke-linecap="round" stroke-linejoin="round"/>
<path opacity="0.6" d="M56.4632 13.1066C56.8285 12.5587 57.3155 12.0109 57.8634 11.6456C59.6896 10.4281 61.8202 9.94113 64.0117 9.94113C67.3598 9.94113 70.2209 11.0977 72.0472 13.7154C74.9691 9.75851 81.0566 7.87139 85.3787 9.81938C85.257 9.75851 85.1352 9.69763 85.0135 9.63676C83.4916 8.90626 81.7262 8.60189 79.7174 8.60189C77.952 8.60189 76.3693 8.96714 74.9083 9.63676C73.8125 10.1238 72.7776 10.8542 71.8037 11.7065C71.0123 10.8542 70.16 10.1846 69.1252 9.69763C67.725 9.02801 66.0814 8.72364 64.1943 8.72364C62.429 8.72364 60.7245 9.08888 59.2635 9.69763C58.4112 10.0629 57.559 10.6107 56.7676 11.2195C56.5241 10.6716 56.2197 10.1846 55.7327 9.81938C54.8805 9.08889 53.8456 8.72364 52.6281 8.72364C51.3498 8.72364 50.3149 9.14976 49.4627 9.94113C49.4018 10.002 49.3409 10.1238 49.28 10.1846C49.767 9.94113 50.254 9.75851 50.6801 9.63676C53.4195 8.84539 55.3675 10.7934 56.4632 13.1066Z" fill="#009CD8"/>
<path opacity="0.6" d="M60.907 15.2981C59.446 15.0546 57.8024 15.5416 56.9501 16.8809C55.7935 18.5853 56.2805 20.8986 56.2805 22.8466C56.2196 25.5859 56.5849 28.5688 56.2196 31.2473C56.037 32.7691 55.3674 34.5954 53.9673 35.3868C54.9413 35.265 55.7935 34.8389 56.4631 34.1693C57.3154 33.317 57.8024 32.0386 57.7415 30.4559L57.6806 22.3596C57.6806 20.0463 57.4371 18.5245 58.0459 17.3679C58.5938 16.333 60.2374 15.7242 61.2114 15.7242C61.4549 15.7242 61.6375 15.7242 61.881 15.7851C61.6984 15.5416 61.3331 15.359 60.907 15.2981Z" fill="#009CD8"/>
<path opacity="0.6" d="M89.6396 18.5244C89.6396 15.9677 89.2744 14.0806 88.6048 12.8022C88.3613 12.3761 88.0569 11.95 87.6916 11.5847C87.6916 11.5847 87.6916 11.5847 87.6916 11.6456C88.4221 14.4458 88.3613 17.5504 88.483 20.4116C88.6656 23.4553 88.3613 27.2904 88.3613 30.882C88.3613 32.6474 86.9003 33.8649 85.3784 33.9257C80.2649 34.1084 81.3607 27.7774 81.2389 25.038C81.1781 23.3335 81.0563 21.5682 80.9346 19.8637C80.8128 18.4027 80.8128 16.82 79.2301 16.0286C78.1952 15.4807 75.5167 15.1763 74.7253 15.846C72.473 16.5156 72.1686 18.7679 72.2295 20.8986C72.2904 24.4902 72.5339 28.3253 71.9251 31.856C71.499 34.3519 70.0989 35.3867 67.9683 35.3867C68.3335 35.4476 68.6988 35.5085 69.064 35.5085C70.4032 35.5085 71.5599 35.0823 72.4121 34.2301C73.3252 33.3779 73.7514 32.0995 73.7514 30.5168L73.6905 22.5422C73.6905 20.8986 73.5079 19.2549 74.2992 17.7939C74.4818 17.4896 74.7253 17.1852 74.9688 17.0026C75.0297 16.9417 75.0906 16.9417 75.1515 16.8808C75.2123 16.82 75.2732 16.82 75.3341 16.7591C75.395 16.6982 75.4558 16.6982 75.5167 16.6373C75.5776 16.5765 75.6993 16.5765 75.7602 16.5156C75.8211 16.5156 75.882 16.4547 75.882 16.4547C76.0037 16.3938 76.1255 16.3938 76.2472 16.333H76.3081C76.7951 16.2112 77.2821 16.2112 77.83 16.333C77.9517 16.333 78.0735 16.3938 78.1343 16.3938C79.9606 16.8808 80.1432 18.8897 80.2041 20.4116L80.2649 30.4559C80.2649 32.0386 80.7519 33.317 81.6651 34.1692C82.5782 35.0215 83.6739 35.4476 85.0132 35.4476C86.3524 35.4476 87.509 35.0215 88.3613 34.1692C89.2744 33.317 89.7005 32.0386 89.7005 30.4559L89.6396 18.5244Z" fill="#009CD8"/>
<path d="M52.2018 10.0629C50.7408 10.002 49.6451 11.463 49.5234 12.8631C49.219 15.9677 49.2799 19.4376 49.5842 22.6031C49.5842 22.9074 50.0104 22.7248 50.0712 22.4813C50.193 20.9594 50.0712 19.4376 50.0104 17.8548C49.9495 15.9069 49.6451 10.7325 52.141 10.2455C52.2627 10.2455 52.3236 10.0629 52.2018 10.0629Z" fill="white"/>
<path d="M49.8887 24.1858C49.8278 24.1249 49.7669 24.1858 49.7061 24.2467C49.5234 24.551 49.4626 25.1598 49.6452 25.4033C49.7669 25.5859 49.9496 25.4642 50.0104 25.3424C50.1322 25.038 50.1322 24.4293 49.8887 24.1858Z" fill="white"/>
<path d="M64.0114 14.6894C63.9505 14.6894 63.8288 14.8111 63.9505 14.872C66.142 16.333 65.2289 19.9246 65.5941 22.1769C65.655 22.4204 65.8985 22.2378 65.9594 22.1161C66.2638 20.1072 66.7508 15.2372 64.0114 14.6894Z" fill="white"/>
<path d="M82.396 18.281C82.2134 16.5765 81.1785 14.5067 79.2306 14.4458C79.1697 14.4458 79.1697 14.5067 79.1697 14.5067C81.422 15.6633 81.6655 17.5505 81.7873 19.8637C81.909 21.8117 82.0308 23.8814 81.9699 25.8294C81.9699 26.1947 82.5178 26.012 82.4569 25.7077C82.396 23.2727 82.7004 20.8377 82.396 18.281Z" fill="white"/>
</svg>
