<svg width="44" height="46" viewBox="0 0 44 46" fill="none" xmlns="http://www.w3.org/2000/svg">
<path d="M30.8891 3.37998C30.463 2.71035 29.8543 2.34511 29.0629 2.34511L16.9489 2.40598C16.1575 2.40598 15.5487 2.77123 15.1226 3.50173C14.6965 4.17135 14.5139 5.02359 14.5139 6.05846C14.5139 7.09333 14.7574 8.00645 15.1835 8.67607C15.6096 9.40657 16.2183 9.71094 17.0706 9.71094H18.1055L18.1663 25.721C18.1663 30.2257 16.0966 30.8344 14.2704 30.8344C13.2355 30.8344 12.505 30.6518 12.018 30.3474C11.531 29.9822 11.1658 29.617 10.9223 29.13C10.6788 28.5212 10.3744 27.669 10.07 26.6341C9.70476 25.3557 9.21777 24.3817 8.48728 23.773C7.75678 23.0425 6.66103 22.6772 5.32179 22.6772C3.98255 22.6772 2.82593 23.0425 1.97368 23.773C1.30406 24.3209 0.512695 25.3557 0.512695 27.0602C0.512695 28.156 0.695319 29.3126 1.12144 30.4692C1.48669 31.6258 2.03456 32.7216 2.64331 33.6347C3.8608 35.3392 5.44353 36.6175 7.39152 37.4089C9.27864 38.1394 11.5919 38.5047 14.3312 38.5047C17.375 38.5047 19.9926 37.9568 22.1841 36.861C24.4364 35.7653 26.0192 34.1825 26.9932 32.1737C27.541 31.0171 27.9063 29.8604 28.0889 28.7038C28.2107 27.6081 28.3324 26.3297 28.3324 24.8079L28.2715 9.77181H29.1847C29.976 9.77181 30.6457 9.40657 31.0109 8.67607C31.437 8.00645 31.6196 7.09333 31.6196 6.05846C31.5588 4.90184 31.3153 4.0496 30.8891 3.37998Z" fill="#006336" stroke="#221F1F" stroke-width="0.820712" stroke-miterlimit="10" stroke-linecap="round" stroke-linejoin="round"/>
<path d="M30.8889 3.37998C30.4628 2.71035 29.9149 2.40598 29.1236 2.34511L29.1844 2.40598C30.1584 3.44085 30.2802 5.99759 29.7932 7.27595C29.2453 8.73695 27.8452 8.31083 26.2624 8.67607C26.5059 11.5372 26.4451 15.5549 26.4451 18.416C26.3842 21.9467 26.5059 24.5035 26.0189 27.9733C25.2885 33.3303 21.5142 36.1914 16.3399 37.1654C11.409 38.0785 6.17382 37.1045 3.00833 32.8433C1.06034 30.1648 0.390712 27.0602 1.30383 24.1991C0.816835 24.8079 0.329834 25.721 0.329834 26.9993C0.329834 28.0951 0.512458 29.2517 0.938581 30.4083C1.30383 31.5649 1.8517 32.6607 2.46045 33.5738C3.67794 35.2783 5.26069 36.5567 7.20868 37.348C9.0958 38.0785 11.409 38.4438 14.1484 38.4438C17.1921 38.4438 19.8097 37.8959 22.0012 36.8002C24.2536 35.7044 25.8363 34.1217 26.8103 32.1128C27.3582 30.9562 27.7234 29.7996 27.9061 28.643C28.0278 27.5472 28.1496 26.2688 28.1496 24.747L28.0887 9.71094H29.0018C29.7932 9.71094 30.4628 9.34569 30.828 8.6152C31.2542 7.94557 31.4368 7.03246 31.4368 5.99759C31.5585 4.90184 31.315 4.0496 30.8889 3.37998Z" fill="#7A8F44"/>
<path d="M17.3751 7.76294C16.6446 7.21507 16.3403 6.4237 16.4011 5.51058C16.5229 4.53658 17.2534 4.17134 17.8621 3.56259C17.8621 3.56259 17.8621 3.56259 17.8012 3.56259C16.4011 3.80609 15.7315 5.51058 15.7924 6.78895C15.8533 7.45857 16.4011 8.00644 17.0099 8.24994C17.6795 8.55431 18.3491 8.37169 19.0796 8.55431C19.3231 8.61519 19.5057 8.49344 19.6275 8.37169C18.7752 8.37169 17.9839 8.18907 17.3751 7.76294Z" fill="white"/>
<path d="M5.80889 23.8947C4.65228 23.5295 3.37392 24.0165 2.64342 24.9905C2.52167 25.1731 2.70429 25.234 2.82604 25.1122C3.80003 24.3209 4.8349 24.4426 5.86977 24.9296C6.72202 25.3557 6.90465 26.4515 7.51339 27.1211C7.69602 27.3037 7.93951 26.9993 7.93951 26.8776C7.87863 25.4166 7.26989 24.3209 5.80889 23.8947Z" fill="white"/>
<path d="M8.73082 28.5212C8.60907 28.3386 8.5482 28.2168 8.42645 28.0342C8.36557 27.9125 8.24383 27.9733 8.18295 28.0951C8.0612 28.3995 8.00032 28.643 8.24381 28.8865C8.42644 29.1908 8.91345 28.7647 8.73082 28.5212Z" fill="white"/>
<path d="M19.8101 12.6938C19.8101 12.5721 19.6275 12.6329 19.5666 12.7547C19.3231 15.494 19.5057 18.1725 19.4449 20.9119C19.3231 24.0774 19.9927 28.3386 17.6186 30.8344C17.436 31.0171 17.6186 31.3214 17.8621 31.1388C20.1754 29.4343 19.9319 26.8167 19.9319 24.1991C19.871 18.6595 19.871 16.4072 19.8101 12.6938Z" fill="white"/>
<path d="M41.6035 2.16249C40.6904 1.55374 39.5946 1.18849 38.438 1.18849C37.2205 1.18849 36.1248 1.55374 35.2117 2.28424C34.1768 3.07561 33.6289 4.11048 33.6289 5.38884C33.6289 6.72809 34.1768 7.82383 35.2117 8.55432C36.1248 9.22395 37.2205 9.52832 38.4989 9.52832C39.7164 9.52832 40.8121 9.16307 41.7252 8.49345C42.6992 7.76295 43.2471 6.66721 43.2471 5.32797C43.2471 3.98873 42.6992 2.89298 41.6035 2.16249Z" fill="#48873C" stroke="#221F1F" stroke-width="0.820712" stroke-miterlimit="10" stroke-linecap="round" stroke-linejoin="round"/>
<path d="M41.4814 2.10162C40.6291 1.432 39.5942 1.12762 38.4985 1.12762C38.3159 1.12762 38.1333 1.12762 38.0115 1.1885C39.7769 1.97987 40.7509 4.11048 39.8986 6.18022C39.1681 7.82383 37.1593 8.85871 35.5156 8.43258C35.333 8.37171 35.0895 8.31083 34.9678 8.18908C35.1504 8.37171 35.2721 8.55433 35.4548 8.67608C36.307 9.3457 37.4028 9.71095 38.5594 9.71095C39.716 9.71095 40.7509 9.3457 41.6031 8.6152C42.5771 7.82383 43.0641 6.72809 43.0641 5.38885C43.0032 3.98873 42.5162 2.83211 41.4814 2.10162Z" fill="#B2BC3A"/>
<path d="M38.4985 11.1111C37.0984 11.1111 35.9418 11.5372 35.0895 12.3285C34.1764 13.1199 33.6894 14.3374 33.6894 15.7984L33.8111 35.2783C33.8111 37.1654 33.5676 37.7741 33.5068 38.0176C33.4459 38.0785 33.385 38.2611 32.7154 38.2611C32.5328 38.2611 32.2893 38.2611 31.8632 38.2003C31.437 38.2003 31.0718 38.1394 30.8283 38.1394C30.5239 38.1394 30.3413 38.0785 30.2195 38.0785C29.1238 38.0785 28.1498 38.3829 27.4193 39.0525C26.6279 39.7221 26.2627 40.5744 26.2627 41.6092C26.2627 42.5832 26.6888 43.9225 28.6977 44.7747C29.976 45.3226 31.7414 45.5661 34.1155 45.5661C38.4376 45.5661 41.3596 44.0442 42.6989 41.1831C43.0032 40.6353 43.1858 39.9048 43.3076 38.8699C43.4293 37.9568 43.4902 36.7393 43.4902 35.2783L43.3685 15.6767C43.3685 14.1548 42.8815 12.9982 41.9684 12.2068C40.9944 11.4763 39.8986 11.1111 38.4985 11.1111Z" fill="#48873C" stroke="#221F1F" stroke-width="0.820712" stroke-miterlimit="10" stroke-linecap="round" stroke-linejoin="round"/>
<path d="M43.3077 15.7375C43.3077 14.2157 42.8207 13.059 41.9076 12.2677C40.9945 11.4763 39.8988 11.1111 38.5595 11.1111C37.1594 11.1111 36.0028 11.5372 35.1505 12.3285C34.42 12.9982 33.933 13.9113 33.8113 15.0679C35.2114 13.546 37.2203 12.7547 39.2291 13.9113C41.4815 15.1897 40.9336 18.9639 40.8727 21.0336C40.8119 25.4775 40.8727 29.8604 40.9336 34.2434C40.9945 37.2263 40.9336 40.9396 38.6813 43.192C37.5855 44.2877 36.1854 45.0791 34.6635 45.5661C38.6813 45.4444 41.4206 43.9834 42.699 41.244C43.0034 40.6961 43.186 39.9656 43.3077 38.9308C43.4295 38.0176 43.4904 36.8002 43.4904 35.3392L43.3077 15.7375Z" fill="#B2BC3A"/>
<path d="M37.4637 2.34511C36.6723 2.40598 35.5765 2.95385 35.0895 3.62347C34.6025 4.2931 34.1156 6.05846 35.1504 6.54546C35.4548 6.66721 35.7592 6.36283 35.7592 6.05846C35.7592 5.63234 35.5765 5.26709 35.6374 4.84097C35.6374 4.47572 35.82 4.0496 36.0635 3.8061C36.4897 3.3191 37.1593 3.0756 37.5854 2.58861C37.6463 2.52773 37.6463 2.34511 37.4637 2.34511Z" fill="white"/>
<path d="M29.9152 39.3569C29.976 39.296 29.976 39.1134 29.7934 39.1743C29.3064 39.4178 28.8194 39.3569 28.3933 39.6004C27.9672 39.8439 27.6628 40.3309 27.4802 40.757C27.1149 41.5484 27.1758 42.9485 28.2716 43.1311C28.5151 43.192 28.7585 42.8876 28.6977 42.705C28.6368 42.4615 28.515 42.3397 28.3324 42.0962C28.028 41.731 28.0889 41.3049 28.2107 40.8787C28.4542 40.0265 29.3064 39.9048 29.9152 39.3569Z" fill="white"/>
<path d="M35.3941 22.0685C35.3941 20.7901 35.5767 19.1465 35.0897 17.929C35.0288 17.8073 34.9071 17.929 34.9071 18.0508C34.9679 24.3817 34.7244 30.8345 34.6636 37.1654C34.6636 37.4089 34.9679 37.2872 35.0288 37.1045C35.4549 33.6347 35.3332 30.104 35.4549 26.5732C35.4549 25.1122 35.3941 23.5295 35.3941 22.0685Z" fill="white"/>
</svg>
