<svg width="50" height="49" viewBox="0 0 50 49" fill="none" xmlns="http://www.w3.org/2000/svg">
<path d="M46.452 17.5H32.352V3.59998C32.352 2.49998 31.452 1.59998 30.352 1.59998H19.552C18.452 1.59998 17.552 2.49998 17.552 3.59998V17.5H3.552C2.452 17.5 1.552 18.4 1.552 19.5V30.4C1.552 31.5 2.452 32.4 3.552 32.4H17.552V46.2C17.552 47.3 18.452 48.2 19.552 48.2H30.352C31.452 48.2 32.352 47.3 32.352 46.2V32.4H46.452C47.552 32.4 48.452 31.5 48.452 30.4V19.5C48.452 18.4 47.552 17.5 46.452 17.5Z" fill="#ED1E24" stroke="#221F1F" stroke-width="1.3482" stroke-miterlimit="10" stroke-linecap="round" stroke-linejoin="round"/>
<path d="M17.7519 31.4C18.2519 30.9 18.4519 30.5 19.0519 30.1C20.3519 29.2 18.2519 29.5 17.7519 29.6C14.2519 29.9 10.5519 29.6 7.05191 29.6C4.55191 29.6 2.6519 29 1.4519 27.8V30.4C1.4519 31.5 2.3519 32.4 3.4519 32.4H17.1519C17.2519 32 17.4519 31.7 17.7519 31.4Z" fill="#993135"/>
<path d="M46.452 17.5H32.352V3.59998C32.352 2.49998 31.452 1.59998 30.352 1.59998H19.552C18.452 1.59998 17.552 2.49998 17.552 3.59998V4.29999C17.752 4.19999 18.052 3.99997 18.252 3.99997C21.052 3.39997 24.152 3.89997 27.052 3.99997C29.052 3.99997 30.252 5.09998 30.452 7.09998C30.852 11.3 30.452 15.5 30.252 19.8C35.152 20.5 45.452 18.1 45.952 25.6C46.052 27.7 45.052 29.2 43.452 29.8C39.252 31.2 34.252 30.3 29.752 30C30.152 31.9 30.352 33.7 30.452 35.5C30.552 38 30.952 43.4 29.652 45.8C28.852 47.2 27.552 47.9 26.152 48.3H30.552C31.652 48.3 32.552 47.4 32.552 46.3V32.5H46.652C47.752 32.5 48.652 31.6 48.652 30.5V19.6C48.452 18.4 47.552 17.5 46.452 17.5Z" fill="#993135"/>
<path d="M20.252 14.6C20.252 11.6 19.952 8.49995 20.052 5.59995C20.052 5.39995 19.852 5.39995 19.752 5.59995C18.752 7.39995 19.052 9.29996 19.052 11.3C19.052 12.5 19.052 13.7999 19.052 14.9999C19.052 16.1999 19.352 17.5 18.852 18.6C18.652 19.1 19.252 19.2 19.552 18.9C20.752 17.9 20.252 15.9 20.252 14.6Z" fill="white"/>
<path d="M19.6519 32.1C19.5519 31.8 19.2519 32 19.2519 32.2C19.0519 35.1 18.4519 38.7 19.1519 41.6C19.2519 41.9 19.5519 41.7 19.6519 41.5C20.2519 38.8 20.2519 34.9 19.6519 32.1Z" fill="white"/>
<path d="M7.052 19.6C6.152 19.1 4.55198 19.2 3.65198 19.7C3.15198 20 3.052 20.6 3.052 21.1C3.052 21.6 3.05198 22.3 3.25198 22.8C3.25198 22.9 3.352 22.9 3.452 22.9C3.552 22.9 3.55198 22.9 3.65198 22.7C3.85198 22.1 3.65198 20.7 4.25198 20.4C4.55198 20.3 5.052 20.3 5.452 20.3C5.952 20.2 6.452 20.3 6.952 20.1C7.152 20 7.352 19.7 7.052 19.6Z" fill="white"/>
</svg>
