<svg width="67" height="46" viewBox="0 0 67 46" fill="none" xmlns="http://www.w3.org/2000/svg">
<path d="M59.4757 10.4395C57.4669 9.40466 55.2145 8.91766 52.8404 8.91766C50.8315 8.91766 49.0053 9.28291 47.4225 10.0134C46.5094 10.4395 45.5963 10.9874 44.6832 11.7179C44.4397 11.1091 44.0744 10.5613 43.5874 10.1352C42.7352 9.34379 41.5786 8.97853 40.3002 8.97853C38.961 8.97853 37.8652 9.40466 37.013 10.196C36.1607 10.9874 35.7346 12.144 35.7346 13.6659L35.8563 39.4767C35.8563 41.0595 36.1607 42.2161 36.7086 43.1292C37.3782 44.1641 38.6566 44.712 40.4219 44.712C43.3439 44.712 45.0484 42.8249 45.0484 39.5376L44.9875 34.3024C44.9875 34.7285 47.3008 35.3373 47.6052 35.459C48.7009 35.7634 49.7966 35.8851 50.8924 35.946C53.2665 36.0678 55.7015 35.7025 57.9539 34.8503C59.5366 34.2415 60.9976 33.3284 62.1542 32.1718C63.3717 31.0152 64.2848 29.5542 64.9545 27.8497C65.6241 26.1452 65.9284 24.319 65.9284 22.3101C65.9284 19.6316 65.3197 17.1966 64.1022 15.1878C63.1891 13.0571 61.5455 11.4744 59.4757 10.4395ZM54.5449 24.2581C54.5449 25.2321 54.3622 26.0234 53.9361 26.6931C53.51 27.3627 53.023 27.7888 52.3534 28.0932C51.6838 28.3976 50.9533 28.5802 50.1619 28.5802C48.8226 28.5802 47.7269 28.2149 46.8138 27.4844C45.9007 26.7539 45.4746 25.7191 45.4746 24.319C45.4746 22.858 45.9007 21.7622 46.8138 21.0317C47.7269 20.3012 48.8226 19.936 50.1619 19.936C51.0141 19.936 51.7446 20.1186 52.4143 20.423C53.0839 20.7273 53.5709 21.2143 53.997 21.8231C54.3014 22.5536 54.5449 23.345 54.5449 24.2581Z" fill="#F6903C" stroke="#221F1F" stroke-width="0.820712" stroke-miterlimit="10" stroke-linecap="round" stroke-linejoin="round"/>
<path d="M64.4066 15.066C63.6153 13.7876 62.7021 12.6919 61.5455 11.7788C64.9545 16.4661 65.9894 23.2232 63.25 28.0932C59.2323 35.2155 48.5792 36.0069 43.1614 30.2847C43.2222 32.7805 43.4049 35.3373 43.1005 37.7723C42.9179 39.2941 42.1265 41.1204 40.3611 41.3639C38.5958 41.6074 37.0131 40.6942 36.0391 39.355V39.4159C36.0391 40.9986 36.3434 42.1552 36.8913 43.0683C37.5609 44.1032 38.8393 44.6511 40.6047 44.6511C43.5266 44.6511 45.2311 42.764 45.2311 39.4767L45.1703 34.2415C45.1703 34.6676 47.4835 35.2764 47.7879 35.3981C48.8836 35.7025 49.9793 35.8243 51.0751 35.8851C53.4492 36.0069 55.8842 35.6416 58.1366 34.7894C59.7193 34.1807 61.1803 33.2675 62.3369 32.1109C63.5544 30.9543 64.4675 29.4933 65.1371 27.7888C65.8068 26.0843 66.1111 24.2581 66.1111 22.2492C66.172 19.449 65.5633 17.0749 64.4066 15.066Z" fill="#F6903C"/>
<path d="M49.4922 18.962C48.2747 19.2664 46.9355 19.7534 46.1441 20.7882C45.5354 21.5796 45.1092 22.6145 45.4745 23.5885C45.5962 22.4927 46.0223 21.6405 46.7528 21.0317C47.666 20.3012 48.7617 19.936 50.101 19.936C50.9532 19.936 51.6837 20.1186 52.3533 20.423C53.0229 20.7273 53.5099 21.2143 53.936 21.8231C54.3622 22.4318 54.5448 23.2232 54.5448 24.1972C54.5448 25.1712 54.3622 25.9626 53.936 26.6322C53.5099 27.3018 53.0229 27.7279 52.3533 28.0323C51.8054 28.2758 51.1967 28.4584 50.5271 28.5193C51.9272 28.8237 53.2664 28.3976 54.4839 27.7279C56.7363 26.4496 57.6494 23.2232 56.0058 21.0926C54.5448 19.1446 51.8663 18.4141 49.4922 18.962Z" fill="#F6903C"/>
<path d="M39.1435 9.8308C41.2741 10.3787 42.2481 12.6919 42.4916 14.8225C43.1612 13.6659 44.4396 12.5093 45.3527 11.5353C45.1092 10.9874 44.0744 10.5004 43.6483 10.1352C42.796 9.3438 41.6394 8.97855 40.361 8.97855C39.2653 8.97855 38.2913 9.28293 37.5608 9.8308C38.0478 9.70905 38.5956 9.70905 39.1435 9.8308Z" fill="#F6903C"/>
<path d="M38.1088 24.3798C38.1088 22.5536 37.9261 20.6665 37.9261 18.7794C37.9261 16.7705 38.0479 14.7008 37.8044 12.6919C37.8044 12.5702 37.6218 12.631 37.6218 12.6919C36.6478 15.9791 37.0739 19.8751 37.1956 23.2232C37.3783 27.4236 37.1956 31.7457 37.6826 35.8852C37.7435 36.2504 38.2305 36.0069 38.2305 35.7634C38.5958 31.9892 38.1696 28.1541 38.1088 24.3798Z" fill="white"/>
<path d="M63.0673 16.6488C60.3279 9.16117 50.6489 8.55242 45.1093 13.118C44.9875 13.1789 45.1093 13.3615 45.231 13.3006C47.7269 11.3527 51.3794 10.683 54.484 11.1092C58.3191 11.5962 60.6932 13.8485 62.5803 17.014C62.7021 17.3184 63.1282 16.9531 63.0673 16.6488Z" fill="white"/>
<path d="M63.4934 18.4141C63.3108 18.1706 62.9456 18.5359 62.9456 18.7794C62.9456 18.9011 62.9456 19.0229 63.0065 19.1446C63.0065 19.2055 63.0065 19.2664 63.0065 19.3272C63.0065 19.3272 63.0065 19.3272 63.0065 19.3881V19.449C63.1282 19.7534 63.6152 19.449 63.6152 19.2055C63.6761 18.9011 63.6761 18.5967 63.4934 18.4141Z" fill="white"/>
<path d="M31.4732 6.84793C30.8036 5.44781 29.7687 4.23032 28.4904 3.3172C27.212 2.40408 25.6901 1.67359 23.9856 1.30834C22.2811 0.882215 19.9679 0.699585 16.9242 0.76046L7.00162 0.821338C4.99275 0.821338 3.53175 1.24746 2.49688 2.03883C1.40113 2.89108 0.853271 4.2912 0.853271 6.05656L0.97501 30.8325C0.97501 32.4762 1.46202 33.7545 2.43602 34.6677C3.41001 35.5199 4.6275 36.0069 6.0885 35.946C7.48861 35.946 8.7061 35.459 9.6801 34.6068C10.6541 33.6937 11.1411 32.4153 11.1411 30.7108L11.0802 22.858L16.9242 22.7971C21.9159 22.7971 25.751 21.8231 28.3077 19.9969C31.0471 18.0489 32.3864 15.1878 32.3864 11.5353C32.5081 9.76992 32.1429 8.24804 31.4732 6.84793ZM21.0636 12.9963C21.0636 13.605 20.881 14.0311 20.4549 14.3355C20.0288 14.7008 19.3591 14.9443 18.5069 15.1269C17.5329 15.3095 16.2545 15.4313 14.6718 15.4313H11.1411V10.5613H14.6718C18.3243 10.5613 19.6635 10.9874 20.0897 11.2309C20.6984 11.7179 21.0636 12.2658 21.0636 12.9963Z" fill="#F15837" stroke="#221F1F" stroke-width="0.820712" stroke-miterlimit="10" stroke-linecap="round" stroke-linejoin="round"/>
<path d="M17.8986 10.0743C15.7679 10.0134 13.5156 9.89166 11.4459 10.5004C11.5067 10.5613 11.5067 10.5613 11.5676 10.6222H14.6722C18.3247 10.6222 19.6639 11.0483 20.0901 11.2918C20.7597 11.7179 21.064 12.2658 21.064 12.9354C21.064 13.5441 20.8814 13.9703 20.4553 14.2746C20.0292 14.6399 19.3595 14.8834 18.5073 15.066C17.5333 15.2486 16.2549 15.3704 14.6722 15.3704H11.1415C10.8371 15.6139 10.4719 15.8574 10.1675 16.04C11.872 16.3444 13.82 16.2226 15.4027 16.2226C17.4116 16.2226 20.2727 16.3444 21.9163 14.9443C24.8992 12.4484 21.7337 10.196 17.8986 10.0743Z" fill="#F15837"/>
<path d="M31.4735 6.84792C30.8039 5.4478 29.769 4.23032 28.4906 3.3172C27.8819 2.89107 27.2731 2.52582 26.5426 2.22145C29.9516 5.32606 31.9604 9.76991 30.3777 14.3964C29.0993 18.3532 24.5338 19.5098 21.003 20.1186C19.1768 20.423 16.8027 20.7273 14.9764 20.7273C13.2111 20.7273 11.2631 20.7882 9.55859 20.5447C9.61946 23.4667 9.68033 27.6671 9.55859 29.9803C9.43684 31.8674 8.46285 33.5719 6.63661 34.3633C4.38425 35.3373 2.3145 33.511 1.03613 31.4413C1.15788 32.7805 1.64488 33.8763 2.49712 34.6676C3.47112 35.5199 4.68861 36.0069 6.1496 35.946C7.54972 35.946 8.76723 35.459 9.74122 34.6068C10.7152 33.6936 11.2022 32.4153 11.2022 30.7108L11.1413 22.858L16.9853 22.7971C21.977 22.7971 25.8121 21.8231 28.3689 19.9968C31.1082 18.0489 32.4475 15.1878 32.4475 11.5353C32.5083 9.76991 32.1431 8.24804 31.4735 6.84792Z" fill="#F15837"/>
<path d="M4.5057 2.40408C1.40109 3.74332 2.37508 8.97854 2.31421 11.4744C2.31421 16.527 2.00984 21.7013 2.37508 26.8148C2.43596 27.3627 3.22733 26.9974 3.22733 26.6322C3.2882 22.7971 3.22732 18.962 3.16645 15.1878C3.10557 13.1789 3.22733 11.1092 3.22733 9.03941C3.22733 7.1523 2.67946 3.86507 4.56658 2.70845C4.68832 2.5867 4.68832 2.28233 4.5057 2.40408Z" fill="white"/>
<path d="M3.1059 29.1281C3.1059 29.0672 3.1059 29.0672 3.1059 29.0672C3.1059 28.7628 3.1059 28.5193 3.1059 28.2149C3.1059 27.9714 2.92329 27.9106 2.74067 27.9714C2.49717 27.9714 2.25366 28.1541 2.25366 28.3976C2.25366 28.7019 2.25366 29.0063 2.25366 29.3107V29.3716C2.25366 29.4324 2.31454 29.4933 2.31454 29.5542C2.37542 29.9803 2.98417 29.7368 3.04504 29.3716C3.10592 29.3107 3.1059 29.2498 3.1059 29.1281C3.1059 29.1889 3.1059 29.1889 3.1059 29.1281Z" fill="white"/>
<path d="M27.3337 4.89994C24.5335 1.36921 19.4809 1.55183 15.4023 1.85621C15.3414 1.85621 15.2806 1.97796 15.4023 1.97796C19.5418 2.89108 23.8639 1.79534 27.0294 5.26519C27.212 5.44782 27.5164 5.08256 27.3337 4.89994Z" fill="white"/>
</svg>
