<svg width="71" height="38" viewBox="0 0 71 38" fill="none" xmlns="http://www.w3.org/2000/svg">
<path d="M15.314 36.1262C17.0185 36.4306 18.9665 36.6132 21.0362 36.6132C23.8365 36.6132 26.3323 36.1871 28.4021 35.3957C30.5327 34.6044 32.298 33.5695 33.6981 32.352C35.0983 31.0736 36.1331 29.7952 36.8027 28.456C37.4724 27.1168 37.8376 25.7775 37.8376 24.56C37.8376 23.4034 37.3506 22.3685 36.3766 21.5772C35.4635 20.8467 34.4286 20.4814 33.2111 20.4814C31.7502 20.4814 30.6544 20.9076 29.9848 21.6989C28.8282 22.9773 28.5238 24.8644 27.4281 26.2036C24.5669 29.7344 18.2969 29.43 15.2531 26.3254C11.7833 22.7947 11.5398 16.2811 14.7661 12.5068C17.1402 9.76749 20.671 8.3065 24.2017 9.70661C25.4801 10.2545 27.5498 11.4111 28.2803 12.6286C28.9499 13.7243 29.6195 14.4548 30.2283 14.9418C30.9588 15.4897 31.9328 15.7941 33.2111 15.7941C34.4286 15.7941 35.4635 15.368 36.3158 14.5766C37.168 13.7852 37.655 12.7503 37.655 11.7155C37.655 10.0719 36.8636 8.36737 35.4026 6.60201C34.0025 4.95839 31.9328 3.55827 29.376 2.46253C26.8193 1.36678 23.8364 0.818912 20.6101 0.879787C17.9316 0.879787 15.4357 1.30591 13.0616 2.09728C10.6875 2.88865 8.55692 4.10614 6.79155 5.68889C5.02619 7.27163 3.62606 9.15874 2.65206 11.4111C1.67807 13.6026 1.25195 16.0985 1.25195 18.8378C1.25195 20.5423 1.43458 22.125 1.8607 23.6469C2.22595 25.1688 2.83469 26.6298 3.62606 27.969C4.41743 29.3083 5.33056 30.5257 6.4263 31.6215C7.64379 32.839 8.98304 33.7521 10.444 34.4826C11.9659 35.274 13.5486 35.8218 15.314 36.1262Z" fill="#ABCC38" stroke="#221F1F" stroke-width="0.820712" stroke-miterlimit="10" stroke-linecap="round" stroke-linejoin="round"/>
<path d="M36.377 21.638C35.4639 20.9075 34.429 20.5423 33.2115 20.5423C31.7505 20.5423 30.6548 20.9684 29.9852 21.7598C28.8286 23.0381 28.5242 24.9253 27.4284 26.2645C24.5673 29.7952 18.2972 29.4909 15.2535 26.3863C11.7837 22.8555 11.5401 16.3419 14.7665 12.5677C17.1406 9.82834 20.6713 8.36735 24.2021 9.76747C25.4804 10.3153 27.5502 11.472 28.2807 12.6895C28.9503 13.7852 29.6199 14.5157 30.2287 15.0027C30.9592 15.5506 31.9332 15.8549 33.2115 15.8549C34.429 15.8549 35.4639 15.4288 36.3161 14.6374C37.1684 13.8461 37.6554 12.8112 37.6554 11.7763C37.6554 10.6197 37.2293 9.40222 36.4988 8.12385C36.6814 9.15872 36.6205 10.1936 36.1944 11.1676C35.4639 12.933 32.9072 13.5417 31.3244 12.6895C27.9154 10.8023 25.4805 7.75861 21.341 7.45423C18.1755 7.21073 15.0709 8.2456 12.7576 10.4371C9.77479 13.2982 7.94855 17.6203 8.73992 21.7598C9.83566 27.2994 14.6448 30.891 20.2452 30.8301C22.2541 30.7692 23.9586 30.5257 25.6631 29.4909C26.9415 28.6995 28.2198 27.8472 29.6199 27.2994C31.3853 26.5689 33.5768 26.2645 33.455 28.8212C33.3333 32.1693 28.8286 34.0565 26.1501 34.9087C21.4627 36.3697 16.1666 36.3088 11.5402 34.4826C9.59217 33.7521 7.88767 32.7172 6.30493 31.4997C6.36581 31.5606 6.36581 31.6215 6.42669 31.6215C7.64418 32.839 8.98343 33.7521 10.4444 34.4826C11.9054 35.2131 13.4881 35.761 15.2535 36.0653C16.958 36.3697 18.906 36.5523 20.9757 36.5523C23.776 36.5523 26.2718 36.1262 28.3416 35.3348C30.4722 34.5435 32.2375 33.5086 33.6376 32.2911C35.0378 31.0127 36.0726 29.7344 36.7423 28.3951C37.4119 27.0559 37.7771 25.7166 37.7771 24.4991C37.838 23.4643 37.351 22.4294 36.377 21.638Z" fill="#ABCC38"/>
<path d="M14.8879 3.13214C10.8702 3.68001 7.46122 6.66287 5.26973 9.88923C2.89562 13.42 1.55638 19.1422 3.13912 23.2817C3.32174 23.7687 4.05224 23.2817 3.99136 22.8555C3.38262 18.7161 3.56524 14.6375 5.75672 10.9241C7.70471 7.63687 11.2354 4.34963 14.8879 3.31476C15.0097 3.25389 15.0097 3.13214 14.8879 3.13214Z" fill="white"/>
<path d="M5.08718 26.5689C4.96543 26.3862 4.90456 26.2036 4.84369 25.9601C4.72194 25.534 4.60019 25.2296 4.29582 24.9253C4.17407 24.8035 3.86969 24.9861 3.93057 25.1688C3.99144 25.4123 3.93057 25.6558 3.93057 25.8992C3.93057 26.0819 4.05231 26.3254 4.11318 26.508C4.23493 26.8732 4.35669 27.482 4.84369 27.482C5.08719 27.482 5.39156 27.2385 5.39156 26.995C5.33068 26.8732 5.20893 26.7515 5.08718 26.5689Z" fill="white"/>
<path d="M44.9596 33.1434C47.6381 35.4566 51.4124 36.6741 56.0997 36.6132C58.2912 36.6132 60.2392 36.3089 62.0045 35.8219C63.7699 35.3349 65.2918 34.6044 66.4484 33.7521C67.6659 32.8999 68.579 31.9259 69.1877 30.9519C69.8574 29.917 70.1617 28.8821 70.1617 27.9081C70.1617 26.9342 69.7356 26.021 68.8834 25.2297C68.092 24.4383 67.0571 24.073 65.8396 24.073C64.8657 24.073 63.9525 24.3774 63.2829 24.9253C62.6742 25.4123 62.1263 26.021 61.6393 26.8124C60.9697 27.7864 60.2392 28.5169 59.3869 29.0039C58.5347 29.4909 57.4998 29.6735 56.3432 29.6735C55.4301 29.6735 54.5778 29.5518 53.8473 29.2474C53.1168 28.943 52.5081 28.5778 52.0211 28.0299C51.5341 27.482 51.108 26.8124 50.8645 26.0819C50.5601 25.2905 50.4383 24.3774 50.4383 23.4034C50.4383 21.3337 50.9253 19.7509 52.0211 18.5943C53.056 17.4377 54.4561 16.8898 56.2214 16.8898C57.4389 16.8898 58.4738 17.0725 59.2043 17.5595C59.9957 18.0465 60.8479 18.777 61.6393 19.8118C62.1871 20.4814 62.735 20.9684 63.222 21.2728C63.8308 21.6381 64.5613 21.8207 65.3526 21.8207C66.5093 21.8207 67.5441 21.4554 68.3964 20.7858C69.3095 20.0553 69.7965 19.0813 69.7965 17.9856C69.7965 17.0116 69.4312 16.0376 68.7007 15.0027C68.0311 14.0896 67.118 13.1765 65.9005 12.3851C64.7439 11.5937 63.2829 10.985 61.6393 10.498C59.9957 10.011 58.1694 9.7675 56.2214 9.82838C53.056 9.82838 50.3166 10.4371 48.0034 11.5329C45.6901 12.6895 43.8639 14.3331 42.5855 16.4028C41.368 18.4726 40.7593 20.9076 40.7593 23.5252C40.7593 27.5429 42.1594 30.7693 44.9596 33.1434Z" fill="#DDDE1E" stroke="#221F1F" stroke-width="0.820712" stroke-miterlimit="10" stroke-linecap="round" stroke-linejoin="round"/>
<path d="M68.8838 25.2905C68.0924 24.4992 67.0575 24.1339 65.84 24.1339C64.8661 24.1339 63.9529 24.4383 63.2833 24.9862C62.6746 25.4732 62.1267 26.0819 61.6397 26.8733C60.9701 27.8473 60.2396 28.5778 59.3873 29.0648C58.5351 29.5518 57.5002 29.7344 56.3436 29.7344C55.4305 29.7344 54.5782 29.6126 53.8477 29.3083C53.1172 29.0039 52.5085 28.6387 52.0215 28.0908C51.5345 27.5429 51.1084 26.8733 50.8649 26.1428C50.5605 25.3514 50.4387 24.4383 50.4387 23.4643C50.4387 21.3946 50.9257 19.8118 52.0215 18.6552C53.0564 17.4986 54.4565 16.9507 56.2218 16.9507C57.4393 16.9507 58.4742 17.1333 59.2047 17.6203C59.9961 18.1073 60.8483 18.8378 61.6397 19.8727C62.1876 20.5423 62.7354 21.0293 63.2224 21.3337C63.8312 21.6989 64.5617 21.8816 65.353 21.8816C66.5097 21.8816 67.5445 21.5163 68.3968 20.8467C69.3099 20.1162 69.7969 19.1422 69.7969 18.0465C69.7969 17.316 69.5534 16.5246 69.1273 15.7332C68.8838 17.0116 67.8489 18.29 66.4488 18.29C64.2573 18.29 62.6137 16.7681 60.6657 16.0376C57.9872 15.1245 54.3347 14.5766 51.8389 16.2811C47.6994 19.2031 47.1515 27.1777 51.778 30.0388C54.8826 31.9259 57.2567 30.891 60.3004 29.917C61.0309 29.6735 62.2484 29.3691 62.7354 30.2214C64.4399 33.0825 58.5959 34.8479 56.7697 35.0305C52.9346 35.274 48.6734 34.3609 45.6297 32.1085C42.9512 30.0996 41.3684 27.482 40.8206 24.4383C41.0032 28.0299 42.4033 30.9519 44.96 33.1434C47.6385 35.4566 51.4128 36.6741 56.1001 36.6132C58.2916 36.6132 60.2396 36.3089 62.0049 35.8219C63.7703 35.3349 65.2922 34.6044 66.4488 33.7521C67.6663 32.8999 68.5794 31.9259 69.1882 30.9519C69.8578 29.917 70.1621 28.8821 70.1621 27.9082C70.1621 26.995 69.736 26.0819 68.8838 25.2905Z" fill="#DDDE1E"/>
<path d="M53.2995 11.2894C50.134 11.7764 47.0294 12.9939 45.0206 15.6115C43.0726 18.1073 41.2463 22.0642 42.2812 25.2297C42.3421 25.4732 42.7073 25.2297 42.7682 25.047C42.8899 21.8816 43.6204 19.1422 45.3249 16.4028C47.0903 13.6635 50.3167 12.1416 53.2995 11.3502C53.3604 11.3502 53.3604 11.2894 53.2995 11.2894Z" fill="white"/>
<path d="M43.0727 26.9341C43.0118 26.6906 42.9509 26.508 42.7683 26.3254C42.5857 26.2036 42.3422 26.3862 42.4031 26.5689C42.464 26.9341 42.4031 27.8472 42.951 27.9081C43.1336 27.9081 43.2553 27.7864 43.2553 27.6646C43.3162 27.3602 43.1336 27.1776 43.0727 26.9341Z" fill="white"/>
</svg>
