<svg width="105" height="89" viewBox="0 0 105 89" fill="none" xmlns="http://www.w3.org/2000/svg">
<path d="M93.1357 27.3066C91.2813 27.0688 89.4269 27.259 87.7627 27.7821C87.7627 16.2753 79.7746 5.95722 68.3153 3.1994C63.0374 1.91558 57.712 1.20235 52.2914 1.01215C40.2616 0.631765 29.7534 8.47729 26.6151 19.6988C25.1411 18.7478 23.3818 18.0821 21.5274 17.7968C14.8231 16.8934 8.64175 21.6483 7.73832 28.3526C6.8349 35.057 11.5898 41.2383 18.2941 42.1418C21.7176 42.6172 24.9985 41.5712 27.5186 39.6217C29.373 43.4731 32.6063 46.5638 36.6479 48.1804C36.1249 49.1314 35.8396 50.1775 35.8396 51.2236C35.8396 57.2622 44.9689 62.1598 56.1904 62.1598C67.4119 62.1598 76.5413 57.2622 76.5413 51.2236C76.5413 51.0809 76.5413 50.8907 76.5413 50.7481C78.4432 49.7495 80.2025 48.3706 81.629 46.7064C83.5309 49.3216 86.4789 51.1285 89.9024 51.6039C96.6068 52.5074 102.788 47.7525 103.692 41.0481C104.595 34.3913 99.8401 28.21 93.1357 27.3066Z" fill="#C9ADB5"/>
<path d="M69.3613 53.9814C68.7907 53.9814 68.2677 53.5059 68.2201 52.9353C68.1726 52.3172 68.6481 51.7941 69.2662 51.7466C73.7358 51.4613 77.825 49.4167 80.773 46.0407C81.0107 45.803 81.3436 45.6603 81.6764 45.6603C82.0093 45.6603 82.3421 45.8505 82.5323 46.1358C84.3391 48.6084 87.0019 50.1775 90.045 50.5579C96.1312 51.3662 101.742 47.0868 102.55 40.953C102.931 38.005 102.17 35.057 100.363 32.7271C98.5562 30.3497 95.941 28.8281 92.993 28.4477C91.3288 28.21 89.7122 28.3526 88.0955 28.8757C87.7627 28.9708 87.3823 28.9232 87.097 28.733C86.8117 28.5428 86.6215 28.1624 86.6215 27.8296C86.6215 22.5041 84.7671 17.2262 81.4387 12.9469C78.0627 8.66748 73.3079 5.62436 68.03 4.34054C62.8472 3.10428 57.5217 2.39105 52.2438 2.20085C46.7281 2.01066 41.2125 3.72241 36.7905 6.95572C32.3685 10.189 29.1351 14.8488 27.7087 20.0316C27.6136 20.3644 27.3758 20.6497 26.9955 20.7924C26.6626 20.935 26.2822 20.8875 25.9969 20.6973C24.618 19.7939 23.0489 19.2233 21.3847 18.9855C15.2985 18.1772 9.68773 22.4566 8.8794 28.5904C8.07108 34.6766 12.3505 40.2873 18.4842 41.0957C21.4798 41.4761 24.4754 40.6677 26.8528 38.8133C27.1381 38.6231 27.4709 38.528 27.8038 38.5756C28.1366 38.6707 28.4219 38.8609 28.5646 39.1937C30.4665 43.1403 33.7949 46.0883 37.8841 47.5147C38.4547 47.7049 38.7875 48.3706 38.5973 48.9412C38.4071 49.5118 37.7414 49.8446 37.1709 49.6544C32.939 48.1804 29.4204 45.2324 27.1856 41.3334C24.5229 43.0452 21.3847 43.7584 18.1989 43.3305C10.8764 42.3795 5.69364 35.6276 6.69216 28.3051C7.64314 20.9826 14.395 15.7998 21.7175 16.7983C23.2391 16.9885 24.6656 17.464 25.9969 18.1297C27.7562 12.9944 31.0846 8.42972 35.5067 5.19641C40.3566 1.63026 46.3478 -0.176584 52.3864 0.0136111C57.8545 0.203806 63.3226 0.917039 68.6481 2.20085C74.4015 3.57976 79.6318 6.95571 83.2931 11.6155C86.669 15.8949 88.6185 21.0777 88.9038 26.4507C90.3778 26.1654 91.8518 26.1178 93.3259 26.308C96.892 26.7835 100.03 28.5904 102.217 31.4433C104.405 34.2962 105.356 37.8148 104.88 41.3334C103.977 48.0853 98.2234 52.9828 91.6141 52.9828C91.0435 52.9828 90.4254 52.9353 89.8548 52.8877C86.669 52.4598 83.8161 50.9382 81.6764 48.6084C78.4431 51.8417 74.1637 53.7912 69.5515 54.0765C69.4089 53.9814 69.4089 53.9814 69.3613 53.9814Z" fill="#AB8D96"/>
<path d="M65.2722 49.2741C57.4742 49.702 49.8664 48.6559 42.4488 46.231C37.8842 44.7094 34.6033 40.9055 34.0327 36.4359C33.7474 34.106 33.6999 31.8237 33.9376 29.5889C34.9361 20.7924 43.1145 14.3733 52.6718 14.7537C56.5232 14.8964 60.3747 15.4194 64.131 16.3228C73.1177 18.415 79.1564 26.4983 78.0628 34.9619C77.7775 37.2443 77.1594 39.5266 76.2559 41.7614C74.5442 46.0883 70.2648 49.0363 65.2722 49.2741Z" fill="#F5E9C1"/>
<path d="M96.1015 40.2034C96.4459 37.7592 94.7435 35.4985 92.2992 35.1542C89.855 34.8098 87.5943 36.5121 87.25 38.9564C86.9056 41.4007 88.6079 43.6614 91.0522 44.0057C93.4965 44.3501 95.7572 42.6477 96.1015 40.2034Z" fill="#AB8D96"/>
<path d="M44.0178 32.2041C43.8752 33.4404 42.734 34.2487 41.4977 34.106C40.2615 33.9634 39.4056 32.8222 39.5482 31.5859C39.6909 30.3497 40.832 29.5414 42.0683 29.684C43.3046 29.8742 44.208 31.0154 44.0178 32.2041Z" fill="#5F5C5D"/>
<path d="M59.3762 38.3379C59.0434 38.3379 58.7105 38.2903 58.3302 38.2428C57.712 38.1001 57.3316 37.5296 57.4743 36.9114C57.6169 36.2933 58.1875 35.9129 58.8056 36.0556C60.4698 36.3884 61.4208 35.057 61.4208 35.0095C61.7537 34.4864 62.4669 34.3438 62.9899 34.7242C63.513 35.057 63.6556 35.7703 63.2752 36.2933C63.2277 36.3884 61.8012 38.3379 59.3762 38.3379Z" fill="#5F5C5D"/>
<path d="M58.5677 37.1015C55.4295 38.8608 47.9168 38.3378 47.8217 34.0109C47.7266 29.6839 53.5751 29.8741 54.3359 33.2976C55.0491 36.7211 58.5677 37.1015 58.5677 37.1015Z" fill="#E27FA3"/>
<path d="M54.1933 39.1937C52.434 39.1937 50.6271 38.8609 49.2006 38.0526C47.584 37.1492 46.7281 35.7227 46.6806 34.0585C46.633 32.109 47.7266 29.9693 50.3418 29.684C53.0996 29.3512 55.0016 31.2056 55.4295 33.1075C56.0001 35.6751 58.6153 36.008 58.7104 36.0555C59.1859 36.1031 59.5663 36.4835 59.6614 36.959C59.7564 37.4344 59.5187 37.9099 59.0908 38.1477C57.9021 38.7658 56.0952 39.1937 54.1933 39.1937ZM50.9124 31.9188C50.8173 31.9188 50.7222 31.9188 50.6271 31.9188C50.009 32.0139 48.9153 32.3467 48.9629 34.0109C48.9629 34.8668 49.4384 35.5325 50.3418 36.0555C51.6732 36.8163 53.5751 37.0541 55.2869 36.8639C54.3834 36.1506 53.5751 35.1046 53.2423 33.5355C52.957 32.4894 51.9109 31.9188 50.9124 31.9188Z" fill="#DD528B"/>
<path d="M74.877 38.2903C74.7344 38.2903 74.6393 38.2903 74.4966 38.2428C74.4491 38.2428 70.5976 36.8163 67.507 36.4835C67.0315 36.436 66.6511 36.1031 66.556 35.6276C66.4609 35.1521 66.6035 34.6766 66.9839 34.4389C67.1266 34.3438 70.4074 32.0139 73.403 31.586C74.0211 31.4909 74.5917 31.9188 74.6868 32.537C74.7819 33.1551 74.354 33.7257 73.7358 33.8208C72.7849 33.9634 71.7388 34.3438 70.8354 34.7718C73.1653 35.3423 75.1623 36.0556 75.2574 36.1031C75.828 36.2933 76.1608 36.959 75.9231 37.5296C75.7329 38.0051 75.305 38.2903 74.877 38.2903Z" fill="#5F5C5D"/>
<path d="M35.364 24.9766C32.5111 21.8384 26.0921 21.1251 20.1009 26.0702C14.2524 30.6824 8.83189 40.9529 10.8765 52.6024C12.4456 64.3469 20.7191 72.4302 27.7087 75.0453C34.9361 77.9458 40.8321 75.3306 42.5914 71.4792C46.3002 63.2533 37.3611 59.4018 35.792 48.7509C34.0802 38.1 41.4027 31.7285 35.364 24.9766Z" fill="#FFFFA1"/>
<path d="M35.8396 70.0051C35.6969 70.0051 35.5067 69.9576 35.3641 69.91C35.2214 69.8149 31.37 68.0081 27.3759 64.3469C22.0029 59.4493 18.9598 53.6009 18.5319 47.4195C17.9137 39.0034 21.9554 32.9172 25.474 29.3035C25.9019 28.8755 26.6151 28.828 27.0906 29.2559C27.5185 29.6839 27.5661 30.3971 27.1382 30.8726C23.9524 34.1534 20.2912 39.6215 20.8617 47.2293C21.2421 52.8876 23.9999 58.0704 28.945 62.6351C32.7014 66.0586 36.4102 67.8179 36.4102 67.8655C36.9807 68.1508 37.2185 68.8164 36.9332 69.387C36.6479 69.7674 36.2675 70.0051 35.8396 70.0051Z" fill="#FFE4A9"/>
<path d="M30.0387 45.5652C30.0387 46.7063 30.847 47.6573 31.8455 47.6573C32.8441 47.6573 33.6524 46.7063 33.6524 45.5652C33.6524 44.424 32.8441 43.473 31.8455 43.473C30.847 43.5206 30.0387 44.424 30.0387 45.5652Z" fill="#5F5C5D"/>
<path d="M17.5808 45.5652C17.5808 46.7063 18.3891 47.6573 19.3877 47.6573C20.3862 47.6573 21.1945 46.7063 21.1945 45.5652C21.1945 44.424 20.3862 43.473 19.3877 43.473C18.3891 43.5206 17.5808 44.424 17.5808 45.5652Z" fill="#5F5C5D"/>
<path d="M33.6999 77.4228C31.893 77.4228 29.7533 77.09 27.3283 76.139C20.0058 73.3812 11.3995 64.9175 9.78288 52.7926C7.64319 40.7628 13.3015 30.0643 19.4353 25.2144C23.1916 22.1237 26.6627 21.4105 28.945 21.4105C31.893 21.3629 34.5557 22.409 36.2675 24.2634C40.1189 28.5428 39.0729 32.8222 37.9317 37.3393C37.1234 40.5726 36.2199 44.2814 36.9332 48.6083C37.5989 52.9828 39.5484 56.2161 41.3077 59.0215C43.7326 62.968 46.015 66.7244 43.6851 71.9547C42.639 74.2371 40.4042 76.0439 37.5989 76.8998C36.5528 77.1851 35.269 77.4228 33.6999 77.4228ZM29.1827 23.6453C26.6151 23.6453 23.6671 24.6438 20.8617 26.9737C15.2034 31.3957 10.0682 41.2858 12.0177 52.4122V52.4598C13.4917 63.6813 21.4323 71.4792 28.1367 73.9993C33.1293 75.9964 39.5484 75.4258 41.5454 71.0038C43.3998 66.867 41.688 64.0616 39.3106 60.1627C37.4562 57.1195 35.3641 53.696 34.6508 48.8936C33.8901 44.1388 34.841 40.1922 35.6969 36.7687C36.7905 32.3467 37.5513 29.1609 34.5557 25.7374C33.3195 24.4061 31.4175 23.6453 29.1827 23.6453Z" fill="#F9CB71"/>
<path d="M33.2243 30.7776C31.7979 30.8252 30.419 30.2546 29.4204 29.161C28.517 28.1625 28.0415 26.7835 28.1842 25.4522C28.2793 24.1208 28.9449 22.837 30.0386 21.9811L35.1738 17.8919C36.4101 16.8934 38.1218 16.7983 39.5008 17.6066C40.3566 18.1297 40.9748 18.938 41.2125 19.9365C41.4502 20.935 41.3076 21.9336 40.7846 22.7894L37.3611 28.4002C36.5527 29.7316 35.1738 30.5874 33.6047 30.7301C33.4621 30.7301 33.3194 30.7776 33.2243 30.7776Z" fill="#5F5C5D"/>
<path d="M28.1842 48.5133C28.0891 50.225 26.8528 51.5088 25.4739 51.4613C24.0474 51.3662 23.0014 49.9397 23.0965 48.228C23.1916 46.5162 24.3327 46.1358 25.7592 46.1834C27.1856 46.2785 28.2793 46.8015 28.1842 48.5133Z" fill="#E27FA3"/>
<path d="M25.6165 52.5549C25.569 52.5549 25.5214 52.5549 25.4263 52.5549C24.4278 52.5073 23.4768 51.9843 22.8112 51.0809C22.193 50.2725 21.9077 49.2265 21.9553 48.1328C22.0504 46.6588 22.7161 45.9456 23.3342 45.5652C23.9999 45.1373 24.8082 44.9946 25.8067 45.0422C26.8528 45.0897 27.6136 45.375 28.2317 45.8505C28.7548 46.2784 29.3729 47.0868 29.3253 48.5608C29.2778 49.6544 28.8499 50.6529 28.1842 51.4137C27.4709 52.1745 26.5675 52.5549 25.6165 52.5549ZM25.4739 47.3245C24.9509 47.3245 24.7131 47.4196 24.5705 47.5147C24.4754 47.5623 24.2852 47.7049 24.2376 48.323C24.1901 48.8936 24.3327 49.4167 24.6656 49.7971C24.8082 49.9872 25.0935 50.3201 25.569 50.3201C26.0445 50.3201 26.3773 50.0348 26.52 49.8921C26.8528 49.5118 27.043 48.9887 27.0905 48.4657C27.1381 47.8475 26.9479 47.7049 26.8528 47.6574C26.7102 47.5623 26.3773 47.3721 25.7116 47.3721C25.6165 47.3245 25.5214 47.3245 25.4739 47.3245Z" fill="#5F5C5D"/>
<path d="M96.1787 86.885H1.12891L12.1127 59.0215H85.195L96.1787 86.885Z" fill="#A3D676"/>
<path d="M96.1788 88.0262H1.12901C0.748622 88.0262 0.415781 87.836 0.178038 87.5507C-0.012157 87.2179 -0.0597051 86.8375 0.0829409 86.5047L11.0667 58.6887C11.2569 58.2608 11.6373 57.9755 12.1128 57.9755H85.1951C85.6706 57.9755 86.0985 58.2608 86.2411 58.6887L97.2249 86.5047C97.3675 86.8375 97.32 87.2655 97.1298 87.5507C96.892 87.836 96.5592 88.0262 96.1788 88.0262ZM2.79321 85.7439H94.5146L84.3867 60.1627H12.8735L2.79321 85.7439Z" fill="#87B758"/>
<path d="M48.2972 54.124C45.5394 55.3602 43.685 57.3573 44.9688 60.1626C46.2051 62.9205 49.4859 64.1567 52.2913 62.9205C55.0491 61.6842 56.2854 58.4033 55.0491 55.598C53.7653 52.8401 51.0551 52.8877 48.2972 54.124Z" fill="#C9ADB5"/>
<path d="M50.009 64.5371C47.489 64.5371 45.064 63.0631 43.9228 60.6382C43.162 58.9739 43.2571 57.3573 44.1606 55.9784C44.8738 54.8372 46.1101 53.8862 47.8218 53.1255C49.5336 52.3647 51.0551 52.0794 52.3865 52.2696C54.0507 52.5073 55.2869 53.5059 56.0477 55.1701C57.5693 58.4985 56.0477 62.445 52.7193 63.9666C51.8159 64.3469 50.9125 64.5371 50.009 64.5371ZM51.5782 54.4568C50.7698 54.4568 49.8189 54.6946 48.7728 55.1701C47.489 55.7406 46.538 56.4539 46.0625 57.2147C45.587 57.9754 45.5395 58.7838 45.9674 59.7347C46.9659 61.922 49.5811 62.9205 51.7683 61.922C53.9556 60.9235 54.9541 58.3083 53.9556 56.121C53.5276 55.1701 52.9095 54.647 52.0061 54.5044C51.911 54.4568 51.7208 54.4568 51.5782 54.4568Z" fill="#AB8D96"/>
<path d="M67.3168 62.6827L52.1487 64.7273L50.5796 58.8788L40.642 47.9426L45.7297 65.5832L57.1889 83.2237L85.5279 77.1851L67.3168 62.6827Z" fill="white"/>
<path d="M57.1889 84.365C56.8085 84.365 56.4756 84.1749 56.2379 83.842L44.7787 66.2015C44.6836 66.1064 44.636 65.9637 44.636 65.8686L39.5483 48.2756C39.4057 47.7526 39.6434 47.2295 40.0713 46.9918C40.5468 46.7541 41.1174 46.8492 41.4503 47.2295L51.3879 58.1657C51.5306 58.3084 51.5781 58.451 51.6257 58.6412L52.957 63.5387L67.1265 61.6368C67.4118 61.5892 67.7447 61.6843 67.9824 61.8745L86.1936 76.3769C86.5264 76.6622 86.669 77.0901 86.574 77.518C86.4789 77.946 86.146 78.2788 85.7181 78.3739L57.3791 84.4126C57.3315 84.3651 57.2364 84.365 57.1889 84.365ZM53.5752 65.6784L57.9972 81.9401L82.9603 76.6146L66.9839 63.8716L53.5752 65.6784ZM46.7757 65.1078L54.1933 76.5671L49.5335 59.402L43.0669 52.2697L46.7757 65.1078Z" fill="#E2E2E2"/>
<path d="M71.1682 63.9665C71.1682 63.9665 67.7923 70.5758 64.8443 69.0067C61.8962 67.4376 65.5575 60.9709 65.5575 60.9709L71.1682 63.9665Z" fill="#E27FA3"/>
<path d="M65.7953 70.338C65.2722 70.338 64.7492 70.1954 64.2737 69.9576C63.5129 69.5297 62.9424 68.864 62.7046 67.9606C61.8963 65.1552 64.2737 60.8283 64.559 60.3528L66.5085 61.494C65.6526 63.0155 64.4639 65.916 64.8443 67.3424C64.9394 67.6277 65.0821 67.8179 65.3198 67.9606C65.5575 68.1032 65.7953 68.1032 66.0806 68.0081C67.507 67.5802 69.3139 64.965 70.0747 63.3959L72.0717 64.442C71.834 64.9175 69.5516 69.2919 66.7463 70.1478C66.5085 70.2905 66.1281 70.338 65.7953 70.338Z" fill="#DD528B"/>
<path d="M75.4 61.3037C73.5456 64.2517 71.1206 65.9159 67.4594 63.9188C63.7982 61.9218 63.8457 58.9738 65.2722 55.8356" fill="white"/>
<path d="M70.455 65.9635C69.3138 65.9635 68.1726 65.6307 66.8888 64.965C63.1325 62.968 62.229 59.7346 64.2261 55.4077L66.2707 56.3587C64.7967 59.592 65.3197 61.589 67.9349 63.0155C70.5976 64.442 72.4995 63.7763 74.4015 60.7807L76.3034 61.9694C74.6868 64.6322 72.6897 65.9635 70.455 65.9635Z" fill="#E2E2E2"/>
<path d="M83.1506 55.8957C85.8812 50.8342 84.1603 44.6085 79.3068 41.9901C74.4533 39.3717 68.3052 41.3523 65.5747 46.4137C62.8441 51.4752 64.565 57.701 69.4185 60.3194C74.272 62.9377 80.4201 60.9572 83.1506 55.8957Z" fill="#FFBE8D"/>
<path d="M75.0673 63.1583C73.1653 63.1583 71.0732 62.5401 68.8384 61.3514C65.2722 59.4019 63.1801 56.977 62.6571 54.0765C62.2291 51.6991 62.8472 48.9888 64.5115 45.8981C66.1757 42.8074 68.0776 40.8104 70.3124 39.8594C73.0227 38.7183 76.2084 39.0987 79.7746 41.0006C83.3407 42.9501 85.4329 45.3751 85.9559 48.2755C86.3838 50.653 85.7657 53.3633 84.1015 56.4539C82.4373 59.5446 80.5354 61.5416 78.3006 62.4926C77.302 62.9205 76.2084 63.1583 75.0673 63.1583ZM69.932 59.3544C72.9276 60.971 75.3525 61.3039 77.4447 60.4005C79.204 59.6397 80.7256 58.023 82.152 55.3603C83.5785 52.6976 84.1015 50.5103 83.7687 48.6559C83.3883 46.4212 81.7241 44.5668 78.7761 42.9501C75.7805 41.3334 73.3555 41.0006 71.2634 41.904C69.5041 42.6648 67.9825 44.2815 66.556 46.9442C65.1296 49.6069 64.6066 51.7942 64.9394 53.6486C65.3198 55.8833 66.9364 57.7377 69.932 59.3544Z" fill="#EA9C71"/>
<path d="M80.25 49.702C80.1549 49.702 80.0598 49.702 79.9647 49.6544C75.5427 48.5608 72.7848 45.8505 72.6897 45.7079C72.2618 45.2799 72.2618 44.5667 72.6897 44.0912C73.1177 43.6633 73.8309 43.6633 74.3064 44.0912C74.3539 44.1388 76.7314 46.4687 80.5353 47.4196C81.1534 47.5623 81.4862 48.1804 81.3436 48.7985C81.2009 49.3216 80.773 49.702 80.25 49.702Z" fill="#EA9C71"/>
<path d="M85.0524 58.4509C86.2412 55.6455 86.1936 52.9353 83.3882 51.7465C80.5829 50.5578 77.3496 51.8892 76.1608 54.6945C74.9721 57.4999 76.3035 60.7332 79.1089 61.922C81.9142 63.1107 83.8637 61.2563 85.0524 58.4509Z" fill="#C9ADB5"/>
<path d="M80.773 63.4435C80.1073 63.4435 79.3941 63.3009 78.6809 63.0156C75.3049 61.5891 73.6883 57.6901 75.1147 54.3142C75.7804 52.6975 77.0642 51.4137 78.7284 50.748C80.3926 50.0824 82.1995 50.0824 83.8161 50.748C85.4803 51.4613 86.5264 52.6975 86.8117 54.3142C87.0494 55.6456 86.8117 57.1671 86.0985 58.9264C85.3852 60.6382 84.4343 61.922 83.3406 62.6828C82.5323 63.1582 81.6764 63.4435 80.773 63.4435ZM81.2485 52.4598C80.6779 52.4598 80.1073 52.5549 79.5843 52.7926C78.4907 53.2206 77.6348 54.0764 77.2069 55.1701C76.2559 57.4048 77.3495 59.9725 79.5367 60.9235C80.2024 61.2087 82.2946 62.0646 84.0063 58.023C84.5294 56.7392 84.7671 55.5505 84.5769 54.6946C84.4343 53.7912 83.9112 53.2206 82.9127 52.7926C82.3897 52.6024 81.8191 52.4598 81.2485 52.4598Z" fill="#AB8D96"/>
<path d="M19.15 64.2994H33.795L35.9347 77.7082H16.4397L19.15 64.2994Z" fill="white"/>
<path d="M35.9346 78.8018H16.4397C16.1068 78.8018 15.774 78.6591 15.5838 78.3738C15.346 78.0886 15.2985 77.7557 15.346 77.4229L18.0088 64.0141C18.1039 63.4911 18.5793 63.1107 19.1024 63.1107H33.7474C34.318 63.1107 34.7934 63.4911 34.841 64.0617L36.9807 77.4704C37.0282 77.8032 36.9331 78.1361 36.7429 78.3738C36.6003 78.6591 36.2675 78.8018 35.9346 78.8018ZM17.8186 76.567H34.6033L32.844 65.4406H20.0534L17.8186 76.567Z" fill="#E2E2E2"/>
<path d="M10.8765 52.6025C12.0652 60.0201 24.9509 72.2401 28.1366 64.2995C29.8484 60.0677 21.2896 58.2133 19.1024 53.3158L10.8765 52.6025Z" fill="#FFFFA1"/>
<path d="M24.7132 68.0083C24.4754 68.0083 24.2852 68.0083 24.0475 67.9607C18.2465 67.2951 10.7339 58.4985 9.78288 52.7452C9.68779 52.127 10.1157 51.5564 10.7339 51.4613C11.352 51.3663 11.9226 51.7942 12.0177 52.4123C12.8735 57.6427 19.8632 65.2029 24.2852 65.726C25.6641 65.8686 26.5676 65.298 27.1381 63.8716C27.6612 62.5402 26.7578 61.5892 23.6195 59.3544C21.5274 57.8804 19.1975 56.1687 18.1039 53.7437C17.8662 53.1731 18.1039 52.5074 18.6745 52.2697C19.2451 52.0319 19.9108 52.2697 20.1485 52.8403C21.0044 54.6947 23.0014 56.1211 24.9034 57.5476C27.5185 59.402 30.4666 61.5417 29.1827 64.7274C28.3269 66.8671 26.7578 68.0083 24.7132 68.0083Z" fill="#F9CB71"/>
</svg>
