<svg width="131" height="108" viewBox="0 0 131 108" fill="none" xmlns="http://www.w3.org/2000/svg">
<path d="M129.308 34.5432C127.587 25.6611 118.921 19.7989 109.958 21.5753C107.465 22.049 105.209 23.0557 103.31 24.4768C98.3833 9.85092 83.7815 0.199013 68.052 1.56094C60.8105 2.2123 53.6877 3.57422 46.6837 5.64672C31.251 10.2654 21.1603 24.7137 21.9913 40.3462C19.6764 39.7541 17.1834 39.6357 14.6905 40.1094C5.84634 41.8266 0.0293915 50.4718 1.75073 59.354C3.47207 68.2361 12.1381 74.0983 21.101 72.3219C25.6714 71.4337 29.4109 68.769 31.7258 65.157C34.5749 68.0585 38.1363 70.131 41.9945 71.256C41.2229 73.0917 40.748 74.9865 40.748 76.9998C40.748 87.5991 52.738 96.2444 67.5772 96.2444C82.4163 96.2444 94.4064 87.6583 94.4064 76.9998C94.4064 72.3811 92.1508 68.1769 88.4113 64.8609C89.1236 64.5648 89.8953 64.2687 90.6075 63.9727C96.6026 61.4857 101.232 56.8078 103.607 51.064C107.168 53.551 111.62 54.6168 116.25 53.7286C125.212 52.0706 131.029 43.4846 129.308 34.5432Z" fill="#C9ADB5"/>
<path d="M17.8957 74.0983C14.3937 74.0983 10.951 73.0325 7.92383 71.0784C3.94693 68.4138 1.27589 64.3872 0.385538 59.7093C-1.51387 50.0574 4.83728 40.6423 14.5124 38.8067C16.5305 38.3922 18.608 38.3922 20.6261 38.6883C20.6261 31.4049 22.941 24.1808 27.1554 18.1409C31.7852 11.5089 38.6112 6.59417 46.3275 4.28481C53.3316 2.15311 60.6325 0.791179 67.9333 0.139823C75.8278 -0.570747 83.8409 1.44253 90.5482 5.82438C96.6619 9.79173 101.41 15.5947 104.082 22.2859C105.803 21.2793 107.702 20.5687 109.72 20.1542C114.41 19.266 119.158 20.2134 123.135 22.8781C127.112 25.5427 129.783 29.5693 130.673 34.2472C131.564 38.9251 130.614 43.6622 127.943 47.6296C125.272 51.5969 121.236 54.2616 116.546 55.1498C112.273 55.9788 107.999 55.2682 104.26 53.1365C101.529 58.6434 96.8994 62.9661 91.2011 65.3346C90.4889 65.6307 89.6579 65.2754 89.3611 64.5648C89.0643 63.8543 89.4204 63.0253 90.1327 62.7292C95.7122 60.4198 100.045 56.0972 102.36 50.5311C102.538 50.1166 102.835 49.8205 103.251 49.7021C103.666 49.5837 104.082 49.6429 104.438 49.8797C107.821 52.2483 111.917 53.1365 115.953 52.3075C119.93 51.5377 123.313 49.2876 125.569 45.9716C127.824 42.6556 128.655 38.629 127.883 34.7209C127.112 30.7535 124.856 27.3783 121.532 25.1282C118.208 22.8781 114.172 22.0491 110.255 22.8189C108.058 23.2334 105.981 24.1216 104.2 25.4835C103.844 25.7796 103.369 25.8388 102.954 25.7203C102.538 25.6019 102.182 25.2466 102.063 24.8321C99.7485 18.0225 95.178 12.1011 89.0643 8.13374C82.8912 4.16639 75.4716 2.33075 68.1708 2.9821C61.048 3.57424 53.9845 4.93617 47.0992 7.00867C39.9764 9.14038 33.6846 13.6407 29.4109 19.6805C25.1966 25.6611 23.0598 33.0037 23.4159 40.2278C23.4159 40.7015 23.2378 41.116 22.8817 41.4121C22.5255 41.7082 22.0507 41.8266 21.6352 41.7082C19.439 41.116 17.1835 41.0568 14.9873 41.5305C6.85541 43.0701 1.51331 50.9456 3.11594 59.1171C3.88758 63.0845 6.14313 66.4597 9.4671 68.7098C12.7911 70.96 16.8273 71.789 20.7449 71.0192C24.7811 70.2494 28.2238 67.94 30.4793 64.5056C30.7168 64.1503 31.0729 63.9135 31.5477 63.8543C31.9632 63.7951 32.3787 63.9727 32.6755 64.2688C36.8305 68.473 42.3507 70.8415 48.1676 70.9008C48.9392 70.9008 49.5922 71.5521 49.5328 72.3219C49.5328 73.0917 48.8799 73.6838 48.1082 73.6838C42.0539 73.6246 36.3556 71.3745 31.8445 67.3479C29.1735 70.6639 25.4934 72.914 21.2791 73.743C20.2106 73.9799 19.0235 74.0983 17.8957 74.0983Z" fill="#AB8D96"/>
<path d="M81.9415 51.2416C72.207 55.0906 62.1164 57.0446 51.6103 57.1038C45.1998 57.1038 39.3828 53.6694 36.7118 48.2809C35.3466 45.4386 34.3375 42.5372 33.6846 39.5764C31.1916 27.9705 38.8486 16.3645 51.1948 12.7524C56.1807 11.2721 61.2854 10.3246 66.4494 9.85093C78.7362 8.66665 89.9546 16.3053 92.1508 27.6152C92.7444 30.6943 92.9225 33.7735 92.7444 36.971C92.3882 43.1885 88.1739 48.7546 81.9415 51.2416Z" fill="#F5E9C1"/>
<path d="M119.277 36.6157C118.624 33.3589 115.478 31.2865 112.273 31.8786C109.008 32.5299 106.931 35.6683 107.524 38.8659C108.177 42.1226 111.323 44.1951 114.528 43.603C117.793 43.0109 119.93 39.8725 119.277 36.6157Z" fill="#AB8D96"/>
<path d="M40.0951 33.1814C39.4422 33.1814 38.8486 32.7076 38.7299 32.0563C38.4925 30.9312 38.7299 29.7469 39.4422 28.7403C40.0951 27.7929 41.1042 27.1415 42.2913 26.9046C43.4784 26.6678 44.6062 26.9046 45.6153 27.556C46.6243 28.2074 47.2773 29.214 47.5147 30.3391C47.6928 31.1089 47.1585 31.8194 46.3869 31.9971C45.6153 32.1747 44.903 31.6418 44.7249 30.872C44.6656 30.4575 44.4281 30.1022 44.072 29.8654C43.7159 29.6285 43.3004 29.5693 42.8255 29.6285C42.41 29.6877 42.0539 29.9246 41.7571 30.2799C41.5197 30.6351 41.4603 31.0496 41.5197 31.4641C41.6977 32.2339 41.1635 32.9445 40.3919 33.1221C40.2732 33.1814 40.2138 33.1814 40.0951 33.1814Z" fill="#5F5C5D"/>
<path d="M77.4304 25.9572C76.7775 25.9572 76.1839 25.4835 76.0652 24.8322C75.5904 22.4636 77.193 20.1542 79.5673 19.6805C80.7544 19.4437 81.8822 19.6805 82.8912 20.3319C83.9003 20.9832 84.5532 21.9899 84.7906 23.1149C84.9687 23.8847 84.4345 24.5953 83.6629 24.7729C82.8912 24.9506 82.1789 24.4177 82.0009 23.6479C81.9415 23.2334 81.7041 22.8781 81.3479 22.6412C80.9918 22.4044 80.5763 22.3452 80.1015 22.4044C79.2111 22.582 78.6175 23.411 78.7956 24.24C78.9737 25.0098 78.4395 25.7204 77.6678 25.898C77.6085 25.9572 77.4898 25.9572 77.4304 25.9572Z" fill="#5F5C5D"/>
<path d="M73.9877 30.1614C74.4032 32.1747 73.9877 34.4248 72.9193 36.4973C71.376 39.6949 68.4082 42.3595 65.0842 43.0109C63.3629 43.3662 61.5228 43.1293 59.7421 42.5372C58.1395 41.945 56.5962 41.0568 55.3497 39.9317C52.9755 37.8592 51.4916 34.9577 51.9664 32.1155C53.0942 25.4835 58.0208 28.9771 62.1758 28.2073C66.3307 27.3783 69.5953 22.2859 73.0974 28.0297C73.5129 28.6218 73.8096 29.3916 73.9877 30.1614Z" fill="#5F5C5D"/>
<path d="M72.9193 36.4973C71.376 39.6949 68.4082 42.3595 65.0842 43.0109C63.3629 43.3662 61.5228 43.1293 59.7421 42.5372C58.1395 41.9451 56.5962 41.0568 55.3497 39.9318C56.893 36.7342 59.8608 34.0696 63.1848 33.4182C64.9061 33.0629 66.7462 33.2998 68.5269 33.8919C70.1295 34.4249 71.6728 35.3131 72.9193 36.4973Z" fill="#E27FA3"/>
<path d="M63.4222 44.5504C60.1576 44.5504 56.5962 43.0701 53.9845 40.5239C51.3729 37.9777 50.1264 34.7801 50.6012 31.8194C51.6103 25.898 55.5872 26.3717 58.4956 26.6678C59.6828 26.7862 60.8699 26.9638 61.9383 26.727C62.9474 26.5493 64.0752 25.9572 65.0842 25.3651C67.6366 23.9439 71.198 22.0491 74.3439 27.1415C75.9465 29.6877 75.9465 33.1221 74.5219 36.4381C72.7412 40.4647 69.1798 43.5438 65.4404 44.3136C64.7281 44.4912 64.0752 44.5504 63.4222 44.5504ZM56.1214 29.3324C54.5781 29.3324 53.8065 29.9246 53.391 32.2931C53.0348 34.3656 53.9845 36.6158 55.9433 38.5106C58.4363 40.9384 61.9977 42.1819 64.8468 41.649C67.6959 41.116 70.4857 38.629 71.9102 35.4315C73.038 32.9445 73.038 30.4575 71.9102 28.7403C70.1889 25.898 69.0611 26.4901 66.3901 27.9113C65.2029 28.5626 63.8971 29.2732 62.4132 29.5693C60.9293 29.8653 59.4453 29.6877 58.1395 29.5101C57.3679 29.3916 56.6556 29.3324 56.1214 29.3324Z" fill="#5F5C5D"/>
<path d="M84.3751 39.9317C85.6216 42.241 87.521 43.3069 89.183 43.7806C88.8862 47.0966 89.1237 61.8409 80.2202 68.7098L93.2193 81.2632C99.7485 67.3479 109.958 43.8398 99.6298 34.2471C89.3017 24.7137 81.1699 34.0103 84.3751 39.9317Z" fill="#C9ADB5"/>
<path d="M100.639 33.2405C97.8491 30.6943 95.0593 29.214 92.2696 28.7995C89.7766 28.5034 87.4023 29.0955 85.5623 30.5167C82.4164 32.9444 81.4073 37.2671 83.188 40.5831C84.3751 42.7148 86.0371 44.0175 87.7585 44.7281C87.0462 51.7746 84.2564 67.6439 78.1427 71.7889C77.4898 72.2034 77.3117 73.0917 77.7272 73.743C78.024 74.1575 78.4395 74.3944 78.9143 74.3944C79.2111 74.3944 79.4485 74.3351 79.686 74.1575C83.4848 71.6113 86.512 65.6899 88.6488 56.5709C89.7172 51.893 90.3108 47.6296 90.5482 45.4386C91.676 45.5571 92.7444 45.4978 93.5161 45.3794C94.2877 45.2018 94.7625 44.4912 94.6438 43.7214C94.4658 42.9516 93.7535 42.4779 92.9819 42.5964C92.9225 42.5964 88.1146 43.5438 85.7403 39.2211C84.6126 37.1487 85.3248 34.3656 87.4023 32.7076C90.3702 30.3982 94.6438 31.3457 98.8582 35.2538C102.954 39.0435 103.903 45.9716 101.589 55.8011C99.6298 64.2095 95.7123 73.0916 92.1509 80.6711C91.7947 81.3816 92.1509 82.2106 92.8038 82.5659C92.9819 82.6843 93.2193 82.6843 93.3974 82.6843C93.9316 82.6843 94.4064 82.3883 94.7032 81.8553C98.3239 74.1575 102.301 65.0977 104.319 56.4525C106.753 45.6163 105.565 37.8 100.639 33.2405Z" fill="#AB8D96"/>
<path d="M67.5772 54.9722C68.2895 54.0839 69.1205 53.4918 69.9515 53.0773C72.9193 51.6562 75.4717 49.5837 77.193 46.8598L77.7272 46.0308C79.7453 42.8333 83.8409 41.649 87.2836 43.2478C90.7263 44.8465 92.3883 48.7547 91.2605 52.3075L90.9637 53.2549C89.9547 56.3341 90.014 59.6501 90.845 62.7884C91.0824 63.6766 91.1418 64.6833 90.9044 65.8083L90.845 65.7491C90.7857 66.0452 90.667 66.3413 90.5482 66.6373C88.7082 70.5455 82.0009 71.3153 75.531 68.2953C69.0612 65.2754 65.381 59.6501 67.2211 55.7419C67.3398 55.4459 67.5179 55.1498 67.696 54.9129L67.5772 54.9722Z" fill="#FFFFA1"/>
<path d="M83.2474 71.6705C80.5763 71.6705 77.6678 70.96 74.8781 69.7165C67.6366 66.3413 63.6597 59.9461 65.8559 55.2682C65.9746 55.0906 66.0339 54.9129 66.1527 54.6761C66.212 54.4392 66.2714 54.2616 66.4494 54.0839C67.2211 53.1365 68.1708 52.3667 69.2986 51.8338C72.1477 50.4719 74.4626 48.5178 76.0059 46.1492L76.5401 45.3202C78.9737 41.5305 83.8409 40.1686 87.8772 42.0634C91.9134 43.9583 93.9315 48.577 92.6257 52.8404L92.3289 53.7879C91.4979 56.4525 91.4386 59.4724 92.2102 62.5515C92.507 63.7358 92.5663 64.9793 92.2696 66.2228C92.2102 66.4597 92.1509 66.6373 92.0321 66.815C91.9728 67.0518 91.8541 67.2295 91.7947 67.4071C90.6669 69.7757 88.2333 71.256 84.9093 71.6705C84.3751 71.6705 83.8409 71.6705 83.2474 71.6705ZM69.0018 55.5051C68.9424 55.6235 68.8831 55.7419 68.8237 55.8603C68.6456 56.038 68.5863 56.2748 68.4676 56.4525C66.9837 59.6501 70.4857 64.5056 76.1246 67.1703C79.033 68.5322 82.0009 69.1243 84.6126 68.8282C86.9275 68.5914 88.5895 67.644 89.3017 66.1636C89.4204 65.986 89.4798 65.7491 89.5392 65.5123C89.5985 65.3938 89.5985 65.2754 89.7172 65.157C89.7766 64.5056 89.7766 63.8543 89.5985 63.2029C88.7082 59.6501 88.7675 56.038 89.7766 52.8996L90.0734 51.9522C91.0231 49.0507 89.5985 45.8532 86.8681 44.5504C84.0784 43.2477 80.7544 44.1952 79.0924 46.8006L78.5582 47.6296C76.7775 50.4126 74.0471 52.7812 70.7231 54.38C70.0108 54.6761 69.4766 55.0313 69.0018 55.5051Z" fill="#F9CB71"/>
<path d="M86.2152 63.6174C85.6216 62.1371 83.6629 59.8869 80.2795 58.2881C76.8368 56.6893 73.869 56.6893 72.3851 57.1038C71.6135 57.3407 71.198 58.1105 71.4354 58.8803C71.6728 59.6501 72.4445 60.0646 73.2161 59.8277C73.691 59.6501 75.2936 59.5316 77.4304 60.183L76.7181 61.1304C76.2433 61.7226 76.362 62.6108 77.0149 63.0845C77.2523 63.2621 77.5491 63.3805 77.8459 63.3805C78.2614 63.3805 78.6769 63.2029 78.9737 62.8476L80.1015 61.3673C82.4164 62.67 83.4254 64.1503 83.6629 64.6833C83.9003 65.2162 84.4345 65.5715 84.9687 65.5715C85.1468 65.5715 85.3248 65.5123 85.5029 65.453C86.1558 65.157 86.512 64.328 86.2152 63.6174Z" fill="#F9CB71"/>
<path d="M44.1907 72.618C47.2773 67.4664 50.0077 61.6634 47.4553 60.4199C45.3778 59.4132 42.41 61.5449 39.6796 64.2688C35.9995 53.4918 39.739 44.136 30.3606 39.0436C25.3747 36.3789 16.946 38.3922 11.6039 47.3335C6.32121 55.8012 4.12502 71.1968 12.0194 84.9345C19.3203 98.9683 33.5065 105.423 43.5378 105.541C53.9846 105.896 60.217 99.9157 60.6918 94.2312C61.4635 83.6318 51.2542 81.7962 44.1907 72.618Z" fill="#FFFFA1"/>
<path d="M50.9574 95.5931C50.898 95.5931 50.898 95.5931 50.8387 95.5931C50.6012 95.5931 44.9624 95.0009 38.2551 92.2179C29.2922 88.4874 22.763 82.5067 19.3797 74.9273C14.8092 64.6241 17.1241 55.1498 19.8545 49.0507C20.1513 48.3402 20.9823 48.0441 21.6946 48.3402C22.4069 48.6362 22.7036 49.4652 22.4069 50.1758C19.9139 55.7419 17.777 64.3872 21.932 73.743C25.0185 80.7303 30.8355 86.0596 39.2048 89.494C45.5559 92.1587 51.0167 92.6916 51.0761 92.6916C51.8477 92.7508 52.4413 93.4614 52.3226 94.2312C52.2632 95.0009 51.6697 95.5931 50.9574 95.5931Z" fill="#FFE4A9"/>
<path d="M17.3615 74.9273C16.768 74.9273 16.2338 74.572 16.0557 73.9799C15.6996 73.0325 15.7589 71.9666 16.2338 71.0784C16.6493 70.1902 17.4209 69.4796 18.3706 69.1243C19.3203 68.7691 20.3887 68.8283 21.2791 69.2428C22.2288 69.6573 22.8817 70.4271 23.2378 71.3745C23.4753 72.085 23.1191 72.914 22.4069 73.1509C21.6946 73.3878 20.8636 73.0325 20.6262 72.3219C20.5668 72.085 20.3887 71.9074 20.1513 71.789C19.9139 71.6705 19.6171 71.6705 19.3797 71.7298C19.1422 71.8482 18.9048 72.0258 18.7861 72.2627C18.6674 72.4995 18.6674 72.7364 18.7267 72.9733C18.9642 73.6838 18.608 74.5128 17.8958 74.7497C17.7177 74.8681 17.5396 74.9273 17.3615 74.9273Z" fill="#5F5C5D"/>
<path d="M53.2129 79.3092C50.8386 77.4143 48.1676 75.2826 45.8527 72.4996C50.1264 65.2162 50.067 62.4924 49.6515 61.0712C49.4141 60.183 48.8205 59.5317 48.0489 59.1172C45.9714 58.1105 43.4784 58.9395 40.3325 61.6634C39.5609 58.7619 39.2641 55.9788 39.0267 53.4326C38.3738 47.2743 37.7802 41.4714 31.0135 37.8593C28.0457 36.2605 24.2469 36.2013 20.5668 37.5632C17.7177 38.6291 13.6814 41.1161 10.3574 46.6822C4.83728 55.5643 2.58173 71.5521 10.7729 85.7043C18.3112 100.212 33.0317 106.903 43.4784 107.081C43.7752 107.081 44.072 107.081 44.3688 107.081C50.3638 107.081 54.3407 105.127 56.6556 103.409C59.8015 101.1 61.7603 97.8432 62.057 94.468C62.6506 86.8294 58.0801 83.1581 53.2129 79.3092ZM46.8024 61.6634C46.8618 61.6634 46.9211 61.7226 46.9805 61.9002C47.0992 62.374 47.2772 64.2688 44.072 70.0126C43.6565 69.4204 43.3004 68.7691 42.9442 68.1177C42.2913 66.9334 41.7571 65.8084 41.3416 64.6241C43.7752 62.2555 45.7933 61.1897 46.8024 61.6634ZM59.2673 94.2312C58.7331 100.804 50.898 104.475 43.5971 104.238C33.922 104.12 20.3294 97.8432 13.3253 84.3424C13.3253 84.3424 13.3253 84.2832 13.2659 84.2832C5.66827 71.1376 7.6864 56.3341 12.7911 48.1033C16.3525 42.1227 21.4571 39.3989 25.7308 39.3989C27.1554 39.3989 28.5206 39.6949 29.6483 40.3463C35.0498 43.2478 35.5246 47.6888 36.1776 53.7879C36.6524 58.525 37.246 63.8543 40.3919 69.5389C43.4784 75.2234 47.6927 78.5986 51.4322 81.5593C56.2401 85.349 59.7421 88.0729 59.2673 94.2312Z" fill="#F9CB71"/>
<path d="M30.2419 47.3335C28.4612 48.0441 26.4431 47.9257 24.7217 46.9782C23.1191 46.1492 21.932 44.6097 21.4571 42.8925C20.9823 41.116 21.2791 39.2804 22.2288 37.6816L26.7992 30.2206C27.927 28.4442 30.0638 27.4968 32.1413 27.9113C33.4472 28.2073 34.6343 28.9179 35.3466 30.043C36.1182 31.1681 36.3556 32.53 36.1182 33.8327L34.3969 42.4187C33.9814 44.4912 32.6162 46.2085 30.7168 47.0967C30.5387 47.2151 30.42 47.2743 30.2419 47.3335Z" fill="#5F5C5D"/>
<path d="M19.6171 79.8421C19.6171 79.8421 5.49021 70.0126 1.86945 73.9799C-1.7513 77.8288 18.0738 90.027 18.0738 90.027L19.6171 79.8421Z" fill="#FFFFA1"/>
<path d="M18.0738 91.4481C17.8364 91.4481 17.5396 91.3889 17.3615 91.2112C17.1835 91.0928 13.2659 88.7242 9.17032 85.6451C0.563618 79.1907 0.207479 76.4669 0.0294091 75.5787C-0.0893041 74.572 0.148122 73.6838 0.801045 72.9732C2.81917 70.7823 6.67735 71.1968 12.6724 74.1575C16.7086 76.1708 20.2106 78.5986 20.3887 78.6578C21.0416 79.0723 21.1604 79.9605 20.7449 80.6119C20.3294 81.2632 19.439 81.3817 18.7861 80.9672C13.2659 77.1775 4.71858 72.914 2.87853 74.8681C2.81917 74.9273 2.75981 74.9865 2.81917 75.1642C3.23466 78.0657 12.3756 84.8753 18.7861 88.7834C19.439 89.1979 19.6764 90.0861 19.2609 90.7375C19.0235 91.2112 18.5487 91.4481 18.0738 91.4481Z" fill="#F9CB71"/>
<path d="M32.8536 77.592C32.5568 78.3026 32.0226 78.8947 31.3697 79.1316C29.8264 79.7237 27.927 78.5394 27.0367 76.5261C27.0367 76.4669 26.9773 76.4669 26.9773 76.4077C26.1463 74.276 26.7992 72.0851 28.4019 71.4929C30.0045 70.9008 31.9633 72.0851 32.7349 74.2168C33.2691 75.4603 33.2097 76.6446 32.8536 77.592Z" fill="#5F5C5D"/>
<path d="M32.8536 77.592C32.5568 78.3025 32.0226 78.8947 31.3697 79.1315C29.8264 79.7237 27.927 78.5394 27.0367 76.5261C27.3334 75.8155 27.8676 75.2234 28.5206 74.9273C30.1232 74.3944 32.0226 75.5787 32.8536 77.592Z" fill="#E27FA3"/>
<path d="M30.4793 80.7303C29.7077 80.7303 28.8767 80.4935 28.1051 80.0198C27.0367 79.3684 26.1463 78.2433 25.6715 76.9406C25.1966 75.6379 25.0779 74.2168 25.434 73.0325C25.8495 71.6706 26.7399 70.6639 27.927 70.1902C29.1141 69.7165 30.4793 69.8941 31.6665 70.6639C32.7349 71.3153 33.6252 72.4403 34.1001 73.7431C34.575 75.0458 34.6937 76.4669 34.3375 77.6512C33.922 79.0131 33.0317 80.0198 31.8445 80.4935C31.429 80.6119 30.9542 80.7303 30.4793 80.7303ZM29.2922 72.7956C29.1735 72.7956 29.0548 72.7956 28.9361 72.8548C28.4612 73.0325 28.2238 73.5654 28.1644 73.8023C27.9864 74.4536 28.0457 75.2234 28.3425 75.934C28.6393 76.6445 29.1141 77.2959 29.6484 77.592C29.8858 77.7696 30.42 78.0065 30.8948 77.8288C31.3697 77.6512 31.6071 77.1183 31.6665 76.8814C31.8445 76.2301 31.7852 75.4603 31.4884 74.7497C31.1916 74.0391 30.7168 73.3878 30.1826 73.0917C29.9451 72.9141 29.6484 72.7956 29.2922 72.7956Z" fill="#5F5C5D"/>
<path d="M33.1504 69.2428C32.5568 69.2428 32.0226 68.8875 31.8445 68.2953C31.1323 66.3413 32.2007 64.1503 34.1594 63.4398C36.1182 62.7292 38.3144 63.7358 39.0267 65.6899C39.2641 66.4005 38.908 67.2295 38.1957 67.4663C37.4834 67.7032 36.6524 67.3479 36.415 66.6373C36.2369 66.1636 35.6434 65.8676 35.1092 66.0452C34.5749 66.2228 34.2782 66.815 34.5156 67.2887C34.753 67.9993 34.3969 68.8283 33.6846 69.0651C33.4472 69.1836 33.2691 69.2428 33.1504 69.2428Z" fill="#5F5C5D"/>
</svg>
