<svg width="133" height="114" viewBox="0 0 133 114" fill="none" xmlns="http://www.w3.org/2000/svg">
<path d="M122.17 95.8179C121.146 97.625 116.629 98.7695 115.123 100.456L66.9328 104.974L32.4771 102.083C27.4172 100.034 19.7068 97.9262 15.8516 95.8179C9.64716 92.5048 5.18961 89.3725 2.96083 87.1437C0.491101 84.674 -0.352228 81.2405 0.12967 77.5057C0.250144 76.6624 3.5632 76.5419 3.80415 75.6986L66.8726 71.7832L120.484 74.3734C120.966 75.3372 123.917 76.4215 124.279 77.5057C126.086 82.8669 125.604 89.6134 122.17 95.8179Z" fill="#65E2EA"/>
<path d="M123.857 36.183C122.833 37.7492 127.23 39.6166 126.026 40.9418C125.785 41.1827 125.544 41.4237 125.303 41.7249C119.821 47.2064 117.412 52.9892 117.773 59.2539C117.833 60.9405 113.858 62.6874 114.34 64.4343L66.9328 68.41L11.9362 64.1934C13.7433 62.5067 11.635 60.6394 13.9842 59.2539C15.7311 58.2299 17.6587 57.3865 19.767 56.6637C29.9471 53.1699 27.4774 47.8088 23.6222 41.002C22.5981 39.2551 27.2364 36.9661 26.2726 34.9783L66.993 31.8459L123.857 36.183Z" fill="#FFFFA1"/>
<path d="M128.676 24.6175L70.3061 26.6053L20.8513 25.0392C20.8513 24.2561 17.5383 23.4128 17.6587 22.7501C20.0682 12.6905 38.7418 7.02822 60.0055 6.1849C63.9812 6.00418 86.6906 6.24513 106.629 8.71486C123.676 10.8232 130.784 16.4252 132.531 22.7501C132.712 23.232 128.616 24.0151 128.676 24.6175Z" fill="#FF80A7"/>
<path d="M122.17 95.818C121.146 97.6252 119.942 99.372 118.436 100.998C112.111 107.865 101.027 113.046 83.7992 113.046C63.1981 113.046 44.0427 107.986 29.3448 102.022C24.2848 99.9744 19.767 97.8661 15.9119 95.7578H122.17V95.818Z" fill="#A484D8"/>
<path d="M124.399 77.5058H0.189941C0.310416 76.6625 0.491124 75.8192 0.732073 74.9758C1.81634 71.1809 4.28608 67.2052 7.84008 63.8319C9.6472 62.1453 11.6953 60.5791 14.0445 59.2539H117.833C117.894 60.9405 118.195 62.6874 118.677 64.4343C119.52 67.5064 120.905 70.7592 122.893 74.0723C122.953 74.1927 123.074 74.3735 123.134 74.4939C123.616 75.4577 124.038 76.4215 124.399 77.5058Z" fill="#86FFBB"/>
<path d="M129.459 36.6047C128.435 38.1709 127.29 39.6165 126.086 40.9418H23.6222C22.5981 39.1949 21.5138 37.3275 20.5501 35.3397C19.0441 32.3881 17.8394 29.2557 17.478 25.9427C17.4177 25.5813 17.4177 25.2198 17.4177 24.8584C17.4177 24.0753 17.5382 23.3525 17.6587 22.6296H132.531C132.712 23.232 132.832 23.8344 132.893 24.4368C133.435 28.5931 131.869 32.87 129.459 36.6047Z" fill="#FFBE8D"/>
<path d="M83.1968 9.19676C87.4737 7.20893 94.3407 9.31723 98.2562 16.9674C102.232 24.2561 103.256 37.0866 96.0876 48.0498C89.4013 59.3142 77.3538 63.9524 69.1013 63.591C60.4874 63.35 55.6082 58.1094 55.4877 53.4109C55.307 43.4115 66.1497 43.3513 72.4144 33.2314C78.7995 23.1718 74.101 13.4736 83.1968 9.19676Z" fill="#FFFFA1"/>
<path d="M63.5595 55.2181C62.7764 55.2181 62.174 54.6157 62.1138 53.8326C62.1138 53.0495 62.7162 52.3869 63.4992 52.3869C63.7402 52.3869 81.3897 51.6038 88.2568 38.2914C92.1119 30.822 90.7867 23.6537 88.9796 18.9552C88.6784 18.2324 89.0398 17.3891 89.8229 17.0879C90.5458 16.7867 91.3891 17.1481 91.6903 17.9312C93.6781 23.1718 95.1238 31.1834 90.7867 39.5564C87.5941 45.7006 81.8716 50.3991 74.2215 53.0495C68.4989 55.0373 63.8004 55.2181 63.5595 55.2181Z" fill="#FFE4A6"/>
<path d="M70.0049 65.0971C69.6435 65.0971 69.3423 65.0971 68.9809 65.0971C63.5596 64.9766 60.0658 62.9888 58.1382 61.3623C55.6082 59.254 54.1023 56.3627 54.0421 53.5315C53.9216 47.0861 57.9575 44.1947 62.1741 41.1829C65.186 39.0746 68.6195 36.6048 71.1494 32.5087C73.7396 28.4126 74.4625 24.2562 75.0649 20.642C75.9082 15.5218 76.6913 10.6426 82.5945 7.9319C85.1847 6.72715 88.3773 6.84763 91.4494 8.23309C93.7384 9.25712 97.0515 11.5461 99.5212 16.3651C103.678 24.0153 104.762 37.5084 97.2924 48.8932C90.6061 60.0974 78.6791 65.0971 70.0049 65.0971ZM83.7993 10.5221C79.2815 12.6304 78.7393 16.1844 77.896 21.1239C77.2334 25.0393 76.5106 29.4366 73.6192 34.0146C70.788 38.5927 67.1136 41.1829 63.8607 43.4719C59.7646 46.3633 56.813 48.4716 56.9335 53.411C56.9937 57.5674 61.632 61.9647 69.1616 62.1454C69.4628 62.1454 69.764 62.1454 70.0652 62.1454C77.896 62.1454 88.7387 57.6276 94.8829 47.2668C94.8829 47.2668 94.8829 47.2066 94.9432 47.2066C101.81 36.7855 100.846 24.5574 97.0515 17.5699C93.5577 11.004 87.5942 8.77522 83.7993 10.5221Z" fill="#FFE4A6"/>
<path d="M85.1244 16.3651C84.2811 16.3651 83.3775 16.1241 82.5945 15.7024C81.0885 14.9194 80.1247 13.4737 79.8838 11.787L78.8598 4.55855C78.679 3.47428 78.9802 2.45025 79.6428 1.60692C80.3054 0.763602 81.209 0.221468 82.2933 0.0407562C83.9799 -0.200193 85.6063 0.643129 86.3894 2.14906L89.8229 8.59445C90.4855 9.85943 90.6663 11.4256 90.1844 12.7508C89.7025 14.1363 88.6784 15.2808 87.3532 15.8832C86.6906 16.2446 85.9075 16.3651 85.1244 16.3651Z" fill="#5F5C5D"/>
<path d="M104.34 57.7479C102.232 57.7479 100.244 58.2298 98.4971 59.0732C96.8105 46.4233 86.5099 36.2432 73.4987 34.8578C67.5352 34.1952 61.5114 34.1952 55.5479 34.7975C42.2957 36.1228 31.8145 46.3029 30.0073 59.0732C28.2002 58.2298 26.2124 57.7479 24.1041 57.7479C16.5744 57.7479 10.4905 63.8319 10.4905 71.3616C10.4905 78.8912 16.5744 84.9752 24.1041 84.9752C27.9593 84.9752 31.3928 83.409 33.8625 80.8188C36.6334 85.0354 41.0308 88.1075 46.1509 89.1316C58.0779 91.6013 69.9447 91.6013 81.8716 89.1918C87.1123 88.1075 91.6301 85.0354 94.4612 80.7586C96.9309 83.3488 100.425 84.9149 104.28 84.9149C111.81 84.9149 117.894 78.831 117.894 71.3013C117.894 63.7717 111.87 57.7479 104.34 57.7479Z" fill="#C9ADB5"/>
<path d="M64.2824 92.505C58.1382 92.505 52.0542 91.9027 45.91 90.6377C41.0308 89.6137 36.7539 86.9632 33.6818 83.0478C30.9712 85.2766 27.6581 86.4813 24.1041 86.4813C15.7914 86.4813 9.0448 79.7347 9.0448 71.422C9.0448 63.1093 15.7914 56.3627 24.1041 56.3627C25.7305 56.3627 27.3569 56.6036 28.8629 57.1458C30.0676 51.3028 33.0795 45.8212 37.4165 41.6648C42.2355 37.0265 48.6207 34.1351 55.307 33.4123C61.391 32.8099 67.4749 32.8099 73.5589 33.4725C80.1247 34.1954 86.3894 37.0868 91.1482 41.725C95.425 45.8814 98.3766 51.3028 99.5211 57.0855C101.027 56.6036 102.593 56.3025 104.22 56.3025C112.532 56.3025 119.279 63.049 119.279 71.3618C119.279 79.6745 112.532 86.4211 104.22 86.4211C100.666 86.4211 97.2924 85.2163 94.6419 82.9876C91.5096 86.9632 87.1123 89.6739 82.1126 90.6979C76.2696 91.9027 70.2458 92.505 64.2824 92.505ZM33.9228 79.4336C33.983 79.4336 33.983 79.4336 34.0433 79.4336C34.4649 79.4938 34.8866 79.7347 35.1275 80.0962C37.778 84.1321 41.8139 86.8427 46.5124 87.8065C58.1984 90.216 70.0049 90.216 81.6909 87.8668C86.5099 86.903 90.6663 84.1321 93.377 80.0359C93.6179 79.6745 93.9793 79.4336 94.4612 79.4336C94.8829 79.3733 95.3045 79.554 95.6057 79.8552C97.955 82.2647 101.027 83.5899 104.4 83.5899C111.147 83.5899 116.568 78.1083 116.568 71.422C116.568 64.6754 111.087 59.2541 104.4 59.2541C102.593 59.2541 100.786 59.6757 99.1597 60.4588C98.7381 60.6395 98.2562 60.6395 97.8948 60.3986C97.4731 60.1576 97.2321 59.7962 97.1719 59.3143C96.3888 53.4713 93.6179 47.9897 89.3411 43.8333C85.0642 39.6167 79.4019 36.9663 73.4384 36.3639C67.5954 35.7615 61.6319 35.7013 55.7889 36.3037C43.2595 37.5687 33.2602 47.0259 31.5133 59.3745C31.4531 59.7962 31.1519 60.2179 30.7904 60.4588C30.3688 60.6998 29.8869 60.6998 29.5255 60.4588C27.8991 59.6757 26.0919 59.2541 24.2848 59.2541C17.5382 59.2541 12.1169 64.7357 12.1169 71.422C12.1169 78.1686 17.5985 83.5899 24.2848 83.5899C27.5979 83.5899 30.7302 82.2647 33.0192 79.9155C33.1999 79.6143 33.5614 79.4336 33.9228 79.4336Z" fill="#AB8D96"/>
<path d="M76.9322 78.8913C68.4387 80.5177 59.885 80.4574 51.3916 78.831C46.1509 77.807 41.9946 74.1325 40.7296 69.3135C40.067 66.7836 39.7055 64.3139 39.6453 61.7839C39.4646 51.9652 47.5364 43.7127 58.0779 42.7489C62.3548 42.3273 66.6316 42.3875 70.9084 42.8092C81.0885 43.8332 88.9194 51.7845 88.9194 61.302C88.9194 63.8922 88.558 66.4222 87.8954 69.0124C86.6304 74.0121 82.3535 77.8672 76.9322 78.8913Z" fill="#FFEFC5"/>
<path d="M104.581 76.4216C107.309 76.4216 109.521 74.2102 109.521 71.4822C109.521 68.7542 107.309 66.5427 104.581 66.5427C101.853 66.5427 99.6416 68.7542 99.6416 71.4822C99.6416 74.2102 101.853 76.4216 104.581 76.4216Z" fill="#AB8D96"/>
<path d="M23.9837 76.4216C26.7116 76.4216 28.9231 74.2102 28.9231 71.4822C28.9231 68.7542 26.7116 66.5427 23.9837 66.5427C21.2557 66.5427 19.0442 68.7542 19.0442 71.4822C19.0442 74.2102 21.2557 76.4216 23.9837 76.4216Z" fill="#AB8D96"/>
<path d="M84.8233 91.0594C86.6305 93.2882 86.269 96.6012 83.98 98.4084L80.1248 101.48C77.8961 103.288 74.583 102.866 72.7759 100.637L71.3904 98.9505C69.5833 96.7217 69.9447 93.4087 72.2338 91.6015L75.7275 88.8306C74.6432 87.8066 72.8964 83.5298 74.0409 82.6864C75.3661 81.7226 78.0768 83.7105 80.426 85.9995C81.5103 82.8671 84.5221 81.5419 85.9678 82.566C87.2931 83.4695 87.1124 85.2766 84.0403 90.0956L84.8233 91.0594Z" fill="#C9ADB5"/>
<path d="M85.8473 90.0353C88.1363 86.3006 89.341 83.108 86.8713 81.4213C85.7871 80.6985 84.3414 80.6383 82.8957 81.3009C81.9319 81.7225 80.9078 82.5056 80.1248 83.7104C77.8357 81.7225 75.1853 80.2768 73.3179 81.6021C72.5951 82.1442 72.1734 82.867 72.053 83.8308C71.8722 85.2765 72.6553 87.0837 73.6191 88.8305L71.3904 90.5774C68.499 92.8664 68.0171 97.0228 70.3061 99.9142L71.6915 101.601C72.7758 102.986 74.4022 103.89 76.1491 104.071C76.39 104.071 76.6912 104.131 76.9322 104.131C78.4381 104.131 79.8838 103.649 81.0283 102.685L84.8835 99.613C86.269 98.5287 87.1725 96.9023 87.3532 95.1554C87.5339 93.4086 87.052 91.6617 85.9678 90.2762L85.8473 90.0353ZM83.9799 83.8911C84.5221 83.6501 85.004 83.6501 85.1847 83.7706C85.3052 83.8308 85.4859 83.9513 85.1847 84.8549C85.004 85.5777 84.5221 86.4813 83.8595 87.686C83.3776 87.1439 82.7752 86.4813 82.1126 85.7584C82.6547 84.7344 83.3776 84.132 83.9799 83.8911ZM84.5221 94.7338C84.4016 95.7578 83.9197 96.6614 83.1366 97.2637L79.2814 100.336C78.4983 100.938 77.4743 101.239 76.5105 101.119C75.4865 100.998 74.5829 100.517 73.9806 99.7335L72.5951 98.0468C71.2699 96.4204 71.5711 94.0109 73.1975 92.746L75.1853 91.1798C76.2093 92.6255 77.2334 93.77 77.5948 94.1916C77.896 94.4928 78.2574 94.6735 78.6791 94.6735C79.0405 94.6735 79.3417 94.5531 79.6429 94.3121C80.2452 93.77 80.3055 92.8664 79.7633 92.3243C77.655 90.0353 74.7034 85.8187 74.8841 84.1923C74.8841 84.0718 74.8841 84.0718 74.9444 84.0115C75.0648 84.0115 76.0286 84.0718 78.1369 85.8789C79.5224 87.0836 81.1488 88.7101 82.4138 90.3365L83.7992 92.0231C84.3414 92.7459 84.6425 93.7097 84.5221 94.7338Z" fill="#AB8D96"/>
<path d="M52.9578 69.7954L53.3794 70.0966L53.6806 69.6749C55.0058 67.8678 57.5358 67.5064 59.2827 68.8316C61.0898 70.1568 61.4512 72.6868 60.126 74.4337L59.8248 74.8553L58.9815 75.9396C56.8129 78.8912 52.5963 79.4936 49.6447 77.325L48.5604 76.4817L48.1388 76.1805C46.3317 74.8553 45.9702 72.3254 47.2955 70.5785C48.6809 68.8316 51.1506 68.4702 52.9578 69.7954Z" fill="#FF80A7"/>
<path d="M53.6806 80.0961C51.9337 80.0961 50.3073 79.5539 48.8616 78.5299L47.3557 77.3854C46.2112 76.5421 45.4281 75.2771 45.1872 73.8314C44.9462 72.3857 45.3076 70.94 46.2112 69.7955C47.0545 68.651 48.3195 67.8679 49.7652 67.627C50.9097 67.4462 52.1144 67.627 53.0782 68.1691C54.9456 66.3017 57.9574 66.0608 60.126 67.6872C62.5355 69.4943 63.0776 72.8676 61.2705 75.2771L60.126 76.783C58.861 78.5299 56.9334 79.6744 54.8251 79.9756C54.4637 80.0961 54.042 80.0961 53.6806 80.0961ZM50.5483 70.4581C50.4278 70.4581 50.3073 70.4581 50.1868 70.4581C49.5242 70.5786 48.9219 70.94 48.5002 71.4822C48.0785 72.0243 47.8978 72.7471 48.0183 73.4097C48.1388 74.0724 48.5002 74.6747 49.0423 75.0964L50.5483 76.2409C51.6928 77.0842 53.0782 77.4456 54.4637 77.2047C55.8491 77.024 57.0539 76.2409 57.8972 75.1566L59.0417 73.6507C59.885 72.5062 59.6441 70.8798 58.4996 70.0365C57.3551 69.1931 55.7287 69.4341 54.8853 70.5786L54.5842 71.0003C54.1023 71.6629 53.1987 71.7833 52.5963 71.3014L52.1747 71.0003C51.6325 70.5786 51.1506 70.4581 50.5483 70.4581Z" fill="#D8608B"/>
<path d="M84.1606 63.2297C83.4378 63.2297 82.8354 62.6273 82.8354 61.9045C82.8354 60.5793 81.7511 59.495 80.4259 59.495C79.1007 59.495 78.0164 60.5793 78.0164 61.9045C78.0164 62.6273 77.414 63.2297 76.6912 63.2297C75.9683 63.2297 75.366 62.6273 75.366 61.9045C75.366 59.1336 77.5948 56.9048 80.3657 56.9048C83.1366 56.9048 85.3654 59.1336 85.3654 61.9045C85.4858 62.6273 84.8835 63.2297 84.1606 63.2297Z" fill="#5F5C5D"/>
<path d="M51.8132 63.2297C51.0904 63.2297 50.488 62.6273 50.488 61.9045C50.488 60.5793 49.4037 59.495 48.0785 59.495C46.7533 59.495 45.669 60.5793 45.669 61.9045C45.669 62.6273 45.0666 63.2297 44.3438 63.2297C43.6209 63.2297 43.0186 62.6273 43.0186 61.9045C43.0186 59.1336 45.2473 56.9048 48.0182 56.9048C50.7892 56.9048 53.0179 59.1336 53.0179 61.9045C53.1384 62.6273 52.536 63.2297 51.8132 63.2297Z" fill="#5F5C5D"/>
<path d="M66.0292 71.422C65.5473 71.422 65.0654 71.3015 64.5835 71.1208C63.6799 70.7594 62.9571 70.0366 62.5957 69.0728C62.2342 68.2294 62.2342 67.3259 62.5354 66.4826C61.7523 66.0609 61.15 65.4585 60.7885 64.555C60.0054 62.6876 60.9692 60.5191 62.8366 59.736C63.4992 59.495 64.2823 59.7962 64.5232 60.4588C64.7642 61.1214 64.463 61.9045 63.8004 62.1455C63.2583 62.3864 62.9571 63.049 63.198 63.5912C63.439 64.1333 64.1016 64.4345 64.6437 64.1935C65.3063 63.9526 66.0894 64.2538 66.3304 64.9164C66.3906 65.0971 66.4508 65.2176 66.4508 65.3983C66.4508 65.9404 66.1497 66.4223 65.6678 66.603C65.3666 66.7235 65.1859 66.9042 65.0654 67.2054C64.9449 67.5066 64.9449 67.8078 65.0654 68.0487C65.1859 68.3499 65.3666 68.5306 65.6678 68.6511C65.9689 68.7716 66.2701 68.7716 66.5111 68.6511C67.1737 68.4102 67.9568 68.7113 68.1977 69.3739C68.4387 70.0366 68.1375 70.8196 67.4749 71.0606C66.993 71.3618 66.5111 71.422 66.0292 71.422Z" fill="#5F5C5D"/>
<path d="M78.2574 34.4965C77.655 35.882 78.3176 37.4482 79.6428 37.9903C81.0283 38.5927 82.5945 37.9301 83.1366 36.6048C82.5342 37.9903 83.1968 39.5565 84.522 40.0986C85.9075 40.701 87.4737 40.0384 88.0158 38.7132L87.4737 35.2796L80.3657 33.1111L78.2574 34.4965Z" fill="#FFFFA1"/>
<path d="M85.6064 41.6044C85.0642 41.6044 84.5221 41.4839 84.0402 41.3032C83.1367 40.8815 82.4138 40.2189 81.9921 39.3154C81.0886 39.6166 80.0645 39.6166 79.1007 39.1949C78.137 38.7732 77.3539 37.9902 76.9924 37.0264C76.5708 36.0626 76.631 34.9783 77.0527 34.0145C77.3539 33.3519 78.0767 33.0507 78.7393 33.3519C79.4019 33.6531 79.7031 34.3759 79.4019 35.0385C79.2815 35.4 79.2815 35.7614 79.4019 36.0626C79.5224 36.3638 79.8236 36.6649 80.1248 36.7854C80.8476 37.0866 81.6307 36.7854 81.9319 36.0626C82.2331 35.4 82.9559 35.0988 83.6185 35.4C84.1004 35.6409 84.4016 36.0626 84.4016 36.6047C84.4016 36.7854 84.3414 36.9661 84.2812 37.0866C84.1607 37.448 84.1607 37.8094 84.2812 38.1106C84.4016 38.4721 84.7028 38.713 85.004 38.8335C85.3654 38.954 85.7268 38.954 86.028 38.8335C86.3895 38.713 86.6304 38.4118 86.8111 38.1106C87.1123 37.448 87.8352 37.1468 88.4978 37.448C89.1604 37.7492 89.4616 38.4721 89.1604 39.1347C88.7387 40.0985 87.9556 40.8815 86.9918 41.243C86.6304 41.4839 86.1485 41.6044 85.6064 41.6044Z" fill="#5F5C5D"/>
<path d="M82.233 33.0509C82.0523 33.0509 81.8716 32.9906 81.7511 32.9304C81.0885 32.6292 80.7873 31.9064 81.0885 31.2438C81.3897 30.5209 81.0885 29.7378 80.3657 29.4366C79.6428 29.1354 78.8597 29.4366 78.5586 30.1595C78.2574 30.8221 77.5345 31.1233 76.8719 30.8221C76.2093 30.5209 75.9081 29.7981 76.2093 29.1354C77.0526 27.1476 79.4019 26.1838 81.4499 27.0271C83.4378 27.8705 84.4016 30.2197 83.5582 32.2678C83.1968 32.8099 82.7149 33.0509 82.233 33.0509Z" fill="#5F5C5D"/>
<path d="M94.5214 38.8937C94.3407 38.8937 94.1599 38.8335 94.0395 38.7732C93.3768 38.472 93.0757 37.7492 93.3769 37.0866C93.4973 36.7252 93.4973 36.3637 93.3769 36.0626C93.2564 35.7011 92.9552 35.4602 92.654 35.3397C91.9312 35.0385 91.1481 35.3397 90.8469 36.0626C90.5457 36.7252 89.8229 37.0264 89.1603 36.7252C88.4976 36.424 88.1965 35.7011 88.4976 35.0385C89.341 33.0507 91.6902 32.0869 93.7383 32.9302C94.7021 33.3519 95.4851 34.135 95.8466 35.0988C96.2682 36.0626 96.208 37.1468 95.7864 38.1106C95.4852 38.5925 95.0033 38.8937 94.5214 38.8937Z" fill="#5F5C5D"/>
<path d="M99.5211 50.7606C98.0152 52.2666 95.3045 52.0859 93.5576 50.2787C91.7505 48.4716 91.5698 45.8212 93.0758 44.3152C94.5817 42.8093 96.7502 43.5322 98.4971 45.3393C100.304 47.0862 101.027 49.1945 99.5211 50.7606Z" fill="#FFFFA1"/>
<path d="M96.931 53.1701C96.8106 53.1701 96.6298 53.1701 96.5094 53.1701C95.0637 53.0496 93.618 52.387 92.5337 51.3027C90.1844 48.9535 90.0037 45.3995 92.0518 43.2912C93.1361 42.2069 94.5215 41.8455 96.0275 42.1467C97.2322 42.4478 98.437 43.1707 99.5212 44.255C102.111 46.8452 102.473 49.7366 100.545 51.7244C99.5815 52.6882 98.3165 53.1701 96.931 53.1701ZM95.0034 44.9176C94.642 44.9176 94.3408 45.038 94.0999 45.3392C93.6782 45.7609 93.4373 46.4235 93.4975 47.1464C93.5577 47.9294 93.9192 48.7125 94.5818 49.3149C95.1842 49.9173 95.9672 50.3389 96.7503 50.3992C97.4732 50.4594 98.0755 50.2185 98.5574 49.7968C98.9188 49.4354 99.0393 49.0137 98.9188 48.4716C98.7984 47.809 98.2562 47.0861 97.5334 46.3633C96.8106 45.6404 96.0275 45.1585 95.4251 44.9778C95.2444 44.9176 95.1239 44.9176 95.0034 44.9176Z" fill="#FFE4A6"/>
<path d="M73.6192 33.6531C73.2577 35.7614 70.9085 37.1469 68.4388 36.7252C65.969 36.3035 64.2222 34.1952 64.6438 32.0869C65.0655 29.9786 67.1738 29.3763 69.7037 29.7979C72.1735 30.2196 74.0408 31.5448 73.6192 33.6531Z" fill="#FFFFA1"/>
<path d="M69.4025 38.2312C69.0411 38.2312 68.6194 38.1709 68.1977 38.1107C66.6918 37.8697 65.3063 37.0867 64.3426 35.9422C63.3788 34.7374 62.9571 33.2917 63.198 31.846C63.439 30.3401 64.4028 29.2558 65.7882 28.6534C66.9328 28.1715 68.3182 28.1113 69.8844 28.3523C71.4506 28.6534 72.7155 29.1956 73.6191 29.9787C74.7636 31.0027 75.2455 32.3882 74.9443 33.8339C74.7034 35.2795 73.7998 36.4843 72.4746 37.3276C71.6313 37.93 70.547 38.2312 69.4025 38.2312ZM68.258 31.0629C67.7158 31.0629 67.2942 31.1232 66.9327 31.3039C66.4508 31.4846 66.1497 31.846 66.0894 32.3279C65.969 32.9303 66.1497 33.5929 66.6316 34.135C67.1135 34.7374 67.8965 35.1591 68.7399 35.3398C69.5832 35.5205 70.4867 35.3398 71.1494 34.9784C71.7517 34.6169 72.1734 34.0748 72.2939 33.4724C72.4144 32.9303 72.2336 32.5689 71.812 32.2074C71.3301 31.7858 70.4868 31.4244 69.4627 31.2436C69.0411 31.1232 68.6194 31.0629 68.258 31.0629Z" fill="#FFE4A6"/>
<path d="M49.0422 91.0592C47.2351 93.2879 47.5965 96.601 49.8856 98.4081L53.7407 101.48C55.9695 103.287 59.2826 102.866 61.0897 100.637L62.4751 98.9502C64.2823 96.7215 63.9208 93.4084 61.6318 91.6013L58.1381 88.8304C59.2223 87.8064 60.9692 83.5295 59.8247 82.6862C58.4995 81.7224 55.7888 83.7102 53.4396 85.9992C52.3553 82.8669 49.3434 81.5417 47.8977 82.5657C46.5725 83.4693 46.7532 85.2764 49.8253 90.0954L49.0422 91.0592Z" fill="#C9ADB5"/>
<path d="M47.958 90.1556C46.8738 91.5411 46.3316 93.288 46.5726 95.0348C46.7533 96.7817 47.6569 98.3479 49.0423 99.4924L52.8975 102.564C54.1023 103.528 55.5479 104.01 56.9936 104.01C57.2346 104.01 57.4755 104.01 57.7767 103.95C59.5236 103.769 61.0898 102.866 62.2343 101.48L63.6197 99.7936C65.9087 96.9022 65.4269 92.7458 62.5355 90.4568L60.3067 88.7099C61.3307 87.0233 62.0536 85.1559 61.8729 83.7102C61.7524 82.8067 61.3307 82.0236 60.6079 81.4814C58.7405 80.1562 56.0901 81.6622 53.8011 83.5898C53.018 82.385 51.9337 81.6019 51.0301 81.1803C49.5845 80.5177 48.0785 80.5779 47.0545 81.3007C44.5245 83.0476 45.7293 86.18 48.0785 89.9147L47.958 90.1556ZM51.753 85.6981C51.0302 86.4209 50.4278 87.0835 50.0061 87.6257C49.3435 86.4209 48.9218 85.5173 48.6809 84.7945C48.44 83.8909 48.5604 83.8307 48.6809 83.7102C48.8616 83.5898 49.2833 83.5898 49.8856 83.8307C50.5483 84.1319 51.2109 84.7343 51.753 85.6981ZM50.1868 91.9627L51.5723 90.2761C52.8373 88.6497 54.4637 87.0233 55.8491 85.8185C57.9574 84.0114 58.861 83.9512 59.0417 83.9512C59.0417 83.9512 59.1019 84.0114 59.1019 84.1319C59.2826 85.8185 56.2708 89.9749 54.2227 92.2639C53.6806 92.8663 53.7408 93.7699 54.3432 94.2518C54.6444 94.4927 54.9456 94.6132 55.307 94.6132C55.6684 94.6132 56.0901 94.4325 56.3913 94.1313C56.7527 93.7096 57.7767 92.5651 58.8008 91.1194L60.7886 92.6856C62.415 94.0108 62.7162 96.3601 61.391 97.9865L60.0055 99.6731C59.4031 100.456 58.4996 100.938 57.4755 101.059C56.4515 101.179 55.4877 100.878 54.7046 100.275L50.8494 97.2034C50.0664 96.601 49.5845 95.6974 49.464 94.6734C49.2833 93.7096 49.5242 92.7458 50.1868 91.9627Z" fill="#AB8D96"/>
</svg>
