<svg width="70" height="37" viewBox="0 0 70 37" fill="none" xmlns="http://www.w3.org/2000/svg">
<path d="M10.493 31.1262L10.4321 21.5688L23.0332 21.508L23.0941 31.0653C23.0941 32.7089 23.5202 34.0481 24.3724 34.9004C25.2247 35.8135 26.2595 36.2396 27.5988 36.2396C28.8772 36.2396 29.9729 35.8135 30.8251 34.9004C31.6774 33.9873 32.1644 32.7089 32.1035 31.0044L31.9818 5.68054C31.9818 3.97605 31.4948 2.69768 30.6425 1.78456C29.7903 0.932317 28.6945 0.506195 27.4162 0.506195C26.1378 0.506195 25.0421 0.932316 24.2507 1.84544C23.3984 2.75856 22.9723 4.03692 22.9723 5.74142L23.0332 11.281L10.4321 11.3419L10.3713 5.80229C10.3713 4.0978 9.88426 2.81943 9.03202 1.90631C8.17977 1.05406 7.08403 0.627943 5.80566 0.627943C4.46642 0.627943 3.37068 1.11494 2.57931 1.96718C1.78794 2.8803 1.36182 4.15867 1.36182 5.80229L1.48356 31.1262C1.48356 32.7698 1.90968 34.109 2.76193 34.9612C3.61417 35.8744 4.64904 36.3005 5.98829 36.3005C7.26665 36.3005 8.3624 35.8744 9.21464 34.9612C10.0669 34.1699 10.493 32.8306 10.493 31.1262Z" fill="#F174A7" stroke="#221F1F" stroke-width="0.820712" stroke-miterlimit="10" stroke-linecap="round" stroke-linejoin="round"/>
<path d="M4.77052 1.1758C6.53589 2.14979 7.63164 2.88029 7.87514 4.82828C8.17951 6.83714 7.44901 9.51562 7.99688 11.4027C8.48388 12.8637 11.5885 12.1332 12.3799 11.4027H10.371L10.3101 5.86314C10.3101 4.15865 9.82313 2.88028 8.97088 1.96716C8.11864 1.11492 7.02289 0.688797 5.74452 0.688797C5.19665 0.688797 4.64878 0.810547 4.22266 0.932297C4.40528 0.993171 4.5879 1.05405 4.77052 1.1758Z" fill="#F174A7"/>
<path d="M17.3107 18.8295C14.4496 18.9512 11.5276 19.1947 8.66653 19.1947C8.60566 22.1167 9.09265 25.0995 8.91003 28.0215C8.78828 29.8478 8.36215 31.7958 6.71854 32.9524C4.22267 34.596 2.45731 33.0133 1.54419 30.8218V31.187C1.54419 32.8306 1.97032 34.1699 2.82256 35.0221C3.67481 35.9352 4.70968 36.3614 6.04892 36.3614C7.32729 36.3614 8.42303 35.9352 9.27528 35.0221C10.1275 34.109 10.6145 32.8306 10.5536 31.1261L10.4928 21.5688L23.0938 21.5079V24.6734C23.2156 24.0038 23.3373 23.3342 23.4591 22.6646C23.5808 21.6297 24.2504 20.9601 24.4331 19.9861C24.5548 19.4991 24.4331 19.1947 24.2504 18.9512C21.8763 18.8903 19.624 18.7686 17.3107 18.8295Z" fill="#F174A7"/>
<path d="M31.9818 5.74144C31.9818 4.03695 31.4948 2.75858 30.6426 1.84546C29.7903 0.993215 28.6946 0.567093 27.4162 0.567093C26.1378 0.567093 25.0421 0.993214 24.2507 1.90633C24.2507 1.90633 24.2507 1.90633 24.2507 1.96721C25.4074 1.60196 26.7466 1.66284 27.9032 2.45421C29.8512 3.6717 29.8512 6.16756 29.9121 8.17643C30.0338 11.8289 29.9729 15.5423 30.1556 19.1947C30.3382 22.7863 30.5817 26.4388 30.3991 30.0913C30.2773 31.9784 29.7295 34.1699 27.8423 35.1439C26.564 35.7526 25.5291 35.7526 24.6769 35.3265C25.4682 35.9961 26.4422 36.4223 27.5988 36.3614C28.8772 36.3614 29.973 35.9353 30.8252 35.0221C31.6774 34.109 32.1644 32.8307 32.1036 31.1262L31.9818 5.74144Z" fill="#F174A7"/>
<path d="M4.89225 2.21068C2.45727 3.42818 2.82252 6.28929 2.70077 8.54165C2.57902 12.1941 2.51814 16.0292 2.76164 19.6817C2.82252 20.2296 3.67476 19.8643 3.67476 19.4382C3.85738 16.7597 3.61389 14.0204 3.61389 11.4028C3.61389 8.60252 3.00514 4.64567 4.95313 2.33243C5.13576 2.27156 5.07488 2.14981 4.89225 2.21068Z" fill="white"/>
<path d="M3.73582 21.9341C3.73582 21.8123 3.73582 21.6297 3.73582 21.5079C3.79669 20.8383 2.88357 21.0818 2.76182 21.6297C2.64007 22.1167 2.8227 22.6037 2.8227 23.0907C2.8227 23.3342 3.12707 23.4559 3.37057 23.3342C3.61407 23.2124 3.7967 22.9689 3.7967 22.7254C3.73582 22.4819 3.73582 22.1776 3.73582 21.9341Z" fill="white"/>
<path d="M25.4681 2.39331C24.3115 3.12381 24.1289 4.21955 24.1289 5.49792C24.068 7.44591 23.9463 9.57652 24.3115 11.5245C24.3724 11.8898 24.8594 11.6463 24.9203 11.4028C25.4073 8.54165 24.4333 5.13267 25.6508 2.51506C25.6508 2.39331 25.529 2.33244 25.4681 2.39331Z" fill="white"/>
<path d="M25.4681 33.2568C24.4941 31.8567 24.9203 28.1433 24.9811 26.4388C25.042 25.1604 25.1029 23.7603 24.6159 22.6037C24.4941 22.3602 24.1898 22.6037 24.1898 22.7863C24.068 24.7952 24.068 26.8041 24.1289 28.752C24.1289 30.2739 23.7028 32.7089 24.9203 33.8655C25.2246 34.1699 25.7116 33.622 25.4681 33.2568Z" fill="white"/>
<path d="M21.8766 12.3159C19.5024 12.0724 16.8848 12.1941 14.5107 12.4985C14.4498 12.4985 14.389 12.6202 14.5107 12.6202C16.8848 12.9855 19.4416 12.9246 21.8157 12.6811C21.9374 12.6811 22.1201 12.3159 21.8766 12.3159Z" fill="white"/>
<path d="M69.1154 19.9252C69.1154 18.7077 68.9936 17.612 68.811 16.638C68.6284 15.6031 68.2023 14.6291 67.5935 13.8378C66.6804 12.4376 65.402 11.3419 63.7584 10.6114C62.1757 9.8809 60.4103 9.57653 58.4014 9.57653C57.1231 9.57653 55.9056 9.75915 54.749 10.0027C53.5923 10.307 52.4966 10.7331 51.5835 11.281C51.34 11.4636 51.0356 11.5854 50.7921 11.768L50.7312 5.49793C50.7312 3.97606 50.2442 2.75857 49.392 1.90632C48.5397 1.05408 47.3223 0.627953 45.8613 0.688827C44.4003 0.688827 43.2437 1.11495 42.3914 1.96719C41.5392 2.81944 41.113 4.03693 41.113 5.5588L41.2348 31.4914C41.2348 34.596 43.0002 36.3614 45.983 36.3614C47.444 36.3614 48.6006 35.9353 49.4529 35.083C50.3051 34.2308 50.7921 33.0133 50.7312 31.4914V27.1693C50.7312 25.0387 50.6095 21.5688 53.6532 20.5948C54.6272 20.2905 56.1491 20.4122 57.0622 20.8383C58.7058 21.6297 59.2537 23.2733 59.4363 25.0387L59.4972 31.4305C59.4972 34.5351 61.2625 36.3005 64.2454 36.3005C65.6455 36.3005 66.8021 35.8744 67.6544 35.0221C68.5675 34.1699 68.9936 32.9524 68.9936 31.4305L69.1154 19.9252Z" fill="#F5A6C3" stroke="#221F1F" stroke-width="0.820712" stroke-miterlimit="10" stroke-linecap="round" stroke-linejoin="round"/>
<path d="M54.6269 18.7686C52.679 18.8295 50.7918 19.3165 49.8178 21.0209C48.6004 23.1516 48.9047 26.8649 48.8439 29.239C48.783 30.9435 48.1742 33.0741 46.5306 33.9873C44.8261 34.9004 42.9999 34.596 41.6606 33.5611C42.2694 35.3874 43.8521 36.3614 46.1045 36.3614C47.5655 36.3614 48.7221 35.9352 49.5744 35.083C50.4266 34.2308 50.9136 33.0133 50.8527 31.4914V27.1693C50.8527 25.0387 50.731 21.5688 53.7747 20.5948C54.7487 20.2905 56.2706 20.4122 57.1837 20.8383C57.8533 21.1427 58.6447 22.2384 59.0099 22.8472C59.0708 20.8992 57.0011 18.7077 54.6269 18.7686Z" fill="#F174A7"/>
<path d="M69.1152 19.9252C69.1152 18.7077 68.9935 17.612 68.8109 16.638C68.6282 15.6031 68.2021 14.6291 67.5934 13.8378C66.6802 12.4376 65.4019 11.3419 63.7583 10.6114C62.1755 9.8809 60.4102 9.57653 58.4013 9.57653C57.1229 9.57653 55.9054 9.75915 54.7488 10.0027C53.5922 10.307 52.4965 10.7331 51.5833 11.281C51.3398 11.4636 51.0355 11.5854 50.792 11.768L50.7311 5.49793C50.7311 3.97606 50.2441 2.75857 49.3918 1.90632C48.5396 1.05408 47.3221 0.627953 45.8611 0.688827C44.6436 0.688827 43.6088 1.05407 42.8174 1.66282C43.974 1.2367 45.3741 1.2367 46.4699 1.84545C48.4179 2.94119 49.331 4.88918 49.4527 7.08067C49.6354 9.75915 49.5136 12.3768 49.6962 15.0552C51.7051 12.4376 54.6271 10.6723 58.1578 10.7331C61.6885 10.794 65.9498 12.6203 66.7411 16.3945C67.289 18.9512 66.9846 21.5688 66.9237 24.1864C66.8629 26.9258 67.4716 30.1522 66.7411 32.8306C66.2541 34.7786 65.1584 35.9353 63.8191 36.3005C64.0018 36.3005 64.1844 36.3614 64.367 36.3614C65.7671 36.3614 66.9238 35.9353 67.776 35.083C68.6891 34.2308 69.1152 33.0133 69.1152 31.4914V19.9252Z" fill="#F174A7"/>
<path d="M44.7653 2.27156C43.4261 2.39331 42.9391 3.48905 42.6956 4.70655C42.2695 6.71541 42.5738 9.1504 42.5738 11.2201C42.513 17.9772 42.4521 24.9169 42.8173 31.674C42.8782 32.3436 43.9131 31.8566 43.8522 31.3088C43.4261 26.2562 43.7304 21.1427 43.6087 16.0901C43.5478 13.716 43.7304 11.281 43.6087 8.9069C43.5478 6.95891 42.9391 3.97605 44.7653 2.63681C44.8871 2.51506 44.9479 2.27156 44.7653 2.27156Z" fill="white"/>
<path d="M64.2453 15.1161C62.7234 10.6114 56.0272 10.1853 53.227 13.4725C53.1661 13.5943 53.227 13.6551 53.3488 13.5943C56.636 10.794 61.3233 12.4985 63.5148 15.664C63.8192 16.0293 64.3671 15.4205 64.2453 15.1161Z" fill="white"/>
<path d="M64.6715 16.151C64.5497 15.9684 64.2454 16.2119 64.2454 16.3336C64.2454 16.5771 64.2454 16.8815 64.3062 17.125C64.428 17.4902 64.9759 17.125 64.9759 16.8815C64.9759 16.5771 64.8541 16.3945 64.6715 16.151Z" fill="white"/>
</svg>
