<svg width="27" height="63" viewBox="0 0 27 63" fill="none" xmlns="http://www.w3.org/2000/svg">
<path d="M13.9001 1.30005C10.4001 1.30005 7.60009 2.00005 5.40009 3.40005C2.90009 4.90005 1.6001 7.20003 1.6001 10C1.6001 11.6 1.8001 14.2001 2.2001 17.9001L4.30009 36.2C4.80009 38.9 5.5001 41.0001 6.7001 42.4001C8.0001 44.1001 10.2001 44.9001 13.2001 44.9001C16.1001 44.9001 18.3001 44.1001 19.7001 42.4001C20.9001 40.9001 21.8001 38.8 22.1001 36.3L24.9001 17.6C25.2001 15.8 25.4001 13.9 25.4001 12.1C25.4001 8.80004 24.6001 6.20005 23.0001 4.30005C21.2001 2.20005 18.3001 1.30005 13.9001 1.30005Z" fill="#ED1E24" stroke="#221F1F" stroke-width="1.3482" stroke-miterlimit="10" stroke-linecap="round" stroke-linejoin="round"/>
<path d="M22.9001 4.30005C21.2001 2.30005 18.3001 1.30005 13.8001 1.30005C12.1001 1.30005 10.5001 1.50005 9.1001 1.80005C9.6001 1.80005 10.1001 1.70005 10.7001 1.80005C18.9001 2.20005 18.0001 12.1 17.6001 17.8C17.3001 23.1 16.8001 28.4 16.3001 33.7C15.9001 37.6 15.0001 40.8 11.8001 43.3C11.1001 43.9 10.3001 44.2001 9.6001 44.4001C10.6001 44.7001 11.7001 44.9001 13.0001 44.9001C15.9001 44.9001 18.1001 44.1001 19.5001 42.4001C20.7001 40.9001 21.6001 38.8 21.9001 36.3L24.7001 17.6C25.0001 15.8 25.2001 13.9 25.2001 12.1C25.3001 8.80004 24.5001 6.10005 22.9001 4.30005Z" fill="#CB1C20"/>
<path d="M19.4 49.9C17.8 48.6 15.9 48 13.6 47.9H13.4C11.2 47.9 9.3 48.5 7.7 49.7C5.9 51 5 52.8 5 54.8C5 57 5.9 58.9 7.7 60.2C9.3 61.3 11.3 61.9 13.4 62H13.6C15.6 62 17.5 61.4 19.1 60.4C20.9 59.2 21.9 57.3 21.9 55.1C21.9 53 21 51.2 19.4 49.9Z" fill="#D4DA26" stroke="#221F1F" stroke-width="1.3482" stroke-miterlimit="10" stroke-linecap="round" stroke-linejoin="round"/>
<path d="M19.4 49.9C17.8 48.6 15.9 48 13.6 47.9H13.4C11.2 47.9 9.3 48.5 7.7 49.7C5.9 51 5 52.8 5 54.8C5 57 5.9 58.9 7.7 60.2C9.3 61.3 11.3 61.9 13.4 62H13.6C15.6 62 17.5 61.4 19.1 60.4C20.9 59.2 21.9 57.3 21.9 55.1C21.9 53 21 51.2 19.4 49.9Z" fill="#ED1E24" stroke="#221F1F" stroke-width="1.3482" stroke-miterlimit="10" stroke-linecap="round" stroke-linejoin="round"/>
<path d="M19.4 49.9C17.8 48.6 15.9 48 13.6 47.9H13.4C11.2 47.9 9.3 48.5 7.7 49.7C5.9 51 5 52.8 5 54.8C5 57 5.9 58.9 7.7 60.2C9.3 61.3 11.3 61.9 13.4 62H13.6C15.6 62 17.5 61.4 19.1 60.4C20.9 59.2 21.9 57.3 21.9 55.1C21.9 53 21 51.2 19.4 49.9ZM16 58.4C14.9 59.1 13.7 59.5 12.4 59.5H12.3C10.9 59.5 9.6 59.1 8.5 58.3C7.3 57.5 6.7 56.2 6.7 54.8C6.7 53.5 7.3 52.3 8.5 51.5C9.5 50.7 10.8 50.3 12.3 50.3H12.4C13.9 50.3 15.2 50.8 16.2 51.6C17.3 52.5 17.9 53.7 17.9 55C17.8 56.4 17.2 57.6 16 58.4Z" fill="#CB1C20"/>
<path d="M9.29992 54C9.59993 52.7 10.5999 52 11.5999 51.3H11.4999C10.2999 51.4 8.79992 52.3 8.39992 53.5C8.09992 54.4 7.79992 55.5 8.49992 56.2C8.79992 56.5 9.09992 56.4 9.39992 56.3C9.09992 55.5 9.09992 54.7 9.29992 54Z" fill="white"/>
<path d="M8.10018 4.20003C4.10018 6.60003 3.80017 9.50005 4.00017 13.9C4.20017 17.3 4.50017 20.7 4.90017 24C5.20017 27.3 5.30017 30.7 6.00017 33.9C6.10017 34.2 6.40017 34 6.40017 33.7C6.30017 29.1 6.20017 24.3 5.80017 19.7C5.40017 14.5 3.80017 8.10005 8.30017 4.40005C8.50017 4.40005 8.30018 4.10003 8.10018 4.20003Z" fill="white"/>
</svg>
