<svg width="103" height="87" viewBox="0 0 103 87" fill="none" xmlns="http://www.w3.org/2000/svg">
<g clip-path="url(#clip0_17_349)">
<path d="M91.8459 31.1014C89.9791 30.7279 88.0657 30.7746 86.3389 31.1948C87.1789 19.4267 79.7584 8.31239 68.2777 4.62318C63.004 2.94202 57.5903 1.77455 52.0367 1.21417C39.8092 -0.0467039 28.4685 7.19162 24.4549 18.446C23.0081 17.3253 21.2813 16.5314 19.4145 16.1578C12.6008 14.7568 5.927 19.1465 4.52691 25.9179C3.12682 32.7359 7.51377 39.3671 14.2809 40.7681C17.7344 41.4686 21.188 40.6747 23.8948 38.8535C25.6216 43.1964 29.0285 46.7923 33.4154 48.6602C33.9755 48.8937 34.5355 49.1272 35.0956 49.3607C32.202 55.2915 28.5151 65.285 31.922 72.4299C37.009 83.2174 50.9632 80.182 50.9632 80.182L77.4716 68.7407C86.6189 68.7407 86.0122 61.5024 84.7988 55.8051L84.4254 54.9646C85.1721 55.2915 85.9655 55.525 86.8056 55.7118C93.6193 57.1127 100.246 52.723 101.647 45.9517C103.047 39.1804 98.6597 32.5024 91.8459 31.1014Z" fill="#C9ADB5"/>
<path d="M92.0792 30.0274C90.5391 29.7005 88.999 29.6538 87.5056 29.8406C87.5989 24.3301 85.9655 18.8663 82.8386 14.2431C79.4317 9.19967 74.3914 5.41706 68.6044 3.5491C63.284 1.82124 57.7303 0.700472 52.1766 0.0933864C46.0162 -0.513699 39.7625 0.933966 34.5822 4.20289C29.8219 7.19162 26.0883 11.628 23.9415 16.7649C22.6347 15.971 21.188 15.4106 19.6479 15.0837C16.0543 14.3365 12.4141 15.037 9.38054 17.0451C6.25367 19.0531 4.20021 22.1353 3.45349 25.7311C2.70678 29.3269 3.40682 32.9694 5.41362 36.0048C7.42041 39.0402 10.5006 41.1417 14.0942 41.8889C17.3144 42.5427 20.5813 42.0757 23.4281 40.4879C25.4349 44.6441 28.7951 47.913 33.0421 49.7343C33.6021 49.9678 34.2555 49.7343 34.4888 49.1739C34.7222 48.6135 34.4888 47.9597 33.9288 47.7262C29.7752 45.905 26.6017 42.6361 24.9215 38.4799C24.7815 38.153 24.5482 37.9195 24.2215 37.8261C23.8948 37.7327 23.5681 37.7794 23.2881 37.9662C20.7213 39.7407 17.5944 40.3478 14.5142 39.694C8.35381 38.4332 4.34021 32.3623 5.6003 26.1514C6.207 23.1626 7.98045 20.5942 10.5473 18.8663C13.1141 17.1852 16.1476 16.5781 19.1812 17.2319C20.8613 17.5588 22.4481 18.3059 23.8015 19.3333C24.0815 19.5668 24.4548 19.6135 24.7815 19.5201C25.1082 19.4267 25.3882 19.1465 25.5283 18.8196C27.395 13.5894 31.0353 9.05957 35.7956 6.07084C40.6026 3.08211 46.3429 1.72785 51.99 2.33493C57.4036 2.89532 62.7707 4.01609 67.9977 5.69725C73.318 7.37841 77.9383 10.8808 81.0652 15.504C84.192 20.1272 85.6855 25.6377 85.2654 31.1014C85.2188 31.475 85.4055 31.8019 85.6388 32.0354C85.9188 32.2689 86.2922 32.3623 86.6189 32.2689C88.299 31.8486 89.9791 31.8486 91.6592 32.1755C94.6461 32.7826 97.2129 34.5572 98.9397 37.1256C100.62 39.694 101.226 42.7295 100.573 45.7649C99.313 51.9758 93.246 55.9452 87.0389 54.6844C83.9587 54.0306 81.3452 52.256 79.6651 49.5475C79.4784 49.2673 79.1984 49.0805 78.8717 49.0338C78.545 48.9871 78.2183 49.1272 77.985 49.3607C74.7181 52.5829 70.4245 54.3575 65.8509 54.3575C65.8042 54.3575 65.8042 54.3575 65.7575 54.3575C65.1508 54.3575 64.6374 54.8712 64.6374 55.4783C64.6374 56.0853 65.1508 56.599 65.7575 56.599C65.8042 56.599 65.8042 56.599 65.8509 56.599C70.5645 56.599 75.0448 54.9179 78.5917 51.8824C79.9451 53.657 81.7186 55.058 83.772 55.9919C83.772 56.0386 83.772 56.132 83.772 56.1787C84.4721 59.4477 85.0321 63.5105 83.1653 65.7987C82.0919 67.1063 80.1785 67.8068 77.5183 67.8068C76.9116 67.8068 76.3982 68.3204 76.3982 68.9275C76.3982 69.5346 76.9116 70.0483 77.5183 70.0483C80.8785 70.0483 83.352 69.1143 84.8921 67.2464C87.0856 64.5378 86.8055 60.4283 86.1522 56.8792C86.2922 56.9259 86.4789 56.9726 86.6189 56.9726C87.5523 57.1594 88.4857 57.2528 89.3724 57.2528C95.7195 57.2528 101.413 52.7697 102.767 46.3253C104.213 38.8068 99.453 31.5684 92.0792 30.0274Z" fill="#AB8D96"/>
<path d="M61.7906 51.5089C53.8101 51.3688 46.1096 49.781 38.7358 46.6989C34.2089 44.8309 31.1287 40.6747 30.8486 36.0982C30.7086 33.7166 30.8486 31.3816 31.2687 29.0934C32.9488 20.1739 41.7694 14.2432 51.4766 15.3172C55.3969 15.7375 59.2705 16.5781 63.0507 17.7456C72.058 20.5475 77.6583 29.2335 75.8849 37.8261C75.4182 40.161 74.6248 42.4026 73.5514 44.6441C71.4979 48.9404 66.8776 51.6023 61.7906 51.5089Z" fill="#F5E9C1"/>
<path d="M93.1758 46.2962C94.6912 44.2739 94.2812 41.4053 92.2602 39.8891C90.2392 38.3728 87.3724 38.783 85.8571 40.8053C84.3418 42.8276 84.7518 45.6961 86.7728 47.2124C88.7938 48.7286 91.6605 48.3184 93.1758 46.2962Z" fill="#AB8D96"/>
<path d="M58.3837 39.1803C58.2437 39.7407 58.0571 40.2544 57.8237 40.7214C57.497 41.3285 57.1237 41.8422 56.6103 42.2625C55.8636 42.9629 54.9302 43.4299 53.9501 43.6634C53.1567 43.8502 52.27 43.8502 51.43 43.6634C49.5632 43.2431 48.0697 41.9823 47.323 40.3478C46.9497 39.5072 46.763 38.5265 46.8097 37.5459C46.8097 37.2657 46.8563 36.9855 46.9497 36.7053C47.0897 35.9581 47.3697 35.3977 47.7431 34.9774C48.4431 34.1369 49.5165 33.8567 50.7766 33.8567C51.6166 33.8567 52.55 33.9968 53.5301 34.2303C55.9569 34.7439 57.917 35.5378 58.4304 37.3124C58.5704 37.8261 58.5704 38.4331 58.3837 39.1803Z" fill="#5F5C5D"/>
<path d="M56.6103 42.2624C55.8636 42.9629 54.9302 43.4299 53.9501 43.6634C53.1567 43.8502 52.27 43.8502 51.4299 43.6634C49.5631 43.2431 48.0697 41.9823 47.323 40.3478C48.0697 39.6473 49.0031 39.1803 49.9832 38.9468C50.7766 38.76 51.6633 38.76 52.5033 38.9468C54.4168 39.3671 55.8636 40.628 56.6103 42.2624Z" fill="#E27FA3"/>
<path d="M52.6901 44.9243C52.1767 44.9243 51.71 44.8776 51.1966 44.7842C47.463 43.9436 45.0362 40.2544 45.8763 36.4718C46.3896 34.1368 47.8831 33.2496 49.0031 32.9227C50.2166 32.5958 51.6633 32.6425 53.7168 33.1095C55.5836 33.5298 60.5306 34.6038 59.4572 39.4138C58.7571 42.6827 55.8636 44.9243 52.6901 44.9243ZM50.6833 34.9307C50.2632 34.9307 49.8899 34.9774 49.5632 35.0708C48.9565 35.2576 48.3031 35.5845 48.0231 36.9388C47.463 39.5072 49.0965 42.029 51.6633 42.5893C54.2301 43.1497 56.7503 41.5153 57.3104 38.9468C57.6837 37.2657 57.1237 36.0982 53.2501 35.2576C52.2234 35.0241 51.3833 34.9307 50.6833 34.9307Z" fill="#5F5C5D"/>
<path d="M43.3561 33.4364C42.9828 33.4364 42.6561 33.2496 42.4227 32.9227C41.816 31.9887 40.8359 31.3349 39.7625 31.1014C38.6425 30.8679 37.5224 31.1014 36.589 31.7085C36.0756 32.0354 35.3756 31.8953 35.0489 31.3816C34.7222 30.8679 34.8622 30.1675 35.3756 29.8406C36.8224 28.9066 38.5025 28.5797 40.1826 28.9066C41.8627 29.2335 43.3094 30.2142 44.2428 31.6618C44.5695 32.1755 44.4295 32.876 43.9161 33.2029C43.7761 33.3897 43.5428 33.4364 43.3561 33.4364Z" fill="#5F5C5D"/>
<path d="M70.7979 39.0869C70.4245 39.0869 70.0978 38.9002 69.8645 38.5733C68.6044 36.6119 65.9909 36.0982 64.0308 37.3591C63.5174 37.686 62.8174 37.5459 62.4907 37.0322C62.164 36.5185 62.304 35.818 62.8174 35.4911C65.7576 33.5298 69.7712 34.3704 71.7313 37.3124C72.058 37.8261 71.918 38.5266 71.4046 38.8535C71.2179 39.0402 71.0312 39.0869 70.7979 39.0869Z" fill="#5F5C5D"/>
<path d="M76.3049 77.3333C73.6447 75.8857 71.5913 73.7842 70.1445 71.029C68.6978 68.3204 67.951 65.0982 67.951 61.4557C67.951 57.8132 68.6978 54.6377 70.1445 51.9291C71.5913 49.2206 73.6447 47.1191 76.3049 45.6248C78.9651 44.1771 82.0453 43.4299 85.5455 43.4299C89.7925 43.4299 93.4794 44.5507 96.6996 46.7922C97.2596 47.2125 97.6796 47.6328 97.913 48.0998C98.1463 48.5668 98.2863 49.1739 98.2863 49.9211C98.2863 50.9485 98.0063 51.8357 97.3996 52.5362C96.8396 53.2367 96.0929 53.6103 95.2995 53.6103C94.7861 53.6103 94.3661 53.5169 93.9461 53.3768C93.526 53.2367 93.0593 53.0032 92.546 52.6296C91.3792 51.9291 90.2592 51.4154 89.2324 51.1352C88.2057 50.8551 87.1323 50.6683 86.0589 50.6683C83.1187 50.6683 80.8785 51.5555 79.4318 53.3301C77.985 55.1046 77.2383 57.8132 77.2383 61.4557C77.2383 65.0982 77.985 67.8534 79.4318 69.628C80.8785 71.4026 83.072 72.2898 86.0589 72.2898C87.0389 72.2898 88.019 72.1497 88.9524 71.8228C89.8858 71.496 91.0992 71.029 92.546 70.3285C93.246 69.9549 93.7594 69.7214 94.0861 69.5813C94.4128 69.4412 94.8328 69.3945 95.2995 69.3945C96.1395 69.3945 96.8396 69.7681 97.3996 70.4686C97.9597 71.1691 98.2863 72.0563 98.2863 73.0837C98.2863 73.7842 98.1463 74.3913 97.913 74.8583C97.6796 75.3253 97.2596 75.7923 96.6996 76.1658C93.526 78.4074 89.7925 79.5282 85.5455 79.5282C82.0453 79.5282 78.9184 78.8277 76.3049 77.3333Z" fill="#95E0E8"/>
<path d="M85.5456 80.6489C81.8587 80.6489 78.5451 79.8551 75.7449 78.314C72.8981 76.7729 70.7046 74.4847 69.1645 71.5894C67.6244 68.694 66.8777 65.285 66.8777 61.4557C66.8777 57.6731 67.6711 54.2641 69.1645 51.4154C70.7046 48.5201 72.9447 46.2319 75.7449 44.6908C78.5451 43.1497 81.8587 42.3559 85.5456 42.3559C89.9792 42.3559 93.9461 43.57 97.3063 45.905C98.0064 46.4187 98.5197 46.9791 98.8931 47.5861C99.2198 48.1932 99.4065 48.9871 99.4065 49.9211C99.4065 51.2287 99.0331 52.3494 98.2864 53.2367C97.493 54.2174 96.4663 54.7311 95.2995 54.7311C94.6461 54.7311 94.0861 54.6377 93.5727 54.4509C93.106 54.2641 92.5927 53.9839 91.986 53.657C90.9126 53.0032 89.8858 52.5362 88.9524 52.256C88.0191 51.9758 87.039 51.8357 86.0589 51.8357C83.4454 51.8357 81.532 52.5829 80.3186 54.0773C79.0585 55.665 78.4051 58.1401 78.4051 61.5024C78.4051 64.9114 79.0585 67.3865 80.3186 68.9742C81.5786 70.5153 83.4454 71.2158 86.0589 71.2158C86.9456 71.2158 87.7857 71.0757 88.5791 70.7955C89.4658 70.5153 90.6326 70.0016 92.0326 69.3945C92.7794 69.0209 93.2927 68.7407 93.6661 68.6006C94.1328 68.4138 94.6928 68.3204 95.2995 68.3204C96.4663 68.3204 97.493 68.8341 98.2864 69.8148C99.0331 70.7488 99.4065 71.8696 99.4065 73.1304C99.4065 74.0177 99.2198 74.7649 98.8931 75.4187C98.5664 76.0725 98.053 76.6328 97.3063 77.1465C93.9461 79.4815 89.9792 80.6489 85.5456 80.6489ZM85.5456 44.504C82.232 44.504 79.2918 45.2045 76.8183 46.5588C74.3915 47.913 72.478 49.8744 71.1246 52.3961C69.7712 54.9646 69.0712 58 69.0712 61.409C69.0712 64.8647 69.7712 67.9468 71.1246 70.4686C72.478 72.9903 74.3915 74.9517 76.8183 76.3059C79.2918 77.6602 82.232 78.3607 85.5456 78.3607C89.5125 78.3607 93.0594 77.2866 96.0462 75.2319C96.4663 74.9517 96.7463 74.6248 96.933 74.2979C97.1196 73.971 97.1663 73.5507 97.1663 73.037C97.1663 72.2431 96.9796 71.6361 96.5596 71.1224C96.0929 70.5153 95.6262 70.4686 95.2995 70.4686C94.9728 70.4686 94.6928 70.5153 94.5061 70.6087C94.2261 70.7488 93.7128 70.9823 93.0594 71.3092C93.0594 71.3092 93.0127 71.3092 93.0127 71.3559C91.5193 72.0564 90.2592 72.5233 89.3258 72.8502C88.2991 73.2238 87.179 73.3639 86.0589 73.3639C82.7454 73.3639 80.2252 72.3365 78.5918 70.2818C77.005 68.3204 76.165 65.3317 76.165 61.409C76.165 57.533 76.9583 54.5443 78.5918 52.5829C80.2719 50.5282 82.792 49.5008 86.0589 49.5008C87.2723 49.5008 88.4391 49.6876 89.5591 50.0145C90.6792 50.3414 91.8926 50.9018 93.106 51.6489C93.5727 51.9291 93.9928 52.1626 94.3195 52.256C94.5995 52.3494 94.9262 52.3961 95.2995 52.3961C95.8129 52.3961 96.1862 52.2093 96.5596 51.7423C96.9796 51.2287 97.1663 50.5749 97.1663 49.8277C97.1663 49.2673 97.073 48.847 96.933 48.5668C96.7463 48.2399 96.4663 47.9597 96.0462 47.6328C93.0594 45.5781 89.5125 44.504 85.5456 44.504Z" fill="#63D3D6"/>
<path d="M71.218 63.277C72.6181 64.4911 73.5515 66.1256 74.0182 68.2271C74.4382 70.095 74.3449 71.8696 73.6448 73.504C72.9914 75.1385 71.8247 76.5395 70.1446 77.7536C68.4645 78.9678 66.411 79.8084 63.9375 80.3688L50.9633 83.3108C49.6099 83.591 48.5365 83.4976 47.6498 82.9372C46.7631 82.3768 46.203 81.4428 45.8763 80.0886L39.9493 54.0306C39.6693 52.6763 39.7626 51.6023 40.3227 50.715C40.8827 49.8277 41.8161 49.2673 43.1695 48.9404L55.6303 46.0918C59.2239 45.2512 62.3041 45.438 64.7776 46.5588C67.2511 47.6795 68.8378 49.5942 69.4445 52.3494C69.8646 54.124 69.7246 55.7585 69.0712 57.3462C68.4178 58.8873 67.3444 60.1948 65.8043 61.1755C68.0444 61.409 69.8179 62.1095 71.218 63.277ZM50.87 61.5024L57.2637 60.0548C58.9439 59.6812 60.1106 59.1208 60.8106 58.4203C61.464 57.7198 61.6507 56.7858 61.4174 55.6651C61.1373 54.4509 60.5773 53.657 59.6439 53.2834C58.7572 52.9098 57.4504 52.9098 55.7703 53.2834L49.3766 54.7311L50.87 61.5024ZM64.9642 72.1965C65.6176 71.4493 65.7576 70.4219 65.4776 69.1143C65.1976 67.8068 64.5909 66.9662 63.7042 66.5926C62.8174 66.219 61.464 66.219 59.6906 66.5926L52.4568 68.2271L54.1369 75.5588L61.3707 73.9243C63.1441 73.504 64.3575 72.9436 64.9642 72.1965Z" fill="#A3D676"/>
<path d="M49.7032 84.665C48.7232 84.665 47.8831 84.4316 47.1364 83.9646C46.0163 83.2641 45.2696 82.0499 44.8963 80.4622L38.9692 54.4042C38.5958 52.7697 38.7825 51.3687 39.4826 50.248C40.1826 49.1272 41.396 48.38 42.9828 48.0064L55.4436 45.1578C59.2705 44.2705 62.5841 44.4573 65.2909 45.6715C68.0911 46.9324 69.8645 49.1272 70.5646 52.2093C71.0313 54.1707 70.8913 56.0853 70.1446 57.8599C69.7245 58.8873 69.1178 59.8212 68.3711 60.6151C69.7245 60.9887 70.8913 61.6425 71.8713 62.4831C73.4581 63.8373 74.5315 65.7053 75.0449 68.0402C75.5116 70.1417 75.3716 72.1497 74.6248 73.971C73.8781 75.7923 72.5714 77.38 70.7513 78.6876C68.9778 79.9485 66.7843 80.9291 64.1708 81.4895L51.1967 84.4316C50.73 84.5717 50.2166 84.665 49.7032 84.665ZM59.9706 46.7923C58.7105 46.7923 57.4037 46.9324 55.957 47.2592L43.4962 50.1079C42.4694 50.3414 41.7694 50.7617 41.3494 51.3687C40.976 51.9758 40.8827 52.8164 41.116 53.8438L47.0431 79.9018C47.2764 80.9291 47.6964 81.6296 48.3031 82.0499C48.9099 82.4235 49.7499 82.5169 50.7766 82.2834L63.7508 79.3414C66.0376 78.8277 67.9978 77.9871 69.5379 76.8663C71.0313 75.7923 72.058 74.5314 72.6647 73.0837C73.2714 71.6361 73.3648 70.1417 72.9914 68.4605C72.5714 66.5926 71.778 65.1449 70.5179 64.0708C69.3045 62.9968 67.7644 62.4364 65.8509 62.2963C65.3843 62.2496 64.9642 61.9227 64.8709 61.4557C64.7309 60.9887 64.9642 60.5217 65.3376 60.2415C66.691 59.3543 67.6244 58.2802 68.1844 56.9259C68.7445 55.5716 68.8378 54.1707 68.4644 52.6296C67.9044 50.248 66.5977 48.6135 64.4042 47.6328C63.0974 47.0725 61.604 46.7923 59.9706 46.7923ZM54.0902 76.6795C53.5768 76.6795 53.1101 76.3526 53.0168 75.839L51.3367 68.5072C51.29 68.227 51.3367 67.9001 51.4767 67.6667C51.6167 67.4332 51.8967 67.2464 52.1767 67.153L59.4105 65.5185C61.464 65.0515 63.0041 65.0515 64.1242 65.5652C65.3376 66.1256 66.1776 67.2464 66.551 68.8808C66.9244 70.5153 66.691 71.8696 65.8043 72.8969C65.0109 73.8309 63.6108 74.5314 61.5573 74.9984L54.3235 76.6328C54.2302 76.6795 54.1835 76.6795 54.0902 76.6795ZM53.7635 69.0676L54.9302 74.2045L61.0906 72.8035C63.0041 72.3832 63.7975 71.8229 64.1242 71.4493C64.2642 71.2625 64.7309 70.7488 64.4042 69.3478C64.0775 67.9468 63.4708 67.6667 63.2374 67.5733C62.7707 67.3865 61.8374 67.1997 59.9239 67.6667L53.7635 69.0676ZM50.87 62.5765C50.6833 62.5765 50.4499 62.5298 50.2633 62.3897C50.0299 62.2496 49.8432 61.9694 49.7499 61.6892L48.2098 54.9646C48.0698 54.3575 48.4432 53.7504 49.0499 53.657L55.4436 52.2093C57.3571 51.789 58.8505 51.789 60.0172 52.256C60.8573 52.6296 61.9774 53.4702 62.4441 55.3849C62.8641 57.2528 62.2107 58.467 61.5573 59.1675C60.7173 60.0547 59.4105 60.6618 57.4971 61.0821L51.1033 62.5298C51.0567 62.5765 50.9633 62.5765 50.87 62.5765ZM50.6833 55.5716L51.71 60.1481L57.0304 58.934C58.8505 58.5137 59.6439 58 60.0172 57.6264C60.2506 57.3462 60.5773 56.8792 60.3439 55.8985C60.1106 54.7778 59.5972 54.4509 59.2239 54.3108C58.7572 54.124 57.8238 53.9839 56.0036 54.3575L50.6833 55.5716Z" fill="#87B758"/>
<path d="M38.0825 48.1932C35.9823 50.4815 35.0956 53.0966 37.3824 55.1981C39.6692 57.2995 43.2628 57.1594 45.363 54.8245C47.4631 52.5362 47.3231 48.9404 44.9896 46.839C42.7028 44.7842 40.1826 45.905 38.0825 48.1932Z" fill="#C9ADB5"/>
<path d="M41.1627 57.8132C39.4826 57.8132 37.8491 57.2061 36.589 56.0386C35.2356 54.7778 34.6756 53.2834 34.9556 51.6022C35.1889 50.248 35.9357 48.847 37.2424 47.446C38.5492 46.0451 39.8559 45.1578 41.1627 44.7842C42.7961 44.3639 44.3829 44.7842 45.7363 46.0451C48.4898 48.5668 48.6765 52.8631 46.1563 55.6183C44.9429 56.9726 43.2628 57.7198 41.4894 57.8132C41.396 57.8132 41.3027 57.8132 41.1627 57.8132ZM38.8759 48.9404C37.8958 50.0145 37.2891 51.0418 37.1491 51.9758C37.0091 52.9098 37.2891 53.657 38.1291 54.4042C39.0159 55.2447 40.1826 55.665 41.396 55.5716C42.6094 55.5249 43.7295 55.0112 44.5696 54.0773C46.2497 52.2093 46.1097 49.3607 44.2895 47.6328C43.4962 46.8856 42.7028 46.6522 41.7694 46.8856C40.836 47.1658 39.8559 47.8663 38.8759 48.9404Z" fill="#AB8D96"/>
<path d="M83.7254 58.1401C85.3588 55.4782 85.7322 52.723 83.072 51.1353C80.4119 49.5008 76.9116 50.3414 75.2782 53.0032C73.6448 55.665 74.4848 59.1675 77.145 60.8019C79.8518 62.3897 82.092 60.8019 83.7254 58.1401Z" fill="#C9ADB5"/>
<path d="M79.2917 62.5298C78.405 62.5298 77.4716 62.2496 76.5849 61.6892C75.0448 60.7552 73.9714 59.2609 73.5514 57.4863C73.1313 55.7117 73.4114 53.8905 74.3448 52.3494C76.3049 49.1739 80.4585 48.1465 83.632 50.1079C85.2188 51.0886 86.0588 52.4428 86.1055 54.1707C86.1522 55.525 85.6388 57.066 84.6588 58.7005C83.6787 60.3349 82.512 61.4557 81.2985 62.0628C80.6452 62.3897 79.9918 62.5298 79.2917 62.5298ZM80.1318 51.4154C78.5917 51.4154 77.0983 52.2093 76.2582 53.6103C75.6048 54.6377 75.4182 55.8518 75.6982 57.066C75.9782 58.2335 76.7249 59.2609 77.7516 59.8679C78.685 60.4283 79.5251 60.5217 80.3651 60.1014C81.2052 59.7278 82.0453 58.8406 82.792 57.5797C83.5387 56.3188 83.9587 55.1981 83.912 54.2641C83.8654 53.3301 83.4453 52.6296 82.512 52.0692C81.7652 51.6489 80.9252 51.4154 80.1318 51.4154Z" fill="#AB8D96"/>
<path d="M27.3018 25.7778C24.5016 22.4622 17.9212 21.5749 11.6675 26.4783C5.50707 31.0081 -0.37331 41.3752 1.44681 53.3301C2.70689 65.3784 10.9674 73.9243 18.0612 76.8196C25.3417 79.9485 31.5021 77.4734 33.3689 73.5507C37.3825 65.2383 28.3285 61.0354 27.0218 50.0612C25.575 39.1337 33.2755 32.8293 27.3018 25.7778Z" fill="#FFFFA1"/>
<path d="M26.5083 71.8696C26.3216 71.8696 26.1816 71.8229 25.995 71.7295C25.8549 71.6361 21.9814 69.6747 17.9678 65.8454C12.6474 60.7085 9.66056 54.6377 9.38054 48.2866C9.00718 39.6474 13.3008 33.5765 16.941 29.9807C17.3611 29.5604 18.0611 29.5604 18.5278 29.9807C18.9478 30.401 18.9478 31.1015 18.5278 31.5684C15.1676 34.8374 11.294 40.3945 11.6207 48.1932C11.854 54.0306 14.5142 59.401 19.4612 64.211C23.1948 67.8535 26.9283 69.7681 26.975 69.7681C27.535 70.0483 27.7217 70.7021 27.4884 71.2625C27.3017 71.6361 26.9283 71.8696 26.5083 71.8696Z" fill="#FFE4A9"/>
<path d="M21.2346 47.0258C21.188 48.0064 22.028 48.847 23.0081 48.8937C24.0348 48.9404 24.8749 48.1465 24.9216 47.1192C24.9682 46.1385 24.1282 45.2979 23.1481 45.2512C22.0747 45.2045 21.2346 45.9984 21.2346 47.0258Z" fill="#5F5C5D"/>
<path d="M8.44717 46.6522C8.4005 47.6329 9.24055 48.4734 10.2206 48.5201C11.2473 48.5668 12.0874 47.773 12.1341 46.7456C12.1807 45.7649 11.3407 44.9243 10.3606 44.8776C9.33389 44.8776 8.49384 45.6715 8.44717 46.6522Z" fill="#5F5C5D"/>
<path d="M24.5016 79.3881C22.5881 79.3881 20.2546 79.0145 17.5945 77.8937C10.174 74.8583 1.63343 65.9388 0.326678 53.5169C-1.54011 41.1417 4.52695 30.401 10.9674 25.591C14.8876 22.5555 18.4812 21.9485 20.768 21.9485C23.8015 21.9952 26.4617 23.1159 28.1418 25.0773C31.9221 29.5604 30.7553 33.8567 29.4952 38.4799C28.6085 41.7955 27.5351 45.5314 28.1418 50.0145C28.7018 54.4976 30.6153 57.8599 32.3421 60.8486C34.7222 64.9581 36.9624 68.8341 34.3955 74.1578C33.2755 76.446 30.942 78.2206 28.0485 79.0145C27.0684 79.1546 25.9017 79.3881 24.5016 79.3881ZM20.6747 24.1433C18.1078 24.1433 15.1676 25.0773 12.3208 27.3188C6.39374 31.7552 0.793375 41.7021 2.52015 53.19V53.2367C3.73357 64.7713 11.6207 73.037 18.4345 75.7923C23.5215 77.9871 30.1019 77.5668 32.3421 73.0837C34.3956 68.8808 32.6688 65.9388 30.3353 61.876C28.5152 58.7005 26.4617 55.1514 25.855 50.2013C25.2016 45.2979 26.275 41.3285 27.2551 37.8261C28.5152 33.2963 29.4019 30.0274 26.3684 26.4782C25.2016 25.0306 23.1015 24.1433 20.6747 24.1433Z" fill="#F9CB71"/>
<path d="M16.5678 50.9018C16.5211 50.9018 16.5211 50.9018 16.4744 50.9018C14.4676 50.8551 12.8342 49.1272 12.8809 47.1191C12.8809 46.5121 13.3942 45.9984 14.0009 46.0451C14.6076 46.0451 15.0743 46.5588 15.0743 47.1658C15.0743 47.9597 15.681 48.6602 16.4744 48.6602C17.2678 48.6602 17.9679 48.0531 17.9679 47.2592C17.9679 46.6522 18.4812 46.1852 19.0879 46.1852C19.6946 46.1852 20.1613 46.6989 20.1613 47.3059C20.1613 49.314 18.5279 50.9018 16.5678 50.9018Z" fill="#5F5C5D"/>
<path d="M24.9216 31.6151C23.4282 31.6151 22.0747 30.9613 21.0947 29.8406C20.2079 28.7665 19.7879 27.3655 19.9279 26.0113C20.0679 24.6103 20.8147 23.3494 21.8881 22.5089L27.2551 18.446C28.5618 17.4654 30.3353 17.4187 31.6887 18.306C32.5754 18.8663 33.1354 19.7536 33.3688 20.7343C33.6021 21.7617 33.4155 22.789 32.8554 23.6296L29.2152 29.2802C28.3285 30.6345 26.9284 31.475 25.2949 31.5684C25.1549 31.6151 25.0149 31.6151 24.9216 31.6151Z" fill="#5F5C5D"/>
<path d="M40.6493 83.591C40.2292 84.6184 39.4358 85.2721 38.3158 85.6457C37.1957 86.0193 36.1223 85.9726 35.0956 85.5056C34.3955 85.2254 33.8355 84.7584 33.4155 84.1047C32.9954 83.4976 32.7621 82.7504 32.7621 81.8631L32.6687 76.3527L17.8278 69.9549L13.7208 73.6908C13.0675 74.2979 12.3674 74.6248 11.6207 74.7182C10.874 74.8116 10.1273 74.7182 9.42723 74.438C8.4005 73.971 7.60712 73.2238 7.04708 72.1498C6.48704 71.0757 6.44037 70.0483 6.90707 69.0209C7.14042 68.4605 7.51378 67.9469 8.02714 67.4799L30.8486 47.8196C31.5953 47.1659 32.4821 46.7923 33.4155 46.6522C34.3955 46.5588 35.3289 46.6989 36.309 47.1192C37.2424 47.4927 37.9891 48.0998 38.5958 48.8937C39.2025 49.6876 39.5292 50.5749 39.5759 51.5556L40.9759 81.6296C40.9759 82.4235 40.8826 83.0773 40.6493 83.591ZM32.5287 68.8341L32.3421 56.6457L23.3348 64.9114L32.5287 68.8341Z" fill="#E27FA3"/>
<path d="M36.869 87C36.1223 87 35.3756 86.8599 34.6755 86.533C33.7888 86.1594 33.0421 85.5523 32.5287 84.7584C31.9687 83.9646 31.6887 82.9839 31.6887 81.9098L31.642 77.0998L18.1078 71.2625L14.5142 74.5314C13.6742 75.2786 12.7874 75.6989 11.8074 75.839C10.8273 75.979 9.89391 75.839 9.00719 75.4654C7.7471 74.905 6.76704 73.971 6.067 72.6634C5.36695 71.3092 5.32028 69.9549 5.88032 68.6006C6.16034 67.9001 6.6737 67.2464 7.32708 66.686L30.1486 47.0258C31.0819 46.2319 32.1554 45.7649 33.3221 45.6248C34.4888 45.4847 35.6556 45.6715 36.7757 46.1385C37.8491 46.6055 38.7824 47.3059 39.4825 48.2399C40.2292 49.2206 40.6492 50.3414 40.6959 51.5555L42.096 81.6296C42.1427 82.5169 42.0027 83.3108 41.676 84.0113C41.1159 85.3188 40.0892 86.2061 38.6891 86.6731C38.0824 86.9066 37.4757 87 36.869 87ZM17.8278 68.8808C17.9678 68.8808 18.1078 68.9275 18.2478 68.9742L33.0887 75.372C33.5088 75.5588 33.7421 75.9324 33.7421 76.3993L33.8355 81.9098C33.8355 82.5636 34.0221 83.124 34.3022 83.5443C34.6288 84.0113 35.0022 84.2915 35.5156 84.5249C36.309 84.8518 37.1023 84.8985 37.9891 84.6183C38.7824 84.3382 39.3425 83.9179 39.6225 83.1707C39.8092 82.7971 39.8559 82.2834 39.8559 81.7697L38.4558 51.6956C38.4091 50.9018 38.1757 50.248 37.709 49.6409C37.1957 48.9871 36.6356 48.5201 35.8889 48.1932C35.0955 47.8663 34.3488 47.7262 33.5554 47.8196C32.8087 47.913 32.1554 48.1932 31.5953 48.7069L8.77384 68.3671C8.40048 68.694 8.07379 69.0676 7.93378 69.4879C7.6071 70.1884 7.65377 70.8889 8.07379 71.6828C8.49382 72.5233 9.10053 73.0837 9.89391 73.4573C10.4073 73.6908 10.9206 73.7375 11.4807 73.6441C11.994 73.5507 12.5074 73.3172 13.0208 72.8502L17.1277 69.1143C17.2677 68.9742 17.5477 68.8808 17.8278 68.8808ZM32.5287 69.9082C32.3887 69.9082 32.2487 69.8615 32.1087 69.8148L22.9148 65.8454C22.5881 65.7053 22.308 65.3784 22.2614 65.0048C22.2147 64.6312 22.308 64.2576 22.5881 64.0241L31.5953 55.7584C31.922 55.4782 32.3887 55.3849 32.7621 55.5716C33.1821 55.7584 33.4154 56.132 33.4154 56.5523L33.6021 68.7407C33.6021 69.1143 33.4154 69.4879 33.0887 69.6747C32.9954 69.8615 32.7621 69.9082 32.5287 69.9082ZM25.3882 64.5378L31.4086 67.153L31.2686 59.0741L25.3882 64.5378Z" fill="#DD528B"/>
<path d="M1.44678 53.3301C2.66019 59.1208 17.3611 67.9002 19.1346 61.7826C20.488 57.066 12.3675 56.6924 9.61397 53.9372L1.44678 53.3301Z" fill="#FFFFA1"/>
<path d="M15.961 65.0048C15.8677 65.0048 15.7744 65.0048 15.681 65.0048C13.1142 64.9114 9.66063 63.4171 6.39376 61.0821C4.80699 59.9147 1.02674 56.8792 0.326696 53.5636C0.186687 52.9565 0.606714 52.3961 1.16675 52.256C1.77346 52.1159 2.33349 52.5362 2.4735 53.0966C3.26689 56.7858 11.1541 62.5765 15.7277 62.7633C17.4078 62.81 17.8278 62.1095 18.0145 61.5024C18.5745 59.6345 16.9878 58.7939 13.4875 57.3462C11.7141 56.6457 9.94065 55.8985 8.77391 54.7311C8.35388 54.3108 8.35388 53.6103 8.77391 53.1433C9.19394 52.723 9.89398 52.723 10.3607 53.1433C11.2007 53.9839 12.7875 54.6377 14.3276 55.2448C15.8677 55.8985 17.5011 56.5523 18.6679 57.4863C20.1613 58.7472 20.6747 60.2882 20.1613 62.0628C19.6479 63.9774 18.1545 65.0048 15.961 65.0048Z" fill="#F9CB71"/>
<path d="M28.9819 47.3527C26.9284 47.8197 25.435 48.8937 25.9017 50.9485C26.3684 53.0032 28.4218 54.3108 30.4753 53.8438C32.5288 53.3768 33.8355 51.3221 33.3688 49.2673C32.8554 47.2126 31.0353 46.8857 28.9819 47.3527Z" fill="#FFFFA1"/>
<path d="M29.5886 55.058C28.6552 55.058 27.7685 54.7778 26.9751 54.3108C25.855 53.6103 25.1083 52.4895 24.8283 51.2287C24.5483 49.8744 24.8283 48.7069 25.715 47.8196C26.4151 47.1192 27.4418 46.6055 28.7485 46.3253C31.7354 45.6715 33.8822 46.6989 34.3956 49.1272C34.6756 50.3881 34.4422 51.7423 33.7422 52.8631C33.0422 53.9839 31.9221 54.7311 30.662 55.0113C30.3353 55.0113 29.962 55.058 29.5886 55.058ZM30.4753 48.2866C30.1486 48.2866 29.7286 48.3333 29.2152 48.4267C28.3285 48.6135 27.6751 48.9404 27.2551 49.314C27.0218 49.5475 26.7884 49.9211 26.9284 50.715C27.0684 51.4155 27.4885 52.0225 28.1418 52.3961C28.7485 52.7697 29.4953 52.9098 30.1953 52.7697C31.6421 52.4428 32.5755 50.9952 32.2488 49.5475C32.1554 49.1739 31.9688 48.2866 30.4753 48.2866Z" fill="#F9CB71"/>
</g>
<defs>
<clipPath id="clip0_17_349">
<rect width="103" height="87" fill="white"/>
</clipPath>
</defs>
</svg>
