<svg width="53" height="37" viewBox="0 0 53 37" fill="none" xmlns="http://www.w3.org/2000/svg">
<path d="M28.791 1.9672C27.9388 1.35845 26.8431 1.05408 25.2603 1.05408L6.99791 1.17583C5.71955 1.17583 4.74554 1.35845 3.83243 1.66282C2.85843 2.02807 2.12795 2.69769 1.64095 3.48906C1.21483 4.28043 0.971331 5.25443 1.03221 6.41105L1.15393 31.1262C1.15393 32.8306 1.64092 34.109 2.67579 35.0221C3.64979 35.8744 4.86728 36.3005 6.32827 36.3005C7.78926 36.3005 8.9459 35.8744 9.91989 34.9613C10.8939 34.0481 11.3809 32.7698 11.3809 31.0653L11.32 21.6906C14.4246 21.6906 17.5292 21.8123 20.6338 21.6297C23.3732 21.508 25.7473 19.073 23.9211 16.3336C22.6427 14.3856 20.3903 14.2639 18.2597 14.3248C16.3726 14.3248 14.4855 14.3248 12.5984 14.3856C12.1114 14.3856 11.6852 14.3856 11.1982 14.3856L11.1374 8.60253L25.1386 8.54166C26.6604 8.54166 27.817 8.23729 28.6084 7.56767C29.5215 6.89804 30.0085 5.92405 29.9477 4.76743C30.1912 3.67169 29.7042 2.69769 28.791 1.9672Z" fill="#0086B6" stroke="#221F1F" stroke-width="0.820712" stroke-miterlimit="10" stroke-linecap="round" stroke-linejoin="round"/>
<path opacity="0.4" d="M28.7912 1.9672C28.0607 1.41933 27.0259 1.11495 25.6866 1.05408C26.2345 1.41933 26.7215 1.84545 27.0259 2.51507C27.6346 3.79344 26.8432 5.5588 25.6257 6.16755C23.1908 7.38504 19.9035 7.14154 17.3468 7.26329C14.7292 7.38504 12.6594 7.01979 10.2245 7.20242C10.4071 10.1244 10.0418 12.8029 10.3462 15.7249C11.0767 15.7249 12.1116 15.6031 12.4768 15.6031C13.7552 15.5422 15.0335 15.5422 16.3728 15.5422C18.3817 15.5422 20.0253 15.4814 21.608 16.8815C23.556 18.586 21.4863 20.2296 19.66 20.4731C16.5554 20.8383 13.2682 20.7775 10.1027 20.7775C10.2245 22.0558 10.1636 23.3951 10.1027 24.7343C10.0418 26.8649 10.4071 29.1782 9.92009 31.3088C9.37222 33.5611 7.48512 35.4483 4.98926 34.4743C3.22389 33.8046 2.06725 32.4654 1.27588 30.8827V31.187C1.27588 32.8915 1.76288 34.1699 2.79775 35.083C3.77174 35.9353 4.98923 36.3614 6.45022 36.3614C7.91122 36.3614 9.06785 35.9353 10.0418 35.0221C11.0158 34.109 11.5028 32.8307 11.5028 31.1262L11.442 21.7515C14.5466 21.7515 17.6512 21.8732 20.7558 21.6906C23.4951 21.5688 25.8693 19.1339 24.043 16.3945C22.7646 14.4465 20.5123 14.3248 18.3817 14.3856C16.4946 14.3856 14.6074 14.3856 12.7203 14.4465C12.2333 14.4465 11.8072 14.4465 11.3202 14.4465L11.2593 8.66341L25.2605 8.60253C26.7824 8.60253 27.939 8.29816 28.7304 7.62854C29.6435 6.95892 30.1305 5.98492 30.0696 4.82831C30.1913 3.67169 29.7044 2.69769 28.7912 1.9672Z" fill="#0086B6"/>
<path d="M6.02405 2.27157C3.22381 3.06295 2.31071 5.31531 2.31071 7.99379C2.31071 12.0724 2.06722 16.2119 2.43246 20.2905C2.49334 20.8992 3.40644 20.534 3.40644 20.047C3.46732 17.3685 3.28469 14.1421 3.28469 11.4028C3.28469 7.81117 2.67596 4.82831 6.08494 2.51507C6.20669 2.4542 6.20667 2.2107 6.02405 2.27157Z" fill="white"/>
<path d="M2.79778 21.508C2.67603 21.3862 2.43255 21.508 2.43255 21.6906C2.37167 21.995 2.31079 22.2385 2.31079 22.5428C2.31079 22.8472 2.31079 23.1516 2.31079 23.3951C2.31079 23.6386 2.61516 23.7603 2.79778 23.6386C3.04128 23.5168 3.22391 23.3342 3.22391 23.0298C3.22391 22.6037 3.2239 21.8732 2.79778 21.508Z" fill="white"/>
<path d="M28.8521 13.4725C28.8521 14.5074 29.3391 15.4205 30.2522 16.0292C31.0436 16.5771 32.0784 16.8206 33.4176 16.8206H34.1482L34.2091 31.4305C34.2091 32.9524 34.696 34.1699 35.6092 35.0221C36.5223 35.8744 37.618 36.3005 38.9573 36.2396C40.3574 36.2396 41.4531 35.8135 42.3662 34.9613C43.2794 34.109 43.7663 32.8915 43.7663 31.3696L43.7055 16.7597H44.1925C45.5926 16.7597 46.7492 16.5771 47.6015 16.2727C48.332 16.0292 49.4886 15.2987 49.4886 13.229C49.4886 11.7071 48.5754 9.94177 44.1925 9.94177H43.7055V9.75914C43.7055 8.54165 43.8881 7.9329 44.0707 7.62853C44.1316 7.50678 44.4969 7.26328 45.4709 7.26328C45.897 7.26328 46.384 7.32416 47.0536 7.38503C47.7841 7.50678 48.3319 7.50678 48.6363 7.50678C49.5494 7.50678 50.3408 7.20241 51.0104 6.59366C51.6801 5.98491 52.0453 5.13267 52.0453 4.28042C52.0453 1.78456 49.4886 0.506195 44.5577 0.506195C42.0619 0.506195 40.1139 0.810568 38.592 1.35844C36.9484 1.96719 35.7918 3.00206 35.0613 4.40217C34.3917 5.68054 34.0873 7.32416 34.0873 9.45477V10.0026H33.6003C29.4608 10.1244 28.8521 12.255 28.8521 13.4725Z" fill="#16AAB4" stroke="#221F1F" stroke-width="0.820712" stroke-miterlimit="10" stroke-linecap="round" stroke-linejoin="round"/>
<path opacity="0.5" d="M45.4707 7.38506C45.8968 7.38506 46.3838 7.44593 47.0534 7.50681C47.7839 7.62856 48.3318 7.62856 48.6361 7.62856C49.5493 7.62856 50.3406 7.32418 51.0103 6.71544C51.6799 6.10669 52.0451 5.25444 52.0451 4.4022C52.0451 2.88033 51.0711 1.78459 49.184 1.17584C49.9754 2.21071 50.158 3.6717 48.7579 4.6457C47.4795 5.55882 46.0794 5.61969 44.6184 5.68057C42.2443 5.74144 42.3661 9.02867 42.4878 11.0375C44.1923 11.0984 47.6622 11.4637 47.0534 13.8986C46.5664 15.9075 44.0705 15.9684 42.3661 15.8466C42.1834 18.8295 42.3052 21.8124 42.1834 24.7952C42.1226 26.9867 42.3052 29.6652 41.3312 31.7349C39.7484 35.083 35.8525 34.2917 35.4264 30.7001C35.1829 28.5086 35.4264 26.2562 35.4264 24.0038C35.4264 22.482 35.3655 20.8992 35.4264 19.3165C35.4872 18.586 35.609 17.6729 35.4264 16.9424C35.0611 15.4814 34.0262 16.0293 33.174 15.9684C31.1651 15.7858 29.1562 14.5074 28.8519 12.8638C28.791 13.1073 28.791 13.2899 28.791 13.4725C28.791 14.5074 29.278 15.4205 30.1911 16.0293C30.9825 16.5771 32.0174 16.8206 33.3566 16.8206H34.0871L34.148 31.4305C34.148 32.9524 34.635 34.1699 35.5481 35.0222C36.4612 35.8744 37.557 36.3005 38.8962 36.2396C40.2963 36.2396 41.3921 35.8135 42.3052 34.9613C43.2183 34.109 43.7053 32.8915 43.7053 31.3697L43.6444 16.7598H44.1314C45.5316 16.7598 46.6882 16.5771 47.5404 16.2728C48.2709 16.0293 49.4275 15.2988 49.4275 13.229C49.4275 11.7072 48.5144 9.94179 44.1314 9.94179H43.6444V9.75917C43.6444 8.54168 43.8271 7.93293 44.0097 7.62856C44.1314 7.56768 44.4967 7.38506 45.4707 7.38506Z" fill="#3EB3E6"/>
<path d="M41.3922 1.96721C39.8703 1.66283 37.7397 2.9412 36.8874 4.15869C35.4873 6.16756 35.5482 8.66342 35.6091 11.0375C35.6091 11.5245 36.3396 11.2202 36.4004 10.8549C36.5222 9.21129 36.5831 7.44592 37.0701 5.86318C37.6179 4.09782 39.5659 2.57595 41.3313 2.14983C41.453 2.14983 41.5139 2.02808 41.3922 1.96721Z" fill="white"/>
<path d="M32.9307 11.1592C32.322 10.7331 31.2871 11.281 30.8001 11.7071C30.1913 12.255 30.0087 12.9855 30.1913 13.716C30.1913 13.8377 30.374 13.7769 30.4349 13.6551C30.4349 13.0464 30.6784 12.4985 31.1654 12.1941C31.6524 11.8897 32.2002 11.9506 32.6872 11.7071C32.8698 11.6462 33.1742 11.3419 32.9307 11.1592Z" fill="white"/>
</svg>
