<svg width="59" height="37" viewBox="0 0 59 37" fill="none" xmlns="http://www.w3.org/2000/svg">
<path d="M10.7282 30.5886L10.6674 21.5183H12.1284C13.3459 21.5183 14.3807 21.64 15.1721 21.8835C15.9026 22.127 16.6331 22.614 17.4245 23.2836C18.2158 24.075 19.1898 25.2316 20.2856 26.7535L23.3902 31.0756C24.1207 32.1104 24.7294 32.9018 25.1555 33.4497C25.7034 34.0584 26.3122 34.6063 27.0427 35.0324C27.834 35.4586 28.7471 35.7021 29.8429 35.7021C30.756 35.7021 31.5474 35.5194 32.2779 35.215C33.0084 34.9107 33.6171 34.4237 34.0432 33.8149C34.5302 33.2062 34.7737 32.4757 34.7737 31.8061C34.7737 31.1973 34.4694 30.3451 33.7997 29.0058C33.191 27.8492 32.3996 26.5708 31.3648 25.1707C30.3299 23.7706 29.1733 22.4314 27.834 21.2139C27.2862 20.7269 26.7992 20.3008 26.2513 19.8746C28.321 19.205 29.9646 18.3528 31.1821 17.257C33.0692 15.5525 33.9824 13.361 33.9824 10.5608C33.9824 9.22157 33.678 7.94321 33.1301 6.72572C32.5822 5.50823 31.73 4.47335 30.6951 3.56023C29.6603 2.70798 28.4428 1.9775 27.1644 1.55137C26.0687 1.12525 24.8512 0.881751 23.5119 0.760001C22.2336 0.638252 20.7117 0.577375 18.9463 0.577375L6.34527 0.638254C4.33641 0.638254 2.93629 1.06438 1.9623 1.91663C0.927427 2.76887 0.44043 4.10812 0.44043 5.93436L0.562179 30.6495C0.562179 32.2931 1.04918 33.5714 1.9623 34.4846C2.87542 35.3977 4.15378 35.8238 5.67565 35.8238C7.13664 35.8238 8.35414 35.3977 9.26725 34.5454C10.2413 33.6323 10.7282 32.2931 10.7282 30.5886ZM10.6065 14.3959V10.0738H15.6591C18.4593 10.0738 19.4942 10.2564 19.9203 10.3173C20.5291 10.4999 21.0161 10.7435 21.3813 11.0478C21.6857 11.3522 21.8683 11.7174 21.8683 12.1436C21.8683 12.6914 21.6857 13.1176 21.3204 13.3611C20.8943 13.6654 20.2247 13.9089 19.3724 14.0916C18.3376 14.2742 17.0592 14.3351 15.5982 14.3959H10.6065Z" fill="#37B1BA" stroke="#221F1F" stroke-width="0.820712" stroke-miterlimit="10" stroke-linecap="round" stroke-linejoin="round"/>
<path d="M17.0591 22.6749C14.685 20.3008 11.5804 19.6311 8.35404 19.8138C8.23229 22.9184 8.29316 26.023 8.11054 29.0667C7.98879 30.7712 7.68442 33.0844 5.97993 33.9976C4.09281 35.0324 2.14482 34.2411 0.866455 32.7192C1.10995 33.3888 1.4752 33.9976 1.9622 34.4846C2.87532 35.3977 4.15369 35.8238 5.67555 35.8238C7.13654 35.8238 8.35404 35.3977 9.26716 34.5454C10.2412 33.6323 10.7281 32.3539 10.7281 30.6494L10.6673 21.5791H12.1283C13.3458 21.5791 14.3806 21.7009 15.172 21.9444C15.9025 22.1879 16.633 22.6749 17.4244 23.3445C17.8505 23.7097 18.2766 24.1967 18.7636 24.8055C18.2157 24.0141 17.6679 23.2836 17.0591 22.6749Z" fill="#78BCBB"/>
<path d="M33.8001 29.0059C33.1914 27.8492 32.4 26.5709 31.3651 25.1707C30.3303 23.7706 29.1736 22.4314 27.8344 21.2139C27.2865 20.7269 26.7995 20.3008 26.2517 19.8747C28.3214 19.205 29.965 18.3528 31.1825 17.257C33.0696 15.5525 33.9827 13.3611 33.9827 10.5608C33.9827 9.22158 33.6784 7.94322 33.1305 6.72573C32.5826 5.50823 31.7304 4.47336 30.6955 3.56024C29.6606 2.70799 28.4431 1.9775 27.1648 1.55138C26.069 1.12526 24.8515 0.881759 23.5123 0.760009C22.7209 0.699135 21.8687 0.638262 20.9556 0.638262C21.3208 0.699136 21.6861 0.820882 22.0513 0.881757C25.582 1.79488 28.6258 4.22987 29.9041 7.69973C32.0348 13.6046 27.6518 17.3788 22.4774 18.8398C24.7298 21.153 26.9822 23.4662 28.9301 26.0839C30.1476 27.7275 32.0956 30.1625 31.1825 32.354C30.3911 34.2411 28.2605 34.9107 26.3125 34.4846C26.556 34.6672 26.7995 34.8498 27.043 34.9716C27.8344 35.3977 28.7475 35.6412 29.8433 35.6412C30.7564 35.6412 31.5478 35.4586 32.2783 35.1542C33.0087 34.8498 33.6175 34.3628 34.0436 33.7541C34.5306 33.1453 34.7741 32.4148 34.7741 31.7452C34.7741 31.1973 34.4697 30.3451 33.8001 29.0059Z" fill="#78BCBB"/>
<path d="M21.6249 14.2742C23.2685 13.6654 24.4251 11.2304 22.538 10.0738C20.4683 8.79546 17.8506 9.16071 15.4765 9.16071C13.5894 9.16071 11.5806 8.97809 9.81519 9.52596C10.1804 9.70858 10.4848 9.8912 10.8501 10.013H15.72C18.5203 10.013 19.5551 10.1956 19.9813 10.2564C20.59 10.4391 21.077 10.6826 21.4422 10.9869C21.7466 11.2913 21.9292 11.6566 21.9292 12.0827C21.9292 12.6306 21.7466 13.0567 21.3814 13.3002C20.9552 13.6046 20.2856 13.8481 19.4334 14.0307C18.3985 14.2133 17.1201 14.2742 15.6592 14.3351H11.3979C13.3459 14.6394 15.3548 14.7612 17.3636 14.7612C18.642 14.7612 20.2248 14.822 21.6249 14.2742Z" fill="#78BCBB"/>
<path d="M2.38869 28.8232C2.44957 27.8492 2.44957 26.8752 2.44957 25.9621C2.44957 23.8924 2.51044 21.8226 2.44957 19.7529C2.44957 16.6483 2.32782 13.5437 2.38869 10.3782C2.44957 7.57797 2.20607 4.29074 4.03231 1.9775C3.11919 2.28187 2.14519 3.49937 1.96257 4.41249C1.53645 7.15185 1.84082 10.013 1.77995 12.7523C1.71907 15.4308 1.71907 18.1093 1.77995 20.7878C1.84082 23.3445 1.59732 26.0839 2.02344 28.5797C2.08432 28.8232 2.26694 28.8841 2.38869 28.8232Z" fill="white"/>
<path d="M26.495 32.0496C24.9123 29.7363 22.9034 27.6057 21.138 25.4142C19.2509 23.1619 17.7291 21.2748 15.1723 19.9355C15.8419 20.7878 16.8768 21.3356 17.6682 22.127C18.6422 23.0401 19.5553 24.1359 20.4075 25.1707C22.3555 27.5448 24.1818 30.0407 26.1906 32.4148C26.2515 32.5366 26.6168 32.2322 26.495 32.0496Z" fill="white"/>
<path d="M47.3138 20.4225C47.3138 18.9615 47.4356 16.8918 49.2009 16.4657C50.3575 16.1613 51.5142 16.4048 52.6708 16.6483C52.9752 16.7092 53.2795 16.77 53.5839 16.8309C54.0709 16.8918 54.5579 16.9527 55.1058 16.8918C57.1755 16.7092 58.1495 14.3351 57.7234 12.5697C57.2364 10.6826 55.5319 9.58684 53.7056 9.22159C51.8794 8.85634 49.9314 9.03897 48.4096 10.1347C47.9834 10.4391 47.5573 10.8043 47.1312 11.2304C46.9486 10.9261 46.7659 10.6217 46.5833 10.3782C45.7919 9.46509 44.6353 8.97808 43.0526 9.03896C40.0697 9.03896 38.3652 10.987 38.3652 14.3351L38.487 31.0147C38.487 32.5366 38.974 33.7541 39.8871 34.6063C40.8002 35.4586 41.896 35.8238 43.2352 35.8238C44.5744 35.8238 45.7311 35.3977 46.6442 34.6063C47.3138 33.9976 47.8008 33.1453 47.9226 32.1105C47.7399 28.2145 47.2529 24.3185 47.3138 20.4225Z" fill="#7DCDCB" stroke="#221F1F" stroke-width="0.820712" stroke-miterlimit="10" stroke-linecap="round" stroke-linejoin="round"/>
<path d="M57.6624 12.5697C57.4798 11.8392 57.1145 11.2913 56.6275 10.8043C56.871 12.2653 56.4449 13.8481 54.8622 14.3959C52.3663 15.2482 50.9662 13.6654 48.5312 14.3351C45.731 15.0656 44.8787 18.718 45.1831 23.1619C45.4266 26.1447 45.3657 29.6146 45.1831 32.6583C45.1222 34.1802 44.27 35.5194 42.5655 35.5803C41.8959 35.5803 41.2871 35.5194 40.7393 35.2759C41.4698 35.6412 42.2611 35.8847 43.1742 35.8847C44.5135 35.8847 45.6701 35.4586 46.5832 34.6672C47.2528 34.0584 47.7398 33.2062 47.8616 32.1713C47.679 28.2753 47.192 24.4403 47.3137 20.5443C47.3137 19.0833 47.4355 17.0135 49.2008 16.5874C50.3575 16.2831 51.5141 16.5265 52.6707 16.77C52.9751 16.8309 53.2794 16.8918 53.5838 16.9527C54.0708 17.0135 54.5578 17.0744 55.1057 17.0135C57.0537 16.7092 58.0885 14.3351 57.6624 12.5697Z" fill="#78BCBB"/>
<path d="M41.4088 10.7435C38.7304 12.2044 39.6435 16.6483 39.6435 19.1441C39.6435 21.2748 39.8261 23.4054 39.8261 25.5969C39.8261 27.6666 39.7044 29.8581 40.0087 31.8669C40.0696 32.4148 40.861 31.9887 40.861 31.5626C40.8001 28.5188 40.861 25.4751 40.7392 22.4314C40.6784 20.7269 40.5566 19.0224 40.5566 17.257C40.4957 15.3699 40.1914 12.4479 41.5306 10.8652C41.5915 10.8043 41.5306 10.6826 41.4088 10.7435Z" fill="white"/>
<path d="M53.5229 10.5C53.2794 9.83033 52.2445 9.8912 51.6358 10.0129C50.7835 10.1347 50.053 10.6826 49.4443 11.2913C49.3834 11.3522 49.4443 11.5348 49.566 11.4131C50.1748 10.987 50.7835 10.8043 51.514 10.7434C52.0619 10.6826 52.6706 10.9869 53.2185 10.8652C53.462 10.8652 53.5838 10.6826 53.5229 10.5Z" fill="white"/>
</svg>
