<svg width="61" height="36" viewBox="0 0 61 36" fill="none" xmlns="http://www.w3.org/2000/svg">
<path d="M26.0869 35.083C27.487 35.083 28.5219 34.7786 29.3132 34.109C30.1655 33.3785 30.5916 32.4045 30.5916 31.2479C30.5916 30.0913 30.1046 29.0564 29.2523 28.3868C28.461 27.7172 27.4261 27.4128 26.026 27.4128L10.503 27.5345L10.4421 20.8383L24.1389 20.7775C25.539 20.7775 26.5738 20.4731 27.3043 19.8035C28.0957 19.1338 28.5218 18.1598 28.5218 17.0641C28.5218 15.9684 28.0957 14.9944 27.2435 14.3247C26.513 13.716 25.4781 13.4116 24.078 13.4116L10.3812 13.4725L10.3203 8.05465L25.2955 7.99378C26.6956 7.99378 27.7913 7.6894 28.5218 7.01978C29.3741 6.35016 29.8002 5.37617 29.8002 4.21955C29.8002 3.06293 29.3741 2.14981 28.5218 1.41931C27.7305 0.810568 26.6956 0.506195 25.2955 0.506195L6.42434 0.627944C5.26773 0.627944 4.29374 0.810568 3.50237 1.11494C2.58925 1.48019 1.91963 2.14981 1.49351 2.94118C1.06739 3.73255 0.884766 4.70655 0.884766 5.86316L1.00652 30.0304C1.00652 31.7958 1.4935 33.135 2.46749 33.9873C3.38061 34.8395 4.71986 35.2047 6.5461 35.2047L26.0869 35.083Z" fill="#F89832" stroke="#221F1F" stroke-width="0.820712" stroke-miterlimit="10" stroke-linecap="round" stroke-linejoin="round"/>
<path d="M29.252 28.4477C28.4606 27.778 27.4258 27.4737 26.0256 27.4737L10.5026 27.5345L10.4417 20.8383L24.1385 20.7775C25.5387 20.7775 26.5735 20.4731 27.304 19.8035C28.0954 19.1338 28.5215 18.1598 28.5215 17.0641C28.5215 15.9684 28.0954 14.9944 27.2431 14.3247C26.5126 13.716 25.4778 13.4116 24.0776 13.4116L10.3809 13.4725L10.32 8.05465L25.2951 7.99378C26.6953 7.99378 27.791 7.6894 28.5215 7.01978C29.3737 6.35016 29.7999 5.37617 29.7999 4.21955C29.7999 3.06293 29.3737 2.14981 28.5215 1.41932C28.0345 1.05407 27.4257 0.749694 26.6952 0.627945C27.1822 0.993193 27.5475 1.41932 27.7301 1.96719C28.2171 3.48905 27.7301 5.01092 26.2692 5.80229C23.895 7.08066 20.9122 6.95891 18.2946 6.95891C15.1291 6.95891 11.9636 6.83716 8.85898 7.14153C8.98073 9.57652 8.91988 11.9506 8.91988 14.3856C12.9376 14.69 17.0162 14.2639 21.0339 14.5074C22.921 14.6291 25.9039 15.0552 26.0256 17.4902C26.1474 19.9861 21.5818 19.56 20.1817 19.4991C16.4683 19.3165 12.9985 19.3773 9.28511 19.3773C9.10249 20.5948 9.16336 22.1167 9.16336 23.0907C9.22423 24.9169 9.22425 26.7432 9.22425 28.5694C12.0245 28.2042 15.1291 28.8738 17.9293 28.752C19.9991 28.6303 22.1905 28.5694 24.2603 28.9347C25.5995 29.1782 27.304 29.5434 27.6693 31.0653C28.0954 32.7698 26.1474 33.7438 24.869 34.1699C22.8601 34.7786 20.6687 34.596 18.5989 34.5351C14.703 34.4743 10.8679 34.6569 6.97188 34.7786C5.99789 34.7786 4.71953 34.8395 3.44116 34.7178C4.23253 35.083 5.26739 35.2656 6.54575 35.2656L25.9648 35.1439C27.3649 35.1439 28.3998 34.8395 29.1911 34.1699C30.0434 33.4394 30.4695 32.4654 30.4695 31.3088C30.5304 30.0913 30.1042 29.1173 29.252 28.4477Z" fill="#F89832"/>
<path d="M5.38958 2.02805C2.10235 2.21067 2.34585 6.83714 2.34585 9.08951C2.34585 14.3247 2.58938 19.5599 2.5285 24.856C2.5285 25.4648 3.50248 25.0387 3.50248 24.4908C3.50248 20.6557 3.4416 16.8815 3.38073 13.0464C3.25898 9.82 2.46762 4.40216 5.45048 2.33242C5.51136 2.21067 5.57221 2.02805 5.38958 2.02805Z" fill="white"/>
<path d="M3.38047 26.317C3.19785 25.9518 2.64999 26.2562 2.58911 26.6214C2.58911 26.8649 2.58911 27.1693 2.58911 27.4128C2.58911 28.1433 3.50223 27.778 3.50223 27.1693C3.50223 26.8649 3.5631 26.5605 3.38047 26.317Z" fill="white"/>
<path d="M34.6701 31.674C37.4704 34.0481 41.3055 35.2048 46.1754 35.2048C48.306 35.2048 50.1932 34.9613 51.8368 34.4743C53.4804 33.9873 54.8805 33.3785 55.9763 32.648C57.1329 31.9175 57.9851 31.0653 58.5939 30.213C59.2635 29.239 59.5678 28.3868 59.5678 27.5954C59.5678 26.5606 59.1417 25.7692 58.4113 25.1604C57.7416 24.6734 56.8894 24.4299 55.9154 24.4299C55.0022 24.4299 54.2109 24.6734 53.6021 25.0996C52.7499 25.7692 52.0194 26.3171 51.4715 26.7432C50.9845 27.1084 50.3758 27.4737 49.767 27.8389C49.2192 28.1433 48.6104 28.3868 48.0017 28.5085C47.3929 28.6303 46.7233 28.752 45.9319 28.752C44.8362 28.752 43.8622 28.5694 43.01 28.0824C42.1577 27.6563 41.4881 27.0475 41.0011 26.1953C40.6967 25.6474 40.4532 25.0996 40.3315 24.4908L52.8716 24.4299C54.9414 24.4299 56.5241 24.1864 57.6807 23.6386C58.7156 23.1516 59.9331 22.1167 59.9331 19.56C59.9331 17.7337 59.3244 15.9075 58.2286 14.1421C57.1329 12.3768 55.4284 10.9766 53.2369 9.8809C51.1063 8.84603 48.4887 8.29816 45.5058 8.29816C43.2535 8.29816 41.1837 8.6634 39.2966 9.27215C37.4095 9.94177 35.7659 10.8549 34.4266 12.0724C33.0874 13.2899 32.1134 14.7509 31.3829 16.3945C30.7133 18.0381 30.348 19.8643 30.4089 21.8123C30.4089 25.9518 31.8699 29.2999 34.6701 31.674ZM44.5927 14.2639C45.9319 14.2639 46.9668 14.7509 47.7582 15.7249C48.3061 16.3945 48.7322 17.4294 48.9148 18.6468L40.3315 18.7077C40.575 17.4902 41.0011 16.4554 41.549 15.7857C42.3403 14.7509 43.3752 14.2639 44.5927 14.2639Z" fill="#FFC52F" stroke="#221F1F" stroke-width="0.820712" stroke-miterlimit="10" stroke-linecap="round" stroke-linejoin="round"/>
<path d="M50.6194 17.0641C49.828 14.5074 47.2104 12.5594 44.5928 13.2899C42.7666 13.7769 41.0012 15.1161 40.8795 17.0641C41.0621 16.5771 41.3056 16.151 41.6099 15.7857C42.4013 14.8117 43.3753 14.2639 44.6537 14.2639C45.9929 14.2639 47.0278 14.7509 47.8192 15.7249C48.367 16.3945 48.7932 17.4294 48.9758 18.6469L40.3924 18.7077C40.3924 18.6469 40.3925 18.586 40.4533 18.5251C40.149 18.6469 39.9054 19.1947 39.6011 19.3773C42.0969 19.6817 44.1058 19.4382 46.2364 19.4991C48.4888 19.56 51.5934 20.1687 50.6194 17.0641Z" fill="#FFD730"/>
<path d="M58.3505 25.2213C57.6809 24.7343 56.8286 24.4908 55.8546 24.4908C54.9415 24.4908 54.1502 24.7343 53.5414 25.1604C52.6892 25.8301 51.9587 26.3779 51.4108 26.8041C50.9238 27.1693 50.3151 27.5345 49.7063 27.8998C49.1584 28.2042 48.5497 28.4477 47.9409 28.5694C47.3322 28.6912 46.6626 28.8129 45.8712 28.8129C44.7754 28.8129 43.8015 28.6303 42.9492 28.1433C42.097 27.7172 41.4273 27.1084 40.9403 26.2562C40.636 25.7083 40.3925 25.1604 40.2707 24.5517L52.8109 24.4908C54.8806 24.4908 56.4634 24.2473 57.62 23.6994C58.6549 23.2124 59.8724 22.1776 59.8724 19.6208C59.8724 17.7946 59.2636 15.9684 58.1679 14.203C57.0721 12.4376 55.3676 11.0375 53.1761 9.94177C51.2282 8.96778 48.9149 8.48078 46.3582 8.41991C49.5846 9.1504 52.8109 10.6723 54.7589 13.4116C56.7069 16.151 57.9244 20.9601 53.9675 22.6646C49.4628 24.6734 44.532 22.9081 39.8446 23.3951C36.5574 23.7603 40.3316 28.2042 41.9143 28.9955C43.9232 30.0304 46.8452 30.5174 48.9758 29.4825C50.2542 28.8129 55.0024 26.1344 54.6371 29.7869C54.3328 32.5871 50.6803 33.5611 48.4279 34.0481C44.2276 34.9004 39.4793 34.1699 35.8269 31.9175C34.1832 30.9435 32.9049 29.6652 31.9309 28.2042C32.6005 29.5434 33.5745 30.7 34.7311 31.674C37.5314 34.0481 41.3665 35.2048 46.2365 35.2048C48.3671 35.2048 50.2542 34.9613 51.8978 34.4743C53.5414 33.9873 54.9415 33.3785 56.0373 32.648C57.1939 31.9175 58.0461 31.0653 58.6549 30.213C59.3245 29.239 59.6289 28.3868 59.6289 27.5954C59.5071 26.6214 59.1419 25.7692 58.3505 25.2213Z" fill="#FFD730"/>
<path d="M40.8185 10.1244C36.0703 11.4636 31.87 14.9944 31.8091 20.2905C31.8091 20.8383 32.4787 20.5948 32.6004 20.2296C33.0266 17.612 33.7571 15.6031 35.6442 13.716C37.1052 12.255 39.1141 11.4636 40.8794 10.307C40.9403 10.2461 40.9403 10.1244 40.8185 10.1244Z" fill="white"/>
<path d="M32.4787 21.6906C32.357 21.2036 31.6873 21.5079 31.6873 21.8732C31.6873 22.1776 31.6265 22.4211 31.9309 22.6037C32.1135 22.7254 32.357 22.5428 32.4178 22.3602C32.5396 22.1167 32.5396 21.9341 32.4787 21.6906Z" fill="white"/>
</svg>
