<svg width="44" height="51" viewBox="0 0 44 51" fill="none" xmlns="http://www.w3.org/2000/svg">
<path d="M41.4164 26.5C40.4164 24.6 39.0163 22.9 37.3163 21.4C35.6163 20 33.6163 18.9 31.3163 18.1C26.6163 16.4 21.0164 16.4 14.6164 18.9L16.5164 10.3H34.6164C36.7164 10.3 38.3164 9.90004 39.4164 9.10004C40.6164 8.30004 41.2164 7.19999 41.2164 5.79999C41.2164 3.69999 40.0163 1.29999 34.4164 1.29999H13.6164C11.2164 1.29999 9.41635 1.80001 8.31635 2.70001C7.21635 3.60001 6.41636 5.10004 6.01636 7.10004L2.71637 22.5C2.31637 24.6 2.31635 24.7 2.31635 24.8C2.31635 26 2.91636 27 4.11636 27.9C5.21636 28.8 6.51635 29.2 7.91635 29.2C13.6164 29.2 21.0164 23.7 25.7164 29.5C26.6164 30.6 27.2164 32.7 27.0164 34.1C26.3164 38 22.3163 41.3 18.3163 41.1C16.3163 41 14.3164 40.2 12.9164 38.8C11.9164 37.8 11.2164 36.3 10.2164 35C9.11637 34 7.81637 33.5 6.21637 33.5C4.81637 33.5 3.51636 33.9 2.51636 34.8C1.51636 35.7 1.01636 36.7 1.01636 37.7C1.01636 39.2 1.61635 40.9 2.91635 42.9C4.21635 44.8 6.41635 46.5 9.41635 48C12.4164 49.5 16.3164 50.2 21.1164 50.2C25.4164 50.2 29.2164 49.4 32.5164 47.9C35.8164 46.4 38.4164 44.2 40.1164 41.6C41.9164 38.9 42.8163 36 42.8163 32.7C42.9163 30.6 42.4164 28.5 41.4164 26.5Z" fill="#FFF32A" stroke="#221F1F" stroke-width="1.3482" stroke-miterlimit="10" stroke-linecap="round" stroke-linejoin="round"/>
<path d="M37.7163 2.70001C38.7163 4.10001 37.5163 6.40004 36.2163 7.10004C33.5163 8.70004 30.2163 8.30002 27.2163 8.40002C22.7163 8.50002 18.3163 8.60004 13.8163 8.60004C13.6163 11 12.9163 13.3 12.5163 15.7C12.2163 17.7 11.8163 19.8 11.4163 21.8C12.3163 20.6 13.5163 19.7 14.8163 18.8L16.6163 10.3H34.7163C36.8163 10.3 38.4163 9.90004 39.5163 9.10004C40.7163 8.30004 41.3163 7.19999 41.3163 5.79999C41.3163 3.99999 40.4163 2.00002 36.6163 1.40002C37.0163 1.80002 37.4163 2.20001 37.7163 2.70001Z" fill="#F5C33A"/>
<path d="M41.4164 26.5C40.4164 24.6 39.0163 22.9 37.3163 21.4C35.6163 20 33.6163 18.9 31.3163 18.1C29.8163 17.6 28.2164 17.2 26.5164 17.1C32.2164 18.4 36.9163 22.1 38.3163 28.6C39.9163 35.8 36.3163 42.5 29.8163 45.9C23.9163 48.9 15.8163 50 9.81635 46.4C6.21635 44.2 2.91636 40.9 3.01636 36.4C3.01636 35.6 3.31637 34.9 3.71637 34.3C3.31637 34.5 2.91636 34.7 2.51636 35.1C1.51636 36 1.01636 37 1.01636 38C1.01636 39.5 1.61635 41.2 2.91635 43.2C4.21635 45.1 6.41635 46.8 9.41635 48.3C12.4164 49.8 16.3164 50.5 21.1164 50.5C25.4164 50.5 29.2164 49.7 32.5164 48.2C35.8164 46.7 38.4164 44.5 40.1164 41.9C41.9164 39.2 42.8163 36.3 42.8163 33C42.9163 30.6 42.4164 28.5 41.4164 26.5Z" fill="#F5C33A"/>
<path d="M12.0163 3.3C9.71627 4.8 8.81627 5.90005 8.11627 8.60005C7.21627 12.0001 6.11626 15.6001 5.91626 19.1001C5.91626 19.8001 6.61625 19.5001 6.81625 19.1001C7.71625 17.2001 8.01626 15 8.41626 12.9C8.81626 11 9.31625 9.2 9.81625 7.3C10.3163 5.5 11.0163 4.80001 12.2163 3.50001C12.5163 3.40001 12.3163 3.1 12.0163 3.3Z" fill="white"/>
<path d="M6.41641 21.3C6.51641 20.9 6.21641 20.8 5.91641 20.9C5.71641 20.9 5.41641 21.1 5.41641 21.3C5.31641 21.6 5.31641 21.8 5.31641 22.1C5.31641 22.7 6.21641 22.4 6.31641 21.9C6.41641 21.7 6.41641 21.5 6.41641 21.3Z" fill="white"/>
<path d="M19.0163 24.6C18.9163 24.6 18.8163 24.8 19.0163 24.8C24.2163 24.6 28.1164 27.7 28.6164 32.9C29.2164 38.5 25.0163 42 20.0163 43.2C19.6163 43.3 19.5163 44 20.0163 44C25.4163 43.3 29.5163 39.2 29.9163 33.7C30.3163 27.2 25.0163 23.6 19.0163 24.6Z" fill="white"/>
</svg>
