<svg width="44" height="51" viewBox="0 0 44 51" fill="none" xmlns="http://www.w3.org/2000/svg">
<path d="M40.7056 41.9C39.5056 41.1 37.8056 40.8 35.7056 40.8H16.6056C16.9056 40.5 17.2056 40.1 17.5056 39.9C18.9056 38.5 21.6056 36.4 25.5056 33.8C29.5056 31.1 32.3056 29.2 34.0056 28C35.7056 26.7 37.4056 25 39.1056 22.7C40.8056 20.4 41.6056 17.8 41.6056 15C41.6056 13.2 41.2056 11.5 40.4056 9.79999C39.6056 8.09999 38.4056 6.69996 37.0056 5.39996C35.6056 4.09996 33.9056 3.19996 32.0056 2.39996C29.1056 1.29996 25.6056 0.799988 21.5056 0.799988C18.1056 0.799988 15.1056 1.2 12.6056 2C10.1056 2.8 7.90559 3.89999 6.2056 5.29999C4.50559 6.69999 3.2056 8.19996 2.4056 9.89996C1.5056 11.6 1.1056 13.3 1.1056 14.8C1.1056 16.2 1.6056 17.4 2.6056 18.2C3.6056 19 4.80559 19.4 6.30559 19.4C8.00559 19.4 9.3056 18.9 10.2056 18C12.1056 16.1 12.6056 13.2 15.0056 11.6C18.5056 9.29998 23.6056 9.09996 26.0056 12.9C31.3056 21.1 19.1056 26.3 14.0056 30.1C10.6056 32.7 6.9056 35.2 3.9056 38.4C1.4056 41 -0.594406 45.3 2.80559 48C4.00559 49 5.70559 49.5 7.80559 49.5H36.7056C38.6056 49.5 40.0056 49.1 41.0056 48.2C42.0056 47.3 42.5056 46.3 42.5056 45C42.6056 43.8 42.0056 42.7 40.7056 41.9Z" fill="#00B9F1" stroke="#221F1F" stroke-width="1.3482" stroke-miterlimit="10" stroke-linecap="round" stroke-linejoin="round"/>
<path d="M6.30556 19.5C8.00556 19.5 9.30557 19 10.2056 18.1C12.1056 16.2 12.6056 13.3 15.0056 11.7C18.5056 9.39999 23.6056 9.19998 26.0056 13C27.3056 15 27.7056 17.7999 27.3056 19.3999C28.2056 17.9999 28.6056 16.1 28.2056 14.2C27.4056 9.89999 22.3056 6.89997 18.2056 7.79997C15.1056 8.49997 12.8056 10.3 10.7056 12.6C8.60557 15 5.50557 17.1999 2.90557 14.3999C2.10557 13.4999 1.70556 12.4999 1.80556 11.3999C1.40556 12.5999 1.20557 13.7 1.20557 14.8C1.20557 16.2 1.70557 17.4 2.70557 18.2C3.60557 19.1 4.80556 19.5 6.30556 19.5Z" fill="#00B9F1"/>
<path d="M36.7057 18.5C34.5057 23.3 29.4057 26.5 25.3057 29.5C20.3057 33.2 14.5057 36.9 11.3057 42.4C11.8057 42.6 15.6057 42.4 15.9057 42.4C17.9057 42.4 19.8057 42.4 21.7057 42.4C25.8057 42.2 29.9057 42.2 34.0057 42.2C36.8057 42.2 41.2057 42.8 42.5057 45.1C42.4057 43.8 41.8057 42.8 40.6057 42C39.4057 41.2 37.7057 40.9 35.6057 40.9H16.6057C16.9057 40.6 17.2057 40.2 17.5057 40C18.9057 38.6 21.6057 36.5 25.5057 33.9C29.5057 31.2 32.3057 29.3 34.0057 28.1C35.7057 26.8 37.4057 25.1 39.1057 22.8C40.8057 20.5 41.6057 17.9 41.6057 15.1C41.6057 13.3 41.2057 11.6 40.4057 9.89996C39.6057 8.19996 38.4057 6.8 37.0057 5.5C35.6057 4.2 33.9057 3.3 32.0057 2.5C30.9057 2.1 29.6057 1.8 28.3057 1.5C30.6057 2.2 32.7057 3.29998 34.4057 5.09998C38.0057 8.79998 38.9057 13.8 36.7057 18.5Z" fill="#00B9F1"/>
<path d="M19.0056 2.39999C13.7056 2.29999 6.90562 5.09999 5.00562 10.4C5.00562 10.4 5.00561 10.4 5.10561 10.4C6.70561 8.19999 9.00562 6.60001 11.4056 5.30001C13.8056 4.00001 16.4056 3.8 18.9056 3.1C19.2056 3 19.4056 2.39999 19.0056 2.39999Z" fill="white"/>
<path d="M22.3057 2.5C22.0057 2.5 21.7057 2.49998 21.5057 2.59998H21.4057C21.3057 2.59998 21.3057 2.69999 21.3057 2.79999C21.2057 2.89999 21.2057 3.09998 21.4057 3.09998C21.6057 3.09998 21.9057 3.20001 22.1057 3.20001C22.4057 3.20001 22.7057 2.5 22.3057 2.5Z" fill="white"/>
<path d="M21.1055 27.7C17.3055 30.7 12.9055 32.9 9.10552 36C6.40552 38.2 2.40552 41.2 3.40552 45.1C3.60552 45.7 4.50552 45.3 4.40552 44.7C3.90552 39.9 10.0055 36.4 13.2055 34C15.9055 32 18.7055 30.1999 21.2055 27.8999C21.4055 27.7999 21.2055 27.6 21.1055 27.7Z" fill="white"/>
<path d="M4.70567 45.9L4.60567 45.8C4.40567 45.5 3.80567 46.1 4.10567 46.3C4.20567 46.3 4.20566 46.4 4.30566 46.4C4.60566 46.6 4.90567 46.2 4.70567 45.9Z" fill="white"/>
</svg>
