<svg width="222" height="187" viewBox="0 0 222 187" fill="none" xmlns="http://www.w3.org/2000/svg">
<path d="M197.358 66.729C193.358 65.929 189.258 66.029 185.558 66.929C187.358 41.729 171.458 17.929 146.858 10.029C135.558 6.42896 123.958 3.92896 112.058 2.72896C85.8577 0.0289567 61.5577 15.429 52.9577 39.529C49.8577 37.129 46.1577 35.429 42.1577 34.629C27.5577 31.629 13.3577 41.029 10.3577 55.529C7.3577 70.129 16.7577 84.329 31.2577 87.329C38.6577 88.829 46.0577 87.129 51.8577 83.229C55.5577 92.529 62.8577 100.229 72.2577 104.229C73.4577 104.729 74.6577 105.229 75.8577 105.729C69.6577 118.429 61.7577 139.829 69.0577 155.129C79.9577 178.229 109.858 171.729 109.858 171.729L166.658 147.229C186.258 147.229 184.958 131.729 182.358 119.529L181.558 117.729C183.158 118.429 184.858 118.929 186.658 119.329C201.258 122.329 215.458 112.929 218.458 98.429C221.358 83.929 211.958 69.729 197.358 66.729Z" fill="#C9ADB5"/>
<path d="M197.858 64.429C194.558 63.729 191.258 63.629 188.058 64.029C188.258 52.229 184.758 40.529 178.058 30.629C170.758 19.829 159.958 11.729 147.558 7.72896C136.158 4.02896 124.258 1.62896 112.358 0.328961C99.1577 -1.07104 85.8577 2.02896 74.6577 9.02896C64.4577 15.429 56.4577 24.929 51.8577 35.929C49.0577 34.229 45.9577 33.029 42.6577 32.329C34.9577 30.729 27.1577 32.229 20.6577 36.529C14.1577 40.829 9.65771 47.429 8.05771 55.129C6.45771 62.829 7.95773 70.629 12.2577 77.129C16.5577 83.629 23.1577 88.129 30.8577 89.729C37.7577 91.129 44.7577 90.129 50.8577 86.729C55.1577 95.629 62.3577 102.629 71.4577 106.529C72.6577 107.029 74.0577 106.529 74.5577 105.329C75.0577 104.129 74.5577 102.729 73.3577 102.229C64.5577 98.429 57.7577 91.429 54.1577 82.429C53.8577 81.729 53.3577 81.229 52.6577 81.029C51.9577 80.829 51.2577 80.929 50.6577 81.329C45.1577 85.129 38.4577 86.429 31.8577 85.029C18.5577 82.329 10.0577 69.329 12.7577 56.029C14.0577 49.629 17.8577 44.129 23.3577 40.429C28.8577 36.829 35.3577 35.529 41.8577 36.929C45.4577 37.629 48.8577 39.229 51.7577 41.429C52.3577 41.929 53.1577 42.029 53.8577 41.829C54.5577 41.629 55.1577 41.029 55.4577 40.329C59.4577 29.129 67.2577 19.429 77.4577 13.029C87.7577 6.62896 100.058 3.72896 112.158 5.02896C123.758 6.22896 135.258 8.62896 146.458 12.229C157.858 15.829 167.758 23.329 174.458 33.229C181.158 43.129 184.358 54.929 183.458 66.629C183.358 67.429 183.758 68.129 184.258 68.629C184.858 69.129 185.658 69.329 186.358 69.129C189.958 68.229 193.558 68.229 197.158 68.929C203.558 70.229 209.058 74.029 212.758 79.529C216.358 85.029 217.658 91.529 216.258 98.029C213.558 111.329 200.558 119.829 187.258 117.129C180.658 115.729 175.058 111.929 171.458 106.129C171.058 105.529 170.458 105.129 169.758 105.029C169.058 104.929 168.358 105.229 167.858 105.729C160.858 112.629 151.658 116.429 141.858 116.429C141.758 116.429 141.758 116.429 141.658 116.429C140.358 116.429 139.258 117.529 139.258 118.829C139.258 120.129 140.358 121.229 141.658 121.229C141.758 121.229 141.758 121.229 141.858 121.229C151.958 121.229 161.558 117.629 169.158 111.129C172.058 114.929 175.858 117.929 180.258 119.929C180.258 120.029 180.258 120.229 180.258 120.329C181.758 127.329 182.958 136.029 178.958 140.929C176.658 143.729 172.558 145.229 166.858 145.229C165.558 145.229 164.458 146.329 164.458 147.629C164.458 148.929 165.558 150.029 166.858 150.029C174.058 150.029 179.358 148.029 182.658 144.029C187.358 138.229 186.758 129.429 185.358 121.829C185.658 121.929 186.058 122.029 186.358 122.029C188.358 122.429 190.358 122.629 192.258 122.629C205.858 122.629 218.058 113.029 220.958 99.229C223.958 83.229 213.658 67.629 197.858 64.429Z" fill="#AB8D96"/>
<path d="M132.958 110.429C115.858 110.129 99.3577 106.729 83.5577 100.129C73.8577 96.129 67.2577 87.229 66.6577 77.429C66.3577 72.329 66.6577 67.329 67.5577 62.429C71.1577 43.329 90.0577 30.629 110.858 32.929C119.258 33.829 127.558 35.629 135.658 38.129C154.958 44.129 166.958 62.729 163.158 81.129C162.158 86.129 160.458 90.929 158.158 95.729C153.758 104.829 143.858 110.629 132.958 110.429Z" fill="#F5E9C1"/>
<path d="M200.19 99.1956C203.437 94.8652 202.558 88.7225 198.228 85.4756C193.897 82.2287 187.755 83.1071 184.508 87.4376C181.261 91.768 182.139 97.9107 186.47 101.158C190.8 104.404 196.943 103.526 200.19 99.1956Z" fill="#AB8D96"/>
<path d="M125.658 84.029C125.358 85.229 124.958 86.329 124.458 87.329C123.758 88.629 122.958 89.729 121.858 90.629C120.258 92.129 118.258 93.129 116.158 93.629C114.458 94.029 112.558 94.029 110.758 93.629C106.758 92.729 103.558 90.029 101.958 86.529C101.158 84.729 100.758 82.629 100.858 80.529C100.858 79.929 100.958 79.329 101.158 78.729C101.458 77.129 102.058 75.929 102.858 75.029C104.358 73.229 106.658 72.629 109.358 72.629C111.158 72.629 113.158 72.929 115.258 73.429C120.458 74.529 124.658 76.229 125.758 80.029C126.058 81.029 126.058 82.429 125.658 84.029Z" fill="#5F5C5D"/>
<path d="M121.858 90.529C120.258 92.029 118.258 93.029 116.158 93.529C114.458 93.929 112.558 93.929 110.758 93.529C106.758 92.629 103.558 89.929 101.958 86.429C103.558 84.929 105.558 83.929 107.658 83.429C109.358 83.029 111.258 83.029 113.058 83.429C117.158 84.329 120.258 87.029 121.858 90.529Z" fill="#E27FA3"/>
<path d="M113.458 96.229C112.358 96.229 111.358 96.129 110.258 95.929C102.258 94.129 97.0577 86.229 98.8577 78.129C99.9577 73.129 103.158 71.229 105.558 70.529C108.158 69.829 111.258 69.929 115.658 70.929C119.658 71.829 130.258 74.129 127.958 84.429C126.458 91.429 120.258 96.229 113.458 96.229ZM109.158 74.829C108.258 74.829 107.458 74.929 106.758 75.129C105.458 75.529 104.058 76.229 103.458 79.129C102.258 84.629 105.758 90.029 111.258 91.229C116.758 92.429 122.158 88.929 123.358 83.429C124.158 79.829 122.958 77.329 114.658 75.529C112.458 75.129 110.658 74.829 109.158 74.829Z" fill="#5F5C5D"/>
<path d="M93.4577 71.729C92.6577 71.729 91.9577 71.329 91.4577 70.629C90.1577 68.629 88.0577 67.229 85.7577 66.729C83.3577 66.229 80.9577 66.729 78.9577 68.029C77.8577 68.729 76.3577 68.429 75.6577 67.329C74.9577 66.229 75.2577 64.729 76.3577 64.029C79.4577 62.029 83.0577 61.329 86.6577 62.029C90.2577 62.729 93.3577 64.829 95.3577 67.929C96.0577 69.029 95.7577 70.529 94.6577 71.229C94.3577 71.529 93.9577 71.729 93.4577 71.729Z" fill="#5F5C5D"/>
<path d="M152.258 83.829C151.458 83.829 150.758 83.429 150.258 82.729C147.558 78.529 141.958 77.429 137.758 80.129C136.658 80.829 135.158 80.529 134.458 79.429C133.758 78.329 134.058 76.829 135.158 76.129C141.458 71.929 150.058 73.729 154.258 80.029C154.958 81.129 154.658 82.629 153.558 83.329C153.158 83.729 152.758 83.829 152.258 83.829Z" fill="#5F5C5D"/>
<path d="M164.058 165.729C158.358 162.629 153.958 158.129 150.858 152.229C147.758 146.429 146.158 139.529 146.158 131.729C146.158 123.929 147.758 117.129 150.858 111.329C153.958 105.529 158.358 101.029 164.058 97.8289C169.758 94.7289 176.358 93.1289 183.858 93.1289C192.958 93.1289 200.858 95.5289 207.758 100.329C208.958 101.229 209.858 102.129 210.358 103.129C210.858 104.129 211.158 105.429 211.158 107.029C211.158 109.229 210.558 111.129 209.258 112.629C208.058 114.129 206.458 114.929 204.758 114.929C203.658 114.929 202.758 114.729 201.858 114.429C200.958 114.129 199.958 113.629 198.858 112.829C196.358 111.329 193.958 110.229 191.758 109.629C189.558 109.029 187.258 108.629 184.958 108.629C178.658 108.629 173.858 110.529 170.758 114.329C167.658 118.129 166.058 123.929 166.058 131.729C166.058 139.529 167.658 145.429 170.758 149.229C173.858 153.029 178.558 154.929 184.958 154.929C187.058 154.929 189.158 154.629 191.158 153.929C193.158 153.229 195.758 152.229 198.858 150.729C200.358 149.929 201.458 149.429 202.158 149.129C202.858 148.829 203.758 148.729 204.758 148.729C206.558 148.729 208.058 149.529 209.258 151.029C210.458 152.529 211.158 154.429 211.158 156.629C211.158 158.129 210.858 159.429 210.358 160.429C209.858 161.429 208.958 162.429 207.758 163.229C200.958 168.029 192.958 170.429 183.858 170.429C176.358 170.429 169.758 168.829 164.058 165.729Z" fill="#95E0E8"/>
<path d="M183.858 172.729C175.958 172.729 168.858 171.029 162.858 167.729C156.758 164.429 152.058 159.529 148.758 153.329C145.458 147.129 143.858 139.829 143.858 131.629C143.858 123.529 145.558 116.229 148.758 110.129C152.058 103.929 156.858 99.0289 162.858 95.7289C168.858 92.4289 175.958 90.7289 183.858 90.7289C193.358 90.7289 201.858 93.3289 209.058 98.3289C210.558 99.4289 211.658 100.629 212.458 101.929C213.158 103.229 213.558 104.929 213.558 106.929C213.558 109.729 212.758 112.129 211.158 114.029C209.458 116.129 207.258 117.229 204.758 117.229C203.358 117.229 202.158 117.029 201.058 116.629C200.058 116.229 198.958 115.629 197.658 114.929C195.358 113.529 193.158 112.529 191.158 111.929C189.158 111.329 187.058 111.029 184.958 111.029C179.358 111.029 175.258 112.629 172.658 115.829C169.958 119.229 168.558 124.529 168.558 131.729C168.558 139.029 169.958 144.329 172.658 147.729C175.358 151.029 179.358 152.529 184.958 152.529C186.858 152.529 188.658 152.229 190.358 151.629C192.258 151.029 194.758 149.929 197.758 148.629C199.358 147.829 200.458 147.229 201.258 146.929C202.258 146.529 203.458 146.329 204.758 146.329C207.258 146.329 209.458 147.429 211.158 149.529C212.758 151.529 213.558 153.929 213.558 156.629C213.558 158.529 213.158 160.129 212.458 161.529C211.758 162.929 210.658 164.129 209.058 165.229C201.858 170.229 193.458 172.729 183.858 172.729ZM183.858 95.4289C176.758 95.4289 170.458 96.9289 165.158 99.8289C159.958 102.729 155.858 106.929 152.958 112.329C150.058 117.829 148.558 124.329 148.558 131.629C148.558 139.029 150.058 145.629 152.958 151.029C155.858 156.429 159.958 160.629 165.158 163.529C170.458 166.429 176.758 167.929 183.858 167.929C192.358 167.929 199.958 165.629 206.358 161.229C207.258 160.629 207.858 159.929 208.258 159.229C208.658 158.529 208.758 157.629 208.758 156.529C208.758 154.829 208.358 153.529 207.458 152.429C206.458 151.129 205.458 151.029 204.758 151.029C204.058 151.029 203.458 151.129 203.058 151.329C202.458 151.629 201.358 152.129 199.958 152.829C199.958 152.829 199.858 152.829 199.858 152.929C196.658 154.429 193.958 155.429 191.958 156.129C189.758 156.929 187.358 157.229 184.958 157.229C177.858 157.229 172.458 155.029 168.958 150.629C165.558 146.429 163.758 140.029 163.758 131.629C163.758 123.329 165.458 116.929 168.958 112.729C172.558 108.329 177.958 106.129 184.958 106.129C187.558 106.129 190.058 106.529 192.458 107.229C194.858 107.929 197.458 109.129 200.058 110.729C201.058 111.329 201.958 111.829 202.658 112.029C203.258 112.229 203.958 112.329 204.758 112.329C205.858 112.329 206.658 111.929 207.458 110.929C208.358 109.829 208.758 108.429 208.758 106.829C208.758 105.629 208.558 104.729 208.258 104.129C207.858 103.429 207.258 102.829 206.358 102.129C199.958 97.7289 192.458 95.4289 183.858 95.4289Z" fill="#63D3D6"/>
<path d="M153.158 135.629C156.158 138.229 158.158 141.729 159.158 146.229C160.058 150.229 159.858 154.029 158.358 157.529C156.958 161.029 154.458 164.029 150.858 166.629C147.258 169.229 142.858 171.029 137.558 172.229L109.758 178.529C106.858 179.129 104.558 178.929 102.658 177.729C100.758 176.529 99.5577 174.529 98.8577 171.629L86.1577 115.829C85.5577 112.929 85.7577 110.629 86.9577 108.729C88.1577 106.829 90.1577 105.629 93.0577 104.929L119.758 98.829C127.458 97.029 134.058 97.429 139.358 99.829C144.658 102.229 148.058 106.329 149.358 112.229C150.258 116.029 149.958 119.529 148.558 122.929C147.158 126.229 144.858 129.029 141.558 131.129C146.358 131.529 150.158 133.029 153.158 135.629ZM109.658 131.729L123.358 128.629C126.958 127.829 129.458 126.629 130.958 125.129C132.358 123.629 132.758 121.629 132.258 119.229C131.658 116.629 130.458 114.929 128.458 114.129C126.558 113.329 123.758 113.329 120.158 114.129L106.458 117.229L109.658 131.729ZM139.758 154.629C141.158 153.029 141.458 150.829 140.858 148.029C140.258 145.229 138.958 143.429 137.058 142.629C135.158 141.829 132.258 141.829 128.458 142.629L112.958 146.129L116.558 161.829L132.058 158.329C135.858 157.429 138.458 156.229 139.758 154.629Z" fill="#A3D676"/>
<path d="M107.058 181.329C104.958 181.329 103.158 180.829 101.558 179.829C99.1577 178.329 97.5577 175.729 96.7577 172.329L84.0577 116.529C83.2577 113.029 83.6577 110.029 85.1577 107.629C86.6577 105.229 89.2577 103.629 92.6577 102.829L119.358 96.729C127.558 94.829 134.658 95.229 140.458 97.829C146.458 100.529 150.258 105.229 151.758 111.829C152.758 116.029 152.458 120.129 150.858 123.929C149.958 126.129 148.658 128.129 147.058 129.829C149.958 130.629 152.458 132.029 154.558 133.829C157.958 136.729 160.258 140.729 161.358 145.729C162.358 150.229 162.058 154.529 160.458 158.429C158.858 162.329 156.058 165.729 152.158 168.529C148.358 171.229 143.658 173.329 138.058 174.529L110.258 180.829C109.258 181.229 108.158 181.329 107.058 181.329ZM129.058 100.229C126.358 100.229 123.558 100.529 120.458 101.229L93.7577 107.329C91.5577 107.829 90.0577 108.729 89.1577 110.029C88.3577 111.329 88.1577 113.129 88.6577 115.329L101.358 171.129C101.858 173.329 102.758 174.829 104.058 175.729C105.358 176.529 107.158 176.729 109.358 176.229L137.158 169.929C142.058 168.829 146.258 167.029 149.558 164.629C152.758 162.329 154.958 159.629 156.258 156.529C157.558 153.429 157.758 150.229 156.958 146.629C156.058 142.629 154.358 139.529 151.658 137.229C149.058 134.929 145.758 133.729 141.658 133.429C140.658 133.329 139.758 132.629 139.558 131.629C139.258 130.629 139.758 129.629 140.558 129.029C143.458 127.129 145.458 124.829 146.658 121.929C147.858 119.029 148.058 116.029 147.258 112.729C146.058 107.629 143.258 104.129 138.558 102.029C135.758 100.929 132.658 100.229 129.058 100.229ZM116.458 164.229C115.358 164.229 114.358 163.529 114.158 162.429L110.558 146.729C110.458 146.129 110.558 145.429 110.858 144.929C111.158 144.429 111.758 144.029 112.358 143.829L127.858 140.329C132.258 139.329 135.558 139.329 137.958 140.429C140.558 141.629 142.358 144.029 143.158 147.529C143.958 151.029 143.458 153.929 141.558 156.129C139.858 158.129 136.858 159.629 132.458 160.629L116.958 164.129C116.758 164.229 116.658 164.229 116.458 164.229ZM115.758 148.029L118.258 159.029L131.458 156.029C135.558 155.129 137.258 153.929 137.958 153.129C138.258 152.729 139.258 151.629 138.558 148.629C137.858 145.629 136.558 145.029 136.058 144.829C135.058 144.429 133.058 144.029 128.958 145.029L115.758 148.029ZM109.658 134.129C109.258 134.129 108.758 134.029 108.358 133.729C107.858 133.429 107.458 132.829 107.258 132.229L103.958 117.829C103.658 116.529 104.458 115.229 105.758 115.029L119.458 111.929C123.558 111.029 126.758 111.029 129.258 112.029C131.058 112.829 133.458 114.629 134.458 118.729C135.358 122.729 133.958 125.329 132.558 126.829C130.758 128.729 127.958 130.029 123.858 130.929L110.158 134.029C109.958 134.029 109.758 134.129 109.658 134.129ZM109.158 119.129L111.358 128.929L122.758 126.329C126.658 125.429 128.358 124.329 129.158 123.529C129.658 122.929 130.358 121.929 129.858 119.829C129.358 117.429 128.258 116.729 127.458 116.429C126.458 116.029 124.458 115.729 120.558 116.529L109.158 119.129Z" fill="#87B758"/>
<path d="M82.1576 103.329C77.6576 108.229 75.7576 113.829 80.6576 118.329C85.5576 122.829 93.2576 122.529 97.7576 117.529C102.258 112.629 101.958 104.929 96.9576 100.429C92.0576 95.9289 86.6576 98.329 82.1576 103.329Z" fill="#C9ADB5"/>
<path d="M88.7577 123.829C85.1577 123.829 81.6577 122.529 78.9577 120.029C76.0577 117.329 74.8577 114.129 75.4577 110.529C75.9577 107.629 77.5577 104.629 80.3577 101.629C83.1577 98.629 85.9577 96.729 88.7577 95.929C92.2577 95.029 95.6577 95.929 98.5577 98.629C104.458 104.029 104.858 113.229 99.4577 119.129C96.8577 122.029 93.2577 123.629 89.4577 123.829C89.2577 123.829 89.0577 123.829 88.7577 123.829ZM83.8577 104.929C81.7577 107.229 80.4577 109.429 80.1577 111.429C79.8577 113.429 80.4577 115.029 82.2577 116.629C84.1577 118.429 86.6577 119.329 89.2577 119.129C91.8577 119.029 94.2577 117.929 96.0577 115.929C99.6577 111.929 99.3577 105.829 95.4577 102.129C93.7577 100.529 92.0577 100.029 90.0577 100.529C88.1577 101.129 85.9577 102.629 83.8577 104.929Z" fill="#AB8D96"/>
<path d="M179.958 124.629C183.458 118.929 184.258 113.029 178.558 109.629C172.858 106.129 165.358 107.929 161.858 113.629C158.358 119.329 160.158 126.829 165.858 130.329C171.658 133.729 176.458 130.329 179.958 124.629Z" fill="#C9ADB5"/>
<path d="M170.558 134.029C168.658 134.029 166.658 133.429 164.758 132.229C161.458 130.229 159.158 127.029 158.258 123.229C157.358 119.429 157.958 115.529 159.958 112.229C164.158 105.429 173.058 103.229 179.858 107.429C183.258 109.529 185.058 112.429 185.158 116.129C185.258 119.029 184.158 122.329 182.058 125.829C179.958 129.329 177.458 131.729 174.858 133.029C173.458 133.729 171.958 134.029 170.558 134.029ZM172.258 110.129C168.958 110.129 165.758 111.829 163.958 114.829C162.558 117.029 162.158 119.629 162.758 122.229C163.358 124.729 164.958 126.929 167.158 128.229C169.158 129.429 170.958 129.629 172.758 128.729C174.558 127.929 176.358 126.029 177.958 123.329C179.558 120.629 180.458 118.229 180.358 116.229C180.258 114.229 179.358 112.729 177.358 111.529C175.758 110.629 174.058 110.129 172.258 110.129Z" fill="#AB8D96"/>
<path d="M59.0578 55.229C53.0578 48.129 38.9578 46.229 25.5578 56.729C12.3578 66.529 -0.142234 88.629 3.65777 114.329C6.35777 140.129 24.0578 158.429 39.2578 164.629C54.8578 171.329 68.0578 166.029 72.0578 157.629C80.6578 139.829 61.2578 130.829 58.4578 107.329C55.3578 83.929 71.8578 70.329 59.0578 55.229Z" fill="#FFFFA1"/>
<path d="M57.3577 153.929C56.9577 153.929 56.6576 153.829 56.2576 153.629C55.9576 153.429 47.6576 149.229 39.0576 141.029C27.6576 130.029 21.2576 117.029 20.6576 103.429C19.8576 84.929 29.0577 71.929 36.8577 64.229C37.7577 63.329 39.2576 63.329 40.2576 64.229C41.1576 65.129 41.1576 66.629 40.2576 67.629C33.0576 74.629 24.7577 86.529 25.4577 103.229C25.9577 115.729 31.6576 127.229 42.2576 137.529C50.2576 145.329 58.2577 149.429 58.3577 149.429C59.5577 150.029 59.9577 151.429 59.4577 152.629C59.0577 153.429 58.2577 153.929 57.3577 153.929Z" fill="#FFE4A9"/>
<path d="M46.0577 100.729C45.9577 102.829 47.7577 104.629 49.8577 104.729C52.0577 104.829 53.8577 103.129 53.9577 100.929C54.0577 98.829 52.2577 97.029 50.1577 96.929C47.9577 96.929 46.0577 98.629 46.0577 100.729Z" fill="#5F5C5D"/>
<path d="M18.6578 100.029C18.5578 102.129 20.3578 103.929 22.4578 104.029C24.6578 104.129 26.4578 102.429 26.5578 100.229C26.6578 98.129 24.8578 96.329 22.7578 96.229C20.5578 96.129 18.7578 97.829 18.6578 100.029Z" fill="#5F5C5D"/>
<path d="M53.0577 170.029C48.9577 170.029 43.9577 169.229 38.2577 166.829C22.3577 160.329 4.05772 141.229 1.25772 114.629C-2.74228 88.129 10.2577 65.129 24.0577 54.829C32.4577 48.329 40.1577 47.029 45.0577 47.029C51.5577 47.129 57.2577 49.529 60.8577 53.729C68.9577 63.329 66.4577 72.529 63.7577 82.429C61.8577 89.529 59.5577 97.529 60.8577 107.129C62.0577 116.729 66.1577 123.929 69.8577 130.329C74.9577 139.129 79.7577 147.429 74.2577 158.829C71.8577 163.729 66.8577 167.529 60.6577 169.229C58.5577 169.629 56.0577 170.029 53.0577 170.029ZM44.8577 51.829C39.3577 51.829 33.0577 53.829 26.9577 58.629C14.2577 68.029 2.3577 89.429 6.0577 113.929V114.029C8.6577 138.729 25.5577 156.429 40.1577 162.329C51.0577 167.029 65.1577 166.129 69.9577 156.529C74.3577 147.529 70.6577 141.229 65.6577 132.529C61.7577 125.729 57.3577 118.129 56.0577 107.529C54.6577 97.029 56.9577 88.529 59.0577 81.029C61.7577 71.329 63.6577 64.329 57.1577 56.729C54.5577 53.629 50.1577 51.829 44.8577 51.829Z" fill="#F9CB71"/>
<path d="M36.0577 109.129C35.9577 109.129 35.9577 109.129 35.8577 109.129C31.5577 109.029 28.0577 105.329 28.1577 101.029C28.1577 99.729 29.2577 98.629 30.5577 98.729C31.8577 98.729 32.8577 99.829 32.8577 101.129C32.8577 102.829 34.1577 104.329 35.8577 104.329C37.5577 104.329 39.0577 103.029 39.0577 101.329C39.0577 100.029 40.1577 99.029 41.4577 99.029C42.7577 99.029 43.7577 100.129 43.7577 101.429C43.7577 105.729 40.2577 109.129 36.0577 109.129Z" fill="#5F5C5D"/>
<path d="M53.9577 67.729C50.7577 67.729 47.8577 66.329 45.7577 63.929C43.8577 61.629 42.9577 58.629 43.2577 55.729C43.5577 52.729 45.1577 50.029 47.4577 48.229L58.9577 39.529C61.7577 37.429 65.5577 37.329 68.4577 39.229C70.3577 40.429 71.5577 42.329 72.0577 44.429C72.5577 46.629 72.1577 48.829 70.9577 50.629L63.1577 62.729C61.2577 65.629 58.2577 67.429 54.7577 67.629C54.4577 67.729 54.1577 67.729 53.9577 67.729Z" fill="#5F5C5D"/>
<path d="M87.6577 179.129C86.7577 181.329 85.0577 182.729 82.6577 183.529C80.2577 184.329 77.9577 184.229 75.7577 183.229C74.2577 182.629 73.0577 181.629 72.1577 180.229C71.2577 178.929 70.7577 177.329 70.7577 175.429L70.5577 163.629L38.7577 149.929L29.9577 157.929C28.5577 159.229 27.0577 159.929 25.4577 160.129C23.8577 160.329 22.2577 160.129 20.7577 159.529C18.5577 158.529 16.8577 156.929 15.6577 154.629C14.4577 152.329 14.3577 150.129 15.3577 147.929C15.8577 146.729 16.6577 145.629 17.7577 144.629L66.6577 102.529C68.2577 101.129 70.1577 100.329 72.1577 100.029C74.2577 99.8289 76.2577 100.129 78.3577 101.029C80.3577 101.829 81.9577 103.129 83.2577 104.829C84.5577 106.529 85.2577 108.429 85.3577 110.529L88.3577 174.929C88.3577 176.629 88.1577 177.929 87.6577 179.129ZM70.3577 147.429L69.9577 121.329L50.6577 139.029L70.3577 147.429Z" fill="#E27FA3"/>
<path d="M79.5577 186.429C77.9577 186.429 76.3578 186.129 74.8578 185.429C72.9578 184.629 71.3577 183.329 70.2577 181.629C69.0577 179.929 68.4578 177.829 68.4578 175.529L68.3578 165.229L39.3578 152.729L31.6577 159.729C29.8577 161.329 27.9578 162.229 25.8578 162.529C23.7578 162.829 21.7578 162.529 19.8578 161.729C17.1578 160.529 15.0577 158.529 13.5577 155.729C12.0577 152.829 11.9577 149.929 13.1577 147.029C13.7577 145.529 14.8577 144.129 16.2577 142.929L65.1577 100.829C67.1577 99.1289 69.4578 98.1289 71.9578 97.8289C74.4578 97.5289 76.9577 97.9289 79.3577 98.9289C81.6578 99.9289 83.6577 101.429 85.1577 103.429C86.7577 105.529 87.6577 107.929 87.7577 110.529L90.7577 174.929C90.8577 176.829 90.5577 178.529 89.8577 180.029C88.6578 182.829 86.4578 184.729 83.4578 185.729C82.1578 186.129 80.8577 186.429 79.5577 186.429ZM38.7577 147.529C39.0577 147.529 39.3577 147.629 39.6577 147.729L71.4578 161.429C72.3578 161.829 72.8578 162.629 72.8578 163.629L73.0577 175.429C73.0577 176.829 73.4577 178.029 74.0577 178.929C74.7577 179.929 75.5577 180.529 76.6577 181.029C78.3577 181.729 80.0578 181.829 81.9578 181.229C83.6578 180.629 84.8578 179.729 85.4578 178.129C85.8578 177.329 85.9578 176.229 85.9578 175.129L82.9578 110.729C82.8578 109.029 82.3577 107.629 81.3577 106.329C80.2578 104.929 79.0578 103.929 77.4578 103.229C75.7578 102.529 74.1578 102.229 72.4578 102.429C70.8578 102.629 69.4577 103.229 68.2577 104.329L19.3578 146.429C18.5578 147.129 17.8577 147.929 17.5577 148.829C16.8577 150.329 16.9578 151.829 17.8578 153.529C18.7578 155.329 20.0577 156.529 21.7577 157.329C22.8577 157.829 23.9577 157.929 25.1577 157.729C26.2577 157.529 27.3578 157.029 28.4578 156.029L37.2577 148.029C37.5577 147.729 38.1577 147.529 38.7577 147.529ZM70.3578 149.829C70.0578 149.829 69.7578 149.729 69.4578 149.629L49.7577 141.129C49.0577 140.829 48.4578 140.129 48.3578 139.329C48.2578 138.529 48.4577 137.729 49.0577 137.229L68.3578 119.529C69.0578 118.929 70.0578 118.729 70.8578 119.129C71.7578 119.529 72.2577 120.329 72.2577 121.229L72.6577 147.329C72.6577 148.129 72.2577 148.929 71.5577 149.329C71.2577 149.629 70.7578 149.829 70.3578 149.829ZM54.9578 138.229L67.8578 143.829L67.5577 126.629L54.9578 138.229Z" fill="#DD528B"/>
<path d="M3.65771 114.329C6.25771 126.729 37.7577 145.529 41.5577 132.429C44.4577 122.329 27.0577 121.529 21.1577 115.629L3.65771 114.329Z" fill="#FFFFA1"/>
<path d="M34.7577 139.229C34.5577 139.229 34.3577 139.229 34.1577 139.229C28.6577 139.029 21.2577 135.829 14.2577 130.829C10.8577 128.329 2.75773 121.829 1.25773 114.729C0.95773 113.429 1.85772 112.229 3.05772 111.929C4.35772 111.629 5.55774 112.529 5.85774 113.729C7.55774 121.629 24.4577 134.029 34.2577 134.429C37.8577 134.529 38.7577 133.029 39.1577 131.729C40.3577 127.729 36.9577 125.929 29.4577 122.829C25.6577 121.329 21.8577 119.729 19.3577 117.229C18.4577 116.329 18.4577 114.829 19.3577 113.829C20.2577 112.929 21.7577 112.929 22.7577 113.829C24.5577 115.629 27.9577 117.029 31.2577 118.329C34.5577 119.729 38.0577 121.129 40.5577 123.129C43.7577 125.829 44.8577 129.129 43.7577 132.929C42.6577 137.129 39.4577 139.229 34.7577 139.229Z" fill="#F9CB71"/>
<path d="M62.6578 101.429C58.2578 102.429 55.0578 104.729 56.0578 109.129C57.0578 113.529 61.4578 116.329 65.8578 115.329C70.2578 114.329 73.0578 109.929 72.0578 105.529C71.0578 101.229 67.0578 100.429 62.6578 101.429Z" fill="#FFFFA1"/>
<path d="M63.9578 117.929C61.9578 117.929 60.0578 117.329 58.3578 116.329C55.9578 114.829 54.3578 112.429 53.7578 109.729C53.1578 106.829 53.7578 104.329 55.6578 102.429C57.1578 100.929 59.3578 99.829 62.1578 99.229C68.5578 97.829 73.1578 100.029 74.2578 105.229C74.8578 107.929 74.3578 110.829 72.8578 113.229C71.3578 115.629 68.9578 117.229 66.2578 117.829C65.5578 117.829 64.7578 117.929 63.9578 117.929ZM65.8578 103.429C65.1578 103.429 64.2578 103.529 63.1578 103.729C61.2578 104.129 59.8578 104.829 58.9578 105.629C58.4578 106.129 57.9578 106.929 58.2578 108.629C58.5578 110.129 59.4578 111.429 60.8578 112.229C62.1578 113.029 63.7578 113.329 65.2578 113.029C68.3578 112.329 70.3578 109.229 69.6578 106.129C69.4578 105.329 69.0578 103.429 65.8578 103.429Z" fill="#F9CB71"/>
</svg>
