<svg width="45" height="52" viewBox="0 0 45 52" fill="none" xmlns="http://www.w3.org/2000/svg">
<path d="M38.8063 26.6C37.6063 25.7 36.3063 24.9 34.6063 24.3C36.6063 23.3 38.1063 22.1 39.2063 20.7C40.6063 18.9 41.3063 16.9 41.3063 14.6C41.3063 12.8 40.9063 11.2 40.1063 9.59998C39.3063 7.99998 38.1063 6.59996 36.4062 5.39996C34.8063 4.19996 32.7063 3.2 30.3063 2.5C27.9063 1.8 25.1063 1.5 21.9062 1.5C18.1063 1.5 14.8063 2.09999 12.0063 3.29999C9.10629 4.49999 6.90625 6.09998 5.40625 8.09998C3.90625 10.1 3.10626 12.3 3.10626 14.6C3.10626 18.9 5.40629 22.1 10.0063 24.3C4.10629 26.7 1.2063 30.7 1.2063 36.2C1.2063 39 2.0063 41.6 3.7063 43.9C5.3063 46.2 7.80629 48 11.0063 49.3C14.2063 50.6 18.0063 51.2 22.4062 51.2C26.7062 51.2 30.4063 50.6 33.6063 49.3C36.8063 48 39.3063 46.2 40.9062 43.9C42.6063 41.6 43.4062 39 43.4062 36.1C43.4062 34.2 43.0063 32.4 42.2063 30.8C41.5063 29.2 40.4063 27.8 38.8063 26.6ZM27.3063 17.5C27.1063 18 26.7063 18.4 26.3063 18.8C25.8063 19.2 25.3063 19.5 24.6063 19.7C23.9063 19.9 23.2062 20 22.4062 20C20.8062 20 19.5063 19.6 18.5063 18.8C17.5063 18 17.0063 17.1 17.0063 16C17.0063 14.7 17.5063 13.7 18.4062 12.9C19.4062 12.1 20.7063 11.7 22.3063 11.7C23.4063 11.7 24.3063 11.9 25.2063 12.3C26.0063 12.7 26.6063 13.2 27.1063 13.8C27.5063 14.4 27.7063 15.1 27.7063 15.9C27.6063 16.4 27.5063 17 27.3063 17.5ZM17.3063 32.9C18.6063 32 20.3063 31.5 22.2063 31.5C23.6063 31.5 24.9063 31.7 26.0063 32.1C27.1063 32.5 27.9063 33.1 28.5063 33.9C29.1063 34.7 29.4062 35.6 29.4062 36.6C29.4062 37.6 29.1063 38.6 28.5063 39.4C27.9063 40.2 27.1063 40.8 26.0063 41.3C24.9063 41.8 23.7062 42 22.4062 42C21.1063 42 19.9063 41.8 18.8063 41.3C17.7063 40.9 16.9063 40.2 16.3063 39.4C15.7063 38.6 15.4062 37.7 15.4062 36.6C15.4062 35 16.0063 33.8 17.3063 32.9Z" fill="#F5A6C3" stroke="#221F1F" stroke-width="1.3482" stroke-miterlimit="10" stroke-linecap="round" stroke-linejoin="round"/>
<path d="M42.3063 30.8C41.5063 29.2 40.3063 27.8 38.8063 26.6C37.6063 25.7 36.3063 24.9 34.6063 24.3C36.6063 23.3 38.1063 22.1 39.2063 20.7C40.6063 18.9 41.3063 16.9 41.3063 14.6C41.3063 12.8 40.9063 11.2 40.1063 9.59998C39.3063 7.99998 38.1063 6.59996 36.4062 5.39996C34.9062 4.29996 33.0063 3.39995 30.7063 2.69995C32.3063 3.59995 33.7063 4.9 34.8063 6.5C37.9063 10.9 37.1063 16.7 33.2063 20.4C31.1063 22.4 28.3062 23.3 25.4062 24C30.5063 24.8 35.7063 26.8 37.7063 31.3C40.5063 37.7 36.9062 44.4 30.9062 47.3C24.2062 50.5 14.9063 51.3 8.60626 46.8C5.00626 44.2 1.90627 39.5 1.30627 34.9C1.30627 35.4 1.2063 35.8 1.2063 36.3C1.2063 39.1 2.0063 41.7 3.7063 44C5.3063 46.3 7.80629 48.1 11.0063 49.4C14.2063 50.7 18.0063 51.3 22.4062 51.3C26.7062 51.3 30.4063 50.7 33.6063 49.4C36.8063 48.1 39.3063 46.3 40.9062 44C42.6063 41.7 43.4062 39.1 43.4062 36.2C43.5062 34.2 43.1063 32.4 42.3063 30.8Z" fill="#F5A6C3"/>
<path d="M21.7062 30.2C20.4062 30.4 19.0062 30.7 17.9062 31.4C17.2062 31.7 16.6062 32.2 16.1062 32.8C16.1062 33.4 16.1062 33.9 16.1062 34.3C16.4062 33.8 16.8062 33.3 17.4062 32.9C18.7062 32 20.4062 31.5 22.3062 31.5C23.7062 31.5 25.0062 31.7 26.1062 32.1C27.2062 32.5 28.0062 33.1 28.6062 33.9C29.2062 34.7 29.5062 35.6 29.5062 36.6C29.5062 37.6 29.2062 38.6 28.6062 39.4C28.0062 40.2 27.2062 40.8 26.1062 41.3C25.6062 41.5 25.1062 41.7 24.5062 41.8C25.3062 41.9 26.2062 41.8 27.0062 41.6C30.5062 40.6 32.6062 36.5 30.2062 33.3C28.2062 30.7 24.8062 29.6 21.7062 30.2Z" fill="#F5A6C3"/>
<path d="M18.4063 12.7999C19.4063 11.9999 20.7064 11.5999 22.3064 11.5999C23.4064 11.5999 24.3064 11.7999 25.2064 12.1999C26.0064 12.5999 26.6063 13.0999 27.1063 13.6999C27.5063 14.2999 27.7064 14.9999 27.7064 15.7999C27.7064 16.3999 27.6064 16.8999 27.3064 17.3999C27.1064 17.8999 26.7064 18.2999 26.3064 18.6999C25.9064 18.9999 24.1063 19.8999 23.6063 20.0999C26.0063 20.2999 29.5063 18.6999 30.1063 15.9999C31.0063 11.9999 26.8063 9.79991 23.4063 10.0999C21.9063 10.1999 20.2064 10.4999 19.0064 11.3999C18.5064 11.6999 18.0063 12.1999 17.6063 12.6999C16.9063 13.3999 16.8064 14.0999 17.2064 14.5999C17.4064 13.8999 17.8063 13.2999 18.4063 12.7999Z" fill="#F5A6C3"/>
<path d="M13.5063 21.3999C10.3063 19.4999 7.10634 18.1999 7.30634 13.7999C7.40634 10.1999 10.5063 6.99991 13.3063 5.09991C13.4063 4.99991 13.4064 4.8999 13.2064 4.8999C4.40636 7.2999 2.40633 21.0999 13.1063 22.1999C13.5063 22.2999 14.0063 21.6999 13.5063 21.3999Z" fill="white"/>
<path d="M14.0063 25.2C7.50629 26.8 0.306257 32.5 3.90626 39.9C4.10626 40.3 4.70631 39.9 4.70631 39.5C3.90631 35.7 4.40627 32.8 7.10627 29.9C8.90627 27.8 11.6063 26.5 14.0063 25.2C14.1063 25.3 14.1063 25.2 14.0063 25.2Z" fill="white"/>
<path d="M5.50619 41.4C5.30619 41.2 5.20616 41 4.90616 40.8C4.70616 40.7 4.40619 40.9 4.50619 41.1C4.70619 41.4 4.70619 41.7 5.00619 41.9C5.40619 42.1 5.70619 41.7 5.50619 41.4Z" fill="white"/>
</svg>
