<svg width="44" height="43" viewBox="0 0 44 43" fill="none" xmlns="http://www.w3.org/2000/svg">
<path d="M31.2 20.7L38.7 12.2C39.6 11.2 40.2 10.4 40.7 9.60001C41.2999 8.70001 41.6 7.60001 41.6 6.60001C41.6 5.50001 41.2 3.9 39.4 2.5C38.1 1.6 36.5 1.10001 34.7 1.10001C33 1.10001 31.6 1.49999 30.4 2.29999C29.4 2.99999 28.3 4 27.1 5.5L21.8 11.7L16.3 5.39999C15.1 3.99999 13.9999 2.99999 12.9999 2.29999C11.7999 1.49999 10.4 1 8.69995 1C6.79995 1 5.19996 1.49999 3.89996 2.39999C2.09996 3.79999 1.79999 5.29999 1.79999 6.39999C1.79999 8.09999 2.69998 10 4.59998 12L12.1 20.5L3.39996 30.9C1.59996 33.1 0.699951 34.8 0.699951 36.3C0.699951 37.4 1.09994 39 2.99994 40.4C4.29994 41.4 5.89995 41.9 7.69995 41.9C9.39995 41.9 10.7999 41.5 11.9999 40.7C12.8999 40 14 39 15.3 37.5L21.8 29.7L28.1 37.5C29.3 39 30.4 40 31.4 40.7C32.6 41.5 34 42 35.7 42C37.5 42 39.1 41.5 40.4 40.6C42.3 39.2 42.7 37.6 42.7 36.5C42.7 35 41.8 33.4 39.9 31.1L31.2 20.7Z" fill="#F6903C" stroke="#221F1F" stroke-width="1.3482" stroke-miterlimit="10" stroke-linecap="round" stroke-linejoin="round"/>
<path d="M39.9 31.1L31.2 20.7L38.7 12.2C39.6 11.2 40.2 10.4 40.7 9.59998C41.3 8.69998 41.6 7.59998 41.6 6.59998C41.6 5.49998 41.2 3.89997 39.4 2.49997C38.1 1.59997 36.5 1.09998 34.7 1.09998C34.5 1.09998 34.3 1.09998 34.2 1.09998C34.6 1.29998 35 1.59996 35.4 1.89996C36.8 3.29996 37.8 5.59998 36.9 7.59998C35.7 10.3 33.6 12.5 31.4 14.5C29.7 16.1 28.2 17.8 26.5 19.4C29.4 23.2 32.8 26.7 35.8 30.5C37.9 33.2 40.2 35.8 38.5 39.2C37.6 41 36.2 41.7 34.6 41.8C35 41.9 35.4 41.9 35.8 41.9C37.6 41.9 39.2 41.4 40.5 40.5C42.4 39.1 42.8 37.5 42.8 36.4C42.6 35.1 41.8 33.4 39.9 31.1Z" fill="#F6903C"/>
<path d="M21.5 30C21.7 29.6 23.1 25.1 22 25.8C20.6 26.7 19.4 27.9 18.3 29.1C15.1 32.6 11.9 37.1 8 39.8C6.9 40.6 5.30005 41.1 3.80005 41.1C4.90005 41.7 6.20004 42 7.60004 42C9.30004 42 10.7 41.6 11.9 40.8C12.8 40.1 13.9 39.1 15.2 37.6L21.4 30.1C21.5 30.1 21.5 30 21.5 30Z" fill="#F6903C"/>
<path d="M4.79999 2.49997C7.59999 1.79997 10.6 3.99996 12.3 5.89996C14.3 8.09996 16.0999 10.4 17.9999 12.6C20.2999 15.2 21.2 13.7 21.6 11.7L16.2 5.49997C15 4.09997 13.9 3.09996 12.9 2.39996C11.7 1.59996 10.3 1.09998 8.59998 1.09998C6.69998 1.09998 5.09999 1.59997 3.79999 2.49997C3.59999 2.69997 3.39995 2.79997 3.19995 2.99997C3.79995 2.89997 4.19999 2.69997 4.79999 2.49997Z" fill="#F6903C"/>
<path d="M12.8999 17.2C12.0999 15.4 10.2999 13.7 9.09993 12.2C7.19993 9.79999 4.59992 8.29996 5.39992 4.79996C5.49992 4.49996 5.09989 4.59999 4.99989 4.69999C3.79989 6.79999 3.89992 8.29999 5.39992 10.2C6.39992 11.4 7.59993 12.5 8.59993 13.7C9.79993 15 10.8999 16.5 12.2999 17.6C12.5999 17.9 12.9999 17.5 12.8999 17.2Z" fill="white"/>
<path d="M31.6998 3.90002C29.7998 4.30002 28.8998 5.30002 27.6998 6.80002C26.7998 7.80002 25.8998 8.70004 24.9998 9.60004C24.3998 10.2 23.7998 10.8 23.3998 11.6C23.1998 12.1 23.8998 12.1 24.0998 11.8C25.1998 10.3 26.5998 9.10002 27.8998 7.80002C29.0998 6.40002 30.1998 5.10004 31.7998 4.10004C31.7998 4.10004 31.7998 3.90002 31.6998 3.90002Z" fill="white"/>
<path d="M11.8 24C9.89997 26.5 7.49996 28.6 5.59996 31C4.09996 32.8 2.59997 34.8001 3.29997 37.2001C3.49997 37.7001 4.19994 37.1 4.19994 36.8C4.09994 33.8 6.29992 31.7 7.99992 29.5C9.39992 27.7 10.7999 26 11.9999 24.1C12.0999 24 11.9 23.9 11.8 24Z" fill="white"/>
<path d="M30.2999 36.7001C29.6999 35.8001 28.8998 35 28.0998 34.1C27.1998 33.1 26.2998 32.1 25.4998 31C25.3998 30.8 25.0998 31.1 25.1998 31.3C26.4998 33.3 27.9998 35.6 29.8998 37C30.0998 37.2 30.3999 36.9001 30.2999 36.7001Z" fill="white"/>
</svg>
