<svg width="31" height="38" viewBox="0 0 31 38" fill="none" xmlns="http://www.w3.org/2000/svg">
<path d="M15.4947 30.104H14.6424L14.4598 8.43258H15.4947C16.2861 8.43258 16.9557 8.06733 17.3209 7.33684C17.747 6.66722 17.9297 5.7541 17.9297 4.71923C17.9297 3.68436 17.6862 2.83211 17.26 2.16249C16.8339 1.49287 16.2252 1.12762 15.4338 1.12762L3.31975 1.1885C2.52838 1.1885 1.91963 1.55375 1.49351 2.28424C1.06739 2.95387 0.884766 3.80611 0.884766 4.84098C0.884766 5.87585 1.12825 6.78897 1.55437 7.45859C1.98049 8.18909 2.58924 8.49346 3.44149 8.49346H4.29373L4.41549 30.1648H3.38061C2.58924 30.1648 1.98049 30.5301 1.55437 31.2606C1.12825 31.9302 0.945625 32.7824 0.945625 33.8173C0.945625 34.8522 1.18913 35.7653 1.61525 36.4349C2.04137 37.1654 2.65012 37.4698 3.50237 37.4698L15.6164 37.4089C16.4078 37.4089 17.0774 37.0437 17.4427 36.3132C17.8688 35.6436 18.0514 34.7304 18.0514 33.6956C18.0514 32.6607 17.8079 31.8085 17.3818 31.1388C16.8948 30.4692 16.2861 30.104 15.4947 30.104Z" fill="#2E469A" stroke="#221F1F" stroke-width="0.820712" stroke-miterlimit="10" stroke-linecap="round" stroke-linejoin="round"/>
<path d="M15.4948 30.104H14.6426L14.4599 8.43258H15.4948C16.2862 8.43258 16.9558 8.06733 17.3211 7.33684C17.7472 6.66722 17.9298 5.7541 17.9298 4.71923C17.9298 3.68436 17.6863 2.83211 17.2602 2.16249C16.8341 1.49287 16.2253 1.12762 15.4339 1.12762H14.8252C15.7992 1.6755 16.3471 2.52774 16.1644 4.04961C15.8601 6.4846 13.8512 7.39771 11.5988 7.51946C11.6597 8.55433 11.5988 9.65007 11.5988 10.6849C11.5988 12.8764 11.7206 15.0679 11.7206 17.3203C11.7206 21.8859 11.9641 26.4515 12.025 31.0171C13.7295 31.1997 15.6774 31.7476 15.4948 33.5738C15.1905 36.3741 11.4162 36.4958 9.2856 36.4958C6.85062 36.4958 4.05038 36.8002 1.61539 36.374C1.55452 36.374 1.49365 36.3741 1.49365 36.3132C1.49365 36.3132 1.49364 36.374 1.55451 36.374C1.98063 37.1045 2.58939 37.4089 3.44163 37.4089L15.5557 37.348C16.3471 37.348 17.0167 36.9828 17.3819 36.2523C17.808 35.5827 17.9907 34.6696 17.9907 33.6347C17.9907 32.5998 17.7472 31.7476 17.3211 31.078C16.8949 30.4692 16.2862 30.104 15.4948 30.104Z" fill="#2E469A"/>
<path d="M4.9027 6.30195C4.29395 5.75407 3.5026 5.57145 3.31997 4.65833C3.2591 4.17134 3.44172 3.01471 3.86784 2.77121C3.92872 2.71034 3.98959 2.58859 3.86784 2.58859C3.13734 2.34509 2.71122 3.92784 2.58947 4.35396C2.22422 5.57145 3.19822 6.72807 4.41571 6.97157C4.78096 6.97157 5.1462 6.54545 4.9027 6.30195Z" fill="white"/>
<path d="M2.58915 35.0957C2.65002 35.1566 2.71089 35.1566 2.77177 35.1566C2.89351 35.0348 3.01528 34.8522 3.01528 34.6087C3.01528 34.1826 2.95439 33.6956 3.07614 33.2694C3.13701 32.8433 3.31964 32.3563 3.68489 32.1128C4.05013 31.8693 4.47627 31.6867 4.78064 31.4432V31.3823C3.98927 31.5649 3.1979 31.9302 2.65003 32.4781C2.58915 32.5998 2.52827 32.7216 2.46739 32.7824C2.16302 33.3912 1.91953 34.6087 2.58915 35.0957Z" fill="white"/>
<path d="M6.05919 8.67607C6.05919 8.49344 5.87655 8.55432 5.81567 8.67607C5.5113 9.52831 5.5113 10.3806 5.5113 11.2328C5.57217 12.9982 5.45044 14.7027 5.45044 16.468C5.45044 20.4249 5.45043 24.3817 5.57218 28.2777C5.57218 28.5212 5.99831 28.3995 5.99831 28.156C6.12006 24.8687 6.12005 21.6424 6.12005 18.3551C6.12005 16.7115 6.18092 15.0679 6.18092 13.4243C6.18092 11.9024 5.87656 10.1979 6.05919 8.67607Z" fill="white"/>
<path d="M22.0692 8.49346C22.9823 9.16308 24.078 9.46745 25.3564 9.46745C26.5739 9.46745 27.6696 9.1022 28.5828 8.43258C29.5568 7.70209 30.1046 6.60635 30.1046 5.2671C30.1046 3.92786 29.5568 2.83211 28.461 2.10162C27.5479 1.49287 26.4521 1.12762 25.2955 1.12762C24.078 1.12762 22.9823 1.49287 22.0692 2.22337C21.0343 3.01474 20.4864 4.04961 20.5473 5.32798C20.4864 6.66722 21.0343 7.70209 22.0692 8.49346Z" fill="#4E5CA7" stroke="#221F1F" stroke-width="0.820712" stroke-miterlimit="10" stroke-linecap="round" stroke-linejoin="round"/>
<path d="M25.4173 37.4698C26.7566 37.4698 27.9132 37.0437 28.8263 36.1914C29.7394 35.3392 30.2264 34.1217 30.2264 32.5389L30.1047 15.2505C30.1047 13.7896 29.6177 12.6938 28.6437 11.8416C27.7306 11.0502 26.574 10.6241 25.2347 10.6241C23.8955 10.6241 22.7389 11.0502 21.8866 11.8416C20.9735 12.6938 20.5474 13.9113 20.5474 15.4332L20.6691 32.5389C20.6691 34.0608 21.1561 35.2783 22.0692 36.1306C22.8606 37.0437 24.0172 37.4698 25.4173 37.4698Z" fill="#4E5CA7" stroke="#221F1F" stroke-width="0.820712" stroke-miterlimit="10" stroke-linecap="round" stroke-linejoin="round"/>
<path d="M22.0692 8.49346C22.9823 9.16308 24.078 9.46745 25.3564 9.46745C26.5739 9.46745 27.6696 9.1022 28.5828 8.43258C29.5568 7.70209 30.1046 6.60635 30.1046 5.2671C30.1046 3.92786 29.5568 2.83211 28.461 2.10162C27.5479 1.49287 26.4521 1.12762 25.2955 1.12762C24.078 1.12762 22.9823 1.49287 22.0692 2.22337C21.0343 3.01474 20.4864 4.04961 20.5473 5.32798C20.4864 6.66722 21.0343 7.70209 22.0692 8.49346Z" fill="#4E5CA7" stroke="#221F1F" stroke-width="0.820712" stroke-miterlimit="10" stroke-linecap="round" stroke-linejoin="round"/>
<path d="M25.4173 37.4698C26.7566 37.4698 27.9132 37.0437 28.8263 36.1914C29.7394 35.3392 30.2264 34.1217 30.2264 32.5389L30.1047 15.2505C30.1047 13.7896 29.6177 12.6938 28.6437 11.8416C27.7306 11.0502 26.574 10.6241 25.2347 10.6241C23.8955 10.6241 22.7389 11.0502 21.8866 11.8416C20.9735 12.6938 20.5474 13.9113 20.5474 15.4332L20.6691 32.5389C20.6691 34.0608 21.1561 35.2783 22.0692 36.1306C22.8606 37.0437 24.0172 37.4698 25.4173 37.4698Z" fill="#4E5CA7" stroke="#221F1F" stroke-width="0.820712" stroke-miterlimit="10" stroke-linecap="round" stroke-linejoin="round"/>
<path d="M28.4001 2.10162C27.487 1.49287 26.3913 1.12762 25.2347 1.12762C24.3215 1.12762 23.4693 1.31025 22.7388 1.73637C23.1649 1.61462 23.591 1.61462 23.9563 1.6755C25.9651 1.97987 27.8523 3.80611 26.9391 5.93672C26.2695 7.51946 24.565 8.67608 22.8605 8.8587C22.7388 8.8587 22.6779 8.8587 22.5562 8.8587C23.3475 9.28483 24.2607 9.46745 25.2347 9.46745C26.4521 9.46745 27.5479 9.1022 28.461 8.43258C29.435 7.70209 29.9829 6.60635 29.9829 5.2671C30.0437 3.92786 29.4959 2.83211 28.4001 2.10162Z" fill="#4E5CA7"/>
<path d="M30.1048 15.3114C30.1048 13.8504 29.6178 12.7547 28.6438 11.9024C27.7307 11.111 26.5741 10.6849 25.2348 10.6849C23.8956 10.6849 22.739 11.111 21.8867 11.9024C21.8259 11.9633 21.765 12.085 21.7041 12.1459C22.1911 11.8415 22.739 11.6589 23.2868 11.598C28.1568 11.4154 27.3655 17.5638 27.3655 20.6684C27.3655 24.26 27.1828 27.8516 27.3046 31.3823C27.3655 33.0259 27.5481 35.4609 25.8436 36.4958C24.9913 36.9828 24.2608 37.1654 23.5912 37.1045C24.1391 37.2872 24.7478 37.4089 25.4175 37.4089C26.7567 37.4089 27.9133 36.9828 28.8264 36.1305C29.7396 35.2783 30.2266 34.0608 30.2266 32.4781L30.1048 15.3114Z" fill="#4E5CA7"/>
<path d="M23.5299 2.64948C22.6777 2.95385 22.1298 3.37997 21.7645 4.17134C21.3993 4.96271 21.3993 6.24108 22.1907 6.78896C22.495 7.03245 22.982 6.6672 22.8603 6.30196C22.5559 5.44971 22.3733 4.96272 22.6777 4.0496C22.8603 3.5626 23.3473 3.19735 23.7125 2.8321C23.7734 2.71035 23.6517 2.5886 23.5299 2.64948Z" fill="white"/>
<path d="M22.1302 22.2511C22.1302 20.1814 22.0085 18.0508 22.1302 15.981C22.1302 15.6767 22.1911 15.3723 22.252 15.0679C22.3737 14.0939 22.6172 13.2417 23.2868 12.3894C23.226 12.3894 23.1651 12.3286 23.1651 12.3286C23.1042 12.3894 22.9825 12.3894 22.9216 12.4503C22.6781 12.6329 22.4955 12.8155 22.3128 13.059C21.3388 14.8244 21.8259 18.6595 21.8259 19.877C21.765 22.1902 21.765 24.5035 21.8259 26.8167C21.8867 29.0691 21.4606 31.9302 22.4346 33.9391C22.4346 33.9999 22.4955 33.9999 22.4955 33.9999C22.3737 32.7824 22.5564 31.4432 22.4955 30.2866C22.3129 27.669 22.1302 24.9905 22.1302 22.2511Z" fill="white"/>
</svg>
