<svg width="142" height="129" viewBox="0 0 142 129" fill="none" xmlns="http://www.w3.org/2000/svg">
<path d="M104.526 17.2561C105.44 17.2561 106.28 17.0115 106.975 16.5934C106.993 16.5776 107.02 16.5697 107.039 16.5539C107.066 16.5381 107.084 16.5223 107.112 16.5066C107.76 16.1199 108.546 15.899 109.396 15.899C110.026 15.899 110.62 16.0253 111.15 16.2462V26.8666H123.446C123.702 27.3242 123.848 27.8371 123.848 28.3815C123.848 29.1153 123.583 29.7939 123.135 30.3541C123.135 30.3541 123.135 30.362 123.126 30.362C123.099 30.3936 123.071 30.433 123.044 30.4646C123.044 30.4646 123.044 30.4725 123.035 30.4725C122.797 30.7723 122.605 31.1037 122.468 31.4588C122.341 31.8138 122.267 32.1926 122.267 32.5871C122.267 34.6386 124.195 36.3034 126.57 36.3034C128.945 36.3034 130.873 34.6386 130.873 32.5871C130.873 31.798 130.59 31.0721 130.106 30.4725C130.087 30.4567 130.078 30.433 130.06 30.4172C130.042 30.3936 130.023 30.3778 130.005 30.3541C129.558 29.7939 129.302 29.1153 129.302 28.3815C129.302 27.8371 129.448 27.3242 129.704 26.8666H142V16.2856C141.443 16.041 140.822 15.899 140.155 15.899C139.305 15.899 138.519 16.1199 137.871 16.5066C137.825 16.5302 137.779 16.5618 137.734 16.5934C137.04 17.0115 136.199 17.2561 135.285 17.2561C132.91 17.2561 130.983 15.5913 130.983 13.5398C130.983 11.4883 132.91 9.82345 135.285 9.82345C136.199 9.82345 137.04 10.068 137.734 10.4862C137.734 10.4862 137.734 10.4862 137.743 10.4941C137.779 10.5178 137.825 10.5415 137.862 10.5651C137.862 10.5651 137.862 10.5651 137.871 10.573C138.519 10.9597 139.305 11.1885 140.155 11.1885C140.822 11.1885 141.452 11.0464 142 10.8018V0.213013H129.74C129.457 0.694323 129.293 1.23087 129.293 1.80686C129.293 2.54066 129.548 3.21923 129.996 3.77945C130.023 3.8189 130.06 3.85835 130.097 3.8978C130.581 4.49747 130.864 5.22338 130.864 6.01241C130.864 8.0639 128.936 9.72876 126.561 9.72876C124.186 9.72876 122.258 8.0639 122.258 6.01241C122.258 5.22338 122.542 4.49747 123.026 3.8978C123.026 3.8978 123.026 3.8978 123.035 3.88991C123.062 3.85835 123.09 3.8189 123.117 3.78734C123.117 3.78734 123.117 3.78734 123.126 3.77945C123.574 3.21923 123.839 2.54066 123.839 1.80686C123.839 1.23087 123.674 0.686433 123.391 0.213013H111.14V10.8334C110.611 11.0543 110.017 11.1806 109.386 11.1806C108.537 11.1806 107.751 10.9518 107.103 10.5651C107.103 10.5651 107.093 10.5651 107.093 10.5572C107.057 10.5336 107.011 10.5099 106.975 10.4862C106.975 10.4862 106.966 10.4862 106.966 10.4783C106.618 10.2732 106.235 10.1075 105.824 9.98914C105.413 9.87868 104.974 9.81556 104.517 9.81556C102.142 9.81556 100.214 11.4804 100.214 13.5319C100.214 15.5834 102.151 17.2561 104.526 17.2561Z" fill="url(#paint0_linear_50_8594)"/>
<path d="M104.526 17.2561C105.44 17.2561 106.28 17.0115 106.975 16.5934C106.993 16.5776 107.02 16.5697 107.039 16.5539C107.066 16.5381 107.084 16.5223 107.112 16.5066C107.76 16.1199 108.546 15.899 109.396 15.899C110.026 15.899 110.62 16.0253 111.15 16.2462V26.8666H123.446C123.702 27.3242 123.848 27.8371 123.848 28.3815C123.848 29.1153 123.583 29.7939 123.135 30.3541C123.135 30.3541 123.135 30.362 123.126 30.362C123.099 30.3936 123.071 30.433 123.044 30.4646C123.044 30.4646 123.044 30.4725 123.035 30.4725C122.797 30.7723 122.605 31.1037 122.468 31.4588C122.341 31.8138 122.267 32.1926 122.267 32.5871C122.267 34.6386 124.195 36.3034 126.57 36.3034C128.945 36.3034 130.873 34.6386 130.873 32.5871C130.873 31.798 130.59 31.0721 130.106 30.4725C130.087 30.4567 130.078 30.433 130.06 30.4172C130.042 30.3936 130.023 30.3778 130.005 30.3541C129.558 29.7939 129.302 29.1153 129.302 28.3815C129.302 27.8371 129.448 27.3242 129.704 26.8666H142V16.2856C141.443 16.041 140.822 15.899 140.155 15.899C139.305 15.899 138.519 16.1199 137.871 16.5066C137.825 16.5302 137.779 16.5618 137.734 16.5934C137.04 17.0115 136.199 17.2561 135.285 17.2561C132.91 17.2561 130.983 15.5913 130.983 13.5398C130.983 11.4883 132.91 9.82345 135.285 9.82345C136.199 9.82345 137.04 10.068 137.734 10.4862C137.734 10.4862 137.734 10.4862 137.743 10.4941C137.779 10.5178 137.825 10.5415 137.862 10.5651C137.862 10.5651 137.862 10.5651 137.871 10.573C138.519 10.9597 139.305 11.1885 140.155 11.1885C140.822 11.1885 141.452 11.0464 142 10.8018V0.213013H129.74C129.457 0.694323 129.293 1.23087 129.293 1.80686C129.293 2.54066 129.548 3.21923 129.996 3.77945C130.023 3.8189 130.06 3.85835 130.097 3.8978C130.581 4.49747 130.864 5.22338 130.864 6.01241C130.864 8.0639 128.936 9.72876 126.561 9.72876C124.186 9.72876 122.258 8.0639 122.258 6.01241C122.258 5.22338 122.542 4.49747 123.026 3.8978C123.026 3.8978 123.026 3.8978 123.035 3.88991C123.062 3.85835 123.09 3.8189 123.117 3.78734C123.117 3.78734 123.117 3.78734 123.126 3.77945C123.574 3.21923 123.839 2.54066 123.839 1.80686C123.839 1.23087 123.674 0.686433 123.391 0.213013H111.14V10.8334C110.611 11.0543 110.017 11.1806 109.386 11.1806C108.537 11.1806 107.751 10.9518 107.103 10.5651C107.103 10.5651 107.093 10.5651 107.093 10.5572C107.057 10.5336 107.011 10.5099 106.975 10.4862C106.975 10.4862 106.966 10.4862 106.966 10.4783C106.618 10.2732 106.235 10.1075 105.824 9.98914C105.413 9.87868 104.974 9.81556 104.517 9.81556C102.142 9.81556 100.214 11.4804 100.214 13.5319C100.214 15.5834 102.151 17.2561 104.526 17.2561Z" fill="url(#paint1_linear_50_8594)"/>
<path d="M104.526 44.5962C105.44 44.5962 106.28 44.3516 106.975 43.9334C106.993 43.9177 107.02 43.9098 107.039 43.894C107.066 43.8782 107.084 43.8624 107.112 43.8467C107.76 43.46 108.546 43.2391 109.396 43.2391C110.026 43.2391 110.62 43.3653 111.15 43.5863V54.2067H123.446C123.702 54.6643 123.848 55.1772 123.848 55.7216C123.848 56.4554 123.583 57.134 123.135 57.6942C123.135 57.6942 123.135 57.6942 123.126 57.7021C123.099 57.7336 123.071 57.7731 123.044 57.8047C123.044 57.8047 123.044 57.8126 123.035 57.8126C122.797 58.1124 122.605 58.4438 122.468 58.7988C122.341 59.1539 122.267 59.5326 122.267 59.9272C122.267 61.9786 124.195 63.6435 126.57 63.6435C128.945 63.6435 130.873 61.9786 130.873 59.9272C130.873 59.1381 130.59 58.4122 130.106 57.8126C130.087 57.7968 130.078 57.7731 130.06 57.7573C130.042 57.7336 130.023 57.7179 130.005 57.6942C129.558 57.134 129.302 56.4554 129.302 55.7216C129.302 55.1772 129.448 54.6643 129.704 54.2067H142V43.6257C141.443 43.3811 140.822 43.2391 140.155 43.2391C139.305 43.2391 138.519 43.46 137.871 43.8467C137.825 43.8703 137.779 43.9019 137.734 43.9334C137.04 44.3516 136.199 44.5962 135.285 44.5962C132.91 44.5962 130.983 42.9314 130.983 40.8799C130.983 38.8284 132.91 37.1635 135.285 37.1635C136.199 37.1635 137.04 37.4081 137.734 37.8263C137.734 37.8263 137.734 37.8263 137.743 37.8342C137.779 37.8579 137.825 37.8816 137.862 37.9052C137.862 37.9052 137.862 37.9052 137.871 37.9131C138.519 38.2997 139.305 38.5286 140.155 38.5286C140.822 38.5286 141.452 38.3865 142 38.1419V27.5531H129.74C129.457 28.0344 129.293 28.571 129.293 29.1469C129.293 29.8807 129.548 30.5593 129.996 31.1195C130.023 31.159 130.06 31.1984 130.097 31.2379C130.581 31.8376 130.864 32.5635 130.864 33.3525C130.864 35.404 128.936 37.0688 126.561 37.0688C124.186 37.0688 122.258 35.404 122.258 33.3525C122.258 32.5635 122.542 31.8376 123.026 31.2379C123.026 31.2379 123.026 31.23 123.035 31.23C123.062 31.1984 123.09 31.159 123.117 31.1274C123.117 31.1274 123.117 31.1274 123.126 31.1195C123.574 30.5593 123.839 29.8807 123.839 29.1469C123.839 28.571 123.674 28.0265 123.391 27.5531H111.14V38.1735C110.611 38.3944 110.017 38.5207 109.386 38.5207C108.537 38.5207 107.751 38.2919 107.103 37.9052C107.103 37.9052 107.093 37.9052 107.093 37.8973C107.057 37.8737 107.011 37.85 106.975 37.8263C106.975 37.8263 106.966 37.8263 106.966 37.8184C106.618 37.6133 106.235 37.4476 105.824 37.3292C105.413 37.2188 104.974 37.1556 104.517 37.1556C102.142 37.1556 100.214 38.8205 100.214 40.872C100.233 42.9314 102.151 44.5962 104.526 44.5962Z" fill="url(#paint2_linear_50_8594)"/>
<path d="M104.526 44.5962C105.44 44.5962 106.28 44.3516 106.975 43.9334C106.993 43.9177 107.02 43.9098 107.039 43.894C107.066 43.8782 107.084 43.8624 107.112 43.8467C107.76 43.46 108.546 43.2391 109.396 43.2391C110.026 43.2391 110.62 43.3653 111.15 43.5863V54.2067H123.446C123.702 54.6643 123.848 55.1772 123.848 55.7216C123.848 56.4554 123.583 57.134 123.135 57.6942C123.135 57.6942 123.135 57.6942 123.126 57.7021C123.099 57.7336 123.071 57.7731 123.044 57.8047C123.044 57.8047 123.044 57.8126 123.035 57.8126C122.797 58.1124 122.605 58.4438 122.468 58.7988C122.341 59.1539 122.267 59.5326 122.267 59.9272C122.267 61.9786 124.195 63.6435 126.57 63.6435C128.945 63.6435 130.873 61.9786 130.873 59.9272C130.873 59.1381 130.59 58.4122 130.106 57.8126C130.087 57.7968 130.078 57.7731 130.06 57.7573C130.042 57.7336 130.023 57.7179 130.005 57.6942C129.558 57.134 129.302 56.4554 129.302 55.7216C129.302 55.1772 129.448 54.6643 129.704 54.2067H142V43.6257C141.443 43.3811 140.822 43.2391 140.155 43.2391C139.305 43.2391 138.519 43.46 137.871 43.8467C137.825 43.8703 137.779 43.9019 137.734 43.9334C137.04 44.3516 136.199 44.5962 135.285 44.5962C132.91 44.5962 130.983 42.9314 130.983 40.8799C130.983 38.8284 132.91 37.1635 135.285 37.1635C136.199 37.1635 137.04 37.4081 137.734 37.8263C137.734 37.8263 137.734 37.8263 137.743 37.8342C137.779 37.8579 137.825 37.8816 137.862 37.9052C137.862 37.9052 137.862 37.9052 137.871 37.9131C138.519 38.2997 139.305 38.5286 140.155 38.5286C140.822 38.5286 141.452 38.3865 142 38.1419V27.5531H129.74C129.457 28.0344 129.293 28.571 129.293 29.1469C129.293 29.8807 129.548 30.5593 129.996 31.1195C130.023 31.159 130.06 31.1984 130.097 31.2379C130.581 31.8376 130.864 32.5635 130.864 33.3525C130.864 35.404 128.936 37.0688 126.561 37.0688C124.186 37.0688 122.258 35.404 122.258 33.3525C122.258 32.5635 122.542 31.8376 123.026 31.2379C123.026 31.2379 123.026 31.23 123.035 31.23C123.062 31.1984 123.09 31.159 123.117 31.1274C123.117 31.1274 123.117 31.1274 123.126 31.1195C123.574 30.5593 123.839 29.8807 123.839 29.1469C123.839 28.571 123.674 28.0265 123.391 27.5531H111.14V38.1735C110.611 38.3944 110.017 38.5207 109.386 38.5207C108.537 38.5207 107.751 38.2919 107.103 37.9052C107.103 37.9052 107.093 37.9052 107.093 37.8973C107.057 37.8737 107.011 37.85 106.975 37.8263C106.975 37.8263 106.966 37.8263 106.966 37.8184C106.618 37.6133 106.235 37.4476 105.824 37.3292C105.413 37.2188 104.974 37.1556 104.517 37.1556C102.142 37.1556 100.214 38.8205 100.214 40.872C100.233 42.9314 102.151 44.5962 104.526 44.5962Z" fill="url(#paint3_linear_50_8594)"/>
<path d="M104.526 72.1099C105.44 72.1099 106.28 71.8653 106.975 71.4471C106.993 71.4313 107.02 71.4234 107.039 71.4076C107.066 71.3918 107.084 71.3761 107.112 71.3603C107.76 70.9737 108.546 70.7527 109.396 70.7527C110.026 70.7527 110.62 70.879 111.15 71.0999V81.7203H123.446C123.702 82.1779 123.848 82.6908 123.848 83.2352C123.848 83.969 123.583 84.6476 123.135 85.2078C123.135 85.2078 123.135 85.2157 123.126 85.2157C123.099 85.2473 123.071 85.2867 123.044 85.3183C123.044 85.3183 123.044 85.3262 123.035 85.3262C122.797 85.626 122.605 85.9574 122.468 86.3125C122.341 86.6675 122.267 87.0463 122.267 87.4408C122.267 89.4923 124.195 91.1572 126.57 91.1572C128.945 91.1572 130.873 89.4923 130.873 87.4408C130.873 86.6518 130.59 85.9259 130.106 85.3262C130.087 85.3104 130.078 85.2867 130.06 85.271C130.042 85.2473 130.023 85.2315 130.005 85.2078C129.558 84.6476 129.302 83.969 129.302 83.2352C129.302 82.6908 129.448 82.1779 129.704 81.7203H142V71.1394C141.443 70.8948 140.822 70.7527 140.155 70.7527C139.305 70.7527 138.519 70.9737 137.871 71.3603C137.825 71.384 137.779 71.4155 137.734 71.4471C137.04 71.8653 136.199 72.1099 135.285 72.1099C132.91 72.1099 130.983 70.445 130.983 68.3935C130.983 66.342 132.91 64.6772 135.285 64.6772C136.199 64.6772 137.04 64.9218 137.734 65.34C137.734 65.34 137.734 65.34 137.743 65.3478C137.779 65.3715 137.825 65.3952 137.862 65.4189C137.862 65.4189 137.862 65.4189 137.871 65.4189C138.519 65.8055 139.305 66.0343 140.155 66.0343C140.822 66.0343 141.452 65.8923 142 65.6477V55.0588H129.74C129.457 55.5401 129.293 56.0767 129.293 56.6527C129.293 57.3865 129.548 58.0651 129.996 58.6253C130.023 58.6647 130.06 58.7042 130.097 58.7436C130.581 59.3433 130.864 60.0692 130.864 60.8582C130.864 62.9097 128.936 64.5746 126.561 64.5746C124.186 64.5746 122.258 62.9097 122.258 60.8582C122.258 60.0692 122.542 59.3433 123.026 58.7436C123.026 58.7436 123.026 58.7357 123.035 58.7357C123.062 58.7042 123.09 58.6647 123.117 58.6332C123.117 58.6332 123.117 58.6332 123.126 58.6253C123.574 58.0651 123.839 57.3865 123.839 56.6527C123.839 56.0767 123.674 55.5323 123.391 55.0588H111.14V65.6792C110.611 65.9002 110.017 66.0264 109.386 66.0264C108.537 66.0264 107.751 65.7976 107.103 65.411H107.093C107.057 65.3873 107.011 65.3636 106.975 65.34C106.975 65.34 106.966 65.34 106.966 65.3321C106.618 65.1269 106.235 64.9612 105.824 64.8429C105.413 64.7324 104.974 64.6693 104.517 64.6693C102.142 64.6693 100.214 66.3341 100.214 68.3856C100.214 70.4371 102.151 72.1099 104.526 72.1099Z" fill="url(#paint4_linear_50_8594)"/>
<path d="M104.526 72.1099C105.44 72.1099 106.28 71.8653 106.975 71.4471C106.993 71.4313 107.02 71.4234 107.039 71.4076C107.066 71.3918 107.084 71.3761 107.112 71.3603C107.76 70.9737 108.546 70.7527 109.396 70.7527C110.026 70.7527 110.62 70.879 111.15 71.0999V81.7203H123.446C123.702 82.1779 123.848 82.6908 123.848 83.2352C123.848 83.969 123.583 84.6476 123.135 85.2078C123.135 85.2078 123.135 85.2157 123.126 85.2157C123.099 85.2473 123.071 85.2867 123.044 85.3183C123.044 85.3183 123.044 85.3262 123.035 85.3262C122.797 85.626 122.605 85.9574 122.468 86.3125C122.341 86.6675 122.267 87.0463 122.267 87.4408C122.267 89.4923 124.195 91.1572 126.57 91.1572C128.945 91.1572 130.873 89.4923 130.873 87.4408C130.873 86.6518 130.59 85.9259 130.106 85.3262C130.087 85.3104 130.078 85.2867 130.06 85.271C130.042 85.2473 130.023 85.2315 130.005 85.2078C129.558 84.6476 129.302 83.969 129.302 83.2352C129.302 82.6908 129.448 82.1779 129.704 81.7203H142V71.1394C141.443 70.8948 140.822 70.7527 140.155 70.7527C139.305 70.7527 138.519 70.9737 137.871 71.3603C137.825 71.384 137.779 71.4155 137.734 71.4471C137.04 71.8653 136.199 72.1099 135.285 72.1099C132.91 72.1099 130.983 70.445 130.983 68.3935C130.983 66.342 132.91 64.6772 135.285 64.6772C136.199 64.6772 137.04 64.9218 137.734 65.34C137.734 65.34 137.734 65.34 137.743 65.3478C137.779 65.3715 137.825 65.3952 137.862 65.4189C137.862 65.4189 137.862 65.4189 137.871 65.4189C138.519 65.8055 139.305 66.0343 140.155 66.0343C140.822 66.0343 141.452 65.8923 142 65.6477V55.0588H129.74C129.457 55.5401 129.293 56.0767 129.293 56.6527C129.293 57.3865 129.548 58.0651 129.996 58.6253C130.023 58.6647 130.06 58.7042 130.097 58.7436C130.581 59.3433 130.864 60.0692 130.864 60.8582C130.864 62.9097 128.936 64.5746 126.561 64.5746C124.186 64.5746 122.258 62.9097 122.258 60.8582C122.258 60.0692 122.542 59.3433 123.026 58.7436C123.026 58.7436 123.026 58.7357 123.035 58.7357C123.062 58.7042 123.09 58.6647 123.117 58.6332C123.117 58.6332 123.117 58.6332 123.126 58.6253C123.574 58.0651 123.839 57.3865 123.839 56.6527C123.839 56.0767 123.674 55.5323 123.391 55.0588H111.14V65.6792C110.611 65.9002 110.017 66.0264 109.386 66.0264C108.537 66.0264 107.751 65.7976 107.103 65.411H107.093C107.057 65.3873 107.011 65.3636 106.975 65.34C106.975 65.34 106.966 65.34 106.966 65.3321C106.618 65.1269 106.235 64.9612 105.824 64.8429C105.413 64.7324 104.974 64.6693 104.517 64.6693C102.142 64.6693 100.214 66.3341 100.214 68.3856C100.214 70.4371 102.151 72.1099 104.526 72.1099Z" fill="url(#paint5_linear_50_8594)"/>
<path d="M72.4609 44.5962C73.3744 44.5962 74.2149 44.3516 74.9092 43.9334C74.9274 43.9177 74.9548 43.9098 74.9731 43.894C75.0005 43.8782 75.0188 43.8624 75.0462 43.8467C75.6948 43.46 76.4805 43.2391 77.3301 43.2391C77.9604 43.2391 78.5542 43.3653 79.0841 43.5863V54.2067H91.3804C91.6362 54.6643 91.7823 55.1772 91.7823 55.7216C91.7823 56.4554 91.5174 57.134 91.0698 57.6942C91.0698 57.6942 91.0698 57.6942 91.0606 57.7021C91.0332 57.7336 91.0058 57.7731 90.9784 57.8047C90.9784 57.8047 90.9784 57.8126 90.9693 57.8126C90.7318 58.1124 90.5399 58.4438 90.4029 58.7988C90.275 59.1539 90.2019 59.5326 90.2019 59.9272C90.2019 61.9786 92.1295 63.6435 94.5047 63.6435C96.8799 63.6435 98.8075 61.9786 98.8075 59.9272C98.8075 59.1381 98.5243 58.4122 98.0401 57.8126C98.0219 57.7968 98.0127 57.7731 97.9945 57.7573C97.9762 57.7336 97.9579 57.7179 97.9396 57.6942C97.492 57.134 97.2362 56.4554 97.2362 55.7216C97.2362 55.1772 97.3824 54.6643 97.6382 54.2067H109.934V43.6257C109.377 43.3811 108.756 43.2391 108.089 43.2391C107.24 43.2391 106.454 43.46 105.805 43.8467C105.76 43.8703 105.714 43.9019 105.668 43.9334C104.974 44.3516 104.133 44.5962 103.22 44.5962C100.845 44.5962 98.9171 42.9314 98.9171 40.8799C98.9171 38.8284 100.845 37.1635 103.22 37.1635C104.133 37.1635 104.974 37.4081 105.668 37.8263C105.668 37.8263 105.668 37.8263 105.677 37.8342C105.714 37.8579 105.76 37.8816 105.796 37.9052C105.796 37.9052 105.796 37.9052 105.805 37.9131C106.454 38.2997 107.24 38.5286 108.089 38.5286C108.756 38.5286 109.386 38.3865 109.934 38.1419V27.5531H97.6747C97.3915 28.0344 97.2271 28.571 97.2271 29.1469C97.2271 29.8807 97.4829 30.5593 97.9305 31.1195C97.9579 31.159 97.9945 31.1984 98.031 31.2379C98.5152 31.8376 98.7984 32.5635 98.7984 33.3525C98.7984 35.404 96.8708 37.0688 94.4956 37.0688C92.1204 37.0688 90.1928 35.404 90.1928 33.3525C90.1928 32.5635 90.476 31.8376 90.9602 31.2379C90.9602 31.2379 90.9601 31.23 90.9693 31.23C90.9967 31.1984 91.0241 31.159 91.0515 31.1274C91.0515 31.1274 91.0515 31.1274 91.0606 31.1195C91.5083 30.5593 91.7732 29.8807 91.7732 29.1469C91.7732 28.571 91.6088 28.0265 91.3256 27.5531H79.0749V38.1735C78.5451 38.3944 77.9513 38.5207 77.3209 38.5207C76.4713 38.5207 75.6857 38.2919 75.0371 37.9052C75.0371 37.9052 75.0279 37.9052 75.0279 37.8973C74.9914 37.8737 74.9457 37.85 74.9092 37.8263C74.9092 37.8263 74.9 37.8263 74.9 37.8184C74.5529 37.6133 74.1692 37.4476 73.7581 37.3292C73.347 37.2188 72.9085 37.1556 72.4517 37.1556C70.0765 37.1556 68.1489 38.8205 68.1489 40.872C68.1581 42.9314 70.0856 44.5962 72.4609 44.5962Z" fill="url(#paint6_linear_50_8594)"/>
<path d="M72.4609 44.5962C73.3744 44.5962 74.2149 44.3516 74.9092 43.9334C74.9274 43.9177 74.9548 43.9098 74.9731 43.894C75.0005 43.8782 75.0188 43.8624 75.0462 43.8467C75.6948 43.46 76.4805 43.2391 77.3301 43.2391C77.9604 43.2391 78.5542 43.3653 79.0841 43.5863V54.2067H91.3804C91.6362 54.6643 91.7823 55.1772 91.7823 55.7216C91.7823 56.4554 91.5174 57.134 91.0698 57.6942C91.0698 57.6942 91.0698 57.6942 91.0606 57.7021C91.0332 57.7336 91.0058 57.7731 90.9784 57.8047C90.9784 57.8047 90.9784 57.8126 90.9693 57.8126C90.7318 58.1124 90.5399 58.4438 90.4029 58.7988C90.275 59.1539 90.2019 59.5326 90.2019 59.9272C90.2019 61.9786 92.1295 63.6435 94.5047 63.6435C96.8799 63.6435 98.8075 61.9786 98.8075 59.9272C98.8075 59.1381 98.5243 58.4122 98.0401 57.8126C98.0219 57.7968 98.0127 57.7731 97.9945 57.7573C97.9762 57.7336 97.9579 57.7179 97.9396 57.6942C97.492 57.134 97.2362 56.4554 97.2362 55.7216C97.2362 55.1772 97.3824 54.6643 97.6382 54.2067H109.934V43.6257C109.377 43.3811 108.756 43.2391 108.089 43.2391C107.24 43.2391 106.454 43.46 105.805 43.8467C105.76 43.8703 105.714 43.9019 105.668 43.9334C104.974 44.3516 104.133 44.5962 103.22 44.5962C100.845 44.5962 98.9171 42.9314 98.9171 40.8799C98.9171 38.8284 100.845 37.1635 103.22 37.1635C104.133 37.1635 104.974 37.4081 105.668 37.8263C105.668 37.8263 105.668 37.8263 105.677 37.8342C105.714 37.8579 105.76 37.8816 105.796 37.9052C105.796 37.9052 105.796 37.9052 105.805 37.9131C106.454 38.2997 107.24 38.5286 108.089 38.5286C108.756 38.5286 109.386 38.3865 109.934 38.1419V27.5531H97.6747C97.3915 28.0344 97.2271 28.571 97.2271 29.1469C97.2271 29.8807 97.4829 30.5593 97.9305 31.1195C97.9579 31.159 97.9945 31.1984 98.031 31.2379C98.5152 31.8376 98.7984 32.5635 98.7984 33.3525C98.7984 35.404 96.8708 37.0688 94.4956 37.0688C92.1204 37.0688 90.1928 35.404 90.1928 33.3525C90.1928 32.5635 90.476 31.8376 90.9602 31.2379C90.9602 31.2379 90.9601 31.23 90.9693 31.23C90.9967 31.1984 91.0241 31.159 91.0515 31.1274C91.0515 31.1274 91.0515 31.1274 91.0606 31.1195C91.5083 30.5593 91.7732 29.8807 91.7732 29.1469C91.7732 28.571 91.6088 28.0265 91.3256 27.5531H79.0749V38.1735C78.5451 38.3944 77.9513 38.5207 77.3209 38.5207C76.4713 38.5207 75.6857 38.2919 75.0371 37.9052C75.0371 37.9052 75.0279 37.9052 75.0279 37.8973C74.9914 37.8737 74.9457 37.85 74.9092 37.8263C74.9092 37.8263 74.9 37.8263 74.9 37.8184C74.5529 37.6133 74.1692 37.4476 73.7581 37.3292C73.347 37.2188 72.9085 37.1556 72.4517 37.1556C70.0765 37.1556 68.1489 38.8205 68.1489 40.872C68.1581 42.9314 70.0856 44.5962 72.4609 44.5962Z" fill="url(#paint7_linear_50_8594)"/>
<path d="M40.6695 72.1099C41.5831 72.1099 42.4235 71.8653 43.1178 71.4471C43.1361 71.4313 43.1635 71.4234 43.1818 71.4076C43.2092 71.3918 43.2274 71.3761 43.2548 71.3603C43.9035 70.9737 44.6891 70.7527 45.5387 70.7527C46.1691 70.7527 46.7629 70.879 47.2927 71.0999V81.7203H59.589C59.8448 82.1779 59.991 82.6908 59.991 83.2352C59.991 83.969 59.7261 84.6476 59.2784 85.2078C59.2784 85.2078 59.2784 85.2157 59.2693 85.2157C59.2419 85.2473 59.2145 85.2867 59.1871 85.3183C59.1871 85.3183 59.1871 85.3262 59.1779 85.3262C58.9404 85.626 58.7486 85.9574 58.6115 86.3125C58.4836 86.6675 58.4106 87.0463 58.4106 87.4408C58.4106 89.4923 60.3382 91.1572 62.7134 91.1572C65.0886 91.1572 67.0162 89.4923 67.0162 87.4408C67.0162 86.6518 66.733 85.9259 66.2488 85.3262C66.2305 85.3104 66.2214 85.2867 66.2031 85.271C66.1848 85.2473 66.1666 85.2315 66.1483 85.2078C65.7006 84.6476 65.4449 83.969 65.4449 83.2352C65.4449 82.6908 65.591 82.1779 65.8468 81.7203H78.1431V71.1394C77.5859 70.8948 76.9647 70.7527 76.2978 70.7527C75.4482 70.7527 74.6625 70.9737 74.0139 71.3603C73.9682 71.384 73.9226 71.4155 73.8769 71.4471C73.1826 71.8653 72.3421 72.1099 71.4286 72.1099C69.0534 72.1099 67.1258 70.445 67.1258 68.3935C67.1258 66.342 69.0534 64.6772 71.4286 64.6772C72.3421 64.6772 73.1826 64.9218 73.8769 65.34C73.8769 65.34 73.8769 65.34 73.886 65.3478C73.9226 65.3715 73.9682 65.3952 74.0048 65.4189C74.0048 65.4189 74.0048 65.4189 74.0139 65.4189C74.6625 65.8055 75.4482 66.0343 76.2978 66.0343C76.9647 66.0343 77.595 65.8923 78.1431 65.6477V55.0588H65.8834C65.6002 55.5401 65.4357 56.0767 65.4357 56.6527C65.4357 57.3865 65.6915 58.0651 66.1392 58.6253C66.1666 58.6647 66.2031 58.7042 66.2396 58.7436C66.7238 59.3433 67.007 60.0692 67.007 60.8582C67.007 62.9097 65.0794 64.5746 62.7042 64.5746C60.329 64.5746 58.4014 62.9097 58.4014 60.8582C58.4014 60.0692 58.6846 59.3433 59.1688 58.7436C59.1688 58.7436 59.1688 58.7357 59.1779 58.7357C59.2053 58.7042 59.2328 58.6647 59.2602 58.6332C59.2602 58.6332 59.2601 58.6332 59.2693 58.6253C59.7169 58.0651 59.9819 57.3865 59.9819 56.6527C59.9819 56.0767 59.8174 55.5323 59.5342 55.0588H47.2836V65.6792C46.7537 65.9002 46.1599 66.0264 45.5296 66.0264C44.68 66.0264 43.8943 65.7976 43.2457 65.411H43.2366C43.2 65.3873 43.1544 65.3636 43.1178 65.34C43.1178 65.34 43.1087 65.34 43.1087 65.3321C42.7615 65.1269 42.3778 64.9612 41.9667 64.8429C41.5556 64.7324 41.1171 64.6693 40.6604 64.6693C38.2851 64.6693 36.3576 66.3341 36.3576 68.3856C36.3576 70.4371 38.2943 72.1099 40.6695 72.1099Z" fill="url(#paint8_linear_50_8594)"/>
<path d="M40.6695 72.1099C41.5831 72.1099 42.4235 71.8653 43.1178 71.4471C43.1361 71.4313 43.1635 71.4234 43.1818 71.4076C43.2092 71.3918 43.2274 71.3761 43.2548 71.3603C43.9035 70.9737 44.6891 70.7527 45.5387 70.7527C46.1691 70.7527 46.7629 70.879 47.2927 71.0999V81.7203H59.589C59.8448 82.1779 59.991 82.6908 59.991 83.2352C59.991 83.969 59.7261 84.6476 59.2784 85.2078C59.2784 85.2078 59.2784 85.2157 59.2693 85.2157C59.2419 85.2473 59.2145 85.2867 59.1871 85.3183C59.1871 85.3183 59.1871 85.3262 59.1779 85.3262C58.9404 85.626 58.7486 85.9574 58.6115 86.3125C58.4836 86.6675 58.4106 87.0463 58.4106 87.4408C58.4106 89.4923 60.3382 91.1572 62.7134 91.1572C65.0886 91.1572 67.0162 89.4923 67.0162 87.4408C67.0162 86.6518 66.733 85.9259 66.2488 85.3262C66.2305 85.3104 66.2214 85.2867 66.2031 85.271C66.1848 85.2473 66.1666 85.2315 66.1483 85.2078C65.7006 84.6476 65.4449 83.969 65.4449 83.2352C65.4449 82.6908 65.591 82.1779 65.8468 81.7203H78.1431V71.1394C77.5859 70.8948 76.9647 70.7527 76.2978 70.7527C75.4482 70.7527 74.6625 70.9737 74.0139 71.3603C73.9682 71.384 73.9226 71.4155 73.8769 71.4471C73.1826 71.8653 72.3421 72.1099 71.4286 72.1099C69.0534 72.1099 67.1258 70.445 67.1258 68.3935C67.1258 66.342 69.0534 64.6772 71.4286 64.6772C72.3421 64.6772 73.1826 64.9218 73.8769 65.34C73.8769 65.34 73.8769 65.34 73.886 65.3478C73.9226 65.3715 73.9682 65.3952 74.0048 65.4189C74.0048 65.4189 74.0048 65.4189 74.0139 65.4189C74.6625 65.8055 75.4482 66.0343 76.2978 66.0343C76.9647 66.0343 77.595 65.8923 78.1431 65.6477V55.0588H65.8834C65.6002 55.5401 65.4357 56.0767 65.4357 56.6527C65.4357 57.3865 65.6915 58.0651 66.1392 58.6253C66.1666 58.6647 66.2031 58.7042 66.2396 58.7436C66.7238 59.3433 67.007 60.0692 67.007 60.8582C67.007 62.9097 65.0794 64.5746 62.7042 64.5746C60.329 64.5746 58.4014 62.9097 58.4014 60.8582C58.4014 60.0692 58.6846 59.3433 59.1688 58.7436C59.1688 58.7436 59.1688 58.7357 59.1779 58.7357C59.2053 58.7042 59.2328 58.6647 59.2602 58.6332C59.2602 58.6332 59.2601 58.6332 59.2693 58.6253C59.7169 58.0651 59.9819 57.3865 59.9819 56.6527C59.9819 56.0767 59.8174 55.5323 59.5342 55.0588H47.2836V65.6792C46.7537 65.9002 46.1599 66.0264 45.5296 66.0264C44.68 66.0264 43.8943 65.7976 43.2457 65.411H43.2366C43.2 65.3873 43.1544 65.3636 43.1178 65.34C43.1178 65.34 43.1087 65.34 43.1087 65.3321C42.7615 65.1269 42.3778 64.9612 41.9667 64.8429C41.5556 64.7324 41.1171 64.6693 40.6604 64.6693C38.2851 64.6693 36.3576 66.3341 36.3576 68.3856C36.3576 70.4371 38.2943 72.1099 40.6695 72.1099Z" fill="url(#paint9_linear_50_8594)"/>
<path d="M17.0452 53.3545C17.3102 52.6049 17.2828 51.8316 17.0178 51.1373C17.0087 51.1136 16.9996 51.0899 16.9904 51.0741C16.9813 51.0505 16.9722 51.0268 16.963 51.0031C16.7255 50.3561 16.6981 49.6381 16.9447 48.9438C17.1274 48.423 17.4381 47.9654 17.8309 47.5945L29.6065 50.6481L33.1419 40.4774C33.7266 40.3985 34.3387 40.4222 34.9416 40.58C35.7547 40.793 36.4307 41.2033 36.924 41.732C36.924 41.732 36.924 41.732 36.9331 41.7399C36.9605 41.7714 36.9971 41.803 37.0245 41.8424C37.0245 41.8424 37.0245 41.8503 37.0336 41.8503C37.2985 42.1344 37.6091 42.3869 37.9654 42.5999C38.3217 42.813 38.7237 42.9787 39.153 43.0891C41.4278 43.6809 43.8304 42.5684 44.5064 40.6037C45.1824 38.639 43.9035 36.5638 41.6287 35.9799C40.7609 35.7511 39.8656 35.7748 39.0617 36.0036C39.0343 36.0115 39.0069 36.0194 38.9886 36.0273C38.9612 36.0352 38.9338 36.043 38.9064 36.0509C38.1573 36.2561 37.3259 36.2798 36.522 36.0667C35.9191 35.9089 35.3892 35.6406 34.9599 35.3014L38.4953 25.1307L26.7562 22.0614C26.3269 22.448 25.9888 22.9293 25.797 23.4816C25.5503 24.1839 25.5777 24.894 25.8153 25.541C25.8335 25.5883 25.8518 25.6357 25.8701 25.6751C26.135 26.3695 26.1624 27.1349 25.8975 27.8923C25.2123 29.857 22.8188 30.9696 20.5441 30.3778C18.2694 29.786 16.9813 27.7187 17.6664 25.754C17.9314 25.0045 18.443 24.3732 19.1007 23.9156C19.1007 23.9156 19.1098 23.9156 19.1098 23.9077C19.1464 23.884 19.1921 23.8604 19.2286 23.8288C19.2286 23.8288 19.2286 23.8288 19.2377 23.8209C19.8498 23.3948 20.3249 22.8109 20.5715 22.1087C20.7634 21.5564 20.7908 20.9962 20.672 20.4675L8.92382 17.4376L5.39752 27.5767C5.84516 27.9476 6.40242 28.2395 7.0419 28.4052C7.85496 28.6182 8.67716 28.5946 9.42627 28.3894C9.48108 28.3736 9.53589 28.3579 9.58156 28.3421C10.3855 28.1133 11.2716 28.0896 12.1486 28.3184C14.4234 28.9102 15.7115 30.9774 15.0263 32.9421C14.3411 34.9068 11.9476 36.0194 9.67292 35.4276C8.80505 35.1988 8.07421 34.7569 7.54435 34.1888C7.54435 34.1888 7.54435 34.1809 7.53522 34.1809C7.50781 34.1494 7.47127 34.1178 7.44386 34.0784C7.44386 34.0784 7.44387 34.0784 7.43473 34.0705C6.94142 33.5418 6.2654 33.1315 5.45234 32.9185C4.81286 32.7528 4.16424 32.7291 3.55216 32.8317L0.0258789 42.9708L11.8015 46.0243C11.8928 46.5293 11.8654 47.058 11.6827 47.5787C11.4361 48.281 10.961 48.8648 10.3489 49.2909C10.3489 49.2909 10.3489 49.2909 10.3398 49.2988C10.3033 49.3225 10.2667 49.354 10.221 49.3777C10.221 49.3777 10.2119 49.3777 10.2119 49.3856C9.88304 49.6144 9.5907 49.8827 9.34404 50.1904C9.09739 50.4981 8.90554 50.8453 8.77764 51.2162C8.09248 53.1809 9.38058 55.256 11.6553 55.8399C13.9574 56.4317 16.3601 55.3191 17.0452 53.3545Z" fill="url(#paint10_linear_50_8594)"/>
<path d="M17.0452 53.3545C17.3102 52.6049 17.2828 51.8316 17.0178 51.1373C17.0087 51.1136 16.9996 51.0899 16.9904 51.0741C16.9813 51.0505 16.9722 51.0268 16.963 51.0031C16.7255 50.3561 16.6981 49.6381 16.9447 48.9438C17.1274 48.423 17.4381 47.9654 17.8309 47.5945L29.6065 50.6481L33.1419 40.4774C33.7266 40.3985 34.3387 40.4222 34.9416 40.58C35.7547 40.793 36.4307 41.2033 36.924 41.732C36.924 41.732 36.924 41.732 36.9331 41.7399C36.9605 41.7714 36.9971 41.803 37.0245 41.8424C37.0245 41.8424 37.0245 41.8503 37.0336 41.8503C37.2985 42.1344 37.6091 42.3869 37.9654 42.5999C38.3217 42.813 38.7237 42.9787 39.153 43.0891C41.4278 43.6809 43.8304 42.5684 44.5064 40.6037C45.1824 38.639 43.9035 36.5638 41.6287 35.9799C40.7609 35.7511 39.8656 35.7748 39.0617 36.0036C39.0343 36.0115 39.0069 36.0194 38.9886 36.0273C38.9612 36.0352 38.9338 36.043 38.9064 36.0509C38.1573 36.2561 37.3259 36.2798 36.522 36.0667C35.9191 35.9089 35.3892 35.6406 34.9599 35.3014L38.4953 25.1307L26.7562 22.0614C26.3269 22.448 25.9888 22.9293 25.797 23.4816C25.5503 24.1839 25.5777 24.894 25.8153 25.541C25.8335 25.5883 25.8518 25.6357 25.8701 25.6751C26.135 26.3695 26.1624 27.1349 25.8975 27.8923C25.2123 29.857 22.8188 30.9696 20.5441 30.3778C18.2694 29.786 16.9813 27.7187 17.6664 25.754C17.9314 25.0045 18.443 24.3732 19.1007 23.9156C19.1007 23.9156 19.1098 23.9156 19.1098 23.9077C19.1464 23.884 19.1921 23.8604 19.2286 23.8288C19.2286 23.8288 19.2286 23.8288 19.2377 23.8209C19.8498 23.3948 20.3249 22.8109 20.5715 22.1087C20.7634 21.5564 20.7908 20.9962 20.672 20.4675L8.92382 17.4376L5.39752 27.5767C5.84516 27.9476 6.40242 28.2395 7.0419 28.4052C7.85496 28.6182 8.67716 28.5946 9.42627 28.3894C9.48108 28.3736 9.53589 28.3579 9.58156 28.3421C10.3855 28.1133 11.2716 28.0896 12.1486 28.3184C14.4234 28.9102 15.7115 30.9774 15.0263 32.9421C14.3411 34.9068 11.9476 36.0194 9.67292 35.4276C8.80505 35.1988 8.07421 34.7569 7.54435 34.1888C7.54435 34.1888 7.54435 34.1809 7.53522 34.1809C7.50781 34.1494 7.47127 34.1178 7.44386 34.0784C7.44386 34.0784 7.44387 34.0784 7.43473 34.0705C6.94142 33.5418 6.2654 33.1315 5.45234 32.9185C4.81286 32.7528 4.16424 32.7291 3.55216 32.8317L0.0258789 42.9708L11.8015 46.0243C11.8928 46.5293 11.8654 47.058 11.6827 47.5787C11.4361 48.281 10.961 48.8648 10.3489 49.2909C10.3489 49.2909 10.3489 49.2909 10.3398 49.2988C10.3033 49.3225 10.2667 49.354 10.221 49.3777C10.221 49.3777 10.2119 49.3777 10.2119 49.3856C9.88304 49.6144 9.5907 49.8827 9.34404 50.1904C9.09739 50.4981 8.90554 50.8453 8.77764 51.2162C8.09248 53.1809 9.38058 55.256 11.6553 55.8399C13.9574 56.4317 16.3601 55.3191 17.0452 53.3545Z" fill="url(#paint11_linear_50_8594)"/>
<path d="M82.5921 97.4931C83.1676 98.1006 83.9259 98.5109 84.7389 98.7082C84.7663 98.7161 84.7937 98.7239 84.812 98.7239C84.8394 98.7318 84.8668 98.7397 84.8942 98.7476C85.6525 98.937 86.3468 99.3157 86.8858 99.8838C87.2877 100.302 87.5527 100.783 87.6897 101.273L78.1888 108.019L85.9996 116.225C85.753 116.69 85.3876 117.108 84.9034 117.456C84.2456 117.921 83.4782 118.182 82.6926 118.237H82.6835C82.6378 118.237 82.583 118.245 82.5373 118.245H82.5282C82.1079 118.276 81.6877 118.355 81.2857 118.497C80.8838 118.639 80.5001 118.829 80.1529 119.081C78.3167 120.383 78.0518 122.726 79.5591 124.312C81.0665 125.898 83.7797 126.127 85.6159 124.825C86.3194 124.328 86.7944 123.673 87.0228 122.971C87.0319 122.947 87.0411 122.924 87.0411 122.908C87.0502 122.884 87.0593 122.861 87.0685 122.837C87.2877 122.182 87.7262 121.582 88.384 121.117C88.8682 120.77 89.4254 120.541 89.9918 120.422L97.8026 128.628L107.267 121.906C107.139 121.377 106.865 120.872 106.436 120.43C105.897 119.862 105.202 119.483 104.444 119.294C104.389 119.278 104.334 119.27 104.28 119.255C103.467 119.057 102.708 118.647 102.133 118.04C100.626 116.454 100.89 114.11 102.727 112.808C104.563 111.506 107.267 111.735 108.774 113.321C109.35 113.929 109.67 114.647 109.743 115.373V115.38C109.743 115.42 109.752 115.467 109.752 115.507V115.515C109.816 116.193 110.117 116.864 110.656 117.424C111.076 117.866 111.606 118.197 112.173 118.41L121.637 111.688L113.854 103.513C113.242 103.624 112.657 103.861 112.145 104.231C111.488 104.697 111.049 105.297 110.83 105.952C110.812 105.999 110.802 106.046 110.784 106.094C110.556 106.796 110.081 107.451 109.377 107.948C107.541 109.25 104.828 109.021 103.32 107.435C101.813 105.849 102.078 103.513 103.914 102.204C104.618 101.707 105.449 101.43 106.289 101.367H106.299C106.344 101.367 106.399 101.359 106.445 101.359H106.454C107.24 101.304 108.016 101.044 108.665 100.578C109.176 100.215 109.56 99.7576 109.807 99.2684L102.023 91.094L92.5223 97.8402C91.9833 97.6272 91.4992 97.3116 91.0972 96.8934C90.5582 96.3253 90.2567 95.6625 90.1928 94.9839V94.976C90.1928 94.9366 90.1837 94.8892 90.1837 94.8498V94.8419C90.1471 94.479 90.0558 94.116 89.8913 93.7688C89.7269 93.4216 89.5076 93.0903 89.2153 92.7904C87.708 91.2045 84.9947 90.9756 83.1585 92.2775C81.3497 93.5716 81.0847 95.9071 82.5921 97.4931Z" fill="url(#paint12_linear_50_8594)"/>
<path d="M82.5921 97.4931C83.1676 98.1006 83.9259 98.5109 84.7389 98.7082C84.7663 98.7161 84.7937 98.7239 84.812 98.7239C84.8394 98.7318 84.8668 98.7397 84.8942 98.7476C85.6525 98.937 86.3468 99.3157 86.8858 99.8838C87.2877 100.302 87.5527 100.783 87.6897 101.273L78.1888 108.019L85.9996 116.225C85.753 116.69 85.3876 117.108 84.9034 117.456C84.2456 117.921 83.4782 118.182 82.6926 118.237H82.6835C82.6378 118.237 82.583 118.245 82.5373 118.245H82.5282C82.1079 118.276 81.6877 118.355 81.2857 118.497C80.8838 118.639 80.5001 118.829 80.1529 119.081C78.3167 120.383 78.0518 122.726 79.5591 124.312C81.0665 125.898 83.7797 126.127 85.6159 124.825C86.3194 124.328 86.7944 123.673 87.0228 122.971C87.0319 122.947 87.0411 122.924 87.0411 122.908C87.0502 122.884 87.0593 122.861 87.0685 122.837C87.2877 122.182 87.7262 121.582 88.384 121.117C88.8682 120.77 89.4254 120.541 89.9918 120.422L97.8026 128.628L107.267 121.906C107.139 121.377 106.865 120.872 106.436 120.43C105.897 119.862 105.202 119.483 104.444 119.294C104.389 119.278 104.334 119.27 104.28 119.255C103.467 119.057 102.708 118.647 102.133 118.04C100.626 116.454 100.89 114.11 102.727 112.808C104.563 111.506 107.267 111.735 108.774 113.321C109.35 113.929 109.67 114.647 109.743 115.373V115.38C109.743 115.42 109.752 115.467 109.752 115.507V115.515C109.816 116.193 110.117 116.864 110.656 117.424C111.076 117.866 111.606 118.197 112.173 118.41L121.637 111.688L113.854 103.513C113.242 103.624 112.657 103.861 112.145 104.231C111.488 104.697 111.049 105.297 110.83 105.952C110.812 105.999 110.802 106.046 110.784 106.094C110.556 106.796 110.081 107.451 109.377 107.948C107.541 109.25 104.828 109.021 103.32 107.435C101.813 105.849 102.078 103.513 103.914 102.204C104.618 101.707 105.449 101.43 106.289 101.367H106.299C106.344 101.367 106.399 101.359 106.445 101.359H106.454C107.24 101.304 108.016 101.044 108.665 100.578C109.176 100.215 109.56 99.7576 109.807 99.2684L102.023 91.094L92.5223 97.8402C91.9833 97.6272 91.4992 97.3116 91.0972 96.8934C90.5582 96.3253 90.2567 95.6625 90.1928 94.9839V94.976C90.1928 94.9366 90.1837 94.8892 90.1837 94.8498V94.8419C90.1471 94.479 90.0558 94.116 89.8913 93.7688C89.7269 93.4216 89.5076 93.0903 89.2153 92.7904C87.708 91.2045 84.9947 90.9756 83.1585 92.2775C81.3497 93.5716 81.0847 95.9071 82.5921 97.4931Z" fill="url(#paint13_linear_50_8594)"/>
<path d="M72.4609 17.0431C73.3744 17.0431 74.2149 16.7985 74.9092 16.3803C74.9274 16.3646 74.9548 16.3567 74.9731 16.3409C75.0005 16.3251 75.0188 16.3093 75.0462 16.2936C75.6948 15.9069 76.4805 15.686 77.3301 15.686C77.9604 15.686 78.5542 15.8122 79.0841 16.0332V26.6536H91.3804C91.6362 27.1112 91.7823 27.6241 91.7823 28.1685C91.7823 28.9023 91.5174 29.5809 91.0698 30.1411C91.0698 30.1411 91.0698 30.149 91.0606 30.149C91.0332 30.1805 91.0058 30.22 90.9784 30.2516C90.9784 30.2516 90.9784 30.2595 90.9693 30.2595C90.7318 30.5593 90.5399 30.8907 90.4029 31.2457C90.275 31.6008 90.2019 31.9795 90.2019 32.3741C90.2019 34.4255 92.1295 36.0904 94.5047 36.0904C96.8799 36.0904 98.8075 34.4255 98.8075 32.3741C98.8075 31.585 98.5243 30.8591 98.0401 30.2595C98.0219 30.2437 98.0127 30.22 97.9945 30.2042C97.9762 30.1805 97.9579 30.1648 97.9396 30.1411C97.492 29.5809 97.2362 28.9023 97.2362 28.1685C97.2362 27.6241 97.3824 27.1112 97.6382 26.6536H109.934V16.0805C109.377 15.8359 108.756 15.6939 108.089 15.6939C107.24 15.6939 106.454 15.9148 105.805 16.3014C105.76 16.3251 105.714 16.3567 105.668 16.3882C104.974 16.8064 104.133 17.051 103.22 17.051C100.845 17.051 98.9171 15.3862 98.9171 13.3347C98.9171 11.2832 100.845 9.61832 103.22 9.61832C104.133 9.61832 104.974 9.86292 105.668 10.2811C105.668 10.2811 105.668 10.2811 105.677 10.289C105.714 10.3127 105.76 10.3363 105.796 10.36C105.796 10.36 105.796 10.36 105.805 10.3679C106.454 10.7545 107.24 10.9834 108.089 10.9834C108.756 10.9834 109.386 10.8413 109.934 10.5967V0H97.6747C97.3915 0.481311 97.2271 1.01785 97.2271 1.59385C97.2271 2.32765 97.4829 3.00622 97.9305 3.56643C97.9579 3.60589 97.9945 3.64534 98.031 3.68479C98.5152 4.28445 98.7984 5.01037 98.7984 5.7994C98.7984 7.85089 96.8708 9.51575 94.4956 9.51575C92.1204 9.51575 90.1928 7.85089 90.1928 5.7994C90.1928 5.01037 90.476 4.28445 90.9602 3.68479C90.9602 3.68479 90.9601 3.68479 90.9693 3.6769C90.9967 3.64534 91.0241 3.60589 91.0515 3.57432C91.0515 3.57432 91.0515 3.57432 91.0606 3.56643C91.5083 3.00622 91.7732 2.32765 91.7732 1.59385C91.7732 1.01785 91.6088 0.47342 91.3256 0H79.0749V10.6204C78.5451 10.8413 77.9513 10.9676 77.3209 10.9676C76.4713 10.9676 75.6857 10.7388 75.0371 10.3521C75.0371 10.3521 75.0279 10.3521 75.0279 10.3442C74.9914 10.3206 74.9457 10.2969 74.9092 10.2732C74.9092 10.2732 74.9 10.2732 74.9 10.2653C74.5529 10.0602 74.1692 9.89448 73.7581 9.77613C73.347 9.66566 72.9085 9.60254 72.4517 9.60254C70.0765 9.60254 68.1489 11.2674 68.1489 13.3189C68.1489 15.3704 70.0856 17.0431 72.4609 17.0431Z" fill="url(#paint14_linear_50_8594)"/>
<path d="M72.4609 17.0431C73.3744 17.0431 74.2149 16.7985 74.9092 16.3803C74.9274 16.3646 74.9548 16.3567 74.9731 16.3409C75.0005 16.3251 75.0188 16.3093 75.0462 16.2936C75.6948 15.9069 76.4805 15.686 77.3301 15.686C77.9604 15.686 78.5542 15.8122 79.0841 16.0332V26.6536H91.3804C91.6362 27.1112 91.7823 27.6241 91.7823 28.1685C91.7823 28.9023 91.5174 29.5809 91.0698 30.1411C91.0698 30.1411 91.0698 30.149 91.0606 30.149C91.0332 30.1805 91.0058 30.22 90.9784 30.2516C90.9784 30.2516 90.9784 30.2595 90.9693 30.2595C90.7318 30.5593 90.5399 30.8907 90.4029 31.2457C90.275 31.6008 90.2019 31.9795 90.2019 32.3741C90.2019 34.4255 92.1295 36.0904 94.5047 36.0904C96.8799 36.0904 98.8075 34.4255 98.8075 32.3741C98.8075 31.585 98.5243 30.8591 98.0401 30.2595C98.0219 30.2437 98.0127 30.22 97.9945 30.2042C97.9762 30.1805 97.9579 30.1648 97.9396 30.1411C97.492 29.5809 97.2362 28.9023 97.2362 28.1685C97.2362 27.6241 97.3824 27.1112 97.6382 26.6536H109.934V16.0805C109.377 15.8359 108.756 15.6939 108.089 15.6939C107.24 15.6939 106.454 15.9148 105.805 16.3014C105.76 16.3251 105.714 16.3567 105.668 16.3882C104.974 16.8064 104.133 17.051 103.22 17.051C100.845 17.051 98.9171 15.3862 98.9171 13.3347C98.9171 11.2832 100.845 9.61832 103.22 9.61832C104.133 9.61832 104.974 9.86292 105.668 10.2811C105.668 10.2811 105.668 10.2811 105.677 10.289C105.714 10.3127 105.76 10.3363 105.796 10.36C105.796 10.36 105.796 10.36 105.805 10.3679C106.454 10.7545 107.24 10.9834 108.089 10.9834C108.756 10.9834 109.386 10.8413 109.934 10.5967V0H97.6747C97.3915 0.481311 97.2271 1.01785 97.2271 1.59385C97.2271 2.32765 97.4829 3.00622 97.9305 3.56643C97.9579 3.60589 97.9945 3.64534 98.031 3.68479C98.5152 4.28445 98.7984 5.01037 98.7984 5.7994C98.7984 7.85089 96.8708 9.51575 94.4956 9.51575C92.1204 9.51575 90.1928 7.85089 90.1928 5.7994C90.1928 5.01037 90.476 4.28445 90.9602 3.68479C90.9602 3.68479 90.9601 3.68479 90.9693 3.6769C90.9967 3.64534 91.0241 3.60589 91.0515 3.57432C91.0515 3.57432 91.0515 3.57432 91.0606 3.56643C91.5083 3.00622 91.7732 2.32765 91.7732 1.59385C91.7732 1.01785 91.6088 0.47342 91.3256 0H79.0749V10.6204C78.5451 10.8413 77.9513 10.9676 77.3209 10.9676C76.4713 10.9676 75.6857 10.7388 75.0371 10.3521C75.0371 10.3521 75.0279 10.3521 75.0279 10.3442C74.9914 10.3206 74.9457 10.2969 74.9092 10.2732C74.9092 10.2732 74.9 10.2732 74.9 10.2653C74.5529 10.0602 74.1692 9.89448 73.7581 9.77613C73.347 9.66566 72.9085 9.60254 72.4517 9.60254C70.0765 9.60254 68.1489 11.2674 68.1489 13.3189C68.1489 15.3704 70.0856 17.0431 72.4609 17.0431Z" fill="url(#paint15_linear_50_8594)"/>
<path d="M40.6695 17.0431C41.5831 17.0431 42.4235 16.7985 43.1178 16.3803C43.1361 16.3646 43.1635 16.3567 43.1818 16.3409C43.2092 16.3251 43.2274 16.3093 43.2548 16.2936C43.9035 15.9069 44.6891 15.686 45.5387 15.686C46.1691 15.686 46.7629 15.8122 47.2927 16.0332V26.6536H59.589C59.8448 27.1112 59.991 27.6241 59.991 28.1685C59.991 28.9023 59.7261 29.5809 59.2784 30.1411C59.2784 30.1411 59.2784 30.149 59.2693 30.149C59.2419 30.1805 59.2145 30.22 59.1871 30.2516C59.1871 30.2516 59.1871 30.2595 59.1779 30.2595C58.9404 30.5593 58.7486 30.8907 58.6115 31.2457C58.4836 31.6008 58.4106 31.9795 58.4106 32.3741C58.4106 34.4255 60.3382 36.0904 62.7134 36.0904C65.0886 36.0904 67.0162 34.4255 67.0162 32.3741C67.0162 31.585 66.733 30.8591 66.2488 30.2595C66.2305 30.2437 66.2214 30.22 66.2031 30.2042C66.1848 30.1805 66.1666 30.1648 66.1483 30.1411C65.7006 29.5809 65.4449 28.9023 65.4449 28.1685C65.4449 27.6241 65.591 27.1112 65.8468 26.6536H78.1431V16.0805C77.5859 15.8359 76.9647 15.6939 76.2978 15.6939C75.4482 15.6939 74.6625 15.9148 74.0139 16.3014C73.9682 16.3251 73.9226 16.3567 73.8769 16.3882C73.1826 16.8064 72.3421 17.051 71.4286 17.051C69.0534 17.051 67.1258 15.3862 67.1258 13.3347C67.1258 11.2832 69.0534 9.61832 71.4286 9.61832C72.3421 9.61832 73.1826 9.86292 73.8769 10.2811C73.8769 10.2811 73.8769 10.2811 73.886 10.289C73.9226 10.3127 73.9682 10.3363 74.0048 10.36C74.0048 10.36 74.0048 10.36 74.0139 10.3679C74.6625 10.7545 75.4482 10.9834 76.2978 10.9834C76.9647 10.9834 77.595 10.8413 78.1431 10.5967V0H65.8834C65.6002 0.481311 65.4357 1.01785 65.4357 1.59385C65.4357 2.32765 65.6915 3.00622 66.1392 3.56643C66.1666 3.60589 66.2031 3.64534 66.2396 3.68479C66.7238 4.28445 67.007 5.01037 67.007 5.7994C67.007 7.85089 65.0794 9.51575 62.7042 9.51575C60.329 9.51575 58.4014 7.85089 58.4014 5.7994C58.4014 5.01037 58.6846 4.28445 59.1688 3.68479C59.1688 3.68479 59.1688 3.68479 59.1779 3.6769C59.2053 3.64534 59.2328 3.60589 59.2602 3.57432C59.2602 3.57432 59.2601 3.57432 59.2693 3.56643C59.7169 3.00622 59.9819 2.32765 59.9819 1.59385C59.9819 1.01785 59.8174 0.47342 59.5342 0H47.2836V10.6204C46.7537 10.8413 46.1599 10.9676 45.5296 10.9676C44.68 10.9676 43.8943 10.7388 43.2457 10.3521C43.2457 10.3521 43.2366 10.3521 43.2366 10.3442C43.2 10.3206 43.1544 10.2969 43.1178 10.2732C43.1178 10.2732 43.1087 10.2732 43.1087 10.2653C42.7615 10.0602 42.3778 9.89448 41.9667 9.77613C41.5556 9.66566 41.1171 9.60254 40.6604 9.60254C38.2851 9.60254 36.3576 11.2674 36.3576 13.3189C36.3576 15.3704 38.2943 17.0431 40.6695 17.0431Z" fill="url(#paint16_linear_50_8594)"/>
<path d="M40.6695 17.0431C41.5831 17.0431 42.4235 16.7985 43.1178 16.3803C43.1361 16.3646 43.1635 16.3567 43.1818 16.3409C43.2092 16.3251 43.2274 16.3093 43.2548 16.2936C43.9035 15.9069 44.6891 15.686 45.5387 15.686C46.1691 15.686 46.7629 15.8122 47.2927 16.0332V26.6536H59.589C59.8448 27.1112 59.991 27.6241 59.991 28.1685C59.991 28.9023 59.7261 29.5809 59.2784 30.1411C59.2784 30.1411 59.2784 30.149 59.2693 30.149C59.2419 30.1805 59.2145 30.22 59.1871 30.2516C59.1871 30.2516 59.1871 30.2595 59.1779 30.2595C58.9404 30.5593 58.7486 30.8907 58.6115 31.2457C58.4836 31.6008 58.4106 31.9795 58.4106 32.3741C58.4106 34.4255 60.3382 36.0904 62.7134 36.0904C65.0886 36.0904 67.0162 34.4255 67.0162 32.3741C67.0162 31.585 66.733 30.8591 66.2488 30.2595C66.2305 30.2437 66.2214 30.22 66.2031 30.2042C66.1848 30.1805 66.1666 30.1648 66.1483 30.1411C65.7006 29.5809 65.4449 28.9023 65.4449 28.1685C65.4449 27.6241 65.591 27.1112 65.8468 26.6536H78.1431V16.0805C77.5859 15.8359 76.9647 15.6939 76.2978 15.6939C75.4482 15.6939 74.6625 15.9148 74.0139 16.3014C73.9682 16.3251 73.9226 16.3567 73.8769 16.3882C73.1826 16.8064 72.3421 17.051 71.4286 17.051C69.0534 17.051 67.1258 15.3862 67.1258 13.3347C67.1258 11.2832 69.0534 9.61832 71.4286 9.61832C72.3421 9.61832 73.1826 9.86292 73.8769 10.2811C73.8769 10.2811 73.8769 10.2811 73.886 10.289C73.9226 10.3127 73.9682 10.3363 74.0048 10.36C74.0048 10.36 74.0048 10.36 74.0139 10.3679C74.6625 10.7545 75.4482 10.9834 76.2978 10.9834C76.9647 10.9834 77.595 10.8413 78.1431 10.5967V0H65.8834C65.6002 0.481311 65.4357 1.01785 65.4357 1.59385C65.4357 2.32765 65.6915 3.00622 66.1392 3.56643C66.1666 3.60589 66.2031 3.64534 66.2396 3.68479C66.7238 4.28445 67.007 5.01037 67.007 5.7994C67.007 7.85089 65.0794 9.51575 62.7042 9.51575C60.329 9.51575 58.4014 7.85089 58.4014 5.7994C58.4014 5.01037 58.6846 4.28445 59.1688 3.68479C59.1688 3.68479 59.1688 3.68479 59.1779 3.6769C59.2053 3.64534 59.2328 3.60589 59.2602 3.57432C59.2602 3.57432 59.2601 3.57432 59.2693 3.56643C59.7169 3.00622 59.9819 2.32765 59.9819 1.59385C59.9819 1.01785 59.8174 0.47342 59.5342 0H47.2836V10.6204C46.7537 10.8413 46.1599 10.9676 45.5296 10.9676C44.68 10.9676 43.8943 10.7388 43.2457 10.3521C43.2457 10.3521 43.2366 10.3521 43.2366 10.3442C43.2 10.3206 43.1544 10.2969 43.1178 10.2732C43.1178 10.2732 43.1087 10.2732 43.1087 10.2653C42.7615 10.0602 42.3778 9.89448 41.9667 9.77613C41.5556 9.66566 41.1171 9.60254 40.6604 9.60254C38.2851 9.60254 36.3576 11.2674 36.3576 13.3189C36.3576 15.3704 38.2943 17.0431 40.6695 17.0431Z" fill="url(#paint17_linear_50_8594)"/>
<defs>
<linearGradient id="paint0_linear_50_8594" x1="100.214" y1="18.2582" x2="141.991" y2="19.4674" gradientUnits="userSpaceOnUse">
<stop stop-color="#F9A545"/>
<stop offset="0.5" stop-color="#FCCB90"/>
<stop offset="0.75" stop-color="#FEDDB6"/>
<stop offset="1" stop-color="#FFF0DB"/>
</linearGradient>
<linearGradient id="paint1_linear_50_8594" x1="100.214" y1="18.2582" x2="141.991" y2="19.4674" gradientUnits="userSpaceOnUse">
<stop stop-color="#F9A545"/>
<stop offset="0.5" stop-color="#FCCB90"/>
<stop offset="0.75" stop-color="#FEDDB6"/>
<stop offset="1" stop-color="#FFF0DB"/>
</linearGradient>
<linearGradient id="paint2_linear_50_8594" x1="100.214" y1="45.5983" x2="141.991" y2="46.8075" gradientUnits="userSpaceOnUse">
<stop stop-color="#F9A545"/>
<stop offset="0.5" stop-color="#FCCB90"/>
<stop offset="0.75" stop-color="#FEDDB6"/>
<stop offset="1" stop-color="#FFF0DB"/>
</linearGradient>
<linearGradient id="paint3_linear_50_8594" x1="100.214" y1="45.5983" x2="141.991" y2="46.8075" gradientUnits="userSpaceOnUse">
<stop stop-color="#F9A545"/>
<stop offset="0.5" stop-color="#FCCB90"/>
<stop offset="0.75" stop-color="#FEDDB6"/>
<stop offset="1" stop-color="#FFF0DB"/>
</linearGradient>
<linearGradient id="paint4_linear_50_8594" x1="100.214" y1="73.108" x2="141.991" y2="74.317" gradientUnits="userSpaceOnUse">
<stop stop-color="#F9A545"/>
<stop offset="0.5" stop-color="#FCCB90"/>
<stop offset="0.75" stop-color="#FEDDB6"/>
<stop offset="1" stop-color="#FFF0DB"/>
</linearGradient>
<linearGradient id="paint5_linear_50_8594" x1="100.214" y1="73.108" x2="141.991" y2="74.317" gradientUnits="userSpaceOnUse">
<stop stop-color="#F9A545"/>
<stop offset="0.5" stop-color="#FCCB90"/>
<stop offset="0.75" stop-color="#FEDDB6"/>
<stop offset="1" stop-color="#FFF0DB"/>
</linearGradient>
<linearGradient id="paint6_linear_50_8594" x1="68.1489" y1="45.5983" x2="109.926" y2="46.8075" gradientUnits="userSpaceOnUse">
<stop stop-color="#F9A545"/>
<stop offset="0.5" stop-color="#FCCB90"/>
<stop offset="0.75" stop-color="#FEDDB6"/>
<stop offset="1" stop-color="#FFF0DB"/>
</linearGradient>
<linearGradient id="paint7_linear_50_8594" x1="68.1489" y1="45.5983" x2="109.926" y2="46.8075" gradientUnits="userSpaceOnUse">
<stop stop-color="#F9A545"/>
<stop offset="0.5" stop-color="#FCCB90"/>
<stop offset="0.75" stop-color="#FEDDB6"/>
<stop offset="1" stop-color="#FFF0DB"/>
</linearGradient>
<linearGradient id="paint8_linear_50_8594" x1="36.3576" y1="73.108" x2="78.1343" y2="74.317" gradientUnits="userSpaceOnUse">
<stop stop-color="#F9A545"/>
<stop offset="0.5" stop-color="#FCCB90"/>
<stop offset="0.75" stop-color="#FEDDB6"/>
<stop offset="1" stop-color="#FFF0DB"/>
</linearGradient>
<linearGradient id="paint9_linear_50_8594" x1="36.3576" y1="73.108" x2="78.1343" y2="74.317" gradientUnits="userSpaceOnUse">
<stop stop-color="#F9A545"/>
<stop offset="0.5" stop-color="#FCCB90"/>
<stop offset="0.75" stop-color="#FEDDB6"/>
<stop offset="1" stop-color="#FFF0DB"/>
</linearGradient>
<linearGradient id="paint10_linear_50_8594" x1="0.0258789" y1="36.7182" x2="44.6775" y2="38.0111" gradientUnits="userSpaceOnUse">
<stop stop-color="#F9A545"/>
<stop offset="0.5" stop-color="#FCCB90"/>
<stop offset="0.75" stop-color="#FEDDB6"/>
<stop offset="1" stop-color="#FFF0DB"/>
</linearGradient>
<linearGradient id="paint11_linear_50_8594" x1="0.0258789" y1="36.7182" x2="44.6775" y2="38.0111" gradientUnits="userSpaceOnUse">
<stop stop-color="#F9A545"/>
<stop offset="0.5" stop-color="#FCCB90"/>
<stop offset="0.75" stop-color="#FEDDB6"/>
<stop offset="1" stop-color="#FFF0DB"/>
</linearGradient>
<linearGradient id="paint12_linear_50_8594" x1="78.1888" y1="109.861" x2="121.628" y2="111.118" gradientUnits="userSpaceOnUse">
<stop stop-color="#F9A545"/>
<stop offset="0.5" stop-color="#FCCB90"/>
<stop offset="0.75" stop-color="#FEDDB6"/>
<stop offset="1" stop-color="#FFF0DB"/>
</linearGradient>
<linearGradient id="paint13_linear_50_8594" x1="78.1888" y1="109.861" x2="121.628" y2="111.118" gradientUnits="userSpaceOnUse">
<stop stop-color="#F9A545"/>
<stop offset="0.5" stop-color="#FCCB90"/>
<stop offset="0.75" stop-color="#FEDDB6"/>
<stop offset="1" stop-color="#FFF0DB"/>
</linearGradient>
<linearGradient id="paint14_linear_50_8594" x1="68.1489" y1="18.0452" x2="109.926" y2="19.2544" gradientUnits="userSpaceOnUse">
<stop stop-color="#F9A545"/>
<stop offset="0.5" stop-color="#FCCB90"/>
<stop offset="0.75" stop-color="#FEDDB6"/>
<stop offset="1" stop-color="#FFF0DB"/>
</linearGradient>
<linearGradient id="paint15_linear_50_8594" x1="68.1489" y1="18.0452" x2="109.926" y2="19.2544" gradientUnits="userSpaceOnUse">
<stop stop-color="#F9A545"/>
<stop offset="0.5" stop-color="#FCCB90"/>
<stop offset="0.75" stop-color="#FEDDB6"/>
<stop offset="1" stop-color="#FFF0DB"/>
</linearGradient>
<linearGradient id="paint16_linear_50_8594" x1="36.3576" y1="18.0452" x2="78.1343" y2="19.2544" gradientUnits="userSpaceOnUse">
<stop stop-color="#F9A545"/>
<stop offset="0.5" stop-color="#FCCB90"/>
<stop offset="0.75" stop-color="#FEDDB6"/>
<stop offset="1" stop-color="#FFF0DB"/>
</linearGradient>
<linearGradient id="paint17_linear_50_8594" x1="36.3576" y1="18.0452" x2="78.1343" y2="19.2544" gradientUnits="userSpaceOnUse">
<stop stop-color="#F9A545"/>
<stop offset="0.5" stop-color="#FCCB90"/>
<stop offset="0.75" stop-color="#FEDDB6"/>
<stop offset="1" stop-color="#FFF0DB"/>
</linearGradient>
</defs>
</svg>
