<svg width="49" height="53" viewBox="0 0 49 53" fill="none" xmlns="http://www.w3.org/2000/svg">
<path d="M45.7163 32.7C44.4163 32.2 42.7163 32 40.6163 32H39.6163V7.79999C39.6163 3.69999 37.3163 1.5 32.9163 1.5C31.5163 1.5 30.3163 1.90001 29.3163 2.70001C28.4163 3.40001 27.2163 4.5 25.9163 6L5.1163 28.8C4.5163 29.4 4.0163 30 3.6163 30.4C3.2163 30.8 2.81632 31.3 2.41632 31.8C2.01632 32.3 1.7163 32.8 1.5163 33.3C1.3163 33.8 1.21631 34.3 1.21631 34.8C1.21631 36.6 1.91631 38.1 3.31631 39.1C4.71631 40.1 6.61631 40.6 9.31631 40.6H28.4163V45.9C28.4163 47.7 28.9163 49.1 30.0163 50.1C31.0163 51 32.4163 51.5 34.0163 51.5C35.7163 51.5 37.0163 51 38.0163 50.1C39.0163 49.2 39.6163 47.8 39.6163 45.9V40.6H41.3163C43.4163 40.6 45.0163 40.3 46.1163 39.7C47.3163 39 47.9163 37.9 47.9163 36.4C48.0163 34.1 46.8163 33.1 45.7163 32.7ZM16.8163 32L26.8163 19.5L26.7163 32H16.8163Z" fill="#0090D0" stroke="#221F1F" stroke-width="1.3482" stroke-miterlimit="10" stroke-linecap="round" stroke-linejoin="round"/>
<path d="M28.6162 33.7C28.3162 29.2 28.9162 24.7 28.6162 20.2C28.6162 20.2 28.5163 16.8 27.9163 17.5C27.3163 18.2 26.9162 18.9 26.5162 19.7L26.7162 19.5L26.6162 32L17.0162 31.1C16.1162 31.6 14.6163 33.3 13.9163 34.2C18.7163 34.5 23.9162 33.9 28.6162 33.7Z" fill="#0090D0"/>
<path d="M45.7162 32.7C44.4162 32.2 42.7162 32 40.6162 32H39.6162V7.79999C39.6162 3.69999 37.3163 1.5 32.9163 1.5C31.5163 1.5 30.3163 1.90001 29.3163 2.70001C29.0163 2.90001 28.7163 3.2 28.4163 3.5C28.8163 3.4 29.2162 3.39996 29.6162 3.39996C32.5162 3.59996 34.1163 4.69999 35.3163 7.29999C36.8163 10.7 35.9162 15.9 36.0162 19.5C36.1162 24.2 36.0162 28.8 36.0162 33.5C38.2162 33.6 42.0163 33 43.9163 34.3C45.1163 35.2 45.1163 36.8 43.8163 37.6C42.1163 38.6 38.6163 38.1 36.8163 38C37.3163 41.8 37.4162 48.4 33.0162 49C30.3162 49.4 29.0162 46.8 28.5162 44.3V45.9C28.5162 47.7 29.0162 49.1 30.1162 50.1C31.1162 51 32.5162 51.5 34.1162 51.5C35.8162 51.5 37.1162 51 38.1162 50.1C39.1162 49.2 39.7162 47.8 39.7162 45.9V40.6H41.4163C43.5163 40.6 45.1162 40.3 46.2162 39.7C47.4162 39 48.0162 37.9 48.0162 36.4C48.0162 34.1 46.8162 33.1 45.7162 32.7Z" fill="#0090D0"/>
<path d="M26.1163 8.59999C20.9163 13.7 16.1163 19.1 11.0163 24.2C8.21626 27 1.51626 32.3 3.51626 36.9C3.81626 37.5 4.61626 36.8 4.51626 36.3C3.31626 32.6 7.91627 29 10.1163 26.6C12.0163 24.5 14.0163 22.6 15.9163 20.5C19.3163 16.5 23.0163 12.8 26.1163 8.59999C26.2163 8.59999 26.1163 8.49999 26.1163 8.59999Z" fill="white"/>
<path d="M5.91638 37.9C5.81638 37.9 5.71637 37.9 5.71637 37.8C5.61637 37.8 5.61636 37.7 5.51636 37.7C5.31636 37.5 5.01636 37.8 5.01636 38.1C5.01636 38.2 5.01636 38.2 5.01636 38.3C5.11636 38.6 5.31636 38.6 5.61636 38.7C6.01636 38.7 6.41638 37.9 5.91638 37.9Z" fill="white"/>
<path d="M30.7162 43C30.7162 42.3 30.7162 41.6999 30.5162 41.0999C30.4162 40.8999 30.1162 41.0999 30.1162 41.2999C30.3162 42.6999 29.9162 44.1 30.2162 45.5C30.3162 45.9 30.7162 45.5999 30.8162 45.3999C30.9162 44.5999 30.8162 43.8 30.7162 43Z" fill="white"/>
</svg>
