<svg width="74" height="37" viewBox="0 0 74 37" fill="none" xmlns="http://www.w3.org/2000/svg">
<path d="M20.6702 36.4251C23.7748 36.4251 26.6359 35.999 29.0709 35.1467C31.5668 34.2945 33.6974 33.0161 35.4019 31.4334C37.1063 29.7898 38.4456 27.9027 39.2978 25.6503C40.1501 23.4588 40.5762 21.0238 40.5153 18.4062C40.5153 14.8146 39.6631 11.71 38.0803 9.03151C36.4976 6.35303 34.1235 4.22242 31.0797 2.8223C28.0969 1.42218 24.4444 0.691691 20.3658 0.752565C17.3221 0.752565 14.5827 1.17868 12.1477 2.03093C9.71274 2.88317 7.58214 4.10067 5.87765 5.62254C4.17315 7.20528 2.83391 9.09239 1.92079 11.3448C1.00767 13.5362 0.581543 15.9712 0.581543 18.5888C0.581543 21.1456 1.06855 23.5806 1.92079 25.772C2.83391 28.0244 4.11228 29.9724 5.81677 31.5551C7.52126 33.1379 9.65187 34.3554 12.2086 35.2076C14.7653 35.999 17.5656 36.4251 20.6702 36.4251ZM20.1832 14.8755C22.0703 14.8755 23.8357 15.119 25.2967 15.6669C26.7576 16.1539 27.7925 16.9452 28.5839 17.9801C29.3753 19.015 29.8014 20.2933 29.8014 21.7543C29.8014 23.3371 29.3753 24.6763 28.523 25.7112C27.6708 26.746 26.575 27.5374 25.1749 28.0244C23.7139 28.5114 22.1312 28.8158 20.3658 28.8158C19.0266 28.8158 17.7482 28.694 16.5916 28.3897C15.4958 28.0853 14.5219 27.6592 13.6087 27.1113C12.7565 26.5634 12.0869 25.8329 11.5999 24.9198C11.1129 24.0067 10.8694 22.9718 10.8694 21.8761C10.8694 20.7803 11.1129 19.7455 11.5999 18.8323C12.0869 17.9801 12.6956 17.2496 13.487 16.7017C14.2783 16.1539 15.2523 15.7277 16.3481 15.4234C17.5656 15.0581 18.8439 14.8755 20.1832 14.8755Z" fill="#49B96C" stroke="#221F1F" stroke-width="0.820712" stroke-miterlimit="10" stroke-linecap="round" stroke-linejoin="round"/>
<path d="M20.9745 13.5362C18.5395 13.658 15.9219 14.145 13.8522 15.5451C12.9999 16.093 12.0868 16.7626 11.5998 17.6148C11.0519 18.528 10.7476 19.6237 11.1128 20.5368C11.2346 19.9281 11.4172 19.3193 11.7216 18.8323C12.2085 17.9801 12.8173 17.2496 13.6087 16.7017C14.4 16.1539 15.374 15.7277 16.4698 15.4234C17.6264 15.119 18.9048 14.9364 20.244 14.9364C22.1311 14.9364 23.8965 15.1799 25.3575 15.7277C26.8185 16.2147 27.8533 17.0061 28.6447 18.041C29.4361 19.0758 29.8622 20.3542 29.8622 21.8152C29.8622 23.3979 29.4361 24.7372 28.5838 25.772C27.7316 26.8069 26.6358 27.5983 25.2357 28.0853C23.7747 28.5723 22.192 28.8767 20.4266 28.8767C19.1483 28.8767 17.9308 28.7549 16.835 28.5114C19.3918 29.9115 22.4355 30.4594 25.2357 29.8506C29.9231 28.8158 33.332 24.6763 31.6884 19.6846C30.2274 15.3625 25.2357 13.2927 20.9745 13.5362Z" fill="#49B96C"/>
<path d="M38.0802 9.03151C36.4974 6.35303 34.1233 4.22242 31.0796 2.8223C29.8012 2.21355 28.4011 1.78743 26.9401 1.42218C29.436 2.70055 31.6275 4.40504 33.5754 6.59653C36.68 10.1273 38.3845 14.3276 38.2019 19.0758C38.0193 22.9109 36.8018 26.8069 34.1842 29.7289C28.462 35.999 19.0873 36.4251 11.5388 33.5031C7.88633 32.103 4.78174 29.9115 2.65112 27.1113C3.50337 28.8158 4.59911 30.2768 5.93835 31.5551C7.64284 33.1379 9.77345 34.3554 12.3302 35.2076C14.8261 36.0599 17.6263 36.486 20.7918 36.4251C23.8964 36.4251 26.7575 35.999 29.1925 35.1467C31.6883 34.2945 33.8189 33.0161 35.5234 31.4334C37.2279 29.7898 38.5672 27.9027 39.4194 25.6503C40.2717 23.4588 40.6978 21.0238 40.6369 18.4062C40.5152 14.8146 39.6629 11.6491 38.0802 9.03151Z" fill="#49B96C"/>
<path d="M16.6525 2.45704C7.94741 3.49191 0.155439 13.0492 3.32092 21.9369C3.50354 22.4239 4.17318 21.9369 4.1123 21.5108C3.44268 17.1278 3.99054 13.171 6.36465 9.33588C8.61702 5.74427 12.4521 3.24841 16.6525 2.51792C16.7134 2.57879 16.7742 2.45704 16.6525 2.45704Z" fill="white"/>
<path d="M5.69489 26.1373C5.57314 25.7112 5.39051 25.3459 5.20788 24.9198C5.08614 24.6763 4.84264 24.3111 4.59914 24.1893C4.53826 24.1893 4.53827 24.1284 4.4774 24.1284C4.41652 24.1284 4.29476 24.1893 4.23389 24.2502V24.3111C4.11214 24.4328 4.05127 24.5546 4.05127 24.6763C4.05127 24.7981 4.05127 24.8589 4.11215 24.9807C4.11215 25.1633 4.17301 25.285 4.23389 25.4677C4.41651 25.9547 4.66002 26.4417 4.96439 26.8069C5.26876 27.1722 5.81664 26.5025 5.69489 26.1373Z" fill="white"/>
<path d="M57.9255 36.4251C60.2387 36.4251 62.3085 36.0599 64.1956 35.4511C66.0827 34.8424 67.7263 33.8684 69.0655 32.7118C70.4657 31.4943 71.5005 30.0333 72.231 28.3897C72.9615 26.746 73.3268 24.9198 73.2659 22.9718C73.2659 21.0238 72.9007 19.1976 72.1702 17.554C71.4397 15.9104 70.3439 14.4494 68.9438 13.2927C67.5437 12.1361 65.9001 11.223 64.013 10.6143C62.1258 10.0055 60.0561 9.70114 57.7429 9.70114C55.4905 9.70114 53.4208 10.0664 51.5337 10.6751C49.6465 11.2839 48.0029 12.2579 46.6637 13.4145C45.3244 14.632 44.2287 16.0321 43.4982 17.7366C42.7677 19.3802 42.4025 21.2065 42.4633 23.2153C42.4633 25.1633 42.8286 26.9895 43.5591 28.6332C44.2896 30.2768 45.3853 31.7378 46.7854 32.8944C48.1856 34.051 49.8292 34.9641 51.6554 35.6337C53.5425 36.1207 55.6731 36.4251 57.9255 36.4251ZM58.4125 19.0758C60.4213 19.0758 61.9432 19.502 63.0998 20.3542C64.2565 21.2673 64.8652 22.5457 64.8652 24.2502C64.8652 25.9547 64.3173 27.233 63.1607 28.1462C62.0041 29.0593 60.4822 29.4854 58.5342 29.4854C57.195 29.4854 56.0992 29.3028 55.1253 28.8767C54.2121 28.4505 53.4816 27.9027 52.9946 27.1722C52.4468 26.3808 52.2033 25.4068 52.2033 24.3111C52.2033 23.2153 52.4468 22.2413 52.9946 21.3891C53.4816 20.5977 54.2121 20.0498 55.1253 19.6237C55.9775 19.2585 57.1341 19.0758 58.4125 19.0758Z" fill="#A7D165" stroke="#221F1F" stroke-width="0.820712" stroke-miterlimit="10" stroke-linecap="round" stroke-linejoin="round"/>
<path d="M59.4472 17.4931C57.4383 17.4322 54.699 17.6149 53.3597 19.3193C52.9945 19.8063 52.751 20.7803 52.751 21.6934C52.8119 21.5717 52.8727 21.5108 52.9336 21.3891C53.4206 20.5977 54.1511 20.0498 55.0642 19.6237C56.0382 19.1976 57.1339 19.015 58.4123 19.015C60.4212 19.015 61.943 19.4411 63.0997 20.2933C64.2563 21.2064 64.865 22.4848 64.865 24.1893C64.865 25.8938 64.3172 27.1722 63.1605 28.0853C62.4909 28.6332 61.5778 28.9984 60.6038 29.2419C61.5169 29.2419 62.43 29.0593 63.2823 28.5723C65.5346 27.2939 67.1783 24.4937 66.6304 21.8761C65.8999 18.5888 62.4909 17.554 59.4472 17.4931Z" fill="#A7D165"/>
<path d="M72.1702 17.4931C71.4397 15.8495 70.344 14.3885 68.9439 13.2319C67.5438 12.0753 65.9001 11.1621 64.013 10.5534C62.1259 9.94464 60.0562 9.64027 57.7429 9.64027C57.4386 9.64027 57.1342 9.64027 56.8298 9.70114C56.8907 9.70114 57.0124 9.70114 57.0733 9.70114C60.6649 9.88377 63.4651 11.0404 66.3263 13.2319C68.7004 15.0581 70.7701 17.554 71.0745 20.5977C71.318 23.4588 71.0136 26.6243 69.5526 29.181C66.2045 34.9641 57.8038 37.0339 51.6555 35.2076C50.6815 34.9032 49.5249 34.4771 48.3074 33.9293C49.3422 34.5989 50.4988 35.1467 51.7163 35.5729C53.5426 36.1816 55.6732 36.486 57.9256 36.486C60.2388 36.486 62.3085 36.1207 64.1956 35.512C66.0828 34.9032 67.7264 33.9293 69.0656 32.7726C70.4657 31.5551 71.5006 30.0942 72.2311 28.4505C72.9616 26.8069 73.3269 24.9807 73.266 23.0327C73.266 20.963 72.9007 19.1367 72.1702 17.4931Z" fill="#A7D165"/>
<path d="M52.873 12.0752C46.1159 12.9884 42.4025 22.1196 45.081 27.9027C45.3245 28.3896 46.055 27.8418 45.9333 27.3548C43.6809 21.0847 47.0899 14.9363 52.9339 12.197C52.9339 12.197 52.9947 12.0752 52.873 12.0752Z" fill="white"/>
<path d="M47.0289 29.7289C46.968 29.6072 46.9071 29.4854 46.8462 29.3637C46.7245 29.181 46.6028 29.181 46.481 29.2419L46.4201 29.181C46.2984 29.0593 46.1158 29.2419 46.1766 29.3637C46.1766 29.4245 46.2375 29.5463 46.2375 29.6072C46.2375 29.668 46.2375 29.7289 46.2375 29.7898C46.2984 29.9724 46.3593 30.0942 46.481 30.2159C46.6636 30.4594 47.1506 30.0942 47.0289 29.7289Z" fill="white"/>
</svg>
