<svg width="44" height="52" viewBox="0 0 44 52" fill="none" xmlns="http://www.w3.org/2000/svg">
<path d="M40.0771 10.4C38.8771 8.30002 37.3771 6.50004 35.6771 5.10004C33.9771 3.70004 31.8771 2.60005 29.6771 1.80005C27.3771 1.10005 24.8771 0.700012 22.0771 0.700012C17.8771 0.700012 14.2771 1.50001 11.1771 3.20001C8.07715 4.90001 5.77715 7.40004 4.17715 10.6C3.27715 12.5 2.57715 14.8 2.17715 17.5C1.77715 20.1 1.57715 23.1 1.57715 26.4C1.57715 28.9 1.77715 31.3 2.17715 33.5C2.57715 35.7 3.17715 37.7 3.97715 39.6C5.57715 43 8.07715 45.6 11.3771 47.6C14.6771 49.5 18.3771 50.5 22.4771 50.5C25.9771 50.5 29.2771 49.8 32.1771 48.4C35.0771 47 37.4771 44.9 39.3771 42.3C40.8771 40.2001 41.8771 37.8 42.3771 35.2C42.8771 32.6 43.1771 29.5 43.1771 26C43.1771 19.2 42.1771 14 40.0771 10.4ZM27.6771 32.4C26.4771 33.1 24.6771 33.4 22.3771 33.4C20.1771 33.4 18.4771 33.1 17.1771 32.4C15.9771 31.7 15.0771 30.8 14.5771 29.5C14.0771 28.2 13.7771 26.4 13.7771 24.2C13.7771 21.1 14.3771 18.8 15.6771 17.3C16.8771 15.9 19.1771 15.2 22.3771 15.2C24.6771 15.2 26.4771 15.5 27.6771 16.2C28.8771 16.8 29.7771 17.8 30.2771 19C30.7771 20.3 31.0771 22 31.0771 24.1C31.0771 26.3 30.7771 28.1 30.2771 29.4C29.7771 30.7 28.8771 31.7 27.6771 32.4Z" fill="#D4DA26" stroke="#221F1F" stroke-width="1.3482" stroke-miterlimit="10" stroke-linecap="round" stroke-linejoin="round"/>
<path d="M24.8772 13C22.1772 13 18.8772 12.8 16.5772 14.5C15.0772 15.6 13.5772 17.2 13.3772 19.2C13.3772 19.6 13.4772 21.1 13.8772 22.2C14.0772 20.1 14.6772 18.4 15.6772 17.3C16.8772 15.9 19.1772 15.2 22.3772 15.2C24.6772 15.2 26.4772 15.5 27.6772 16.2C28.8772 16.8 29.7772 17.8 30.2772 19C30.7772 20.3 31.0772 22 31.0772 24.1C31.0772 26.3 30.7772 28.1 30.2772 29.4C29.7772 30.7 28.8772 31.6 27.6772 32.3C26.4772 33 24.6772 33.3 22.3772 33.3C20.3772 33.3 18.7772 33 17.5772 32.4C22.0772 35.9 31.9772 33.9 33.3772 27.2C34.4772 21 33.5772 12.9 24.8772 13Z" fill="#D4DA26"/>
<path d="M40.0772 10.4C38.8772 8.30002 37.3772 6.50004 35.6772 5.10004C33.9772 3.70004 31.8772 2.60005 29.6772 1.80005C27.3772 1.10005 24.8772 0.700012 22.0772 0.700012C21.6772 0.700012 21.2772 0.700012 20.8772 0.700012C24.8772 1.50001 28.8772 3.10004 31.7772 5.60004C36.5772 9.60004 37.9772 15.7 38.3772 21.7C38.7772 27.6 38.6772 35 34.6772 39.9C28.1772 47.7 14.7772 49 7.07725 42.4C5.47725 41.1 4.27725 39.4 3.17725 37.6C3.37725 38.3 3.67725 38.9 3.97725 39.6C5.57725 43 8.07725 45.6 11.3772 47.6C14.6772 49.5 18.3772 50.5 22.4772 50.5C25.9772 50.5 29.2772 49.8 32.1772 48.4C35.0772 47 37.4772 44.9 39.3772 42.3C40.8772 40.2001 41.8772 37.8 42.3772 35.2C42.8772 32.6 43.1772 29.5 43.1772 26C43.1772 19.2 42.1772 14 40.0772 10.4Z" fill="#D4DA26"/>
<path d="M16.8772 3.00003C10.9772 4.90003 7.27716 9.40006 5.07716 15.1001C4.37716 18.5001 3.67716 21.7001 3.77716 25.3001C3.77716 26.9001 3.87716 28.5001 3.87716 30.1001C3.97716 31.2001 4.07716 32.3001 4.37716 33.3001C4.57716 33.7001 4.77716 34.2 5.17716 34.5C5.77716 35 5.97716 34 6.07716 33.5C4.07716 22.3 5.37716 8.80005 16.7772 3.40005C17.0772 3.20005 17.1772 2.90003 16.8772 3.00003Z" fill="white"/>
<path d="M8.17715 38.9C8.07715 38.6 7.87715 38.4 7.77715 38.2C7.57715 37.9 7.57715 37.6 7.37715 37.4C7.07715 37.2 6.57715 37.3 6.47715 37.6C5.97715 38.4 6.57715 39.1 7.07715 39.8C7.47715 40.4 8.47715 39.5 8.17715 38.9Z" fill="white"/>
</svg>
