<svg width="74" height="48" viewBox="0 0 74 48" fill="none" xmlns="http://www.w3.org/2000/svg">
<path d="M12.5727 35.5554C15.0686 36.3468 17.8688 36.7729 20.9734 36.7729C24.5041 36.7729 27.6088 36.2251 30.1655 35.2511C31.3221 35.9207 32.4178 36.5294 33.4527 37.0773C34.6093 37.6861 35.7051 38.1731 36.5573 38.5383C37.5313 38.9036 38.3836 39.0862 39.1749 39.0862C40.2098 39.0862 41.1229 38.7209 41.8534 38.0513C42.6448 37.3208 43.01 36.5294 43.01 35.7381C43.01 34.4597 42.4013 33.6683 41.9143 33.2422C41.3664 32.8161 40.4533 32.3291 38.9923 31.6595C38.2618 31.2942 37.5313 30.9899 36.8008 30.6246C39.5402 27.52 40.8794 23.5631 40.8794 18.7541C40.8794 15.1624 40.0272 12.0578 38.4444 9.37935C36.8617 6.70086 34.4876 4.57025 31.4438 3.17014C28.461 1.77002 24.8085 1.03953 20.669 1.1004C17.6253 1.1004 14.8859 1.52652 12.4509 2.37876C10.016 3.23101 7.88536 4.44851 6.18087 5.97037C4.47638 7.55311 3.13714 9.44022 2.22402 11.6926C1.3109 13.8841 0.884766 16.3191 0.884766 18.9367C0.884766 21.4934 1.37177 23.9284 2.22402 26.1199C3.13714 28.3114 4.4155 30.2594 6.18087 31.903C7.88536 33.4857 10.0768 34.7032 12.5727 35.5554ZM20.669 10.1099C22.4953 10.1099 24.1389 10.4751 25.539 11.2056C26.8782 11.9361 27.9131 12.971 28.7045 14.3711C29.435 15.7712 29.8611 17.5366 29.8611 19.5454C29.8611 21.1282 29.6785 22.5892 29.2524 23.7458C28.948 24.598 28.5219 25.3894 27.9131 26.1199C24.6259 24.2328 22.3127 23.3805 20.7299 23.3805C19.9994 23.3805 19.3298 23.624 18.721 24.111C17.8688 24.7806 17.6862 25.572 17.6862 26.1199C17.6862 26.9721 18.1123 27.7635 18.8428 28.1896C19.2689 28.4331 19.9994 28.7984 21.0343 29.2245H20.9734C18.3558 29.2245 16.2252 28.4331 14.5207 26.7895C12.8162 25.1459 11.964 22.8327 11.964 19.6672C11.964 18.1453 12.2074 16.7452 12.6336 15.5277C13.0597 14.3102 13.6684 13.3362 14.4598 12.6057C15.1903 11.8752 16.1643 11.2665 17.1992 10.8403C18.1732 10.2925 19.3907 10.1099 20.669 10.1099Z" fill="#CA4794" stroke="#221F1F" stroke-width="0.820712" stroke-miterlimit="10" stroke-linecap="round" stroke-linejoin="round"/>
<path d="M24.5652 9.2576C21.6432 8.46623 17.6863 8.77061 15.3731 11.023C15.0687 11.2665 14.5817 11.997 14.0947 12.7883C14.1556 12.6666 14.2774 12.6057 14.3382 12.484C15.0687 11.7535 16.0427 11.1447 17.0776 10.7186C18.1733 10.2925 19.3908 10.1098 20.6692 10.1098C22.4954 10.1098 24.139 10.4751 25.5392 11.2056C26.8784 11.9361 27.9133 12.971 28.7046 14.3711C29.4351 15.7712 29.8613 17.5366 29.8613 19.5454C29.8613 21.1282 29.6787 22.5891 29.2525 23.7458C28.9482 24.598 28.522 25.3894 27.9133 26.1199C24.626 24.2328 22.3128 23.3805 20.7301 23.3805C20.1213 23.3805 19.5734 23.5631 19.0256 23.8675C19.9387 23.9893 20.8518 24.2328 21.4605 24.4763C22.5563 24.8415 23.7738 25.2068 24.7478 25.8155C25.5392 26.3025 27.1219 27.7026 28.1568 27.52C29.4351 27.2765 30.1048 25.2068 30.47 24.1719C32.1136 18.8149 30.7135 10.9012 24.5652 9.2576Z" fill="#CA4794"/>
<path d="M41.8533 33.2422C41.3055 32.8161 40.3924 32.3291 38.9314 31.6595C38.2009 31.2942 37.4704 30.9899 36.7399 30.6246C39.4793 27.52 40.8185 23.5632 40.8185 18.7541C40.8185 15.1624 39.9663 12.0578 38.3835 9.37935C36.8008 6.70086 34.4267 4.57025 31.3829 3.17014C28.4001 1.77002 24.7476 1.03953 20.6081 1.1004C19.5124 1.1004 18.4775 1.16128 17.4426 1.28303C20.7299 1.03953 23.9562 1.40477 27 2.43964C33.6353 4.81375 38.0183 10.6577 37.9574 17.7801C37.8965 21.4934 36.9225 25.3285 34.6701 28.3114C34.3049 28.7984 33.8788 29.3462 33.5135 29.8332C33.5135 29.8332 33.5135 29.8332 33.4527 29.8332C33.3309 30.0159 33.1483 30.2594 33.0265 30.442C33.4526 30.6246 33.8179 30.8072 34.244 30.9899C35.1571 31.416 36.0703 31.7812 36.9834 32.2682C38.5661 33.0596 41.6707 34.7032 42.5839 36.5294C42.7056 36.4686 42.7665 36.4686 42.8274 36.5294C42.9491 36.2251 43.01 35.9816 43.01 35.6772C42.9491 34.3988 42.3403 33.6683 41.8533 33.2422Z" fill="#CA4794"/>
<path d="M11.416 4.87463C11.4769 4.81375 11.4769 4.75288 11.3552 4.75288C6.78958 6.94437 4.17199 10.7795 3.38062 15.7103C2.4675 21.2499 3.74586 27.1548 8.12883 30.929C8.61583 31.3551 9.46805 30.5029 8.98105 30.0767C5.08508 26.7895 3.92848 22.1022 4.17198 17.1104C4.53723 11.8143 7.21569 7.97924 11.416 4.87463Z" fill="white"/>
<path d="M10.9291 31.6595C10.6856 31.4769 10.4421 31.3551 10.2595 31.1725L10.1986 31.1116C10.0159 30.9899 9.77246 31.1116 9.65071 31.2334C9.52896 31.3551 9.4681 31.4768 9.4681 31.5986C9.40722 31.7812 9.52896 31.903 9.65071 31.9638C9.77246 32.0247 9.83334 32.0856 9.95509 32.1465C10.1377 32.2682 10.3203 32.39 10.4421 32.39C10.8682 32.6335 11.3552 32.0247 10.9291 31.6595Z" fill="white"/>
<path d="M22.1302 28.007C21.8867 27.7635 21.5823 27.5809 21.3388 27.3982C20.9127 27.0939 20.5475 26.7895 20.1213 26.546C19.7561 26.3025 19.5126 25.9981 19.3299 25.572C19.2082 25.3285 19.3299 25.0241 19.1473 24.8415C19.0864 24.7806 18.9647 24.7806 18.9038 24.8415C18.1734 25.2676 18.4168 26.3025 18.843 26.9112C19.1473 27.3374 19.6952 27.5809 20.1822 27.8244C20.7301 28.0679 21.278 28.4331 21.8258 28.494C22.0693 28.494 22.3128 28.1896 22.1302 28.007Z" fill="white"/>
<path d="M35.827 36.4686C35.2791 35.8598 34.4269 35.3728 33.6964 35.0685C32.9659 34.7641 32.3571 34.338 31.6266 34.1553C31.5658 34.1553 31.444 34.2771 31.5049 34.338C31.9919 34.8858 32.6615 35.3728 33.3311 35.6772C34.1225 36.0424 34.853 36.5294 35.7052 36.7121C35.7661 36.6512 35.8879 36.5294 35.827 36.4686Z" fill="white"/>
<path d="M65.2297 12.9101C64.8036 13.3362 64.4383 13.8232 64.2557 14.3711C63.4643 13.7623 62.6729 13.2753 61.7598 12.8492C60.1162 12.1187 58.1682 11.7535 56.0985 11.7535C53.6635 11.7535 51.4111 12.3013 49.4023 13.3362C47.3325 14.4319 45.7498 15.9538 44.5932 18.0236C43.4365 20.0324 42.8887 22.4674 42.8887 25.2068C42.8887 27.8852 43.4974 30.2594 44.6541 32.2682C45.8107 34.2771 47.4543 35.8598 49.4631 36.9556C51.472 37.9904 53.6635 38.5383 56.0985 38.5383C58.0465 38.5383 59.8727 38.1731 61.5163 37.5034C62.3686 37.1382 63.2817 36.7121 64.073 36.1642L64.1339 42.1908C64.1339 43.6518 64.4383 44.8084 64.9862 45.7215C65.6558 46.8173 66.9342 47.3651 68.7604 47.3651C71.6824 47.3651 73.326 45.4171 73.326 42.1299L73.2042 16.2582C73.2042 14.7972 72.7173 13.6406 71.865 12.8492C71.0128 12.0578 69.917 11.6926 68.6386 11.6926C67.1777 11.6926 66.0819 12.1187 65.2297 12.9101ZM63.5252 26.4851C63.5252 27.6417 63.2817 28.5549 62.7338 29.2854C62.186 30.0159 61.5772 30.5637 60.7249 30.8681C59.8727 31.2333 58.8987 31.416 57.8639 31.416C56.8899 31.416 56.0376 31.2334 55.2462 30.929C54.4548 30.5637 53.8461 30.0767 53.2983 29.3462C52.8113 28.6157 52.5069 27.7026 52.5069 26.6069C52.5069 24.9633 52.9939 23.7458 54.0287 22.9544C55.0636 22.1021 56.2811 21.7369 57.8639 21.676C58.6552 21.676 59.3857 21.7978 60.0553 21.9804C60.725 22.163 61.3337 22.4674 61.8207 22.8326C62.3077 23.1979 62.7338 23.7458 63.0382 24.3545C63.3426 24.9633 63.5252 25.6938 63.5252 26.4851Z" fill="#ED4794" stroke="#221F1F" stroke-width="0.820712" stroke-miterlimit="10" stroke-linecap="round" stroke-linejoin="round"/>
<path d="M73.1431 16.2582C73.1431 14.7972 72.6561 13.6406 71.8038 12.8492C70.9516 12.0578 69.8558 11.6926 68.5775 11.6926C67.9078 11.6926 67.2991 11.8143 66.7512 11.997C68.5775 11.8143 70.1602 12.7883 70.8907 15.1016C71.4994 17.2322 71.1342 19.6063 71.1951 21.7978C71.2559 24.4763 71.3168 27.1547 71.4386 29.8332C71.4995 32.5117 71.5603 35.1902 71.4994 37.8078C71.4994 39.5732 71.6821 41.3994 71.4994 43.1648C71.3168 44.991 70.7081 46.3911 69.5514 46.8781C69.6732 46.9999 69.6732 47.1216 69.6732 47.2434C71.9864 46.8781 73.3257 45.0519 73.2648 42.069L73.1431 16.2582Z" fill="#ED4794"/>
<path d="M58.7766 20.3977C57.0721 20.3977 55.2458 20.8847 54.0284 22.163C53.3587 22.8935 52.5065 23.8675 52.4456 24.9024C52.3848 25.3285 52.4456 25.6938 52.5065 26.059C52.6282 24.7198 53.1152 23.7458 54.0284 23.0153C55.0632 22.163 56.2807 21.7978 57.8635 21.7369C58.6549 21.7369 59.3853 21.8587 60.055 22.0413C60.7246 22.2239 61.3333 22.5283 61.8203 22.8935C62.3073 23.2588 62.7335 23.8066 63.0378 24.4154C63.3422 25.0241 63.5248 25.7546 63.5248 26.546C63.5248 27.7026 63.2813 28.6157 62.7335 29.3462C62.1856 30.0767 61.5768 30.6246 60.7246 30.929C59.8723 31.2942 58.8984 31.4769 57.8635 31.4769C56.8895 31.4769 56.0372 31.2942 55.2458 30.9899C54.4545 30.6246 53.8458 30.1376 53.2979 29.4071L53.237 29.3462C53.6022 30.9899 54.8197 32.5117 56.5242 32.9987C59.9941 33.9727 64.3771 31.6595 65.1075 28.007C65.8989 23.7458 63.0987 20.3368 58.7766 20.3977Z" fill="#ED4794"/>
<path d="M65.1077 33.3031C59.9334 37.3208 51.1674 38.1122 46.054 33.4248C45.2017 32.6335 44.5321 31.7812 43.9233 30.8072C44.106 31.2942 44.3495 31.8421 44.6538 32.2682C45.8105 34.2771 47.4541 35.8598 49.4629 36.9556C51.4718 37.9904 53.6633 38.5383 56.0983 38.5383C58.0463 38.5383 59.8725 38.1731 61.5161 37.5034C62.3075 37.1991 63.038 36.7729 63.7685 36.3468C64.4381 35.4337 64.9251 34.4597 65.1077 33.3031Z" fill="#ED4794"/>
<path d="M62.4899 14.7363C57.9243 12.1796 51.4107 12.4231 47.4538 16.0147C43.8622 19.3019 42.3404 26.9721 45.6885 30.929C45.9929 31.2942 46.4799 30.7463 46.3581 30.3811C44.471 25.572 44.1666 20.5803 47.9408 16.5626C51.4716 12.8492 57.9852 13.2144 62.3681 14.8581C62.4899 14.9189 62.6116 14.7972 62.4899 14.7363Z" fill="white"/>
<path d="M47.6975 32.4509C47.5149 32.2682 47.3932 31.9638 47.2106 31.7812C47.0888 31.6595 46.9671 31.7204 46.9062 31.7812C46.7236 31.7812 46.6018 31.9639 46.6018 32.1465C46.6018 32.2074 46.6627 32.2682 46.6627 32.3291C46.7235 32.6335 46.9062 32.877 47.1497 33.0596C47.3932 33.3031 47.941 32.7552 47.6975 32.4509Z" fill="white"/>
<path d="M66.3249 44.504C65.6552 43.043 65.9596 41.2168 65.8379 39.6949C65.7161 38.1731 65.8988 36.5903 65.4726 35.0685C65.4118 34.9467 65.2291 35.0076 65.29 35.1293C65.3509 36.9556 64.9247 38.7209 65.1074 40.4863C65.2291 41.8255 64.7421 43.8344 65.777 44.9301C66.0205 45.2345 66.4466 44.8084 66.3249 44.504Z" fill="white"/>
</svg>
