<svg width="40" height="25" viewBox="0 0 40 25" fill="none" xmlns="http://www.w3.org/2000/svg">
<path d="M36.8999 1.19995H3.3999C2.2999 1.19995 1.3999 1.79997 1.3999 2.49997V9.69995C1.3999 10.4 2.2999 11 3.3999 11H36.8999C37.9999 11 38.8999 10.4 38.8999 9.69995V2.49997C38.8999 1.89997 37.9999 1.19995 36.8999 1.19995Z" fill="#48873C" stroke="#221F1F" stroke-width="1.0993" stroke-miterlimit="10" stroke-linecap="round" stroke-linejoin="round"/>
<path opacity="0.4" d="M36.8999 1.19995H34.0999C34.2999 1.39995 34.5999 1.59996 34.7999 1.79996C35.5999 2.89996 36.1999 4.29997 35.2999 5.49997C32.6999 8.89997 26.4999 8.89995 21.6999 9.19995C16.7999 9.49995 6.6999 9.89997 1.3999 7.99997V9.69995C1.3999 10.4 2.2999 11 3.3999 11H36.8999C37.9999 11 38.8999 10.4 38.8999 9.69995V2.49997C38.8999 1.89997 37.9999 1.19995 36.8999 1.19995Z" fill="#48873C"/>
<path d="M23.6998 2.29995C20.9998 2.09995 18.2999 2.29995 15.5999 2.29995C12.4999 2.29995 9.39984 2.19996 6.19984 2.49996C2.09984 2.79996 3.39986 4.89994 3.59986 7.09994C3.59986 7.19994 3.89985 7.09994 3.89985 7.09994C3.99985 5.89994 3.49986 3.69996 6.09986 3.49996C7.99986 3.39996 9.79984 3.29994 11.6998 3.19994C15.6998 2.99994 19.5999 3.09995 23.4999 2.79995C23.7999 2.69995 24.0998 2.29995 23.6998 2.29995Z" fill="white"/>
<path d="M36.8999 14.2H3.3999C2.2999 14.2 1.3999 14.8 1.3999 15.5V22.7C1.3999 23.4 2.2999 24 3.3999 24H36.8999C37.9999 24 38.8999 23.4 38.8999 22.7V15.5C38.8999 14.8 37.9999 14.2 36.8999 14.2Z" fill="#48873C" stroke="#221F1F" stroke-width="1.0993" stroke-miterlimit="10" stroke-linecap="round" stroke-linejoin="round"/>
<path opacity="0.4" d="M36.8999 14.2H34.0999C34.2999 14.4 34.5999 14.6 34.7999 14.8C35.5999 15.9 36.1999 17.3 35.2999 18.5C32.6999 21.9 26.4999 21.9 21.6999 22.2C16.7999 22.5 6.6999 22.9 1.3999 21V22.7C1.3999 23.4 2.2999 24 3.3999 24H36.8999C37.9999 24 38.8999 23.4 38.8999 22.7V15.5C38.8999 14.8 37.9999 14.2 36.8999 14.2Z" fill="#48873C"/>
<path d="M23.6998 15.2C20.9998 15 18.2999 15.2 15.5999 15.2C12.4999 15.2 9.39984 15.1 6.19984 15.4C2.09984 15.7 3.39986 17.8 3.59986 20C3.59986 20.1 3.89985 20 3.89985 20C3.99985 18.8 3.49986 16.6 6.09986 16.4C7.99986 16.3 9.79984 16.2 11.6998 16.1C15.6998 15.9 19.5999 16 23.4999 15.7C23.7999 15.6 24.0998 15.3 23.6998 15.2Z" fill="white"/>
</svg>
