<svg width="37" height="51" viewBox="0 0 37 51" fill="none" xmlns="http://www.w3.org/2000/svg">
<path d="M33.9062 2.5C32.7062 1.8 30.8062 1.40002 28.1062 1.40002H4.20622C4.00622 1.50002 3.70621 1.50004 3.50621 1.60004C3.20621 1.70004 2.90622 1.90004 2.70622 2.10004C2.50622 2.30004 2.20621 2.50001 2.00621 2.70001C0.806211 4.10001 0.606229 6.09999 1.80623 7.79999C3.70623 10.3 7.30622 10.3 10.2062 10.3C13.2062 10.3 16.2062 10.3 19.2062 10.3C19.5062 10.3 21.2062 10.5 21.4062 10.3C18.5062 13.4 16.0062 16.5 13.9062 19.6C11.5062 23.1 9.50624 26.5 7.90624 29.8C6.30624 33.1 5.10624 36 4.40624 38.4C3.70624 40.8 3.30623 42.8 3.30623 44.2C3.30623 46.2 3.90621 47.7 5.00621 48.7C6.10621 49.7 7.50623 50.3 9.30623 50.3C11.1062 50.3 12.6062 49.8 13.8062 48.9C14.9062 47.9 15.8062 46.3 16.4062 44C16.6062 43 16.9062 41.7 17.2062 39.9C17.5062 38.1 17.8062 36.7 18.1062 35.6C18.4062 34.5 18.8062 33.1 19.4062 31.5C20.9062 27.7 22.5062 24.5 24.3062 21.9C26.1062 19.3 27.8062 17.1 29.5062 15.3C31.2062 13.5 32.7062 11.9 34.0062 10.4C35.5062 8.80002 36.2062 7.50002 36.2062 6.40002C36.0062 4.50002 35.3062 3.3 33.9062 2.5Z" fill="#16AAB4" stroke="#221F1F" stroke-width="1.3482" stroke-miterlimit="10" stroke-linecap="round" stroke-linejoin="round"/>
<path d="M33.9063 2.49994C33.2063 2.09994 32.3063 1.79995 31.2063 1.69995C31.8063 2.19995 32.2063 2.79994 32.4063 3.49994C33.0063 5.89994 32.1063 8.19994 30.7063 9.99994C27.9063 13.5999 24.6063 16.6999 22.1063 20.4999C19.6063 24.3999 17.4063 28.4 16.2063 32.9C14.8063 38.2 13.9063 48.2 7.00629 49.1C6.30629 49.2 5.7063 49.0999 5.2063 48.9999C6.3063 49.8999 7.6063 50.2999 9.2063 50.2999C11.0063 50.2999 12.5063 49.8 13.7063 48.9C14.8063 47.9 15.7063 46.2999 16.3063 43.9999C16.5063 42.9999 16.8063 41.7 17.1063 39.9C17.4063 38.1 17.7063 36.7 18.0063 35.6C18.3063 34.5 18.7063 33.0999 19.3063 31.4999C20.8063 27.6999 22.4063 24.5 24.2063 21.9C26.0063 19.3 27.7063 17.0999 29.4063 15.2999C31.1063 13.4999 32.6063 11.9 33.9063 10.4C35.4063 8.79996 36.1063 7.49996 36.1063 6.39996C36.0063 4.49996 35.3063 3.29994 33.9063 2.49994Z" fill="#00B5BD"/>
<path d="M19.2063 10.4001C19.5063 10.4001 21.2064 10.6001 21.4064 10.4001C21.3064 10.5001 21.2063 10.6001 21.1063 10.7001C21.7063 10.4001 21.5063 10.0001 22.1063 9.70007C22.4063 8.40007 25.0063 8.1001 21.7063 8.1001C21.3063 8.1001 20.9063 8.1001 20.5063 8.1001C19.2063 8.0001 17.9063 8.00006 16.6063 8.00006C13.9063 7.90006 11.2063 7.70005 8.50633 7.80005C6.40633 7.90005 1.80634 8.00005 1.60634 4.80005C1.60634 4.30005 1.60634 3.80005 1.70634 3.30005C0.806345 4.70005 0.706351 6.50009 1.80635 7.90009C3.70635 10.4001 7.30634 10.4001 10.2063 10.4001C13.2063 10.4001 16.2063 10.4001 19.2063 10.4001Z" fill="#00B5BD"/>
<path d="M19.8063 15.6C15.5063 19.3 12.4063 23.8 9.8063 28.8C7.5063 33.2 4.70629 39 5.20629 44C5.30629 44.7 6.2063 44.2 6.3063 43.7C8.0063 32.9 13.5063 24.2 20.0063 15.7C20.1063 15.6 19.9063 15.5 19.8063 15.6Z" fill="white"/>
<path d="M25.1063 2.99992C20.4063 2.69992 15.7063 2.69991 11.0063 2.79991C7.80626 2.79991 5.10626 2.09996 3.00626 4.59996C2.90626 4.69996 3.00627 4.79993 3.10627 4.69993C5.50627 2.49993 9.90626 3.49992 13.0063 3.49992C17.0063 3.39992 20.9063 3.69993 24.9063 3.69993C25.2063 3.69993 25.5063 2.99992 25.1063 2.99992Z" fill="white"/>
</svg>
