<svg width="43" height="38" viewBox="0 0 43 38" fill="none" xmlns="http://www.w3.org/2000/svg">
<path d="M8.26911 2.95387C7.41686 2.10163 6.26023 1.67551 4.98186 1.67551C3.64262 1.67551 2.5469 2.1625 1.69465 3.01475C0.842405 3.92787 0.41626 5.20624 0.41626 6.91073L0.538017 31.6258C0.538017 33.3912 1.02501 34.7304 1.93813 35.5827C2.85125 36.4349 4.12964 36.8002 5.95588 36.8002L22.879 36.6784C24.2791 36.6784 25.3749 36.3741 26.1662 35.7044C27.0185 34.9739 27.5055 33.9391 27.5055 32.7825C27.5055 31.6258 27.0185 30.6518 26.1662 29.8605C25.3749 29.1909 24.2791 28.8256 22.879 28.8865L9.79097 28.9474L9.66922 6.78898C9.66922 5.14536 9.18223 3.86699 8.26911 2.95387Z" fill="#8F61A8" stroke="#221F1F" stroke-width="0.820712" stroke-miterlimit="10" stroke-linecap="round" stroke-linejoin="round"/>
<path d="M7.11272 5.02361C7.78234 6.7281 7.66059 8.55435 7.72146 10.3806C7.78234 12.7547 7.84321 15.1897 7.90408 17.5638C7.96495 22.0685 8.02584 26.5124 8.02584 31.0171C8.45196 30.591 8.75635 30.0431 9.18247 29.7387C9.48684 29.4952 9.79122 29.2517 10.0956 29.0082H9.85208L9.73032 6.84985C9.73032 5.14536 9.24333 3.86699 8.33021 2.95387C7.47797 2.10163 6.32137 1.67551 5.043 1.67551C3.88638 1.67551 2.91238 2.04075 2.18188 2.71037C4.00812 2.22338 6.32135 3.07562 7.11272 5.02361Z" fill="#8F61A8"/>
<path d="M26.1663 29.9213C25.4966 29.3735 24.7053 29.0691 23.6704 28.9473C24.5227 29.7387 25.0705 30.8953 24.8879 31.9911C24.34 35.6436 19.8962 35.5827 16.9742 35.7044C14.3566 35.8262 11.739 35.8262 9.0605 35.8262C7.17339 35.8262 5.10366 35.8871 3.21655 35.4609C2.30343 35.2174 1.63381 34.9131 1.08594 34.4261C1.32944 34.8522 1.57293 35.2783 1.8773 35.5827C2.79042 36.4349 4.06877 36.8002 5.89501 36.8002L22.8182 36.6784C24.2183 36.6784 25.314 36.374 26.1054 35.7044C26.9577 34.9739 27.4447 33.9391 27.4447 32.7824C27.5055 31.6258 27.0794 30.6518 26.1663 29.9213Z" fill="#8F61A8"/>
<path d="M2.97275 33.0259C2.24226 30.9562 2.60751 28.643 2.48576 26.5123C2.36401 24.0774 2.36401 21.5815 2.36401 19.0856C2.36401 14.6418 1.99874 9.89357 2.72924 5.51059C2.72924 5.44972 2.60752 5.44972 2.60752 5.51059C1.02478 9.52832 1.57264 14.3983 1.57264 18.6595C1.57264 21.3989 1.57265 24.1382 1.6944 26.8167C1.81615 28.8256 1.2074 31.6258 2.30315 33.4521C2.54665 33.8173 3.0945 33.3912 2.97275 33.0259Z" fill="white"/>
<path d="M40.6544 35.5827C41.5676 34.7304 42.0546 33.513 42.0546 31.9302L41.9328 5.99761C41.9328 4.41487 41.4458 3.19738 40.5327 2.34513C39.6196 1.55376 38.4629 1.12764 37.0628 1.12764C35.6627 1.12764 34.5061 1.55376 33.6539 2.40601C32.8016 3.25825 32.3146 4.47575 32.3755 5.99761L32.4972 31.9302C32.4972 33.4521 32.9842 34.6696 33.8973 35.5218C34.8105 36.3741 35.9062 36.8002 37.3063 36.8002C38.6456 36.8002 39.7413 36.3741 40.6544 35.5827Z" fill="#CC68A8" stroke="#221F1F" stroke-width="0.820712" stroke-miterlimit="10" stroke-linecap="round" stroke-linejoin="round"/>
<path d="M41.9328 5.99761C41.9328 4.41487 41.4458 3.19738 40.5327 2.34513C39.6196 1.55376 38.4629 1.12764 37.0628 1.12764C35.6627 1.12764 34.5061 1.55376 33.6539 2.40601C32.8016 3.25825 32.3146 4.47575 32.3755 5.99761L32.4972 31.9302C32.4972 33.4521 32.9842 34.6696 33.8973 35.5218C34.8105 36.3741 35.9062 36.8002 37.3063 36.8002C38.7065 36.8002 39.8022 36.3741 40.7153 35.5827C41.6284 34.7304 42.1154 33.513 42.1154 31.9302L41.9328 5.99761ZM38.6455 33.5738C38.0977 34.3043 37.3672 34.6696 36.5149 34.6696C35.6627 34.6696 34.9322 34.3043 34.3843 33.5738C33.8365 32.8433 33.5321 31.7476 33.5321 30.4083L33.4103 7.51948C33.4103 6.18024 33.6538 5.08449 34.2017 4.354C34.7496 3.6235 35.4801 3.25825 36.3323 3.19738C37.1846 3.19738 37.9151 3.56263 38.5238 4.29312C39.1326 5.02362 39.4369 6.11936 39.4369 7.51948L39.5587 30.4083C39.4978 31.7476 39.1934 32.8433 38.6455 33.5738Z" fill="#CD8EBE"/>
<path d="M34.6278 10.198C34.6887 8.6761 34.5061 6.60636 34.8713 5.14537C34.8713 5.08449 34.8105 5.02362 34.7496 5.0845C33.593 7.27598 33.7756 10.1371 33.7756 12.5721C33.7756 16.2854 33.4103 20.2423 33.8365 23.9556C33.8973 24.3818 34.5061 24.0774 34.5061 23.773C34.8104 20.9728 34.567 18.1117 34.567 15.3114C34.567 13.6678 34.5669 11.9633 34.6278 10.198Z" fill="white"/>
<path d="M34.2018 25.721C34.08 25.5992 33.8974 25.721 33.8974 25.9036C33.8365 26.208 33.7756 26.4515 33.7756 26.695C33.7756 27.0602 33.7756 27.3646 33.7756 27.7299C33.7756 27.7907 33.8365 27.9125 33.8974 27.9125C34.7496 28.2168 34.6279 26.0862 34.2018 25.721Z" fill="white"/>
</svg>
