<svg width="74" height="53" viewBox="0 0 74 53" fill="none" xmlns="http://www.w3.org/2000/svg">
<path d="M20.1771 1.79999C18.7771 1.79999 17.7771 2 17.1771 2.5C16.6771 2.9 15.7771 3.90001 14.2771 5.70001C12.8771 7.30001 11.1771 8.79998 9.37713 10.1C7.57713 11.4 4.97713 12.7 1.87713 13.9C1.77713 14 1.57714 14.1 1.57714 14.2C0.577143 15.8 0.577131 17.2 1.37713 18.6C2.57713 20.6 4.77711 21.2 6.97711 20.7C7.97711 20.5 8.97711 20 9.97711 19.6C10.4771 19.4 13.4771 17.9 13.4771 17.5V45.6C13.4771 47.5 14.0771 49 15.1771 50C16.2771 51 17.6771 51.5 19.4771 51.5C22.2771 51.5 25.5771 50.3 25.5771 44.4V7.5C25.5771 5.8 25.0771 4.39996 24.1771 3.39996C23.0771 2.29996 21.7771 1.79999 20.1771 1.79999Z" fill="#8A52A1" stroke="#221F1F" stroke-width="1.3482" stroke-miterlimit="10" stroke-linecap="round" stroke-linejoin="round"/>
<path opacity="0.5" d="M16.277 13.4C12.677 15.9 6.57702 20.2 3.07702 17.4C1.67702 16.3 1.57702 15.1 2.07702 13.9H1.97698C1.87698 14 1.677 14.1 1.677 14.2C0.676997 15.8 0.676984 17.2 1.47698 18.6C2.67698 20.6 4.87702 21.2 7.07702 20.7C8.07702 20.5 9.07702 20 10.077 19.6C10.377 19.5 12.677 18.3 13.577 17.7C14.177 16.4 15.377 14.6 16.277 13.4Z" fill="#662D73"/>
<path opacity="0.5" d="M23.9771 3.29999C22.9771 2.29999 21.6771 1.79999 20.1771 1.79999C18.7771 1.79999 17.7771 2 17.1771 2.5C16.8771 2.8 16.1771 3.4 15.2771 4.5C17.9771 3.8 20.4771 4.4 21.6771 8C22.8771 11.7 22.3771 15.6 22.3771 19.4C22.3771 23.7 22.4771 27.9 22.4771 32.2C22.4771 36.2 22.6771 40.6 21.9771 44.5C21.6771 46.3 21.0771 48.8 19.4771 49.9C18.3771 50.6 17.2771 50.8 16.2771 50.7C17.1771 51.2 18.1771 51.4 19.3771 51.4C22.1771 51.4 25.4771 50.2 25.4771 44.3V7.39996C25.4771 5.69996 24.9771 4.29999 23.9771 3.29999Z" fill="#662D73"/>
<path d="M15.4773 7.09998C14.1772 8.09998 13.0772 9.29999 11.7772 10.3C10.3772 11.3 8.97729 12.4 7.57729 13.3C7.37729 13.4 7.47726 13.6 7.67726 13.6C9.27726 13.2 10.7773 12 12.1773 11.1C13.4773 10.2 15.0773 8.99998 15.9773 7.59998C16.0773 7.19998 15.7773 6.79998 15.4773 7.09998Z" fill="white"/>
<path d="M5.97711 13.8C5.67711 13.9 5.37714 14 5.07714 14.1C4.87714 14.2 4.87712 14.6 5.17712 14.6C5.27712 14.6 5.27713 14.6 5.37713 14.6C5.57713 14.6 5.77711 14.5 5.97711 14.4C6.17711 14.3 6.37711 13.7 5.97711 13.8Z" fill="white"/>
<path d="M15.2771 21.5999C15.2771 21.4999 15.0772 21.6 15.0772 21.7C15.0772 27.5 14.5771 33.2 14.9771 39C14.9771 39.3 15.4771 39.0999 15.4771 38.8999C15.7771 35.3999 15.6771 31.8 15.6771 28.3C15.8771 26 15.9771 23.5999 15.2771 21.5999Z" fill="white"/>
<path d="M69.4771 11C68.2771 8.9 66.7771 7.10001 65.0771 5.70001C63.3771 4.30001 61.2771 3.19996 59.0771 2.39996C56.7771 1.69996 54.2771 1.29999 51.4771 1.29999C47.2771 1.29999 43.6771 2.09999 40.5771 3.79999C37.4771 5.49999 35.1771 8.00001 33.5771 11.2C32.6771 13.1 31.9771 15.4 31.5771 18.1C31.1771 20.7 30.9771 23.7 30.9771 27C30.9771 29.5 31.1771 31.9 31.5771 34.1C31.9771 36.3 32.5771 38.3 33.3771 40.2C34.9771 43.6 37.477 46.2 40.777 48.2C44.077 50.1 47.7771 51.1 51.8771 51.1C55.3771 51.1 58.6771 50.4 61.5771 49C64.4771 47.6 66.877 45.5 68.777 42.9C70.277 40.8 71.277 38.4 71.777 35.8C72.277 33.2 72.5771 30.1 72.5771 26.6C72.5771 19.8 71.4771 14.6 69.4771 11ZM57.0771 33C55.8771 33.7 54.077 34 51.777 34C49.577 34 47.8771 33.7 46.5771 33C45.3771 32.3 44.4771 31.4 43.9771 30.1C43.4771 28.8 43.1771 27 43.1771 24.8C43.1771 21.7 43.7771 19.4 45.0771 17.9C46.2771 16.5 48.577 15.8 51.777 15.8C54.077 15.8 55.8771 16.1 57.0771 16.8C58.2771 17.4 59.1771 18.4 59.6771 19.6C60.1771 20.9 60.4771 22.6 60.4771 24.7C60.4771 26.9 60.1771 28.7 59.6771 30C59.1771 31.3 58.2771 32.3 57.0771 33Z" fill="#8A52A1" stroke="#221F1F" stroke-width="1.3482" stroke-miterlimit="10" stroke-linecap="round" stroke-linejoin="round"/>
<path opacity="0.5" d="M50.1769 13.1C48.0769 13.5 45.8769 14.4999 44.7769 16.3999C44.4769 16.9999 43.977 18.6 43.877 20.2C44.177 19.3 44.577 18.6 45.077 18C46.277 16.6 48.5769 15.8999 51.7769 15.8999C54.0769 15.8999 55.877 16.1999 57.077 16.8999C58.277 17.4999 59.1769 18.5 59.6769 19.7C60.1769 21 60.4769 22.7 60.4769 24.8C60.4769 27 60.1769 28.8 59.6769 30.1C59.2769 31 58.777 31.7 58.077 32.3C62.277 29.7 63.3769 20.6 59.9769 16.6C57.6769 13.9 53.6769 12.4 50.1769 13.1Z" fill="#662D73"/>
<path opacity="0.5" d="M33.3771 40.1C34.9771 43.5 37.4771 46.1 40.7771 48.1C44.0771 50 47.7771 51 51.8771 51C55.3771 51 58.6771 50.3 61.5771 48.9C64.4771 47.5 66.8771 45.4 68.7771 42.8C70.2771 40.7 71.2771 38.3 71.7771 35.7C72.2771 33.1 72.5771 30 72.5771 26.5C72.5771 19.9 71.5771 14.8 69.4771 11.1C68.2771 8.99998 66.7771 7.19999 65.0771 5.79999C63.3771 4.39999 61.2771 3.3 59.0771 2.5C56.7771 1.8 54.2771 1.39996 51.4771 1.39996C47.2771 1.39996 43.6771 2.19996 40.5771 3.89996C40.0771 4.19996 39.5771 4.59996 39.0771 4.89996C40.3771 4.29996 41.6771 3.8 42.9771 3.5C47.9771 2.2 53.2771 2.2 58.1771 4C68.3771 7.8 68.6771 21.2 67.1771 30.2C66.2771 35.7 64.9771 40.5 60.0771 43.7C56.2771 46.2 50.6771 47.1 46.2771 46.5C39.0771 45.5 34.2771 40.2 31.5771 33.9C31.5771 34 31.5771 34.1 31.5771 34.2C31.8771 36.2 32.4771 38.2 33.3771 40.1Z" fill="#662D73"/>
<path d="M47.8771 4.30001C36.2771 6.70001 31.4771 17.3 32.8771 28.4C32.9771 29 33.6771 28.6 33.7771 28.2C34.4771 23 33.8771 17.6 36.4771 12.8C38.7771 8.60001 43.3771 5.90002 47.8771 4.50002C48.0771 4.50002 48.0771 4.20001 47.8771 4.30001Z" fill="white"/>
<path d="M34.0771 33.6C34.0771 33.4 34.0771 33.3 34.0771 33.1C33.9771 32.5 34.1771 31.8 33.8771 31.2C33.6771 30.9 33.277 31.0999 33.177 31.3999C32.877 32.0999 32.9771 32.9 33.0771 33.6C33.1771 34.2 33.277 34.8 33.677 35.3C33.977 35.7 34.6771 35.1 34.5771 34.7C34.3771 34.4 34.1771 34 34.0771 33.6Z" fill="white"/>
</svg>
