<svg width="71" height="37" viewBox="0 0 71 37" fill="none" xmlns="http://www.w3.org/2000/svg">
<path d="M51.2281 20.2367C49.4019 20.5411 48.3061 20.7846 47.88 20.8455C45.5059 21.2716 43.6188 22.1847 42.2187 23.524C40.7577 24.9241 39.9663 26.6286 40.0272 28.6374C40.0272 30.0984 40.5142 31.4986 41.4273 32.716C42.2796 33.9335 43.5579 34.9075 45.1407 35.5772C46.6625 36.2468 48.4888 36.5512 50.4368 36.5512C52.5674 36.5512 54.5154 36.2468 56.2199 35.5772C57.62 35.0902 59.0201 34.3597 60.4811 33.5074C61.0898 34.2379 61.6986 34.8467 62.3073 35.3337C63.2204 36.0642 64.2553 36.4903 65.2293 36.4294C66.3859 36.4294 67.3599 36.0642 68.273 35.3945C69.5514 34.4814 69.7949 33.4465 69.7949 32.716C69.7949 32.3508 69.6732 31.7421 69.0644 29.9158C68.6383 28.8201 68.4557 27.7852 68.4557 26.8112C68.4557 25.5937 68.4557 24.498 68.4557 23.524C68.4557 22.55 68.4557 21.3325 68.4557 19.9324C68.4557 17.4974 68.0295 15.4885 67.1773 14.0275C66.2642 12.4448 64.8032 11.2273 62.6726 10.5577C60.7246 9.88805 58.1678 9.58368 54.8806 9.58368C51.9586 9.58368 49.4628 9.94893 47.4539 10.6794C45.3842 11.4099 43.8623 12.323 42.8274 13.4797C41.7317 14.6971 41.1838 16.0364 41.1838 17.3756C41.1838 18.4714 41.6708 19.3845 42.5839 19.9932C43.3753 20.602 44.3493 20.8455 45.3842 20.8455C46.6625 20.8455 47.4539 20.602 48.0018 20.0541C48.0627 19.9932 48.1235 19.9324 48.2453 19.8715C49.2801 19.141 49.9498 18.0453 50.9846 17.3148C52.4456 16.219 54.5154 15.9146 56.2807 16.3408C56.9504 16.4625 57.4373 16.7669 57.8026 17.3148C57.8635 17.4365 58.4722 18.654 58.3505 18.654C57.4982 18.8366 56.8286 19.0192 55.9155 19.2019C54.5762 19.6889 53.0544 19.9324 51.2281 20.2367ZM49.6454 29.3679C49.5236 27.42 54.0892 26.5068 55.3676 26.5677C57.4982 26.6895 58.1678 28.3939 56.646 29.7941C55.1241 31.3159 52.0195 32.3508 50.2541 30.5854C49.8889 30.1593 49.7063 29.7332 49.6454 29.3679Z" fill="#CC68A8" stroke="#221F1F" stroke-width="0.820712" stroke-miterlimit="10" stroke-linecap="round" stroke-linejoin="round"/>
<path d="M56.2806 25.5328C54.7588 25.4111 53.176 25.7763 51.8977 26.6286C51.4107 26.9938 50.9237 27.2982 50.6802 27.846C52.0803 26.9329 54.5153 26.5068 55.4284 26.5677C57.559 26.6894 58.2286 28.3939 56.7068 29.794C55.4284 31.0115 53.176 31.9246 51.4107 31.255C53.3587 33.5074 57.4373 31.742 58.7765 29.2462C59.8723 27.2982 58.3504 25.7154 56.2806 25.5328Z" fill="#CC68A8"/>
<path d="M42.584 20.115C43.3753 20.7237 44.3493 20.9672 45.3842 20.9672C46.6626 20.9672 47.4539 20.7237 48.0018 20.1759C48.0627 20.115 48.1235 20.0541 48.2453 19.9933C49.2802 19.2628 49.9498 18.167 50.9847 17.4365C52.4456 16.3408 54.5154 16.0364 56.2808 16.4625C56.9504 16.5843 57.4374 16.8886 57.8026 17.4365C57.8635 17.4974 57.9852 17.8018 58.107 18.1061C59.081 16.7669 55.7329 15.6712 54.8806 15.4277C53.0544 14.9407 51.4108 15.8538 49.7672 16.706C48.2453 17.4974 45.1407 18.8366 43.8015 16.8886C42.9492 15.6712 43.071 14.0884 43.6797 12.6883C43.3753 12.9318 43.071 13.2362 42.8275 13.5405C41.7317 14.758 41.1838 16.0973 41.1838 17.4365C41.1838 18.5931 41.6708 19.5063 42.584 20.115Z" fill="#CC68A8"/>
<path d="M69.0036 30.0376C68.5775 28.9418 68.3949 27.907 68.3949 26.933C68.3949 25.7155 68.3949 24.6197 68.3949 23.6457C68.3949 22.6717 68.3949 21.4542 68.3949 20.0541C68.3949 17.6191 67.9687 15.6103 67.1165 14.1493C66.2034 12.5665 64.7424 11.3491 62.6118 10.6794C61.9421 10.4359 61.1508 10.2533 60.2377 10.1316C61.8813 10.9229 63.4031 12.0187 64.3771 13.6014C66.6904 17.2539 66.0816 19.628 66.5686 25.3502C66.6904 26.6286 66.9339 28.3331 67.1774 29.6115C67.4209 30.8289 67.847 32.8378 66.6295 33.6901C65.8381 34.2988 64.4989 34.1162 63.7075 33.6901C63.4031 33.5074 61.029 31.4377 61.3943 31.0724C58.2897 34.0553 52.8109 35.5163 49.1585 35.3945C43.4362 35.2728 40.5751 29.9158 40.4534 25.8981C40.0881 26.7503 39.9055 27.6635 39.9055 28.6983C39.9055 30.1593 40.3925 31.5594 41.3056 32.7769C42.1579 33.9944 43.4362 34.9684 45.019 35.638C46.5409 36.3077 48.3671 36.612 50.3151 36.612C52.4457 36.612 54.3937 36.3077 56.0982 35.638C57.4983 35.151 58.8984 34.4205 60.3594 33.5683C60.9681 34.2988 61.5769 34.9075 62.1856 35.3945C63.0988 36.125 64.1336 36.5512 65.1076 36.4903C66.2642 36.4903 67.2382 36.125 68.1514 35.4554C69.4297 34.5423 69.6732 33.5074 69.6732 32.7769C69.7341 32.4117 69.6732 31.8029 69.0036 30.0376Z" fill="#CC68A8"/>
<path d="M54.1502 10.8012C50.9848 11.0447 45.9322 11.0447 44.1668 14.271C44.045 14.5145 44.2277 14.8189 44.532 14.6363C47.3323 12.4448 50.6804 11.7143 54.0894 11.0447C54.272 10.9838 54.3329 10.7403 54.1502 10.8012Z" fill="white"/>
<path d="M50.8022 21.4542C48.7324 21.576 46.7236 22.4891 44.9582 23.4631C43.2537 24.3762 42.2189 25.5328 41.671 27.2982C41.6101 27.5417 41.8536 27.5417 41.9754 27.4199C43.132 25.959 44.0451 24.8632 45.7496 23.8283C47.3323 22.8543 49.1586 22.6108 50.8631 21.9412C51.0457 21.8803 51.1674 21.4542 50.8022 21.4542Z" fill="white"/>
<path d="M53.6023 20.9063C53.1762 20.5411 52.6283 21.1498 52.2022 21.1498C52.0805 21.1498 51.9587 21.3324 52.0805 21.4542C52.3848 21.7586 53.1762 21.6977 53.4806 21.4542C53.6023 21.3324 53.785 21.0889 53.6023 20.9063Z" fill="white"/>
<path d="M9.22459 35.2728C9.83334 34.6031 10.503 33.4465 11.2335 31.6811L12.6944 28.2722L26.6347 28.2113L28.1566 31.5594C28.4001 32.0464 28.7045 32.6551 29.0697 33.3248C29.4959 34.0553 29.8611 34.664 30.2263 35.0293C30.6525 35.4554 31.1395 35.8206 31.7482 36.0641C32.357 36.3076 33.0266 36.4294 33.818 36.4294C35.1572 36.4294 36.3138 36.0033 37.2878 35.2119C38.5662 34.1161 38.8097 32.9595 38.8097 32.229C38.8097 31.3159 38.3836 30.0375 37.4704 28.2722L27.4261 7.57478C26.9391 6.53991 26.5739 5.68767 26.2086 5.07892C25.8434 4.34843 25.4173 3.73968 24.9303 3.13093C24.3824 2.46131 23.6519 1.91344 22.7388 1.48732C21.8256 1.06119 20.7908 0.878571 19.5124 0.878571C18.2949 0.878571 17.1992 1.12207 16.2861 1.54819C15.3729 1.97431 14.6424 2.52219 14.0946 3.25268C13.6076 3.86143 13.1206 4.6528 12.6944 5.62679L2.10226 28.5765C1.67614 29.4288 1.37176 30.1593 1.18914 30.6463C0.94564 31.255 0.884766 31.8638 0.884766 32.4116C0.884766 33.203 1.18914 34.3596 2.46751 35.3945C3.4415 36.1859 4.59812 36.5511 5.81561 36.5511C7.33748 36.5511 8.4941 36.125 9.22459 35.2728ZM17.3818 17.4365L19.5124 13.1144L21.7648 17.4365H17.3818Z" fill="#CB3092" stroke="#221F1F" stroke-width="0.820712" stroke-miterlimit="10" stroke-linecap="round" stroke-linejoin="round"/>
<path d="M19.3907 10.5576C19.5124 11.1664 19.5124 12.5056 19.5124 13.1144L21.7648 17.4365H17.6862C16.9557 17.7409 16.4078 18.167 16.1643 18.8975C18.7819 18.7149 21.3387 19.0801 23.9563 18.7757C22.8605 16.2799 20.9734 12.7491 19.3907 10.5576Z" fill="#E973AD"/>
<path d="M37.4703 28.2113L27.426 7.57478C26.939 6.53991 26.5738 5.68767 26.2085 5.07892C25.8433 4.34843 25.4172 3.73968 24.9302 3.13093C24.3823 2.46131 23.6518 1.91344 22.7387 1.48732C21.8256 1.06119 20.7907 0.878571 19.5123 0.878571C18.2948 0.878571 17.1991 1.12207 16.286 1.54819C16.0425 1.66994 15.8598 1.79169 15.6772 1.91344C16.8947 1.48732 18.2948 1.66994 19.695 2.76569C22.9822 5.3833 24.7475 9.64452 26.3912 13.3579C27.7913 16.5842 29.374 19.8106 30.9568 22.9761C32.1134 25.3502 34.244 28.2113 34.1222 30.9507C34.0005 32.8986 31.8699 32.716 30.7133 31.9246C28.8261 30.5854 28.3391 28.0287 27.1217 26.2024C27.0608 26.1416 27.0608 26.0198 27.0608 25.9589C21.5212 25.9589 15.9816 26.2633 10.442 26.2633C9.22451 29.1853 8.49401 34.8466 4.11104 34.2988C2.46742 34.1161 1.49343 32.9595 1.00643 31.5594C0.945557 31.8638 0.945557 32.1681 0.945557 32.4116C0.945557 33.203 1.24993 34.3596 2.5283 35.3945C3.50229 36.1859 4.65891 36.5511 5.8764 36.5511C7.39827 36.5511 8.49401 36.125 9.28538 35.2728C9.89413 34.6031 10.5638 33.4465 11.2942 31.6811L12.7552 28.2722L26.6955 28.2113L28.2174 31.5594C28.4609 32.0464 28.7653 32.6551 29.1305 33.3248C29.5566 34.0553 29.9219 34.664 30.2871 35.0293C30.7133 35.4554 31.2003 35.8206 31.809 36.0641C32.4178 36.3076 33.0874 36.4294 33.8787 36.4294C35.218 36.4294 36.3746 36.0033 37.3486 35.2119C38.627 34.1161 38.8705 32.9595 38.8705 32.229C38.8096 31.255 38.3835 29.9767 37.4703 28.2113Z" fill="#E973AD"/>
<path d="M16.7123 2.82655C13.3034 4.71367 12.2685 9.52277 10.7466 12.8709C9.65087 15.245 8.49426 17.6191 7.45939 20.0541C6.48539 22.3064 5.32877 24.6197 4.7809 26.9938C4.65915 27.4199 5.2679 27.2373 5.38965 26.9938C7.27676 22.8543 8.92038 18.5322 10.8684 14.3927C11.8424 12.323 12.6946 10.3141 13.6077 8.18352C14.46 6.17466 15.7383 4.71367 16.9558 2.9483C17.0167 2.82655 16.895 2.76568 16.7123 2.82655Z" fill="white"/>
<path d="M4.11094 28.394C3.74569 28.9418 3.44131 29.6114 3.19782 30.2202C2.95432 30.7681 3.80656 30.7681 3.92831 30.3419C4.11094 29.7332 4.35443 29.0636 4.41531 28.394C4.35443 28.2722 4.17181 28.2722 4.11094 28.394Z" fill="white"/>
</svg>
