<svg width="222" height="173" viewBox="0 0 222 173" fill="none" xmlns="http://www.w3.org/2000/svg">
<path d="M207.416 51.8353C203.916 37.5353 189.516 28.8353 175.316 32.3353C171.316 33.3353 167.816 35.1353 164.816 37.5353C155.716 14.3353 131.516 -0.16466 106.216 3.23534C94.616 4.83534 83.216 7.53534 72.116 11.4353C47.616 20.1353 32.516 44.2353 35.016 69.3353C31.216 68.5353 27.216 68.5353 23.316 69.5353C9.01602 73.0353 0.31602 87.4353 3.81602 101.635C7.31602 115.935 21.716 124.635 35.916 121.135C43.216 119.335 49.016 114.735 52.516 108.735C57.916 113.735 64.616 117.035 71.816 118.335C71.116 120.735 70.716 123.335 70.716 125.935C70.716 144.535 90.316 159.635 114.416 159.635C138.516 159.635 158.116 144.535 158.116 125.935C158.116 117.035 153.616 108.935 146.316 102.935C146.716 102.735 147.016 102.635 147.416 102.435C156.916 97.9353 163.916 90.0353 167.416 80.5353C173.316 84.2353 180.616 85.7353 187.916 83.9353C202.216 80.4353 210.916 66.1353 207.416 51.8353Z" fill="#C9ADB5"/>
<path d="M29.616 124.335C24.416 124.335 19.216 122.935 14.616 120.135C8.01601 116.135 3.31601 109.735 1.51601 102.235C-2.28399 86.7354 7.21601 71.0354 22.716 67.2354C25.916 66.4354 29.216 66.2354 32.416 66.5354C31.916 54.8354 35.016 42.9354 41.416 32.9354C48.416 21.9354 59.016 13.5354 71.316 9.23537C82.516 5.33537 94.116 2.53537 105.816 0.935366C118.516 -0.764634 131.616 1.83537 142.716 8.43537C152.816 14.4354 160.916 23.3354 165.716 33.9354C168.416 32.1354 171.416 30.9354 174.616 30.1354C182.116 28.3354 189.916 29.5354 196.516 33.5354C203.116 37.5354 207.816 43.9354 209.616 51.4354C213.416 66.9354 203.916 82.6354 188.416 86.4354C181.616 88.1354 174.616 87.3354 168.516 84.1354C164.516 93.2354 157.416 100.535 148.416 104.735C147.216 105.335 145.816 104.735 145.216 103.635C144.616 102.435 145.216 101.035 146.316 100.435C155.116 96.3354 161.716 89.0354 165.016 79.9354C165.216 79.2354 165.816 78.7354 166.516 78.5354C167.216 78.3354 167.916 78.4354 168.516 78.7354C174.116 82.3354 180.816 83.3354 187.216 81.8354C200.216 78.6354 208.116 65.5354 204.916 52.5354C203.416 46.2354 199.516 40.9354 193.916 37.6354C188.416 34.2354 181.916 33.3354 175.616 34.8354C172.116 35.7354 168.916 37.3354 166.116 39.5354C165.516 40.0354 164.716 40.2354 164.016 40.0354C163.316 39.8354 162.716 39.3354 162.416 38.6354C158.216 27.8354 150.316 18.6354 140.216 12.6354C130.016 6.63536 118.016 4.23536 106.416 5.83536C95.016 7.33536 83.716 10.1354 72.816 13.9354C61.716 17.7354 51.916 25.4354 45.516 35.5354C39.116 45.5354 36.316 57.4354 37.516 69.1354C37.616 69.9354 37.316 70.6354 36.716 71.1354C36.116 71.6354 35.416 71.8354 34.616 71.7354C31.116 71.0354 27.516 71.0354 23.916 71.9354C10.916 75.1354 3.01601 88.2354 6.21601 101.235C7.71601 107.535 11.616 112.835 17.216 116.135C22.716 119.535 29.216 120.535 35.516 118.935C41.916 117.335 47.316 113.335 50.616 107.635C51.016 107.035 51.616 106.635 52.316 106.535C53.016 106.435 53.716 106.635 54.316 107.135C61.316 113.635 70.316 116.935 79.716 116.635C81.016 116.535 82.116 117.635 82.216 118.935C82.216 120.235 81.216 121.335 79.916 121.435C70.116 121.835 60.816 118.635 53.216 112.535C49.216 118.035 43.416 121.935 36.716 123.635C34.216 124.035 31.916 124.335 29.616 124.335Z" fill="#AB8D96"/>
<path d="M133.016 85.1354C117.616 92.1354 101.516 96.0354 84.6159 96.9354C74.2159 97.4354 64.6159 92.3354 60.016 83.8354C57.616 79.4354 55.716 74.8354 54.516 70.0354C49.616 51.4354 61.1159 32.1354 80.6159 25.4354C88.5159 22.7354 96.6159 20.7354 104.916 19.5354C124.616 16.7354 143.216 28.2354 147.616 46.2354C148.816 51.1354 149.416 56.1354 149.316 61.3354C149.216 71.4354 142.916 80.7354 133.016 85.1354Z" fill="#F5E9C1"/>
<path d="M30.4255 105.363C35.6278 104.085 38.8089 98.8311 37.5307 93.6287C36.2525 88.4264 30.999 85.2453 25.7966 86.5235C20.5943 87.8017 17.4132 93.0552 18.6914 98.2576C19.9696 103.46 25.2231 106.641 30.4255 105.363Z" fill="#AB8D96"/>
<path d="M63.016 63.1354C62.616 63.1354 62.216 63.0354 61.816 62.8354C60.716 62.1354 60.316 60.7354 61.016 59.5354C62.916 56.4354 65.916 54.2354 69.416 53.3354C72.916 52.4354 76.616 53.0354 79.716 54.9354C80.816 55.6354 81.216 57.0354 80.516 58.2354C79.816 59.3354 78.416 59.7354 77.216 59.0354C75.216 57.8354 72.816 57.4354 70.516 58.0354C68.216 58.6354 66.316 60.0354 65.016 62.0354C64.616 62.7354 63.816 63.1354 63.016 63.1354Z" fill="#5F5C5D"/>
<path d="M120.616 49.0354C120.216 49.0354 119.816 48.9354 119.416 48.7354C118.316 48.0354 117.916 46.6354 118.616 45.4354C122.516 39.0354 130.916 36.9354 137.316 40.8354C138.416 41.5354 138.816 42.9354 138.116 44.1354C137.416 45.2354 136.016 45.6354 134.816 44.9354C130.616 42.4354 125.216 43.7354 122.616 47.9354C122.216 48.6354 121.416 49.0354 120.616 49.0354Z" fill="#5F5C5D"/>
<path d="M87.616 62.1354C89.116 68.4354 96.516 72.0354 104.016 70.1354C111.516 68.3354 116.416 61.7354 114.916 55.4354C113.416 49.1354 107.216 50.4354 99.716 52.3354C92.116 54.1354 86.016 55.8354 87.616 62.1354Z" fill="white"/>
<path d="M100.116 73.0354C93.016 73.0354 86.816 68.9354 85.316 62.7354C84.416 58.8354 85.616 55.7354 89.016 53.5354C91.516 51.9354 95.116 50.9354 99.216 49.9354C103.316 48.9354 106.916 48.1354 109.816 48.4354C113.716 48.7354 116.316 51.0354 117.316 54.8354C119.116 62.3354 113.516 70.2354 104.716 72.4354C103.116 72.8354 101.516 73.0354 100.116 73.0354ZM108.616 53.1354C106.816 53.1354 104.116 53.6354 100.216 54.5354C91.116 56.7354 89.116 58.1354 89.916 61.5354C91.116 66.5354 97.216 69.3354 103.516 67.8354C109.816 66.3354 113.916 61.0354 112.616 56.0354C112.116 54.1354 111.116 53.1354 108.616 53.1354Z" fill="#5F5C5D"/>
<path d="M160.216 32.0353C165.616 24.6353 179.316 21.8353 193.316 31.1353C206.916 39.8353 220.816 60.7353 218.816 86.3353C217.916 111.935 201.816 131.135 187.316 138.335C172.416 146.035 159.116 141.735 154.516 133.735C144.816 116.835 163.216 106.535 164.416 83.3353C165.816 60.0353 148.716 47.8353 160.216 32.0353Z" fill="#FFFFA1"/>
<path d="M168.616 129.135C167.816 129.135 167.016 128.735 166.616 127.935C165.916 126.835 166.316 125.335 167.416 124.635C167.516 124.635 175.116 120.035 182.416 111.735C192.116 100.835 196.916 89.1353 196.516 76.8353C196.016 60.3353 187.016 49.2353 179.416 42.8353C178.416 41.9353 178.316 40.4353 179.116 39.4353C180.016 38.4353 181.516 38.3353 182.516 39.1353C190.816 46.1353 200.716 58.3353 201.216 76.6353C201.616 90.0353 196.216 103.335 185.816 115.035C178.016 123.735 170.116 128.535 169.816 128.735C169.416 129.035 169.016 129.135 168.616 129.135Z" fill="#FFE4A9"/>
<path d="M176.216 75.9353C176.416 78.0353 174.816 79.9353 172.716 80.1353C170.616 80.3353 168.616 78.8353 168.416 76.7353C168.216 74.6353 169.816 72.7353 171.916 72.5353C174.016 72.3353 175.916 73.8353 176.216 75.9353Z" fill="#5F5C5D"/>
<path d="M203.016 73.3354C203.216 75.4354 201.616 77.3354 199.516 77.5354C197.416 77.7354 195.416 76.2354 195.216 74.1354C195.016 72.0354 196.616 70.1354 198.716 69.9354C200.916 69.6354 202.816 71.2354 203.016 73.3354Z" fill="#5F5C5D"/>
<path d="M171.916 144.735C169.916 144.735 168.116 144.535 166.616 144.235C160.316 143.035 155.216 139.635 152.516 134.935C146.316 124.135 150.516 115.635 154.816 106.535C158.016 100.035 161.516 92.6353 162.016 83.1353C162.616 73.6353 159.916 65.8353 157.416 59.0353C154.116 49.5353 150.916 40.6353 158.216 30.6353C161.416 26.2353 166.916 23.4353 173.316 22.9353C178.216 22.5353 185.816 23.3353 194.516 29.1353C208.816 38.2353 223.216 60.0353 221.116 86.4353C220.216 112.835 203.516 132.935 188.316 140.435C182.016 143.735 176.416 144.735 171.916 144.735ZM162.116 33.4353C156.316 41.4353 158.616 48.1353 161.916 57.4353C164.516 64.7353 167.416 72.9353 166.716 83.3353C166.216 93.7353 162.416 101.635 159.016 108.535C154.716 117.435 151.616 123.835 156.516 132.435C160.716 139.635 172.916 142.935 186.116 136.035C200.116 129.135 215.516 110.635 216.316 86.1353V86.0353C218.216 61.6353 205.016 41.4353 191.916 33.0353C182.216 26.6353 168.416 24.9353 162.116 33.4353Z" fill="#F9CB71"/>
<path d="M165.316 44.1353C161.916 44.1353 158.816 42.6353 156.716 39.8353L148.216 28.5353C146.916 26.8353 146.316 24.6353 146.616 22.4353C146.916 20.2353 148.016 18.3353 149.816 17.0353C152.516 14.9353 156.316 14.8353 159.216 16.7353L171.116 24.4353C173.616 26.0353 175.316 28.6353 175.816 31.4353C176.316 34.3353 175.616 37.3353 173.916 39.6353C172.016 42.2353 169.216 43.7353 166.116 43.9353C165.816 44.0353 165.616 44.1353 165.316 44.1353Z" fill="#5F5C5D"/>
<path d="M182.916 77.8353C181.516 77.9353 180.516 79.1353 180.716 80.5353C181.516 84.7353 183.816 87.6353 186.316 87.5353C188.816 87.4353 190.816 84.2353 191.216 80.0353C191.316 78.6353 190.216 77.5353 188.816 77.5353L182.916 77.8353Z" fill="#E27FA3"/>
<path d="M186.116 89.9353C182.516 89.9353 179.416 86.3353 178.316 80.9353C178.016 79.6353 178.416 78.2353 179.216 77.2353C180.016 76.1353 181.316 75.5353 182.716 75.4353L188.716 75.1353C190.116 75.0353 191.416 75.6353 192.316 76.6353C193.216 77.6353 193.716 78.9353 193.516 80.2353C192.916 85.8353 190.016 89.7353 186.316 89.8353C186.316 89.9353 186.216 89.9353 186.116 89.9353ZM183.116 80.2353C183.816 83.4353 185.316 85.2353 186.216 85.1353C187.016 85.1353 188.516 83.2353 188.816 79.9353L183.116 80.2353Z" fill="#5F5C5D"/>
<path d="M190.516 96.1354C194.316 94.8354 198.416 94.9354 202.716 96.3354C206.816 97.7354 210.116 100.035 212.416 103.235C214.716 106.435 216.116 110.435 216.416 115.135C216.716 119.835 216.016 124.835 214.216 130.435C212.816 134.835 210.816 138.935 208.316 142.635C205.816 146.335 202.916 149.335 199.716 151.535C198.416 152.435 197.216 152.935 196.116 153.035C195.016 153.235 193.716 153.035 192.316 152.635C190.216 151.935 188.616 150.835 187.516 149.135C186.416 147.535 186.116 145.835 186.716 144.135C187.016 143.135 187.416 142.335 188.016 141.735C188.516 141.135 189.416 140.235 190.516 139.135C190.716 138.935 191.016 138.635 191.316 138.335C191.616 138.035 191.916 137.635 192.316 137.235C194.116 135.435 195.616 133.735 196.716 132.135C197.816 130.635 198.816 128.735 199.516 126.535C200.716 122.735 201.016 119.835 200.316 117.735C199.616 115.635 197.816 114.135 195.016 113.235C192.316 112.335 190.216 112.635 188.516 113.935C186.816 115.235 185.316 117.835 184.016 121.735L181.916 128.035C181.216 130.035 180.016 131.435 178.216 132.135C176.416 132.835 174.516 132.835 172.516 132.235C170.516 131.635 169.016 130.435 168.016 128.835C166.916 127.235 166.816 125.335 167.416 123.335L168.916 118.835C170.116 115.135 170.516 112.235 169.916 110.135C169.416 108.035 167.916 106.635 165.516 105.935C163.016 105.135 160.816 105.235 158.916 106.235C157.016 107.235 155.616 109.135 154.816 111.735C154.216 113.635 153.916 115.535 154.016 117.435C154.116 119.335 154.316 121.435 154.616 123.835L154.916 126.335C155.216 127.835 155.316 129.035 155.416 129.835C155.516 130.635 155.316 131.535 155.016 132.535C154.416 134.235 153.216 135.435 151.416 136.135C149.616 136.835 147.616 136.835 145.516 136.135C144.116 135.635 143.016 135.035 142.216 134.235C141.416 133.435 140.816 132.335 140.216 130.935C139.016 127.335 138.416 123.335 138.516 118.935C138.616 114.535 139.316 110.335 140.616 106.235C142.216 101.235 144.516 97.0354 147.416 93.7354C150.316 90.4354 153.616 88.2354 157.216 87.1354C160.916 86.0354 164.716 86.1354 168.616 87.4354C172.316 88.6354 175.316 90.7354 177.516 93.5354C179.716 96.4354 180.916 99.7354 181.016 103.635C183.616 99.9354 186.716 97.4354 190.516 96.1354Z" fill="#95E0E8"/>
<path d="M195.216 155.435C194.116 155.435 192.916 155.235 191.616 154.835C189.016 153.935 186.916 152.535 185.616 150.435C184.116 148.235 183.716 145.735 184.516 143.335C184.916 142.135 185.516 141.035 186.216 140.135C186.816 139.435 187.716 138.535 188.816 137.435C189.016 137.235 189.216 137.035 189.516 136.735C189.816 136.435 190.116 136.035 190.416 135.635L190.516 135.535C192.216 133.835 193.616 132.235 194.716 130.735C195.716 129.435 196.516 127.735 197.116 125.835C198.416 121.735 198.316 119.535 197.916 118.535C197.716 118.035 197.316 116.535 194.116 115.535C191.616 114.735 190.416 115.335 189.716 115.835C188.816 116.535 187.416 118.235 186.016 122.535L183.916 128.835C183.016 131.535 181.216 133.435 178.816 134.435C176.516 135.335 174.016 135.335 171.516 134.535C169.016 133.735 167.116 132.235 165.716 130.135C164.316 127.935 164.016 125.335 164.916 122.635L166.416 118.135C167.716 114.035 167.716 111.835 167.416 110.735C167.216 109.935 166.716 108.835 164.616 108.135C162.716 107.535 161.216 107.535 159.916 108.335C158.616 109.035 157.616 110.435 156.916 112.535C156.416 114.135 156.116 115.835 156.216 117.335C156.316 119.135 156.516 121.135 156.816 123.435L157.116 125.835C157.416 127.435 157.516 128.635 157.616 129.535C157.716 130.735 157.516 131.935 157.116 133.135C156.316 135.535 154.616 137.235 152.116 138.235C149.816 139.135 147.216 139.135 144.616 138.235C142.816 137.635 141.416 136.835 140.316 135.835C139.216 134.835 138.416 133.335 137.816 131.535C136.516 127.635 135.916 123.335 135.916 118.735C136.016 114.135 136.716 109.635 138.116 105.335C139.816 100.035 142.316 95.5354 145.416 92.0354C148.616 88.4354 152.316 85.9354 156.316 84.7354C160.416 83.5354 164.816 83.6354 169.116 85.0354C173.316 86.4354 176.716 88.7354 179.216 91.9354C180.616 93.8354 181.716 95.8354 182.416 98.1354C184.516 96.2354 186.916 94.8354 189.516 93.9354C193.816 92.5354 198.416 92.5354 203.216 94.1354C207.816 95.6354 211.516 98.2354 214.116 101.935C216.716 105.535 218.216 109.935 218.516 115.035C218.816 119.935 218.116 125.435 216.216 131.235C214.716 135.835 212.616 140.135 210.016 144.035C207.316 147.935 204.216 151.135 200.816 153.535C199.216 154.635 197.716 155.235 196.116 155.435C196.016 155.435 195.616 155.435 195.216 155.435ZM194.016 138.835C193.616 139.235 193.316 139.635 193.016 139.935C192.716 140.235 192.416 140.535 192.216 140.835C191.116 141.835 190.316 142.735 189.916 143.235C189.616 143.635 189.316 144.135 189.116 144.835C188.816 145.835 188.916 146.735 189.616 147.735C190.416 148.935 191.516 149.735 193.116 150.235C194.116 150.535 195.016 150.635 195.816 150.535C196.616 150.435 197.416 150.035 198.416 149.435C201.416 147.335 204.116 144.535 206.416 141.135C208.816 137.635 210.716 133.735 212.016 129.535C213.716 124.335 214.416 119.535 214.116 115.135C213.816 110.935 212.616 107.335 210.616 104.535C208.616 101.735 205.816 99.7354 202.116 98.5354C198.216 97.2354 194.716 97.2354 191.416 98.3354C188.116 99.4354 185.416 101.535 183.216 104.835C182.616 105.735 181.616 106.035 180.616 105.835C179.616 105.535 178.916 104.635 178.916 103.635C178.816 100.235 177.816 97.3354 175.916 94.8354C174.016 92.3354 171.516 90.6354 168.216 89.5354C164.716 88.4354 161.416 88.3354 158.216 89.2354C155.016 90.2354 152.116 92.1354 149.516 95.1354C146.816 98.2354 144.716 102.135 143.216 106.835C141.916 110.635 141.316 114.735 141.216 118.835C141.116 122.935 141.716 126.735 142.816 130.035C143.216 131.135 143.616 131.935 144.216 132.435C144.716 132.935 145.516 133.435 146.616 133.735C148.216 134.235 149.616 134.235 151.016 133.735C152.216 133.335 152.816 132.635 153.216 131.635C153.416 130.935 153.516 130.335 153.516 129.835C153.416 129.035 153.316 127.935 153.016 126.535V126.435L152.716 123.935C152.316 121.535 152.116 119.235 152.016 117.335C151.916 115.235 152.216 113.035 152.916 110.835C154.016 107.635 155.716 105.335 158.116 103.935C160.616 102.535 163.416 102.435 166.616 103.435C170.616 104.735 172.016 107.335 172.516 109.335C173.216 111.835 172.816 115.135 171.416 119.335L169.916 123.835C169.516 125.235 169.616 126.335 170.216 127.335C171.016 128.535 172.016 129.335 173.516 129.735C175.016 130.235 176.316 130.235 177.616 129.735C178.716 129.335 179.516 128.435 179.916 127.135L182.016 120.835C183.416 116.435 185.216 113.535 187.316 111.935C188.916 110.635 191.816 109.435 196.016 110.835C199.616 112.035 201.916 114.035 202.816 116.835C203.716 119.435 203.416 122.835 202.016 127.135C201.216 129.535 200.216 131.635 198.916 133.435C197.416 135.235 195.916 136.935 194.016 138.835Z" fill="#63D3D6"/>
<path d="M158.916 80.7354C154.616 81.7354 151.416 84.0354 152.316 88.3354C153.316 92.6354 157.616 95.4354 161.916 94.4354C166.216 93.4354 169.016 89.1354 168.016 84.8354C167.116 80.5354 163.216 79.7354 158.916 80.7354Z" fill="#FFFFA1"/>
<path d="M160.116 97.0354C158.116 97.0354 156.216 96.4354 154.516 95.4354C152.116 93.9354 150.516 91.6354 149.916 88.9354C149.316 86.1354 149.916 83.6354 151.816 81.6354C153.316 80.1354 155.416 79.0354 158.316 78.4354C161.116 77.8354 163.516 77.8354 165.516 78.6354C168.016 79.5354 169.716 81.5354 170.316 84.4354C171.616 90.0354 168.016 95.6354 162.416 96.9354C161.716 96.9354 160.916 97.0354 160.116 97.0354ZM162.016 82.7354C161.216 82.7354 160.316 82.8354 159.416 83.0354C157.516 83.4354 156.116 84.1354 155.316 84.9354C154.816 85.4354 154.316 86.2354 154.616 87.8354C154.916 89.3354 155.816 90.5354 157.116 91.4354C158.416 92.2354 159.916 92.5354 161.416 92.1354C164.516 91.4354 166.416 88.4354 165.716 85.3354C165.316 83.7354 164.516 83.2354 163.916 83.0354C163.416 82.8354 162.716 82.7354 162.016 82.7354Z" fill="#F9CB71"/>
<path d="M203.316 89.7354C199.116 88.2354 195.216 88.5354 193.716 92.7354C192.216 96.9354 194.516 101.535 198.716 103.035C202.916 104.535 207.516 102.235 209.016 98.0354C210.416 93.8354 207.516 91.1354 203.316 89.7354Z" fill="#FFFFA1"/>
<path d="M201.316 105.835C200.116 105.835 199.016 105.635 197.916 105.235C192.516 103.335 189.616 97.4353 191.416 91.9353C193.116 86.9353 197.816 85.2354 204.016 87.4354C210.216 89.5354 212.816 93.8354 211.116 98.8354C210.216 101.435 208.316 103.635 205.816 104.835C204.416 105.535 202.916 105.835 201.316 105.835ZM199.216 91.3354C196.816 91.3354 196.216 92.9354 196.016 93.5354C195.016 96.5354 196.516 99.7353 199.516 100.735C200.916 101.235 202.516 101.135 203.816 100.435C205.216 99.7353 206.216 98.6354 206.716 97.1354C207.016 96.2354 207.916 93.7354 202.516 91.8354C201.116 91.5354 200.016 91.3354 199.216 91.3354Z" fill="#F9CB71"/>
<path d="M102.516 158.735C103.416 160.435 103.516 162.535 102.516 164.935C100.616 169.835 96.8161 171.235 90.9161 169.035L56.1161 155.735C50.3161 153.535 48.3161 149.935 50.2161 144.935C51.1161 142.535 52.5161 141.035 54.4161 140.335C56.3161 139.635 58.7161 139.935 61.7161 141.035L69.8161 144.135L83.7161 107.935L73.9161 109.535C72.5161 109.735 71.2161 109.635 70.0161 109.235C68.1161 108.535 66.8161 107.135 66.1161 104.935C65.4161 102.835 65.4161 100.735 66.2161 98.7354C67.3161 96.0354 69.2161 94.3354 72.1161 93.8354L91.7161 90.6354C95.3161 90.1354 98.4161 90.3354 101.016 91.3354C103.716 92.3354 105.516 94.0354 106.516 96.2354C107.516 98.4354 107.516 100.935 106.516 103.735L88.3161 151.235L96.5161 154.435C99.6161 155.535 101.516 157.035 102.516 158.735Z" fill="#A3D676"/>
<path d="M95.816 172.435C94.216 172.435 92.316 172.035 90.116 171.235L55.316 157.935C45.816 154.335 46.716 147.735 48.116 144.135C49.316 141.035 51.216 139.035 53.716 138.135C56.116 137.235 59.116 137.535 62.716 138.935L68.616 141.235L80.116 111.135L74.416 112.135C72.616 112.435 70.916 112.235 69.316 111.635C66.816 110.635 64.916 108.635 64.016 105.835C63.116 103.135 63.216 100.535 64.116 98.0354C65.416 94.5354 68.116 92.3354 71.816 91.6354L91.416 88.4354C95.416 87.8354 98.916 88.1354 101.916 89.2354C105.216 90.5354 107.516 92.5354 108.816 95.3354C110.116 98.1354 110.116 101.335 108.816 104.635L91.416 149.935L97.416 152.235C101.016 153.635 103.316 155.435 104.616 157.635C105.916 160.035 105.916 162.735 104.816 165.835C103.716 168.535 101.216 172.435 95.816 172.435ZM56.716 142.335C56.116 142.335 55.616 142.435 55.216 142.535C54.016 142.935 53.116 144.035 52.416 145.735C50.716 150.335 53.516 152.135 56.916 153.435L91.716 166.735C97.416 168.935 99.216 166.735 100.216 164.035C100.916 162.335 100.916 160.935 100.316 159.835C99.616 158.635 98.016 157.535 95.616 156.535L87.416 153.435C86.816 153.235 86.316 152.735 86.116 152.135C85.816 151.535 85.816 150.935 86.116 150.335L104.316 102.835C105.116 100.735 105.216 98.8354 104.416 97.2354C103.616 95.5354 102.316 94.3354 100.216 93.5354C98.016 92.7354 95.316 92.5354 92.116 92.9354L72.516 96.1354C70.516 96.5354 69.216 97.5354 68.516 99.5354C67.916 101.035 67.916 102.535 68.416 104.135C68.916 105.635 69.716 106.535 70.916 106.935C71.716 107.235 72.616 107.335 73.516 107.135L83.316 105.535C84.116 105.435 85.016 105.735 85.516 106.335C86.016 107.035 86.216 107.935 85.916 108.735L72.016 144.935C71.816 145.535 71.316 146.035 70.716 146.235C70.116 146.535 69.516 146.535 68.916 146.235L60.816 143.135C59.316 142.635 57.916 142.335 56.716 142.335Z" fill="#87B758"/>
<path d="M69.816 121.735C65.616 126.835 63.916 132.335 69.016 136.635C74.116 140.835 81.616 140.235 85.816 135.135C90.016 130.035 89.416 122.535 84.316 118.335C79.216 114.135 74.116 116.635 69.816 121.735Z" fill="#C9ADB5"/>
<path d="M76.616 141.735C73.216 141.735 70.016 140.535 67.416 138.435C64.416 135.935 63.116 132.735 63.516 129.235C63.816 126.335 65.316 123.335 67.916 120.235C70.516 117.135 73.216 115.135 76.016 114.235C79.416 113.235 82.816 113.935 85.816 116.435C91.916 121.535 92.716 130.535 87.616 136.635C85.116 139.535 81.716 141.335 77.916 141.735C77.516 141.735 77.116 141.735 76.616 141.735ZM79.116 118.535C78.616 118.535 78.116 118.635 77.516 118.735C75.716 119.335 73.716 120.835 71.716 123.235C69.716 125.635 68.616 127.835 68.316 129.735C68.116 131.735 68.816 133.235 70.516 134.735C72.516 136.335 74.916 137.135 77.516 136.935C80.016 136.735 82.416 135.535 84.016 133.535C87.416 129.535 86.916 123.435 82.816 120.035C81.616 119.035 80.316 118.535 79.116 118.535Z" fill="#AB8D96"/>
<path d="M152.916 151.535C154.616 152.635 155.516 154.535 155.816 157.135C156.116 159.835 155.516 161.935 154.116 163.335C152.716 164.735 150.416 165.635 147.316 165.935L108.316 169.835C105.716 170.135 103.616 169.535 102.016 168.135C100.416 166.735 99.416 164.935 99.216 162.535C98.916 159.435 99.816 156.535 102.016 153.835L122.316 128.035C126.516 122.635 128.416 117.935 128.016 113.735C127.816 111.335 126.916 109.535 125.416 108.435C123.916 107.335 121.816 106.835 119.316 107.135C117.216 107.335 115.416 107.835 113.716 108.635C112.016 109.435 110.116 110.535 107.916 111.835L105.916 113.135C105.616 113.335 105.116 113.635 104.316 114.235C103.516 114.735 102.816 115.235 102.216 115.435C101.616 115.735 100.916 115.935 100.216 115.935C98.416 116.135 96.816 115.435 95.516 113.935C94.116 112.435 93.316 110.635 93.116 108.435C92.916 106.835 93.016 105.535 93.416 104.535C93.816 103.535 94.516 102.435 95.716 101.535C98.816 98.9353 102.416 96.7353 106.416 95.0353C110.416 93.3353 114.516 92.3353 118.516 91.9353C123.816 91.4353 128.516 91.8353 132.616 93.1353C136.816 94.5353 140.116 96.6353 142.616 99.7353C145.116 102.735 146.516 106.335 147.016 110.535C147.416 114.835 146.916 118.935 145.616 122.735C144.216 126.535 141.616 130.835 137.916 135.635L124.316 152.635L145.816 150.535C148.916 150.035 151.316 150.435 152.916 151.535Z" fill="#E27FA3"/>
<path d="M107.216 172.235C104.616 172.235 102.316 171.435 100.516 169.935C98.416 168.135 97.116 165.735 96.816 162.735C96.416 159.035 97.616 155.535 100.116 152.335L120.416 126.535C124.216 121.635 126.016 117.435 125.616 113.935C125.416 112.235 124.916 110.935 123.916 110.235C122.916 109.435 121.416 109.135 119.516 109.335C117.716 109.535 116.116 109.935 114.616 110.635C113.016 111.335 111.216 112.435 109.116 113.735L107.116 115.035C107.016 115.135 106.616 115.335 105.616 116.035C104.716 116.635 103.916 117.135 103.116 117.535C102.316 117.935 101.316 118.135 100.416 118.235C97.916 118.535 95.616 117.535 93.716 115.535C92.016 113.635 91.016 111.335 90.716 108.635C90.516 106.735 90.716 105.135 91.116 103.735C91.616 102.235 92.616 100.935 94.216 99.6354C97.516 96.9354 101.316 94.6354 105.516 92.8354C109.716 91.0354 114.116 89.9354 118.316 89.5354C123.916 89.0354 129.016 89.4353 133.416 90.9353C138.016 92.4353 141.716 94.8353 144.516 98.2353C147.316 101.635 148.916 105.735 149.416 110.335C149.916 115.035 149.316 119.435 147.816 123.535C146.316 127.535 143.616 132.035 139.716 137.035L129.716 149.535L145.516 147.935C149.216 147.535 152.116 148.035 154.216 149.535C156.516 151.035 157.816 153.535 158.116 156.835C158.416 160.235 157.616 163.035 155.716 164.935C153.916 166.735 151.116 167.935 147.416 168.235L108.416 172.135C108.116 172.235 107.616 172.235 107.216 172.235ZM120.616 104.635C123.116 104.635 125.216 105.235 126.816 106.535C128.916 108.135 130.116 110.435 130.416 113.535C130.916 118.235 128.816 123.635 124.216 129.535L103.916 155.335C102.116 157.635 101.316 159.835 101.616 162.335C101.816 164.035 102.416 165.335 103.616 166.335C104.716 167.335 106.216 167.635 108.216 167.435L147.216 163.535C149.716 163.235 151.516 162.635 152.516 161.635C153.416 160.735 153.716 159.335 153.516 157.335C153.316 155.435 152.716 154.135 151.716 153.535C150.516 152.735 148.616 152.535 146.116 152.735L124.616 154.835C123.616 154.935 122.716 154.435 122.316 153.635C121.816 152.835 121.916 151.735 122.516 151.035L136.116 134.035C139.716 129.435 142.216 125.335 143.516 121.835C144.816 118.435 145.216 114.735 144.816 110.735C144.416 106.935 143.216 103.835 141.016 101.135C138.816 98.4354 135.816 96.5354 132.116 95.3354C128.316 94.1354 123.816 93.7353 118.916 94.2353C115.116 94.6353 111.216 95.6353 107.416 97.2353C103.616 98.8353 100.216 100.835 97.316 103.335C96.416 104.035 95.916 104.735 95.716 105.335C95.516 106.035 95.416 107.035 95.516 108.235C95.716 109.935 96.216 111.335 97.316 112.435C98.416 113.635 99.316 113.735 100.016 113.635C100.516 113.635 100.916 113.435 101.316 113.335C101.816 113.135 102.316 112.735 103.016 112.335C103.816 111.735 104.316 111.435 104.716 111.235L106.716 109.935C108.916 108.535 111.016 107.435 112.716 106.535C114.616 105.635 116.816 105.035 119.116 104.835C119.616 104.635 120.116 104.635 120.616 104.635Z" fill="#DD528B"/>
<path d="M141.916 92.2354C137.916 87.0354 132.816 84.1354 127.616 88.1354C122.416 92.1354 121.416 99.6354 125.416 104.935C129.416 110.135 136.916 111.135 142.216 107.135C147.316 103.135 145.916 97.4354 141.916 92.2354Z" fill="#C9ADB5"/>
<path d="M134.816 111.935C130.516 111.935 126.216 110.035 123.416 106.335C118.616 100.035 119.816 91.0354 126.116 86.2354C129.216 83.8354 132.616 83.2354 136.016 84.4354C138.716 85.4354 141.316 87.5354 143.816 90.7354C146.316 93.9354 147.616 97.0354 147.816 99.9354C148.116 103.535 146.616 106.635 143.516 109.035C140.916 111.035 137.816 111.935 134.816 111.935ZM132.616 88.6354C131.416 88.6354 130.216 89.1354 129.016 90.0354C124.816 93.2354 124.016 99.2354 127.216 103.435C130.416 107.635 136.416 108.435 140.616 105.235C142.416 103.835 143.216 102.235 143.116 100.335C143.016 98.4354 141.916 96.1354 140.016 93.6354C138.116 91.2354 136.216 89.5354 134.416 88.9354C133.816 88.7354 133.216 88.6354 132.616 88.6354Z" fill="#AB8D96"/>
</svg>
