<svg width="45" height="55" viewBox="0 0 45 55" fill="none" xmlns="http://www.w3.org/2000/svg">
<path d="M43.152 20.2L4.552 0.899998C3.952 0.599998 3.152 0.600004 2.552 1C1.952 1.4 1.552 2.00002 1.552 2.70002V15.2C1.552 16 2.05195 16.7 2.75195 17L25.652 27.3L2.75195 37.7C2.05195 38 1.552 38.8 1.552 39.5V52.1C1.552 52.8 1.952 53.5 2.552 53.8C2.852 54 3.25198 54.1 3.65198 54.1C3.95198 54.1 4.252 54 4.552 53.9L43.152 34.4C43.852 34.1 44.252 33.4 44.252 32.6V21.9C44.252 21.2 43.852 20.5 43.152 20.2Z" fill="#00B9F1" stroke="#221F1F" stroke-width="1.3482" stroke-miterlimit="10" stroke-linecap="round" stroke-linejoin="round"/>
<path d="M17.7518 20.9C14.6518 19.3 11.4518 17.8 8.25183 16.3C5.15183 14.8 2.85186 13.1 1.65186 10.8V15.2C1.65186 16 2.15187 16.7 2.85187 17L25.7518 27.3C26.8518 27.1 28.0518 26.8 28.9518 26.2C25.8518 24.2 20.9518 22.5 17.7518 20.9Z" fill="#00B9F1"/>
<path d="M43.1519 20.2L42.1519 19.7C41.9519 23.1 41.2518 26.4 39.4518 29.2C35.5518 35.2 28.4518 38 22.4518 41.2C17.6518 43.8 12.0519 48.2 6.35187 48.5C5.25187 48.5 3.85184 48.3 2.95184 47.5C2.35184 47 1.95186 46.4 1.65186 45.7V52.2C1.65186 52.9 2.05186 53.6 2.65186 53.9C2.95186 54.1 3.35183 54.2 3.75183 54.2C4.05183 54.2 4.35186 54.1 4.65186 54L43.2518 34.5C43.9518 34.2 44.3519 33.5 44.3519 32.7V22C44.2519 21.2 43.8519 20.5 43.1519 20.2Z" fill="#00B9F1"/>
<path d="M19.552 31.7C15.652 33.4 11.752 35.2 8.05202 37.3C5.05202 39 3.35198 39.6 3.95198 43.3C3.95198 43.5 4.25197 43.4 4.25197 43.2C4.95197 37 15.252 35.2 19.752 32.3C20.052 32.1 20.052 31.5 19.552 31.7Z" fill="white"/>
<path d="M24.8521 13.4C18.5521 9.50003 11.652 6.20004 4.95203 3.00004C4.75203 2.90004 4.35207 3.30004 4.55207 3.50004C7.25207 5.70004 10.4521 7.20004 13.5521 8.60004C17.2521 10.2 20.752 12.2 24.452 14C24.852 14.1 25.1521 13.6 24.8521 13.4Z" fill="white"/>
<path d="M29.4518 15.5C29.1518 15 28.5519 14.9 28.0519 14.7C27.7519 14.6 27.3519 15 27.5519 15.3C27.9519 15.8 28.4519 16.2 29.1519 16C29.3519 16 29.5518 15.7 29.4518 15.5Z" fill="white"/>
</svg>
