<svg width="94" height="83" viewBox="0 0 94 83" fill="none" xmlns="http://www.w3.org/2000/svg">
<path d="M85.1997 25.2176C84.1455 19.0553 78.5369 14.9918 72.7175 16.1082C71.115 16.4207 69.6391 17.0905 68.374 18.0729C65.2534 7.93646 55.8496 1.14905 45.6023 1.99748C40.8793 2.39937 36.2407 3.24779 31.6863 4.67672C21.6078 7.75785 14.945 17.671 15.4088 28.4327C13.8907 27.9861 12.2883 27.8968 10.6858 28.2094C4.8664 29.3257 1.02896 35.2647 2.0832 41.427C3.13744 47.5892 8.74602 51.6527 14.5654 50.5364C17.5173 49.9559 19.9632 48.1251 21.5234 45.6691C24.2645 48.7056 28.1019 50.5364 32.1924 50.6257C32.5297 50.6257 32.8671 50.6257 33.1623 50.6257C33.2044 56.4307 41.0902 61.1194 50.8314 61.1194C60.5726 61.1194 68.5005 56.3861 68.5005 50.581C68.5005 47.6785 66.5607 45.0886 63.398 43.1685C65.5908 41.427 67.3197 39.105 68.374 36.4704C70.6511 38.2119 73.5609 39.0157 76.5549 38.4352C82.4587 37.2742 86.2961 31.3798 85.1997 25.2176Z" fill="#C9ADB5"/>
<path d="M12.6256 51.7867C7.1014 51.7867 2.12537 47.5892 1.1133 41.6056C0.565093 38.3458 1.19764 35.0414 2.96876 32.3176C4.73989 29.5937 7.39658 27.7628 10.475 27.1377C11.7822 26.8698 13.0895 26.8698 14.3546 27.093C14.4389 22.0918 15.957 17.1352 18.7824 13.027C21.8608 8.51696 26.3308 5.16791 31.3912 3.64967C35.9877 2.2654 40.7107 1.32766 45.518 0.925777C50.7049 0.523891 55.8918 1.95282 60.2352 5.03395C64.157 7.80249 67.1932 11.8214 68.9222 16.4654C70.0608 15.7956 71.2415 15.349 72.5488 15.0811C75.6272 14.5006 78.7477 15.1704 81.3201 17.0459C83.8924 18.9213 85.6214 21.7346 86.2118 24.9943C87.3925 31.7371 83.1755 38.2119 76.8079 39.4622C74.0247 39.998 71.2415 39.5068 68.8378 38.0333C67.0246 41.7842 63.9883 44.7314 60.2352 46.2943C59.6449 46.5622 59.0123 46.7855 58.4219 47.0534C57.9159 47.2766 57.3255 46.9641 57.1147 46.4282C56.9038 45.8924 57.199 45.2672 57.705 45.0439C58.2954 44.8207 58.8858 44.5527 59.4762 44.3295C63.1028 42.8112 65.9281 39.8641 67.4884 36.0685C67.6149 35.7559 67.868 35.5326 68.121 35.4433C68.4162 35.354 68.7113 35.3987 68.9644 35.6219C71.115 37.2741 73.7717 37.8993 76.3862 37.3634C81.6574 36.3364 85.1575 30.9779 84.1876 25.3962C83.7238 22.6723 82.29 20.3503 80.1393 18.7874C77.9887 17.2245 75.4163 16.644 72.8861 17.1352C71.4524 17.4031 70.1451 18.0283 68.9644 18.9213C68.7113 19.1 68.374 19.1893 68.0788 19.0553C67.7836 18.966 67.5306 18.6981 67.4463 18.3855C66.0125 13.6968 63.0606 9.58865 59.1388 6.77545C55.1749 3.96225 50.4097 2.62263 45.6867 3.02451C41.048 3.38175 36.4515 4.27482 31.9815 5.6591C27.3429 7.08803 23.2524 10.1245 20.427 14.2773C17.6438 18.3855 16.2101 23.3868 16.4209 28.388C16.4209 28.7452 16.2944 29.0578 16.0414 29.2811C15.7884 29.5044 15.451 29.549 15.1558 29.4597C13.7642 29.0578 12.2883 29.0132 10.8545 29.2811C8.28215 29.7723 6.08933 31.2905 4.61339 33.5679C3.13745 35.8452 2.58924 38.5691 3.0531 41.2484C4.02301 46.8301 9.08338 50.5364 14.3546 49.5093C16.9691 49.0182 19.2041 47.4553 20.68 45.0886C20.8487 44.8207 21.1017 44.6421 21.4391 44.6421C21.7343 44.5974 22.0295 44.7314 22.2403 44.9546C24.897 47.8571 28.4393 49.5094 32.2345 49.5987C35.3973 49.688 38.56 49.5094 41.6384 49.1521C42.1866 49.1075 42.6926 49.5093 42.7348 50.0898C42.777 50.6703 42.3974 51.2062 41.8492 51.2509C38.6865 51.6527 35.4394 51.7867 32.1502 51.6974C28.2284 51.6081 24.5175 50.0452 21.6078 47.2766C19.8788 49.5093 17.433 51.0276 14.6919 51.5634C14.0172 51.6974 13.3425 51.7867 12.6256 51.7867Z" fill="#AB8D96"/>
<path d="M55.5122 43.3917C49.1446 45.9816 42.5661 47.2766 35.7346 47.1873C31.5598 47.1426 27.8067 44.7313 26.1199 40.9804C25.2344 39.0156 24.6018 37.0061 24.2223 34.9521C22.7042 26.9143 27.7645 18.9659 35.7768 16.5546C39.0239 15.5722 42.3553 14.9471 45.7288 14.6345C53.7411 13.92 60.9521 19.2785 62.3015 27.0483C62.6811 29.147 62.7654 31.3351 62.6389 33.5231C62.3437 37.8992 59.6027 41.7395 55.5122 43.3917Z" fill="#F5E9C1"/>
<path d="M15.8305 38.837C15.451 36.6043 13.4268 35.1307 11.2762 35.5326C9.16771 35.9345 7.77611 38.0779 8.15564 40.3552C8.53516 42.5879 10.5593 44.0615 12.71 43.6596C14.8606 43.2577 16.2101 41.0697 15.8305 38.837Z" fill="#AB8D96"/>
<path d="M33.2044 33.9697C33.4575 35.354 32.7827 36.6043 31.6863 36.8276C30.6321 37.0509 29.5357 36.1131 29.3248 34.7289C29.0718 33.3446 29.7465 32.0943 30.8429 31.871C31.8972 31.6477 32.9514 32.5855 33.2044 33.9697Z" fill="#5F5C5D"/>
<path d="M57.5364 29.2365C57.7894 30.6207 57.1147 31.8711 56.0183 32.0943C54.964 32.3176 53.8676 31.3799 53.6568 29.9956C53.4037 28.6113 54.0785 27.361 55.1749 27.1377C56.2291 26.9145 57.2834 27.8522 57.5364 29.2365Z" fill="#5F5C5D"/>
<path d="M40.7528 38.0332C38.8974 38.0332 37.2527 36.6489 36.8732 34.6395C36.7889 34.059 37.1262 33.5231 37.6744 33.3892C38.2226 33.2998 38.7287 33.6571 38.8552 34.2376C39.066 35.3539 40.0359 36.0684 41.0902 35.8898C42.1444 35.6665 42.8191 34.6395 42.6505 33.5231C42.6505 33.4785 42.6505 33.3891 42.6505 33.3445C42.6505 32.8533 42.9878 32.4068 43.4517 32.3175C43.9999 32.2281 44.5059 32.5854 44.6324 33.1659C44.7168 33.7017 45.012 34.1483 45.4337 34.4608C45.8554 34.7734 46.3614 34.9074 46.8674 34.7734C47.9217 34.5502 48.5964 33.5231 48.4277 32.4068C48.3434 31.8263 48.6807 31.2904 49.2289 31.1565C49.7771 31.0671 50.2832 31.4244 50.4097 32.0049C50.7892 34.2822 49.3976 36.4256 47.247 36.8722C46.1927 37.0954 45.1806 36.8275 44.2951 36.2024C44.2529 36.1577 44.1686 36.113 44.1264 36.0684C43.5782 37.0508 42.6083 37.7653 41.4697 37.9885C41.2589 38.0332 41.0058 38.0332 40.7528 38.0332Z" fill="#5F5C5D"/>
<path d="M57.0725 23.208C58.6749 19.6803 63.8618 17.3583 70.1029 20.1268C76.1754 22.6721 83.3021 30.308 84.4406 41.1589C86.0853 51.9651 81.1514 61.3425 75.9645 65.54C70.6511 70.0054 65.0426 69.2463 62.6389 66.2991C57.4942 60.0029 63.9883 54.1979 62.6811 44.3293C61.4581 34.4608 53.6989 30.7545 57.0725 23.208Z" fill="#FFFFA1"/>
<path d="M67.6571 63.2627C67.3619 63.2627 67.1089 63.1288 66.898 62.9055C66.5185 62.459 66.5607 61.7892 66.9824 61.3873C67.0246 61.3426 69.6391 58.842 71.9584 54.7785C74.9525 49.4647 75.9224 44.1508 74.8681 39.0156C73.4344 32.1389 68.9644 28.254 65.5064 26.1999C65.0426 25.932 64.8317 25.2622 65.1269 24.771C65.3799 24.2798 66.0125 24.0565 66.4763 24.3691C70.3138 26.6465 75.2055 30.9332 76.8079 38.6137C77.9887 44.2401 76.8923 50.2238 73.6452 55.9841C71.1994 60.2709 68.4583 62.9055 68.3318 63.0395C68.121 63.1734 67.9101 63.2627 67.6571 63.2627Z" fill="#FFE4A9"/>
<path d="M66.7715 40.3106C67.0246 41.159 66.5185 42.0968 65.7173 42.3647C64.8739 42.6326 64.0305 42.1414 63.7775 41.293C63.5245 40.4446 63.9883 39.5068 64.8317 39.2389C65.633 38.9263 66.5185 39.4175 66.7715 40.3106Z" fill="#5F5C5D"/>
<path d="M77.1875 37.0063C77.4405 37.8547 76.9344 38.7924 76.1332 39.0604C75.2898 39.3283 74.4464 38.8371 74.1934 37.9887C73.9404 37.1402 74.4043 36.2025 75.2476 35.9346C76.091 35.622 76.9344 36.1132 77.1875 37.0063Z" fill="#5F5C5D"/>
<path d="M68.2053 69.7375C65.633 69.7375 63.3136 68.7104 61.8798 66.9689C58.5906 62.9501 59.5605 59.0205 60.6148 54.8677C61.3738 51.8759 62.2172 48.4821 61.669 44.5079C61.163 40.4891 59.4762 37.4526 58.0002 34.818C55.9339 31.1117 53.9941 27.5841 56.1448 22.8061C57.0725 20.7074 59.0545 19.0552 61.5425 18.3407C63.4401 17.7602 66.5185 17.4923 70.4403 19.2338C76.8079 21.913 84.1876 29.9061 85.4106 41.1142C87.0973 52.2778 81.9948 62.057 76.5549 66.4777C73.2657 69.157 70.1873 69.7375 68.2053 69.7375ZM57.9581 23.6545C56.2713 27.4501 57.705 30.0847 59.7292 33.7017C61.2895 36.5149 63.1028 39.73 63.651 44.1954C64.2414 48.6161 63.3558 52.2331 62.5546 55.4035C61.5425 59.467 60.7834 62.4142 63.398 65.5846C65.5908 68.2192 70.6511 68.6211 75.332 64.6916C80.308 60.6727 84.9888 51.6526 83.4286 41.3375V41.2929C82.29 30.9331 75.5428 23.5652 69.6812 21.1092C64.1992 18.6533 59.3918 20.4841 57.9581 23.6545Z" fill="#F9CB71"/>
<path d="M70.6512 42.7665C70.1451 42.7665 69.5969 42.6326 69.133 42.3647C68.374 41.9181 67.8258 41.2036 67.5728 40.3552C67.4041 39.7747 67.6993 39.1942 68.2475 39.0156C68.7957 38.837 69.3439 39.1496 69.5126 39.7301C69.5969 40.0426 69.8078 40.3106 70.1029 40.4892C70.3981 40.6678 70.6933 40.6678 71.0307 40.5785C71.3259 40.4892 71.5789 40.2659 71.7476 39.9533C71.9162 39.6408 71.9162 39.3282 71.8319 38.9709C71.6632 38.3904 71.9584 37.8099 72.5066 37.6313C73.0548 37.4527 73.603 37.7653 73.7717 38.3458C74.0247 39.1942 73.9404 40.1319 73.5187 40.9357C73.097 41.7395 72.4223 42.32 71.6211 42.5879C71.2837 42.7219 70.9463 42.7665 70.6512 42.7665Z" fill="#5F5C5D"/>
<path d="M60.0244 27.8075C58.6749 28.0754 57.3255 27.7182 56.3134 26.7358L52.0543 22.6723C51.4218 22.0471 51.0001 21.1987 50.9579 20.261C50.9157 19.3233 51.2109 18.4302 51.8013 17.7604C52.729 16.6887 54.205 16.3314 55.47 16.8673L60.7834 19.1446C61.8798 19.5912 62.7654 20.5289 63.1871 21.7346C63.6088 22.8956 63.5666 24.2352 63.0606 25.3515C62.5124 26.5572 61.5003 27.4503 60.2774 27.8075C60.2352 27.7629 60.1087 27.8075 60.0244 27.8075Z" fill="#5F5C5D"/>
<path d="M92.9589 81.9281H15.3245L22.1981 62.191L24.3066 56.2074H83.9767L92.9589 81.9281Z" fill="white"/>
<path d="M92.9589 81.9281H68.2897C67.4884 77.9093 77.7357 71.3898 74.826 68.3533C71.2415 64.5577 63.1028 69.6036 58.8015 67.3709C55.1749 65.4954 57.8737 60.4495 63.4823 56.2074H83.9768L92.9589 81.9281Z" fill="#A3D676"/>
<path d="M48.8072 81.9283H15.3245L22.1981 62.1912C24.897 60.8516 27.638 60.8516 30.126 63.4415C34.2165 67.639 26.2043 72.0597 29.9574 76.0786C33.7526 80.0974 46.6566 62.3698 51.8856 67.9069C55.47 71.6578 51.6326 78.1327 48.8072 81.9283Z" fill="#E27FA3"/>
<path d="M92.9589 83H15.3245C14.9871 83 14.6919 82.8214 14.5233 82.5534C14.3546 82.2855 14.3124 81.8836 14.3968 81.571L23.3789 55.8503C23.5054 55.4484 23.8849 55.1359 24.3066 55.1359H84.0189C84.4406 55.1359 84.8202 55.4038 84.9467 55.8503L93.9288 81.571C94.0553 81.8836 94.0132 82.2408 93.8023 82.5534C93.5915 82.8214 93.2963 83 92.9589 83ZM16.7583 80.8566H91.5252L83.2599 57.2346H24.9814L16.7583 80.8566Z" fill="#E2E2E2"/>
<path d="M32.3189 57.4132C32.3189 57.4132 25.4031 40.9359 29.0718 39.2391C32.6984 37.5422 39.6142 54.0195 39.6142 54.0195L32.3189 57.4132Z" fill="#767576"/>
<path d="M32.3189 58.4849C31.9393 58.4849 31.5598 58.2616 31.3911 57.8597C31.3068 57.6811 29.62 53.6176 28.3549 49.2862C26.4573 42.7667 26.5416 39.2836 28.6501 38.2566C30.7586 37.2742 33.2466 39.5516 36.5358 45.4459C38.7287 49.3755 40.4155 53.3943 40.4998 53.5729C40.7106 54.1088 40.4998 54.7339 39.9938 54.9572C39.4877 55.1805 38.8973 54.9572 38.6865 54.4214C38.6865 54.3767 36.9575 50.3132 34.849 46.5176C31.7707 40.9805 29.9995 39.9981 29.4935 40.2214C28.9875 40.4447 28.5236 42.5434 30.2947 48.661C31.5176 52.9031 33.2466 56.9666 33.2466 57.0113C33.4575 57.5471 33.2466 58.1723 32.7406 58.3956C32.5719 58.4849 32.4454 58.4849 32.3189 58.4849Z" fill="#5F5C5D"/>
<path d="M34.5539 62.8163L32.4454 60.271C31.8128 59.5119 31.855 58.3955 32.5719 57.681C33.4153 56.8326 34.5539 55.8056 35.7346 55.2697C36.9154 54.7339 38.4335 54.466 39.5721 54.3767C40.4998 54.2873 41.3432 55.0465 41.4697 56.0289L41.8492 59.4226C41.8492 59.4226 39.9094 59.7798 38.0118 60.6282C36.1142 61.5213 34.5539 62.8163 34.5539 62.8163Z" fill="white"/>
<path d="M34.2165 67.6389C33.7105 66.21 33.7105 64.6025 34.5539 62.7716L41.8071 59.3779C44.7168 60.5836 45.6445 64.3345 43.4095 67.9068C42.5661 69.2911 42.1444 70.4521 42.0601 71.4345C41.9336 72.9081 40.3733 73.7119 39.1925 72.9974C37.2106 71.7471 35.0599 69.9609 34.2165 67.6389Z" fill="#FFBE8D"/>
<path d="M34.2165 67.6388C36.9154 62.4143 39.5721 67.1923 39.5721 67.1923C39.5721 67.1923 39.7408 64.6023 41.6806 63.7092C43.5782 62.8162 44.8011 64.2004 43.4517 67.9067C42.6083 69.291 42.1866 70.452 42.1023 71.4344C41.9758 72.908 40.4155 73.7117 39.2347 72.9973C37.2106 71.747 35.0599 69.9608 34.2165 67.6388Z" fill="#E27FA3"/>
<path d="M40.1625 74.2924C39.6564 74.2924 39.1504 74.1584 38.6865 73.8905C33.4153 70.6307 31.6442 66.5226 33.6683 62.3251L35.4395 63.3075C33.9213 66.4333 35.3551 69.3804 39.6986 72.0597C39.9516 72.2383 40.289 72.2383 40.5841 72.1043C40.8793 71.9704 41.048 71.6578 41.0902 71.3452C41.2167 70.0949 41.7227 68.7553 42.6083 67.3263C43.5782 65.7634 43.9156 64.0219 43.4939 62.6377C43.1987 61.6106 42.4818 60.8068 41.4697 60.405L42.1866 58.4402C43.7469 59.0653 44.8855 60.3603 45.3915 62.0125C45.9819 64.0219 45.6023 66.3886 44.2529 68.532C43.536 69.6483 43.1565 70.6754 43.0722 71.5685C42.9457 72.6402 42.3553 73.5332 41.4697 74.0244C41.048 74.2031 40.6263 74.2924 40.1625 74.2924Z" fill="#EA9C71"/>
<path d="M34.5539 63.8432C34.2587 63.8432 34.0057 63.7092 33.7948 63.4859L31.6863 60.9407C30.7164 59.735 30.8008 57.9935 31.855 56.8772C33.0779 55.6268 34.2587 54.7784 35.3129 54.2872C36.3672 53.796 37.8009 53.4388 39.4456 53.3048C40.9215 53.1709 42.2288 54.3319 42.3974 55.8948L42.777 59.2885C42.8191 59.869 42.4818 60.3602 41.9336 60.4495C41.9336 60.4495 40.0781 60.8067 38.3491 61.6105C36.6202 62.4143 35.1442 63.6646 35.1442 63.6646C35.0177 63.7985 34.7647 63.8432 34.5539 63.8432ZM39.6986 55.4036H39.6564C38.6443 55.4929 37.2527 55.6715 36.1563 56.2073C35.0599 56.6985 34.0057 57.6809 33.2466 58.44C32.9514 58.7526 32.9514 59.2438 33.2044 59.5564L34.7225 61.3872C35.3973 60.896 36.4093 60.2262 37.5901 59.6457C38.7708 59.1099 39.9516 58.7526 40.7107 58.5294L40.4576 56.118C40.4155 55.7161 40.0781 55.4036 39.6986 55.4036Z" fill="#E2E2E2"/>
<path d="M25.9091 49.1967C25.9934 46.3835 27.0055 44.1508 29.6622 44.2401C32.3189 44.3294 34.3852 46.6961 34.3009 49.5093C34.2165 52.3225 31.9815 54.5106 29.3248 54.4212C26.6681 54.3319 25.8247 52.0099 25.9091 49.1967Z" fill="#C9ADB5"/>
<path d="M29.5357 55.493C29.4513 55.493 29.4092 55.493 29.3248 55.493C27.7224 55.4483 26.4995 54.6892 25.7404 53.3943C25.15 52.3226 24.8548 50.8936 24.9392 49.1521C25.1079 43.5704 28.3549 43.1238 29.7465 43.1685C32.9514 43.3024 35.4816 46.1603 35.3551 49.554C35.2286 52.9031 32.6562 55.493 29.5357 55.493ZM29.4513 45.3119C28.6923 45.3119 27.0477 45.5798 26.9212 49.2414C26.879 50.5364 27.0477 51.6081 27.4694 52.2779C27.8489 52.9924 28.4814 53.3496 29.4092 53.3496C31.5177 53.4389 33.2888 51.6974 33.3731 49.4647C33.4575 47.232 31.8128 45.3565 29.7044 45.2672C29.62 45.3119 29.5357 45.3119 29.4513 45.3119Z" fill="#AB8D96"/>
<path d="M79.8441 50.0899C79.8441 50.0899 89.5432 38.3012 86.9287 35.8899C84.3141 33.4786 74.6573 45.2673 74.6573 45.2673L79.8441 50.0899Z" fill="#767576"/>
<path d="M79.8441 51.1616C79.5911 51.1616 79.3803 51.0723 79.1694 50.8936C78.7477 50.4918 78.7056 49.8219 79.0851 49.3754C79.1273 49.3308 81.4888 46.4282 83.5551 43.2578C87.1395 37.7207 86.2961 36.6937 86.2961 36.6937C86.2961 36.6937 85.1997 35.9345 80.5189 40.4446C77.8622 43.0345 75.4585 45.937 75.4163 45.9817C75.0368 46.4282 74.4043 46.4729 73.9826 46.071C73.5609 45.6691 73.5187 44.9993 73.8982 44.5528C73.9826 44.4188 76.3862 41.5163 79.1273 38.8817C83.3021 34.8182 86.0009 33.6125 87.5612 35.0861C89.1215 36.5151 88.3624 39.5069 85.1575 44.4635C83.049 47.7232 80.6875 50.6257 80.561 50.7597C80.3924 51.0276 80.0972 51.1616 79.8441 51.1616Z" fill="#5F5C5D"/>
<path d="M76.6814 53.9301L79.0429 52.3672C79.7176 51.9207 79.9706 50.9383 79.5911 50.1792C79.0851 49.2861 78.3682 48.0804 77.5248 47.3213C76.6814 46.5622 75.5007 45.9371 74.5729 45.5798C73.8139 45.2672 72.9705 45.6245 72.6331 46.4282L71.4945 49.1075C71.4945 49.1075 73.0126 49.9113 74.3621 51.1616C75.7115 52.4565 76.6814 53.9301 76.6814 53.9301Z" fill="white"/>
<path d="M75.7958 58.0381C76.5549 57.0111 76.9766 55.6715 76.6814 53.9299L71.4945 49.152C68.7957 49.3306 67.1511 52.2331 68.121 55.7608C68.5005 57.145 68.5427 58.2167 68.374 59.0652C68.1631 60.3155 69.2174 61.4318 70.3981 61.1192C72.3379 60.6281 74.5729 59.735 75.7958 58.0381Z" fill="#FFBE8D"/>
<path d="M75.7959 58.0382C74.826 52.9476 71.4524 56.2074 71.4524 56.2074C71.4524 56.2074 71.9163 54.0193 70.5668 52.769C69.2174 51.5187 67.868 52.3225 68.121 55.7608C68.5005 57.1451 68.5427 58.2168 68.374 59.0652C68.1631 60.3156 69.2174 61.4319 70.3981 61.1193C72.3379 60.6281 74.5729 59.7351 75.7959 58.0382Z" fill="#A3D676"/>
<path d="M70.0186 62.2357C69.3439 62.2357 68.6692 61.9678 68.1631 61.4319C67.4884 60.7621 67.2354 59.7797 67.4041 58.842C67.5306 58.0828 67.4462 57.1451 67.1511 56.0734C66.5607 53.93 66.7715 51.7866 67.7836 50.2684C68.627 48.9734 69.8921 48.2143 71.4102 48.125L71.5367 50.2237C70.6511 50.2684 69.9343 50.7149 69.4282 51.4741C68.7535 52.5011 68.627 53.93 69.0487 55.4929C69.4282 56.9218 69.5547 58.1722 69.3439 59.2885C69.3017 59.6457 69.4704 59.869 69.5547 59.9583C69.6391 60.0476 69.8499 60.2262 70.1451 60.1369C74.3199 59.1099 76.1754 57.1005 75.6693 54.1979L77.6513 53.8407C78.326 57.9489 75.838 60.9407 70.609 62.2357C70.3981 62.191 70.2295 62.2357 70.0186 62.2357Z" fill="#EA9C71"/>
<path d="M76.6814 55.0019C76.3441 55.0019 76.0489 54.8233 75.838 54.5553C75.838 54.5553 74.9103 53.1264 73.6874 52.0101C72.4644 50.8937 71.0307 50.1346 71.0307 50.0899C70.5668 49.822 70.356 49.2415 70.5668 48.7057L71.7054 46.0264C72.2536 44.6868 73.6874 44.1063 74.9525 44.5975C76.3441 45.178 77.4405 45.8478 78.1995 46.5623C78.9586 47.2767 79.7598 48.3484 80.4767 49.688C81.1514 50.9384 80.7719 52.5013 79.5911 53.2604L77.2296 54.8233C77.0609 54.9572 76.8501 55.0019 76.6814 55.0019ZM72.7596 48.7057C73.35 49.1076 74.2356 49.6881 74.9946 50.4025C75.7959 51.117 76.4706 51.9654 76.8923 52.5459L78.4947 51.5189C78.7477 51.3403 78.8321 51.0277 78.6634 50.7597C78.073 49.6434 77.4405 48.7503 76.8079 48.1698C76.2175 47.634 75.2898 47.0535 74.1512 46.6069C73.8982 46.5176 73.603 46.6069 73.4765 46.9195L72.7596 48.7057Z" fill="#E2E2E2"/>
<path d="M86.3804 44.9546C86.8865 42.9005 86.6335 41.025 84.6937 40.4892C82.7539 39.9533 80.7297 41.159 80.2237 43.2131C79.7176 45.2672 80.8562 47.4106 82.796 47.9464C84.778 48.4823 85.8744 47.0087 86.3804 44.9546Z" fill="#FFFFA1"/>
<path d="M83.5973 49.1074C83.2599 49.1074 82.9225 49.0628 82.543 48.9735C81.3623 48.6162 80.3502 47.8125 79.7176 46.6961C79.0851 45.5351 78.9164 44.2401 79.2538 42.9452C79.5911 41.6949 80.3502 40.6232 81.4044 39.9534C82.5008 39.2836 83.7238 39.1049 84.9467 39.4622C86.1696 39.8194 87.0552 40.6232 87.3925 41.8288C87.6877 42.7666 87.6456 43.9276 87.3082 45.2225C86.9708 46.5622 86.4648 47.5445 85.7479 48.2144C85.1575 48.8395 84.4406 49.1074 83.5973 49.1074ZM83.7659 41.4269C83.3021 41.4269 82.8382 41.5609 82.4587 41.7842C81.8261 42.1414 81.4044 42.7666 81.2357 43.481C81.0671 44.1955 81.1514 44.9546 81.4888 45.6244C81.8261 46.2942 82.4165 46.7408 83.0912 46.9194C83.8503 47.1427 84.2298 46.8747 84.4828 46.6515C84.8623 46.2942 85.1997 45.5798 85.4527 44.6867C85.6636 43.7936 85.7057 43.0345 85.5371 42.4986C85.4527 42.1414 85.1997 41.7395 84.4828 41.5163C84.2298 41.4269 83.9768 41.4269 83.7659 41.4269Z" fill="#F9CB71"/>
<path d="M67.7836 73.5778C67.7836 72.5061 66.5185 71.613 64.9161 71.613C63.3136 71.613 62.0485 72.5061 62.0485 73.5778C62.0485 74.6495 63.3136 75.5426 64.9161 75.5426C66.5185 75.5426 67.7836 74.6495 67.7836 73.5778Z" fill="#A3D676"/>
<path d="M51.2952 63.3075C52.8789 63.3075 54.1628 62.4278 54.1628 61.3427C54.1628 60.2576 52.8789 59.3779 51.2952 59.3779C49.7115 59.3779 48.4277 60.2576 48.4277 61.3427C48.4277 62.4278 49.7115 63.3075 51.2952 63.3075Z" fill="#E27FA3"/>
<path d="M57.1147 50.7597C59.7714 50.4024 62.0064 51.1169 62.3437 53.8854C62.6811 56.6986 60.7834 59.2439 58.1689 59.6012C55.5122 59.9584 53.1085 57.949 52.7712 55.1804C52.476 52.3672 54.5002 51.1169 57.1147 50.7597Z" fill="#C9ADB5"/>
<path d="M57.5786 60.6729C54.6688 60.6729 52.1808 58.3956 51.8013 55.2698C51.5905 53.6176 52.0965 52.1886 53.1929 51.2063C54.0785 50.4025 55.3857 49.9113 56.9882 49.688C62.2172 49.0182 63.1449 52.3226 63.3558 53.7515C63.5666 55.4037 63.145 57.0113 62.1751 58.3063C61.2051 59.6012 59.8557 60.4496 58.2954 60.6283C58.0424 60.6729 57.8316 60.6729 57.5786 60.6729ZM58.3376 51.7421C58.0002 51.7421 57.6629 51.7868 57.2834 51.8314C56.0604 52.01 55.0905 52.3673 54.5423 52.8585C53.952 53.3943 53.7411 54.0641 53.8254 55.0465C54.0785 57.2792 56.0183 58.8421 58.0846 58.5742C59.0967 58.4402 59.9822 57.9044 60.6148 57.0559C61.2473 56.2075 61.5003 55.1358 61.3738 54.0641C61.2473 53.1264 60.8678 52.5012 60.1931 52.144C59.687 51.8314 59.0545 51.7421 58.3376 51.7421Z" fill="#AB8D96"/>
</svg>
