<svg width="63" height="38" viewBox="0 0 63 38" fill="none" xmlns="http://www.w3.org/2000/svg">
<path d="M32.53 20.8137C31.7386 19.5354 30.6429 18.4396 29.2427 17.6483C27.9644 16.9178 26.5643 16.3699 25.1641 15.8829C22.5465 15.0307 20.0507 14.0567 17.3722 13.3262C16.0938 12.9609 12.9892 11.6217 14.7546 9.85631C15.9721 8.63881 18.2244 9.18668 19.5637 9.85631C21.2073 10.6477 21.9987 12.2913 23.3988 13.387C25.4076 14.9698 28.6949 15.2133 30.6429 13.3262C31.556 12.4739 31.9821 11.4391 31.9821 10.3433C31.9821 9.30844 31.6777 8.21269 31.0081 7.11695C30.3994 6.08208 29.4254 5.10809 28.147 4.19497C26.9295 3.28185 25.3468 2.61223 23.5205 2.06436C21.6943 1.57736 19.5637 1.33386 17.0678 1.33386C14.0241 1.33386 11.2847 1.75998 9.03237 2.55136C6.65825 3.34273 4.83201 4.56022 3.55365 6.14297C2.2144 7.72571 1.54478 9.61281 1.60566 11.6825C1.60566 13.8132 2.27528 15.7003 3.55365 17.1613C6.53651 20.5094 11.1021 21.2399 15.1807 22.3965C16.7026 22.8226 18.4071 23.1879 19.7463 24.2227C21.816 25.8055 20.5985 28.5448 18.4071 29.2145C16.7634 29.7015 14.9981 29.3362 13.5371 28.4231C11.8326 27.3273 11.163 25.3185 9.64111 24.0401C7.63225 22.3356 4.46677 21.7269 2.33615 23.5531C1.42303 24.3445 0.936035 25.3794 0.936035 26.536C0.936035 28.1796 1.60566 29.8232 2.82315 31.4668C4.04064 33.0496 5.62339 34.3279 7.5105 35.241C10.1281 36.5194 13.4762 37.1282 17.3722 37.1282C20.6594 37.1282 23.5205 36.6412 25.9555 35.6672C28.4514 34.6932 30.3994 33.3539 31.6777 31.5886C33.991 28.6057 34.5388 24.101 32.53 20.8137Z" fill="#CF1A71" stroke="#221F1F" stroke-width="0.820712" stroke-miterlimit="10" stroke-linecap="round" stroke-linejoin="round"/>
<path d="M18.3462 29.1536C16.7026 29.6406 14.9372 29.2753 13.4762 28.3622C13.2327 28.2405 13.0501 28.0578 12.8066 27.8752C12.9892 28.1187 13.1718 28.3622 13.4153 28.6057C15.1198 30.3102 19.1375 30.9798 21.0247 29.0318C23.1553 26.9012 21.816 23.7966 19.4419 22.4574C17.4939 21.3616 15.3633 20.9355 13.2327 20.2659C9.64109 19.231 5.44074 17.9526 3.18837 14.7263C2.51875 13.7523 1.84913 12.5957 1.48389 11.3782C1.48389 11.439 1.48389 11.5608 1.48389 11.6217C1.48389 13.7523 2.15351 15.6394 3.43187 17.1004C6.41473 20.4485 10.9803 21.179 15.0589 22.3356C16.5808 22.7617 18.2853 23.127 19.6245 24.1618C21.7551 25.8055 20.5377 28.484 18.3462 29.1536Z" fill="#CF1A71"/>
<path d="M32.5298 20.8137C31.7384 19.5354 30.6427 18.4396 29.2426 17.6483C27.9642 16.9178 26.5641 16.3699 25.164 15.8829C22.5464 15.0307 20.0505 14.0567 17.372 13.3262C16.0936 12.9609 12.989 11.6217 14.7544 9.85631C15.9719 8.63881 18.2243 9.18668 19.5635 9.85631C21.2071 10.6477 21.9985 12.2913 23.3986 13.387C25.4075 14.9698 28.6947 15.2133 30.6427 13.3262C31.5558 12.4739 31.9819 11.4391 31.9819 10.3433C31.9819 9.91719 31.921 9.43019 31.7993 9.00406C31.7384 9.43019 31.6167 9.91719 31.4341 10.2824C30.2166 12.6565 27.4772 13.8132 25.0422 12.413C22.1811 10.7694 20.1114 7.36046 16.6415 7.05609C15.5458 6.99521 14.2065 6.99521 13.2934 7.66483C12.0759 8.57795 10.9802 10.4651 12.1977 11.8652C13.2325 13.0827 14.6935 13.8132 16.1545 14.4219C21.9985 16.6743 31.6167 18.1353 31.8602 26.2316C31.9819 30.7363 29.3643 33.7192 25.8945 35.6063C25.8945 35.6063 25.9553 35.6063 26.0162 35.6063C28.5121 34.6323 30.4601 33.2931 31.7384 31.5277C33.9908 28.6057 34.5387 24.101 32.5298 20.8137Z" fill="#CF1A71"/>
<path d="M11.1627 3.09922C8.11901 3.89059 5.56228 5.47334 3.97954 8.27358C2.70117 10.5868 2.94467 14.0567 5.19703 15.6394C5.44053 15.7611 5.68403 15.3959 5.56228 15.2133C1.72718 9.79544 6.29277 5.35158 11.1627 3.22097C11.2236 3.16009 11.2236 3.09922 11.1627 3.09922Z" fill="white"/>
<path d="M19.1983 35.4237C15.485 35.6672 12.1369 35.1802 8.7279 33.5366C5.56242 31.9538 0.266323 26.9621 4.6493 23.7357C4.71017 23.6749 4.71017 23.5531 4.58842 23.614C0.327199 25.1358 2.39694 30.1276 5.19717 32.0756C9.15402 34.8758 14.2675 37.0064 19.1983 35.6672C19.3201 35.6672 19.381 35.4237 19.1983 35.4237Z" fill="white"/>
<path d="M6.71894 16.6743C6.71894 16.6743 6.59719 16.5525 6.53632 16.4917C6.53632 16.4308 6.53632 16.4308 6.47545 16.3699C6.3537 16.1873 6.04932 16.309 6.04932 16.5525C6.04932 16.6134 6.04932 16.6134 6.04932 16.6743C6.11019 16.8569 6.23194 16.9178 6.41457 17.0395C6.65807 17.1004 6.90157 16.8569 6.71894 16.6743Z" fill="white"/>
<path d="M61.0802 24.4662C60.4715 23.4922 59.6193 22.64 58.5235 22.0312C57.5495 21.4225 56.4538 20.9964 55.358 20.692C53.3492 20.0224 51.4012 19.2919 49.3314 18.6831C48.3574 18.3788 45.9225 17.3439 47.3226 16.0047C48.2966 15.0915 50.0011 15.5177 51.0968 16.0047C52.3752 16.6134 52.9839 17.8918 54.0797 18.744C55.6624 19.9615 58.2191 20.1441 59.6801 18.744C60.3498 18.0744 60.715 17.283 60.715 16.4308C60.715 15.5785 60.4715 14.7872 59.9845 13.9349C59.4975 13.1435 58.767 12.3522 57.793 11.6825C56.819 11.0129 55.6015 10.4651 54.2014 10.0389C52.8013 9.61282 51.0968 9.4302 49.2097 9.4302C46.8356 9.4302 44.7658 9.73457 42.9396 10.3433C41.1134 10.9521 39.6524 11.9261 38.6784 13.1436C37.6435 14.361 37.1565 15.822 37.1565 17.4048C37.1565 19.0484 37.7044 20.5094 38.6784 21.6051C40.9916 24.2227 44.5223 24.7706 47.6878 25.6229C48.9053 25.9881 50.1837 26.2316 51.2186 27.023C52.8013 28.2405 51.8882 30.3711 50.1837 30.9189C48.9053 31.3451 47.5661 31.0407 46.4095 30.3102C45.0702 29.458 44.5223 27.8752 43.3657 26.9012C41.783 25.562 39.348 25.075 37.7044 26.536C36.9739 27.1447 36.6086 27.9361 36.6086 28.8492C36.6086 30.1276 37.0956 31.4059 38.0696 32.6843C38.9828 33.9018 40.2002 34.8758 41.7221 35.6063C43.731 36.5803 46.3486 37.0673 49.3923 37.0673C51.9491 37.0673 54.2014 36.702 56.0277 35.9716C57.9756 35.2411 59.4366 34.1453 60.4715 32.8061C62.2369 30.4928 62.6021 27.023 61.0802 24.4662Z" fill="#EF477A" stroke="#221F1F" stroke-width="0.820712" stroke-miterlimit="10" stroke-linecap="round" stroke-linejoin="round"/>
<path d="M50.1226 30.9798C48.8443 31.4059 47.505 31.1016 46.3484 30.3711C45.0092 29.5188 44.4613 27.9361 43.3047 26.9621C41.7219 25.6228 39.2869 25.1358 37.6433 26.5968C37.5824 26.6577 37.5216 26.7186 37.4607 26.7795C38.7391 26.536 40.3218 26.9621 41.1741 27.6926C42.635 28.9101 43.6699 30.7972 45.3135 31.7712C46.8963 32.7452 49.3921 33.5366 51.1575 32.4408C53.9577 30.7972 54.5056 27.51 50.3052 25.7446C48.5399 25.0141 46.531 24.9532 44.6439 24.7097C44.096 24.6489 43.609 24.5271 43.0612 24.4662C44.5222 24.9532 46.044 25.3185 47.505 25.6837C48.7225 26.049 50.0009 26.2925 51.0357 27.0838C52.7402 28.3013 51.8271 30.4319 50.1226 30.9798Z" fill="#EF477A"/>
<path d="M61.08 24.4662C60.4713 23.4922 59.619 22.64 58.5233 22.0312C57.5493 21.4225 56.4536 20.9964 55.3578 20.692C53.3489 20.0224 51.401 19.2919 49.3312 18.6831C48.3572 18.3788 45.9222 17.3439 47.3224 16.0047C48.2963 15.0915 50.0008 15.5177 51.0966 16.0047C52.3749 16.6134 52.9837 17.8918 54.0794 18.744C55.6622 19.9615 58.2189 20.1441 59.6799 18.744C60.3495 18.0744 60.7148 17.283 60.7148 16.4308C60.7148 15.8829 60.593 15.2742 60.3495 14.6654C60.2278 15.3959 59.8625 16.1264 59.1929 16.6134C57.2449 17.9526 55.1752 16.796 53.4098 15.7003C51.5227 14.4828 46.1049 12.4131 45.07 15.8829C43.9134 19.8398 51.2183 20.6311 53.6533 21.5443C56.1492 22.5182 58.9494 23.7966 60.1669 26.3533C61.6279 29.3971 60.7757 32.5017 58.645 34.6323C59.3755 34.0844 60.0452 33.4757 60.5322 32.8061C62.2366 30.4928 62.6019 27.023 61.08 24.4662Z" fill="#EF477A"/>
<path d="M41.722 12.5348C42.2699 12.1087 42.8786 11.9869 43.4265 11.4999C43.5482 11.3782 43.4874 11.1956 43.3047 11.2564C40.6871 12.1696 38.7391 13.874 38.2521 16.7352C37.7651 19.5354 39.774 22.2139 42.5742 22.64C42.7569 22.64 43.0004 22.3356 42.8177 22.2139C40.5045 21.1181 39.0435 19.2919 39.1653 16.6134C39.2261 15.0307 40.4436 13.4479 41.722 12.5348Z" fill="white"/>
<path d="M44.3396 22.7617C44.157 22.5791 43.9744 22.64 43.7309 22.5183C43.4874 22.3965 43.2439 22.7617 43.3656 22.9444C43.6091 23.2487 43.8526 23.3096 44.2179 23.127C44.3396 23.0661 44.4005 22.8835 44.3396 22.7617Z" fill="white"/>
<path d="M52.7403 35.5454C49.5749 35.7889 46.7137 35.5454 43.7309 34.5105C41.5394 33.78 37.1564 30.1884 38.6174 27.51C38.7392 27.3273 38.5565 27.2056 38.3739 27.3273C36.1824 29.7015 39.2262 32.6234 41.1742 33.9627C44.2179 36.0933 49.1487 36.8238 52.6795 35.728C52.8621 35.728 52.923 35.4845 52.7403 35.5454Z" fill="white"/>
</svg>
