<svg width="89" height="86" viewBox="0 0 89 86" fill="none" xmlns="http://www.w3.org/2000/svg">
<g clip-path="url(#clip0_109_194)">
<path d="M11.9366 26.5781C11.8156 26.5781 11.7349 26.5781 11.614 26.5372C11.13 26.3734 10.8478 25.8 11.0091 25.3086L11.9366 22.4829C12.4205 21.0496 13.469 19.8619 14.8401 19.2476C15.324 19.0429 15.8885 19.2476 16.0902 19.7391C16.2918 20.2305 16.0902 20.8038 15.6063 21.0086C14.7191 21.3772 14.0335 22.1553 13.7513 23.0562L12.8237 25.8819C12.7028 26.3324 12.3398 26.5781 11.9366 26.5781Z" fill="#5F5C5D"/>
<path d="M73.9986 43.041C74.9665 43.2049 76.015 43.2458 77.0231 43.1639C83.6366 42.5906 88.5161 36.6934 87.9515 30.0182C87.4273 23.8344 82.4672 19.1249 76.5392 18.8791C73.2728 8.80486 63.9171 1.63819 52.9887 1.47438C47.7059 1.39248 42.4635 1.88391 37.2614 2.86676C25.9701 5.07819 17.6629 14.9068 17.1387 26.3325C15.5256 25.7182 13.7512 25.4315 11.9366 25.5953C5.32306 26.1687 0.44359 32.0658 1.00816 38.782C1.57272 45.4982 7.3797 50.4534 13.9529 49.8801C17.3403 49.5934 20.2841 47.9144 22.2601 45.4163C25.0829 49.0201 29.2365 51.4363 33.9547 52.0096C34.3983 52.0506 34.8015 52.0915 35.2451 52.1325C34.8822 53.1153 34.6806 54.1391 34.6806 55.2039C34.6806 58.8077 37.0195 62.043 40.6488 64.1315C40.5279 64.8277 40.4875 65.5649 40.4875 66.302C40.4875 73.7963 46.1735 79.8572 53.1903 79.8572C59.9651 79.8572 65.5301 74.1649 65.8931 67.0391C66.5786 67.3258 67.3045 67.4487 68.0707 67.4487C74.0793 67.4487 76.9425 58.4801 76.9425 58.4801C82.9511 57.5382 81.217 51.1087 76.2972 51.1087C70.0467 51.1087 68.111 58.4801 68.111 58.4801C68.111 58.4801 67.4658 56.6372 66.377 54.0572C66.135 52.4191 65.4495 50.9039 64.3607 49.5525C64.6833 49.4706 65.0059 49.3477 65.3688 49.2658C68.8369 48.1601 71.8614 45.9487 73.9986 43.041Z" fill="#C9ADB5"/>
<path d="M43.3507 43.4915C50.932 44.2696 58.3924 43.6144 65.7318 41.5258C70.2483 40.2563 73.5954 36.6115 74.4019 32.2296C74.8052 29.9363 74.9261 27.6839 74.8052 25.4315C74.2406 16.6677 66.5383 9.95153 57.2229 9.86962C53.4323 9.82867 49.6819 10.1563 45.9719 10.8525C37.1405 12.5315 30.8092 20.2306 31.5351 28.6668C31.7367 30.9601 32.2207 33.2125 32.9869 35.4649C34.4386 39.8877 38.4712 43.0001 43.3507 43.4915Z" fill="#F5E9C1"/>
<path d="M8.42819 38.2087C8.22656 35.7925 10.0009 33.622 12.4205 33.4172C14.7997 33.2125 16.937 35.0144 17.1387 37.4715C17.3403 39.8877 15.5659 42.0582 13.1464 42.2629C10.7268 42.4677 8.62982 40.6658 8.42819 38.2087Z" fill="#AB8D96"/>
<path d="M69.4015 26.2915C67.99 26.2915 66.6189 25.8 65.5301 24.8581C65.1269 24.5305 65.0865 23.9162 65.4091 23.5067C65.7318 23.0972 66.3367 23.0562 66.7399 23.3838C67.5868 24.121 68.6352 24.4486 69.7241 24.3667C70.8129 24.2848 71.821 23.7524 72.5066 22.8924C72.8292 22.4829 73.4341 22.4419 73.8373 22.7696C74.2406 23.0972 74.2809 23.7115 73.9583 24.121C72.9098 25.3496 71.4581 26.1277 69.845 26.2915C69.7644 26.2915 69.6031 26.2915 69.4015 26.2915Z" fill="#5F5C5D"/>
<path d="M42.7861 28.5848C41.415 28.5848 40.0439 28.0934 38.9148 27.1515C38.5115 26.8238 38.4712 26.2096 38.7938 25.8C39.1164 25.3905 39.7213 25.3496 40.1246 25.6772C41.8586 27.1515 44.4395 26.9467 45.9316 25.1858C46.2542 24.7762 46.8591 24.7353 47.2623 25.0629C47.6656 25.3905 47.7059 26.0048 47.3833 26.4143C46.2139 27.8477 44.5202 28.5848 42.7861 28.5848Z" fill="#5F5C5D"/>
<path d="M64.28 28.1344C64.4413 29.4859 63.5138 30.7963 62.0217 31.7792C60.7716 32.5573 59.1586 33.1716 57.3036 33.3763C53.6742 33.7859 50.5288 32.5982 49.6013 30.6735C49.4803 30.3868 49.3996 30.1002 49.3593 29.8135C49.1173 27.3973 52.3838 26.5373 56.5374 26.0868C60.6103 25.5544 64.038 25.6773 64.28 28.1344Z" fill="#5F5C5D"/>
<path d="M62.0218 31.7791C60.7716 32.5572 59.1586 33.1715 57.3036 33.3763C53.6742 33.7858 50.5288 32.5982 49.6013 30.6734C50.8514 29.8953 52.4644 29.281 54.3194 29.0763C57.9488 28.6667 61.0942 29.8544 62.0218 31.7791Z" fill="#E27FA3"/>
<path d="M55.8922 34.4001C51.8595 34.4001 48.6738 32.5572 48.3915 29.8544C47.9882 25.9639 53.6742 25.3496 56.4164 25.022C58.9166 24.7353 60.7313 24.7353 62.0621 25.022C64.4816 25.5134 65.1672 26.9058 65.2478 28.0115C65.5705 31.042 62.1024 33.7858 57.3842 34.3182C56.86 34.3592 56.3761 34.4001 55.8922 34.4001ZM59.7232 26.783C58.8763 26.783 57.8278 26.8649 56.618 26.9877C52.1821 27.4792 50.1658 28.3392 50.2868 29.6496C50.4884 31.6972 54.0775 32.7211 57.1826 32.3934C60.2474 32.0658 63.5541 30.2639 63.3525 28.2572C63.3122 27.9706 63.2315 27.2744 61.6588 26.9877C61.1346 26.8239 60.4894 26.783 59.7232 26.783Z" fill="#5F5C5D"/>
<path d="M67.99 68.3906C61.3765 68.3906 57.5052 58.3982 57.3439 57.9887C57.1423 57.4972 57.3842 56.9239 57.9085 56.7191C58.3924 56.5144 58.957 56.7601 59.1586 57.2925C59.1989 57.3744 62.7476 66.4658 68.0304 66.4658C73.2728 66.4658 75.9343 58.2753 75.9746 58.1934C76.0956 57.8249 76.3779 57.5791 76.7408 57.5382C78.7168 57.2106 79.8459 56.2277 79.7653 54.8353C79.6443 53.4839 78.3136 52.0915 76.2569 52.0915C73.9986 52.0915 72.1033 53.1563 70.6112 55.3268C69.4418 57.0058 68.9579 58.7258 68.9579 58.7668C68.8369 59.1763 68.4739 59.463 68.0707 59.5039C67.6674 59.5039 67.2642 59.2582 67.1432 58.8487C67.1432 58.8077 65.6511 54.5077 63.4332 50.003C63.1912 49.5115 64.9252 48.6515 65.1269 49.143C66.377 51.723 67.4255 54.1391 68.0707 55.8591C68.3126 55.3677 68.6353 54.8353 68.9982 54.262C70.8532 51.6001 73.3534 50.1668 76.2166 50.1668C79.5233 50.1668 81.459 52.501 81.6606 54.7125C81.7816 56.4325 80.7734 58.6439 77.628 59.3401C76.8215 61.3877 73.797 68.3906 67.99 68.3906Z" fill="#AB8D96"/>
<path d="M48.5931 85.0172H25.6475C24.4377 85.0172 23.4699 84.0343 23.4699 82.8058V62.0429C23.4699 61.2239 23.9135 60.4867 24.6393 60.0772C26.696 58.9715 28.9542 58.4391 31.2528 58.4391H54.2388L48.5931 85.0172Z" fill="#FFBE8D"/>
<path d="M50.7707 82.8468C52.9887 82.0277 55.4082 82.0277 57.6262 82.8468L60.2877 61.8382L54.1985 60.5277L48.2302 62.862L50.7707 82.8468Z" fill="white"/>
<path d="M57.3036 83.7477C55.2873 83.0106 53.1097 83.0106 51.0933 83.7477L50.4481 81.9048C52.8677 81.0039 55.5292 81.0039 57.9891 81.9048L57.3036 83.7477Z" fill="#E2E2E2"/>
<path d="M46.4558 62.0429V82.8058C46.4558 84.0343 47.4237 85.0172 48.6334 85.0172C49.8432 85.0172 50.8111 84.0343 50.8111 82.8058V63.4762C53.029 62.6572 55.4486 62.6572 57.6665 63.4762V82.8058C57.6665 84.0343 58.6343 85.0172 59.8441 85.0172C61.0539 85.0172 62.0218 84.0343 62.0218 82.8058V62.0429C62.0218 61.2239 61.5782 60.4867 60.8523 60.0772C56.739 57.9067 51.7789 57.9067 47.6656 60.0772C46.8994 60.4867 46.4558 61.2239 46.4558 62.0429Z" fill="#FFBE8D"/>
<path d="M61.2555 59.2581C59.0779 58.1115 56.6584 57.5381 54.2791 57.4972H31.2932C28.8333 57.4972 26.4137 58.1115 24.2361 59.2581C23.1876 59.7905 22.5424 60.8962 22.5424 62.0839V82.8467C22.5424 84.6077 23.9538 86.0001 25.6475 86.0001H48.5931C50.3271 86.0001 51.6982 84.5667 51.6982 82.8467V64.2134C53.3113 63.7629 55.0453 63.7629 56.6584 64.2134V82.8467C56.6584 84.6077 58.0698 86.0001 59.7635 86.0001C61.4975 86.0001 62.8686 84.5667 62.8686 82.8467V62.0839C62.9089 60.8553 62.2637 59.7905 61.2555 59.2581ZM24.4377 82.8467V62.0839C24.4377 61.6334 24.6797 61.2239 25.0829 60.9781C26.9783 59.9953 29.1155 59.4629 31.2528 59.4629H46.8188C45.9719 60.0362 45.4477 61.0191 45.4477 62.0839V82.8467C45.4477 83.2972 45.5283 83.7067 45.6896 84.0753H25.6475C25.0023 84.0753 24.4377 83.502 24.4377 82.8467ZM61.0136 82.8467C61.0136 83.5429 60.4894 84.0753 59.8038 84.0753C59.1183 84.0753 58.594 83.5429 58.594 82.8467V63.4762C58.594 63.0667 58.3521 62.6981 57.9488 62.5753C56.739 62.1248 55.4486 61.8791 54.1985 61.8791C52.908 61.8791 51.6579 62.1248 50.4481 62.5753C50.0852 62.6981 49.8029 63.0667 49.8029 63.4762V82.8058C49.8029 83.502 49.2787 84.0343 48.5931 84.0343C47.9076 84.0343 47.3833 83.502 47.3833 82.8058V62.0429C47.3833 61.5924 47.6253 61.1829 48.0285 60.9372C51.8999 58.8896 56.4971 58.8896 60.328 60.9372C60.7313 61.142 60.9733 61.5515 60.9733 62.0429V82.8467H61.0136Z" fill="#EA9C71"/>
<path d="M33.1482 54.8763C28.0671 65.3191 29.1962 81.7001 37.6647 80.021C44.6411 78.6696 39.3181 64.0906 41.8183 56.7191C41.8586 56.7191 34.358 52.4601 33.1482 54.8763Z" fill="#C9ADB5"/>
<path d="M88.9597 29.9362C88.4354 23.5886 83.4753 18.5514 77.2651 17.9372C75.652 13.4324 72.8695 9.41906 69.1595 6.38859C64.6026 2.66192 58.8763 0.57335 53.029 0.491445C47.7059 0.450493 42.3426 0.900969 37.1001 1.92478C31.4545 3.03049 26.2524 6.10192 22.4617 10.5248C18.9937 14.62 16.816 19.7391 16.2918 25.0219C14.8401 24.6124 13.348 24.4895 11.8559 24.6124C8.42819 24.8991 5.28274 26.5372 3.0648 29.24C0.80653 31.9429 -0.241952 35.3419 0.0403316 38.8638C0.322615 42.3857 1.93566 45.5391 4.5972 47.7914C7.25873 50.0438 10.6058 51.1495 14.0335 50.8629C17.179 50.5762 20.0421 49.1838 22.2198 46.9314C25.0829 50.1667 28.9139 52.2553 33.1482 52.9105C28.7526 60.5276 27.7848 72.5267 31.3335 78.0962C32.6239 80.1029 34.3983 81.1676 36.4952 81.1676C36.9388 81.1676 37.3824 81.1267 37.8663 81.0448C42.9071 80.0619 42.5845 73.6324 42.2619 67.4486C42.0603 63.681 41.8586 59.7905 42.7458 57.0876C42.9071 56.5962 42.6652 56.0229 42.1409 55.8591C41.657 55.6953 41.0924 55.941 40.9311 56.4733C39.8827 59.5448 40.1246 63.64 40.3262 67.5714C40.6892 74.1648 40.6892 78.5057 37.5034 79.12C35.5677 79.4886 34.0757 78.8334 32.9465 77.0314C29.6398 71.8714 30.8496 60.0362 35.2451 53.1562C37.4631 53.361 39.6407 53.4838 41.8183 53.5248C42.3426 53.5248 42.7861 53.1153 42.7861 52.5829C42.7861 52.0505 42.3829 51.6 41.8586 51.6C39.2778 51.5591 36.6566 51.3953 34.0353 51.0676C29.6398 50.5353 25.7281 48.3238 22.986 44.8429C22.8247 44.5972 22.5424 44.4743 22.2601 44.4743C21.9778 44.4743 21.6955 44.5972 21.5342 44.8429C19.6389 47.2181 16.8967 48.6924 13.9126 48.9381C10.9687 49.1838 8.10558 48.2829 5.88764 46.3172C3.62937 44.3924 2.25827 41.6895 2.01632 38.7C1.77436 35.7105 2.66154 32.8029 4.5972 30.5505C6.49253 28.2572 9.15406 26.8648 12.0979 26.6191C13.7513 26.4962 15.3643 26.701 16.8967 27.2743C17.179 27.3972 17.5016 27.3562 17.7435 27.1924C17.9855 27.0286 18.1468 26.7419 18.1871 26.4143C18.4291 21.0905 20.4857 15.9305 23.9538 11.8353C27.4622 7.74002 32.261 4.9143 37.5034 3.89049C42.6248 2.90764 47.8672 2.41621 53.0693 2.49811C58.5134 2.58002 63.8364 4.50478 68.0304 7.98573C72.184 11.3848 75.1278 16.1762 76.3376 21.4181V21.4591C76.6199 22.7286 76.8215 23.9981 76.9021 25.2267C77.1038 28.3391 76.9828 31.5333 76.4989 34.6867C76.1763 36.8572 75.5714 38.7819 74.6439 40.42C74.6439 40.461 74.6035 40.461 74.6035 40.5019C72.5469 44.3105 69.1595 47.0953 65.0462 48.3238C63.4332 48.8153 61.7798 49.2657 60.1264 49.6343C59.6022 49.7572 59.2796 50.2895 59.4005 50.781C59.5215 51.3134 60.0458 51.641 60.5297 51.5181C62.2234 51.1495 63.8768 50.6991 65.5705 50.1667C69.1192 49.1019 72.184 46.9724 74.4826 44.1057C75.0068 44.1876 75.5714 44.1876 76.0956 44.1876C76.4585 44.1876 76.8215 44.1876 77.1844 44.1467C84.2415 43.5324 89.5646 37.1848 88.9597 29.9362ZM76.9828 42.2219C76.5795 42.2629 76.1359 42.2629 75.7327 42.2629C75.894 41.9762 76.0956 41.6486 76.2569 41.3619C76.2569 41.3619 76.2569 41.321 76.2972 41.321C77.3054 39.4781 77.9909 37.3486 78.3135 34.9734C78.7975 31.6562 78.9588 28.3391 78.7571 25.1038C78.6765 23.7934 78.4749 22.4419 78.1926 21.0495V21.0086C78.1119 20.681 78.0313 20.3534 77.9506 20.0667C82.8301 20.8857 86.6611 25.0219 87.1047 30.1819C87.5483 36.2838 83.0317 41.6895 76.9828 42.2219Z" fill="#AB8D96"/>
<path d="M50.1658 11.262C50.4481 13.842 49.2787 16.2582 47.2623 18.0192C45.6896 19.3706 43.5927 20.3125 41.2134 20.5582C40.3262 20.6401 39.4391 20.6401 38.5922 20.5582C34.3176 20.0668 30.9302 17.2001 30.527 13.3915C30.2044 10.2792 31.9787 7.33058 34.9225 5.56963C36.2533 4.79153 37.7857 4.25915 39.4794 4.05439C40.7295 3.93153 41.9393 3.97249 43.0684 4.2182C46.8591 5.03725 49.8029 7.74011 50.1658 11.262Z" fill="#95E0E8"/>
<path d="M78.0313 8.23148C78.2732 10.6477 77.3054 12.941 75.4907 14.661C73.8777 16.2172 71.6194 17.282 69.0788 17.5686C68.2723 17.6505 67.4658 17.6505 66.6996 17.5686C62.304 17.1591 58.7957 14.2515 58.3924 10.361C58.0295 7.08481 60.0458 4.01338 63.1912 2.33434C64.401 1.6791 65.8527 1.22862 67.3448 1.06481C68.6756 0.901002 69.966 0.982907 71.1355 1.26957C74.8052 2.08862 77.6683 4.75053 78.0313 8.23148Z" fill="#95E0E8"/>
<path d="M75.4907 14.6201C73.8777 16.1763 71.6194 17.2411 69.0788 17.5277C68.2723 17.6096 67.4658 17.6096 66.6996 17.5277C69.2401 13.4734 67.9497 11.3439 64.159 10.7706C60.449 10.1973 60.7313 5.56963 63.1509 2.29344C64.3607 1.6382 65.8124 1.18773 67.3045 1.02392C68.6353 0.860109 69.9257 0.942013 71.0952 1.22868C68.5143 4.50487 68.1513 9.33725 71.942 9.91058C75.0068 10.402 76.4182 11.9173 75.4907 14.6201Z" fill="#B5F6F8"/>
<path d="M47.2623 18.0192C45.6896 19.3706 43.5927 20.3125 41.2134 20.5582C40.3262 20.6401 39.4391 20.6401 38.5922 20.5582C41.0924 16.5449 39.802 14.4153 36.0517 13.842C32.4223 13.3096 32.6239 8.84582 34.9225 5.56963C36.2533 4.79153 37.7857 4.25915 39.4794 4.05439C40.7295 3.93153 41.9393 3.97249 43.0684 4.2182C40.4069 7.49439 40.0036 12.4087 43.8346 12.982C47.0204 13.4734 48.4318 15.0706 47.2623 18.0192Z" fill="#B5F6F8"/>
<path d="M78.9588 8.10861C78.6765 5.61052 77.3054 3.39909 75.0471 1.88385C72.8292 0.409566 70.0467 -0.245672 67.2238 0.081947C61.8201 0.65528 57.7472 4.50481 57.3842 9.00957C54.6824 8.31338 52.2225 9.13242 50.8514 9.78766C49.6013 5.44671 44.7621 2.53909 39.3584 3.11242C33.7127 3.72671 29.4382 7.98576 29.5188 12.7772L14.8804 19.2477C14.3965 19.4524 14.1545 20.0258 14.3965 20.5172C14.5578 20.8858 14.9207 21.0905 15.2837 21.0905C15.4046 21.0905 15.5256 21.0496 15.6466 21.0086L29.8011 14.7429C30.8899 18.7972 35.0838 21.6229 39.923 21.6229C40.3666 21.6229 40.8505 21.5819 41.2941 21.541C46.9801 20.9267 51.2547 16.6267 51.1337 11.7943C52.1418 11.2619 54.6824 10.1153 57.4649 11.0572C58.2714 15.4391 62.6266 18.5515 67.7481 18.5515C68.1917 18.5515 68.6756 18.5105 69.1192 18.4696C71.9823 18.1419 74.5632 16.9134 76.3779 14.9886C78.3135 13.0639 79.2411 10.6067 78.9588 8.10861ZM41.1328 19.6162C36.213 20.1486 31.8981 17.3229 31.4545 13.3096C31.0109 9.29623 34.6806 5.61052 39.56 5.07814C39.9633 5.03719 40.3666 4.99623 40.7295 4.99623C45.1251 4.99623 48.7947 7.69909 49.198 11.3848C49.6416 15.3572 46.0122 19.0839 41.1328 19.6162ZM75.0875 13.6781C73.5551 15.2753 71.3774 16.2991 68.9579 16.5448C64.0784 17.0772 59.7232 14.2515 59.3199 10.2381C58.8763 6.22481 62.546 2.53909 67.4255 2.00671C67.8287 1.96576 68.232 1.9248 68.6353 1.9248C70.6112 1.9248 72.4662 2.45719 73.9986 3.48099C75.773 4.66861 76.8618 6.38862 77.0634 8.27243C77.2651 10.2381 76.5392 12.1219 75.0875 13.6781Z" fill="#5F5C5D"/>
</g>
<defs>
<clipPath id="clip0_109_194">
<rect width="89" height="86" fill="white"/>
</clipPath>
</defs>
</svg>
