<svg width="45" height="52" viewBox="0 0 45 52" fill="none" xmlns="http://www.w3.org/2000/svg">
<path d="M38.0288 22.3C36.4288 20.8 34.4289 19.7 32.2289 18.9C30.0289 18.1 27.6288 17.7 25.1288 17.7C22.4288 17.7 20.0289 18.1 17.8289 19C16.1289 19.7 14.5288 20.6 13.0288 21.9C13.4288 17.1 14.5288 13.7 16.1288 11.8C17.0288 10.8 18.1288 9.90005 19.4288 9.30005C22.3288 7.90005 25.3288 8.2 27.5288 9.5C28.7288 10.2 29.6288 11.1 30.1288 12.3C30.6288 13.4 31.4288 14.3 32.5288 15C33.5288 15.6 34.7288 15.9 35.9288 15.9C37.3288 15.9 38.5288 15.5 39.5288 14.7C40.5288 13.9 40.9288 12.9 40.9288 11.8C40.9288 10.2 40.2289 8.50005 38.8289 6.80005C37.4289 5.10005 35.4289 3.70004 32.8289 2.60004C30.2289 1.50004 27.1289 0.900024 23.7289 0.900024C20.1289 0.900024 16.9288 1.50004 14.1288 2.60004C11.3288 3.70004 8.92883 5.4 6.92883 7.5C4.92883 9.7 3.42883 12.4 2.42883 15.7C1.42883 19 0.828857 22.7 0.828857 26.8C0.828857 31.9 1.72883 36.2 3.42883 39.7C5.12883 43.3 7.72884 46 11.0288 47.8C14.3288 49.6 18.2289 50.5 22.7289 50.5C26.6289 50.5 30.2289 49.8 33.3289 48.4C36.4289 47 38.9289 44.9 40.7289 42.4C42.5289 39.8 43.4288 36.9 43.4288 33.8C43.4288 31.6 42.9288 29.5 42.0288 27.5C40.9288 25.5 39.7288 23.8 38.0288 22.3ZM22.7289 29.9C23.6289 29.9 24.5289 30.1 25.2289 30.5C26.0289 30.9 26.5288 31.4 27.0288 32.1C27.4288 32.8 27.7289 33.7 27.7289 34.7C27.7289 36.2 27.2289 37.4 26.3289 38.3C25.4289 39.2001 24.2289 39.6 22.8289 39.6C21.3289 39.6 20.1288 39.1 19.1288 38.1C18.1288 37.1 17.6288 35.9 17.6288 34.4C17.6288 33.5 17.8289 32.7 18.3289 32C18.8289 31.3 19.4289 30.8 20.2289 30.4C21.0289 30.1 21.8289 29.9 22.7289 29.9Z" fill="#EF477A" stroke="#221F1F" stroke-width="1.3482" stroke-miterlimit="10" stroke-linecap="round" stroke-linejoin="round"/>
<path d="M19.8288 28.2C18.0288 28.8 15.9287 30.8 16.1287 33C16.2287 34.3 16.7287 35.9 17.9287 36.4C17.7287 35.8 17.6287 35.2 17.6287 34.5C17.6287 33.6 17.8288 32.8 18.3288 32.1C18.8288 31.4 19.4288 30.9 20.2288 30.5C21.0288 30.1 21.9288 30 22.7288 30C23.6288 30 24.5288 30.2 25.2288 30.6C26.0288 31 26.5287 31.5 27.0287 32.2C27.4287 32.9 27.7288 33.8 27.7288 34.8C27.7288 36.3 27.2288 37.5 26.3288 38.4C25.4288 39.3 24.2288 39.7 22.8288 39.7C21.4288 39.7 20.2288 39.3 19.3288 38.4C23.3288 43.8 34.1287 36 28.4287 30.1C26.2287 27.8 22.7288 27.2 19.8288 28.2Z" fill="#EF477A"/>
<path d="M27.5287 9.49997C28.7287 10.2 29.6287 11.1 30.1287 12.3C30.6287 13.4 31.4287 14.3 32.5287 15C33.5287 15.6 34.7287 15.9 35.9287 15.9C37.3287 15.9 38.5287 15.5 39.5287 14.7C40.5287 13.9 40.9287 12.9 40.9287 11.8C40.9287 10.4 40.4287 9.00001 39.4287 7.60001C39.3287 8.80001 38.7287 9.89998 37.2287 10.7C33.4287 12.6 29.6287 6.79998 26.1287 6.19998C19.4287 4.99998 12.8287 9.59998 11.3287 16.2C10.8287 18.3 10.5287 20.6 11.4287 22.7C11.9287 23.8 12.8287 22.2 13.2287 21.5C13.7287 17 14.7287 13.7 16.2287 11.9C17.1287 10.9 18.2287 9.99999 19.5287 9.39999C22.3287 7.99999 25.3287 8.19997 27.5287 9.49997Z" fill="#EF477A"/>
<path d="M41.8289 27.5C40.9289 25.5 39.6289 23.8 38.0289 22.3C36.4289 20.8 34.4289 19.7 32.2289 18.9C30.0289 18.1 27.6289 17.7 25.1289 17.7C24.2289 17.7 23.3289 17.8 22.4289 17.9C28.6289 17.4 34.8289 19.3 38.2289 25.2C42.0289 31.8 39.3289 40.5 33.2289 44.8C25.9289 49.9 14.5289 49.4 7.42889 44.2C6.22889 43.3 5.12891 42.3 4.12891 41.2C5.82891 44 8.12889 46.2 10.9289 47.8C14.2289 49.6 18.1289 50.5 22.6289 50.5C26.5289 50.5 30.1289 49.8 33.2289 48.4C36.3289 47 38.8289 44.9 40.6289 42.4C42.4289 39.8 43.3289 36.9 43.3289 33.8C43.2289 31.6 42.7289 29.5 41.8289 27.5Z" fill="#EF477A"/>
<path d="M10.6289 43.8001C1.12886 35.6001 1.92886 17.7 9.12886 8.20002C9.12886 8.20002 9.12885 8.10002 9.02885 8.20002C4.02885 12.6 2.72885 19.7 2.42885 26C2.12885 32.5 3.62887 41.1001 10.2289 44.3001C10.5289 44.4001 10.9289 44.0001 10.6289 43.8001Z" fill="white"/>
<path d="M29.4289 20C23.7289 17.8 16.1289 20.1 12.9289 25.3C12.8289 25.5 13.0289 25.5 13.1289 25.4C16.5289 21.1 23.9289 19.6 28.9289 21C29.4289 21.2 30.0289 20.2 29.4289 20Z" fill="white"/>
<path d="M32.129 21.3C31.929 21.2 31.829 21.1 31.629 21.1C31.529 21.1 31.429 21 31.429 21C31.029 20.8 30.629 21.3 30.929 21.7C31.129 22 31.329 22 31.629 22.1C32.029 22.2 32.629 21.6 32.129 21.3Z" fill="white"/>
</svg>
