<svg width="60" height="64" viewBox="0 0 60 64" fill="none" xmlns="http://www.w3.org/2000/svg">
<path d="M49.8 28.1C52.4 28.1 54.4 27.6 55.9 26.6C57.6 25.5 58.4 23.8 58.4 21.9C58.4 19.9 57.5 16.7 52 15.8L53.2 11C53.2 10.9 53.3 10.6 53.4 10.1C53.5 9.60001 53.7 9.00002 53.8 8.40002C53.9 7.80002 53.9 7.2 53.9 6.5C53.9 4.7 53.1 3.20001 51.7 2.10001C50.4 1.10001 48.7 0.700012 46.6 0.700012C44.7 0.700012 43.2 1.10002 42.1 1.90002C41 2.70002 40.2 3.70002 39.8 4.90002C39.5 5.80002 39.2 6.90002 38.8 8.30002L36.9 15.5H30.4L31.6 10.9C32.5 7.20002 32.5 6.90001 32.5 6.60001C32.5 4.90001 31.8 3.40002 30.4 2.30002C29.1 1.30002 27.4 0.800018 25.2 0.800018C23.6 0.800018 22.3 1.10001 21.2 1.70001C20.1 2.30001 19.2 3.20002 18.6 4.40002C18.1 5.40002 17.6 6.70002 17.2 8.30002L15.3 15.5H9.59999C6.99999 15.5 5 16 3.5 17C1.8 18.2 1 19.8 1 21.7C1 23 1.39999 24.8 3.59999 26.4C5.09999 27.5 7.1 28 9.7 28H12.2L10.4 35H9.7C7.1 35 5.09999 35.5 3.59999 36.6C1.99999 37.8 1.09999 39.4 1.09999 41.3C1.09999 43.3 1.99999 46.5 7.29999 47.3L6.09999 52.1C5.99999 52.6 5.79999 53.3 5.59999 54C5.39999 54.9 5.29999 55.7 5.29999 56.4C5.29999 58.2 6.1 59.7 7.5 60.8C8.8 61.8 10.5 62.3 12.6 62.3C15.4 62.3 17.3 61.5 18.3 60C19.1 58.9 19.7 57.1 20.4 54.7L22.3 47.5H28.9L27.8 52C27.3 53.8 27 55.2 27 56.5C27 58.3 27.8 59.8 29.2 60.9C30.5 61.9 32.2 62.4 34.3 62.4C36.2 62.4 37.7 62 38.8 61.1C39.9 60.3 40.7 59.3 41.1 58.2C41.4 57.4 41.7 56.3 42.1 54.8L44 47.6H49.9C52.6 47.6 54.6 47.1 56 46.1C57.6 44.9 58.5 43.3 58.5 41.4C58.5 39.5 57.6 37.9 56 36.7C54.5 35.6 52.5 35.1 49.9 35.1H47.1L48.9 28.1H49.8ZM33.7 28.1L31.9 35.1H25.3L27.1 28.1H33.7Z" fill="#7DCDCB" stroke="#221F1F" stroke-width="1.3482" stroke-miterlimit="10" stroke-linecap="round" stroke-linejoin="round"/>
<path d="M55.9001 36.8C54.4001 35.7001 52.4 35.2 49.8 35.2H47.0001L48.8 28.2H49.7001C52.3001 28.2 54.3 27.7 55.8 26.7C57.5 25.6 58.3 23.9 58.3 22C58.3 20 57.4001 16.8001 51.9001 15.9001L53.1001 11.1C53.1001 11 53.2 10.7 53.3 10.2C53.4 9.70004 53.6001 9.10003 53.7001 8.50003C53.8001 7.90003 53.8 7.30004 53.8 6.60004C53.8 4.80004 53.0001 3.30004 51.6001 2.20004C50.3001 1.20004 48.6001 0.800049 46.5001 0.800049C44.6001 0.800049 43.1001 1.20003 42.0001 2.00003C41.4001 2.40003 40.9001 2.90003 40.5001 3.50003C42.8001 2.40003 45.5001 2.20005 47.7001 3.30005C52.8001 5.90005 49.8001 13.4 48.2001 18.2C49.5001 18.3 50.8001 18.6 51.7001 19.3C53.0001 20.3 54 22.4001 52.8 23.9001C51.3 25.7001 48.7001 26.2 46.1001 26.2C45.8001 27.6 45.3001 29 44.9001 30.5C44.4001 32.7 43.7001 34.9 43.1001 37.1C45.7001 37 48.4001 36.9 50.7001 38.2C52.2001 39 53.7001 41.9001 52.4001 43.4001C50.0001 46.3001 44.8001 45.4 40.7001 44.8C40.2001 48.2001 39.1001 51.7001 38.0001 54.9001C37.2001 57.3001 35.5001 59.2 32.9001 59.7C29.9001 60.2 27.9 59.0001 26.8 56.9001C26.9 58.6001 27.6001 60 29.0001 61C30.3001 62 32.0001 62.5 34.1001 62.5C36.0001 62.5 37.5001 62.1 38.6001 61.2C39.7001 60.4 40.5001 59.4 40.9001 58.3C41.2001 57.5 41.5001 56.4001 41.9001 54.9001L43.8 47.7H49.7001C52.4001 47.7 54.4 47.2 55.8 46.2C57.4 45 58.3 43.4 58.3 41.5C58.3 39.6 57.5001 38 55.9001 36.8Z" fill="#7DCDCB"/>
<path d="M21.8001 46.5C20.8001 44.8 19.8001 49.1001 19.5001 49.9001C18.6001 53.2001 18.0001 57.2 15.4001 59.7C13.5001 61.5 11.2001 62.3 9.1001 62C10.1001 62.3 11.2001 62.5 12.4001 62.5C15.2001 62.5 17.1001 61.7 18.1001 60.2C18.9001 59.1 19.5001 57.3001 20.2001 54.9001L22.1001 47.7H22.3001C22.2001 47.3 22.1001 46.9 21.8001 46.5Z" fill="#7DCDCB"/>
<path d="M34.7999 26.6C33.0999 26.2 31.4999 26.6001 29.7999 26.4001C28.7999 26.3001 24.3999 25.9 26.6999 27.6C26.8999 27.7 27.0999 27.9 27.2999 28H33.7999L31.9999 35H25.4999C25.1999 35.7 25.2999 36.4001 26.5999 36.4001C27.1999 36.4001 27.6999 36.4001 28.2999 36.4001C29.4999 36.4001 30.5999 36.7 31.7999 36.7C34.9999 36.7 34.8999 32.1001 35.5999 29.9001C35.8999 29.0001 36.2999 27 34.7999 26.6Z" fill="#7DCDCB"/>
<path d="M25.9999 2.40002C27.8999 3.60002 29.3999 5.6 29.0999 8C28.7999 10.1 27.8999 12 27.4999 14.1C27.0999 16.3 28.6999 16.2 30.3999 15.4L31.4999 11C32.3999 7.3 32.3999 7.00001 32.3999 6.70001C32.3999 5.00001 31.6999 3.50002 30.2999 2.40002C28.9999 1.40002 27.2999 0.900024 25.0999 0.900024C23.5999 0.900024 22.3999 1.20001 21.3999 1.70001C22.7999 1.20001 24.3999 1.40002 25.9999 2.40002Z" fill="#7DCDCB"/>
<path d="M3.59999 26.5C5.09999 27.6 7.1 28.1 9.7 28.1H12.2L10.4 35.1H9.7C7.1 35.1 5.09999 35.6 3.59999 36.7C3.09999 37.1 2.69999 37.5 2.29999 37.9C2.99999 37.4 3.79999 37 4.79999 36.7C6.29999 36.3 11.6 37.1 12 35.1C12.7 31.5 13.2 29.8 13.8 26.5C13.9 25.8 7.1 25.5 6.2 25.3C4.2 24.8 2.7 24 1.5 22.2C1.3 21.8 1.1 21.4 1 21.1C1 21.3 1 21.5 1 21.8C1 23.1 1.39999 25 3.59999 26.5Z" fill="#7DCDCB"/>
<path d="M24.6001 3.20001C22.9001 2.40001 21.0001 4.9 20.2001 6.1C19.5001 7.2 19.3001 8.50002 19.0001 9.80002C18.5001 11.6 17.8 13.4 17.8 15.3C17.8 15.9 18.6001 15.5 18.7001 15.2C19.6001 13.3 20.2001 11.2 20.7001 9.1C21.3001 6.9 22.0001 4.40001 24.5001 3.70001C24.6001 3.70001 24.8001 3.40001 24.6001 3.20001Z" fill="white"/>
<path d="M7.90005 44.2C7.10005 43.5 6.20005 43.1 5.60005 42.1C4.60005 40.6 6.10005 39.2 7.30005 38.5C7.90005 38.1 7.60005 37.2 6.90005 37.6C5.10005 38.6 3.80005 39.8 3.80005 41.9C3.80005 43.7 6.00006 45.2 7.70006 44.9C7.80006 44.8 8.20006 44.4 7.90005 44.2Z" fill="white"/>
<path d="M9.30005 48.7C9.00005 49.9 8.50006 50.9 8.20006 52.1C7.90006 53.6 7.40005 55.2 7.30005 56.7C7.30005 57.6 8.30006 57.2 8.50006 56.6C8.80006 55.1 9.10005 53.5 9.40005 52C9.60005 50.9 10.0001 49.7 9.90005 48.6C9.80006 48.2 9.30005 48.5 9.30005 48.7Z" fill="white"/>
<path d="M8.20007 17.1C7.50007 17.2 6.90006 17.1 6.30006 17.3C5.70006 17.5 5.30007 18 4.90007 18.4C4.10007 19.2 3.10007 21 4.10007 22C4.50007 22.4 5.30007 21.8 5.20007 21.3C5.10007 20.9 5.00007 20.5 5.10007 20.1C5.20007 19.6 5.60007 19.2 5.90007 18.9C6.60007 18.1 7.40006 18 8.30006 17.6C8.30006 17.4 8.50007 17.1 8.20007 17.1Z" fill="white"/>
<path d="M43.6001 3.80005C42.3001 4.10005 41.5001 5.30003 41.1001 6.50003C40.6001 7.80003 40.3001 9.20003 39.9001 10.5C39.6001 11.5 39.2001 12.4 39.3001 13.5C39.3001 14.1 40.1001 13.7001 40.2001 13.4001C40.8001 11.9001 41.3001 10.2 41.8001 8.60004C42.2001 7.20004 42.4001 5.10004 43.7001 4.20004C43.8001 4.10004 43.9001 3.80005 43.6001 3.80005Z" fill="white"/>
<path d="M25.1001 28.9C25.0001 28.7 24.7 29 24.8 29.1C24.8 29.4 24.6001 29.6 24.5001 29.9C24.4001 30.2 24.3001 30.5 24.2001 30.8C24.0001 31.4 23.9 32 23.8 32.6C23.8 33.1 24.4001 32.9 24.5001 32.6C24.8001 31.9 24.9001 31.1 25.1001 30.3C25.2001 29.8 25.5001 29.3 25.1001 28.9Z" fill="white"/>
<path d="M31.1001 48.1C31.2001 47.8 30.7001 47.9 30.6001 48.1C29.8001 50 27.0001 56 29.7001 57.4C30.1001 57.6 30.5001 57.1 30.4001 56.8C29.5001 54 30.5001 50.9 31.1001 48.1Z" fill="white"/>
</svg>
