<svg width="140" height="127" viewBox="0 0 140 127" fill="none" xmlns="http://www.w3.org/2000/svg">
<path d="M36.7807 110.012C35.8845 110.012 35.0599 110.252 34.3788 110.662C34.3609 110.677 34.334 110.685 34.3161 110.7C34.2892 110.716 34.2713 110.731 34.2444 110.747C33.6081 111.126 32.8373 111.343 32.0039 111.343C31.3855 111.343 30.8029 111.219 30.2831 111.002V100.576H18.2201C17.9691 100.127 17.8257 99.6236 17.8257 99.0895C17.8257 98.3696 18.0856 97.7039 18.5248 97.1543C18.5248 97.1543 18.5248 97.1543 18.5337 97.1466C18.5606 97.1156 18.5875 97.0769 18.6144 97.046C18.6144 97.046 18.6144 97.0382 18.6234 97.0382C18.8564 96.7441 19.0446 96.419 19.179 96.0706C19.3045 95.7223 19.3762 95.3508 19.3762 94.9637C19.3762 92.9511 17.4852 91.3179 15.155 91.3179C12.8248 91.3179 10.9338 92.9511 10.9338 94.9637C10.9338 95.7378 11.2117 96.4499 11.6866 97.0382C11.7046 97.0537 11.7135 97.0769 11.7315 97.0924C11.7494 97.1156 11.7673 97.1311 11.7852 97.1543C12.2244 97.7039 12.4753 98.3696 12.4753 99.0895C12.4753 99.6236 12.3319 100.127 12.081 100.576H0V110.964C0.546691 111.204 1.15612 111.343 1.81036 111.343C2.64384 111.343 3.41458 111.126 4.05089 110.747C4.0957 110.724 4.14052 110.693 4.18533 110.662C4.86645 110.252 5.69097 110.012 6.58718 110.012C8.91734 110.012 10.8084 111.645 10.8084 113.657C10.8084 115.67 8.91734 117.303 6.58718 117.303C5.69097 117.303 4.86645 117.063 4.18533 116.653C4.18533 116.653 4.18533 116.653 4.17636 116.645C4.14052 116.622 4.0957 116.599 4.05986 116.576C4.05986 116.576 4.05986 116.576 4.05089 116.568C3.41458 116.189 2.64384 115.964 1.81036 115.964C1.15612 115.964 0.537729 116.103 0 116.343V126.724H12.0272C12.305 126.251 12.4664 125.725 12.4664 125.16C12.4664 124.44 12.2154 123.774 11.7763 123.225C11.7494 123.186 11.7135 123.147 11.6777 123.109C11.2027 122.52 10.9249 121.808 10.9249 121.034C10.9249 119.022 12.8159 117.388 15.146 117.388C17.4762 117.388 19.3672 119.022 19.3672 121.034C19.3672 121.808 19.0894 122.52 18.6144 123.109C18.6144 123.109 18.6144 123.116 18.6054 123.116C18.5785 123.147 18.5517 123.186 18.5248 123.217C18.5248 123.217 18.5248 123.217 18.5158 123.225C18.0767 123.774 17.8168 124.44 17.8168 125.16C17.8168 125.725 17.9781 126.259 18.2559 126.724H30.2742V116.305C30.794 116.088 31.3765 115.964 31.9949 115.964C32.8284 115.964 33.5991 116.189 34.2354 116.568C34.2354 116.568 34.2444 116.568 34.2444 116.576C34.2802 116.599 34.3251 116.622 34.3609 116.645C34.3609 116.645 34.3699 116.645 34.3699 116.653C34.7104 116.854 35.0868 117.017 35.4901 117.133C35.8934 117.241 36.3236 117.303 36.7717 117.303C39.1019 117.303 40.9929 115.67 40.9929 113.657C40.9929 111.645 39.1108 110.012 36.7807 110.012Z" fill="url(#paint0_linear_50_8566)"/>
<path d="M36.7807 110.012C35.8845 110.012 35.0599 110.252 34.3788 110.662C34.3609 110.677 34.334 110.685 34.3161 110.7C34.2892 110.716 34.2713 110.731 34.2444 110.747C33.6081 111.126 32.8373 111.343 32.0039 111.343C31.3855 111.343 30.8029 111.219 30.2831 111.002V100.576H18.2201C17.9691 100.127 17.8257 99.6236 17.8257 99.0895C17.8257 98.3696 18.0856 97.7039 18.5248 97.1543C18.5248 97.1543 18.5248 97.1543 18.5337 97.1466C18.5606 97.1156 18.5875 97.0769 18.6144 97.046C18.6144 97.046 18.6144 97.0382 18.6234 97.0382C18.8564 96.7441 19.0446 96.419 19.179 96.0706C19.3045 95.7223 19.3762 95.3508 19.3762 94.9637C19.3762 92.9511 17.4852 91.3179 15.155 91.3179C12.8248 91.3179 10.9338 92.9511 10.9338 94.9637C10.9338 95.7378 11.2117 96.4499 11.6866 97.0382C11.7046 97.0537 11.7135 97.0769 11.7315 97.0924C11.7494 97.1156 11.7673 97.1311 11.7852 97.1543C12.2244 97.7039 12.4753 98.3696 12.4753 99.0895C12.4753 99.6236 12.3319 100.127 12.081 100.576H0V110.964C0.546691 111.204 1.15612 111.343 1.81036 111.343C2.64384 111.343 3.41458 111.126 4.05089 110.747C4.0957 110.724 4.14052 110.693 4.18533 110.662C4.86645 110.252 5.69097 110.012 6.58718 110.012C8.91734 110.012 10.8084 111.645 10.8084 113.657C10.8084 115.67 8.91734 117.303 6.58718 117.303C5.69097 117.303 4.86645 117.063 4.18533 116.653C4.18533 116.653 4.18533 116.653 4.17636 116.645C4.14052 116.622 4.0957 116.599 4.05986 116.576C4.05986 116.576 4.05986 116.576 4.05089 116.568C3.41458 116.189 2.64384 115.964 1.81036 115.964C1.15612 115.964 0.537729 116.103 0 116.343V126.724H12.0272C12.305 126.251 12.4664 125.725 12.4664 125.16C12.4664 124.44 12.2154 123.774 11.7763 123.225C11.7494 123.186 11.7135 123.147 11.6777 123.109C11.2027 122.52 10.9249 121.808 10.9249 121.034C10.9249 119.022 12.8159 117.388 15.146 117.388C17.4762 117.388 19.3672 119.022 19.3672 121.034C19.3672 121.808 19.0894 122.52 18.6144 123.109C18.6144 123.109 18.6144 123.116 18.6054 123.116C18.5785 123.147 18.5517 123.186 18.5248 123.217C18.5248 123.217 18.5248 123.217 18.5158 123.225C18.0767 123.774 17.8168 124.44 17.8168 125.16C17.8168 125.725 17.9781 126.259 18.2559 126.724H30.2742V116.305C30.794 116.088 31.3765 115.964 31.9949 115.964C32.8284 115.964 33.5991 116.189 34.2354 116.568C34.2354 116.568 34.2444 116.568 34.2444 116.576C34.2802 116.599 34.3251 116.622 34.3609 116.645C34.3609 116.645 34.3699 116.645 34.3699 116.653C34.7104 116.854 35.0868 117.017 35.4901 117.133C35.8934 117.241 36.3236 117.303 36.7717 117.303C39.1019 117.303 40.9929 115.67 40.9929 113.657C40.9929 111.645 39.1108 110.012 36.7807 110.012Z" fill="url(#paint1_linear_50_8566)"/>
<path d="M36.7807 83.1902C35.8845 83.1902 35.0599 83.4302 34.3788 83.8404C34.3609 83.8559 34.334 83.8637 34.3161 83.8791C34.2892 83.8946 34.2713 83.9101 34.2444 83.9256C33.6081 84.3049 32.8373 84.5216 32.0039 84.5216C31.3855 84.5216 30.8029 84.3978 30.2831 84.181V73.7621H18.2201C17.9691 73.3131 17.8257 72.81 17.8257 72.2759C17.8257 71.556 18.0856 70.8903 18.5248 70.3407C18.5248 70.3407 18.5248 70.3407 18.5337 70.333C18.5606 70.302 18.5875 70.2633 18.6144 70.2324C18.6144 70.2324 18.6144 70.2246 18.6234 70.2246C18.8564 69.9305 19.0446 69.6054 19.179 69.257C19.3045 68.9087 19.3762 68.5372 19.3762 68.1501C19.3762 66.1375 17.4852 64.5043 15.155 64.5043C12.8248 64.5043 10.9338 66.1375 10.9338 68.1501C10.9338 68.9242 11.2117 69.6363 11.6866 70.2246C11.7046 70.2401 11.7135 70.2633 11.7315 70.2788C11.7494 70.302 11.7673 70.3175 11.7852 70.3407C12.2244 70.8903 12.4753 71.556 12.4753 72.2759C12.4753 72.81 12.3319 73.3131 12.081 73.7621H0V84.1501C0.546691 84.39 1.15612 84.5294 1.81036 84.5294C2.64384 84.5294 3.41458 84.3126 4.05089 83.9333C4.0957 83.9101 4.14052 83.8791 4.18533 83.8482C4.86645 83.4379 5.69097 83.198 6.58718 83.198C8.91734 83.198 10.8084 84.8312 10.8084 86.8438C10.8084 88.8564 8.91734 90.4897 6.58718 90.4897C5.69097 90.4897 4.86645 90.2497 4.18533 89.8395C4.18533 89.8395 4.18533 89.8394 4.17636 89.8317C4.14052 89.8085 4.0957 89.7853 4.05986 89.762C4.05986 89.762 4.05986 89.762 4.05089 89.7543C3.41458 89.375 2.64384 89.1505 1.81036 89.1505C1.15612 89.1505 0.537729 89.2899 0 89.5298V99.91H12.0272C12.305 99.4379 12.4664 98.9115 12.4664 98.3464C12.4664 97.6265 12.2154 96.9608 11.7763 96.4113C11.7494 96.3726 11.7135 96.3339 11.6777 96.2952C11.2027 95.7069 10.9249 94.9947 10.9249 94.2207C10.9249 92.2081 12.8159 90.5748 15.146 90.5748C17.4762 90.5748 19.3672 92.2081 19.3672 94.2207C19.3672 94.9947 19.0894 95.7069 18.6144 96.2952C18.6144 96.2952 18.6144 96.3029 18.6054 96.3029C18.5785 96.3339 18.5517 96.3726 18.5248 96.4035C18.5248 96.4035 18.5248 96.4035 18.5158 96.4113C18.0767 96.9608 17.8168 97.6265 17.8168 98.3464C17.8168 98.9115 17.9781 99.4456 18.2559 99.91H30.2742V89.4911C30.794 89.2744 31.3765 89.1505 31.9949 89.1505C32.8284 89.1505 33.5991 89.375 34.2354 89.7543C34.2354 89.7543 34.2444 89.7543 34.2444 89.762C34.2802 89.7853 34.3251 89.8085 34.3609 89.8317C34.3609 89.8317 34.3699 89.8317 34.3699 89.8395C34.7104 90.0407 35.0868 90.2033 35.4901 90.3194C35.8934 90.4277 36.3236 90.4897 36.7717 90.4897C39.1019 90.4897 40.9929 88.8564 40.9929 86.8438C40.9929 84.8312 39.1108 83.1902 36.7807 83.1902Z" fill="url(#paint2_linear_50_8566)"/>
<path d="M36.7807 83.1902C35.8845 83.1902 35.0599 83.4302 34.3788 83.8404C34.3609 83.8559 34.334 83.8637 34.3161 83.8791C34.2892 83.8946 34.2713 83.9101 34.2444 83.9256C33.6081 84.3049 32.8373 84.5216 32.0039 84.5216C31.3855 84.5216 30.8029 84.3978 30.2831 84.181V73.7621H18.2201C17.9691 73.3131 17.8257 72.81 17.8257 72.2759C17.8257 71.556 18.0856 70.8903 18.5248 70.3407C18.5248 70.3407 18.5248 70.3407 18.5337 70.333C18.5606 70.302 18.5875 70.2633 18.6144 70.2324C18.6144 70.2324 18.6144 70.2246 18.6234 70.2246C18.8564 69.9305 19.0446 69.6054 19.179 69.257C19.3045 68.9087 19.3762 68.5372 19.3762 68.1501C19.3762 66.1375 17.4852 64.5043 15.155 64.5043C12.8248 64.5043 10.9338 66.1375 10.9338 68.1501C10.9338 68.9242 11.2117 69.6363 11.6866 70.2246C11.7046 70.2401 11.7135 70.2633 11.7315 70.2788C11.7494 70.302 11.7673 70.3175 11.7852 70.3407C12.2244 70.8903 12.4753 71.556 12.4753 72.2759C12.4753 72.81 12.3319 73.3131 12.081 73.7621H0V84.1501C0.546691 84.39 1.15612 84.5294 1.81036 84.5294C2.64384 84.5294 3.41458 84.3126 4.05089 83.9333C4.0957 83.9101 4.14052 83.8791 4.18533 83.8482C4.86645 83.4379 5.69097 83.198 6.58718 83.198C8.91734 83.198 10.8084 84.8312 10.8084 86.8438C10.8084 88.8564 8.91734 90.4897 6.58718 90.4897C5.69097 90.4897 4.86645 90.2497 4.18533 89.8395C4.18533 89.8395 4.18533 89.8394 4.17636 89.8317C4.14052 89.8085 4.0957 89.7853 4.05986 89.762C4.05986 89.762 4.05986 89.762 4.05089 89.7543C3.41458 89.375 2.64384 89.1505 1.81036 89.1505C1.15612 89.1505 0.537729 89.2899 0 89.5298V99.91H12.0272C12.305 99.4379 12.4664 98.9115 12.4664 98.3464C12.4664 97.6265 12.2154 96.9608 11.7763 96.4113C11.7494 96.3726 11.7135 96.3339 11.6777 96.2952C11.2027 95.7069 10.9249 94.9947 10.9249 94.2207C10.9249 92.2081 12.8159 90.5748 15.146 90.5748C17.4762 90.5748 19.3672 92.2081 19.3672 94.2207C19.3672 94.9947 19.0894 95.7069 18.6144 96.2952C18.6144 96.2952 18.6144 96.3029 18.6054 96.3029C18.5785 96.3339 18.5517 96.3726 18.5248 96.4035C18.5248 96.4035 18.5248 96.4035 18.5158 96.4113C18.0767 96.9608 17.8168 97.6265 17.8168 98.3464C17.8168 98.9115 17.9781 99.4456 18.2559 99.91H30.2742V89.4911C30.794 89.2744 31.3765 89.1505 31.9949 89.1505C32.8284 89.1505 33.5991 89.375 34.2354 89.7543C34.2354 89.7543 34.2444 89.7543 34.2444 89.762C34.2802 89.7853 34.3251 89.8085 34.3609 89.8317C34.3609 89.8317 34.3699 89.8317 34.3699 89.8395C34.7104 90.0407 35.0868 90.2033 35.4901 90.3194C35.8934 90.4277 36.3236 90.4897 36.7717 90.4897C39.1019 90.4897 40.9929 88.8564 40.9929 86.8438C40.9929 84.8312 39.1108 83.1902 36.7807 83.1902Z" fill="url(#paint3_linear_50_8566)"/>
<path d="M36.7807 56.1985C35.8845 56.1985 35.0599 56.4385 34.3788 56.8487C34.3609 56.8642 34.334 56.872 34.3161 56.8874C34.2892 56.9029 34.2713 56.9184 34.2444 56.9339C33.6081 57.3132 32.8373 57.5299 32.0039 57.5299C31.3855 57.5299 30.8029 57.4061 30.2831 57.1893V46.7704H18.2201C17.9691 46.3214 17.8257 45.8183 17.8257 45.2842C17.8257 44.5643 18.0856 43.8986 18.5248 43.349C18.5248 43.349 18.5248 43.3413 18.5337 43.3413C18.5606 43.3103 18.5875 43.2716 18.6144 43.2407C18.6144 43.2407 18.6144 43.2329 18.6234 43.2329C18.8564 42.9388 19.0446 42.6137 19.179 42.2653C19.3045 41.917 19.3762 41.5455 19.3762 41.1584C19.3762 39.1459 17.4852 37.5126 15.155 37.5126C12.8248 37.5126 10.9338 39.1459 10.9338 41.1584C10.9338 41.9325 11.2117 42.6446 11.6866 43.2329C11.7046 43.2484 11.7135 43.2716 11.7315 43.2871C11.7494 43.3103 11.7673 43.3258 11.7852 43.349C12.2244 43.8986 12.4753 44.5643 12.4753 45.2842C12.4753 45.8183 12.3319 46.3214 12.081 46.7704H0V57.1506C0.546691 57.3906 1.15612 57.5299 1.81036 57.5299C2.64384 57.5299 3.41458 57.3132 4.05089 56.9339C4.0957 56.9107 4.14052 56.8797 4.18533 56.8487C4.86645 56.4385 5.69097 56.1985 6.58718 56.1985C8.91734 56.1985 10.8084 57.8318 10.8084 59.8444C10.8084 61.8569 8.91734 63.4902 6.58718 63.4902C5.69097 63.4902 4.86645 63.2503 4.18533 62.84C4.18533 62.84 4.18533 62.84 4.17636 62.8323C4.14052 62.809 4.0957 62.7858 4.05986 62.7626C4.05986 62.7626 4.05986 62.7626 4.05089 62.7626C3.41458 62.3833 2.64384 62.1588 1.81036 62.1588C1.15612 62.1588 0.537729 62.2982 0 62.5381V72.9183H12.0272C12.305 72.4462 12.4664 71.9198 12.4664 71.3547C12.4664 70.6348 12.2154 69.9691 11.7763 69.4196C11.7494 69.3809 11.7135 69.3422 11.6777 69.3035C11.2027 68.7152 10.9249 68.003 10.9249 67.229C10.9249 65.2164 12.8159 63.5831 15.146 63.5831C17.4762 63.5831 19.3672 65.2164 19.3672 67.229C19.3672 68.003 19.0894 68.7152 18.6144 69.3035C18.6144 69.3035 18.6144 69.3112 18.6054 69.3112C18.5785 69.3422 18.5517 69.3809 18.5248 69.4118C18.5248 69.4118 18.5248 69.4118 18.5158 69.4196C18.0767 69.9691 17.8168 70.6348 17.8168 71.3547C17.8168 71.9198 17.9781 72.4539 18.2559 72.9183H30.2742V62.4994C30.794 62.2827 31.3765 62.1588 31.9949 62.1588C32.8284 62.1588 33.5991 62.3833 34.2354 62.7626H34.2444C34.2802 62.7858 34.3251 62.809 34.3609 62.8323C34.3609 62.8323 34.3699 62.8323 34.3699 62.84C34.7104 63.0413 35.0868 63.2038 35.4901 63.3199C35.8934 63.4283 36.3236 63.4902 36.7717 63.4902C39.1019 63.4902 40.9929 61.8569 40.9929 59.8444C40.9929 57.8318 39.1108 56.1985 36.7807 56.1985Z" fill="url(#paint4_linear_50_8566)"/>
<path d="M36.7807 56.1985C35.8845 56.1985 35.0599 56.4385 34.3788 56.8487C34.3609 56.8642 34.334 56.872 34.3161 56.8874C34.2892 56.9029 34.2713 56.9184 34.2444 56.9339C33.6081 57.3132 32.8373 57.5299 32.0039 57.5299C31.3855 57.5299 30.8029 57.4061 30.2831 57.1893V46.7704H18.2201C17.9691 46.3214 17.8257 45.8183 17.8257 45.2842C17.8257 44.5643 18.0856 43.8986 18.5248 43.349C18.5248 43.349 18.5248 43.3413 18.5337 43.3413C18.5606 43.3103 18.5875 43.2716 18.6144 43.2407C18.6144 43.2407 18.6144 43.2329 18.6234 43.2329C18.8564 42.9388 19.0446 42.6137 19.179 42.2653C19.3045 41.917 19.3762 41.5455 19.3762 41.1584C19.3762 39.1459 17.4852 37.5126 15.155 37.5126C12.8248 37.5126 10.9338 39.1459 10.9338 41.1584C10.9338 41.9325 11.2117 42.6446 11.6866 43.2329C11.7046 43.2484 11.7135 43.2716 11.7315 43.2871C11.7494 43.3103 11.7673 43.3258 11.7852 43.349C12.2244 43.8986 12.4753 44.5643 12.4753 45.2842C12.4753 45.8183 12.3319 46.3214 12.081 46.7704H0V57.1506C0.546691 57.3906 1.15612 57.5299 1.81036 57.5299C2.64384 57.5299 3.41458 57.3132 4.05089 56.9339C4.0957 56.9107 4.14052 56.8797 4.18533 56.8487C4.86645 56.4385 5.69097 56.1985 6.58718 56.1985C8.91734 56.1985 10.8084 57.8318 10.8084 59.8444C10.8084 61.8569 8.91734 63.4902 6.58718 63.4902C5.69097 63.4902 4.86645 63.2503 4.18533 62.84C4.18533 62.84 4.18533 62.84 4.17636 62.8323C4.14052 62.809 4.0957 62.7858 4.05986 62.7626C4.05986 62.7626 4.05986 62.7626 4.05089 62.7626C3.41458 62.3833 2.64384 62.1588 1.81036 62.1588C1.15612 62.1588 0.537729 62.2982 0 62.5381V72.9183H12.0272C12.305 72.4462 12.4664 71.9198 12.4664 71.3547C12.4664 70.6348 12.2154 69.9691 11.7763 69.4196C11.7494 69.3809 11.7135 69.3422 11.6777 69.3035C11.2027 68.7152 10.9249 68.003 10.9249 67.229C10.9249 65.2164 12.8159 63.5831 15.146 63.5831C17.4762 63.5831 19.3672 65.2164 19.3672 67.229C19.3672 68.003 19.0894 68.7152 18.6144 69.3035C18.6144 69.3035 18.6144 69.3112 18.6054 69.3112C18.5785 69.3422 18.5517 69.3809 18.5248 69.4118C18.5248 69.4118 18.5248 69.4118 18.5158 69.4196C18.0767 69.9691 17.8168 70.6348 17.8168 71.3547C17.8168 71.9198 17.9781 72.4539 18.2559 72.9183H30.2742V62.4994C30.794 62.2827 31.3765 62.1588 31.9949 62.1588C32.8284 62.1588 33.5991 62.3833 34.2354 62.7626H34.2444C34.2802 62.7858 34.3251 62.809 34.3609 62.8323C34.3609 62.8323 34.3699 62.8323 34.3699 62.84C34.7104 63.0413 35.0868 63.2038 35.4901 63.3199C35.8934 63.4283 36.3236 63.4902 36.7717 63.4902C39.1019 63.4902 40.9929 61.8569 40.9929 59.8444C40.9929 57.8318 39.1108 56.1985 36.7807 56.1985Z" fill="url(#paint5_linear_50_8566)"/>
<path d="M68.2378 83.1902C67.3416 83.1902 66.5171 83.4302 65.8359 83.8404C65.818 83.8559 65.7911 83.8637 65.7732 83.8791C65.7463 83.8946 65.7284 83.9101 65.7015 83.9256C65.0652 84.3049 64.2945 84.5216 63.461 84.5216C62.8426 84.5216 62.26 84.3978 61.7402 84.181V73.7621H49.6772C49.4262 73.3131 49.2829 72.81 49.2829 72.2759C49.2829 71.556 49.5428 70.8903 49.9819 70.3407C49.9819 70.3407 49.9819 70.3407 49.9909 70.333C50.0177 70.302 50.0446 70.2633 50.0715 70.2324C50.0715 70.2324 50.0715 70.2246 50.0805 70.2246C50.3135 69.9305 50.5017 69.6054 50.6361 69.257C50.7616 68.9087 50.8333 68.5372 50.8333 68.1501C50.8333 66.1375 48.9423 64.5043 46.6121 64.5043C44.282 64.5043 42.391 66.1375 42.391 68.1501C42.391 68.9242 42.6688 69.6363 43.1438 70.2246C43.1617 70.2401 43.1707 70.2633 43.1886 70.2788C43.2065 70.302 43.2244 70.3175 43.2424 70.3407C43.6815 70.8903 43.9324 71.556 43.9324 72.2759C43.9324 72.81 43.789 73.3131 43.5381 73.7621H31.4571V84.1501C32.0038 84.39 32.6132 84.5294 33.2675 84.5294C34.101 84.5294 34.8717 84.3126 35.508 83.9333C35.5528 83.9101 35.5976 83.8791 35.6424 83.8482C36.3236 83.4379 37.1481 83.198 38.0443 83.198C40.3745 83.198 42.2655 84.8312 42.2655 86.8438C42.2655 88.8564 40.3745 90.4897 38.0443 90.4897C37.1481 90.4897 36.3236 90.2497 35.6424 89.8395C35.6424 89.8395 35.6424 89.8394 35.6335 89.8317C35.5976 89.8085 35.5528 89.7853 35.517 89.762C35.517 89.762 35.517 89.762 35.508 89.7543C34.8717 89.375 34.101 89.1505 33.2675 89.1505C32.6132 89.1505 31.9949 89.2899 31.4571 89.5298V99.91H43.4843C43.7622 99.4379 43.9235 98.9115 43.9235 98.3464C43.9235 97.6265 43.6725 96.9608 43.2334 96.4113C43.2065 96.3726 43.1707 96.3339 43.1348 96.2952C42.6598 95.7069 42.382 94.9947 42.382 94.2207C42.382 92.2081 44.273 90.5748 46.6032 90.5748C48.9333 90.5748 50.8243 92.2081 50.8243 94.2207C50.8243 94.9947 50.5465 95.7069 50.0715 96.2952C50.0715 96.2952 50.0715 96.3029 50.0626 96.3029C50.0357 96.3339 50.0088 96.3726 49.9819 96.4035C49.9819 96.4035 49.9819 96.4035 49.9729 96.4113C49.5338 96.9608 49.2739 97.6265 49.2739 98.3464C49.2739 98.9115 49.4352 99.4456 49.713 99.91H61.7313V89.4911C62.2511 89.2744 62.8336 89.1505 63.452 89.1505C64.2855 89.1505 65.0562 89.375 65.6926 89.7543C65.6926 89.7543 65.7015 89.7543 65.7015 89.762C65.7374 89.7853 65.7822 89.8085 65.818 89.8317C65.818 89.8317 65.827 89.8317 65.827 89.8395C66.1675 90.0407 66.544 90.2033 66.9473 90.3194C67.3506 90.4277 67.7807 90.4897 68.2288 90.4897C70.559 90.4897 72.45 88.8564 72.45 86.8438C72.45 84.8312 70.568 83.1902 68.2378 83.1902Z" fill="url(#paint6_linear_50_8566)"/>
<path d="M68.2378 83.1902C67.3416 83.1902 66.5171 83.4302 65.8359 83.8404C65.818 83.8559 65.7911 83.8637 65.7732 83.8791C65.7463 83.8946 65.7284 83.9101 65.7015 83.9256C65.0652 84.3049 64.2945 84.5216 63.461 84.5216C62.8426 84.5216 62.26 84.3978 61.7402 84.181V73.7621H49.6772C49.4262 73.3131 49.2829 72.81 49.2829 72.2759C49.2829 71.556 49.5428 70.8903 49.9819 70.3407C49.9819 70.3407 49.9819 70.3407 49.9909 70.333C50.0177 70.302 50.0446 70.2633 50.0715 70.2324C50.0715 70.2324 50.0715 70.2246 50.0805 70.2246C50.3135 69.9305 50.5017 69.6054 50.6361 69.257C50.7616 68.9087 50.8333 68.5372 50.8333 68.1501C50.8333 66.1375 48.9423 64.5043 46.6121 64.5043C44.282 64.5043 42.391 66.1375 42.391 68.1501C42.391 68.9242 42.6688 69.6363 43.1438 70.2246C43.1617 70.2401 43.1707 70.2633 43.1886 70.2788C43.2065 70.302 43.2244 70.3175 43.2424 70.3407C43.6815 70.8903 43.9324 71.556 43.9324 72.2759C43.9324 72.81 43.789 73.3131 43.5381 73.7621H31.4571V84.1501C32.0038 84.39 32.6132 84.5294 33.2675 84.5294C34.101 84.5294 34.8717 84.3126 35.508 83.9333C35.5528 83.9101 35.5976 83.8791 35.6424 83.8482C36.3236 83.4379 37.1481 83.198 38.0443 83.198C40.3745 83.198 42.2655 84.8312 42.2655 86.8438C42.2655 88.8564 40.3745 90.4897 38.0443 90.4897C37.1481 90.4897 36.3236 90.2497 35.6424 89.8395C35.6424 89.8395 35.6424 89.8394 35.6335 89.8317C35.5976 89.8085 35.5528 89.7853 35.517 89.762C35.517 89.762 35.517 89.762 35.508 89.7543C34.8717 89.375 34.101 89.1505 33.2675 89.1505C32.6132 89.1505 31.9949 89.2899 31.4571 89.5298V99.91H43.4843C43.7622 99.4379 43.9235 98.9115 43.9235 98.3464C43.9235 97.6265 43.6725 96.9608 43.2334 96.4113C43.2065 96.3726 43.1707 96.3339 43.1348 96.2952C42.6598 95.7069 42.382 94.9947 42.382 94.2207C42.382 92.2081 44.273 90.5748 46.6032 90.5748C48.9333 90.5748 50.8243 92.2081 50.8243 94.2207C50.8243 94.9947 50.5465 95.7069 50.0715 96.2952C50.0715 96.2952 50.0715 96.3029 50.0626 96.3029C50.0357 96.3339 50.0088 96.3726 49.9819 96.4035C49.9819 96.4035 49.9819 96.4035 49.9729 96.4113C49.5338 96.9608 49.2739 97.6265 49.2739 98.3464C49.2739 98.9115 49.4352 99.4456 49.713 99.91H61.7313V89.4911C62.2511 89.2744 62.8336 89.1505 63.452 89.1505C64.2855 89.1505 65.0562 89.375 65.6926 89.7543C65.6926 89.7543 65.7015 89.7543 65.7015 89.762C65.7374 89.7853 65.7822 89.8085 65.818 89.8317C65.818 89.8317 65.827 89.8317 65.827 89.8395C66.1675 90.0407 66.544 90.2033 66.9473 90.3194C67.3506 90.4277 67.7807 90.4897 68.2288 90.4897C70.559 90.4897 72.45 88.8564 72.45 86.8438C72.45 84.8312 70.568 83.1902 68.2378 83.1902Z" fill="url(#paint7_linear_50_8566)"/>
<path d="M99.4262 56.1985C98.53 56.1985 97.7054 56.4385 97.0243 56.8487C97.0064 56.8642 96.9795 56.872 96.9616 56.8874C96.9347 56.9029 96.9168 56.9184 96.8899 56.9339C96.2536 57.3132 95.4828 57.5299 94.6493 57.5299C94.031 57.5299 93.4484 57.4061 92.9286 57.1893V46.7704H80.8656C80.6146 46.3214 80.4712 45.8183 80.4712 45.2842C80.4712 44.5643 80.7311 43.8986 81.1703 43.349C81.1703 43.349 81.1703 43.3413 81.1792 43.3413C81.2061 43.3103 81.233 43.2716 81.2599 43.2407C81.2599 43.2407 81.2599 43.2329 81.2688 43.2329C81.5019 42.9388 81.6901 42.6137 81.8245 42.2653C81.95 41.917 82.0217 41.5455 82.0217 41.1584C82.0217 39.1459 80.1307 37.5126 77.8005 37.5126C75.4703 37.5126 73.5793 39.1459 73.5793 41.1584C73.5793 41.9325 73.8572 42.6446 74.3321 43.2329C74.3501 43.2484 74.359 43.2716 74.377 43.2871C74.3949 43.3103 74.4128 43.3258 74.4307 43.349C74.8699 43.8986 75.1208 44.5643 75.1208 45.2842C75.1208 45.8183 74.9774 46.3214 74.7265 46.7704H62.6455V57.1506C63.1922 57.3906 63.8016 57.5299 64.4558 57.5299C65.2893 57.5299 66.0601 57.3132 66.6964 56.9339C66.7412 56.9107 66.786 56.8797 66.8308 56.8487C67.5119 56.4385 68.3365 56.1985 69.2327 56.1985C71.5628 56.1985 73.4538 57.8318 73.4538 59.8444C73.4538 61.8569 71.5628 63.4902 69.2327 63.4902C68.3365 63.4902 67.5119 63.2503 66.8308 62.84C66.8308 62.84 66.8308 62.84 66.8219 62.8323C66.786 62.809 66.7412 62.7858 66.7053 62.7626C66.7053 62.7626 66.7053 62.7626 66.6964 62.7626C66.0601 62.3833 65.2893 62.1588 64.4558 62.1588C63.8016 62.1588 63.1832 62.2982 62.6455 62.5381V72.9183H74.6727C74.9505 72.4462 75.1118 71.9198 75.1118 71.3547C75.1118 70.6348 74.8609 69.9691 74.4218 69.4196C74.3949 69.3809 74.359 69.3422 74.3232 69.3035C73.8482 68.7152 73.5704 68.003 73.5704 67.229C73.5704 65.2164 75.4614 63.5831 77.7915 63.5831C80.1217 63.5831 82.0127 65.2164 82.0127 67.229C82.0127 68.003 81.7349 68.7152 81.2599 69.3035C81.2599 69.3035 81.2599 69.3112 81.2509 69.3112C81.224 69.3422 81.1972 69.3809 81.1703 69.4118C81.1703 69.4118 81.1703 69.4118 81.1613 69.4196C80.7222 69.9691 80.4623 70.6348 80.4623 71.3547C80.4623 71.9198 80.6236 72.4539 80.9014 72.9183H92.9197V62.4994C93.4395 62.2827 94.022 62.1588 94.6404 62.1588C95.4739 62.1588 96.2446 62.3833 96.8809 62.7626H96.8899C96.9257 62.7858 96.9705 62.809 97.0064 62.8323C97.0064 62.8323 97.0154 62.8323 97.0154 62.84C97.3559 63.0413 97.7323 63.2038 98.1356 63.3199C98.5389 63.4283 98.9691 63.4902 99.4172 63.4902C101.747 63.4902 103.638 61.8569 103.638 59.8444C103.638 57.8318 101.756 56.1985 99.4262 56.1985Z" fill="url(#paint8_linear_50_8566)"/>
<path d="M99.4262 56.1985C98.53 56.1985 97.7054 56.4385 97.0243 56.8487C97.0064 56.8642 96.9795 56.872 96.9616 56.8874C96.9347 56.9029 96.9168 56.9184 96.8899 56.9339C96.2536 57.3132 95.4828 57.5299 94.6493 57.5299C94.031 57.5299 93.4484 57.4061 92.9286 57.1893V46.7704H80.8656C80.6146 46.3214 80.4712 45.8183 80.4712 45.2842C80.4712 44.5643 80.7311 43.8986 81.1703 43.349C81.1703 43.349 81.1703 43.3413 81.1792 43.3413C81.2061 43.3103 81.233 43.2716 81.2599 43.2407C81.2599 43.2407 81.2599 43.2329 81.2688 43.2329C81.5019 42.9388 81.6901 42.6137 81.8245 42.2653C81.95 41.917 82.0217 41.5455 82.0217 41.1584C82.0217 39.1459 80.1307 37.5126 77.8005 37.5126C75.4703 37.5126 73.5793 39.1459 73.5793 41.1584C73.5793 41.9325 73.8572 42.6446 74.3321 43.2329C74.3501 43.2484 74.359 43.2716 74.377 43.2871C74.3949 43.3103 74.4128 43.3258 74.4307 43.349C74.8699 43.8986 75.1208 44.5643 75.1208 45.2842C75.1208 45.8183 74.9774 46.3214 74.7265 46.7704H62.6455V57.1506C63.1922 57.3906 63.8016 57.5299 64.4558 57.5299C65.2893 57.5299 66.0601 57.3132 66.6964 56.9339C66.7412 56.9107 66.786 56.8797 66.8308 56.8487C67.5119 56.4385 68.3365 56.1985 69.2327 56.1985C71.5628 56.1985 73.4538 57.8318 73.4538 59.8444C73.4538 61.8569 71.5628 63.4902 69.2327 63.4902C68.3365 63.4902 67.5119 63.2503 66.8308 62.84C66.8308 62.84 66.8308 62.84 66.8219 62.8323C66.786 62.809 66.7412 62.7858 66.7053 62.7626C66.7053 62.7626 66.7053 62.7626 66.6964 62.7626C66.0601 62.3833 65.2893 62.1588 64.4558 62.1588C63.8016 62.1588 63.1832 62.2982 62.6455 62.5381V72.9183H74.6727C74.9505 72.4462 75.1118 71.9198 75.1118 71.3547C75.1118 70.6348 74.8609 69.9691 74.4218 69.4196C74.3949 69.3809 74.359 69.3422 74.3232 69.3035C73.8482 68.7152 73.5704 68.003 73.5704 67.229C73.5704 65.2164 75.4614 63.5831 77.7915 63.5831C80.1217 63.5831 82.0127 65.2164 82.0127 67.229C82.0127 68.003 81.7349 68.7152 81.2599 69.3035C81.2599 69.3035 81.2599 69.3112 81.2509 69.3112C81.224 69.3422 81.1972 69.3809 81.1703 69.4118C81.1703 69.4118 81.1703 69.4118 81.1613 69.4196C80.7222 69.9691 80.4623 70.6348 80.4623 71.3547C80.4623 71.9198 80.6236 72.4539 80.9014 72.9183H92.9197V62.4994C93.4395 62.2827 94.022 62.1588 94.6404 62.1588C95.4739 62.1588 96.2446 62.3833 96.8809 62.7626H96.8899C96.9257 62.7858 96.9705 62.809 97.0064 62.8323C97.0064 62.8323 97.0154 62.8323 97.0154 62.84C97.3559 63.0413 97.7323 63.2038 98.1356 63.3199C98.5389 63.4283 98.9691 63.4902 99.4172 63.4902C101.747 63.4902 103.638 61.8569 103.638 59.8444C103.638 57.8318 101.756 56.1985 99.4262 56.1985Z" fill="url(#paint9_linear_50_8566)"/>
<path d="M122.602 74.5981C122.342 75.3334 122.369 76.092 122.629 76.7732C122.638 76.7964 122.647 76.8196 122.656 76.8351C122.665 76.8583 122.674 76.8816 122.683 76.9048C122.916 77.5395 122.943 78.2439 122.701 78.9251C122.522 79.436 122.217 79.8849 121.832 80.2487L110.279 77.2531L106.811 87.2308C106.237 87.3082 105.637 87.285 105.045 87.1302C104.248 86.9212 103.585 86.5187 103.101 86C103.101 86 103.101 86 103.092 85.9923C103.065 85.9613 103.029 85.9304 103.002 85.8917C103.002 85.8917 103.002 85.8839 102.993 85.8839C102.733 85.6053 102.428 85.3576 102.079 85.1486C101.729 84.9396 101.335 84.777 100.914 84.6687C98.6823 84.0881 96.3252 85.1795 95.662 87.107C94.9988 89.0344 96.2535 91.0702 98.4851 91.643C99.3365 91.8675 100.215 91.8443 101.003 91.6198C101.03 91.612 101.057 91.6043 101.075 91.5965C101.102 91.5888 101.129 91.5811 101.156 91.5733C101.891 91.3721 102.706 91.3488 103.495 91.5578C104.086 91.7127 104.606 91.9758 105.027 92.3087L101.559 102.286L113.075 105.274C113.497 104.895 113.828 104.423 114.017 103.881C114.258 103.192 114.232 102.495 113.999 101.861C113.981 101.814 113.963 101.768 113.945 101.729C113.685 101.048 113.658 100.297 113.918 99.5539C114.59 97.6265 116.938 96.5351 119.17 97.1156C121.401 97.6962 122.665 99.7242 121.993 101.652C121.733 102.387 121.231 103.006 120.586 103.455C120.586 103.455 120.577 103.455 120.577 103.463C120.541 103.486 120.496 103.509 120.46 103.54C120.46 103.54 120.46 103.54 120.451 103.548C119.851 103.966 119.385 104.539 119.143 105.228C118.955 105.77 118.928 106.319 119.044 106.838L130.561 109.826L134.02 99.879C133.581 99.5152 133.034 99.2288 132.407 99.0663C131.609 98.8573 130.803 98.8805 130.068 99.0818C130.014 99.0972 129.96 99.1127 129.915 99.1282C129.127 99.3527 128.257 99.3759 127.397 99.1514C125.165 98.5709 123.902 96.5428 124.574 94.6154C125.246 92.688 127.594 91.5965 129.826 92.1771C130.677 92.4016 131.394 92.835 131.914 93.3924C131.914 93.3924 131.914 93.4001 131.923 93.4001C131.95 93.4311 131.986 93.462 132.013 93.5007C132.013 93.5007 132.013 93.5007 132.021 93.5085C132.505 94.0271 133.169 94.4296 133.966 94.6386C134.594 94.8012 135.23 94.8244 135.83 94.7238L139.29 84.777L127.738 81.7814C127.648 81.286 127.675 80.7674 127.854 80.2565C128.096 79.5676 128.562 78.9948 129.163 78.5768C129.163 78.5768 129.163 78.5768 129.172 78.569C129.207 78.5458 129.243 78.5148 129.288 78.4916C129.288 78.4916 129.297 78.4916 129.297 78.4839C129.62 78.2594 129.906 77.9962 130.148 77.6943C130.39 77.3924 130.579 77.0519 130.704 76.688C131.376 74.7606 130.113 72.7248 127.881 72.152C125.631 71.5792 123.274 72.6706 122.602 74.5981Z" fill="url(#paint10_linear_50_8566)"/>
<path d="M122.602 74.5981C122.342 75.3334 122.369 76.092 122.629 76.7732C122.638 76.7964 122.647 76.8196 122.656 76.8351C122.665 76.8583 122.674 76.8816 122.683 76.9048C122.916 77.5395 122.943 78.2439 122.701 78.9251C122.522 79.436 122.217 79.8849 121.832 80.2487L110.279 77.2531L106.811 87.2308C106.237 87.3082 105.637 87.285 105.045 87.1302C104.248 86.9212 103.585 86.5187 103.101 86C103.101 86 103.101 86 103.092 85.9923C103.065 85.9613 103.029 85.9304 103.002 85.8917C103.002 85.8917 103.002 85.8839 102.993 85.8839C102.733 85.6053 102.428 85.3576 102.079 85.1486C101.729 84.9396 101.335 84.777 100.914 84.6687C98.6823 84.0881 96.3252 85.1795 95.662 87.107C94.9988 89.0344 96.2535 91.0702 98.4851 91.643C99.3365 91.8675 100.215 91.8443 101.003 91.6198C101.03 91.612 101.057 91.6043 101.075 91.5965C101.102 91.5888 101.129 91.5811 101.156 91.5733C101.891 91.3721 102.706 91.3488 103.495 91.5578C104.086 91.7127 104.606 91.9758 105.027 92.3087L101.559 102.286L113.075 105.274C113.497 104.895 113.828 104.423 114.017 103.881C114.258 103.192 114.232 102.495 113.999 101.861C113.981 101.814 113.963 101.768 113.945 101.729C113.685 101.048 113.658 100.297 113.918 99.5539C114.59 97.6265 116.938 96.5351 119.17 97.1156C121.401 97.6962 122.665 99.7242 121.993 101.652C121.733 102.387 121.231 103.006 120.586 103.455C120.586 103.455 120.577 103.455 120.577 103.463C120.541 103.486 120.496 103.509 120.46 103.54C120.46 103.54 120.46 103.54 120.451 103.548C119.851 103.966 119.385 104.539 119.143 105.228C118.955 105.77 118.928 106.319 119.044 106.838L130.561 109.826L134.02 99.879C133.581 99.5152 133.034 99.2288 132.407 99.0663C131.609 98.8573 130.803 98.8805 130.068 99.0818C130.014 99.0972 129.96 99.1127 129.915 99.1282C129.127 99.3527 128.257 99.3759 127.397 99.1514C125.165 98.5709 123.902 96.5428 124.574 94.6154C125.246 92.688 127.594 91.5965 129.826 92.1771C130.677 92.4016 131.394 92.835 131.914 93.3924C131.914 93.3924 131.914 93.4001 131.923 93.4001C131.95 93.4311 131.986 93.462 132.013 93.5007C132.013 93.5007 132.013 93.5007 132.021 93.5085C132.505 94.0271 133.169 94.4296 133.966 94.6386C134.594 94.8012 135.23 94.8244 135.83 94.7238L139.29 84.777L127.738 81.7814C127.648 81.286 127.675 80.7674 127.854 80.2565C128.096 79.5676 128.562 78.9948 129.163 78.5768C129.163 78.5768 129.163 78.5768 129.172 78.569C129.207 78.5458 129.243 78.5148 129.288 78.4916C129.288 78.4916 129.297 78.4916 129.297 78.4839C129.62 78.2594 129.906 77.9962 130.148 77.6943C130.39 77.3924 130.579 77.0519 130.704 76.688C131.376 74.7606 130.113 72.7248 127.881 72.152C125.631 71.5792 123.274 72.6706 122.602 74.5981Z" fill="url(#paint11_linear_50_8566)"/>
<path d="M58.2988 31.2968C57.7342 30.7008 56.9903 30.2983 56.1927 30.1048C56.1658 30.097 56.1389 30.0893 56.121 30.0893C56.0941 30.0816 56.0672 30.0738 56.0404 30.0661C55.2965 29.8803 54.6154 29.5087 54.0866 28.9514C53.6923 28.5412 53.4324 28.069 53.2979 27.5891L62.6186 20.9708L54.9559 12.9205C55.1979 12.4638 55.5564 12.0536 56.0314 11.713C56.6767 11.2563 57.4295 11.0008 58.2002 10.9466H58.2092C58.254 10.9466 58.3078 10.9389 58.3526 10.9389H58.3616C58.7738 10.9079 59.1861 10.8305 59.5804 10.6912C59.9747 10.5519 60.3512 10.3661 60.6917 10.1184C62.4931 8.84119 62.753 6.54221 61.2743 4.98633C59.7955 3.43046 57.1337 3.20598 55.3323 4.48319C54.6423 4.97085 54.1762 5.61333 53.9522 6.30225C53.9432 6.32547 53.9342 6.34869 53.9342 6.36417C53.9253 6.3874 53.9163 6.41062 53.9074 6.43384C53.6923 7.07631 53.2621 7.6646 52.6168 8.1213C52.1418 8.46189 51.5951 8.68637 51.0395 8.80248L43.3768 0.752197L34.092 7.34723C34.2175 7.86586 34.4864 8.36126 34.9076 8.79474C35.4364 9.35207 36.1175 9.72362 36.8613 9.9094C36.9151 9.92488 36.9689 9.93262 37.0227 9.9481C37.8203 10.1416 38.5642 10.5441 39.1288 11.1402C40.6075 12.696 40.3476 14.995 38.5462 16.2722C36.7448 17.5494 34.092 17.3249 32.6133 15.7691C32.0487 15.173 31.735 14.4686 31.6633 13.7565V13.7488C31.6633 13.7101 31.6543 13.6636 31.6543 13.6249V13.6172C31.5916 12.9515 31.2958 12.2935 30.7671 11.7439C30.3548 11.3105 29.835 10.9853 29.2794 10.7764L19.9946 17.3714L27.6303 25.3907C28.2308 25.2823 28.8044 25.0501 29.3062 24.6863C29.9515 24.2296 30.3817 23.6413 30.5968 22.9988C30.6147 22.9524 30.6237 22.906 30.6416 22.8595C30.8657 22.1706 31.3317 21.5281 32.0218 21.0405C33.8232 19.7633 36.4849 19.9877 37.9637 21.5436C39.4424 23.0995 39.1825 25.3907 37.3811 26.6757C36.6911 27.1633 35.8755 27.4342 35.051 27.4962H35.042C34.9972 27.4962 34.9434 27.5039 34.8986 27.5039H34.8897C34.1189 27.5581 33.3571 27.8135 32.7208 28.2702C32.2189 28.6263 31.8425 29.0753 31.6006 29.5552L39.2363 37.5745L48.557 30.9562C49.0857 31.1652 49.5607 31.4749 49.9551 31.8851C50.4838 32.4424 50.7796 33.0927 50.8423 33.7584V33.7661C50.8423 33.8048 50.8513 33.8512 50.8513 33.89V33.8977C50.8871 34.2538 50.9767 34.6098 51.1381 34.9504C51.2994 35.291 51.5145 35.6161 51.8013 35.9103C53.28 37.4661 55.9418 37.6906 57.7432 36.4134C59.5177 35.1439 59.7776 32.8527 58.2988 31.2968Z" fill="url(#paint12_linear_50_8566)"/>
<path d="M58.2988 31.2968C57.7342 30.7008 56.9903 30.2983 56.1927 30.1048C56.1658 30.097 56.1389 30.0893 56.121 30.0893C56.0941 30.0816 56.0672 30.0738 56.0404 30.0661C55.2965 29.8803 54.6154 29.5087 54.0866 28.9514C53.6923 28.5412 53.4324 28.069 53.2979 27.5891L62.6186 20.9708L54.9559 12.9205C55.1979 12.4638 55.5564 12.0536 56.0314 11.713C56.6767 11.2563 57.4295 11.0008 58.2002 10.9466H58.2092C58.254 10.9466 58.3078 10.9389 58.3526 10.9389H58.3616C58.7738 10.9079 59.1861 10.8305 59.5804 10.6912C59.9747 10.5519 60.3512 10.3661 60.6917 10.1184C62.4931 8.84119 62.753 6.54221 61.2743 4.98633C59.7955 3.43046 57.1337 3.20598 55.3323 4.48319C54.6423 4.97085 54.1762 5.61333 53.9522 6.30225C53.9432 6.32547 53.9342 6.34869 53.9342 6.36417C53.9253 6.3874 53.9163 6.41062 53.9074 6.43384C53.6923 7.07631 53.2621 7.6646 52.6168 8.1213C52.1418 8.46189 51.5951 8.68637 51.0395 8.80248L43.3768 0.752197L34.092 7.34723C34.2175 7.86586 34.4864 8.36126 34.9076 8.79474C35.4364 9.35207 36.1175 9.72362 36.8613 9.9094C36.9151 9.92488 36.9689 9.93262 37.0227 9.9481C37.8203 10.1416 38.5642 10.5441 39.1288 11.1402C40.6075 12.696 40.3476 14.995 38.5462 16.2722C36.7448 17.5494 34.092 17.3249 32.6133 15.7691C32.0487 15.173 31.735 14.4686 31.6633 13.7565V13.7488C31.6633 13.7101 31.6543 13.6636 31.6543 13.6249V13.6172C31.5916 12.9515 31.2958 12.2935 30.7671 11.7439C30.3548 11.3105 29.835 10.9853 29.2794 10.7764L19.9946 17.3714L27.6303 25.3907C28.2308 25.2823 28.8044 25.0501 29.3062 24.6863C29.9515 24.2296 30.3817 23.6413 30.5968 22.9988C30.6147 22.9524 30.6237 22.906 30.6416 22.8595C30.8657 22.1706 31.3317 21.5281 32.0218 21.0405C33.8232 19.7633 36.4849 19.9877 37.9637 21.5436C39.4424 23.0995 39.1825 25.3907 37.3811 26.6757C36.6911 27.1633 35.8755 27.4342 35.051 27.4962H35.042C34.9972 27.4962 34.9434 27.5039 34.8986 27.5039H34.8897C34.1189 27.5581 33.3571 27.8135 32.7208 28.2702C32.2189 28.6263 31.8425 29.0753 31.6006 29.5552L39.2363 37.5745L48.557 30.9562C49.0857 31.1652 49.5607 31.4749 49.9551 31.8851C50.4838 32.4424 50.7796 33.0927 50.8423 33.7584V33.7661C50.8423 33.8048 50.8513 33.8512 50.8513 33.89V33.8977C50.8871 34.2538 50.9767 34.6098 51.1381 34.9504C51.2994 35.291 51.5145 35.6161 51.8013 35.9103C53.28 37.4661 55.9418 37.6906 57.7432 36.4134C59.5177 35.1439 59.7776 32.8527 58.2988 31.2968Z" fill="url(#paint13_linear_50_8566)"/>
<path d="M68.2378 110.221C67.3416 110.221 66.5171 110.461 65.8359 110.871C65.818 110.886 65.7911 110.894 65.7732 110.91C65.7463 110.925 65.7284 110.941 65.7015 110.956C65.0652 111.335 64.2945 111.552 63.461 111.552C62.8426 111.552 62.26 111.428 61.7402 111.211V100.793H49.6772C49.4262 100.344 49.2829 99.8404 49.2829 99.3063C49.2829 98.5864 49.5428 97.9207 49.9819 97.3711C49.9819 97.3711 49.9819 97.3634 49.9909 97.3634C50.0177 97.3324 50.0446 97.2937 50.0715 97.2628C50.0715 97.2628 50.0715 97.255 50.0805 97.255C50.3135 96.9609 50.5017 96.6358 50.6361 96.2874C50.7616 95.9391 50.8333 95.5676 50.8333 95.1805C50.8333 93.168 48.9423 91.5347 46.6121 91.5347C44.282 91.5347 42.391 93.168 42.391 95.1805C42.391 95.9546 42.6688 96.6667 43.1438 97.255C43.1617 97.2705 43.1707 97.2937 43.1886 97.3092C43.2065 97.3324 43.2244 97.3479 43.2424 97.3711C43.6815 97.9207 43.9324 98.5864 43.9324 99.3063C43.9324 99.8404 43.789 100.344 43.5381 100.793H31.4571V111.173C32.0038 111.413 32.6132 111.552 33.2675 111.552C34.101 111.552 34.8717 111.335 35.508 110.956C35.5528 110.933 35.5976 110.902 35.6424 110.871C36.3236 110.461 37.1481 110.221 38.0443 110.221C40.3745 110.221 42.2655 111.854 42.2655 113.866C42.2655 115.879 40.3745 117.512 38.0443 117.512C37.1481 117.512 36.3236 117.272 35.6424 116.862C35.6424 116.862 35.6424 116.862 35.6335 116.854C35.5976 116.831 35.5528 116.808 35.517 116.785C35.517 116.785 35.517 116.785 35.508 116.777C34.8717 116.398 34.101 116.173 33.2675 116.173C32.6132 116.173 31.9949 116.313 31.4571 116.552V126.933H43.4843C43.7622 126.461 43.9235 125.934 43.9235 125.369C43.9235 124.649 43.6725 123.984 43.2334 123.434C43.2065 123.395 43.1707 123.357 43.1348 123.318C42.6598 122.73 42.382 122.017 42.382 121.243C42.382 119.231 44.273 117.597 46.6032 117.597C48.9333 117.597 50.8243 119.231 50.8243 121.243C50.8243 122.017 50.5465 122.73 50.0715 123.318C50.0715 123.318 50.0715 123.318 50.0626 123.326C50.0357 123.357 50.0088 123.395 49.9819 123.426C49.9819 123.426 49.9819 123.426 49.9729 123.434C49.5338 123.984 49.2739 124.649 49.2739 125.369C49.2739 125.934 49.4352 126.468 49.713 126.933H61.7313V116.522C62.2511 116.305 62.8336 116.181 63.452 116.181C64.2855 116.181 65.0562 116.405 65.6926 116.785C65.6926 116.785 65.7015 116.785 65.7015 116.792C65.7374 116.816 65.7822 116.839 65.818 116.862C65.818 116.862 65.827 116.862 65.827 116.87C66.1675 117.071 66.544 117.234 66.9473 117.35C67.3506 117.458 67.7807 117.52 68.2288 117.52C70.559 117.52 72.45 115.887 72.45 113.874C72.45 111.862 70.568 110.221 68.2378 110.221Z" fill="url(#paint14_linear_50_8566)"/>
<path d="M68.2378 110.221C67.3416 110.221 66.5171 110.461 65.8359 110.871C65.818 110.886 65.7911 110.894 65.7732 110.91C65.7463 110.925 65.7284 110.941 65.7015 110.956C65.0652 111.335 64.2945 111.552 63.461 111.552C62.8426 111.552 62.26 111.428 61.7402 111.211V100.793H49.6772C49.4262 100.344 49.2829 99.8404 49.2829 99.3063C49.2829 98.5864 49.5428 97.9207 49.9819 97.3711C49.9819 97.3711 49.9819 97.3634 49.9909 97.3634C50.0177 97.3324 50.0446 97.2937 50.0715 97.2628C50.0715 97.2628 50.0715 97.255 50.0805 97.255C50.3135 96.9609 50.5017 96.6358 50.6361 96.2874C50.7616 95.9391 50.8333 95.5676 50.8333 95.1805C50.8333 93.168 48.9423 91.5347 46.6121 91.5347C44.282 91.5347 42.391 93.168 42.391 95.1805C42.391 95.9546 42.6688 96.6667 43.1438 97.255C43.1617 97.2705 43.1707 97.2937 43.1886 97.3092C43.2065 97.3324 43.2244 97.3479 43.2424 97.3711C43.6815 97.9207 43.9324 98.5864 43.9324 99.3063C43.9324 99.8404 43.789 100.344 43.5381 100.793H31.4571V111.173C32.0038 111.413 32.6132 111.552 33.2675 111.552C34.101 111.552 34.8717 111.335 35.508 110.956C35.5528 110.933 35.5976 110.902 35.6424 110.871C36.3236 110.461 37.1481 110.221 38.0443 110.221C40.3745 110.221 42.2655 111.854 42.2655 113.866C42.2655 115.879 40.3745 117.512 38.0443 117.512C37.1481 117.512 36.3236 117.272 35.6424 116.862C35.6424 116.862 35.6424 116.862 35.6335 116.854C35.5976 116.831 35.5528 116.808 35.517 116.785C35.517 116.785 35.517 116.785 35.508 116.777C34.8717 116.398 34.101 116.173 33.2675 116.173C32.6132 116.173 31.9949 116.313 31.4571 116.552V126.933H43.4843C43.7622 126.461 43.9235 125.934 43.9235 125.369C43.9235 124.649 43.6725 123.984 43.2334 123.434C43.2065 123.395 43.1707 123.357 43.1348 123.318C42.6598 122.73 42.382 122.017 42.382 121.243C42.382 119.231 44.273 117.597 46.6032 117.597C48.9333 117.597 50.8243 119.231 50.8243 121.243C50.8243 122.017 50.5465 122.73 50.0715 123.318C50.0715 123.318 50.0715 123.318 50.0626 123.326C50.0357 123.357 50.0088 123.395 49.9819 123.426C49.9819 123.426 49.9819 123.426 49.9729 123.434C49.5338 123.984 49.2739 124.649 49.2739 125.369C49.2739 125.934 49.4352 126.468 49.713 126.933H61.7313V116.522C62.2511 116.305 62.8336 116.181 63.452 116.181C64.2855 116.181 65.0562 116.405 65.6926 116.785C65.6926 116.785 65.7015 116.785 65.7015 116.792C65.7374 116.816 65.7822 116.839 65.818 116.862C65.818 116.862 65.827 116.862 65.827 116.87C66.1675 117.071 66.544 117.234 66.9473 117.35C67.3506 117.458 67.7807 117.52 68.2288 117.52C70.559 117.52 72.45 115.887 72.45 113.874C72.45 111.862 70.568 110.221 68.2378 110.221Z" fill="url(#paint15_linear_50_8566)"/>
<path d="M99.4262 110.221C98.53 110.221 97.7054 110.461 97.0243 110.871C97.0064 110.886 96.9795 110.894 96.9616 110.91C96.9347 110.925 96.9168 110.941 96.8899 110.956C96.2536 111.335 95.4828 111.552 94.6493 111.552C94.031 111.552 93.4484 111.428 92.9286 111.211V100.793H80.8656C80.6146 100.344 80.4712 99.8404 80.4712 99.3063C80.4712 98.5864 80.7311 97.9207 81.1703 97.3711C81.1703 97.3711 81.1703 97.3634 81.1792 97.3634C81.2061 97.3324 81.233 97.2937 81.2599 97.2628C81.2599 97.2628 81.2599 97.255 81.2688 97.255C81.5019 96.9609 81.6901 96.6358 81.8245 96.2874C81.95 95.9391 82.0217 95.5676 82.0217 95.1805C82.0217 93.168 80.1307 91.5347 77.8005 91.5347C75.4703 91.5347 73.5793 93.168 73.5793 95.1805C73.5793 95.9546 73.8572 96.6667 74.3321 97.255C74.3501 97.2705 74.359 97.2937 74.377 97.3092C74.3949 97.3324 74.4128 97.3479 74.4307 97.3711C74.8699 97.9207 75.1208 98.5864 75.1208 99.3063C75.1208 99.8404 74.9774 100.344 74.7265 100.793H62.6455V111.173C63.1922 111.413 63.8016 111.552 64.4558 111.552C65.2893 111.552 66.0601 111.335 66.6964 110.956C66.7412 110.933 66.786 110.902 66.8308 110.871C67.5119 110.461 68.3365 110.221 69.2327 110.221C71.5628 110.221 73.4538 111.854 73.4538 113.866C73.4538 115.879 71.5628 117.512 69.2327 117.512C68.3365 117.512 67.5119 117.272 66.8308 116.862C66.8308 116.862 66.8308 116.862 66.8219 116.854C66.786 116.831 66.7412 116.808 66.7053 116.785C66.7053 116.785 66.7053 116.785 66.6964 116.777C66.0601 116.398 65.2893 116.173 64.4558 116.173C63.8016 116.173 63.1832 116.313 62.6455 116.552V126.933H74.6727C74.9505 126.461 75.1118 125.934 75.1118 125.369C75.1118 124.649 74.8609 123.984 74.4218 123.434C74.3949 123.395 74.359 123.357 74.3232 123.318C73.8482 122.73 73.5704 122.017 73.5704 121.243C73.5704 119.231 75.4614 117.597 77.7915 117.597C80.1217 117.597 82.0127 119.231 82.0127 121.243C82.0127 122.017 81.7349 122.73 81.2599 123.318C81.2599 123.318 81.2599 123.318 81.2509 123.326C81.224 123.357 81.1972 123.395 81.1703 123.426C81.1703 123.426 81.1703 123.426 81.1613 123.434C80.7222 123.984 80.4623 124.649 80.4623 125.369C80.4623 125.934 80.6236 126.468 80.9014 126.933H92.9197V116.522C93.4395 116.305 94.022 116.181 94.6404 116.181C95.4739 116.181 96.2446 116.405 96.8809 116.785C96.8809 116.785 96.8899 116.785 96.8899 116.792C96.9257 116.816 96.9705 116.839 97.0064 116.862C97.0064 116.862 97.0154 116.862 97.0154 116.87C97.3559 117.071 97.7323 117.234 98.1356 117.35C98.5389 117.458 98.9691 117.52 99.4172 117.52C101.747 117.52 103.638 115.887 103.638 113.874C103.638 111.862 101.756 110.221 99.4262 110.221Z" fill="url(#paint16_linear_50_8566)"/>
<path d="M99.4262 110.221C98.53 110.221 97.7054 110.461 97.0243 110.871C97.0064 110.886 96.9795 110.894 96.9616 110.91C96.9347 110.925 96.9168 110.941 96.8899 110.956C96.2536 111.335 95.4828 111.552 94.6493 111.552C94.031 111.552 93.4484 111.428 92.9286 111.211V100.793H80.8656C80.6146 100.344 80.4712 99.8404 80.4712 99.3063C80.4712 98.5864 80.7311 97.9207 81.1703 97.3711C81.1703 97.3711 81.1703 97.3634 81.1792 97.3634C81.2061 97.3324 81.233 97.2937 81.2599 97.2628C81.2599 97.2628 81.2599 97.255 81.2688 97.255C81.5019 96.9609 81.6901 96.6358 81.8245 96.2874C81.95 95.9391 82.0217 95.5676 82.0217 95.1805C82.0217 93.168 80.1307 91.5347 77.8005 91.5347C75.4703 91.5347 73.5793 93.168 73.5793 95.1805C73.5793 95.9546 73.8572 96.6667 74.3321 97.255C74.3501 97.2705 74.359 97.2937 74.377 97.3092C74.3949 97.3324 74.4128 97.3479 74.4307 97.3711C74.8699 97.9207 75.1208 98.5864 75.1208 99.3063C75.1208 99.8404 74.9774 100.344 74.7265 100.793H62.6455V111.173C63.1922 111.413 63.8016 111.552 64.4558 111.552C65.2893 111.552 66.0601 111.335 66.6964 110.956C66.7412 110.933 66.786 110.902 66.8308 110.871C67.5119 110.461 68.3365 110.221 69.2327 110.221C71.5628 110.221 73.4538 111.854 73.4538 113.866C73.4538 115.879 71.5628 117.512 69.2327 117.512C68.3365 117.512 67.5119 117.272 66.8308 116.862C66.8308 116.862 66.8308 116.862 66.8219 116.854C66.786 116.831 66.7412 116.808 66.7053 116.785C66.7053 116.785 66.7053 116.785 66.6964 116.777C66.0601 116.398 65.2893 116.173 64.4558 116.173C63.8016 116.173 63.1832 116.313 62.6455 116.552V126.933H74.6727C74.9505 126.461 75.1118 125.934 75.1118 125.369C75.1118 124.649 74.8609 123.984 74.4218 123.434C74.3949 123.395 74.359 123.357 74.3232 123.318C73.8482 122.73 73.5704 122.017 73.5704 121.243C73.5704 119.231 75.4614 117.597 77.7915 117.597C80.1217 117.597 82.0127 119.231 82.0127 121.243C82.0127 122.017 81.7349 122.73 81.2599 123.318C81.2599 123.318 81.2599 123.318 81.2509 123.326C81.224 123.357 81.1972 123.395 81.1703 123.426C81.1703 123.426 81.1703 123.426 81.1613 123.434C80.7222 123.984 80.4623 124.649 80.4623 125.369C80.4623 125.934 80.6236 126.468 80.9014 126.933H92.9197V116.522C93.4395 116.305 94.022 116.181 94.6404 116.181C95.4739 116.181 96.2446 116.405 96.8809 116.785C96.8809 116.785 96.8899 116.785 96.8899 116.792C96.9257 116.816 96.9705 116.839 97.0064 116.862C97.0064 116.862 97.0154 116.862 97.0154 116.87C97.3559 117.071 97.7323 117.234 98.1356 117.35C98.5389 117.458 98.9691 117.52 99.4172 117.52C101.747 117.52 103.638 115.887 103.638 113.874C103.638 111.862 101.756 110.221 99.4262 110.221Z" fill="url(#paint17_linear_50_8566)"/>
<defs>
<linearGradient id="paint0_linear_50_8566" x1="0" y1="109.021" x2="40.9842" y2="110.207" gradientUnits="userSpaceOnUse">
<stop stop-color="#F9A545"/>
<stop offset="0.5" stop-color="#FCCB90"/>
<stop offset="0.75" stop-color="#FEDDB6"/>
<stop offset="1" stop-color="#FFF0DB"/>
</linearGradient>
<linearGradient id="paint1_linear_50_8566" x1="0" y1="109.021" x2="40.9842" y2="110.207" gradientUnits="userSpaceOnUse">
<stop stop-color="#F9A545"/>
<stop offset="0.5" stop-color="#FCCB90"/>
<stop offset="0.75" stop-color="#FEDDB6"/>
<stop offset="1" stop-color="#FFF0DB"/>
</linearGradient>
<linearGradient id="paint2_linear_50_8566" x1="0" y1="82.2072" x2="40.9842" y2="83.3934" gradientUnits="userSpaceOnUse">
<stop stop-color="#F9A545"/>
<stop offset="0.5" stop-color="#FCCB90"/>
<stop offset="0.75" stop-color="#FEDDB6"/>
<stop offset="1" stop-color="#FFF0DB"/>
</linearGradient>
<linearGradient id="paint3_linear_50_8566" x1="0" y1="82.2072" x2="40.9842" y2="83.3934" gradientUnits="userSpaceOnUse">
<stop stop-color="#F9A545"/>
<stop offset="0.5" stop-color="#FCCB90"/>
<stop offset="0.75" stop-color="#FEDDB6"/>
<stop offset="1" stop-color="#FFF0DB"/>
</linearGradient>
<linearGradient id="paint4_linear_50_8566" x1="0" y1="55.2155" x2="40.9842" y2="56.4017" gradientUnits="userSpaceOnUse">
<stop stop-color="#F9A545"/>
<stop offset="0.5" stop-color="#FCCB90"/>
<stop offset="0.75" stop-color="#FEDDB6"/>
<stop offset="1" stop-color="#FFF0DB"/>
</linearGradient>
<linearGradient id="paint5_linear_50_8566" x1="0" y1="55.2155" x2="40.9842" y2="56.4017" gradientUnits="userSpaceOnUse">
<stop stop-color="#F9A545"/>
<stop offset="0.5" stop-color="#FCCB90"/>
<stop offset="0.75" stop-color="#FEDDB6"/>
<stop offset="1" stop-color="#FFF0DB"/>
</linearGradient>
<linearGradient id="paint6_linear_50_8566" x1="31.4571" y1="82.2072" x2="72.4413" y2="83.3934" gradientUnits="userSpaceOnUse">
<stop stop-color="#F9A545"/>
<stop offset="0.5" stop-color="#FCCB90"/>
<stop offset="0.75" stop-color="#FEDDB6"/>
<stop offset="1" stop-color="#FFF0DB"/>
</linearGradient>
<linearGradient id="paint7_linear_50_8566" x1="31.4571" y1="82.2072" x2="72.4413" y2="83.3934" gradientUnits="userSpaceOnUse">
<stop stop-color="#F9A545"/>
<stop offset="0.5" stop-color="#FCCB90"/>
<stop offset="0.75" stop-color="#FEDDB6"/>
<stop offset="1" stop-color="#FFF0DB"/>
</linearGradient>
<linearGradient id="paint8_linear_50_8566" x1="62.6455" y1="55.2155" x2="103.63" y2="56.4017" gradientUnits="userSpaceOnUse">
<stop stop-color="#F9A545"/>
<stop offset="0.5" stop-color="#FCCB90"/>
<stop offset="0.75" stop-color="#FEDDB6"/>
<stop offset="1" stop-color="#FFF0DB"/>
</linearGradient>
<linearGradient id="paint9_linear_50_8566" x1="62.6455" y1="55.2155" x2="103.63" y2="56.4017" gradientUnits="userSpaceOnUse">
<stop stop-color="#F9A545"/>
<stop offset="0.5" stop-color="#FCCB90"/>
<stop offset="0.75" stop-color="#FEDDB6"/>
<stop offset="1" stop-color="#FFF0DB"/>
</linearGradient>
<linearGradient id="paint10_linear_50_8566" x1="95.4848" y1="90.9127" x2="139.28" y2="92.1807" gradientUnits="userSpaceOnUse">
<stop stop-color="#F9A545"/>
<stop offset="0.5" stop-color="#FCCB90"/>
<stop offset="0.75" stop-color="#FEDDB6"/>
<stop offset="1" stop-color="#FFF0DB"/>
</linearGradient>
<linearGradient id="paint11_linear_50_8566" x1="95.4848" y1="90.9127" x2="139.28" y2="92.1807" gradientUnits="userSpaceOnUse">
<stop stop-color="#F9A545"/>
<stop offset="0.5" stop-color="#FCCB90"/>
<stop offset="0.75" stop-color="#FEDDB6"/>
<stop offset="1" stop-color="#FFF0DB"/>
</linearGradient>
<linearGradient id="paint12_linear_50_8566" x1="19.9946" y1="19.1634" x2="62.6095" y2="20.3966" gradientUnits="userSpaceOnUse">
<stop stop-color="#F9A545"/>
<stop offset="0.5" stop-color="#FCCB90"/>
<stop offset="0.75" stop-color="#FEDDB6"/>
<stop offset="1" stop-color="#FFF0DB"/>
</linearGradient>
<linearGradient id="paint13_linear_50_8566" x1="19.9946" y1="19.1634" x2="62.6095" y2="20.3966" gradientUnits="userSpaceOnUse">
<stop stop-color="#F9A545"/>
<stop offset="0.5" stop-color="#FCCB90"/>
<stop offset="0.75" stop-color="#FEDDB6"/>
<stop offset="1" stop-color="#FFF0DB"/>
</linearGradient>
<linearGradient id="paint14_linear_50_8566" x1="31.4571" y1="109.234" x2="72.4413" y2="110.42" gradientUnits="userSpaceOnUse">
<stop stop-color="#F9A545"/>
<stop offset="0.5" stop-color="#FCCB90"/>
<stop offset="0.75" stop-color="#FEDDB6"/>
<stop offset="1" stop-color="#FFF0DB"/>
</linearGradient>
<linearGradient id="paint15_linear_50_8566" x1="31.4571" y1="109.234" x2="72.4413" y2="110.42" gradientUnits="userSpaceOnUse">
<stop stop-color="#F9A545"/>
<stop offset="0.5" stop-color="#FCCB90"/>
<stop offset="0.75" stop-color="#FEDDB6"/>
<stop offset="1" stop-color="#FFF0DB"/>
</linearGradient>
<linearGradient id="paint16_linear_50_8566" x1="62.6455" y1="109.234" x2="103.63" y2="110.42" gradientUnits="userSpaceOnUse">
<stop stop-color="#F9A545"/>
<stop offset="0.5" stop-color="#FCCB90"/>
<stop offset="0.75" stop-color="#FEDDB6"/>
<stop offset="1" stop-color="#FFF0DB"/>
</linearGradient>
<linearGradient id="paint17_linear_50_8566" x1="62.6455" y1="109.234" x2="103.63" y2="110.42" gradientUnits="userSpaceOnUse">
<stop stop-color="#F9A545"/>
<stop offset="0.5" stop-color="#FCCB90"/>
<stop offset="0.75" stop-color="#FEDDB6"/>
<stop offset="1" stop-color="#FFF0DB"/>
</linearGradient>
</defs>
</svg>
