<svg width="91" height="74" viewBox="0 0 91 74" fill="none" xmlns="http://www.w3.org/2000/svg">
<path d="M25.9763 16.5902C26.8835 16.0886 27.2545 15.0855 26.8422 14.1595L23.6261 6.86757C23.1313 5.78728 21.7706 5.36288 20.6986 5.94161L18.8019 6.98332C17.7298 7.56205 17.4412 8.91241 18.1834 9.83838L23.3375 16.1272C23.9147 16.8603 25.0692 17.0918 25.9763 16.5902Z" fill="#FFFFA1"/>
<path d="M11.6687 29.9781C12.2048 29.1293 11.9574 28.0876 11.1327 27.4703L4.41183 22.6861C3.42225 21.9917 1.97912 22.2617 1.36063 23.2649L0.247357 25.0396C-0.37113 26.0428 0.0824273 27.3545 1.23694 27.7789L9.0711 30.7883C10.0194 31.1741 11.1327 30.8269 11.6687 29.9781Z" fill="#FFFFA1"/>
<path d="M79.3311 29.9781C79.8672 30.8269 80.9392 31.1741 81.9288 30.7883L89.7217 27.7789C90.8762 27.316 91.3298 26.0428 90.7113 25.0396L89.598 23.2649C88.9795 22.2617 87.5364 21.9917 86.5468 22.6861L79.8259 27.5089C79.0425 28.0876 78.8363 29.1293 79.3311 29.9781Z" fill="#FFFFA1"/>
<path d="M65.0235 16.5902C65.9306 17.0918 67.0439 16.8603 67.7036 16.0886L72.8577 9.79979C73.5998 8.87383 73.3112 7.52346 72.2392 6.94474L70.3425 5.90303C69.2704 5.3243 67.8685 5.7487 67.415 6.82899L64.1988 14.121C63.7865 15.0855 64.1576 16.1272 65.0235 16.5902Z" fill="#FFFFA1"/>
<path d="M45.4793 11.6903C46.5101 11.6903 47.376 10.9572 47.5409 9.9927L48.6542 2.19917C48.8191 1.04171 47.8708 0 46.5926 0H44.4073C43.1703 0 42.1807 1.04171 42.3457 2.19917L43.4589 10.0313C43.5826 10.9958 44.4485 11.6903 45.4793 11.6903Z" fill="#FFFFA1"/>
<path d="M35.9135 14.854C36.9443 14.5839 37.604 13.6966 37.5216 12.732L37.2329 8.87382C37.1505 7.60062 35.7898 6.71324 34.4704 7.02189L32.9448 7.40771C31.6253 7.75495 30.9244 9.1439 31.5429 10.3014L33.3571 13.8123C33.8519 14.6611 34.9239 15.1241 35.9135 14.854Z" fill="#FFFFA1"/>
<path d="M19.3793 23.805C20.1215 23.1105 20.2452 22.0302 19.6267 21.22L17.3177 17.9791C16.5343 16.8989 14.9262 16.7445 13.9366 17.6705L12.8234 18.7122C11.8338 19.6382 11.9987 21.1429 13.1532 21.8759L16.5755 24.0365C17.4414 24.6152 18.6371 24.4995 19.3793 23.805Z" fill="#FFFFA1"/>
<path d="M9.81333 39.3149C10.102 38.3504 9.60717 37.3858 8.65882 36.9228L4.90667 35.2252C3.6697 34.6465 2.18533 35.3024 1.81424 36.537L1.40191 37.9645C1.03082 39.1992 1.97917 40.4724 3.38107 40.5495L7.50432 40.8196C8.57636 40.8968 9.5247 40.2795 9.81333 39.3149Z" fill="#FFFFA1"/>
<path d="M81.1867 39.3149C81.4753 40.2795 82.4236 40.8968 83.4544 40.8196L87.5777 40.5495C88.9384 40.4724 89.8867 39.1992 89.5569 37.9645L89.1445 36.537C88.7734 35.3024 87.2891 34.6465 86.0521 35.2252L82.2999 36.9228C81.3928 37.3858 80.9393 38.3504 81.1867 39.3149Z" fill="#FFFFA1"/>
<path d="M71.6207 23.805C72.3629 24.4995 73.5174 24.6152 74.3833 24.0365L77.8056 21.8759C78.9601 21.1429 79.1251 19.6382 78.1355 18.7122L77.0222 17.6705C76.0326 16.7445 74.4246 16.8989 73.6411 17.9791L71.3321 21.1814C70.7549 22.0302 70.8786 23.1105 71.6207 23.805Z" fill="#FFFFA1"/>
<path d="M55.0453 14.854C56.0761 15.1241 57.1069 14.6611 57.6017 13.7737L59.416 10.2628C60.0344 9.10532 59.3335 7.71637 58.014 7.36914L56.4884 6.98332C55.169 6.63608 53.8083 7.52346 53.7259 8.83525L53.4372 12.6934C53.3548 13.7351 54.0557 14.6225 55.0453 14.854Z" fill="#FFFFA1"/>
<path d="M46.5927 73.9614C57.4777 73.9614 66.3018 69.6603 66.3018 64.3545C66.3018 59.0488 57.4777 54.7477 46.5927 54.7477C35.7076 54.7477 26.8835 59.0488 26.8835 64.3545C26.8835 69.6603 35.7076 73.9614 46.5927 73.9614Z" fill="#C9ADB5"/>
<path d="M76.1151 41.3983C74.507 41.3983 73.0227 41.7456 71.662 42.3243C70.3838 33.2576 62.5084 26.0042 52.5714 25.001C47.9946 24.5381 43.4178 24.5381 38.841 24.9625C28.6978 25.8884 20.6987 33.1804 19.338 42.3243C17.9774 41.707 16.4518 41.3597 14.8437 41.3597C9.11239 41.3597 4.45312 45.7195 4.45312 51.0824C4.45312 56.4453 9.11239 60.805 14.8437 60.805C17.7712 60.805 20.4101 59.6861 22.3068 57.8342C24.4509 60.8436 27.7907 63.0427 31.6665 63.8144C40.7789 65.5891 49.85 65.5892 58.9624 63.853C63.0032 63.0813 66.4255 60.8822 68.6108 57.7956C70.5075 59.6475 73.1464 60.7664 76.1151 60.7664C81.8464 60.7664 86.5057 56.4067 86.5057 51.0438C86.5057 45.6809 81.8877 41.3983 76.1151 41.3983Z" fill="#C9ADB5"/>
<path d="M45.4794 66.1293C40.8201 66.1293 36.1196 65.6663 31.5016 64.7789C27.7494 64.0459 24.4921 62.1168 22.1831 59.3003C20.1214 60.9208 17.565 61.8081 14.8849 61.8081C8.61759 61.8081 3.50476 57.024 3.50476 51.1595C3.46353 45.2565 8.57635 40.511 14.8437 40.511C16.1219 40.511 17.4001 40.7039 18.5546 41.0897C19.4617 36.8843 21.7295 32.9489 25.1106 29.9395C28.7803 26.6215 33.6457 24.5766 38.7173 24.0751C43.3353 23.6507 48.0358 23.6507 52.6538 24.1137C57.643 24.6152 62.4259 26.6986 66.0131 30.0167C69.3117 33.0261 71.5383 36.9228 72.4042 41.0897C73.5999 40.7039 74.8369 40.511 76.1151 40.511C82.3824 40.511 87.4952 45.2951 87.4952 51.1595C87.4952 57.024 82.3824 61.8081 76.1151 61.8081C73.3938 61.8081 70.7961 60.9208 68.7757 59.3003C66.3842 62.194 63.0444 64.1231 59.2098 64.8561C54.633 65.7049 50.0562 66.1293 45.4794 66.1293ZM22.3068 57.024C22.348 57.024 22.348 57.024 22.3892 57.024C22.6778 57.0626 22.9665 57.2169 23.1314 57.4484C25.193 60.342 28.2855 62.3097 31.8727 63.0042C40.8201 64.7404 49.85 64.7404 58.7975 63.0428C62.5084 62.3483 65.7245 60.342 67.8274 57.3712C67.9923 57.1397 68.2397 56.9854 68.5696 56.9854C68.8582 56.9468 69.1468 57.0626 69.353 57.2555C71.1672 58.9917 73.5587 59.9562 76.1563 59.9562C81.3516 59.9562 85.5986 55.9823 85.5986 51.121C85.5986 46.2596 81.3516 42.2857 76.1563 42.2857C74.7544 42.2857 73.3938 42.5558 72.1155 43.1345C71.8269 43.2503 71.4971 43.2503 71.2497 43.0959C70.961 42.9416 70.7961 42.7101 70.7549 42.4015C70.1776 38.196 68.0335 34.2607 64.7349 31.2513C61.4363 28.2419 57.1069 26.3128 52.5301 25.8884C48.0358 25.4254 43.5002 25.4254 39.0059 25.8498C34.3054 26.3514 29.8523 28.2419 26.5125 31.2513C23.1726 34.2607 20.9873 38.2346 20.3276 42.4786C20.2864 42.7487 20.0802 43.0188 19.8328 43.1731C19.5442 43.3274 19.2143 43.3274 18.9669 43.1731C17.6887 42.5944 16.3281 42.3243 14.8849 42.3243C9.68963 42.3243 5.44269 46.2982 5.44269 51.1595C5.44269 56.0209 9.68963 59.9948 14.8849 59.9948C17.4413 59.9948 19.874 59.0302 21.647 57.3326C21.812 57.1012 22.0594 57.024 22.3068 57.024Z" fill="#AB8D96"/>
<path d="M55.169 56.5224C48.6543 57.6799 42.1808 57.6413 35.666 56.4838C31.6665 55.7508 28.4916 53.0886 27.502 49.6548C26.966 47.8415 26.7186 46.0667 26.6774 44.2534C26.5537 37.2315 32.6973 31.3285 40.7789 30.634C44.0362 30.3639 47.3348 30.3639 50.5922 30.6726C58.3851 31.4056 64.3638 37.1157 64.3638 43.9062C64.3638 45.7581 64.1164 47.5714 63.6216 49.4234C62.5908 53.0501 59.3335 55.7894 55.169 56.5224Z" fill="#FFEFC5"/>
<path d="M33.4808 41.8613C34.5283 41.8613 35.3775 40.8249 35.3775 39.5464C35.3775 38.2679 34.5283 37.2315 33.4808 37.2315C32.4333 37.2315 31.5841 38.2679 31.5841 39.5464C31.5841 40.8249 32.4333 41.8613 33.4808 41.8613Z" fill="white"/>
<path d="M57.5193 41.8613C58.5668 41.8613 59.4159 40.8249 59.4159 39.5464C59.4159 38.2679 58.5668 37.2315 57.5193 37.2315C56.4717 37.2315 55.6226 38.2679 55.6226 39.5464C55.6226 40.8249 56.4717 41.8613 57.5193 41.8613Z" fill="white"/>
<path d="M33.4808 42.6715C31.9552 42.6715 30.677 41.2826 30.677 39.5464C30.677 37.8102 31.914 36.4213 33.4808 36.4213C35.0476 36.4213 36.2846 37.8102 36.2846 39.5464C36.2846 41.2826 35.0476 42.6715 33.4808 42.6715ZM33.4808 38.0803C32.9448 38.0803 32.45 38.7748 32.45 39.5464C32.45 40.318 32.9448 41.0125 33.4808 41.0125C34.0168 41.0125 34.5116 40.318 34.5116 39.5464C34.5116 38.7748 34.0168 38.0803 33.4808 38.0803Z" fill="#5F5C5D"/>
<path d="M57.5193 42.6715C55.9937 42.6715 54.7155 41.2826 54.7155 39.5464C54.7155 37.8102 55.9524 36.4213 57.5193 36.4213C59.0861 36.4213 60.3231 37.8102 60.3231 39.5464C60.3231 41.2826 59.0449 42.6715 57.5193 42.6715ZM57.5193 38.0803C56.9832 38.0803 56.4885 38.7748 56.4885 39.5464C56.4885 40.318 56.9832 41.0125 57.5193 41.0125C58.0553 41.0125 58.5501 40.318 58.5501 39.5464C58.5501 38.7748 58.0553 38.0803 57.5193 38.0803Z" fill="#5F5C5D"/>
<path d="M51.4993 49.1533C50.0562 50.2722 48.0358 51.121 45.3145 51.1595C42.6344 51.121 40.5727 50.2722 39.1296 49.1533C36.6144 47.1856 36.0784 44.3691 37.5628 43.5975C39.5419 42.1314 41.8097 44.292 45.3145 44.2534C48.8192 44.3305 51.0458 42.17 53.0662 43.5975C54.5505 44.3691 54.0145 47.1856 51.4993 49.1533Z" fill="#5F5C5D"/>
<path d="M51.4994 49.1533C50.0562 50.2722 48.0358 51.121 45.3145 51.1595C42.6344 51.121 40.5728 50.2722 39.1296 49.1533C40.5728 48.0344 42.5932 47.1856 45.3145 47.147C48.0358 47.1856 50.0975 48.0344 51.4994 49.1533Z" fill="#FC80A5"/>
<path d="M45.3557 52.0083C42.0159 51.9698 39.8718 50.7737 38.6348 49.8092C36.8206 48.3816 35.7898 46.414 35.9547 44.7935C36.0372 43.9447 36.4495 43.2888 37.1504 42.9416C38.6348 41.8999 40.2429 42.3629 41.8097 42.8259C42.923 43.1345 44.0363 43.4817 45.3557 43.4432H45.3969C46.7164 43.4817 47.8709 43.1345 48.9429 42.8259C50.5098 42.3629 52.0766 41.8999 53.6022 42.9416C54.2619 43.3274 54.7155 43.9833 54.7979 44.7935C54.9629 46.414 53.932 48.3816 52.1178 49.8092C50.8396 50.7737 48.6543 51.9312 45.3557 52.0083ZM39.2121 43.9447C38.841 43.9447 38.5111 44.0219 38.1813 44.2534C38.14 44.292 38.0988 44.292 38.0576 44.3306C37.8514 44.4077 37.7689 44.6392 37.7277 44.9479C37.6452 45.7967 38.2225 47.3014 39.7893 48.536C40.8201 49.3462 42.5931 50.3107 45.3969 50.3493C48.1595 50.3107 49.9737 49.3462 51.0045 48.536C52.5714 47.3014 53.1486 45.8352 53.0662 44.9479C53.0249 44.6392 52.9012 44.4463 52.7363 44.3306C52.6951 44.292 52.6538 44.292 52.6126 44.2534C51.8704 43.7132 51.0458 43.9061 49.5202 44.3691C48.4069 44.6778 47.0462 45.1022 45.3969 45.0636C43.7889 45.1022 42.387 44.6778 41.2737 44.3691C40.3666 44.1376 39.7481 43.9447 39.2121 43.9447Z" fill="#5F5C5D"/>
<path d="M59.4159 46.8384C61.511 46.8384 63.2093 45.992 63.2093 44.9479C63.2093 43.9038 61.511 43.0574 59.4159 43.0574C57.3209 43.0574 55.6226 43.9038 55.6226 44.9479C55.6226 45.992 57.3209 46.8384 59.4159 46.8384Z" fill="#FC80A5"/>
<path d="M31.584 46.8384C33.6791 46.8384 35.3774 45.992 35.3774 44.9479C35.3774 43.9038 33.6791 43.0574 31.584 43.0574C29.489 43.0574 27.7906 43.9038 27.7906 44.9479C27.7906 45.992 29.489 46.8384 31.584 46.8384Z" fill="#FC80A5"/>
<path d="M74.1771 48.1502C74.1771 51.9312 71.7031 55.4807 70.1363 58.683L67.5387 58.22C69.1467 55.1721 68.6519 52.1241 68.6519 48.4974C68.6519 35.804 59.086 26.1585 45.5205 26.1585C31.9551 26.1585 21.8119 35.4953 21.8119 48.1887C21.8119 51.8926 21.9356 55.365 23.5849 58.4515L20.9048 58.7987C19.2555 55.5965 16.8228 51.9698 16.8228 48.1887C16.8228 34.1835 30.4707 21.2972 45.4793 21.2972C60.4879 21.2586 74.1771 34.1449 74.1771 48.1502Z" fill="#65E2EA"/>
<path d="M70.0539 48.1502C70.0539 51.7769 69.1468 55.1721 67.5387 58.22L64.9411 57.757C66.5492 54.902 67.4563 51.6225 67.4563 48.1502C67.4563 36.8071 57.6429 27.6246 45.5206 27.6246C33.3983 27.6246 23.5849 36.8071 23.5849 48.1502C23.5849 51.7383 24.5745 55.1335 26.3063 58.0657L23.6262 58.4129C21.9356 55.3264 20.9873 51.854 20.9873 48.1502C20.9873 35.4567 31.9551 25.194 45.5206 25.194C59.0448 25.194 70.0539 35.4953 70.0539 48.1502Z" fill="#A484D8"/>
<path d="M79.0838 48.1502C79.0838 52.2012 76.9397 56.098 75.3729 59.6475L72.7752 59.1846C74.3421 55.8279 74.2184 52.0855 74.2184 48.1887C74.2184 32.8332 61.9311 21.2972 45.5206 21.2972C29.1101 21.2972 16.8641 32.8332 16.8641 48.1887C16.8641 52.0855 16.6579 55.7894 18.266 59.146L15.5859 59.4932C14.0603 56.0208 11.9574 52.6642 11.9574 48.6517C11.9574 31.9458 27.7082 16.5902 45.5206 16.5902C63.333 16.5516 79.0838 31.4828 79.0838 48.1502Z" fill="#FFFFA1"/>
<path d="M75.2079 48.1502C75.2079 52.0855 74.3421 55.7894 72.734 59.146L70.1364 58.683C71.7444 55.4807 72.6103 51.8926 72.6103 48.1502C72.6103 34.1449 60.4467 22.7633 45.4794 22.7633C30.512 22.7633 18.3896 34.1449 18.3896 48.1502C18.3896 51.9312 19.2967 55.5579 20.946 58.7602L18.2659 59.1074C16.6991 55.7508 15.792 52.0469 15.792 48.1502C15.792 32.7946 29.1101 20.3326 45.5206 20.3326C61.9311 20.3712 75.2079 32.7946 75.2079 48.1502Z" fill="#86FFBB"/>
<path d="M80.4032 48.1502C80.4032 52.3556 79.5373 56.4067 78.0117 60.1105L75.4141 59.6476C76.9809 56.098 77.8468 52.2398 77.8468 48.1502C77.8468 31.4442 63.3742 17.9406 45.5618 17.9406C27.6669 17.9406 13.1944 31.4828 13.1944 48.1502C13.1944 52.1627 14.0602 55.9823 15.5858 59.4546L12.9057 59.8019C11.4214 56.1752 10.6379 52.2784 10.6379 48.1502C10.6379 30.1324 26.265 15.5099 45.5206 15.5099C64.7761 15.5099 80.4032 30.1324 80.4032 48.1502Z" fill="#FC80A5"/>
<path d="M34.4291 67.3639C33.0272 68.9072 30.9243 70.1804 27.7907 70.1804C19.3793 70.1804 19.2968 61.0365 19.2968 61.0365C17.9773 61.3837 14.8437 62.0396 13.6067 60.8436C9.5247 57.024 19.1731 53.6674 23.9561 55.5193C28.739 57.3712 27.9144 65.2419 27.9144 65.2419L34.4291 67.3639Z" fill="#C9ADB5"/>
<path d="M35.0888 66.6309C34.6765 66.3222 34.058 66.3608 33.7282 66.7466C32.2438 68.4056 30.2646 69.2158 27.8319 69.2158C21.647 69.2158 20.575 63.6215 20.3688 61.6538C20.8224 61.4609 21.0698 60.9593 20.9049 60.5349C20.7399 60.0719 20.1627 59.8019 19.6679 59.9562C18.0186 60.4963 15.1736 60.9207 14.3489 60.1877C13.4006 59.3003 13.6067 58.7216 13.8953 58.2972C15.1736 56.4838 20.5338 55.1721 23.6262 56.3681C27.7082 57.9114 27.0073 65.0876 27.0073 65.1648C26.966 65.6663 27.3371 66.1293 27.8731 66.1679C27.9144 66.1679 27.9556 66.1679 27.9556 66.1679C28.4504 66.1679 28.8627 65.8206 28.9452 65.3577C28.9864 65.0104 29.7698 56.7539 24.3684 54.6705C20.6162 53.243 14.184 54.6319 12.2873 57.2941C11.3389 58.6444 11.5863 60.1877 12.9882 61.4995C13.8953 62.3483 15.4622 62.6184 17.6063 62.3483C17.9361 62.3097 18.2248 62.2711 18.5134 62.1939C18.6371 63.1585 18.9257 64.5474 19.5854 65.975C21.1523 69.3316 24.0385 71.1064 27.8731 71.1064C30.9243 71.1064 33.3983 70.0646 35.2538 67.9812C35.5424 67.5568 35.5011 66.9781 35.0888 66.6309Z" fill="#AB8D96"/>
<path d="M56.5709 67.3639C57.9728 68.9072 60.0757 70.1804 63.2093 70.1804C71.6208 70.1804 71.7032 61.0365 71.7032 61.0365C73.0227 61.3837 76.1563 62.0396 77.3933 60.8436C81.4753 57.024 71.8269 53.6674 67.044 55.5193C62.261 57.3712 63.0856 65.2419 63.0856 65.2419L56.5709 67.3639Z" fill="#C9ADB5"/>
<path d="M78.754 57.2941C76.8573 54.6319 70.4251 53.243 66.6729 54.6705C61.2715 56.7539 62.0549 65.0104 62.0961 65.3577C62.1374 65.8206 62.5909 66.1679 63.0857 66.1679C63.1269 66.1679 63.1682 66.1679 63.1682 66.1679C63.7042 66.1293 64.1165 65.6663 64.0341 65.1648C64.0341 65.0876 63.3331 57.9114 67.4151 56.3681C70.5075 55.1721 75.8678 56.5224 77.146 58.2972C77.4346 58.7216 77.6408 59.3003 76.6924 60.1877C75.8678 60.9593 73.0227 60.4963 71.3734 59.9562C70.8786 59.8019 70.3014 60.0334 70.1365 60.5349C69.9715 60.9979 70.2189 61.4995 70.6725 61.6538C70.4663 63.6215 69.353 69.2158 63.2094 69.2158C60.7767 69.2158 58.7975 68.367 57.3132 66.7466C56.9833 66.3608 56.3648 66.3222 55.9525 66.6309C55.5402 66.9395 55.4989 67.5182 55.8288 67.9041C57.6843 69.9875 60.1582 71.0292 63.2094 71.0292C67.0853 71.0292 69.9303 69.2544 71.4971 65.8978C72.1568 64.4703 72.4455 63.0428 72.5692 62.1168C72.8578 62.1554 73.1464 62.2325 73.4763 62.2711C75.6204 62.5798 77.1872 62.2711 78.0943 61.4223C79.4962 60.1491 79.7436 58.6444 78.754 57.2941Z" fill="#AB8D96"/>
</svg>
