<svg width="45" height="55" viewBox="0 0 45 55" fill="none" xmlns="http://www.w3.org/2000/svg">
<path d="M43.452 15.4V2.70002C43.452 2.00002 43.052 1.3 42.452 1C41.852 0.600004 41.152 0.599998 40.452 0.899998L1.85199 20.3C1.15199 20.6 0.751953 21.3 0.751953 22.1V32.9C0.751953 33.7 1.15199 34.4 1.85199 34.7L40.452 54.1C40.752 54.2 41.052 54.3 41.352 54.3C41.752 54.3 42.052 54.2 42.452 54C43.052 53.6 43.452 53 43.452 52.3V39.7C43.452 38.9 42.952 38.2 42.252 37.9L19.452 27.5L42.252 17.3C42.952 16.9 43.452 16.2 43.452 15.4Z" fill="#4E5CA7" stroke="#221F1F" stroke-width="1.3482" stroke-miterlimit="10" stroke-linecap="round" stroke-linejoin="round"/>
<path d="M43.452 15.4V2.70002C43.452 2.00002 43.052 1.3 42.452 1C41.852 0.600004 41.152 0.599998 40.452 0.899998L35.8521 3.20002C36.7521 3.30002 37.5521 3.70002 38.3521 4.30002C40.8521 6.20002 41.2521 10.7 39.3521 13.1C33.2521 20.8 26.0521 21.7 15.0521 27.4H14.952C14.952 27.5 14.9521 27.6 14.8521 27.7C21.1521 31.1 27.7521 34 34.3521 36.7C38.9521 38.6 41.6521 40.6 41.5521 45.9C41.4521 51.4 37.3521 50.5 33.3521 49.4C31.7521 49 30.1521 48.6 28.5521 48.2L40.3521 54.1C40.6521 54.2 40.952 54.3 41.252 54.3C41.652 54.3 41.9521 54.2 42.3521 54C42.9521 53.6 43.3521 53 43.3521 52.3V39.7C43.3521 38.9 42.852 38.2 42.152 37.9L19.3521 27.5L42.152 17.3C42.952 16.9 43.452 16.2 43.452 15.4Z" fill="#00B9F1"/>
<path d="M27.2519 9.49997C21.3519 12.2 15.6519 15.2 9.9519 18.3C7.6519 19.5 2.25194 21.2 3.05194 24.2C3.05194 24.1 2.85192 24.2 2.85192 24.2C2.85192 24.3 2.85189 24.4 2.75189 24.4C2.65189 24.6 3.05194 24.5 3.05194 24.4C3.65194 22 6.15194 21.3 8.05194 20.2C10.2519 19 12.3519 17.9 14.5519 16.7C18.7519 14.4 23.2519 12.5 27.3519 10.1C27.6519 9.89998 27.6519 9.29997 27.2519 9.49997Z" fill="white"/>
</svg>
