<svg width="94" height="69" viewBox="0 0 94 69" fill="none" xmlns="http://www.w3.org/2000/svg">
<path d="M16.8004 26H14.8909V20.2716H15.2279C15.3277 20.2716 15.44 20.2217 15.5648 20.1219C15.7146 20.022 15.8519 19.9097 15.9767 19.7849C16.1015 19.6351 16.2138 19.4854 16.3136 19.3356C16.4135 19.1858 16.4759 19.0735 16.5008 18.9986V16.0409H13.8051V15.7039H23.3524V26H18.8596V24.8393H18.5601C18.3853 25.0141 18.1357 25.2387 17.8112 25.5133C17.4868 25.7878 17.1498 25.9501 16.8004 26ZM7.8521 26C7.65242 26 7.41529 25.9002 7.14073 25.7005C6.89113 25.5008 6.64153 25.2762 6.39192 25.0265C6.14232 24.752 5.93016 24.4774 5.75544 24.2029C5.58072 23.9033 5.49335 23.6787 5.49335 23.5289V15.7039H12.3449V18.9986C12.3699 19.0735 12.4323 19.1858 12.5321 19.3356C12.632 19.4854 12.7443 19.6351 12.8691 19.7849C12.9939 19.9097 13.1187 20.022 13.2435 20.1219C13.3933 20.2217 13.5181 20.2716 13.6179 20.2716H13.9549V26H7.8521ZM13.8051 15.5541V13.757H23.3524V15.5541H13.8051ZM13.8051 13.4575V11.8101H23.3524V13.4575H13.8051ZM5.49335 15.5541V13.757H12.3449V15.5541H5.49335ZM5.49335 13.4575V11.8101H12.3449V13.4575H5.49335ZM5.49335 11.3234V9.86319H12.3449V11.3234H5.49335ZM5.49335 9.22671V7.91629H12.3449V9.22671H5.49335ZM23.3524 10.3874V11.3234H13.8051V10.3874H23.3524ZM14.8909 6.15659V5.96939H23.3524V7.13004H16.3136C16.1639 6.93036 15.9767 6.7182 15.752 6.49356C15.5523 6.26891 15.3776 6.15659 15.2279 6.15659H14.8909ZM13.6179 6.15659C13.4432 6.15659 13.231 6.26891 12.9814 6.49356C12.7318 6.7182 12.5446 6.93036 12.4198 7.13004H5.49335V5.96939H13.9549V6.15659H13.6179ZM5.49335 5.03338V4.02249H13.9549V5.03338H5.49335ZM14.8909 5.03338V4.02249H23.3524V5.03338H14.8909ZM5.49335 2.89928C5.49335 2.67464 5.63064 2.38759 5.9052 2.03815H13.9549V2.89928H5.49335ZM22.9406 2.03815C23.0654 2.21287 23.1652 2.37511 23.2401 2.52488C23.315 2.67464 23.3524 2.79944 23.3524 2.89928H14.8909V2.03815H22.9406ZM13.9549 0.428214V0.802618H7.06585C7.39033 0.553015 7.65242 0.428214 7.8521 0.428214H13.9549ZM20.9937 0.428214C21.1934 0.428214 21.4554 0.553015 21.7799 0.802618H14.8909V0.428214H20.9937ZM23.3524 7.99117H16.5008V7.91629H23.3524V7.99117ZM36.391 19.4854H33.1712V15.7039H43.2426V26H36.391V19.4854ZM32.2351 26H25.3836V15.7039H32.2351V26ZM33.1712 13.757H43.2426V15.5541H33.1712V13.757ZM25.3836 15.5541V13.757H32.2351V15.5541H25.3836ZM36.391 13.4575V11.8101H43.2426V13.4575H36.391ZM25.3836 13.4575V11.8101H32.2351V13.4575H25.3836ZM33.1712 5.03338V4.02249H43.2426V5.03338H33.1712ZM25.3836 11.3234V9.86319H32.2351V11.3234H25.3836ZM36.391 11.3234V9.86319H43.2426V11.3234H36.391ZM35.1181 6.15659H33.1712V5.96939H43.2426V7.13004H36.2038C36.0541 6.93036 35.8669 6.7182 35.6422 6.49356C35.4425 6.26891 35.2678 6.15659 35.1181 6.15659ZM25.3836 9.22671V7.91629H32.2351V9.22671H25.3836ZM36.391 9.22671V7.91629H43.2426V9.22671H36.391ZM43.2426 2.89928H33.1712V2.03815H42.8308C42.9556 2.21287 43.0554 2.37511 43.1303 2.52488C43.2052 2.67464 43.2426 2.79944 43.2426 2.89928ZM25.3836 7.13004V5.96939H32.2351V7.13004H25.3836ZM25.3836 5.03338V4.02249H32.2351V5.03338H25.3836ZM25.3836 2.89928C25.3836 2.67464 25.5208 2.38759 25.7954 2.03815H32.2351V2.89928H25.3836ZM40.8839 0.428214C41.0836 0.428214 41.3456 0.553015 41.6701 0.802618H33.1712V0.428214H40.8839ZM32.2351 0.428214V0.802618H26.9561C27.2805 0.553015 27.5426 0.428214 27.7423 0.428214H32.2351ZM52.1254 26H45.2738V15.7039H52.1254V26ZM70.3588 26H63.5072V15.7039H70.3588V26ZM56.9552 26L53.5855 15.7039H62.1219L58.6774 26H56.9552ZM52.8367 13.4575L52.3126 11.8101H63.4324L62.8708 13.4575H52.8367ZM57.6665 9.86319L57.8537 10.4248L58.0409 9.86319H64.1063L63.6196 11.3234H52.1628L51.6761 9.86319H57.6665ZM53.5107 15.5541L52.949 13.757H62.7959L62.1968 15.5541H53.5107ZM63.5072 14.4309L63.7319 13.757H70.3588V15.5541H63.5072V14.4309ZM52.1254 14.4309V15.5541H45.2738V13.757H51.9007L52.1254 14.4309ZM45.2738 13.4575V11.8101H51.2642L51.7884 13.4575H45.2738ZM63.8068 13.4575L64.3684 11.8101H70.3588V13.4575H63.8068ZM45.2738 11.3234V9.86319H50.6277L51.1145 11.3234H45.2738ZM64.5556 11.3234L65.0423 9.86319H70.3588V11.3234H64.5556ZM58.2281 9.22671L58.6774 7.91629H64.7428L64.2935 9.22671H58.2281ZM51.4514 9.22671L51.0396 7.91629H57.0301L57.4419 9.22671H51.4514ZM58.9395 7.13004L59.3139 5.96939H65.4167L65.0049 7.13004H58.9395ZM50.7775 7.13004L50.4031 5.96939H56.3561L56.768 7.13004H50.7775ZM45.2738 9.22671V7.91629H49.9913L50.4405 9.22671H45.2738ZM65.2295 9.22671L65.6788 7.91629H70.3588V9.22671H65.2295ZM59.6134 5.03338L59.9504 4.02249H66.0532L65.7162 5.03338H59.6134ZM50.1036 5.03338L49.7666 4.02249H55.7196L56.0566 5.03338H50.1036ZM60.2874 2.89928L60.5869 2.03815H66.7271L66.4276 2.89928H60.2874ZM49.3922 2.89928L49.0927 2.03815H55.0457L55.3452 2.89928H49.3922ZM45.2738 7.13004V5.96939H49.3548L49.7292 7.13004H45.2738ZM65.9409 7.13004L66.3527 5.96939H70.3588V7.13004H65.9409ZM45.2738 5.03338V4.02249H48.7183L49.0552 5.03338H45.2738ZM66.6522 5.03338L66.9892 4.02249H70.3588V5.03338H66.6522ZM45.2738 2.89928V2.03815H48.0818L48.3439 2.89928H45.2738ZM67.3636 2.89928L67.6631 2.03815H70.3588V2.89928H67.3636ZM67.2887 0.428214L67.139 0.802618H60.9613L61.1111 0.428214H67.2887ZM48.5685 0.428214H54.5215L54.6339 0.802618H48.6808L48.5685 0.428214ZM45.2738 0.428214H47.5576L47.67 0.802618H45.2738V0.428214ZM70.3588 0.428214V0.802618H68.075L68.2247 0.428214H70.3588ZM79.2185 26H72.3669V15.7039H79.2185V26ZM80.1545 20.2716H87.8297V26H80.1545V20.2716ZM80.1545 15.5541V13.757H87.8297V15.5541H80.1545ZM80.1545 13.4575V11.8101H87.8297V13.4575H80.1545ZM72.3669 15.5541V13.757H79.2185V15.5541H72.3669ZM72.3669 13.4575V11.8101H79.2185V13.4575H72.3669ZM72.3669 11.3234V9.86319H79.2185V11.3234H72.3669ZM72.3669 9.22671V7.91629H79.2185V9.22671H72.3669ZM72.3669 7.13004V5.96939H79.2185V7.13004H72.3669ZM80.1545 5.03338V4.02249H87.8297V5.03338H80.1545ZM72.3669 5.03338V4.02249H79.2185V5.03338H72.3669ZM80.1545 10.4248H87.8297V11.3234H80.1545V10.4248ZM80.1545 2.89928V2.03815H87.8297V2.89928H80.1545ZM72.3669 2.89928V2.03815H79.2185V2.89928H72.3669ZM87.8297 16.0783H80.1545V15.7039H87.8297V16.0783ZM80.1545 0.428214H87.8297V0.802618H80.1545V0.428214ZM72.3669 0.428214H79.2185V0.802618H72.3669V0.428214ZM87.8297 6.15659H80.1545V5.96939H87.8297V6.15659ZM6.8788 69H0.027206V58.7039H6.8788V69ZM17.8863 60.0143C17.8863 60.1641 17.7989 60.3887 17.6242 60.6882C17.4495 60.9628 17.2373 61.2374 16.9877 61.5119C16.7381 61.7615 16.476 61.9862 16.2015 62.1858C15.9269 62.3855 15.7022 62.4854 15.5275 62.4854H7.81481V58.7039H17.8863V60.0143ZM7.81481 58.5541V56.757H9.76171H9.79915H17.8863V58.5541H7.81481ZM0.027206 58.5541V56.757H6.8788V58.5541H0.027206ZM10.2484 56.4575C10.4232 56.2827 10.5854 56.0955 10.7352 55.8959C10.8849 55.6712 10.9848 55.509 11.0347 55.4091V54.8101H17.8863V56.4575H10.2484ZM0.027206 56.4575V54.8101H6.8788V56.4575H0.027206ZM7.81481 48.0334V47.0225H17.8863V48.0334H7.81481ZM0.027206 54.3234V52.8632H6.8788V54.3234H0.027206ZM11.0347 54.3234V52.8632H17.8863V54.3234H11.0347ZM10.8475 50.13C10.6977 49.9304 10.5105 49.7182 10.2859 49.4936C10.0862 49.2689 9.91147 49.1566 9.76171 49.1566H7.81481V48.9694H17.8863V50.13H10.8475ZM0.027206 52.2267V50.9163H6.8788V52.2267H0.027206ZM11.0347 52.2267V50.9163H17.8863V52.2267H11.0347ZM17.8863 45.8993H7.81481V45.0382H17.4744C17.5992 45.2129 17.6991 45.3751 17.774 45.5249C17.8488 45.6746 17.8863 45.7994 17.8863 45.8993ZM0.027206 50.13V48.9694H6.8788V50.13H0.027206ZM0.027206 48.0334V47.0225H6.8788V48.0334H0.027206ZM0.027206 45.8993V45.0382H6.8788V45.8993H0.027206ZM7.81481 43.8026V43.4282H15.5275C15.7272 43.4282 15.9893 43.553 16.3138 43.8026H7.81481ZM0.027206 43.4282H6.8788V43.8026H0.027206V43.4282ZM32.2727 69H25.4211V58.7039H32.2727V69ZM19.9174 63.2716H24.5226V69H19.9174V63.2716ZM33.1713 63.2716H37.5893V69H33.1713V63.2716ZM25.4211 58.5541V56.757H32.2727V58.5541H25.4211ZM25.4211 56.4575V54.8101H32.2727V56.4575H25.4211ZM25.4211 54.3234V52.8632H32.2727V54.3234H25.4211ZM25.4211 52.2267V50.9163H32.2727V52.2267H25.4211ZM25.4211 50.13V48.9694H32.2727V50.13H25.4211ZM25.4211 48.0334V47.0225H32.2727V48.0334H25.4211ZM25.4211 45.8993V45.0382H32.2727V45.8993H25.4211ZM19.9174 48.0334V47.0225H24.5226V48.0334H19.9174ZM33.1713 48.0334V47.0225H37.5893V48.0334H33.1713ZM19.9174 45.8993V45.0382H24.5226V45.8993H19.9174ZM33.1713 45.8993V45.0382H37.5893V45.8993H33.1713ZM25.4211 43.4282H32.2727V43.8026H25.4211V43.4282ZM19.9174 43.4282H24.5226V43.8026H19.9174V43.4282ZM33.1713 43.4282H37.5893V43.8026H33.1713V43.4282ZM24.5226 49.1566H19.9174V48.9694H24.5226V49.1566ZM37.5893 49.1566H33.1713V48.9694H37.5893V49.1566ZM50.6323 69V60.4262C50.6323 60.3263 50.5824 60.2015 50.4825 60.0517C50.3827 59.902 50.2703 59.7522 50.1455 59.6025C50.0207 59.4527 49.8835 59.3279 49.7337 59.2281C49.5839 59.1282 49.4591 59.0783 49.3593 59.0783H47.4124V58.7039H57.4839V69H50.6323ZM46.4764 69H39.6248V58.7039H46.4764V69ZM57.4839 58.3669V58.5541H47.4124V56.757H56.4355C56.7101 56.9816 56.9347 57.2312 57.1095 57.5058C57.3091 57.7804 57.4339 58.0674 57.4839 58.3669ZM55.799 56.1205V56.3077C55.849 56.3327 55.8864 56.3576 55.9114 56.3826C55.9363 56.4075 55.9738 56.4325 56.0237 56.4575H47.4124V54.8101H57.2592C57.0845 55.1096 56.8474 55.3717 56.5479 55.5963C56.2483 55.821 55.9987 55.9957 55.799 56.1205ZM57.4839 54.1362C57.4839 54.236 57.4714 54.2984 57.4464 54.3234H47.4124V53.3874H49.3593C49.5839 53.3874 49.846 53.2126 50.1455 52.8632H57.4839V54.1362ZM39.6248 58.3669C39.6747 58.0674 39.787 57.7804 39.9618 57.5058C40.1614 57.2312 40.3986 56.9816 40.6731 56.757H46.4764V58.5541H39.6248V58.3669ZM39.6248 54.3234V54.1362V52.8632H46.4764V54.3234H39.6248ZM41.3096 56.1205C41.085 55.9957 40.8229 55.821 40.5234 55.5963C40.2238 55.3717 39.9867 55.1096 39.812 54.8101H46.4764V56.4575H41.085C41.1349 56.4325 41.1723 56.4075 41.1973 56.3826C41.2223 56.3576 41.2597 56.3327 41.3096 56.3077V56.1205ZM50.5948 52.2267C50.5948 52.1768 50.5948 52.1518 50.5948 52.1518C50.6198 52.1269 50.6323 52.0894 50.6323 52.0395V50.9163H57.4839V52.2267H50.5948ZM39.6248 52.2267V50.9163H46.4764V52.2267H39.6248ZM39.6248 50.13V48.9694H46.4764V50.13H39.6248ZM50.6323 50.13V48.9694H57.4839V50.13H50.6323ZM39.6248 48.0334V47.0225H46.4764V48.0334H39.6248ZM50.6323 48.0334V47.0225H57.4839V48.0334H50.6323ZM39.6248 45.8993V45.0382H46.4764V45.8993H39.6248ZM50.6323 45.8993V45.0382H57.4839V45.8993H50.6323ZM46.4764 43.4282V43.8026H39.6248V43.4282H46.4764ZM57.4839 43.4282V43.8026H50.6323V43.4282H57.4839ZM66.3666 69H59.515V58.7039H66.3666V69ZM67.3026 63.2716H74.9779V69H67.3026V63.2716ZM67.3026 58.5541V56.757H74.9779V58.5541H67.3026ZM67.3026 56.4575V54.8101H74.9779V56.4575H67.3026ZM59.515 58.5541V56.757H66.3666V58.5541H59.515ZM59.515 56.4575V54.8101H66.3666V56.4575H59.515ZM59.515 54.3234V52.8632H66.3666V54.3234H59.515ZM59.515 52.2267V50.9163H66.3666V52.2267H59.515ZM59.515 50.13V48.9694H66.3666V50.13H59.515ZM67.3026 48.0334V47.0225H74.9779V48.0334H67.3026ZM59.515 48.0334V47.0225H66.3666V48.0334H59.515ZM67.3026 53.4248H74.9779V54.3234H67.3026V53.4248ZM67.3026 45.8993V45.0382H74.9779V45.8993H67.3026ZM59.515 45.8993V45.0382H66.3666V45.8993H59.515ZM74.9779 59.0783H67.3026V58.7039H74.9779V59.0783ZM67.3026 43.4282H74.9779V43.8026H67.3026V43.4282ZM59.515 43.4282H66.3666V43.8026H59.515V43.4282ZM74.9779 49.1566H67.3026V48.9694H74.9779V49.1566ZM83.8437 69H76.9921V58.7039H83.8437V69ZM84.8171 63.3465H86.427V60.9878H93.2786V69H84.8171V63.3465ZM76.9921 58.5541V56.757H83.8437V58.5541H76.9921ZM76.9921 56.4575V54.8101H83.8437V56.4575H76.9921ZM76.9921 54.3234V52.8632H83.8437V54.3234H76.9921ZM76.9921 52.2267V50.9163H83.8437V52.2267H76.9921ZM76.9921 50.13V48.9694H83.8437V50.13H76.9921ZM76.9921 48.0334V47.0225H83.8437V48.0334H76.9921ZM76.9921 45.8993V45.0382H83.8437V45.8993H76.9921ZM76.9921 43.4282H83.8437V43.8026H76.9921V43.4282Z" fill="url(#paint0_linear_50_8688)"/>
<defs>
<linearGradient id="paint0_linear_50_8688" x1="-44" y1="35" x2="136.926" y2="44.5363" gradientUnits="userSpaceOnUse">
<stop stop-color="#F9A545"/>
<stop offset="0.5" stop-color="#FCCB90"/>
<stop offset="0.75" stop-color="#FEDDB6"/>
<stop offset="1" stop-color="#FFF0DB"/>
</linearGradient>
</defs>
</svg>
