<svg width="50" height="46" viewBox="0 0 50 46" fill="none" xmlns="http://www.w3.org/2000/svg">
<path d="M41.2116 12.5C39.2116 12.5 37.0116 13.1 34.3116 14.5C32.8116 15.3 31.3117 16 29.6117 16.8C29.8117 15.4 29.9117 14.2 30.1117 13C30.2117 12.6 30.2116 12.2 30.3116 11.8C30.6116 9.60002 31.0117 7.20002 29.9117 4.80002C28.4117 1.60002 24.8117 -0.0999859 21.6117 1.20001C19.9117 1.90001 17.3117 3.50002 16.9117 6.30002C16.6117 8.10002 16.4116 9.8 16.7116 11.5C16.8116 12.1 16.9116 12.8 17.0116 13.4C17.0116 13.6 17.0117 13.9 17.1117 14.3C17.2117 15.1 17.2116 15.9 17.3116 16.5C15.7116 15.7 14.2117 15 12.9117 14.3C11.5117 13.6 9.71164 12.7 7.71164 12.7C6.81164 12.7 6.01162 12.9 5.31162 13.2C2.11162 14.7 0.611615 18.3 1.81162 21.5C2.81162 24 4.91165 25.9 7.91165 27.1C8.01165 27.1 8.11164 27.2 8.21164 27.2C9.91164 27.6 11.7116 28 13.5116 28.3C13.4116 28.4 13.4116 28.4 13.3116 28.5C12.5116 29.3 11.8117 30.1 11.1117 30.9L10.3116 31.8C8.81161 33.4 7.01165 35.3 6.91165 38.2C6.91165 41 8.51161 43.3 11.3116 44.3C13.4116 45.1 15.6117 45.1 17.4117 44.4C19.3117 43.7 20.0117 42.3 20.6117 41.2C20.7117 41 20.8117 40.8 20.9117 40.6C21.7117 39.2 22.5116 37.7 23.3116 36.3C23.3116 36.2 23.4116 36.1 23.5116 35.9C24.3116 37.6 25.1116 39.3 26.3116 40.9C27.8116 42.9 30.7117 45.3 33.9117 45.3C35.1117 45.3 36.3116 45 37.3116 44.3C43.1116 40.7 38.9116 33.6 35.5116 30.1C34.9116 29.5 34.4116 28.9 33.8116 28.4C36.4116 27.9 38.8117 27.3 41.1117 26.7C45.6117 25.4 50.0116 21.8 47.8116 16.7C46.8116 13.8 44.2116 12.5 41.2116 12.5Z" fill="#FFC52F" stroke="#221F1F" stroke-width="1.3482" stroke-miterlimit="10" stroke-linecap="round" stroke-linejoin="round"/>
<path d="M8.21159 27.3C9.81159 27.7 11.6116 28.0001 13.4116 28.4001C14.4116 27.9001 17.1116 26.3 15.0116 25.7C13.6116 25.3 12.1116 24.9 10.7116 24.5C8.01159 23.8 3.81161 22 2.61161 19.2C2.21161 18.3 2.11159 17.3 2.21159 16.3C1.41159 17.9 1.2116 19.8 1.9116 21.6C2.9116 24.1 5.01158 26 8.01158 27.2C8.01158 27.2 8.11159 27.3 8.21159 27.3Z" fill="#FFC52F"/>
<path d="M48.0118 16.6C46.8118 13.7 44.2118 12.4001 41.3118 12.4001C39.3118 12.4001 37.1118 13.0001 34.4118 14.4001C32.9118 15.2001 31.4118 15.9 29.7118 16.7C29.9118 15.3 30.0118 14.1001 30.2118 12.9001C30.3118 12.5001 30.3118 12.1 30.4118 11.7C30.7118 9.50004 31.1118 7.10004 30.0118 4.70004C28.5118 1.50004 24.9118 -0.199961 21.7118 1.10004C20.4118 1.60004 18.6118 2.70005 17.7118 4.30005C18.7118 3.50005 19.9118 2.90003 20.7118 3.00003C23.7118 3.30003 26.0118 5.80005 26.7118 8.80005C27.2118 11.0001 27.2118 13.2001 26.9118 15.4001C26.6118 17.0001 25.5118 20.3 28.4118 19C32.7118 17.1 43.1118 11.8 44.6118 20C45.1118 22.5 42.4118 24.3001 40.4118 24.9001C37.2118 26.0001 33.9118 27.3 30.6118 28.1C32.5118 30.1 34.8118 31.9 36.0118 34.6C36.8118 36.3 37.5118 39.3 35.3118 40.3C32.6118 41.6 30.4118 40 28.7118 38C26.5118 35.4 24.6118 32.6 22.8118 29.7C21.4118 34.7 19.4118 40.9 14.5118 41.5C10.8118 42 8.2118 39.4 7.4118 36.2C7.2118 36.8 7.11182 37.4 7.11182 38.1C7.11182 40.9 8.71178 43.2 11.5118 44.2C13.6118 45 15.8118 45 17.6118 44.3C19.5118 43.6 20.2118 42.2 20.8118 41.1C20.9118 40.9 21.0118 40.7 21.1118 40.5C21.9118 39.1 22.7118 37.6 23.5118 36.2C23.5118 36.1 23.6118 36 23.7118 35.8C24.5118 37.5 25.3118 39.2001 26.5118 40.8C28.0118 42.8 30.9118 45.2 34.1118 45.2C35.3118 45.2 36.5118 44.9 37.5118 44.2C43.3118 40.6 39.1118 33.5 35.7118 30C35.1118 29.4 34.6118 28.8001 34.0118 28.3001C36.6118 27.8001 39.0118 27.2 41.3118 26.6C45.7118 25.4 50.1118 21.8 48.0118 16.6Z" fill="#FFC52F"/>
<path d="M17.5117 18.9001C15.8117 17.8001 13.9118 16.8 12.1118 15.8C11.0118 15.2 9.51177 14.3 8.11177 14.3C6.31177 14.4 3.41174 15.7 3.71174 17.8C3.71174 18.2 4.31172 17.9 4.31172 17.6C4.31172 17.5 4.31174 17.5 4.21174 17.5L5.21174 16.4001C6.41174 15.6001 7.71177 15.4 9.11177 16C9.91177 16.3 10.6117 16.6 11.3117 17C13.2117 17.9 14.9117 19.1001 16.8117 19.9001C17.4117 20.0001 18.0117 19.2001 17.5117 18.9001Z" fill="white"/>
<path d="M20.5117 4.70006C17.5117 6.10006 18.6117 10.2001 18.9117 12.8001C18.9117 13.4001 19.7117 13.1001 19.9117 12.7001C20.6117 10.1001 18.5117 7.30005 20.7117 5.00005C20.8117 4.90005 20.7117 4.60006 20.5117 4.70006Z" fill="white"/>
<path d="M13.8117 31.6C13.8117 31.5 13.7117 31.5 13.6117 31.5C12.1117 33.1 8.4117 36 10.2117 38.4C10.5117 38.9 11.3117 38.2 11.2117 37.8C10.9117 36.1 11.8117 35 12.6117 33.6C13.0117 33 13.7117 32.4 13.8117 31.6Z" fill="white"/>
</svg>
