<svg width="96" height="81" viewBox="0 0 96 81" fill="none" xmlns="http://www.w3.org/2000/svg">
<path d="M85.2298 25.1189C83.5329 24.9013 81.8359 25.0754 80.3129 25.554C80.3129 15.024 73.0028 5.58178 62.5163 3.05806C57.6864 1.88322 52.813 1.23054 47.8526 1.05649C36.844 0.708386 27.2277 7.88795 24.3559 18.1569C23.007 17.2866 21.397 16.6775 19.7 16.4164C13.5648 15.5897 7.90816 19.9409 7.08142 26.0762C6.25468 32.2114 10.6059 37.8681 16.7412 38.6948C19.8741 39.1299 22.8765 38.1726 25.1826 36.3886C26.8796 39.9131 29.8385 42.7415 33.537 44.2209C33.0584 45.0911 32.7973 46.0484 32.7973 47.0057C32.7973 52.5318 41.1517 57.0135 51.4206 57.0135C61.6896 57.0135 70.044 52.5318 70.044 47.0057C70.044 46.8751 70.044 46.7011 70.044 46.5706C71.7845 45.6568 73.3944 44.3949 74.6998 42.872C76.4403 45.2652 79.1381 46.9187 82.271 47.3538C88.4063 48.1805 94.0629 43.8293 94.8896 37.694C95.7164 31.5587 91.3651 25.9021 85.2298 25.1189Z" fill="#C9ADB5"/>
<path d="M63.4736 49.4859C62.9514 49.4859 62.4728 49.0507 62.4293 48.5286C62.3858 47.9629 62.8209 47.4843 63.3866 47.4408C67.4767 47.1797 71.2188 45.3087 73.9166 42.2193C74.1342 42.0017 74.4388 41.8712 74.7433 41.8712C75.0479 41.8712 75.3525 42.0452 75.5266 42.3063C77.18 44.569 79.6167 46.0049 82.4015 46.353C87.9711 47.0927 93.1056 43.1766 93.8453 37.5634C94.1934 34.8657 93.4972 32.1679 91.8437 30.0358C90.1903 27.8602 87.7971 26.4678 85.0993 26.1197C83.5764 25.9021 82.0969 26.0326 80.6175 26.5113C80.3129 26.5983 79.9648 26.5548 79.7038 26.3807C79.4427 26.2067 79.2686 25.8586 79.2686 25.554C79.2686 20.6806 77.5716 15.8507 74.5258 11.9346C71.4364 8.01847 67.0851 5.23367 62.2553 4.05883C57.5124 2.92751 52.639 2.27482 47.8091 2.10077C42.7181 1.92672 37.7142 3.49317 33.624 6.45202C29.5774 9.41087 26.6185 13.6751 25.3132 18.418C25.2261 18.7225 25.0086 18.9836 24.6605 19.1142C24.3559 19.2447 24.0078 19.2012 23.7467 19.0271C22.4848 18.2004 21.0489 17.6782 19.526 17.4607C13.9564 16.721 8.82192 20.6371 8.08221 26.2502C7.34249 31.8198 11.3021 36.9543 16.8717 37.694C19.613 38.0421 22.3543 37.3024 24.5299 35.6054C24.791 35.4313 25.0956 35.3443 25.4002 35.3878C25.7048 35.4748 25.9658 35.6489 26.0964 35.9535C27.8369 39.565 30.8827 42.2628 34.6248 43.5682C35.147 43.7422 35.4516 44.3514 35.2775 44.8735C35.1035 45.3957 34.4943 45.7003 33.9721 45.5262C30.0995 44.1773 26.8796 41.4796 24.8345 37.9115C22.3978 39.478 19.526 40.1307 16.6107 39.7391C9.90973 38.8688 5.16687 32.69 6.08063 25.9891C6.95088 19.2882 13.1297 14.5453 19.8306 15.4591C21.223 15.6332 22.5284 16.0683 23.7467 16.6775C25.3567 11.9781 28.4025 7.8009 32.4492 4.84206C36.844 1.53511 42.3265 -0.161881 47.8526 0.0121694C52.8566 0.186219 57.8605 0.838907 62.7339 2.01374C67.9989 3.27561 72.7853 6.36499 76.1357 10.6292C79.2251 14.5453 81.0091 19.2882 81.2702 24.2051C82.6191 23.944 83.968 23.9005 85.3169 24.0746C88.5803 24.5097 91.4521 26.1632 93.4537 28.7739C95.4553 31.3847 96.3255 34.6046 95.8904 37.8245C95.0637 44.0033 89.7987 48.4851 83.7504 48.4851C83.2283 48.4851 82.6626 48.4416 82.1405 48.3981C79.2251 48.0064 76.6144 46.614 74.6563 44.4819C71.6975 47.4408 67.7813 49.2248 63.5606 49.4859C63.5171 49.4859 63.5171 49.4859 63.4736 49.4859Z" fill="#AB8D96"/>
<path d="M59.7315 45.2216C52.5955 45.6133 45.6335 44.656 38.8455 42.4368C34.6683 41.0444 31.666 37.5634 31.1438 33.4733C30.8828 31.3412 30.8392 29.2526 31.0568 27.2075C31.9706 19.1577 39.4547 13.2835 48.2007 13.6316C51.7252 13.7621 55.2498 14.2408 58.6872 15.0675C66.9111 16.982 72.4372 24.3792 71.4364 32.1244C71.1753 34.213 70.6097 36.3016 69.7829 38.3467C68.2165 42.2628 64.3004 44.9606 59.7315 45.2216Z" fill="#F5E9C1"/>
<path d="M87.9686 36.9016C88.2837 34.6648 86.7259 32.596 84.4891 32.2809C82.2523 31.9658 80.1835 33.5236 79.8684 35.7604C79.5533 37.9972 81.1111 40.066 83.3479 40.3811C85.5847 40.6962 87.6535 39.1384 87.9686 36.9016Z" fill="#AB8D96"/>
<path d="M40.2814 29.6007C40.1509 30.732 39.1066 31.4717 37.9753 31.3412C36.844 31.2106 36.0607 30.1663 36.1913 29.035C36.3218 27.9037 37.3661 27.164 38.4974 27.2945C39.6287 27.4685 40.4555 28.4693 40.2814 29.6007Z" fill="#5F5C5D"/>
<path d="M54.336 35.2138C54.0314 35.2138 53.7268 35.1702 53.3787 35.1267C52.813 34.9962 52.465 34.474 52.5955 33.9084C52.726 33.3427 53.2482 32.9946 53.8138 33.1252C55.3368 33.4297 56.207 32.2114 56.207 32.1679C56.5116 31.6892 57.1643 31.5587 57.6429 31.9068C58.1216 32.2114 58.2521 32.8641 57.904 33.3427C57.8605 33.3862 56.5551 35.2138 54.336 35.2138Z" fill="#5F5C5D"/>
<path d="M53.5963 34.0824C50.7245 35.6924 43.8495 35.2138 43.7625 31.2541C43.6754 27.2945 49.0275 27.4685 49.7237 30.6014C50.3764 33.6908 53.5963 34.0824 53.5963 34.0824Z" fill="#E27FA3"/>
<path d="M49.5931 35.9535C47.9832 35.9535 46.3297 35.6489 45.0243 34.9092C43.5449 34.0825 42.7617 32.7771 42.7182 31.2541C42.6746 29.4701 43.6754 27.5121 46.0686 27.251C48.5923 26.9464 50.3328 28.6434 50.7245 30.3839C51.2466 32.7336 53.6398 33.0382 53.7268 33.0817C54.1619 33.1252 54.51 33.4733 54.5971 33.9084C54.6841 34.3435 54.4665 34.7787 54.0749 34.9962C52.9871 35.6054 51.3336 35.9535 49.5931 35.9535ZM46.5908 29.2961C46.5037 29.2961 46.4167 29.2961 46.3297 29.2961C45.764 29.3831 44.7632 29.6877 44.8068 31.2106C44.8068 31.9939 45.2419 32.603 46.0686 33.0817C47.287 33.7779 49.0275 33.9954 50.5939 33.8214C49.7672 33.1687 49.0275 32.2114 48.7229 30.7755C48.4618 29.8182 47.5045 29.2961 46.5908 29.2961Z" fill="#DD528B"/>
<path d="M68.521 35.1703C68.3905 35.1703 68.3035 35.1703 68.1729 35.1268C68.1294 35.1268 64.6049 33.8214 61.7766 33.5168C61.3415 33.4733 60.9934 33.1687 60.9064 32.7336C60.8193 32.2985 60.9499 31.8633 61.298 31.6458C61.4285 31.5587 64.4309 29.4266 67.1722 29.035C67.7378 28.948 68.26 29.3396 68.347 29.9053C68.434 30.4709 68.0424 30.9931 67.4767 31.0801C66.6065 31.2107 65.6492 31.5588 64.8225 31.9504C66.9546 32.4725 68.7821 33.1252 68.8691 33.1687C69.3913 33.3428 69.6959 33.9519 69.4783 34.4741C69.3043 34.9092 68.9127 35.1703 68.521 35.1703Z" fill="#5F5C5D"/>
<path d="M32.3622 22.9868C29.7514 20.1149 23.8773 19.4622 18.3947 23.9875C13.0426 28.2083 8.08222 37.5634 9.95326 48.224C11.3892 58.9716 18.9603 66.3687 25.3567 68.7619C31.9706 71.4162 37.3661 69.023 38.9761 65.4985C42.3701 57.9708 34.1897 54.4463 32.7538 44.6995C31.1874 34.9527 37.8883 29.122 32.3622 22.9868Z" fill="#FFFFA1"/>
<path d="M32.7973 64.1931C32.6668 64.1931 32.4927 64.1496 32.3622 64.106C32.2316 64.019 28.7071 62.3655 25.0521 59.0151C20.1352 54.5333 17.3504 49.1813 16.9587 43.5246C16.3931 35.8229 20.0916 30.2533 23.3116 26.9464C23.7032 26.5548 24.3559 26.5112 24.791 26.9029C25.1826 27.2945 25.2261 27.9472 24.8345 28.3823C21.8321 31.3411 18.4817 36.3886 19.0038 43.3506C19.3519 48.5286 21.8757 53.2714 26.401 57.4486C29.8384 60.5815 33.2324 62.1915 33.2324 62.235C33.7546 62.4961 33.9721 63.1053 33.7111 63.6274C33.537 63.9755 33.1889 64.1931 32.7973 64.1931Z" fill="#FFE4A9"/>
<path d="M27.4888 41.8276C27.4888 42.8719 28.2285 43.7422 29.1422 43.7422C30.056 43.7422 30.7957 42.8719 30.7957 41.8276C30.7957 40.7833 30.056 39.9131 29.1422 39.9131C28.2285 39.9131 27.4888 40.7833 27.4888 41.8276Z" fill="#5F5C5D"/>
<path d="M16.0885 41.8276C16.0885 42.8719 16.8282 43.7422 17.742 43.7422C18.6557 43.7422 19.3954 42.8719 19.3954 41.8276C19.3954 40.7833 18.6557 39.9131 17.742 39.9131C16.8282 39.9131 16.0885 40.7833 16.0885 41.8276Z" fill="#5F5C5D"/>
<path d="M30.8392 70.9375C29.1858 70.9375 27.2277 70.6329 25.0086 69.7627C18.3076 67.2389 10.4319 59.4937 8.95246 48.398C6.9944 37.3894 12.1724 27.5991 17.7855 23.1608C21.223 20.3325 24.3994 19.6798 26.488 19.6798C29.1858 19.6363 31.6225 20.5935 33.1889 22.2905C36.7134 26.2067 35.7562 30.1228 34.7119 34.2565C33.9721 37.2153 33.1454 40.6093 33.7981 44.5689C34.4073 48.5721 36.1913 51.5309 37.8012 54.0982C40.0204 57.7097 42.109 61.1472 39.9769 65.9336C39.0196 68.0222 36.9745 69.6756 34.4073 70.4589C33.45 70.7199 32.2752 70.9375 30.8392 70.9375ZM26.7056 21.7249C24.3559 21.7249 21.6581 22.6386 19.0909 24.7707C13.9129 28.8609 9.17002 37.868 10.9975 48.0499V48.0934C12.3464 58.3624 19.613 65.4984 25.7483 67.8046C30.3171 69.6321 36.1913 69.11 38.0188 65.0633C39.7158 61.2777 38.1493 58.7105 35.9737 55.1425C34.2767 52.3577 32.3622 49.2248 31.7095 44.83C31.0133 40.4788 31.8835 36.8672 32.6668 33.7343C33.6676 29.6877 34.3638 26.7723 31.6225 23.6394C30.4911 22.4646 28.7506 21.7249 26.7056 21.7249Z" fill="#F9CB71"/>
<path d="M30.4041 28.2517C29.0987 28.2953 27.8369 27.7731 26.9231 26.7723C26.0964 25.8586 25.6613 24.5967 25.7918 23.3783C25.8788 22.16 26.488 20.9852 27.4888 20.2019L32.1881 16.4599C33.3194 15.5461 34.8859 15.4591 36.1478 16.1988C36.931 16.6774 37.4966 17.4171 37.7142 18.3309C37.9318 19.2447 37.8012 20.1584 37.3226 20.9416L34.1897 26.0761C33.45 27.2945 32.1881 28.0777 30.7522 28.2082C30.6217 28.2517 30.4911 28.2517 30.4041 28.2517Z" fill="#5F5C5D"/>
<path d="M25.7918 44.4819C25.7048 46.0483 24.5734 47.2232 23.3116 47.1797C22.0062 47.0926 21.0489 45.7873 21.136 44.2208C21.223 42.6544 22.2673 42.3063 23.5727 42.3498C24.878 42.4368 25.8788 42.9154 25.7918 44.4819Z" fill="#E27FA3"/>
<path d="M23.4421 48.224C23.3986 48.224 23.3551 48.224 23.268 48.224C22.3543 48.1805 21.484 47.7019 20.8749 46.8751C20.3092 46.1354 20.0481 45.1781 20.0916 44.1773C20.1787 42.8285 20.7878 42.1758 21.3535 41.8277C21.9627 41.4361 22.7024 41.3055 23.6161 41.349C24.5734 41.3925 25.2696 41.6536 25.8353 42.0887C26.3139 42.4804 26.8796 43.2201 26.8361 44.569C26.7926 45.5697 26.4009 46.4835 25.7918 47.1797C25.1391 47.8324 24.3123 48.224 23.4421 48.224ZM23.3116 43.3941C22.8329 43.3941 22.6154 43.4811 22.4848 43.5682C22.3978 43.6117 22.2237 43.7422 22.1802 44.3079C22.1367 44.83 22.2673 45.3087 22.5718 45.6568C22.7024 45.8308 22.9635 46.1354 23.3986 46.1354C23.8337 46.1354 24.1383 45.8743 24.2688 45.7438C24.5734 45.3957 24.7475 44.9171 24.791 44.4384C24.8345 43.8728 24.6604 43.7422 24.5734 43.6987C24.4429 43.6117 24.1383 43.4376 23.5291 43.4376C23.4421 43.3941 23.3551 43.3941 23.3116 43.3941Z" fill="#5F5C5D"/>
<path d="M88.0146 79.5965H1.03317L11.0846 54.1417H77.9633L88.0146 79.5965Z" fill="#A3D676"/>
<path d="M88.0146 80.6408H1.03318C0.685075 80.6408 0.380488 80.4668 0.162925 80.2057C-0.0111247 79.9011 -0.0546372 79.553 0.0759003 79.2484L10.1273 53.7936C10.3013 53.402 10.6494 53.1409 11.0846 53.1409H77.9632C78.3984 53.1409 78.79 53.402 78.9205 53.7936L88.9719 79.2484C89.1024 79.553 89.0589 79.9446 88.8849 80.2057C88.6673 80.4668 88.3627 80.6408 88.0146 80.6408ZM2.55611 78.5957H86.4917L77.2235 55.186H11.7808L2.55611 78.5957Z" fill="#87B758"/>
<path d="M44.1976 49.6599C41.6738 50.7912 39.9769 52.6187 41.1517 55.186C42.283 57.7097 45.2854 58.841 47.8526 57.7097C50.3763 56.5784 51.5077 53.576 50.3763 51.0088C49.245 48.4415 46.7213 48.4851 44.1976 49.6599Z" fill="#C9ADB5"/>
<path d="M45.764 59.1456C43.4578 59.1456 41.2387 57.7967 40.1944 55.5776C39.4982 54.0547 39.5852 52.5752 40.412 51.3134C41.0647 50.2691 42.196 49.3988 43.7624 48.7026C45.3289 48.0064 46.7213 47.7454 47.9396 47.9194C49.4626 48.137 50.5939 49.0507 51.2901 50.5737C52.6825 53.6195 51.2901 57.2311 48.2442 58.6235C47.4175 58.9716 46.5907 59.1456 45.764 59.1456ZM47.1999 49.921C46.4602 49.921 45.59 50.1385 44.6327 50.5737C43.4578 51.0958 42.5876 51.7485 42.1525 52.4447C41.7173 53.1409 41.6738 53.8806 42.0654 54.7509C42.9792 56.7524 45.3724 57.6662 47.374 56.7524C49.3755 55.8387 50.2893 53.4455 49.3755 51.4439C48.9839 50.5737 48.4183 50.095 47.5915 49.9645C47.5045 49.921 47.3305 49.921 47.1999 49.921Z" fill="#AB8D96"/>
<path d="M61.6026 57.4486L47.7221 59.3197L46.2862 53.9676L37.192 43.9598L41.8479 60.1029L52.3344 76.2895L78.2678 70.7635L61.6026 57.4486Z" fill="white"/>
<path d="M52.3344 77.3338C51.9863 77.3338 51.6817 77.1598 51.4642 76.8552L40.9776 60.7121C40.8906 60.625 40.8471 60.4945 40.8471 60.4075L36.1913 44.3079C36.0607 43.8292 36.2783 43.3506 36.6699 43.133C37.105 42.9155 37.6272 43.0025 37.9318 43.3506L47.0259 53.3585C47.1564 53.489 47.1999 53.6195 47.2434 53.7936L48.4618 58.2754L61.4285 56.5349C61.6896 56.4914 61.9942 56.5784 62.2117 56.7524L78.877 70.0237C79.1816 70.2848 79.3121 70.6764 79.2251 71.068C79.1381 71.4597 78.8335 71.7642 78.4419 71.8513L52.5085 77.3773C52.4649 77.2903 52.3779 77.3338 52.3344 77.3338ZM49.0275 60.1899L53.0741 75.0712L75.9182 70.1978L61.298 58.5364L49.0275 60.1899ZM42.8052 59.7113L49.5931 70.1978L45.3289 54.4898L39.4112 47.9629L42.8052 59.7113Z" fill="#E2E2E2"/>
<path d="M65.1271 58.6235C65.1271 58.6235 62.0377 64.6718 59.3399 63.2358C56.6421 61.7999 59.9926 55.8822 59.9926 55.8822L65.1271 58.6235Z" fill="#E27FA3"/>
<path d="M60.2101 64.4977C59.7315 64.4977 59.2529 64.3672 58.8178 64.1496C58.1216 63.758 57.5994 63.1488 57.3818 62.3221C56.6421 59.7549 58.8178 55.7952 59.0788 55.3601L60.8628 56.4044C60.0796 57.7968 58.9918 60.4511 59.3399 61.7564C59.4269 62.0175 59.5575 62.1916 59.775 62.3221C59.9926 62.4526 60.2102 62.4526 60.4712 62.3656C61.7766 61.974 63.4301 59.5808 64.1263 58.1449L65.9538 59.1022C65.7362 59.5373 63.6476 63.5405 61.0804 64.3237C60.8628 64.4542 60.5147 64.4977 60.2101 64.4977Z" fill="#DD528B"/>
<path d="M68.9997 56.2304C67.3027 58.9281 65.0836 60.4511 61.7331 58.6235C58.3826 56.796 58.4262 54.0982 59.7315 51.2264" fill="white"/>
<path d="M64.4744 60.451C63.4301 60.451 62.3858 60.1464 61.2109 59.5373C57.7734 57.7097 56.9467 54.7509 58.7742 50.7913L60.6453 51.6615C59.2964 54.6204 59.775 56.4479 62.1682 57.7533C64.6049 59.0586 66.3454 58.4495 68.0859 55.7082L69.8264 56.796C68.347 59.2327 66.5195 60.451 64.4744 60.451Z" fill="#E2E2E2"/>
<path d="M76.0723 51.2504C78.5711 46.6185 76.9963 40.9213 72.5548 38.5252C68.1133 36.129 62.4871 37.9415 59.9883 42.5733C57.4895 47.2051 59.0643 52.9024 63.5058 55.2985C67.9473 57.6946 73.5735 55.8822 76.0723 51.2504Z" fill="#FFBE8D"/>
<path d="M68.6951 57.8838C66.9546 57.8838 65.04 57.3182 62.9949 56.2304C59.7315 54.4463 57.817 52.2272 57.3383 49.573C56.9467 47.3973 57.5124 44.9171 59.0353 42.0888C60.5582 39.2605 62.2987 37.433 64.3438 36.5627C66.824 35.5184 69.7394 35.8665 73.0028 37.607C76.2663 39.391 78.1808 41.6102 78.6594 44.2644C79.0511 46.44 78.4854 48.9203 76.9625 51.7486C75.4395 54.5769 73.699 56.4044 71.6539 57.2747C70.7402 57.6663 69.7394 57.8838 68.6951 57.8838ZM63.9957 54.4028C66.737 55.8823 68.9562 56.1868 70.8707 55.3601C72.4807 54.6639 73.8731 53.1845 75.1784 50.7478C76.4838 48.3111 76.9625 46.3095 76.6579 44.6125C76.3098 42.5674 74.7868 40.8705 72.0891 39.391C69.3478 37.9116 67.1286 37.607 65.2141 38.4338C63.6041 39.13 62.2117 40.6094 60.9063 43.0461C59.601 45.4828 59.1223 47.4844 59.4269 49.1813C59.775 51.2264 61.2544 52.9234 63.9957 54.4028Z" fill="#EA9C71"/>
<path d="M73.4379 45.5698C73.3509 45.5698 73.2639 45.5698 73.1769 45.5262C69.1302 44.5255 66.6065 42.0452 66.5194 41.9147C66.1278 41.5231 66.1278 40.8704 66.5194 40.4353C66.9111 40.0437 67.5638 40.0437 67.9989 40.4353C68.0424 40.4788 70.218 42.6109 73.699 43.4812C74.2647 43.6117 74.5693 44.1774 74.4387 44.743C74.3082 45.2652 73.9166 45.5698 73.4379 45.5698Z" fill="#EA9C71"/>
<path d="M77.8327 53.6195C78.9205 51.0523 78.877 48.5721 76.3098 47.4843C73.7425 46.3965 70.7837 47.6148 69.6959 50.182C68.6081 52.7493 69.8264 55.7081 72.3937 56.7959C74.9609 57.8838 76.7449 56.1868 77.8327 53.6195Z" fill="#C9ADB5"/>
<path d="M73.9166 58.1449C73.3074 58.1449 72.6547 58.0144 72.002 57.7533C68.9126 56.4479 67.4332 52.8799 68.7386 49.7905C69.3478 48.3111 70.5226 47.1362 72.0456 46.5271C73.5685 45.9179 75.222 45.9179 76.7014 46.5271C78.2243 47.1798 79.1816 48.3111 79.4427 49.7905C79.6602 51.0089 79.4427 52.4013 78.79 54.0112C78.1373 55.5777 77.267 56.7525 76.2663 57.4487C75.5265 57.9273 74.7433 58.1449 73.9166 58.1449ZM74.3517 48.137C73.8296 48.137 73.3074 48.2241 72.8288 48.4416C71.828 48.8332 71.0448 49.6165 70.6531 50.6172C69.7829 52.6623 70.7837 55.012 72.7853 55.8823C73.3944 56.1433 75.309 56.9266 76.8754 53.228C77.3541 52.0532 77.5716 50.9653 77.3976 50.1821C77.267 49.3554 76.7884 48.8332 75.8746 48.4416C75.396 48.2241 74.8739 48.137 74.3517 48.137Z" fill="#AB8D96"/>
<path d="M17.5244 58.9716H30.9262L32.8843 71.1986H15.0442L17.5244 58.9716Z" fill="white"/>
<path d="M32.8843 72.2429H15.0442C14.7396 72.2429 14.435 72.1123 14.261 71.8513C14.0434 71.5902 13.9999 71.2856 14.0434 70.981L16.4801 58.7105C16.5671 58.2319 17.0023 57.8838 17.4809 57.8838H30.8828C31.4049 57.8838 31.84 58.2319 31.8835 58.754L33.8416 71.0245C33.8851 71.3291 33.7981 71.6337 33.624 71.8513C33.4935 72.1123 33.1889 72.2429 32.8843 72.2429ZM16.3061 70.1543H31.666L30.0125 59.9724H18.3512L16.3061 70.1543Z" fill="#E2E2E2"/>
<path d="M9.95325 48.224C11.0411 55.012 22.8329 66.1947 25.7483 58.9281C27.3147 55.0555 19.4825 53.3585 17.4809 48.8767L9.95325 48.224Z" fill="#FFFFA1"/>
<path d="M22.6154 62.3221C22.3978 62.3221 22.2238 62.3221 22.0062 62.2786C16.6977 61.6694 9.82269 53.6196 8.95244 48.3546C8.86542 47.7889 9.25703 47.2667 9.82269 47.1797C10.3884 47.0927 10.9105 47.4843 10.9975 48.05C11.7808 52.8363 18.1771 59.7548 22.2238 60.2335C23.4856 60.364 24.3124 59.8419 24.8345 58.5365C25.3131 57.3181 24.4864 56.4479 21.6146 54.4028C19.7 53.0539 17.5679 51.4875 16.5671 49.2683C16.3496 48.7462 16.5671 48.137 17.0893 47.9194C17.6114 47.7019 18.2206 47.9194 18.4382 48.4416C19.2214 50.1386 21.0489 51.4439 22.7894 52.7493C25.1826 54.4463 27.8804 56.4044 26.7055 59.3197C25.9223 61.2778 24.4864 62.3221 22.6154 62.3221Z" fill="#F9CB71"/>
</svg>
