<svg width="68" height="37" viewBox="0 0 68 37" fill="none" xmlns="http://www.w3.org/2000/svg">
<path d="M33.0771 27.0079L24.9808 17.5723L32.3466 9.04987C33.9903 7.16275 34.7816 5.70177 34.7816 4.42341C34.7816 3.69291 34.5381 2.65803 33.2598 1.80579C32.3466 1.13616 31.2509 0.831787 29.9117 0.831787C29.1812 0.831787 28.5115 0.953536 27.9028 1.13616C27.294 1.31878 26.7462 1.62316 26.2592 2.04928C25.8331 2.41453 25.4678 2.84065 25.0417 3.32765L18.2237 11.3022L13.0494 5.03215C11.8319 3.57116 10.9188 2.53629 10.1883 1.98842C9.27515 1.25792 8.11853 0.953544 6.59666 0.953544C5.31829 0.953544 4.16167 1.25792 3.24855 1.92754C1.97019 2.84066 1.66581 3.81465 1.66581 4.48427C1.66581 5.27564 1.90931 6.06702 2.39631 6.85839C2.82243 7.52801 3.3703 8.31939 4.16167 9.29338L11.284 17.6332L2.88331 27.1296C1.30056 28.895 0.570068 30.4169 0.570068 31.7561C0.570068 33.3389 1.42231 34.252 2.09193 34.739C3.00505 35.3477 4.1008 35.6521 5.37917 35.6521C6.17054 35.6521 6.90103 35.5303 7.50978 35.3477C8.11853 35.1651 8.6664 34.8607 9.1534 34.4955C9.57952 34.1911 9.94477 33.8259 10.2491 33.4606C10.4926 33.1562 10.9188 32.6692 11.5275 31.9387L18.102 24.2077L24.3112 31.5735C25.2243 32.6692 25.8939 33.3389 26.1983 33.765C26.6244 34.252 27.2332 34.6781 27.9637 34.9825C28.6942 35.2868 29.5464 35.4695 30.5204 35.4695C31.4335 35.4695 32.2858 35.2868 33.0163 34.9825C33.8076 34.6781 34.4164 34.1911 34.9034 33.5824C35.3904 32.9736 35.6339 32.304 35.6339 31.5126C35.6339 30.7821 35.3904 30.0516 34.9034 29.2603C34.4773 28.7124 33.8685 27.921 33.0771 27.0079Z" fill="#F15837" stroke="#221F1F" stroke-width="0.820712" stroke-miterlimit="10" stroke-linecap="round" stroke-linejoin="round"/>
<path d="M34.9035 29.382C34.5382 28.7124 33.9295 27.9819 33.0772 27.0079L24.9809 17.5723L32.3467 9.04987C33.9904 7.16275 34.7817 5.70177 34.7817 4.42341C34.7817 3.69291 34.5382 2.65803 33.2599 1.80579C32.3467 1.13616 31.251 0.831787 29.9118 0.831787C29.1813 0.831787 28.5116 0.953536 27.9029 1.13616C27.4768 1.31878 27.0506 1.50141 26.6245 1.80579C26.8071 1.74491 26.9898 1.74491 27.2333 1.74491C29.1813 1.56228 30.8857 2.11017 31.5554 4.05815C32.4076 6.55402 29.5465 9.04987 28.1464 10.6326C26.1375 12.885 24.0678 15.0156 21.998 17.2071C24.4939 20.0073 26.9289 22.8075 29.303 25.6687C30.8857 27.6166 33.2599 29.9908 32.1641 32.6692C31.4945 34.3129 28.9378 34.7998 27.355 34.6781C27.5376 34.7998 27.7811 34.9216 28.0246 35.0434C28.7551 35.3477 29.6074 35.5303 30.5814 35.5303C31.4945 35.5303 32.3467 35.3477 33.0772 35.0434C33.8686 34.739 34.4774 34.252 34.9643 33.6432C35.4513 33.0345 35.6948 32.3649 35.6948 31.5735C35.5731 30.843 35.3296 30.1125 34.9035 29.382Z" fill="#F15837"/>
<path d="M18.2848 24.512C18.3457 23.9642 18.3457 23.4163 18.224 22.9902C17.8587 21.7727 16.8239 23.1119 16.5195 23.4772C15.789 24.3903 14.7541 25.3034 14.0236 26.2774C12.0756 29.0168 9.88414 31.4517 7.26653 33.8259C6.10991 34.8607 3.9793 35.713 2.51831 34.9825C3.30968 35.4086 4.28368 35.6521 5.31854 35.6521C6.10991 35.6521 6.84041 35.5303 7.44916 35.3477C8.0579 35.1651 8.60578 34.8607 9.09277 34.4955C9.5189 34.1911 9.88414 33.8259 10.1885 33.4606C10.432 33.1562 10.8581 32.6692 11.4669 31.9387L18.0413 24.2077L18.2848 24.512Z" fill="#F15837"/>
<path d="M1.5439 34.0085C0.630782 32.3649 0.752532 30.7821 1.3004 29.2603C0.813407 30.1734 0.509033 30.9648 0.509033 31.7561C0.509033 33.3389 1.36128 34.252 2.0309 34.739C2.09177 34.7999 2.21352 34.8607 2.2744 34.8607C2.0309 34.6781 1.7874 34.3737 1.5439 34.0085Z" fill="#F15837" stroke="#221F1F" stroke-width="0.820712" stroke-miterlimit="10" stroke-linecap="round" stroke-linejoin="round"/>
<path d="M4.89226 1.3188C7.57075 1.92755 9.21437 3.99728 10.7971 6.06702C12.1363 7.71063 13.3538 9.476 14.8148 11.0587C15.6671 11.9719 16.5193 13.7372 17.6759 12.0327C17.7977 11.8501 17.9803 11.6066 18.1629 11.3631L12.9886 5.09302C11.7711 3.63203 10.858 2.59716 10.1275 2.04929C9.21437 1.31879 8.05775 1.01443 6.53588 1.01443C5.86626 1.01443 5.19664 1.13618 4.58789 1.3188C4.70964 1.3188 4.83139 1.3188 4.89226 1.3188Z" fill="#F15837"/>
<path d="M12.258 15.8069C10.797 13.9198 9.09248 12.1545 7.57061 10.2673C5.98787 8.31936 3.24851 5.94525 3.61376 3.26676C3.61376 3.14501 3.49201 3.20589 3.49201 3.26676C2.82239 5.45825 4.10076 6.67576 5.44 8.31937C7.57061 10.9979 9.64035 13.6155 12.0145 16.1113C12.0753 16.2331 12.3797 15.9287 12.258 15.8069Z" fill="white"/>
<path d="M10.0664 20.9813C8.24013 22.8075 6.59652 24.8164 4.83115 26.7035C3.61366 28.0428 2.03092 29.6864 2.09179 31.5735C2.09179 31.8779 2.57879 31.6953 2.57879 31.4518C2.76141 29.1385 5.07465 27.1905 6.47477 25.5469C7.75314 24.0859 9.0315 22.6249 10.1272 21.0422C10.1881 20.9813 10.0664 20.9204 10.0664 20.9813Z" fill="white"/>
<path d="M26.4415 3.57115C25.4066 4.24077 24.6761 5.27565 23.8848 6.18877C22.7281 7.58889 21.5715 8.989 20.4149 10.3891C20.2932 10.5717 20.4758 10.6326 20.6584 10.5717C21.6933 9.71949 22.4846 8.62375 23.3369 7.528C24.3718 6.18876 25.4066 4.9104 26.5024 3.63203C26.5024 3.63203 26.5024 3.51028 26.4415 3.57115Z" fill="white"/>
<path d="M23.0934 28.0428C22.3629 27.2514 21.7542 26.3383 20.9628 25.5469C20.9019 25.486 20.8411 25.6078 20.8411 25.6687C21.8759 27.0688 22.9108 28.5298 24.0065 29.9299C24.0674 30.0516 24.3109 29.869 24.25 29.7472C24.1283 29.1385 23.5804 28.5906 23.0934 28.0428Z" fill="white"/>
<path d="M64.9752 29.1385L58.279 22.0771L64.3664 15.6852C65.7057 14.2242 66.3753 13.1285 66.3753 12.2154C66.3753 11.6675 66.1318 10.8761 65.1578 10.2674C64.4273 9.78036 63.4533 9.53687 62.3576 9.53687C61.7488 9.53687 61.201 9.59774 60.714 9.78037C60.227 9.96299 59.8008 10.1456 59.3747 10.45C59.0704 10.6935 58.7051 10.9979 58.3399 11.424L52.7394 17.4506L48.4782 12.7023C47.5042 11.6066 46.7128 10.8152 46.104 10.3891C45.3736 9.84124 44.3996 9.59775 43.1821 9.59775C42.1472 9.59775 41.1732 9.84124 40.4427 10.3282C39.347 10.9979 39.1643 11.7284 39.1643 12.2762C39.1643 12.885 39.347 13.4328 39.7731 14.0416C40.0775 14.5895 40.5645 15.1373 41.2341 15.8678L47.078 22.0771L40.1383 29.2603C38.86 30.5995 38.2512 31.6952 38.2512 32.7301C38.2512 33.9476 38.9208 34.6172 39.4687 34.9825C40.1992 35.4695 41.1123 35.713 42.2081 35.713C42.8777 35.713 43.4256 35.6521 43.9734 35.4695C44.4604 35.2869 44.9474 35.1042 45.3127 34.7999C45.6779 34.5564 45.9823 34.3128 46.2258 34.0694C46.4084 33.8259 46.7737 33.4606 47.2607 32.9127L52.6785 27.1296L57.792 32.6692C58.5834 33.4606 59.0704 34.0085 59.3747 34.3128C59.74 34.6781 60.227 34.9825 60.8357 35.226C61.4445 35.4695 62.175 35.5912 62.9663 35.5912C63.6968 35.5912 64.4273 35.4695 65.0361 35.226C65.7057 34.9825 66.1927 34.6172 66.5579 34.1911C66.9232 33.7041 67.1667 33.2171 67.1058 32.6692C67.1058 32.1214 66.9232 31.5735 66.5579 30.9647C66.1927 30.4169 65.6448 29.8081 64.9752 29.1385Z" fill="#F47839" stroke="#221F1F" stroke-width="0.820712" stroke-miterlimit="10" stroke-linecap="round" stroke-linejoin="round"/>
<path d="M66.4971 30.9039C66.1927 30.4169 65.7057 29.8081 64.9752 29.1385L58.279 22.0771L64.3664 15.6852C65.7057 14.2242 66.3753 13.1285 66.3753 12.2154C66.3753 11.6675 66.1318 10.8761 65.1578 10.2674C64.4273 9.78036 63.4533 9.53687 62.3576 9.53687C61.7488 9.53687 61.201 9.59774 60.714 9.78037C60.3487 9.90212 59.9835 10.0847 59.6791 10.2674C59.8617 10.2674 59.9835 10.2065 60.1661 10.2065C61.7488 10.0847 63.2098 10.5109 63.6968 11.9719C64.3664 13.859 62.0532 15.7461 60.8966 16.9027C59.253 18.6072 57.5485 20.1899 55.844 21.8335C57.8529 23.9033 59.9226 26.0339 61.8706 28.1645C63.149 29.6255 65.0969 31.3909 64.1838 33.4606C63.636 34.739 61.5662 35.0433 60.227 34.9825C60.4096 35.1042 60.5922 35.1651 60.7748 35.226C61.3836 35.4695 62.1141 35.5912 62.9055 35.5912C63.636 35.5912 64.3664 35.4695 64.9752 35.226C65.6448 34.9825 66.1318 34.6172 66.4971 34.1911C66.8623 33.7041 67.1058 33.2171 67.0449 32.6692C67.0449 32.0605 66.8623 31.5126 66.4971 30.9039Z" fill="#F15837"/>
<path d="M52.8611 27.2514C52.922 26.8253 52.9219 26.46 52.8002 26.1557C52.4958 25.2425 51.6436 26.2165 51.4001 26.5209C50.7913 27.1905 49.9391 27.921 49.3912 28.6515C47.7476 30.7213 45.9822 32.5475 43.7908 34.3129C42.8168 35.1042 41.1123 35.7738 39.8948 35.226C40.5644 35.5303 41.3558 35.713 42.208 35.713C42.8776 35.713 43.4255 35.6521 43.9734 35.4695C44.4604 35.2869 44.9474 35.1042 45.3126 34.7999C45.6779 34.5564 45.9822 34.3129 46.2257 34.0694C46.4084 33.8259 46.7736 33.4606 47.2606 32.9127L52.6785 27.1297L52.8611 27.2514Z" fill="#F15837"/>
<path d="M39.0426 34.4346C38.2512 33.2171 38.373 31.9996 38.86 30.843C38.4338 31.5126 38.2512 32.1214 38.2512 32.7301C38.2512 33.9476 38.9208 34.6172 39.4687 34.9825C39.5296 35.0433 39.5905 35.0434 39.7122 35.1042C39.4687 34.9216 39.2252 34.6781 39.0426 34.4346Z" fill="#F15837" stroke="#221F1F" stroke-width="0.820712" stroke-miterlimit="10" stroke-linecap="round" stroke-linejoin="round"/>
<path d="M41.782 9.84125C43.9735 10.3282 45.3127 11.8501 46.652 13.4328C47.7477 14.7112 48.7826 15.9896 49.9392 17.1462C50.6088 17.8158 51.3393 19.1551 52.3133 17.8767C52.4351 17.6941 52.5568 17.5723 52.7394 17.3897L48.4782 12.6415C47.5042 11.5457 46.7128 10.7544 46.1041 10.3282C45.3736 9.78036 44.3996 9.53687 43.1821 9.53687C42.6342 9.53687 42.0864 9.59774 41.5994 9.78037C41.6602 9.84124 41.7211 9.84125 41.782 9.84125Z" fill="#F15837"/>
<path d="M47.8692 20.6769C46.6517 19.2159 45.2516 17.9376 44.0341 16.5375C42.7557 15.0765 40.5034 13.2502 40.7469 11.2413C40.7469 11.1805 40.6251 11.1805 40.6251 11.2413C40.0772 12.885 41.173 13.7981 42.2079 15.0765C43.9732 17.0853 45.6777 19.0333 47.5648 20.9204C47.7474 21.0422 47.9301 20.8595 47.8692 20.6769Z" fill="white"/>
<path d="M46.0434 24.6338C44.5215 26.0339 43.1822 27.4949 41.7213 28.9559C40.6864 29.9299 39.408 31.2083 39.4689 32.6084C39.4689 32.8519 39.8341 32.6692 39.895 32.5475C40.0776 30.843 41.9648 29.3211 43.1214 28.1037C44.1562 27.0079 45.252 25.9122 46.1651 24.7555C46.1651 24.6338 46.1042 24.5729 46.0434 24.6338Z" fill="white"/>
<path d="M59.4965 11.4849C58.6442 11.9719 58.0355 12.7632 57.3659 13.4937C56.4527 14.5895 55.4179 15.5635 54.5048 16.6592C54.383 16.781 54.5656 16.8418 54.6874 16.781C55.5396 16.1113 56.2092 15.32 56.8789 14.5286C57.7311 13.5546 58.5834 12.5806 59.4965 11.6066C59.6182 11.5457 59.5573 11.4849 59.4965 11.4849Z" fill="white"/>
<path d="M56.818 29.9299C56.2093 29.3211 55.6614 28.6515 55.0526 28.1036C54.9918 28.0428 54.9309 28.1036 54.9918 28.1645C55.844 29.2603 56.6963 30.2951 57.6094 31.3909C57.6703 31.4517 57.8529 31.33 57.792 31.2691C57.6703 30.7212 57.1833 30.2951 56.818 29.9299Z" fill="white"/>
</svg>
