<svg width="44" height="52" viewBox="0 0 44 52" fill="none" xmlns="http://www.w3.org/2000/svg">
<path d="M38.7164 25.9C37.5164 24.9 36.1164 24 34.4164 23.2C36.1164 21.9 37.5164 20.6 38.5164 19.2C39.7164 17.6 40.3164 15.6 40.3164 13.3C40.3164 11.6 39.9164 9.90002 39.0164 8.40002C38.2164 6.90002 36.9164 5.60002 35.3164 4.40002C33.7164 3.30002 31.8164 2.40005 29.6164 1.80005C27.5164 1.20005 25.1164 0.900024 22.5164 0.900024C19.5164 0.900024 16.8164 1.30002 14.4164 1.90002C12.0164 2.60002 9.91636 3.50001 8.31636 4.70001C6.71636 5.90001 5.41636 7.10002 4.51636 8.40002C3.61636 9.70002 3.11636 11.1 3.11636 12.3C3.11636 13.7 3.61635 14.8 4.71635 15.6C5.71635 16.4 6.81636 16.8 8.01636 16.8C9.01636 16.8 9.81636 16.7 10.6164 16.4C12.1164 15.8 12.6164 14.6 13.3164 13.3C15.7164 9.00005 22.4164 8.00004 25.8164 11.6C27.4164 13.3 27.2164 15.5 25.6164 17.1C23.3164 19.4 20.1164 19.3 17.1164 19.8C14.7164 20.2 12.3164 21.1 12.3164 24C12.3164 29.2 19.3164 28.4 22.8164 28.5C24.2164 28.6 25.4164 28.9 26.6164 29.6C31.1164 32.1 29.8164 38.6 25.4164 40.2C24.1164 40.7 22.0164 41.1 20.6164 40.9C19.1164 40.7 17.2164 39.9 16.0164 39C13.6164 37.3 12.3164 34.1 9.71635 32.8C8.91635 32.4 8.11636 32.2 7.31636 32.2C5.71636 32.2 4.31635 32.6 3.21635 33.5C2.01635 34.4 1.51636 35.6 1.51636 37C1.51636 38.1 1.91636 39.4 2.81636 41C3.71636 42.5 4.91636 44.1 6.61636 45.5C8.31636 46.9 10.4164 48.1 13.0164 49.1C15.6164 50 18.5164 50.5 21.7164 50.5C24.8164 50.5 27.8164 50.1 30.4164 49.3C33.0164 48.5 35.3164 47.3 37.2164 45.8C39.1164 44.3 40.6164 42.6 41.6164 40.7C42.6164 38.8 43.1164 36.8 43.1164 34.7C43.1164 33 42.7164 31.3 42.0164 29.8C41.3164 28.5 40.1164 27.1 38.7164 25.9Z" fill="#ED1E24" stroke="#221F1F" stroke-width="1.3482" stroke-miterlimit="10" stroke-linecap="round" stroke-linejoin="round"/>
<path d="M12.4163 24C12.4163 29.2 19.4163 28.4 22.9163 28.5C24.3163 28.6 25.5162 28.9 26.7162 29.6C26.9162 29.7 27.1163 29.9 27.3163 30C26.8163 29.1 26.0163 28.4 25.0163 27.9C22.9163 26.9 21.1163 27 18.8163 26.7C17.1163 26.5 14.6163 25.8 14.3163 23.7C14.1163 22.4 14.3162 21.4 14.7162 20.6C13.4162 21.2 12.4163 22.2 12.4163 24Z" fill="#BE272E"/>
<path d="M42.0164 29.9C41.3164 28.4 40.1164 27 38.7164 25.8C37.5164 24.8 36.1165 23.9 34.4165 23.1C36.1165 21.8 37.5164 20.5 38.5164 19.1C39.7164 17.5 40.3165 15.5 40.3165 13.2C40.3165 11.5 39.9165 9.80005 39.0164 8.30005C38.2164 6.80005 36.9165 5.50005 35.3165 4.30005C33.7165 3.20005 31.9165 2.40005 29.8165 1.80005C32.6165 3.30005 34.9165 5.4 35.9165 8.5C38.1165 15.1 34.0164 19.9 28.5164 22.1C33.8164 25 41.1165 27.6 40.4165 34.6C39.7165 41.8 33.1165 46.6 26.3165 47.6C19.8165 48.6 10.4164 47.3 7.01645 40.8C5.61645 38.1 5.61645 35.1 7.81645 32.8C8.11645 32.5 8.31645 32.3 8.61646 32.2C8.21645 32.1 7.81646 32.1 7.41646 32.1C5.81646 32.1 4.41645 32.5 3.31645 33.4C2.11645 34.3 1.61646 35.5 1.61646 36.9C1.61646 38 2.01646 39.3 2.91646 40.9C3.81646 42.4 5.01645 44 6.71645 45.4C8.41645 46.8 10.5165 48 13.1165 49C15.7165 49.9 18.6165 50.4 21.8165 50.4C24.9165 50.4 27.9164 50 30.5164 49.2C33.1164 48.4 35.4165 47.2 37.3165 45.7C39.2165 44.2 40.7164 42.5 41.7164 40.6C42.7164 38.7 43.2164 36.7 43.2164 34.6C43.1164 33.1 42.7164 31.4 42.0164 29.9Z" fill="#BE272E"/>
<path d="M17.9163 2.80007C14.0163 3.40007 10.6163 4.80005 7.61626 7.40005C6.21626 8.60005 3.61626 11.7 5.71626 13.5C5.81626 13.6 6.11626 13.4001 6.01626 13.3001C4.51626 10.6001 8.61626 7.80006 10.5163 6.60006C12.8163 5.10006 15.3163 4.40006 17.9163 3.60006C18.3163 3.50006 18.5163 2.70007 17.9163 2.80007Z" fill="white"/>
<path d="M21.7164 2.5C21.3164 2.5 20.9164 2.50001 20.5164 2.70001C20.3164 2.80001 20.0164 3.30005 20.4164 3.30005C20.8164 3.30005 21.2164 3.30005 21.6164 3.30005C22.0164 3.30005 22.2164 2.5 21.7164 2.5Z" fill="white"/>
<path d="M25.1163 20C22.8163 20.3 20.5163 20.6 18.2163 21C17.2163 21.2 15.6163 21.8 16.0163 23.1C16.1163 23.3 16.3163 23.2 16.4163 23.1C17.0163 21.8 19.3163 21.9 20.6163 21.7C22.2163 21.4 23.9163 21.3 25.3163 20.5C25.4163 20.3 25.4163 20 25.1163 20Z" fill="white"/>
<path d="M31.1163 32.7C31.0163 32.6 30.8163 32.7 30.8163 32.8C32.2163 38.3 27.9163 43.3 22.2163 42.7C22.1163 42.7 21.9163 43 22.1163 43C25.0163 43.2 27.9163 43.1 30.0163 40.8C31.9163 38.8 32.5163 35.1 31.1163 32.7Z" fill="white"/>
<path d="M30.5163 30.6C30.3163 30.4 30.2163 30.2 30.0163 30C29.8163 29.8 29.5163 30.1 29.6163 30.3C29.8163 30.6 30.0163 30.9 30.2163 31.1C30.4163 31.3 30.8163 31 30.7163 30.7C30.7163 30.7 30.6163 30.7 30.5163 30.6Z" fill="white"/>
</svg>
