<svg width="55" height="63" viewBox="0 0 55 63" fill="none" xmlns="http://www.w3.org/2000/svg">
<path d="M41.0999 3.70001C37.2999 2.20001 32.8999 1.40002 27.9999 1.40002H27.2999C22.2999 1.40002 17.7999 2.20002 13.8999 3.80002C9.7999 5.50002 6.5999 7.70002 4.3999 10.4C2.0999 13.2 0.899902 16.1 0.899902 18.9C0.899902 20.7 1.6999 22.3 3.4999 23.8C5.0999 25.1 6.9999 25.8 9.2999 25.8C9.2999 25.8 9.3999 25.8 9.4999 25.8C13.2999 25.8 16.0999 23.9 17.4999 20.4C18.5999 18 19.7999 16.2 21.2999 15C24.8999 12 32.5999 13.9 33.5999 19.4C34.6999 25.6 26.8999 26.8 23.2999 29.8C21.6999 31.1 20.3999 32.7 19.3999 34.4C18.3999 36.2 17.7999 38.4 17.7999 40.9C17.7999 43.8 19.0999 45.5 20.2999 46.4C21.7999 47.6 23.5999 48.1 25.6999 48.2H25.8999C31.3999 48.2 32.9999 44.8 33.4999 42.9C33.8999 41.7 34.0999 40.9 34.2999 40.4C34.3999 40.1 34.5999 39.7 34.8999 39.3C35.0999 39.1 35.3999 38.7 36.0999 38.1C36.6999 37.6 37.5999 36.9 38.5999 36.2C42.6999 33.4 45.4999 31.5 46.9999 30.3C48.6999 29 50.1999 27.5 51.4999 25.7C52.8999 23.8 53.5999 21.5 53.5999 18.9C53.5999 15.7 52.4999 12.7 50.2999 9.90002C48.0999 7.30002 44.9999 5.20001 41.0999 3.70001Z" fill="#0086B6" stroke="#221F1F" stroke-width="1.3482" stroke-miterlimit="10" stroke-linecap="round" stroke-linejoin="round"/>
<path d="M21.2999 15.0001C24.8999 12.0001 32.5999 13.9001 33.5999 19.4001C33.7999 20.2001 33.6999 20.9001 33.5999 21.6001C34.0999 20.8001 34.2999 20.0001 34.3999 19.1001C34.5999 14.8001 31.2999 11.1001 27.0999 10.2001C18.1999 8.30006 15.7999 17.4001 9.6999 21.2001C6.4999 23.2001 1.9999 21.0001 1.3999 17.4001C1.2999 17.0001 1.2999 16.7001 1.2999 16.3001C1.0999 17.2001 0.899902 18.1001 0.899902 19.0001C0.899902 20.8001 1.6999 22.4001 3.4999 23.9001C5.0999 25.2001 6.9999 25.9001 9.2999 25.9001C9.2999 25.9001 9.3999 25.9001 9.4999 25.9001C13.2999 25.9001 16.0999 24.0001 17.4999 20.5001C18.5999 18.0001 19.7999 16.2001 21.2999 15.0001Z" fill="#00B9F1"/>
<path d="M50.1999 10C48.1999 7.5 45.2999 5.5 41.6999 4C42.9999 4.9 44.0999 5.9 45.0999 7C50.7999 13.7 50.0999 23.1 43.3999 28.7C41.3999 30.4 38.8999 31.6 36.6999 33C33.7999 34.9 32.3999 37 30.5999 39.9C29.1999 42.2 26.5999 44.3 23.6999 44C20.3999 43.7 18.4999 41.3 18.1999 38.1C17.9999 39 17.8999 39.9 17.8999 40.8C17.8999 43.7 19.1999 45.4 20.3999 46.3C21.8999 47.5 23.6999 48 25.7999 48.1H25.8999C31.3999 48.1 32.9999 44.7 33.4999 42.8C33.8999 41.6 34.0999 40.8 34.2999 40.3C34.3999 40 34.5999 39.6 34.8999 39.2C35.0999 39 35.3999 38.6 36.0999 38C36.6999 37.5 37.5999 36.8 38.5999 36.1C42.6999 33.3 45.4999 31.4 46.9999 30.2C48.6999 28.9 50.1999 27.4 51.4999 25.6C52.8999 23.7 53.5999 21.4 53.5999 18.8C53.5999 15.7 52.3999 12.7 50.1999 10Z" fill="#00B9F1"/>
<path d="M31.0998 51.7C29.7998 50.6 28.0998 50 26.0998 50H25.9998C24.0998 50 22.3998 50.5 21.0998 51.5C19.5998 52.6 18.7998 54.1 18.7998 55.9C18.7998 57.8 19.5998 59.4 21.0998 60.5C22.4998 61.5 24.0998 62 25.9998 62H26.0998C27.8998 62 29.3998 61.5 30.7998 60.6C32.3998 59.5 33.1998 58 33.1998 56.1C33.2998 54.4 32.5998 52.9 31.0998 51.7Z" fill="#D4DA26" stroke="#221F1F" stroke-width="1.3482" stroke-miterlimit="10" stroke-linecap="round" stroke-linejoin="round"/>
<path d="M31.0998 51.7C29.7998 50.6 28.0998 50 26.0998 50H25.9998C24.0998 50 22.3998 50.5 21.0998 51.5C19.5998 52.6 18.7998 54.1 18.7998 55.9C18.7998 57.8 19.5998 59.4 21.0998 60.5C22.4998 61.5 24.0998 62 25.9998 62H26.0998C27.8998 62 29.3998 61.5 30.7998 60.6C32.3998 59.5 33.1998 58 33.1998 56.1C33.2998 54.4 32.5998 52.9 31.0998 51.7Z" fill="#0086B6" stroke="#221F1F" stroke-width="1.3482" stroke-miterlimit="10" stroke-linecap="round" stroke-linejoin="round"/>
<path d="M31.0998 51.7C29.7998 50.6 28.0998 50 26.0998 50H25.9998C24.0998 50 22.3998 50.5 21.0998 51.5C19.5998 52.6 18.7998 54.1 18.7998 55.9C18.7998 57.8 19.5998 59.4 21.0998 60.5C22.4998 61.5 24.0998 62 25.9998 62H26.0998C27.8998 62 29.3998 61.5 30.7998 60.6C32.3998 59.5 33.1998 58 33.1998 56.1C33.2998 54.4 32.5998 52.9 31.0998 51.7ZM28.1998 59.1C27.2998 59.7 26.2998 60 25.0998 60H24.9998C23.7998 60 22.6998 59.6 21.7998 59C20.7998 58.3 20.1998 57.2 20.2998 56C20.2998 54.9 20.7998 53.9 21.7998 53.1C22.6998 52.4 23.7998 52.1 24.9998 52.1H25.0998C26.3998 52.1 27.4998 52.5 28.3998 53.2C29.2998 54 29.7998 55 29.7998 56.1C29.7998 57.3 29.1998 58.4 28.1998 59.1Z" fill="#00B9F1"/>
<path d="M23.8998 53.2C22.8998 53.3 21.6998 53.9 21.2998 54.9C20.9998 55.6 20.6998 56.8 21.1998 57.5C21.7998 58.1 22.8998 57 22.3998 56.4C22.1998 56.2 22.4998 55.2999 22.4998 55.0999C22.5998 54.4999 23.3998 53.9999 23.8998 53.5999C24.0998 53.3999 24.0998 53.2 23.8998 53.2Z" fill="white"/>
<path d="M26.5 3.19997C22 2.29997 17.2 4.09997 13.2 6.19997C9.9 7.89997 5.8 11.1 5 15C5 15.2 5.3 15.2 5.3 15.1C7.5 12 10.5 9.49999 13.7 7.49999C17.7 4.99999 21.7 4.49998 26.3 3.89998C26.6 3.79998 26.9 3.29997 26.5 3.19997Z" fill="white"/>
<path d="M35.5998 20.9C34.8998 26.3 29.0998 28.1 25.3998 30.8C22.9998 32.4 21.5998 34.6 20.6998 37.3C20.4998 37.9 21.2998 37.9 21.4998 37.4C22.5998 34.5 24.0998 32.7 26.7998 31.2C28.4998 30.2 30.2998 29.6 31.9998 28.4C34.2998 26.7 36.0998 23.7 35.8998 20.9C35.6998 20.7 35.5998 20.8 35.5998 20.9Z" fill="white"/>
</svg>
