<svg width="70" height="38" viewBox="0 0 70 38" fill="none" xmlns="http://www.w3.org/2000/svg">
<path d="M35.4666 6.09302C35.4666 4.38853 34.9796 3.11016 33.9448 2.19704C32.9708 1.3448 31.7533 0.918671 30.2923 0.918671C28.8313 0.918671 27.6138 1.3448 26.6398 2.25792C25.6658 3.17104 25.2397 4.4494 25.2397 6.15389C25.2397 8.95413 25.3615 11.7544 25.4832 14.5546C25.5441 17.1722 25.8484 19.9724 25.118 22.5292C24.8136 23.6858 24.3266 25.1468 23.4743 25.999C22.2569 27.1557 20.3697 27.0339 18.8479 27.1557C14.7693 27.46 12.0908 25.9382 11.4212 21.9813C11.1777 20.5203 11.2385 18.0853 11.2385 16.6243C11.2385 13.6415 11.3603 10.1716 11.0559 7.18877V6.21477C11.0559 4.87553 10.7515 3.84066 10.1428 2.98841C9.96016 2.68404 9.83842 2.50142 9.59492 2.37967C8.6818 1.52742 7.40343 1.1013 5.88156 1.1013C4.42057 1.1013 3.20308 1.58829 2.28996 2.44054C1.31596 3.35366 0.828974 4.63202 0.889849 6.33651L0.950727 21.7987C0.950727 24.3554 1.31596 26.6078 1.98559 28.434C2.71608 30.382 3.81183 31.9648 5.33369 33.2431C6.79468 34.4606 8.74268 35.3737 10.995 35.9216C13.1865 36.4695 15.865 36.713 18.9088 36.713C21.4655 36.713 23.7787 36.4086 25.6658 35.8607C27.6747 35.3129 29.4401 34.3997 30.9619 33.2431C32.7273 31.843 34.0057 30.1385 34.6144 28.2514C35.2231 26.4251 35.5275 24.1728 35.5275 21.5552L35.4666 6.09302Z" fill="#00A0DE" stroke="#221F1F" stroke-width="0.820712" stroke-miterlimit="10" stroke-linecap="round" stroke-linejoin="round"/>
<path d="M5.02945 1.16219C10.0212 1.71006 8.86457 8.16277 8.86457 11.5717C8.86457 15.5286 8.13407 20.0333 9.71681 23.8684C10.6299 26.1208 12.3953 27.6427 14.8303 27.947C16.7174 28.1905 18.848 28.0688 20.4308 27.0948C19.8829 27.1557 19.335 27.1557 18.848 27.2165C14.7694 27.5209 12.0909 25.999 11.4213 22.0422C11.1778 20.5812 11.2387 18.1462 11.2387 16.6852C11.2387 13.7024 11.3604 10.2325 11.056 7.24964V6.27566C11.056 4.93642 10.7517 3.90154 10.1429 3.04929C9.9603 2.74492 9.83855 2.5623 9.59505 2.44055C8.68193 1.5883 7.40356 1.16219 5.88169 1.16219C5.57732 1.16219 5.21209 1.22305 4.90771 1.22305C4.96859 1.16218 4.96858 1.16219 5.02945 1.16219Z" fill="#00A0DE"/>
<path d="M35.4666 6.09303C35.4666 4.38854 34.9796 3.11018 33.9448 2.19706C32.9708 1.34481 31.7533 0.918686 30.2923 0.918686C29.927 0.918686 29.5618 0.979564 29.2574 0.979564C29.8662 1.10131 30.4749 1.34481 31.0837 1.71006C34.0665 3.41455 33.0925 8.40628 33.0316 11.1456C32.9708 13.885 32.849 16.6244 32.849 19.3637C32.849 21.7378 33.0925 24.1728 32.6664 26.486C31.0228 35.0694 21.2828 37.2 13.7952 36.2869C10.4471 35.8607 7.46428 34.765 5.0293 32.8779C5.15105 32.9388 5.21192 33.0605 5.33367 33.1214C6.79466 34.3389 8.74266 35.252 10.995 35.7999C13.1865 36.3477 15.865 36.5912 18.9087 36.5912C21.4655 36.5912 23.7787 36.2869 25.6658 35.739C27.6747 35.1911 29.44 34.278 30.9619 33.1214C32.7273 31.7213 34.0056 30.0168 34.6144 28.1297C35.2231 26.3034 35.5275 24.0511 35.5275 21.4335L35.4666 6.09303Z" fill="#00A0DE"/>
<path d="M5.69887 30.3212C5.39449 29.6515 4.96838 29.1645 4.60313 28.4949C3.93351 27.3383 3.75088 25.8773 3.56825 24.5381C3.26388 22.2248 3.26388 19.8507 3.26388 17.4766C3.26388 14.9807 3.26388 12.424 3.32476 9.92814C3.38563 7.67578 3.203 5.42341 4.35962 3.35367C4.42049 3.2928 4.35963 3.17105 4.23788 3.23192C2.89864 4.32767 2.53339 5.9104 2.41164 7.55402C2.22902 10.1716 2.229 12.8501 2.229 15.4677C2.28988 18.6332 2.22901 21.7378 2.59426 24.8424C2.83775 26.7904 3.32475 29.7124 5.27274 30.6864C5.45536 30.869 5.82062 30.5647 5.69887 30.3212Z" fill="white"/>
<path d="M6.85566 31.843C6.73391 31.5995 6.55129 31.7213 6.36867 31.5387C6.24692 31.4169 6.00342 31.5995 6.0643 31.7213C6.12517 31.9648 6.30779 32.2083 6.55129 32.2083C6.73391 32.2691 6.97741 32.0257 6.85566 31.843Z" fill="white"/>
<path d="M29.0749 2.62318C25.9703 3.84067 26.5791 7.79753 26.8226 10.4151C27.0052 12.8501 26.8834 15.2851 27.1269 17.7201C27.4313 20.7638 26.8834 23.0162 25.4224 25.6338C25.3616 25.7556 25.4833 25.8773 25.6051 25.7556C27.7357 23.2597 27.6748 19.242 27.6748 16.1374C27.6748 14.1285 27.6139 12.0588 27.6139 10.0499C27.6139 7.55403 27.1269 4.69292 29.1358 2.80581C29.3793 2.74493 29.3184 2.50143 29.0749 2.62318Z" fill="white"/>
<path d="M63.7734 9.86726C62.3733 9.86726 61.2775 10.2934 60.3644 11.0848C59.4513 11.937 58.9643 13.1545 58.9643 14.6764L59.0252 21.9813C59.0252 25.6338 58.7208 26.7295 58.5991 26.973C58.2338 27.7035 57.6251 28.3123 56.7728 28.7993C55.9206 29.2863 55.0074 29.5298 53.9726 29.5298C52.9986 29.5298 52.2681 29.3472 51.7811 28.9819C51.2941 28.6167 50.9288 28.1297 50.7462 27.3992C50.5027 26.5469 50.381 25.5121 50.381 24.2337L50.3201 14.6764C50.3201 13.1545 49.8331 11.937 48.92 11.0848C48.0069 10.2934 46.8502 9.86726 45.4501 9.86726C44.05 9.86726 42.9543 10.2934 42.0412 11.0848C41.128 11.937 40.7019 13.1545 40.7019 14.6764L40.7628 26.5469C40.7628 29.1645 41.3107 31.2343 42.3455 32.7561C43.1978 33.9736 44.4761 34.9476 46.0589 35.6172C47.5807 36.2869 49.2852 36.5912 51.1724 36.5912C52.6942 36.5912 54.0943 36.4086 55.3118 36.1042C56.5293 35.739 57.6859 35.252 58.7208 34.5824C59.0861 34.3389 59.4513 34.0954 59.7557 33.791C59.9992 34.3997 60.3644 34.9476 60.8514 35.3737C61.7037 36.1651 62.7994 36.5912 64.1386 36.5912C65.417 36.5912 66.5128 36.1651 67.365 35.3737C68.2172 34.5824 68.7042 33.3649 68.6434 31.9039L68.5216 14.5546C68.5216 13.0327 68.0346 11.8152 67.1215 10.963C66.2693 10.2934 65.1126 9.86726 63.7734 9.86726Z" fill="#00B9F1" stroke="#221F1F" stroke-width="0.820712" stroke-miterlimit="10" stroke-linecap="round" stroke-linejoin="round"/>
<path d="M45.2673 10.5369C49.1024 11.8761 49.0415 16.0765 48.9198 19.4855C48.798 23.1988 46.9109 33.1214 54.7029 31.4778C56.7118 31.0516 59.2076 29.1037 58.5989 26.973C58.2336 27.46 57.4422 28.434 56.7726 28.7993C55.9204 29.2863 55.0073 29.5298 53.9724 29.5298C52.9984 29.5298 52.2679 29.3472 51.7809 28.9819C51.2939 28.6167 50.9287 28.1297 50.746 27.3992C50.5025 26.5469 50.3808 25.5121 50.3808 24.2337L50.3199 14.6764C50.3199 13.1545 49.8329 11.937 48.9198 11.0848C48.0067 10.2934 46.85 9.86726 45.4499 9.86726C44.7803 9.86726 44.2324 9.98901 43.6846 10.1716C44.1716 10.2325 44.7194 10.3543 45.2673 10.5369Z" fill="#00A0DE"/>
<path d="M68.5218 14.6764C68.5218 13.1545 68.0348 11.937 67.1217 11.0848C66.2694 10.2934 65.1128 9.86726 63.7127 9.86726C63.4083 9.86726 63.1039 9.92814 62.7996 9.92814C63.0431 10.0499 63.2866 10.1108 63.5301 10.2934C66.6347 12.3022 66.0868 15.7112 66.2085 18.9985C66.2694 21.9204 66.3912 24.8424 66.3912 27.7644C66.3912 29.5906 66.5129 31.5386 66.0259 33.304C65.6607 34.5215 64.8084 35.9216 63.7127 36.6521C63.8344 36.6521 63.9562 36.713 64.0779 36.6521C65.3563 36.6521 66.4521 36.226 67.3043 35.4346C68.1565 34.6432 68.6435 33.4257 68.5827 31.9648L68.5218 14.6764Z" fill="#00A0DE"/>
<path d="M44.9024 32.1474C43.1979 29.0428 43.3197 26.0599 43.137 22.5901C43.0153 20.8856 43.0153 19.1202 43.0761 17.4157C43.0761 15.5286 42.8935 13.6415 44.2328 12.1196C44.4154 11.937 44.2328 11.6935 44.0501 11.8152C41.189 13.5197 42.0413 18.0853 42.163 20.8247C42.2848 23.1379 42.4065 25.3903 42.5283 27.7035C42.65 29.4689 42.9544 31.4778 44.5371 32.5126C44.6589 32.7561 45.0241 32.3909 44.9024 32.1474Z" fill="white"/>
<path d="M46.424 33.5475C46.2414 33.4258 46.0588 33.4258 45.8762 33.304C45.6327 33.1823 45.3891 33.5475 45.5109 33.7301C45.6935 33.9736 45.937 34.0954 46.1805 33.9736C46.3631 33.9736 46.5458 33.7301 46.424 33.5475Z" fill="white"/>
<path d="M62.6778 11.2674C60.9733 12.1805 60.4254 13.8241 60.2428 15.6504C60.121 16.9287 60.3037 18.268 60.3037 19.6072C60.3645 21.3117 60.2428 23.0771 60.4863 24.7207C60.5471 25.1468 61.1559 24.8424 61.1559 24.5381C61.6429 20.2768 59.5732 14.859 62.7386 11.45C62.9213 11.3283 62.7995 11.1456 62.6778 11.2674Z" fill="white"/>
<path d="M62.1905 34.3997C62.0079 34.278 61.7644 34.278 61.5817 34.1562C61.3991 33.9736 61.2165 33.7301 61.0947 33.4866C60.973 33.304 60.7295 33.4866 60.7295 33.6693C60.8512 34.278 61.2165 35.252 62.0079 35.0694C62.1296 35.0694 62.2514 34.8867 62.2514 34.765V34.7041C62.3122 34.5824 62.3122 34.4606 62.1905 34.3997Z" fill="white"/>
</svg>
