<svg width="70" height="37" viewBox="0 0 70 37" fill="none" xmlns="http://www.w3.org/2000/svg">
<path d="M2.63825 35.3336C3.61225 36.1859 5.07323 36.5511 7.08209 36.5511L18.77 36.4902C20.8398 36.4902 22.666 36.3685 24.1879 36.1859C25.7706 36.0032 27.2316 35.6989 28.51 35.2119C30.5797 34.4205 32.2233 33.203 33.5017 31.5594C34.7192 29.9158 35.3888 28.0287 35.3888 25.9589C35.3888 22.3064 33.4408 19.628 29.7275 17.9235C32.2842 16.219 33.5626 13.9057 33.5017 11.0446C33.5017 9.94889 33.2582 8.91402 32.8321 7.87915C32.406 6.90515 31.7972 5.99203 30.945 5.20066C30.1536 4.40929 29.2405 3.80055 28.2056 3.25268C27.049 2.64393 25.7097 2.27868 24.1879 2.03518C22.7878 1.85256 21.1441 1.73081 19.257 1.79168L6.89948 1.85256C4.95149 1.85256 3.49049 2.27868 2.5165 3.07005C1.48163 3.9223 0.994629 5.26154 0.994629 7.08778L1.11639 31.255C1.11639 33.1421 1.66426 34.4814 2.63825 35.3336ZM18.5874 13.8449C18.3439 14.271 17.9787 14.6362 17.4917 14.8797C16.8829 15.1232 16.0307 15.245 14.9349 15.245H11.2825V10.375H14.4479C15.6654 10.375 17.309 10.4968 18.283 11.2881C18.9527 11.8969 19.0135 12.9926 18.5874 13.8449ZM20.2919 26.6285C20.2919 28.6983 17.5525 29.1853 15.7263 29.1853H11.2825L11.2216 23.6457C11.2216 23.5239 16.0307 23.5848 16.4568 23.6457C18.1004 23.8892 19.9875 24.5588 20.231 26.3242C20.2919 26.385 20.2919 26.5068 20.2919 26.6285Z" fill="#0097D8" stroke="#221F1F" stroke-width="0.820712" stroke-miterlimit="10" stroke-linecap="round" stroke-linejoin="round"/>
<path d="M16.3956 9.40104C15.2998 9.27929 14.1432 9.21842 13.0475 9.34017C12.6213 9.40104 10.1255 9.52279 11.2212 10.1924C11.343 10.2533 11.4039 10.3142 11.5256 10.375C12.317 10.375 14.3867 10.375 14.3867 10.375C15.6042 10.375 17.2478 10.4968 18.2218 11.2882C18.9523 11.8969 19.0741 12.9926 18.6479 13.8449C18.4044 14.271 18.0392 14.6363 17.5522 14.8798C16.9434 15.1233 16.0912 15.245 14.9955 15.245H11.83C12.6822 16.4625 15.726 16.0364 16.9434 15.9755C18.9523 15.7929 21.7525 13.2361 19.9872 11.0447C19.0741 9.94891 17.7348 9.58367 16.3956 9.40104Z" fill="#0097D8"/>
<path d="M12.8043 23.0978C12.6826 23.0978 10.8563 23.2196 11.0389 23.3413C11.1607 23.4631 11.2216 23.524 11.3433 23.5848C11.8303 23.4631 16.1524 23.524 16.5177 23.5848C18.1613 23.8283 20.0484 24.4979 20.2919 26.2633C20.2919 26.3851 20.2919 26.4459 20.2919 26.5677C20.2919 28.6374 17.5525 29.1244 15.7263 29.1244H11.7695C12.8652 30.281 15.7263 30.281 17.0047 30.0984C19.0744 29.8549 22.4834 28.5157 21.2659 25.5937C19.9266 22.3673 15.6654 22.9761 12.8043 23.0978Z" fill="#0097D8"/>
<path d="M29.6055 17.9844C32.1623 16.2799 33.4407 13.9666 33.3798 11.1055C33.3798 10.0098 33.1363 8.97492 32.7102 7.94005C32.284 6.96605 31.6753 6.05293 30.823 5.26156C30.0317 4.47019 29.1186 3.86145 28.0837 3.31357C27.9619 3.2527 27.7793 3.19183 27.6576 3.13095C29.1794 4.40932 30.336 5.99206 30.823 7.94005C31.8579 12.0187 29.4838 17.4365 25.4661 19.141C27.4749 20.115 29.6056 21.2107 30.7013 23.0978C32.4667 26.0807 32.284 29.6114 29.8491 32.1073C27.1706 34.9075 21.9353 34.664 18.4046 34.7249C16.0305 34.7249 13.5955 34.664 11.1605 34.7249C7.75156 34.7858 3.97732 34.3596 2.09021 31.0724C1.54234 30.1593 1.17709 29.0636 0.933594 27.9678V31.3768C0.933594 33.1422 1.48147 34.4814 2.45546 35.3336C3.42945 36.1859 4.89045 36.5511 6.89931 36.5511L18.5872 36.4903C20.657 36.4903 22.4832 36.3685 24.0051 36.1859C25.5878 36.0033 27.0488 35.6989 28.3272 35.2119C30.3969 34.4205 32.0405 33.203 33.3189 31.5594C34.5364 29.9158 35.206 28.0287 35.206 25.9589C35.2669 22.3673 33.3798 19.628 29.6055 17.9844Z" fill="#0097D8"/>
<path d="M5.86453 3.25266C2.39467 4.47015 2.63817 8.79225 2.69904 11.836C2.69904 14.5145 2.82079 17.1321 3.00342 19.8106C3.18604 22.489 2.63817 25.3502 3.18604 27.9678C3.24692 28.3939 3.85566 28.0895 3.91654 27.7851C4.22091 26.0807 4.03829 24.2544 4.03829 22.489C4.03829 20.2367 3.97742 17.9234 3.85567 15.6711C3.79479 13.6622 3.79479 11.5925 3.79479 9.58362C3.79479 7.51388 3.79479 4.47015 5.9254 3.3744C5.9254 3.31353 5.9254 3.25266 5.86453 3.25266Z" fill="white"/>
<path d="M21.3874 3.07005C21.3265 3.07005 21.2656 3.1918 21.2656 3.25267C22.6049 3.49617 23.7006 3.98317 24.6137 4.65279C25.0399 4.89629 25.4051 5.20066 25.7704 5.50503C26.8661 6.47903 27.2313 7.69652 27.3531 8.97489C27.5357 9.76626 27.5966 10.5576 27.5966 11.4099C27.7792 11.4099 27.9618 11.2881 28.0227 11.1055C29.6663 6.7834 25.6486 2.88742 21.3874 3.07005Z" fill="white"/>
<path d="M29.7274 23.1587C28.936 22.063 27.2924 20.8455 25.7705 20.8455C27.2315 21.4542 28.8751 22.7326 29.5447 24.0718C30.1535 25.3502 30.2144 26.6286 30.0317 27.9069C30.1535 27.9069 30.3361 27.846 30.397 27.7243C31.1883 26.2633 30.6405 24.4371 29.7274 23.1587Z" fill="white"/>
<path d="M43.4848 36.5511C44.7631 36.5511 45.8589 36.125 46.772 35.3336C47.259 34.9075 47.6242 34.3596 47.8069 33.7509C47.8677 33.8118 47.9286 33.8726 47.9895 33.9335C48.5374 34.3596 49.1461 34.7858 49.9375 35.151C50.7288 35.5771 51.642 35.8815 52.7377 36.125C53.7726 36.3685 54.9292 36.4902 56.0858 36.4902C58.0338 36.4902 59.86 36.125 61.4428 35.4554C63.0864 34.7858 64.4865 33.8118 65.6431 32.5334C66.7998 31.3159 67.652 29.8549 68.2607 28.1504C68.8695 26.5068 69.113 24.6806 69.113 22.7326C69.113 20.0541 68.5651 17.7409 67.4694 15.7929C66.3736 13.784 64.7909 12.2621 62.782 11.2273C60.834 10.1924 58.5208 9.7054 55.9641 9.7054C53.7726 9.7054 51.8246 10.0706 50.3027 10.8011C49.5113 11.1664 48.72 11.5925 47.9286 12.1404L47.8677 5.50504C47.8677 4.10493 47.4416 2.94831 46.5894 2.09606C45.7371 1.24382 44.5805 0.878571 43.1804 0.878571C41.7803 0.878571 40.6845 1.36557 39.8323 2.21781C39.0409 3.07006 38.6148 4.28755 38.6757 5.80942L38.7974 31.9246C38.7974 33.3856 39.2235 34.5423 40.0758 35.3336C41.0498 36.1859 42.1455 36.5511 43.4848 36.5511ZM49.3896 24.8632C49.0852 22.2456 51.7028 20.0541 54.0769 20.0541C57.1816 20.115 59.1904 23.4631 58.3382 26.2024C56.9989 30.768 49.8766 29.2462 49.3896 24.8632Z" fill="#5EA6DB" stroke="#221F1F" stroke-width="0.820712" stroke-miterlimit="10" stroke-linecap="round" stroke-linejoin="round"/>
<path d="M54.1991 19.2019C53.2251 19.3845 52.1293 19.628 51.3379 20.2976C50.7292 20.7237 50.2422 21.2107 49.8769 21.8195C49.2682 22.7326 49.0856 23.4631 49.39 23.8892C49.7552 21.7586 51.9467 20.0541 54.0773 20.0541C57.1819 20.115 59.1908 23.4631 58.3385 26.2024C57.9124 27.6634 56.8167 28.5157 55.5992 28.8201C56.0253 28.8809 56.5123 28.9418 56.8775 28.8809C60.1039 28.5157 61.5649 24.1936 59.6778 21.6977C58.4603 19.9324 56.4514 18.8366 54.1991 19.2019Z" fill="#5EA6DB"/>
<path d="M67.4696 15.8537C66.3738 13.8449 64.7911 12.323 62.7822 11.2881C60.8342 10.2533 58.521 9.76628 55.9643 9.76628C53.7728 9.76628 51.8248 10.1315 50.3029 10.862C49.5115 11.2273 48.7202 11.6534 47.9288 12.2013L47.8679 5.56593C47.8679 4.16581 47.4418 3.00919 46.5896 2.15695C45.7373 1.3047 44.5807 0.939453 43.1806 0.939453C42.9979 0.939453 42.8153 1.00033 42.6327 1.00033C43.4849 1.24383 44.2763 1.7917 44.9459 2.64394C46.3461 4.34843 46.3461 7.08779 46.4069 9.15753C46.4678 11.2881 46.4069 13.4188 46.4069 15.5494C47.1374 14.8189 49.6333 13.1753 49.8768 13.0535C51.1552 12.4448 52.5553 12.0186 54.0163 11.8969C56.6947 11.6534 59.4341 12.0795 61.5647 13.8449C64.8519 16.5234 66.6173 20.9672 66.0694 25.1676C65.5216 29.5505 62.417 33.5074 57.8514 34.177C54.7468 34.6031 49.1463 34.0553 46.8331 31.1942C45.8591 33.0813 44.2763 34.7249 42.1457 34.664C40.6238 34.6031 39.6498 34.1161 38.9802 33.2639C39.1628 34.1161 39.5281 34.8466 40.1368 35.3945C40.9891 36.1859 42.0848 36.612 43.4241 36.612C44.7024 36.612 45.7982 36.1859 46.7113 35.3945C47.1983 34.9684 47.5635 34.4205 47.7462 33.8118C47.807 33.8726 47.8679 33.9335 47.9288 33.9944C48.4767 34.4205 49.0854 34.8466 49.8768 35.2119C50.6682 35.638 51.5813 35.9424 52.677 36.1859C53.7119 36.4294 54.8685 36.5511 56.0251 36.5511C57.9731 36.5511 59.7994 36.1859 61.3821 35.5163C63.0257 34.8466 64.4258 33.8726 65.5824 32.5943C66.7391 31.3768 67.5913 29.9158 68.2001 28.2113C68.8088 26.5677 69.0523 24.7414 69.0523 22.7935C69.1132 20.115 68.5653 17.8017 67.4696 15.8537Z" fill="#5EA6DB"/>
<path d="M42.3284 2.21781C39.6499 3.43531 39.8934 6.41816 40.0151 8.9749C40.1978 12.8709 39.7108 16.9495 40.2586 20.8455C40.3195 21.2716 40.9283 20.9672 40.9283 20.6628C41.2935 17.68 40.9283 14.5754 40.9891 11.5316C41.05 8.67053 40.3195 4.71367 42.3892 2.46131C42.5719 2.33956 42.511 2.09606 42.3284 2.21781Z" fill="white"/>
<path d="M49.8771 20.1758C47.503 22.0629 46.042 26.8112 49.2683 28.6983C49.5118 28.8809 49.8771 28.4548 49.6945 28.2113C47.8682 25.898 47.8074 22.4282 49.9988 20.2976C50.1206 20.1758 49.9988 20.0541 49.8771 20.1758Z" fill="white"/>
</svg>
