<svg width="68" height="38" viewBox="0 0 68 38" fill="none" xmlns="http://www.w3.org/2000/svg">
<path d="M26.5263 35.9479C28.9613 36.3132 32.1268 35.2174 32.5529 32.2346C32.9182 29.4952 31.3354 27.6081 29.2657 26.2689C28.4743 25.7819 27.683 25.2949 26.8916 24.747C26.1002 24.26 25.3698 23.773 24.5784 23.286C22.6304 22.0076 20.7433 20.7293 18.7953 19.4509C18.7344 19.39 17.6995 18.6595 17.6387 18.6595L29.9962 9.04132C31.3963 7.8847 32.066 6.60633 32.066 5.26709C32.066 4.11047 31.5789 3.0756 30.6049 2.28423C29.7527 1.55374 28.657 1.18849 27.3177 1.18849C26.2829 1.18849 25.4306 1.43199 24.761 1.85811C24.2131 2.22336 23.6044 2.71036 22.813 3.44085L10.3946 15.0679L10.3337 6.54546C10.3337 4.84097 9.84668 3.5626 8.87269 2.64948C7.95957 1.79723 6.80298 1.37111 5.40286 1.37111C4.00275 1.37111 2.84612 1.85811 1.933 2.71036C1.08075 3.62348 0.59375 4.90184 0.59375 6.54546L0.715507 30.4083C0.715507 31.5041 0.776389 32.2954 0.837263 32.8433C0.898138 33.5738 1.08076 34.2434 1.44601 34.8522C1.87213 35.5218 2.48088 36.0697 3.27225 36.4349C4.00275 36.8002 4.79411 36.9828 5.58548 36.9828C6.9856 36.9828 8.1422 36.5567 8.99445 35.7044C9.90757 34.7913 10.3946 33.5129 10.3946 31.8084L10.3337 25.7819L10.6381 25.9036C11.6729 26.695 15.6298 29.2517 18.0648 31.1997C19.6475 32.4172 21.1694 33.5738 22.813 34.6696C24.1522 35.2783 25.3088 35.7653 26.5263 35.9479Z" fill="#00B7EC" stroke="#221F1F" stroke-width="0.820712" stroke-miterlimit="10" stroke-linecap="round" stroke-linejoin="round"/>
<path d="M10.4556 25.3557C10.273 25.234 10.1513 25.1122 9.96864 24.9905C9.54252 24.6861 9.0555 24.4426 8.69025 24.0774V24.9905C8.69025 25.4775 8.75115 25.9645 8.75115 26.4515C8.75115 28.7038 9.11638 31.3214 8.50763 33.4521C7.89889 35.5218 6.25527 36.8002 4.55078 36.861C4.91603 36.9828 5.34215 36.9828 5.76827 36.9828C7.16839 36.9828 8.325 36.5567 9.17724 35.7044C10.0904 34.7913 10.5774 33.5129 10.5774 31.8084L10.5165 25.7818L10.6382 25.8427C10.5774 25.6601 10.5165 25.5384 10.4556 25.3557Z" fill="#00B7EC"/>
<path d="M5.15928 2.34512C5.40278 2.40599 5.64627 2.46687 5.95064 2.58862C6.68114 2.89299 7.22903 3.50174 7.53341 4.23224C7.83778 4.65836 8.08125 5.08448 8.26387 5.57148C9.05524 7.82384 8.75089 10.6849 8.81176 13.0591C8.87264 14.0939 8.56827 17.0159 10.151 15.3114C10.2728 15.1897 10.3945 15.007 10.5162 14.8853L10.4554 6.54547C10.4554 4.84098 9.96837 3.56261 8.99438 2.64949C8.08126 1.79725 6.92463 1.37112 5.52451 1.37112C4.30702 1.37112 3.27217 1.73637 2.41992 2.406C3.33304 2.04075 4.24616 2.04074 5.15928 2.34512Z" fill="#00B7EC"/>
<path d="M29.2658 26.208C28.4744 25.721 27.6831 25.234 26.8917 24.6861C26.1003 24.1991 25.3698 23.7121 24.5785 23.2251C22.6305 21.9468 20.7434 20.6684 18.7954 19.39C18.7345 19.3291 17.6996 18.5987 17.6387 18.5987L29.9963 8.98046C31.3964 7.82384 32.066 6.54547 32.066 5.20623C32.066 4.04961 31.579 3.01474 30.605 2.22337C29.7528 1.49287 28.6571 1.12762 27.3178 1.12762C26.5265 1.12762 25.8568 1.24938 25.3089 1.49288C27.6222 0.945004 29.8745 1.1885 29.8745 3.80611C29.8745 7.21509 26.2829 9.46745 24.0306 11.4763C21.2303 13.9113 18.4301 16.2854 15.6299 18.7204C16.9691 19.6944 18.491 20.364 19.8302 21.338C21.5956 22.6164 23.4218 23.773 25.2481 25.0514C27.3178 26.5124 30.1181 28.3995 30.3616 31.1997C30.5442 33.6956 28.7179 35.6436 26.1003 35.4001C25.0655 35.2783 24.0914 34.9739 23.1783 34.6087C24.2741 35.2174 25.3698 35.6436 26.5264 35.8262C28.9614 36.1914 32.1269 35.0957 32.553 32.1128C32.9183 29.4952 31.3355 27.5472 29.2658 26.208Z" fill="#00B7EC"/>
<path d="M4.24657 2.95386C1.44633 4.71922 1.81157 8.37171 1.9942 11.2937C2.23769 15.6158 1.99421 19.9379 2.23771 24.1991C2.29858 24.8079 3.15081 24.3817 3.21169 23.9556C3.39431 20.7901 3.15082 17.5638 3.02907 14.3983C2.90732 10.9284 2.05507 5.93672 4.42918 3.13649C4.55093 3.01474 4.36831 2.89298 4.24657 2.95386Z" fill="white"/>
<path d="M3.15062 27.5472C3.15062 27.2428 3.15061 26.8776 3.02886 26.5732C2.90711 26.208 2.42011 26.5124 2.29836 26.7559C2.17661 27.182 2.17663 27.669 2.2375 28.156C2.2375 28.3995 2.23749 28.7038 2.29836 28.9473C2.35924 29.1908 2.60273 29.2517 2.78535 29.1908C3.02885 29.13 3.15062 28.8865 3.15062 28.643C3.15062 28.2777 3.15062 27.9125 3.15062 27.5472Z" fill="white"/>
<path d="M26.5266 3.0756C24.9438 2.95385 23.8481 4.17135 22.8133 5.20622C20.7435 7.27596 18.7346 9.40657 16.4823 11.3546C16.0561 11.7198 16.5432 12.2068 16.9693 11.8416C20.1957 8.98045 22.8741 5.51059 26.4657 3.19735C26.5266 3.13648 26.5875 3.0756 26.5266 3.0756Z" fill="white"/>
<path d="M19.7084 29.7387C17.6387 27.8516 15.082 26.208 12.5861 24.9296C12.5252 24.8687 12.4035 24.9905 12.4643 25.0514C13.1948 25.9645 14.3515 26.5732 15.3255 27.182C16.7256 28.0951 18.1257 29.0691 19.5867 29.9213C19.6476 29.9822 19.7693 29.7996 19.7084 29.7387Z" fill="white"/>
<path d="M55.7464 12.8156L49.8416 18.1117L49.7807 6.30197C49.7807 4.71923 49.2937 3.50174 48.4415 2.64949C47.5892 1.79725 46.3718 1.37112 44.9716 1.37112C43.4498 1.37112 42.2931 1.85812 41.4409 2.83212C40.6495 3.74524 40.2234 5.02361 40.2234 6.66722L40.3451 32.1737C40.3451 33.6956 40.7713 34.9131 41.6844 35.7653C42.5366 36.6176 43.6933 37.0437 45.1543 37.0437C46.3718 37.0437 47.4675 36.6176 48.4415 35.7653C49.4155 34.9131 49.9633 33.6956 49.9025 32.1737V28.0342C49.9025 28.0342 59.3989 35.6436 59.9468 36.0697C60.6164 36.6784 61.5904 36.9219 62.747 36.9219C64.0863 36.9219 65.182 36.5567 65.9734 35.7653C66.8256 34.9739 67.3126 33.8782 67.3126 32.5998C67.3126 32.0519 67.13 31.4432 66.7648 30.8953C66.5213 30.4692 56.5378 22.6164 56.5378 22.6164L61.7122 18.3552C64.0254 16.5898 65.0603 15.1897 65.0603 13.8504C65.0603 12.7547 64.5733 11.8416 63.721 11.1111C62.9297 10.4414 61.8948 10.1371 60.7382 10.1371C59.7642 10.1371 58.9119 10.3806 58.1814 10.8067C57.5727 11.2328 56.7813 11.8416 55.7464 12.8156Z" fill="#5DCBF1" stroke="#221F1F" stroke-width="0.820712" stroke-miterlimit="10" stroke-linecap="round" stroke-linejoin="round"/>
<path d="M45.2761 2.28425C48.0154 3.86699 47.9545 5.75411 48.0154 8.61522C48.0763 10.8676 48.198 13.0591 48.3198 15.3114C48.3807 16.8333 48.2589 18.5987 48.5024 20.1205C48.9894 19.4509 49.4155 18.5987 49.8417 17.8073L49.7808 6.2411C49.7808 4.65836 49.2937 3.44087 48.4415 2.58862C47.5893 1.73638 46.3718 1.31026 44.9717 1.31026C44.3021 1.31026 43.7542 1.43201 43.2063 1.61463C43.815 1.6755 44.5456 1.79725 45.2761 2.28425Z" fill="#00B7EC"/>
<path d="M50.2678 28.3386C50.0243 27.3646 49.7199 26.4515 49.2329 25.6601C48.5024 24.3818 48.6242 26.4515 48.6242 26.8167C48.6242 27.669 48.6242 29.13 48.6242 29.9822C48.5633 32.539 48.4415 35.1566 46.9197 36.1914C45.7022 37.0437 45.7022 36.9219 44.6064 36.9828C44.7891 36.9828 44.9717 37.0437 45.1543 37.0437C46.3718 37.0437 47.4675 36.6176 48.4415 35.7653C49.4155 34.9131 49.9634 33.6956 49.9025 32.1737V28.0342C49.9025 28.0342 50.0243 28.156 50.2678 28.3386Z" fill="#00B7EC"/>
<path d="M66.7648 30.8953C66.5213 30.4692 56.5378 22.6164 56.5378 22.6164L61.7122 18.3552C64.0254 16.5898 65.0603 15.1897 65.0603 13.8504C65.0603 12.7547 64.5733 11.8416 63.721 11.1111C62.9905 10.5632 62.1383 10.2588 61.1643 10.198C62.1383 10.6241 62.8688 11.3546 62.9905 12.5112C63.234 14.6418 62.1992 15.981 60.6164 17.2594C58.5467 18.903 56.4161 20.4858 54.4072 22.1294C56.7205 23.8339 58.9728 25.4775 61.1643 27.3646C62.9297 28.8865 64.9385 30.4083 65.4255 32.7824C65.7299 34.3043 64.3907 36.0088 62.9905 36.4349C62.3818 36.6175 61.773 36.7393 61.1643 36.7393C61.6513 36.861 62.1383 36.9219 62.6862 36.9219C64.0254 36.9219 65.1211 36.5567 65.9125 35.7653C66.7648 34.9739 67.2518 33.8782 67.2518 32.5998C67.3126 32.052 67.13 31.5041 66.7648 30.8953Z" fill="#00B7EC"/>
<path d="M43.7544 3.01474C43.8153 2.89299 43.6935 2.83212 43.6326 2.89299C42.0499 4.11048 41.7455 5.7541 41.6846 7.70209C41.5629 10.8067 41.4412 13.9113 41.502 17.0159C41.6238 20.1814 41.5629 23.4078 41.6238 26.5732C41.6238 28.2168 41.7455 29.8605 41.7455 31.5041C41.7455 32.5998 41.8673 33.3912 42.6586 34.1217C42.9021 34.3652 43.3283 33.9391 43.1457 33.6347C41.9282 31.9911 42.6586 28.156 42.5978 26.208C42.5369 23.4686 42.5369 20.7293 42.476 17.9899C42.4151 15.3723 42.4151 12.7547 42.476 10.1371C42.5369 7.76296 42.2325 4.90186 43.7544 3.01474Z" fill="white"/>
<path d="M61.6512 11.7807C60.4946 10.9284 58.851 11.9633 57.877 12.6938C55.6855 14.3983 53.5549 16.468 51.7287 18.5378C51.4852 18.7813 51.7896 19.0856 52.0331 18.8421C53.2505 17.5638 54.8333 16.4071 56.1725 15.2505C57.6335 13.9722 59.3989 11.8415 61.5295 11.9633C61.6512 11.9633 61.7121 11.8415 61.6512 11.7807Z" fill="white"/>
<path d="M56.4161 30.7127C55.7465 30.2257 55.0769 29.6778 54.4681 29.13C53.7376 28.5212 52.8854 28.0951 52.2158 27.4255C52.1549 27.3646 52.094 27.4864 52.094 27.4864C52.5201 28.2168 53.3115 28.643 53.9811 29.1908C54.7116 29.7387 55.3204 30.6518 56.1726 31.0171C56.3552 31.078 56.5987 30.8345 56.4161 30.7127Z" fill="white"/>
</svg>
