<svg width="110" height="70" viewBox="0 0 110 70" fill="none" xmlns="http://www.w3.org/2000/svg">
<path d="M21.0591 26.2389H19.1496V20.5105H19.4866C19.5864 20.5105 19.6988 20.4606 19.8236 20.3608C19.9733 20.2609 20.1106 20.1486 20.2354 20.0238C20.3602 19.874 20.4725 19.7243 20.5724 19.5745C20.6722 19.4247 20.7346 19.3124 20.7596 19.2375V16.2797H18.0639V15.9428H27.6112V26.2389H23.1183V25.0782H22.8188C22.6441 25.253 22.3945 25.4776 22.07 25.7522C21.7455 26.0267 21.4085 26.189 21.0591 26.2389ZM12.1108 26.2389C11.9112 26.2389 11.674 26.1391 11.3995 25.9394C11.1499 25.7397 10.9003 25.515 10.6507 25.2654C10.4011 24.9909 10.1889 24.7163 10.0142 24.4418C9.83945 24.1422 9.75209 23.9176 9.75209 23.7678V15.9428H16.6037V19.2375C16.6286 19.3124 16.691 19.4247 16.7909 19.5745C16.8907 19.7243 17.003 19.874 17.1279 20.0238C17.2527 20.1486 17.3775 20.2609 17.5023 20.3608C17.652 20.4606 17.7768 20.5105 17.8767 20.5105H18.2136V26.2389H12.1108ZM18.0639 15.793V13.9959H27.6112V15.793H18.0639ZM18.0639 13.6964V12.049H27.6112V13.6964H18.0639ZM9.75209 15.793V13.9959H16.6037V15.793H9.75209ZM9.75209 13.6964V12.049H16.6037V13.6964H9.75209ZM9.75209 11.5623V10.1021H16.6037V11.5623H9.75209ZM9.75209 9.4656V8.15518H16.6037V9.4656H9.75209ZM27.6112 10.6262V11.5623H18.0639V10.6262H27.6112ZM19.1496 6.39548V6.20828H27.6112V7.36894H20.5724C20.4226 7.16925 20.2354 6.95709 20.0108 6.73245C19.8111 6.50781 19.6364 6.39548 19.4866 6.39548H19.1496ZM17.8767 6.39548C17.7019 6.39548 17.4898 6.50781 17.2402 6.73245C16.9906 6.95709 16.8034 7.16925 16.6786 7.36894H9.75209V6.20828H18.2136V6.39548H17.8767ZM9.75209 5.27227V4.26138H18.2136V5.27227H9.75209ZM19.1496 5.27227V4.26138H27.6112V5.27227H19.1496ZM9.75209 3.13817C9.75209 2.91353 9.88938 2.62649 10.1639 2.27704H18.2136V3.13817H9.75209ZM27.1993 2.27704C27.3241 2.45176 27.424 2.61401 27.4988 2.76377C27.5737 2.91353 27.6112 3.03833 27.6112 3.13817H19.1496V2.27704H27.1993ZM18.2136 0.667106V1.04151H11.3246C11.6491 0.791907 11.9112 0.667106 12.1108 0.667106H18.2136ZM25.2524 0.667106C25.4521 0.667106 25.7142 0.791907 26.0387 1.04151H19.1496V0.667106H25.2524ZM27.6112 8.23006H20.7596V8.15518H27.6112V8.23006ZM40.6498 19.7243H37.4299V15.9428H47.5014V26.2389H40.6498V19.7243ZM36.4939 26.2389H29.6423V15.9428H36.4939V26.2389ZM37.4299 13.9959H47.5014V15.793H37.4299V13.9959ZM29.6423 15.793V13.9959H36.4939V15.793H29.6423ZM40.6498 13.6964V12.049H47.5014V13.6964H40.6498ZM29.6423 13.6964V12.049H36.4939V13.6964H29.6423ZM37.4299 5.27227V4.26138H47.5014V5.27227H37.4299ZM29.6423 11.5623V10.1021H36.4939V11.5623H29.6423ZM40.6498 11.5623V10.1021H47.5014V11.5623H40.6498ZM39.3768 6.39548H37.4299V6.20828H47.5014V7.36894H40.4626C40.3128 7.16925 40.1256 6.95709 39.901 6.73245C39.7013 6.50781 39.5266 6.39548 39.3768 6.39548ZM29.6423 9.4656V8.15518H36.4939V9.4656H29.6423ZM40.6498 9.4656V8.15518H47.5014V9.4656H40.6498ZM47.5014 3.13817H37.4299V2.27704H47.0895C47.2143 2.45176 47.3142 2.61401 47.389 2.76377C47.4639 2.91353 47.5014 3.03833 47.5014 3.13817ZM29.6423 7.36894V6.20828H36.4939V7.36894H29.6423ZM29.6423 5.27227V4.26138H36.4939V5.27227H29.6423ZM29.6423 3.13817C29.6423 2.91353 29.7796 2.62649 30.0541 2.27704H36.4939V3.13817H29.6423ZM45.1426 0.667106C45.3423 0.667106 45.6044 0.791907 45.9289 1.04151H37.4299V0.667106H45.1426ZM36.4939 0.667106V1.04151H31.2148C31.5393 0.791907 31.8014 0.667106 32.001 0.667106H36.4939ZM56.3841 26.2389H49.5325V15.9428H56.3841V26.2389ZM74.6176 26.2389H67.766V15.9428H74.6176V26.2389ZM61.2139 26.2389L57.8443 15.9428H66.3807L62.9362 26.2389H61.2139ZM57.0955 13.6964L56.5713 12.049H67.6911L67.1295 13.6964H57.0955ZM61.9253 10.1021L62.1125 10.6637L62.2997 10.1021H68.365L67.8783 11.5623H56.4215L55.9348 10.1021H61.9253ZM57.7694 15.793L57.2078 13.9959H67.0546L66.4556 15.793H57.7694ZM67.766 14.6698L67.9906 13.9959H74.6176V15.793H67.766V14.6698ZM56.3841 14.6698V15.793H49.5325V13.9959H56.1595L56.3841 14.6698ZM49.5325 13.6964V12.049H55.523L56.0471 13.6964H49.5325ZM68.0655 13.6964L68.6271 12.049H74.6176V13.6964H68.0655ZM49.5325 11.5623V10.1021H54.8865L55.3732 11.5623H49.5325ZM68.8143 11.5623L69.301 10.1021H74.6176V11.5623H68.8143ZM62.4869 9.4656L62.9362 8.15518H69.0015L68.5522 9.4656H62.4869ZM55.7102 9.4656L55.2983 8.15518H61.2888L61.7006 9.4656H55.7102ZM63.1982 7.36894L63.5727 6.20828H69.6754L69.2636 7.36894H63.1982ZM55.0362 7.36894L54.6618 6.20828H60.6149L61.0267 7.36894H55.0362ZM49.5325 9.4656V8.15518H54.25L54.6993 9.4656H49.5325ZM69.4882 9.4656L69.9375 8.15518H74.6176V9.4656H69.4882ZM63.8722 5.27227L64.2091 4.26138H70.3119L69.975 5.27227H63.8722ZM54.3623 5.27227L54.0254 4.26138H59.9784L60.3153 5.27227H54.3623ZM64.5461 3.13817L64.8456 2.27704H70.9858L70.6863 3.13817H64.5461ZM53.6509 3.13817L53.3514 2.27704H59.3044L59.604 3.13817H53.6509ZM49.5325 7.36894V6.20828H53.6135L53.9879 7.36894H49.5325ZM70.1996 7.36894L70.6114 6.20828H74.6176V7.36894H70.1996ZM49.5325 5.27227V4.26138H52.977L53.314 5.27227H49.5325ZM70.911 5.27227L71.2479 4.26138H74.6176V5.27227H70.911ZM49.5325 3.13817V2.27704H52.3405L52.6026 3.13817H49.5325ZM71.6223 3.13817L71.9219 2.27704H74.6176V3.13817H71.6223ZM71.5475 0.667106L71.3977 1.04151H65.22L65.3698 0.667106H71.5475ZM52.8273 0.667106H58.7803L58.8926 1.04151H52.9396L52.8273 0.667106ZM49.5325 0.667106H51.8164L51.9287 1.04151H49.5325V0.667106ZM74.6176 0.667106V1.04151H72.3337L72.4835 0.667106H74.6176ZM83.4772 26.2389H76.6256V15.9428H83.4772V26.2389ZM84.4132 20.5105H92.0885V26.2389H84.4132V20.5105ZM84.4132 15.793V13.9959H92.0885V15.793H84.4132ZM84.4132 13.6964V12.049H92.0885V13.6964H84.4132ZM76.6256 15.793V13.9959H83.4772V15.793H76.6256ZM76.6256 13.6964V12.049H83.4772V13.6964H76.6256ZM76.6256 11.5623V10.1021H83.4772V11.5623H76.6256ZM76.6256 9.4656V8.15518H83.4772V9.4656H76.6256ZM76.6256 7.36894V6.20828H83.4772V7.36894H76.6256ZM84.4132 5.27227V4.26138H92.0885V5.27227H84.4132ZM76.6256 5.27227V4.26138H83.4772V5.27227H76.6256ZM84.4132 10.6637H92.0885V11.5623H84.4132V10.6637ZM84.4132 3.13817V2.27704H92.0885V3.13817H84.4132ZM76.6256 3.13817V2.27704H83.4772V3.13817H76.6256ZM92.0885 16.3172H84.4132V15.9428H92.0885V16.3172ZM84.4132 0.667106H92.0885V1.04151H84.4132V0.667106ZM76.6256 0.667106H83.4772V1.04151H76.6256V0.667106ZM92.0885 6.39548H84.4132V6.20828H92.0885V6.39548ZM7.68234 69.2389H0.830749V58.9428H7.68234V69.2389ZM18.6898 60.2532C18.6898 60.403 18.6025 60.6276 18.4277 60.9271C18.253 61.2017 18.0408 61.4763 17.7912 61.7508C17.5416 62.0004 17.2796 62.2251 17.005 62.4247C16.7304 62.6244 16.5058 62.7243 16.3311 62.7243H8.61835V58.9428H18.6898V60.2532ZM8.61835 58.793V56.9959H10.5652H10.6027H18.6898V58.793H8.61835ZM0.830749 58.793V56.9959H7.68234V58.793H0.830749ZM11.052 56.6964C11.2267 56.5216 11.3889 56.3344 11.5387 56.1348C11.6885 55.9101 11.7883 55.7479 11.8382 55.648V55.049H18.6898V56.6964H11.052ZM0.830749 56.6964V55.049H7.68234V56.6964H0.830749ZM8.61835 48.2723V47.2614H18.6898V48.2723H8.61835ZM0.830749 54.5623V53.1021H7.68234V54.5623H0.830749ZM11.8382 54.5623V53.1021H18.6898V54.5623H11.8382ZM11.651 50.3689C11.5013 50.1693 11.3141 49.9571 11.0894 49.7324C10.8897 49.5078 10.715 49.3955 10.5652 49.3955H8.61835V49.2083H18.6898V50.3689H11.651ZM0.830749 52.4656V51.1552H7.68234V52.4656H0.830749ZM11.8382 52.4656V51.1552H18.6898V52.4656H11.8382ZM18.6898 46.1382H8.61835V45.277H18.278C18.4028 45.4518 18.5026 45.614 18.5775 45.7638C18.6524 45.9135 18.6898 46.0383 18.6898 46.1382ZM0.830749 50.3689V49.2083H7.68234V50.3689H0.830749ZM0.830749 48.2723V47.2614H7.68234V48.2723H0.830749ZM0.830749 46.1382V45.277H7.68234V46.1382H0.830749ZM8.61835 44.0415V43.6671H16.3311C16.5308 43.6671 16.7928 43.7919 17.1173 44.0415H8.61835ZM0.830749 43.6671H7.68234V44.0415H0.830749V43.6671ZM20.721 66.7678V58.9428H27.5725V62.2375C27.5975 62.3124 27.6599 62.4247 27.7597 62.5745C27.8596 62.7243 27.9719 62.874 28.0967 63.0238C28.2215 63.1486 28.3463 63.2609 28.4711 63.3608C28.6209 63.4606 28.7457 63.5105 28.8455 63.5105H30.7924V69.2389H23.0797C22.88 69.2389 22.6429 69.1391 22.3683 68.9394C22.1187 68.7397 21.8691 68.515 21.6195 68.2654C21.3699 67.9909 21.1578 67.7163 20.983 67.4418C20.8083 67.1422 20.721 66.9176 20.721 66.7678ZM31.7284 69.2389V58.9428H38.58V69.2389H31.7284ZM31.7284 58.793V56.9959H38.58V58.793H31.7284ZM20.721 58.793V56.9959H27.5725V58.793H20.721ZM31.7284 56.6964V55.049H38.58V56.6964H31.7284ZM20.721 56.6964V55.049H27.5725V56.6964H20.721ZM31.7284 54.5623V53.1021H38.58V54.5623H31.7284ZM20.721 54.5623V53.1021H27.5725V54.5623H20.721ZM31.7284 52.4656V51.1552H38.58V52.4656H31.7284ZM20.721 52.4656V51.1552H27.5725V52.4656H20.721ZM31.7284 50.3689V49.2083H38.58V50.3689H31.7284ZM20.721 50.3689V49.2083H27.5725V50.3689H20.721ZM31.7284 48.2723V47.2614H38.58V48.2723H31.7284ZM20.721 48.2723V47.2614H27.5725V48.2723H20.721ZM31.7284 46.1382V45.277H38.58V46.1382H31.7284ZM20.721 46.1382V45.277H27.5725V46.1382H20.721ZM27.5725 43.6671V44.0415H20.721V43.6671H27.5725ZM38.58 43.6671V44.0415H31.7284V43.6671H38.58ZM40.6112 69.2389V63.4731L43.1945 58.9428H50.6452L44.6922 69.2389H40.6112ZM56.1489 69.2389H45.7405L48.9978 63.5105H56.1489V69.2389ZM43.3069 58.793L44.3178 56.9959H51.7684L50.7201 58.793H43.3069ZM44.505 56.6964L45.441 55.049H52.8916L51.9182 56.6964H44.505ZM45.7405 54.5623L46.5642 53.1021H54.0148L53.1537 54.5623H45.7405ZM46.9386 52.4656L47.6874 51.1552H55.138L54.3892 52.4656H46.9386ZM56.1489 49.3955L55.5873 50.3689H48.1367L48.8106 49.2083H56.1489V49.3955ZM40.6112 48.2723V47.2614H48.8106L48.249 48.2723H40.6112ZM40.6112 46.1382V45.277H49.9338L49.4471 46.1382H40.6112ZM49.3348 48.2723L49.9338 47.2614H56.1489V48.2723H49.3348ZM50.5703 46.1382L51.057 45.277H56.1489V46.1382H50.5703ZM50.8698 43.6671L50.6452 44.0415H40.6112V43.6671H50.8698ZM56.1489 43.6671V44.0415H51.7684L51.993 43.6671H56.1489ZM40.6112 49.3955V49.2083H47.7248L47.6125 49.3955H40.6112ZM58.1613 69.2389V63.4731L60.7447 58.9428H68.1954L62.2423 69.2389H58.1613ZM73.6991 69.2389H63.2907L66.548 63.5105H73.6991V69.2389ZM60.8571 58.793L61.8679 56.9959H69.3186L68.2702 58.793H60.8571ZM62.0551 56.6964L62.9912 55.049H70.4418L69.4683 56.6964H62.0551ZM63.2907 54.5623L64.1144 53.1021H71.565L70.7039 54.5623H63.2907ZM64.4888 52.4656L65.2376 51.1552H72.6882L71.9394 52.4656H64.4888ZM73.6991 49.3955L73.1375 50.3689H65.6869L66.3608 49.2083H73.6991V49.3955ZM58.1613 48.2723V47.2614H66.3608L65.7992 48.2723H58.1613ZM58.1613 46.1382V45.277H67.484L66.9973 46.1382H58.1613ZM66.885 48.2723L67.484 47.2614H73.6991V48.2723H66.885ZM68.1205 46.1382L68.6072 45.277H73.6991V46.1382H68.1205ZM68.42 43.6671L68.1954 44.0415H58.1613V43.6671H68.42ZM73.6991 43.6671V44.0415H69.3186L69.5432 43.6671H73.6991ZM58.1613 49.3955V49.2083H65.275L65.1627 49.3955H58.1613ZM82.5631 69.2389H75.7115V58.9428H82.5631V69.2389ZM83.5366 63.5854H85.1465V61.2266H91.9981V69.2389H83.5366V63.5854ZM75.7115 58.793V56.9959H82.5631V58.793H75.7115ZM75.7115 56.6964V55.049H82.5631V56.6964H75.7115ZM75.7115 54.5623V53.1021H82.5631V54.5623H75.7115ZM75.7115 52.4656V51.1552H82.5631V52.4656H75.7115ZM75.7115 50.3689V49.2083H82.5631V50.3689H75.7115ZM75.7115 48.2723V47.2614H82.5631V48.2723H75.7115ZM75.7115 46.1382V45.277H82.5631V46.1382H75.7115ZM75.7115 43.6671H82.5631V44.0415H75.7115V43.6671ZM100.881 69.2389H94.0295V58.9428H100.881V69.2389ZM101.817 63.5105H109.492V69.2389H101.817V63.5105ZM101.817 58.793V56.9959H109.492V58.793H101.817ZM101.817 56.6964V55.049H109.492V56.6964H101.817ZM94.0295 58.793V56.9959H100.881V58.793H94.0295ZM94.0295 56.6964V55.049H100.881V56.6964H94.0295ZM94.0295 54.5623V53.1021H100.881V54.5623H94.0295ZM94.0295 52.4656V51.1552H100.881V52.4656H94.0295ZM94.0295 50.3689V49.2083H100.881V50.3689H94.0295ZM101.817 48.2723V47.2614H109.492V48.2723H101.817ZM94.0295 48.2723V47.2614H100.881V48.2723H94.0295ZM101.817 53.6637H109.492V54.5623H101.817V53.6637ZM101.817 46.1382V45.277H109.492V46.1382H101.817ZM94.0295 46.1382V45.277H100.881V46.1382H94.0295ZM109.492 59.3172H101.817V58.9428H109.492V59.3172ZM101.817 43.6671H109.492V44.0415H101.817V43.6671ZM94.0295 43.6671H100.881V44.0415H94.0295V43.6671ZM109.492 49.3955H101.817V49.2083H109.492V49.3955Z" fill="url(#paint0_linear_50_8622)"/>
<defs>
<linearGradient id="paint0_linear_50_8622" x1="-9.23091" y1="35.2389" x2="119.447" y2="40.056" gradientUnits="userSpaceOnUse">
<stop stop-color="#F9A545"/>
<stop offset="0.5" stop-color="#FCCB90"/>
<stop offset="0.75" stop-color="#FEDDB6"/>
<stop offset="1" stop-color="#FFF0DB"/>
</linearGradient>
</defs>
</svg>
