<svg width="74" height="46" viewBox="0 0 74 46" fill="none" xmlns="http://www.w3.org/2000/svg">
<path d="M40.0342 21.2112C40.0342 19.8111 39.6689 18.7154 39.0602 17.924C38.3905 17.1326 37.5992 16.6456 36.5643 16.463C35.7121 16.2804 34.7381 16.2195 33.5814 16.2195H24.7546C23.4154 16.2195 22.3196 16.5848 21.5283 17.1935C20.6151 17.924 20.1281 18.8371 20.1281 19.9329C20.1281 21.2721 20.7978 22.307 21.9544 22.9157C22.8675 23.3418 24.1459 23.5853 25.7895 23.5853H30.5377V26.7508C29.2593 27.2987 27.981 27.7248 26.7026 28.0901C26.3982 28.1509 26.1547 28.2118 25.8504 28.2727C23.111 28.6379 20.0064 28.5162 17.5105 26.6899C15.0147 24.8637 14.1016 22.2461 13.9189 19.2024C13.7363 15.6716 15.7452 12.3235 18.6672 10.4364C20.7978 9.03629 23.598 8.79279 25.9721 9.58416C29.0159 10.619 30.3551 14.2715 33.9467 14.2715C35.2251 14.2715 36.3817 13.8454 37.2948 13.1149C38.3297 12.3235 38.8167 11.2278 38.8167 10.0712C38.8167 9.03629 38.4514 8.00142 37.66 6.78393C36.9296 5.68819 35.8947 4.65332 34.5554 3.67933C33.2162 2.70533 31.4508 1.97483 29.3811 1.36609C27.3114 0.75734 24.8764 0.452965 22.1979 0.51384C18.9715 0.51384 15.9887 0.939966 13.4319 1.79221C10.8143 2.64446 8.56196 3.80107 6.73572 5.38381C4.90948 6.96655 3.44849 8.91454 2.53537 11.1669C1.62225 13.4193 1.13525 15.8543 1.13525 18.5327C1.13525 21.2112 1.68313 23.7071 2.65712 25.8986C3.63112 28.0901 5.09211 30.038 6.91835 31.5599C8.74459 33.0818 10.9969 34.2993 13.5537 35.0906C16.1104 35.882 18.9107 36.2473 21.9544 36.2473C24.572 36.2473 27.007 35.9429 29.1985 35.4559C31.39 34.9689 33.7032 34.1167 36.0773 33.0209C36.9296 32.5948 37.7209 32.1687 38.2688 31.7425C38.9384 31.1947 39.4254 30.5859 39.7298 29.8554C39.9733 29.1858 40.095 28.4553 40.095 27.4204L40.0342 21.2112Z" fill="#D31920" stroke="#221F1F" stroke-width="0.820712" stroke-miterlimit="10" stroke-linecap="round" stroke-linejoin="round"/>
<path d="M33.3378 9.70589C30.3549 10.1929 28.2243 8.06227 25.5459 7.33178C22.2586 6.41866 18.3626 6.96653 15.5015 8.91452C9.90107 12.7496 9.23144 21.0894 13.31 26.3247C15.5624 29.1858 19.5193 30.7076 23.1717 30.038C24.9371 29.7336 27.7373 29.0032 29.0157 27.3595C28.2243 27.6639 27.433 27.9074 26.7025 28.09C26.3981 28.1509 26.1546 28.2118 25.8502 28.2727C23.1109 28.6379 20.0063 28.5162 17.5104 26.6899C15.0145 24.8637 14.1014 22.2461 13.9188 19.2023C13.7362 15.6716 15.745 12.3235 18.667 10.4364C20.7976 9.03626 23.5979 8.79277 25.972 9.58414C29.0157 10.619 30.3549 14.2715 33.9466 14.2715C35.2249 14.2715 36.3815 13.8454 37.2947 13.1149C38.3295 12.3235 38.8165 11.2278 38.8165 10.0711C38.8165 9.03627 38.4513 8.0014 37.6599 6.7839C37.112 5.93166 36.3815 5.14029 35.4684 4.40979C36.3207 6.60128 35.8337 9.27977 33.3378 9.70589Z" fill="#D31920"/>
<path d="M40.0341 21.2112C40.0341 19.8111 39.6689 18.7154 39.0601 17.924C38.3905 17.1326 37.5991 16.6456 36.5642 16.463C35.712 16.2804 34.738 16.2195 33.5814 16.2195H24.7546C23.4153 16.2195 22.3196 16.5848 21.5282 17.1935C21.0412 17.5588 20.676 18.0458 20.4325 18.5936C21.7717 17.924 23.3544 17.924 24.8154 17.924C27.433 17.8631 30.0507 17.924 32.6683 18.0458C33.9466 18.1066 35.1641 18.1066 36.199 18.898C37.4774 19.872 37.5382 22.2461 37.5382 23.6462C37.5382 25.4725 37.3556 27.3596 36.3207 28.8814C34.4945 31.5599 31.6334 33.3253 28.5288 34.1775C21.8326 36.0646 13.2492 35.6994 7.52703 31.3164C5.57904 29.8554 3.9963 28.0292 2.77881 26.0812C3.7528 28.2118 5.15292 30.0381 6.91829 31.4991C8.74453 33.0209 10.9969 34.2384 13.5536 35.0298C16.1104 35.8211 18.9106 36.1864 21.9543 36.1864C24.5719 36.1864 27.0069 35.882 29.1984 35.395C31.3899 34.908 33.7031 34.0558 36.0772 32.96C36.9295 32.5339 37.7209 32.1078 38.2687 31.6817C38.9384 31.1338 39.4254 30.5251 39.7297 29.7946C39.9732 29.1249 40.095 28.3944 40.095 27.3596L40.0341 21.2112Z" fill="#D31920"/>
<path d="M14.345 2.40092C10.0229 3.61842 6.49219 6.72302 4.36157 10.619C2.29183 14.2715 1.74396 20.1154 3.50933 24.0114C3.75283 24.5593 4.66595 24.0114 4.5442 23.5244C4.17895 21.9417 3.8137 20.5416 3.75283 18.8371C3.69195 16.3412 4.11807 13.9062 5.03119 11.593C6.67481 7.51439 10.5099 4.47066 14.4059 2.64442C14.4668 2.58354 14.5276 2.40092 14.345 2.40092Z" fill="white"/>
<path d="M6.00526 27.2987C6.00526 27.2378 5.94438 27.2378 5.94438 27.1769C5.64001 26.8117 5.57913 26.3247 5.27476 25.8986C5.03126 25.5333 4.30077 26.0812 4.42251 26.4464C4.54426 26.9943 4.78776 27.5422 5.21389 27.9683C5.51826 28.2727 6.24875 27.6639 6.00526 27.2987Z" fill="white"/>
<path d="M29.8072 21.6982C27.8592 21.7591 22.8066 22.3678 21.7717 20.1155C21.7109 19.9937 21.5891 20.1155 21.5891 20.2372C21.5891 24.8637 30.8421 20.6025 31.2073 23.4636C31.2682 23.8897 31.8161 23.5853 31.8769 23.2809C32.0596 21.7591 31.0856 21.6982 29.8072 21.6982Z" fill="white"/>
<path d="M64.2014 11.8365C63.3491 11.1669 62.436 10.619 61.5229 10.2538C59.8793 9.5233 57.9313 9.21893 55.8007 9.21893C53.9745 9.21893 52.27 9.5233 50.7481 10.0712C49.1654 10.619 47.8261 11.4713 46.6086 12.567C45.3911 13.6628 44.478 15.0629 43.8084 16.7065C43.1996 18.2893 42.8953 20.1155 42.8953 22.0635C42.8953 24.6811 43.4431 26.9943 44.478 29.0032C45.5738 31.0729 47.0956 32.6557 49.1045 33.7514C51.0525 34.8472 53.3657 35.395 55.9833 35.395C58.1139 35.395 60.0619 34.9689 61.6447 34.2384C62.3143 33.934 62.923 33.5079 63.5926 33.0818C63.6535 35.2733 64.0188 37.5865 61.7664 38.804C59.8184 39.8998 57.4443 39.8998 55.3746 39.1693C53.0005 38.3779 51.7221 35.882 49.7132 34.6645C48.1305 33.6297 45.8781 33.9949 44.7215 35.5168C43.1388 37.5256 44.2345 39.9606 45.939 41.4825C50.7481 45.622 58.8444 46.0481 64.6884 44.2219C66.332 43.7349 68.3409 42.8217 69.6801 41.726C70.9585 40.6302 71.8716 39.291 72.4195 37.6474C72.9673 36.0647 73.2108 34.2384 73.2108 32.1078L73.0891 14.6976C73.0891 13.054 72.7847 11.7757 72.2369 10.8017C71.5672 9.64505 70.2889 9.09718 68.4626 9.09718C67.1843 9.09718 66.0885 9.52331 65.2971 10.3147C64.7493 10.7408 64.384 11.2278 64.2014 11.8365ZM58.7836 21.333C60.2445 22.6722 60.4272 25.6551 58.9662 26.9943C55.0093 30.5859 49.835 24.8028 53.4266 21.2721C54.7049 20.0546 56.8356 20.1155 58.2357 20.9069C58.4183 21.0895 58.6009 21.2112 58.7836 21.333Z" fill="#EE4736" stroke="#221F1F" stroke-width="0.820712" stroke-miterlimit="10" stroke-linecap="round" stroke-linejoin="round"/>
<path d="M56.4094 18.9589C55.2528 19.0806 54.0353 19.385 53.1831 20.2372C52.5135 20.9069 51.8438 21.7591 51.783 22.7331C51.783 23.5853 51.9656 24.1941 52.27 24.5593C52.0873 23.4636 52.4526 22.307 53.4266 21.333C54.7049 20.1155 56.8356 20.1764 58.2357 20.9677C58.4183 21.0895 58.6009 21.2112 58.7835 21.333C60.2445 22.6722 60.4272 25.6551 58.9662 26.9943C57.8095 28.0901 56.4703 28.2727 55.3746 28.0292C57.9922 29.0641 62.3143 26.8726 61.8882 23.1592C61.5229 20.2981 59.2097 18.5936 56.4094 18.9589Z" fill="#D31920"/>
<path d="M73.0281 14.6976C73.0281 13.054 72.7237 11.7757 72.1758 10.8017C71.5062 9.64505 70.2278 9.09718 68.4016 9.09718C67.9755 9.09718 67.5493 9.15806 67.1841 9.2798C68.1581 9.40155 69.0712 9.82768 69.8017 10.7408C71.7497 13.1149 70.8366 17.3761 71.0192 20.2372C71.2627 25.7768 72.8454 32.5948 70.2887 37.7691C67.3667 43.6131 59.5139 44.648 53.6091 43.4914C50.8088 42.9435 48.1303 41.4216 46.7911 38.804C46.0606 37.4039 45.391 34.9689 47.0955 34.1775C46.1823 34.3602 45.3301 34.7863 44.7822 35.5168C43.1995 37.5256 44.2952 39.9606 45.9997 41.4825C50.8088 45.622 58.9051 46.0481 64.7491 44.2219C66.3927 43.7349 68.4016 42.8217 69.7408 41.726C71.0192 40.6302 71.9323 39.291 72.4802 37.6474C73.0281 36.0647 73.2716 34.2384 73.2716 32.1078L73.0281 14.6976Z" fill="#D31920"/>
<path d="M55.131 10.4973C51.8438 10.0712 48.2522 12.3235 46.2433 14.7585C44.4171 17.0109 43.5649 19.9938 44.7215 24.3767C44.8432 24.9246 45.6955 24.3767 45.6346 23.9506C45.1476 21.0895 45.3911 18.2284 46.8521 15.7325C48.5566 12.8105 52.0873 11.7148 55.0702 10.8017C55.1919 10.6799 55.3137 10.4973 55.131 10.4973Z" fill="white"/>
<path d="M46.6089 27.6031C46.548 27.5422 46.548 27.4204 46.548 27.3596C46.548 27.2987 46.548 27.2378 46.548 27.2378V27.1769C46.548 27.1769 46.548 27.1769 46.548 27.1161C46.548 27.0552 46.548 27.0552 46.4872 26.9943C46.4263 26.6899 46.3654 26.4464 46.1828 26.2029C45.8784 25.7159 45.2088 26.2638 45.3305 26.7508C45.4523 27.0552 45.5132 27.3596 45.6349 27.7248V27.7857C45.6349 27.8466 45.6958 27.9074 45.7567 27.9683C45.7567 28.0292 45.8175 28.0901 45.8175 28.0901C46.1219 28.5771 46.8524 28.0292 46.6089 27.6031Z" fill="white"/>
<path d="M65.236 33.0209C65.236 32.8992 65.0534 32.96 64.9925 33.0818C64.8099 34.4819 64.9316 35.7603 64.4446 37.1604C63.8968 38.6823 62.314 39.778 60.853 40.265C60.7313 40.265 60.7313 40.5085 60.853 40.4476C62.1314 40.2041 63.5924 39.4736 64.3838 38.4388C65.6013 36.7952 65.5404 34.8472 65.236 33.0209Z" fill="white"/>
</svg>
